<?xml version="1.0" encoding="UTF-8" standalone="no"?>
<!DOCTYPE svg PUBLIC "-//W3C//DTD SVG 1.1//EN"
 "http://www.w3.org/Graphics/SVG/1.1/DTD/svg11.dtd">
<!-- Generated by graphviz version 2.43.0 (0)
 -->
<!-- Title: idg_object\get_idg_type Pages: 1 -->
<svg width="310pt" height="66pt"
 viewBox="0.00 0.00 310.00 66.00" xmlns="http://www.w3.org/2000/svg" xmlns:xlink="http://www.w3.org/1999/xlink">
<g id="graph0" class="graph" transform="scale(1 1) rotate(0) translate(4 62)">
<title>idg_object\get_idg_type</title>
<polygon fill="white" stroke="transparent" points="-4,4 -4,-62 306,-62 306,4 -4,4"/>
<!-- Node1 -->
<g id="node1" class="node">
<title>Node1</title>
<g id="a_node1"><a xlink:title=" ">
<polygon fill="#bfbfbf" stroke="black" points="169,-19.5 169,-38.5 302,-38.5 302,-19.5 169,-19.5"/>
<text text-anchor="middle" x="235.5" y="-26.5" font-family="Helvetica,sans-Serif" font-size="10.00">idg_object\get_idg_type</text>
</a>
</g>
</g>
<!-- Node2 -->
<g id="node2" class="node">
<title>Node2</title>
<g id="a_node2"><a xlink:href="classidg__object.html#a33ff3482311fcf1156473088d89f5fee" target="_top" xlink:title=" ">
<polygon fill="white" stroke="black" points="0,-38.5 0,-57.5 133,-57.5 133,-38.5 0,-38.5"/>
<text text-anchor="middle" x="66.5" y="-45.5" font-family="Helvetica,sans-Serif" font-size="10.00">idg_object\_print_debug</text>
</a>
</g>
</g>
<!-- Node1&#45;&gt;Node2 -->
<g id="edge1" class="edge">
<title>Node1&#45;&gt;Node2</title>
<path fill="none" stroke="midnightblue" d="M158.93,-37.6C150.32,-38.58 141.58,-39.57 133.11,-40.54"/>
<polygon fill="midnightblue" stroke="midnightblue" points="159.44,-41.06 168.98,-36.45 158.64,-34.11 159.44,-41.06"/>
</g>
<!-- Node3 -->
<g id="node3" class="node">
<title>Node3</title>
<g id="a_node3"><a xlink:href="classidg__object.html#a9c99064953fb5ec94398008a99bd9133" target="_top" xlink:title=" ">
<polygon fill="white" stroke="black" points="1,-0.5 1,-19.5 132,-19.5 132,-0.5 1,-0.5"/>
<text text-anchor="middle" x="66.5" y="-7.5" font-family="Helvetica,sans-Serif" font-size="10.00">idg_object\get_xml_tag</text>
</a>
</g>
</g>
<!-- Node1&#45;&gt;Node3 -->
<g id="edge2" class="edge">
<title>Node1&#45;&gt;Node3</title>
<path fill="none" stroke="midnightblue" d="M158.91,-20.4C149.93,-19.38 140.82,-18.34 132.01,-17.34"/>
<polygon fill="midnightblue" stroke="midnightblue" points="158.64,-23.89 168.98,-21.55 159.44,-16.94 158.64,-23.89"/>
</g>
</g>
</svg>
