<?xml version="1.0" encoding="UTF-8" standalone="no"?>
<!DOCTYPE svg PUBLIC "-//W3C//DTD SVG 1.1//EN"
 "http://www.w3.org/Graphics/SVG/1.1/DTD/svg11.dtd">
<!-- Generated by graphviz version 2.43.0 (0)
 -->
<!-- Title: idg_tree_node_implementation\get_property Pages: 1 -->
<svg width="329pt" height="186pt"
 viewBox="0.00 0.00 329.00 186.00" xmlns="http://www.w3.org/2000/svg" xmlns:xlink="http://www.w3.org/1999/xlink">
<g id="graph0" class="graph" transform="scale(1 1) rotate(0) translate(4 182)">
<title>idg_tree_node_implementation\get_property</title>
<polygon fill="white" stroke="transparent" points="-4,4 -4,-182 325,-182 325,4 -4,4"/>
<!-- Node1 -->
<g id="node1" class="node">
<title>Node1</title>
<g id="a_node1"><a xlink:title=" ">
<polygon fill="#bfbfbf" stroke="black" points="152,-73.5 152,-103.5 321,-103.5 321,-73.5 152,-73.5"/>
<text text-anchor="start" x="160" y="-91.5" font-family="Helvetica,sans-Serif" font-size="10.00">idg_tree_node_implementation</text>
<text text-anchor="middle" x="236.5" y="-80.5" font-family="Helvetica,sans-Serif" font-size="10.00">\get_property</text>
</a>
</g>
</g>
<!-- Node2 -->
<g id="node2" class="node">
<title>Node2</title>
<g id="a_node2"><a xlink:href="classidg__view__html__item__image.html#ae53e0d18e7400c9b1d01f74bc8a84536" target="_top" xlink:title=" ">
<polygon fill="white" stroke="black" points="0,-147.5 0,-177.5 116,-177.5 116,-147.5 0,-147.5"/>
<text text-anchor="start" x="8" y="-165.5" font-family="Helvetica,sans-Serif" font-size="10.00">idg_view_html_item</text>
<text text-anchor="middle" x="58" y="-154.5" font-family="Helvetica,sans-Serif" font-size="10.00">_image\render</text>
</a>
</g>
</g>
<!-- Node1&#45;&gt;Node2 -->
<g id="edge1" class="edge">
<title>Node1&#45;&gt;Node2</title>
<path fill="none" stroke="midnightblue" d="M190.06,-107.55C160.42,-119.98 122.28,-135.97 94.79,-147.49"/>
<polygon fill="midnightblue" stroke="midnightblue" points="191.49,-110.75 199.36,-103.65 188.78,-104.29 191.49,-110.75"/>
</g>
<!-- Node3 -->
<g id="node3" class="node">
<title>Node3</title>
<g id="a_node3"><a xlink:href="classidg__view__html__item__text.html#a723147371558095783bc6fbd4ff71158" target="_top" xlink:title=" ">
<polygon fill="white" stroke="black" points="0,-98.5 0,-128.5 116,-128.5 116,-98.5 0,-98.5"/>
<text text-anchor="start" x="8" y="-116.5" font-family="Helvetica,sans-Serif" font-size="10.00">idg_view_html_item</text>
<text text-anchor="middle" x="58" y="-105.5" font-family="Helvetica,sans-Serif" font-size="10.00">_text\render</text>
</a>
</g>
</g>
<!-- Node1&#45;&gt;Node3 -->
<g id="edge2" class="edge">
<title>Node1&#45;&gt;Node3</title>
<path fill="none" stroke="midnightblue" d="M141.95,-101.75C133.15,-103 124.42,-104.23 116.11,-105.41"/>
<polygon fill="midnightblue" stroke="midnightblue" points="142.49,-105.21 151.9,-100.34 141.51,-98.28 142.49,-105.21"/>
</g>
<!-- Node4 -->
<g id="node4" class="node">
<title>Node4</title>
<g id="a_node4"><a xlink:href="classidg__view__html__part__fixedbar.html#adab755787366705339e3d309a2be9716" target="_top" xlink:title=" ">
<polygon fill="white" stroke="black" points="1.5,-49.5 1.5,-79.5 114.5,-79.5 114.5,-49.5 1.5,-49.5"/>
<text text-anchor="start" x="9.5" y="-67.5" font-family="Helvetica,sans-Serif" font-size="10.00">idg_view_html_part</text>
<text text-anchor="middle" x="58" y="-56.5" font-family="Helvetica,sans-Serif" font-size="10.00">_fixedbar\render</text>
</a>
</g>
</g>
<!-- Node1&#45;&gt;Node4 -->
<g id="edge3" class="edge">
<title>Node1&#45;&gt;Node4</title>
<path fill="none" stroke="midnightblue" d="M141.81,-75.76C132.52,-74.5 123.32,-73.25 114.61,-72.06"/>
<polygon fill="midnightblue" stroke="midnightblue" points="141.52,-79.25 151.9,-77.13 142.46,-72.32 141.52,-79.25"/>
</g>
<!-- Node5 -->
<g id="node5" class="node">
<title>Node5</title>
<g id="a_node5"><a xlink:href="classidg__view__html__part__fixedcontent.html#aface840104117acc29a8835aeb774f7b" target="_top" xlink:title=" ">
<polygon fill="white" stroke="black" points="0,-0.5 0,-30.5 116,-30.5 116,-0.5 0,-0.5"/>
<text text-anchor="start" x="8" y="-18.5" font-family="Helvetica,sans-Serif" font-size="10.00">idg_view_html_part</text>
<text text-anchor="middle" x="58" y="-7.5" font-family="Helvetica,sans-Serif" font-size="10.00">_fixedcontent\render</text>
</a>
</g>
</g>
<!-- Node1&#45;&gt;Node5 -->
<g id="edge4" class="edge">
<title>Node1&#45;&gt;Node5</title>
<path fill="none" stroke="midnightblue" d="M189.34,-69.41C160.07,-57.3 122.73,-41.86 95.52,-30.61"/>
<polygon fill="midnightblue" stroke="midnightblue" points="188.35,-72.79 198.93,-73.37 191.03,-66.32 188.35,-72.79"/>
</g>
</g>
</svg>
