<?xml version="1.0" encoding="UTF-8" standalone="no"?>
<!DOCTYPE svg PUBLIC "-//W3C//DTD SVG 1.1//EN"
 "http://www.w3.org/Graphics/SVG/1.1/DTD/svg11.dtd">
<!-- Generated by graphviz version 2.43.0 (0)
 -->
<!-- Title: idg_document\get_url Pages: 1 -->
<svg width="625pt" height="85pt"
 viewBox="0.00 0.00 625.00 85.00" xmlns="http://www.w3.org/2000/svg" xmlns:xlink="http://www.w3.org/1999/xlink">
<g id="graph0" class="graph" transform="scale(1 1) rotate(0) translate(4 81)">
<title>idg_document\get_url</title>
<polygon fill="white" stroke="transparent" points="-4,4 -4,-81 621,-81 621,4 -4,4"/>
<!-- Node1 -->
<g id="node1" class="node">
<title>Node1</title>
<g id="a_node1"><a xlink:title=" ">
<polygon fill="#bfbfbf" stroke="black" points="0,-38.5 0,-57.5 122,-57.5 122,-38.5 0,-38.5"/>
<text text-anchor="middle" x="61" y="-45.5" font-family="Helvetica,sans-Serif" font-size="10.00">idg_document\get_url</text>
</a>
</g>
</g>
<!-- Node2 -->
<g id="node2" class="node">
<title>Node2</title>
<g id="a_node2"><a xlink:href="classidg__document.html#a4554297770548415a0edf16831c41255" target="_top" xlink:title=" ">
<polygon fill="white" stroke="black" points="158,-38.5 158,-57.5 289,-57.5 289,-38.5 158,-38.5"/>
<text text-anchor="middle" x="223.5" y="-45.5" font-family="Helvetica,sans-Serif" font-size="10.00">idg_document\get_path</text>
</a>
</g>
</g>
<!-- Node1&#45;&gt;Node2 -->
<g id="edge1" class="edge">
<title>Node1&#45;&gt;Node2</title>
<path fill="none" stroke="midnightblue" d="M122.22,-48C130.6,-48 139.28,-48 147.88,-48"/>
<polygon fill="midnightblue" stroke="midnightblue" points="147.91,-51.5 157.91,-48 147.91,-44.5 147.91,-51.5"/>
</g>
<!-- Node3 -->
<g id="node3" class="node">
<title>Node3</title>
<g id="a_node3"><a xlink:href="classidg__tree__node.html#a46125cb222ce856fc14b1434620a3eb2" target="_top" xlink:title=" ">
<polygon fill="white" stroke="black" points="325,-57.5 325,-76.5 466,-76.5 466,-57.5 325,-57.5"/>
<text text-anchor="middle" x="395.5" y="-64.5" font-family="Helvetica,sans-Serif" font-size="10.00">idg_tree_node\get_parent</text>
</a>
</g>
</g>
<!-- Node2&#45;&gt;Node3 -->
<g id="edge2" class="edge">
<title>Node2&#45;&gt;Node3</title>
<path fill="none" stroke="midnightblue" d="M289.25,-55.24C297.62,-56.17 306.26,-57.14 314.83,-58.1"/>
<polygon fill="midnightblue" stroke="midnightblue" points="314.5,-61.58 324.83,-59.21 315.28,-54.62 314.5,-61.58"/>
</g>
<!-- Node4 -->
<g id="node4" class="node">
<title>Node4</title>
<g id="a_node4"><a xlink:href="classidg__object.html#ac54f91fd013c01d09e085472d6bdb6e8" target="_top" xlink:title=" ">
<polygon fill="white" stroke="black" points="329.5,-19.5 329.5,-38.5 461.5,-38.5 461.5,-19.5 329.5,-19.5"/>
<text text-anchor="middle" x="395.5" y="-26.5" font-family="Helvetica,sans-Serif" font-size="10.00">idg_object\get_property</text>
</a>
</g>
</g>
<!-- Node2&#45;&gt;Node4 -->
<g id="edge3" class="edge">
<title>Node2&#45;&gt;Node4</title>
<path fill="none" stroke="midnightblue" d="M289.25,-40.76C299.11,-39.66 309.34,-38.52 319.4,-37.39"/>
<polygon fill="midnightblue" stroke="midnightblue" points="319.81,-40.87 329.36,-36.28 319.04,-33.91 319.81,-40.87"/>
</g>
<!-- Node5 -->
<g id="node5" class="node">
<title>Node5</title>
<g id="a_node5"><a xlink:href="classidg__object.html#a583e265c2dbc95871ab08eb9820c3ee8" target="_top" xlink:title="Executes members of this object and global functions.">
<polygon fill="white" stroke="black" points="505.5,-38.5 505.5,-57.5 613.5,-57.5 613.5,-38.5 505.5,-38.5"/>
<text text-anchor="middle" x="559.5" y="-45.5" font-family="Helvetica,sans-Serif" font-size="10.00">idg_object\execute</text>
</a>
</g>
</g>
<!-- Node4&#45;&gt;Node5 -->
<g id="edge4" class="edge">
<title>Node4&#45;&gt;Node5</title>
<path fill="none" stroke="midnightblue" d="M461.92,-36.67C472.84,-37.95 484.14,-39.28 495.01,-40.55"/>
<polygon fill="midnightblue" stroke="midnightblue" points="494.92,-44.07 505.26,-41.76 495.74,-37.11 494.92,-44.07"/>
</g>
<!-- Node6 -->
<g id="node6" class="node">
<title>Node6</title>
<g id="a_node6"><a xlink:href="classidg__object.html#a35093e6cb6bcfc815778ed16cbc11e75" target="_top" xlink:title=" ">
<polygon fill="white" stroke="black" points="502,-0.5 502,-19.5 617,-19.5 617,-0.5 502,-0.5"/>
<text text-anchor="middle" x="559.5" y="-7.5" font-family="Helvetica,sans-Serif" font-size="10.00">idg_object\get_hook</text>
</a>
</g>
</g>
<!-- Node4&#45;&gt;Node6 -->
<g id="edge5" class="edge">
<title>Node4&#45;&gt;Node6</title>
<path fill="none" stroke="midnightblue" d="M461.92,-21.33C471.77,-20.17 481.93,-18.98 491.79,-17.82"/>
<polygon fill="midnightblue" stroke="midnightblue" points="492.42,-21.27 501.95,-16.63 491.61,-14.32 492.42,-21.27"/>
</g>
</g>
</svg>
