<?xml version="1.0" encoding="UTF-8" standalone="no"?>
<!DOCTYPE svg PUBLIC "-//W3C//DTD SVG 1.1//EN"
 "http://www.w3.org/Graphics/SVG/1.1/DTD/svg11.dtd">
<!-- Generated by graphviz version 2.43.0 (0)
 -->
<!-- Title: idg_datasource Pages: 1 -->
<svg width="214pt" height="140pt"
 viewBox="0.00 0.00 214.00 140.00" xmlns="http://www.w3.org/2000/svg" xmlns:xlink="http://www.w3.org/1999/xlink">
<g id="graph0" class="graph" transform="scale(1 1) rotate(0) translate(4 136)">
<title>idg_datasource</title>
<polygon fill="white" stroke="transparent" points="-4,4 -4,-136 210,-136 210,4 -4,4"/>
<!-- Node1 -->
<g id="node1" class="node">
<title>Node1</title>
<g id="a_node1"><a xlink:title="A data source.">
<polygon fill="#bfbfbf" stroke="black" points="50.5,-0.5 50.5,-19.5 141.5,-19.5 141.5,-0.5 50.5,-0.5"/>
<text text-anchor="middle" x="96" y="-7.5" font-family="Helvetica,sans-Serif" font-size="10.00">idg_datasource</text>
</a>
</g>
</g>
<!-- Node2 -->
<g id="node2" class="node">
<title>Node2</title>
<g id="a_node2"><a xlink:href="classidg__leafnode.html" target="_top" xlink:title="Base class for objects organized in a tree structure.">
<polygon fill="white" stroke="black" points="0,-56.5 0,-75.5 80,-75.5 80,-56.5 0,-56.5"/>
<text text-anchor="middle" x="40" y="-63.5" font-family="Helvetica,sans-Serif" font-size="10.00">idg_leafnode</text>
</a>
</g>
</g>
<!-- Node2&#45;&gt;Node1 -->
<g id="edge1" class="edge">
<title>Node2&#45;&gt;Node1</title>
<path fill="none" stroke="midnightblue" d="M56.33,-49.25C66.26,-39.67 78.59,-27.79 86.84,-19.83"/>
<polygon fill="midnightblue" stroke="midnightblue" points="53.77,-46.86 49,-56.32 58.63,-51.9 53.77,-46.86"/>
</g>
<!-- Node3 -->
<g id="node3" class="node">
<title>Node3</title>
<g id="a_node3"><a xlink:href="classidg__object.html" target="_top" xlink:title="Base class for all objects.">
<polygon fill="white" stroke="black" points="6.5,-112.5 6.5,-131.5 73.5,-131.5 73.5,-112.5 6.5,-112.5"/>
<text text-anchor="middle" x="40" y="-119.5" font-family="Helvetica,sans-Serif" font-size="10.00">idg_object</text>
</a>
</g>
</g>
<!-- Node3&#45;&gt;Node2 -->
<g id="edge2" class="edge">
<title>Node3&#45;&gt;Node2</title>
<path fill="none" stroke="midnightblue" d="M40,-101.8C40,-92.91 40,-82.78 40,-75.75"/>
<polygon fill="midnightblue" stroke="midnightblue" points="36.5,-102.08 40,-112.08 43.5,-102.08 36.5,-102.08"/>
</g>
<!-- Node4 -->
<g id="node4" class="node">
<title>Node4</title>
<g id="a_node4"><a xlink:href="interfaceidg__parameterized.html" target="_top" xlink:title="Interface for entities that accept parameters.">
<polygon fill="white" stroke="black" points="98,-56.5 98,-75.5 206,-75.5 206,-56.5 98,-56.5"/>
<text text-anchor="middle" x="152" y="-63.5" font-family="Helvetica,sans-Serif" font-size="10.00">idg_parameterized</text>
</a>
</g>
</g>
<!-- Node4&#45;&gt;Node1 -->
<g id="edge3" class="edge">
<title>Node4&#45;&gt;Node1</title>
<path fill="none" stroke="midnightblue" d="M135.67,-49.25C125.74,-39.67 113.41,-27.79 105.16,-19.83"/>
<polygon fill="midnightblue" stroke="midnightblue" points="133.37,-51.9 143,-56.32 138.23,-46.86 133.37,-51.9"/>
</g>
</g>
</svg>
