<?xml version="1.0" encoding="UTF-8" standalone="no"?>
<!DOCTYPE svg PUBLIC "-//W3C//DTD SVG 1.1//EN"
 "http://www.w3.org/Graphics/SVG/1.1/DTD/svg11.dtd">
<!-- Generated by graphviz version 2.43.0 (0)
 -->
<!-- Title: idg_leafnode Pages: 1 -->
<svg width="674pt" height="252pt"
 viewBox="0.00 0.00 673.50 252.00" xmlns="http://www.w3.org/2000/svg" xmlns:xlink="http://www.w3.org/1999/xlink">
<g id="graph0" class="graph" transform="scale(1 1) rotate(0) translate(4 248)">
<title>idg_leafnode</title>
<polygon fill="white" stroke="transparent" points="-4,4 -4,-248 669.5,-248 669.5,4 -4,4"/>
<!-- Node1 -->
<g id="node1" class="node">
<title>Node1</title>
<g id="a_node1"><a xlink:title="Base class for objects organized in a tree structure.">
<polygon fill="#bfbfbf" stroke="black" points="108.5,-168.5 108.5,-187.5 188.5,-187.5 188.5,-168.5 108.5,-168.5"/>
<text text-anchor="middle" x="148.5" y="-175.5" font-family="Helvetica,sans-Serif" font-size="10.00">idg_leafnode</text>
</a>
</g>
</g>
<!-- Node3 -->
<g id="node3" class="node">
<title>Node3</title>
<g id="a_node3"><a xlink:href="classidg__datasource.html" target="_top" xlink:title="A data source.">
<polygon fill="white" stroke="black" points="0,-112.5 0,-131.5 91,-131.5 91,-112.5 0,-112.5"/>
<text text-anchor="middle" x="45.5" y="-119.5" font-family="Helvetica,sans-Serif" font-size="10.00">idg_datasource</text>
</a>
</g>
</g>
<!-- Node1&#45;&gt;Node3 -->
<g id="edge2" class="edge">
<title>Node1&#45;&gt;Node3</title>
<path fill="none" stroke="midnightblue" d="M122.92,-163.59C103.88,-153.61 78.44,-140.27 62.01,-131.65"/>
<polygon fill="midnightblue" stroke="midnightblue" points="121.47,-166.78 131.95,-168.32 124.72,-160.58 121.47,-166.78"/>
</g>
<!-- Node4 -->
<g id="node4" class="node">
<title>Node4</title>
<g id="a_node4"><a xlink:href="classidg__renderer.html" target="_top" xlink:title="A renderer.">
<polygon fill="white" stroke="black" points="109.5,-112.5 109.5,-131.5 187.5,-131.5 187.5,-112.5 109.5,-112.5"/>
<text text-anchor="middle" x="148.5" y="-119.5" font-family="Helvetica,sans-Serif" font-size="10.00">idg_renderer</text>
</a>
</g>
</g>
<!-- Node1&#45;&gt;Node4 -->
<g id="edge3" class="edge">
<title>Node1&#45;&gt;Node4</title>
<path fill="none" stroke="midnightblue" d="M148.5,-157.8C148.5,-148.91 148.5,-138.78 148.5,-131.75"/>
<polygon fill="midnightblue" stroke="midnightblue" points="145,-158.08 148.5,-168.08 152,-158.08 145,-158.08"/>
</g>
<!-- Node5 -->
<g id="node5" class="node">
<title>Node5</title>
<g id="a_node5"><a xlink:href="classidg__treenode.html" target="_top" xlink:title="Base class for all tree nodes which are not leaf nodes.">
<polygon fill="white" stroke="black" points="205.5,-112.5 205.5,-131.5 285.5,-131.5 285.5,-112.5 205.5,-112.5"/>
<text text-anchor="middle" x="245.5" y="-119.5" font-family="Helvetica,sans-Serif" font-size="10.00">idg_treenode</text>
</a>
</g>
</g>
<!-- Node1&#45;&gt;Node5 -->
<g id="edge4" class="edge">
<title>Node1&#45;&gt;Node5</title>
<path fill="none" stroke="midnightblue" d="M172.84,-163.45C190.74,-153.48 214.55,-140.23 229.95,-131.65"/>
<polygon fill="midnightblue" stroke="midnightblue" points="171.12,-160.4 164.08,-168.32 174.52,-166.52 171.12,-160.4"/>
</g>
<!-- Node2 -->
<g id="node2" class="node">
<title>Node2</title>
<g id="a_node2"><a xlink:href="classidg__object.html" target="_top" xlink:title="Base class for all objects.">
<polygon fill="white" stroke="black" points="115,-224.5 115,-243.5 182,-243.5 182,-224.5 115,-224.5"/>
<text text-anchor="middle" x="148.5" y="-231.5" font-family="Helvetica,sans-Serif" font-size="10.00">idg_object</text>
</a>
</g>
</g>
<!-- Node2&#45;&gt;Node1 -->
<g id="edge1" class="edge">
<title>Node2&#45;&gt;Node1</title>
<path fill="none" stroke="midnightblue" d="M148.5,-213.8C148.5,-204.91 148.5,-194.78 148.5,-187.75"/>
<polygon fill="midnightblue" stroke="midnightblue" points="145,-214.08 148.5,-224.08 152,-214.08 145,-214.08"/>
</g>
<!-- Node6 -->
<g id="node6" class="node">
<title>Node6</title>
<g id="a_node6"><a xlink:href="classidg__filter.html" target="_top" xlink:title="A filter.">
<polygon fill="white" stroke="black" points="118,-56.5 118,-75.5 177,-75.5 177,-56.5 118,-56.5"/>
<text text-anchor="middle" x="147.5" y="-63.5" font-family="Helvetica,sans-Serif" font-size="10.00">idg_filter</text>
</a>
</g>
</g>
<!-- Node5&#45;&gt;Node6 -->
<g id="edge5" class="edge">
<title>Node5&#45;&gt;Node6</title>
<path fill="none" stroke="midnightblue" d="M220.91,-107.45C202.82,-97.48 178.77,-84.23 163.21,-75.65"/>
<polygon fill="midnightblue" stroke="midnightblue" points="219.31,-110.56 229.75,-112.32 222.69,-104.43 219.31,-110.56"/>
</g>
<!-- Node7 -->
<g id="node7" class="node">
<title>Node7</title>
<g id="a_node7"><a xlink:href="classidg__site__element.html" target="_top" xlink:title="Base class for elements of a site definition.">
<polygon fill="white" stroke="black" points="195,-56.5 195,-75.5 296,-75.5 296,-56.5 195,-56.5"/>
<text text-anchor="middle" x="245.5" y="-63.5" font-family="Helvetica,sans-Serif" font-size="10.00">idg_site_element</text>
</a>
</g>
</g>
<!-- Node5&#45;&gt;Node7 -->
<g id="edge6" class="edge">
<title>Node5&#45;&gt;Node7</title>
<path fill="none" stroke="midnightblue" d="M245.5,-101.8C245.5,-92.91 245.5,-82.78 245.5,-75.75"/>
<polygon fill="midnightblue" stroke="midnightblue" points="242,-102.08 245.5,-112.08 249,-102.08 242,-102.08"/>
</g>
<!-- Node11 -->
<g id="node11" class="node">
<title>Node11</title>
<g id="a_node11"><a xlink:href="classidg__view__element.html" target="_top" xlink:title="The parent class for idg_view and every sibling thereof.">
<polygon fill="white" stroke="black" points="419.5,-56.5 419.5,-75.5 525.5,-75.5 525.5,-56.5 419.5,-56.5"/>
<text text-anchor="middle" x="472.5" y="-63.5" font-family="Helvetica,sans-Serif" font-size="10.00">idg_view_element</text>
</a>
</g>
</g>
<!-- Node5&#45;&gt;Node11 -->
<g id="edge10" class="edge">
<title>Node5&#45;&gt;Node11</title>
<path fill="none" stroke="midnightblue" d="M291.37,-110.09C334.25,-99.89 397.42,-84.86 436.7,-75.52"/>
<polygon fill="midnightblue" stroke="midnightblue" points="290.39,-106.72 281.47,-112.44 292.01,-113.53 290.39,-106.72"/>
</g>
<!-- Node8 -->
<g id="node8" class="node">
<title>Node8</title>
<g id="a_node8"><a xlink:href="classidg__document.html" target="_top" xlink:title="A document.">
<polygon fill="white" stroke="black" points="69.5,-0.5 69.5,-19.5 155.5,-19.5 155.5,-0.5 69.5,-0.5"/>
<text text-anchor="middle" x="112.5" y="-7.5" font-family="Helvetica,sans-Serif" font-size="10.00">idg_document</text>
</a>
</g>
</g>
<!-- Node7&#45;&gt;Node8 -->
<g id="edge7" class="edge">
<title>Node7&#45;&gt;Node8</title>
<path fill="none" stroke="midnightblue" d="M215.05,-52.64C190.09,-42.5 155.42,-28.43 133.48,-19.52"/>
<polygon fill="midnightblue" stroke="midnightblue" points="213.84,-55.92 224.43,-56.44 216.48,-49.44 213.84,-55.92"/>
</g>
<!-- Node9 -->
<g id="node9" class="node">
<title>Node9</title>
<g id="a_node9"><a xlink:href="classidg__folder.html" target="_top" xlink:title="A folder.">
<polygon fill="white" stroke="black" points="174,-0.5 174,-19.5 239,-19.5 239,-0.5 174,-0.5"/>
<text text-anchor="middle" x="206.5" y="-7.5" font-family="Helvetica,sans-Serif" font-size="10.00">idg_folder</text>
</a>
</g>
</g>
<!-- Node7&#45;&gt;Node9 -->
<g id="edge8" class="edge">
<title>Node7&#45;&gt;Node9</title>
<path fill="none" stroke="midnightblue" d="M233.12,-47.86C226.36,-38.5 218.29,-27.33 212.82,-19.75"/>
<polygon fill="midnightblue" stroke="midnightblue" points="230.37,-50.03 239.06,-56.08 236.04,-45.93 230.37,-50.03"/>
</g>
<!-- Node10 -->
<g id="node10" class="node">
<title>Node10</title>
<g id="a_node10"><a xlink:href="classidg__site.html" target="_top" xlink:title="The object that defines a whole site, i.e.">
<polygon fill="white" stroke="black" points="257,-0.5 257,-19.5 312,-19.5 312,-0.5 257,-0.5"/>
<text text-anchor="middle" x="284.5" y="-7.5" font-family="Helvetica,sans-Serif" font-size="10.00">idg_site</text>
</a>
</g>
</g>
<!-- Node7&#45;&gt;Node10 -->
<g id="edge9" class="edge">
<title>Node7&#45;&gt;Node10</title>
<path fill="none" stroke="midnightblue" d="M257.88,-47.86C264.64,-38.5 272.71,-27.33 278.18,-19.75"/>
<polygon fill="midnightblue" stroke="midnightblue" points="254.96,-45.93 251.94,-56.08 260.63,-50.03 254.96,-45.93"/>
</g>
<!-- Node12 -->
<g id="node12" class="node">
<title>Node12</title>
<g id="a_node12"><a xlink:href="classidg__container.html" target="_top" xlink:title="A container can contain containers as well as other elements.">
<polygon fill="white" stroke="black" points="330,-0.5 330,-19.5 413,-19.5 413,-0.5 330,-0.5"/>
<text text-anchor="middle" x="371.5" y="-7.5" font-family="Helvetica,sans-Serif" font-size="10.00">idg_container</text>
</a>
</g>
</g>
<!-- Node11&#45;&gt;Node12 -->
<g id="edge11" class="edge">
<title>Node11&#45;&gt;Node12</title>
<path fill="none" stroke="midnightblue" d="M447.42,-51.59C428.74,-41.61 403.8,-28.27 387.69,-19.65"/>
<polygon fill="midnightblue" stroke="midnightblue" points="445.8,-54.7 456.27,-56.32 449.1,-48.52 445.8,-54.7"/>
</g>
<!-- Node13 -->
<g id="node13" class="node">
<title>Node13</title>
<g id="a_node13"><a xlink:href="classidg__fragment.html" target="_top" xlink:title="A fragment produces output, has access to attributes and can also have a data source.">
<polygon fill="white" stroke="black" points="431.5,-0.5 431.5,-19.5 513.5,-19.5 513.5,-0.5 431.5,-0.5"/>
<text text-anchor="middle" x="472.5" y="-7.5" font-family="Helvetica,sans-Serif" font-size="10.00">idg_fragment</text>
</a>
</g>
</g>
<!-- Node11&#45;&gt;Node13 -->
<g id="edge12" class="edge">
<title>Node11&#45;&gt;Node13</title>
<path fill="none" stroke="midnightblue" d="M472.5,-45.8C472.5,-36.91 472.5,-26.78 472.5,-19.75"/>
<polygon fill="midnightblue" stroke="midnightblue" points="469,-46.08 472.5,-56.08 476,-46.08 469,-46.08"/>
</g>
<!-- Node14 -->
<g id="node14" class="node">
<title>Node14</title>
<g id="a_node14"><a xlink:href="classidg__slot.html" target="_top" xlink:title="A slot is where the output produced by a renderer has its place inside the view.">
<polygon fill="white" stroke="black" points="532,-0.5 532,-19.5 587,-19.5 587,-0.5 532,-0.5"/>
<text text-anchor="middle" x="559.5" y="-7.5" font-family="Helvetica,sans-Serif" font-size="10.00">idg_slot</text>
</a>
</g>
</g>
<!-- Node11&#45;&gt;Node14 -->
<g id="edge13" class="edge">
<title>Node11&#45;&gt;Node14</title>
<path fill="none" stroke="midnightblue" d="M495.22,-50.9C511.17,-41 532,-28.07 545.56,-19.65"/>
<polygon fill="midnightblue" stroke="midnightblue" points="493.13,-48.08 486.48,-56.32 496.82,-54.02 493.13,-48.08"/>
</g>
<!-- Node15 -->
<g id="node15" class="node">
<title>Node15</title>
<g id="a_node15"><a xlink:href="classidg__view.html" target="_top" xlink:title="A view.">
<polygon fill="white" stroke="black" points="605.5,-0.5 605.5,-19.5 665.5,-19.5 665.5,-0.5 605.5,-0.5"/>
<text text-anchor="middle" x="635.5" y="-7.5" font-family="Helvetica,sans-Serif" font-size="10.00">idg_view</text>
</a>
</g>
</g>
<!-- Node11&#45;&gt;Node15 -->
<g id="edge14" class="edge">
<title>Node11&#45;&gt;Node15</title>
<path fill="none" stroke="midnightblue" d="M508.2,-53.17C538.9,-43 582.42,-28.59 609.79,-19.52"/>
<polygon fill="midnightblue" stroke="midnightblue" points="506.72,-49.98 498.33,-56.44 508.92,-56.62 506.72,-49.98"/>
</g>
</g>
</svg>
