<?xml version="1.0" encoding="UTF-8" standalone="no"?>
<!DOCTYPE svg PUBLIC "-//W3C//DTD SVG 1.1//EN"
 "http://www.w3.org/Graphics/SVG/1.1/DTD/svg11.dtd">
<!-- Generated by graphviz version 2.43.0 (0)
 -->
<!-- Title: idg_view_node_param_obj Pages: 1 -->
<svg width="452pt" height="137pt"
 viewBox="0.00 0.00 452.00 137.00" xmlns="http://www.w3.org/2000/svg" xmlns:xlink="http://www.w3.org/1999/xlink">
<g id="graph0" class="graph" transform="scale(1 1) rotate(0) translate(4 133)">
<title>idg_view_node_param_obj</title>
<polygon fill="white" stroke="transparent" points="-4,4 -4,-133 448,-133 448,4 -4,4"/>
<!-- Node1 -->
<g id="node1" class="node">
<title>Node1</title>
<g id="a_node1"><a xlink:title=" ">
<polygon fill="#bfbfbf" stroke="black" points="146,-55 146,-74 292,-74 292,-55 146,-55"/>
<text text-anchor="middle" x="219" y="-62" font-family="Helvetica,sans-Serif" font-size="10.00">idg_view_node_param_obj</text>
</a>
</g>
</g>
<!-- Node3 -->
<g id="node3" class="node">
<title>Node3</title>
<g id="a_node3"><a xlink:href="classidg__view__html__item__image.html" target="_top" xlink:title=" ">
<polygon fill="white" stroke="black" points="328,-98.5 328,-128.5 444,-128.5 444,-98.5 328,-98.5"/>
<text text-anchor="start" x="336" y="-116.5" font-family="Helvetica,sans-Serif" font-size="10.00">idg_view_html_item</text>
<text text-anchor="middle" x="386" y="-105.5" font-family="Helvetica,sans-Serif" font-size="10.00">_image</text>
</a>
</g>
</g>
<!-- Node1&#45;&gt;Node3 -->
<g id="edge2" class="edge">
<title>Node1&#45;&gt;Node3</title>
<path fill="none" stroke="midnightblue" d="M261.94,-76.95C283.98,-83.5 311.16,-91.57 334.37,-98.46"/>
<polygon fill="midnightblue" stroke="midnightblue" points="262.79,-73.56 252.21,-74.06 260.8,-80.27 262.79,-73.56"/>
</g>
<!-- Node4 -->
<g id="node4" class="node">
<title>Node4</title>
<g id="a_node4"><a xlink:href="classidg__view__html__part__fixedbar.html" target="_top" xlink:title="A fixed div to the left or right.">
<polygon fill="white" stroke="black" points="329.5,-49.5 329.5,-79.5 442.5,-79.5 442.5,-49.5 329.5,-49.5"/>
<text text-anchor="start" x="337.5" y="-67.5" font-family="Helvetica,sans-Serif" font-size="10.00">idg_view_html_part</text>
<text text-anchor="middle" x="386" y="-56.5" font-family="Helvetica,sans-Serif" font-size="10.00">_fixedbar</text>
</a>
</g>
</g>
<!-- Node1&#45;&gt;Node4 -->
<g id="edge3" class="edge">
<title>Node1&#45;&gt;Node4</title>
<path fill="none" stroke="midnightblue" d="M302.5,-64.5C311.5,-64.5 320.49,-64.5 329.06,-64.5"/>
<polygon fill="midnightblue" stroke="midnightblue" points="302.37,-61 292.37,-64.5 302.37,-68 302.37,-61"/>
</g>
<!-- Node5 -->
<g id="node5" class="node">
<title>Node5</title>
<g id="a_node5"><a xlink:href="classidg__view__html__part__fixedcontent.html" target="_top" xlink:title="A simple one with the scroll bar always visible.">
<polygon fill="white" stroke="black" points="329.5,-0.5 329.5,-30.5 442.5,-30.5 442.5,-0.5 329.5,-0.5"/>
<text text-anchor="start" x="337.5" y="-18.5" font-family="Helvetica,sans-Serif" font-size="10.00">idg_view_html_part</text>
<text text-anchor="middle" x="386" y="-7.5" font-family="Helvetica,sans-Serif" font-size="10.00">_fixedcontent</text>
</a>
</g>
</g>
<!-- Node1&#45;&gt;Node5 -->
<g id="edge4" class="edge">
<title>Node1&#45;&gt;Node5</title>
<path fill="none" stroke="midnightblue" d="M261.94,-52.05C283.98,-45.5 311.16,-37.43 334.37,-30.54"/>
<polygon fill="midnightblue" stroke="midnightblue" points="260.8,-48.73 252.21,-54.94 262.79,-55.44 260.8,-48.73"/>
</g>
<!-- Node2 -->
<g id="node2" class="node">
<title>Node2</title>
<g id="a_node2"><a xlink:href="classidg__view__node__obj.html" target="_top" xlink:title=" ">
<polygon fill="white" stroke="black" points="0,-55 0,-74 110,-74 110,-55 0,-55"/>
<text text-anchor="middle" x="55" y="-62" font-family="Helvetica,sans-Serif" font-size="10.00">idg_view_node_obj</text>
</a>
</g>
</g>
<!-- Node2&#45;&gt;Node1 -->
<g id="edge1" class="edge">
<title>Node2&#45;&gt;Node1</title>
<path fill="none" stroke="midnightblue" d="M120.45,-64.5C128.82,-64.5 137.43,-64.5 145.91,-64.5"/>
<polygon fill="midnightblue" stroke="midnightblue" points="120.39,-61 110.39,-64.5 120.39,-68 120.39,-61"/>
</g>
</g>
</svg>
