<?xml version="1.0" encoding="UTF-8" standalone="no"?>
<!DOCTYPE svg PUBLIC "-//W3C//DTD SVG 1.1//EN"
 "http://www.w3.org/Graphics/SVG/1.1/DTD/svg11.dtd">
<!-- Generated by graphviz version 2.43.0 (0)
 -->
<!-- Title: idg_document\get_renderers Pages: 1 -->
<svg width="717pt" height="258pt"
 viewBox="0.00 0.00 717.00 258.44" xmlns="http://www.w3.org/2000/svg" xmlns:xlink="http://www.w3.org/1999/xlink">
<g id="graph0" class="graph" transform="scale(1 1) rotate(0) translate(4 254.44)">
<title>idg_document\get_renderers</title>
<polygon fill="white" stroke="transparent" points="-4,4 -4,-254.44 713,-254.44 713,4 -4,4"/>
<!-- Node1 -->
<g id="node1" class="node">
<title>Node1</title>
<g id="a_node1"><a xlink:title=" ">
<polygon fill="#bfbfbf" stroke="black" points="0,-174.5 0,-193.5 156,-193.5 156,-174.5 0,-174.5"/>
<text text-anchor="middle" x="78" y="-181.5" font-family="Helvetica,sans-Serif" font-size="10.00">idg_document\get_renderers</text>
</a>
</g>
</g>
<!-- Node2 -->
<g id="node2" class="node">
<title>Node2</title>
<g id="a_node2"><a xlink:href="diagnostics_8php.html#ab33364bd97c64c5f346adb6581e200b2" target="_top" xlink:title=" ">
<polygon fill="white" stroke="black" points="632.5,-221.5 632.5,-240.5 670.5,-240.5 670.5,-221.5 632.5,-221.5"/>
<text text-anchor="middle" x="651.5" y="-228.5" font-family="Helvetica,sans-Serif" font-size="10.00">diag</text>
</a>
</g>
</g>
<!-- Node1&#45;&gt;Node2 -->
<g id="edge1" class="edge">
<title>Node1&#45;&gt;Node2</title>
<path fill="none" stroke="midnightblue" d="M96.36,-193.54C118.01,-204.89 156.5,-223.26 192,-231 351.42,-265.74 549.5,-244.85 622.12,-235.14"/>
<polygon fill="midnightblue" stroke="midnightblue" points="622.86,-238.57 632.29,-233.74 621.91,-231.64 622.86,-238.57"/>
</g>
<!-- Node3 -->
<g id="node3" class="node">
<title>Node3</title>
<g id="a_node3"><a xlink:href="classidg__tree__node.html#a92a0b6f695e9cb252eb0ae8d71c10500" target="_top" xlink:title="Returns an array of all children whose property $key_name is set to $key_value and have type $child_t...">
<polygon fill="white" stroke="black" points="199.5,-191 199.5,-221 348.5,-221 348.5,-191 199.5,-191"/>
<text text-anchor="start" x="207.5" y="-209" font-family="Helvetica,sans-Serif" font-size="10.00">idg_tree_node\get_children</text>
<text text-anchor="middle" x="274" y="-198" font-family="Helvetica,sans-Serif" font-size="10.00">_by_key</text>
</a>
</g>
</g>
<!-- Node1&#45;&gt;Node3 -->
<g id="edge2" class="edge">
<title>Node1&#45;&gt;Node3</title>
<path fill="none" stroke="midnightblue" d="M156.23,-192.76C167.07,-193.99 178.26,-195.26 189.21,-196.5"/>
<polygon fill="midnightblue" stroke="midnightblue" points="188.86,-199.98 199.19,-197.63 189.65,-193.03 188.86,-199.98"/>
</g>
<!-- Node4 -->
<g id="node4" class="node">
<title>Node4</title>
<g id="a_node4"><a xlink:href="classidg__document.html#a4afd3976093de18e8f339c3dee48bed4" target="_top" xlink:title=" ">
<polygon fill="white" stroke="black" points="192,-152.5 192,-171.5 356,-171.5 356,-152.5 192,-152.5"/>
<text text-anchor="middle" x="274" y="-159.5" font-family="Helvetica,sans-Serif" font-size="10.00">idg_document\get_datasource</text>
</a>
</g>
</g>
<!-- Node1&#45;&gt;Node4 -->
<g id="edge3" class="edge">
<title>Node1&#45;&gt;Node4</title>
<path fill="none" stroke="midnightblue" d="M156.23,-175.24C164.66,-174.29 173.3,-173.31 181.88,-172.33"/>
<polygon fill="midnightblue" stroke="midnightblue" points="182.36,-175.8 191.9,-171.2 181.57,-168.85 182.36,-175.8"/>
</g>
<!-- Node8 -->
<g id="node8" class="node">
<title>Node8</title>
<g id="a_node8"><a xlink:href="classidg__document.html#a4554297770548415a0edf16831c41255" target="_top" xlink:title=" ">
<polygon fill="white" stroke="black" points="208.5,-57.5 208.5,-76.5 339.5,-76.5 339.5,-57.5 208.5,-57.5"/>
<text text-anchor="middle" x="274" y="-64.5" font-family="Helvetica,sans-Serif" font-size="10.00">idg_document\get_path</text>
</a>
</g>
</g>
<!-- Node1&#45;&gt;Node8 -->
<g id="edge9" class="edge">
<title>Node1&#45;&gt;Node8</title>
<path fill="none" stroke="midnightblue" d="M94.88,-174.43C128.71,-154.02 208.11,-106.13 248.49,-81.78"/>
<polygon fill="midnightblue" stroke="midnightblue" points="250.42,-84.7 257.18,-76.54 246.81,-78.71 250.42,-84.7"/>
</g>
<!-- Node4&#45;&gt;Node2 -->
<g id="edge4" class="edge">
<title>Node4&#45;&gt;Node2</title>
<path fill="none" stroke="midnightblue" d="M328.53,-171.57C337.95,-174.26 347.47,-177.68 356,-182 374.58,-191.4 372.69,-204.2 392,-212 470.55,-243.74 573.37,-239.07 622.28,-234.38"/>
<polygon fill="midnightblue" stroke="midnightblue" points="622.83,-237.84 632.42,-233.33 622.11,-230.88 622.83,-237.84"/>
</g>
<!-- Node5 -->
<g id="node5" class="node">
<title>Node5</title>
<g id="a_node5"><a xlink:href="classidg__tree__node.html#a78459bb68b6088d2faf43fcfe098bdf3" target="_top" xlink:title="Finds a child whose property $key_name is set to $key_value.">
<polygon fill="white" stroke="black" points="408.5,-172 408.5,-202 541.5,-202 541.5,-172 408.5,-172"/>
<text text-anchor="start" x="416.5" y="-190" font-family="Helvetica,sans-Serif" font-size="10.00">idg_tree_node\get_child</text>
<text text-anchor="middle" x="475" y="-179" font-family="Helvetica,sans-Serif" font-size="10.00">_by_key</text>
</a>
</g>
</g>
<!-- Node4&#45;&gt;Node5 -->
<g id="edge5" class="edge">
<title>Node4&#45;&gt;Node5</title>
<path fill="none" stroke="midnightblue" d="M350.8,-171.52C366.39,-173.48 382.8,-175.54 398.38,-177.5"/>
<polygon fill="midnightblue" stroke="midnightblue" points="398.13,-181 408.48,-178.77 399,-174.05 398.13,-181"/>
</g>
<!-- Node6 -->
<g id="node6" class="node">
<title>Node6</title>
<g id="a_node6"><a xlink:href="classidg__tree__node.html#a3eb6b6cb90e4636f2083d15d32cd8828" target="_top" xlink:title=" ">
<polygon fill="white" stroke="black" points="392,-133.5 392,-152.5 558,-152.5 558,-133.5 392,-133.5"/>
<text text-anchor="middle" x="475" y="-140.5" font-family="Helvetica,sans-Serif" font-size="10.00">idg_tree_node\get_parameters</text>
</a>
</g>
</g>
<!-- Node4&#45;&gt;Node6 -->
<g id="edge6" class="edge">
<title>Node4&#45;&gt;Node6</title>
<path fill="none" stroke="midnightblue" d="M356.23,-154.24C364.65,-153.44 373.25,-152.62 381.78,-151.81"/>
<polygon fill="midnightblue" stroke="midnightblue" points="382.12,-155.29 391.74,-150.85 381.45,-148.32 382.12,-155.29"/>
</g>
<!-- Node7 -->
<g id="node7" class="node">
<title>Node7</title>
<g id="a_node7"><a xlink:href="classidg__site__element.html#a06514b8d84f5ba62cf4e821884752c65" target="_top" xlink:title=" ">
<polygon fill="white" stroke="black" points="403.5,-95.5 403.5,-114.5 546.5,-114.5 546.5,-95.5 403.5,-95.5"/>
<text text-anchor="middle" x="475" y="-102.5" font-family="Helvetica,sans-Serif" font-size="10.00">idg_site_element\get_site</text>
</a>
</g>
</g>
<!-- Node4&#45;&gt;Node7 -->
<g id="edge7" class="edge">
<title>Node4&#45;&gt;Node7</title>
<path fill="none" stroke="midnightblue" d="M302.22,-152.42C325.8,-144.3 360.93,-132.63 392,-124 400.89,-121.53 410.39,-119.12 419.65,-116.9"/>
<polygon fill="midnightblue" stroke="midnightblue" points="420.63,-120.26 429.56,-114.56 419.03,-113.45 420.63,-120.26"/>
</g>
<!-- Node7&#45;&gt;Node2 -->
<g id="edge8" class="edge">
<title>Node7&#45;&gt;Node2</title>
<path fill="none" stroke="midnightblue" d="M537.26,-114.63C544.53,-117.08 551.62,-120.15 558,-124 594.94,-146.28 624.74,-188.37 639.81,-212.59"/>
<polygon fill="midnightblue" stroke="midnightblue" points="636.84,-214.45 645.01,-221.2 642.83,-210.83 636.84,-214.45"/>
</g>
<!-- Node9 -->
<g id="node9" class="node">
<title>Node9</title>
<g id="a_node9"><a xlink:href="classidg__tree__node.html#a46125cb222ce856fc14b1434620a3eb2" target="_top" xlink:title=" ">
<polygon fill="white" stroke="black" points="404.5,-57.5 404.5,-76.5 545.5,-76.5 545.5,-57.5 404.5,-57.5"/>
<text text-anchor="middle" x="475" y="-64.5" font-family="Helvetica,sans-Serif" font-size="10.00">idg_tree_node\get_parent</text>
</a>
</g>
</g>
<!-- Node8&#45;&gt;Node9 -->
<g id="edge10" class="edge">
<title>Node8&#45;&gt;Node9</title>
<path fill="none" stroke="midnightblue" d="M339.61,-67C356.96,-67 375.92,-67 394,-67"/>
<polygon fill="midnightblue" stroke="midnightblue" points="394.22,-70.5 404.22,-67 394.22,-63.5 394.22,-70.5"/>
</g>
<!-- Node10 -->
<g id="node10" class="node">
<title>Node10</title>
<g id="a_node10"><a xlink:href="classidg__object.html#ac54f91fd013c01d09e085472d6bdb6e8" target="_top" xlink:title=" ">
<polygon fill="white" stroke="black" points="409,-19.5 409,-38.5 541,-38.5 541,-19.5 409,-19.5"/>
<text text-anchor="middle" x="475" y="-26.5" font-family="Helvetica,sans-Serif" font-size="10.00">idg_object\get_property</text>
</a>
</g>
</g>
<!-- Node8&#45;&gt;Node10 -->
<g id="edge11" class="edge">
<title>Node8&#45;&gt;Node10</title>
<path fill="none" stroke="midnightblue" d="M324.96,-57.46C352.05,-52.29 385.71,-45.86 414.18,-40.42"/>
<polygon fill="midnightblue" stroke="midnightblue" points="414.85,-43.86 424.02,-38.54 413.54,-36.98 414.85,-43.86"/>
</g>
<!-- Node11 -->
<g id="node11" class="node">
<title>Node11</title>
<g id="a_node11"><a xlink:href="classidg__object.html#a583e265c2dbc95871ab08eb9820c3ee8" target="_top" xlink:title="Executes members of this object and global functions.">
<polygon fill="white" stroke="black" points="597.5,-38.5 597.5,-57.5 705.5,-57.5 705.5,-38.5 597.5,-38.5"/>
<text text-anchor="middle" x="651.5" y="-45.5" font-family="Helvetica,sans-Serif" font-size="10.00">idg_object\execute</text>
</a>
</g>
</g>
<!-- Node10&#45;&gt;Node11 -->
<g id="edge12" class="edge">
<title>Node10&#45;&gt;Node11</title>
<path fill="none" stroke="midnightblue" d="M541.47,-36.13C556.48,-37.76 572.41,-39.5 587.32,-41.12"/>
<polygon fill="midnightblue" stroke="midnightblue" points="587.13,-44.62 597.45,-42.22 587.89,-37.66 587.13,-44.62"/>
</g>
<!-- Node12 -->
<g id="node12" class="node">
<title>Node12</title>
<g id="a_node12"><a xlink:href="classidg__object.html#a35093e6cb6bcfc815778ed16cbc11e75" target="_top" xlink:title=" ">
<polygon fill="white" stroke="black" points="594,-0.5 594,-19.5 709,-19.5 709,-0.5 594,-0.5"/>
<text text-anchor="middle" x="651.5" y="-7.5" font-family="Helvetica,sans-Serif" font-size="10.00">idg_object\get_hook</text>
</a>
</g>
</g>
<!-- Node10&#45;&gt;Node12 -->
<g id="edge13" class="edge">
<title>Node10&#45;&gt;Node12</title>
<path fill="none" stroke="midnightblue" d="M541.47,-21.87C555.33,-20.36 569.96,-18.77 583.86,-17.26"/>
<polygon fill="midnightblue" stroke="midnightblue" points="584.26,-20.73 593.82,-16.17 583.5,-13.77 584.26,-20.73"/>
</g>
</g>
</svg>
