<?xml version="1.0" encoding="UTF-8" standalone="no"?>
<!DOCTYPE svg PUBLIC "-//W3C//DTD SVG 1.1//EN"
 "http://www.w3.org/Graphics/SVG/1.1/DTD/svg11.dtd">
<!-- Generated by graphviz version 2.43.0 (0)
 -->
<!-- Title: idg_type\register_property Pages: 1 -->
<svg width="341pt" height="575pt"
 viewBox="0.00 0.00 341.00 575.00" xmlns="http://www.w3.org/2000/svg" xmlns:xlink="http://www.w3.org/1999/xlink">
<g id="graph0" class="graph" transform="scale(1 1) rotate(0) translate(4 571)">
<title>idg_type\register_property</title>
<polygon fill="white" stroke="transparent" points="-4,4 -4,-571 337,-571 337,4 -4,4"/>
<!-- Node1 -->
<g id="node1" class="node">
<title>Node1</title>
<g id="a_node1"><a xlink:title="Adds a name to the list of known properties.">
<polygon fill="#bfbfbf" stroke="black" points="187,-279.5 187,-298.5 333,-298.5 333,-279.5 187,-279.5"/>
<text text-anchor="middle" x="260" y="-286.5" font-family="Helvetica,sans-Serif" font-size="10.00">idg_type\register_property</text>
</a>
</g>
</g>
<!-- Node2 -->
<g id="node2" class="node">
<title>Node2</title>
<g id="a_node2"><a xlink:href="classidg__type.html#abbe8da080faf45cf268b43413776c7e7" target="_top" xlink:title="The constructor.">
<polygon fill="white" stroke="black" points="17,-547.5 17,-566.5 134,-566.5 134,-547.5 17,-547.5"/>
<text text-anchor="middle" x="75.5" y="-554.5" font-family="Helvetica,sans-Serif" font-size="10.00">idg_type\__construct</text>
</a>
</g>
</g>
<!-- Node1&#45;&gt;Node2 -->
<g id="edge1" class="edge">
<title>Node1&#45;&gt;Node2</title>
<path fill="none" stroke="midnightblue" d="M256.37,-308.78C249,-356 223.73,-476.03 151,-538 146.02,-542.24 140.22,-545.56 134.09,-548.14"/>
<polygon fill="midnightblue" stroke="midnightblue" points="259.86,-309.05 257.84,-298.65 252.94,-308.04 259.86,-309.05"/>
</g>
<!-- Node3 -->
<g id="node3" class="node">
<title>Node3</title>
<g id="a_node3"><a xlink:href="classidg__container__type.html#af8f9f6fa6796d1bb0b523e2f27df31d9" target="_top" xlink:title="The constructor.">
<polygon fill="white" stroke="black" points="20.5,-498 20.5,-528 130.5,-528 130.5,-498 20.5,-498"/>
<text text-anchor="start" x="28.5" y="-516" font-family="Helvetica,sans-Serif" font-size="10.00">idg_container_type</text>
<text text-anchor="middle" x="75.5" y="-505" font-family="Helvetica,sans-Serif" font-size="10.00">\__construct</text>
</a>
</g>
</g>
<!-- Node1&#45;&gt;Node3 -->
<g id="edge2" class="edge">
<title>Node1&#45;&gt;Node3</title>
<path fill="none" stroke="midnightblue" d="M253.88,-308.34C242.35,-348.1 210.63,-439.42 151,-489 145.04,-493.95 138.05,-497.89 130.77,-501.02"/>
<polygon fill="midnightblue" stroke="midnightblue" points="257.29,-309.15 256.6,-298.57 250.54,-307.27 257.29,-309.15"/>
</g>
<!-- Node4 -->
<g id="node4" class="node">
<title>Node4</title>
<g id="a_node4"><a xlink:href="classidg__datasource__type.html#afd3c8a6ba5f9cf7936f95da92d71e469" target="_top" xlink:title="The constructor.">
<polygon fill="white" stroke="black" points="16.5,-449 16.5,-479 134.5,-479 134.5,-449 16.5,-449"/>
<text text-anchor="start" x="24.5" y="-467" font-family="Helvetica,sans-Serif" font-size="10.00">idg_datasource_type</text>
<text text-anchor="middle" x="75.5" y="-456" font-family="Helvetica,sans-Serif" font-size="10.00">\__construct</text>
</a>
</g>
</g>
<!-- Node1&#45;&gt;Node4 -->
<g id="edge3" class="edge">
<title>Node1&#45;&gt;Node4</title>
<path fill="none" stroke="midnightblue" d="M250.47,-307.9C235.12,-339.79 199.85,-404.32 151,-440 146.06,-443.61 140.56,-446.69 134.84,-449.31"/>
<polygon fill="midnightblue" stroke="midnightblue" points="253.67,-309.31 254.74,-298.76 247.33,-306.34 253.67,-309.31"/>
</g>
<!-- Node5 -->
<g id="node5" class="node">
<title>Node5</title>
<g id="a_node5"><a xlink:href="classidg__document__type.html#a2deb298a0207d67de704821466270487" target="_top" xlink:title="The constructor.">
<polygon fill="white" stroke="black" points="17.5,-400 17.5,-430 133.5,-430 133.5,-400 17.5,-400"/>
<text text-anchor="start" x="25.5" y="-418" font-family="Helvetica,sans-Serif" font-size="10.00">idg_document_type\</text>
<text text-anchor="middle" x="75.5" y="-407" font-family="Helvetica,sans-Serif" font-size="10.00">__construct</text>
</a>
</g>
</g>
<!-- Node1&#45;&gt;Node5 -->
<g id="edge4" class="edge">
<title>Node1&#45;&gt;Node5</title>
<path fill="none" stroke="midnightblue" d="M244.6,-306.48C225.38,-328.77 189.32,-367.14 151,-390 144.67,-393.77 137.7,-397.07 130.64,-399.92"/>
<polygon fill="midnightblue" stroke="midnightblue" points="247.32,-308.69 251.1,-298.8 241.97,-304.17 247.32,-308.69"/>
</g>
<!-- Node6 -->
<g id="node6" class="node">
<title>Node6</title>
<g id="a_node6"><a xlink:href="classidg__filter__type.html#a5bcd2051e1c26282e35059a5cd3cb139" target="_top" xlink:title="The constructor.">
<polygon fill="white" stroke="black" points="3,-361.5 3,-380.5 148,-380.5 148,-361.5 3,-361.5"/>
<text text-anchor="middle" x="75.5" y="-368.5" font-family="Helvetica,sans-Serif" font-size="10.00">idg_filter_type\__construct</text>
</a>
</g>
</g>
<!-- Node1&#45;&gt;Node6 -->
<g id="edge5" class="edge">
<title>Node1&#45;&gt;Node6</title>
<path fill="none" stroke="midnightblue" d="M237.03,-304.28C215.85,-318.41 182.46,-339.11 151,-352 141.98,-355.69 132.05,-358.83 122.46,-361.42"/>
<polygon fill="midnightblue" stroke="midnightblue" points="239,-307.18 245.32,-298.67 235.08,-301.38 239,-307.18"/>
</g>
<!-- Node7 -->
<g id="node7" class="node">
<title>Node7</title>
<g id="a_node7"><a xlink:href="classidg__folder__type.html#a96eb19c506d068c46d54918c04200004" target="_top" xlink:title="The constructor.">
<polygon fill="white" stroke="black" points="0,-323.5 0,-342.5 151,-342.5 151,-323.5 0,-323.5"/>
<text text-anchor="middle" x="75.5" y="-330.5" font-family="Helvetica,sans-Serif" font-size="10.00">idg_folder_type\__construct</text>
</a>
</g>
</g>
<!-- Node1&#45;&gt;Node7 -->
<g id="edge6" class="edge">
<title>Node1&#45;&gt;Node7</title>
<path fill="none" stroke="midnightblue" d="M209.36,-300.97C180.02,-308.04 143.39,-316.87 116.02,-323.47"/>
<polygon fill="midnightblue" stroke="midnightblue" points="210.5,-304.29 219.4,-298.55 208.86,-297.49 210.5,-304.29"/>
</g>
<!-- Node8 -->
<g id="node8" class="node">
<title>Node8</title>
<g id="a_node8"><a xlink:href="classidg__fragment__type.html#ace52a725a7d30b151604985fd3dc239d" target="_top" xlink:title="The constructor.">
<polygon fill="white" stroke="black" points="19.5,-274 19.5,-304 131.5,-304 131.5,-274 19.5,-274"/>
<text text-anchor="start" x="27.5" y="-292" font-family="Helvetica,sans-Serif" font-size="10.00">idg_fragment_type\</text>
<text text-anchor="middle" x="75.5" y="-281" font-family="Helvetica,sans-Serif" font-size="10.00">__construct</text>
</a>
</g>
</g>
<!-- Node1&#45;&gt;Node8 -->
<g id="edge7" class="edge">
<title>Node1&#45;&gt;Node8</title>
<path fill="none" stroke="midnightblue" d="M176.47,-289C161.33,-289 145.88,-289 131.78,-289"/>
<polygon fill="midnightblue" stroke="midnightblue" points="176.87,-292.5 186.87,-289 176.87,-285.5 176.87,-292.5"/>
</g>
<!-- Node9 -->
<g id="node9" class="node">
<title>Node9</title>
<g id="a_node9"><a xlink:href="classidg__renderer__type.html#a72bd03233fb88598b53dedbc0fd197bf" target="_top" xlink:title="The constructor.">
<polygon fill="white" stroke="black" points="21.5,-225 21.5,-255 129.5,-255 129.5,-225 21.5,-225"/>
<text text-anchor="start" x="29.5" y="-243" font-family="Helvetica,sans-Serif" font-size="10.00">idg_renderer_type\</text>
<text text-anchor="middle" x="75.5" y="-232" font-family="Helvetica,sans-Serif" font-size="10.00">__construct</text>
</a>
</g>
</g>
<!-- Node1&#45;&gt;Node9 -->
<g id="edge8" class="edge">
<title>Node1&#45;&gt;Node9</title>
<path fill="none" stroke="midnightblue" d="M213.61,-276.81C188.16,-269.98 156.28,-261.42 129.67,-254.28"/>
<polygon fill="midnightblue" stroke="midnightblue" points="212.81,-280.22 223.38,-279.44 214.63,-273.46 212.81,-280.22"/>
</g>
<!-- Node10 -->
<g id="node10" class="node">
<title>Node10</title>
<g id="a_node10"><a xlink:href="classidg__site__type.html#a7db9f166a582cacf48db2208262763bd" target="_top" xlink:title="The constructor.">
<polygon fill="white" stroke="black" points="5.5,-186.5 5.5,-205.5 145.5,-205.5 145.5,-186.5 5.5,-186.5"/>
<text text-anchor="middle" x="75.5" y="-193.5" font-family="Helvetica,sans-Serif" font-size="10.00">idg_site_type\__construct</text>
</a>
</g>
</g>
<!-- Node1&#45;&gt;Node10 -->
<g id="edge9" class="edge">
<title>Node1&#45;&gt;Node10</title>
<path fill="none" stroke="midnightblue" d="M239.45,-272.82C218.69,-256.38 184.33,-231.22 151,-216 141.86,-211.83 131.69,-208.38 121.86,-205.6"/>
<polygon fill="midnightblue" stroke="midnightblue" points="237.49,-275.74 247.47,-279.28 241.88,-270.28 237.49,-275.74"/>
</g>
<!-- Node11 -->
<g id="node11" class="node">
<title>Node11</title>
<g id="a_node11"><a xlink:href="classidg__site__element__type.html#a192a58686c7022f327f205ac88857434" target="_top" xlink:title="The constructor.">
<polygon fill="white" stroke="black" points="11.5,-137 11.5,-167 139.5,-167 139.5,-137 11.5,-137"/>
<text text-anchor="start" x="19.5" y="-155" font-family="Helvetica,sans-Serif" font-size="10.00">idg_site_element_type</text>
<text text-anchor="middle" x="75.5" y="-144" font-family="Helvetica,sans-Serif" font-size="10.00">\__construct</text>
</a>
</g>
</g>
<!-- Node1&#45;&gt;Node11 -->
<g id="edge10" class="edge">
<title>Node1&#45;&gt;Node11</title>
<path fill="none" stroke="midnightblue" d="M246.39,-271.35C228.03,-246.86 191.67,-202.71 151,-177 145,-173.21 138.37,-169.93 131.6,-167.1"/>
<polygon fill="midnightblue" stroke="midnightblue" points="243.57,-273.42 252.31,-279.41 249.21,-269.28 243.57,-273.42"/>
</g>
<!-- Node12 -->
<g id="node12" class="node">
<title>Node12</title>
<g id="a_node12"><a xlink:href="classidg__treenode__type.html#a3fadc1d08646d151b38c693b819242ee" target="_top" xlink:title="The constructor.">
<polygon fill="white" stroke="black" points="20.5,-88 20.5,-118 130.5,-118 130.5,-88 20.5,-88"/>
<text text-anchor="start" x="28.5" y="-106" font-family="Helvetica,sans-Serif" font-size="10.00">idg_treenode_type\</text>
<text text-anchor="middle" x="75.5" y="-95" font-family="Helvetica,sans-Serif" font-size="10.00">__construct</text>
</a>
</g>
</g>
<!-- Node1&#45;&gt;Node12 -->
<g id="edge11" class="edge">
<title>Node1&#45;&gt;Node12</title>
<path fill="none" stroke="midnightblue" d="M251.19,-269.88C236.52,-236.32 201.7,-166.69 151,-128 144.93,-123.37 137.95,-119.56 130.74,-116.45"/>
<polygon fill="midnightblue" stroke="midnightblue" points="248.11,-271.59 255.23,-279.43 254.55,-268.85 248.11,-271.59"/>
</g>
<!-- Node13 -->
<g id="node13" class="node">
<title>Node13</title>
<g id="a_node13"><a xlink:href="classidg__view__element__type.html#adfa98046c0809434a0e7fc5f5818d0ec" target="_top" xlink:title="The constructor.">
<polygon fill="white" stroke="black" points="9,-39 9,-69 142,-69 142,-39 9,-39"/>
<text text-anchor="start" x="17" y="-57" font-family="Helvetica,sans-Serif" font-size="10.00">idg_view_element_type</text>
<text text-anchor="middle" x="75.5" y="-46" font-family="Helvetica,sans-Serif" font-size="10.00">\__construct</text>
</a>
</g>
</g>
<!-- Node1&#45;&gt;Node13 -->
<g id="edge12" class="edge">
<title>Node1&#45;&gt;Node13</title>
<path fill="none" stroke="midnightblue" d="M254.34,-269.6C243.46,-228.46 212.53,-131.86 151,-79 146.55,-75.18 141.49,-71.93 136.16,-69.18"/>
<polygon fill="midnightblue" stroke="midnightblue" points="250.98,-270.61 256.83,-279.45 257.77,-268.89 250.98,-270.61"/>
</g>
<!-- Node14 -->
<g id="node14" class="node">
<title>Node14</title>
<g id="a_node14"><a xlink:href="classidg__view__type.html#ad2efac1079cfd83aebc3f86968109d46" target="_top" xlink:title="The constructor.">
<polygon fill="white" stroke="black" points="2.5,-0.5 2.5,-19.5 148.5,-19.5 148.5,-0.5 2.5,-0.5"/>
<text text-anchor="middle" x="75.5" y="-7.5" font-family="Helvetica,sans-Serif" font-size="10.00">idg_view_type\__construct</text>
</a>
</g>
</g>
<!-- Node1&#45;&gt;Node14 -->
<g id="edge13" class="edge">
<title>Node1&#45;&gt;Node14</title>
<path fill="none" stroke="midnightblue" d="M256.67,-269.15C249.88,-220.66 225.66,-95.35 151,-30 146.06,-25.68 140.29,-22.28 134.17,-19.6"/>
<polygon fill="midnightblue" stroke="midnightblue" points="253.22,-269.8 257.98,-279.26 260.16,-268.9 253.22,-269.8"/>
</g>
</g>
</svg>
