<?xml version="1.0" encoding="UTF-8" standalone="no"?>
<!DOCTYPE svg PUBLIC "-//W3C//DTD SVG 1.1//EN"
 "http://www.w3.org/Graphics/SVG/1.1/DTD/svg11.dtd">
<!-- Generated by graphviz version 2.43.0 (0)
 -->
<!-- Title: idg_filter_type\__construct Pages: 1 -->
<svg width="335pt" height="78pt"
 viewBox="0.00 0.00 335.00 77.50" xmlns="http://www.w3.org/2000/svg" xmlns:xlink="http://www.w3.org/1999/xlink">
<g id="graph0" class="graph" transform="scale(1 1) rotate(0) translate(4 73.5)">
<title>idg_filter_type\__construct</title>
<polygon fill="white" stroke="transparent" points="-4,4 -4,-73.5 331,-73.5 331,4 -4,4"/>
<!-- Node1 -->
<g id="node1" class="node">
<title>Node1</title>
<g id="a_node1"><a xlink:title="The constructor.">
<polygon fill="#bfbfbf" stroke="black" points="0,-28 0,-47 145,-47 145,-28 0,-28"/>
<text text-anchor="middle" x="72.5" y="-35" font-family="Helvetica,sans-Serif" font-size="10.00">idg_filter_type\__construct</text>
</a>
</g>
</g>
<!-- Node2 -->
<g id="node2" class="node">
<title>Node2</title>
<g id="a_node2"><a xlink:href="classidg__type.html#af530414c3e87419b503a207f8bda9abb" target="_top" xlink:title="Adds a name to the list of known properties.">
<polygon fill="white" stroke="black" points="181,-50 181,-69 327,-69 327,-50 181,-50"/>
<text text-anchor="middle" x="254" y="-57" font-family="Helvetica,sans-Serif" font-size="10.00">idg_type\register_property</text>
</a>
</g>
</g>
<!-- Node1&#45;&gt;Node2 -->
<g id="edge1" class="edge">
<title>Node1&#45;&gt;Node2</title>
<path fill="none" stroke="midnightblue" d="M145.22,-46.29C153.64,-47.32 162.28,-48.38 170.83,-49.43"/>
<polygon fill="midnightblue" stroke="midnightblue" points="170.46,-52.91 180.81,-50.65 171.31,-45.96 170.46,-52.91"/>
</g>
<!-- Node3 -->
<g id="node3" class="node">
<title>Node3</title>
<g id="a_node3"><a xlink:href="classidg__type.html#ab5d4ce497e00d120b942acb9372c214f" target="_top" xlink:title="Sets whether an existing property is mandatory.">
<polygon fill="white" stroke="black" points="192.5,-0.5 192.5,-30.5 315.5,-30.5 315.5,-0.5 192.5,-0.5"/>
<text text-anchor="start" x="200.5" y="-18.5" font-family="Helvetica,sans-Serif" font-size="10.00">idg_type\set_property</text>
<text text-anchor="middle" x="254" y="-7.5" font-family="Helvetica,sans-Serif" font-size="10.00">_mandatory</text>
</a>
</g>
</g>
<!-- Node1&#45;&gt;Node3 -->
<g id="edge2" class="edge">
<title>Node1&#45;&gt;Node3</title>
<path fill="none" stroke="midnightblue" d="M145.22,-28.71C157.42,-27.21 170.09,-25.66 182.27,-24.17"/>
<polygon fill="midnightblue" stroke="midnightblue" points="182.87,-27.62 192.37,-22.93 182.02,-20.67 182.87,-27.62"/>
</g>
</g>
</svg>
