<?xml version="1.0" encoding="UTF-8" standalone="no"?>
<!DOCTYPE svg PUBLIC "-//W3C//DTD SVG 1.1//EN"
 "http://www.w3.org/Graphics/SVG/1.1/DTD/svg11.dtd">
<!-- Generated by graphviz version 2.43.0 (0)
 -->
<!-- Title: idg_tree_node_implementation Pages: 1 -->
<svg width="371pt" height="411pt"
 viewBox="0.00 0.00 371.00 411.00" xmlns="http://www.w3.org/2000/svg" xmlns:xlink="http://www.w3.org/1999/xlink">
<g id="graph0" class="graph" transform="scale(1 1) rotate(0) translate(4 407)">
<title>idg_tree_node_implementation</title>
<polygon fill="white" stroke="transparent" points="-4,4 -4,-407 367,-407 367,4 -4,4"/>
<!-- Node1 -->
<g id="node1" class="node">
<title>Node1</title>
<g id="a_node1"><a xlink:title=" ">
<polygon fill="#bfbfbf" stroke="black" points="0,-192 0,-211 169,-211 169,-192 0,-192"/>
<text text-anchor="middle" x="84.5" y="-199" font-family="Helvetica,sans-Serif" font-size="10.00">idg_tree_node_implementation</text>
</a>
</g>
</g>
<!-- Node2 -->
<g id="node2" class="node">
<title>Node2</title>
<g id="a_node2"><a xlink:href="classidg__view__html__item__image.html" target="_top" xlink:title=" ">
<polygon fill="white" stroke="black" points="226,-372.5 226,-402.5 342,-402.5 342,-372.5 226,-372.5"/>
<text text-anchor="start" x="234" y="-390.5" font-family="Helvetica,sans-Serif" font-size="10.00">idg_view_html_item</text>
<text text-anchor="middle" x="284" y="-379.5" font-family="Helvetica,sans-Serif" font-size="10.00">_image</text>
</a>
</g>
</g>
<!-- Node1&#45;&gt;Node2 -->
<g id="edge1" class="edge">
<title>Node1&#45;&gt;Node2</title>
<path fill="none" stroke="midnightblue" d="M94.43,-220.24C111.31,-253.74 151.13,-323.94 205,-362.5 211.24,-366.97 218.32,-370.67 225.61,-373.72"/>
<polygon fill="midnightblue" stroke="midnightblue" points="97.48,-218.53 89.93,-211.11 91.2,-221.62 97.48,-218.53"/>
</g>
<!-- Node3 -->
<g id="node3" class="node">
<title>Node3</title>
<g id="a_node3"><a xlink:href="classidg__view__html__item__text.html" target="_top" xlink:title=" ">
<polygon fill="white" stroke="black" points="214,-334 214,-353 354,-353 354,-334 214,-334"/>
<text text-anchor="middle" x="284" y="-341" font-family="Helvetica,sans-Serif" font-size="10.00">idg_view_html_item_text</text>
</a>
</g>
</g>
<!-- Node1&#45;&gt;Node3 -->
<g id="edge2" class="edge">
<title>Node1&#45;&gt;Node3</title>
<path fill="none" stroke="midnightblue" d="M97.77,-219.48C117.23,-246.57 157.86,-297.55 205,-324.5 211.78,-328.37 219.32,-331.46 226.97,-333.92"/>
<polygon fill="midnightblue" stroke="midnightblue" points="100.61,-217.44 92,-211.28 94.89,-221.47 100.61,-217.44"/>
</g>
<!-- Node4 -->
<g id="node4" class="node">
<title>Node4</title>
<g id="a_node4"><a xlink:href="classidg__view__html__part__fixedbar.html" target="_top" xlink:title="A fixed div to the left or right.">
<polygon fill="white" stroke="black" points="227.5,-284.5 227.5,-314.5 340.5,-314.5 340.5,-284.5 227.5,-284.5"/>
<text text-anchor="start" x="235.5" y="-302.5" font-family="Helvetica,sans-Serif" font-size="10.00">idg_view_html_part</text>
<text text-anchor="middle" x="284" y="-291.5" font-family="Helvetica,sans-Serif" font-size="10.00">_fixedbar</text>
</a>
</g>
</g>
<!-- Node1&#45;&gt;Node4 -->
<g id="edge3" class="edge">
<title>Node1&#45;&gt;Node4</title>
<path fill="none" stroke="midnightblue" d="M106.88,-217.09C130.09,-233.44 168.72,-259.01 205,-275.5 212.22,-278.78 220.02,-281.78 227.79,-284.45"/>
<polygon fill="midnightblue" stroke="midnightblue" points="108.67,-214.07 98.49,-211.11 104.6,-219.77 108.67,-214.07"/>
</g>
<!-- Node5 -->
<g id="node5" class="node">
<title>Node5</title>
<g id="a_node5"><a xlink:href="classidg__view__html__part__fixedcontent.html" target="_top" xlink:title="A simple one with the scroll bar always visible.">
<polygon fill="white" stroke="black" points="227.5,-235.5 227.5,-265.5 340.5,-265.5 340.5,-235.5 227.5,-235.5"/>
<text text-anchor="start" x="235.5" y="-253.5" font-family="Helvetica,sans-Serif" font-size="10.00">idg_view_html_part</text>
<text text-anchor="middle" x="284" y="-242.5" font-family="Helvetica,sans-Serif" font-size="10.00">_fixedcontent</text>
</a>
</g>
</g>
<!-- Node1&#45;&gt;Node5 -->
<g id="edge4" class="edge">
<title>Node1&#45;&gt;Node5</title>
<path fill="none" stroke="midnightblue" d="M134.09,-213.55C162.32,-220.56 198,-229.41 227.35,-236.69"/>
<polygon fill="midnightblue" stroke="midnightblue" points="134.6,-210.08 124.05,-211.06 132.91,-216.87 134.6,-210.08"/>
</g>
<!-- Node6 -->
<g id="node6" class="node">
<title>Node6</title>
<g id="a_node6"><a xlink:href="classidg__view__html__renderer__markdown.html" target="_top" xlink:title=" ">
<polygon fill="white" stroke="black" points="217,-186.5 217,-216.5 351,-216.5 351,-186.5 217,-186.5"/>
<text text-anchor="start" x="225" y="-204.5" font-family="Helvetica,sans-Serif" font-size="10.00">idg_view_html_renderer</text>
<text text-anchor="middle" x="284" y="-193.5" font-family="Helvetica,sans-Serif" font-size="10.00">_markdown</text>
</a>
</g>
</g>
<!-- Node1&#45;&gt;Node6 -->
<g id="edge5" class="edge">
<title>Node1&#45;&gt;Node6</title>
<path fill="none" stroke="midnightblue" d="M179.36,-201.5C192,-201.5 204.75,-201.5 216.78,-201.5"/>
<polygon fill="midnightblue" stroke="midnightblue" points="179.26,-198 169.26,-201.5 179.26,-205 179.26,-198"/>
</g>
<!-- Node7 -->
<g id="node7" class="node">
<title>Node7</title>
<g id="a_node7"><a xlink:href="classidg__view__html__renderer__null.html" target="_top" xlink:title=" ">
<polygon fill="white" stroke="black" points="205,-148 205,-167 363,-167 363,-148 205,-148"/>
<text text-anchor="middle" x="284" y="-155" font-family="Helvetica,sans-Serif" font-size="10.00">idg_view_html_renderer_null</text>
</a>
</g>
</g>
<!-- Node1&#45;&gt;Node7 -->
<g id="edge6" class="edge">
<title>Node1&#45;&gt;Node7</title>
<path fill="none" stroke="midnightblue" d="M138.39,-189.72C170.28,-182.61 210.36,-173.68 240.23,-167.03"/>
<polygon fill="midnightblue" stroke="midnightblue" points="137.35,-186.36 128.35,-191.95 138.88,-193.19 137.35,-186.36"/>
</g>
<!-- Node8 -->
<g id="node8" class="node">
<title>Node8</title>
<g id="a_node8"><a xlink:href="classidg__view__html__renderer__phpscript.html" target="_top" xlink:title=" ">
<polygon fill="white" stroke="black" points="217,-98.5 217,-128.5 351,-128.5 351,-98.5 217,-98.5"/>
<text text-anchor="start" x="225" y="-116.5" font-family="Helvetica,sans-Serif" font-size="10.00">idg_view_html_renderer</text>
<text text-anchor="middle" x="284" y="-105.5" font-family="Helvetica,sans-Serif" font-size="10.00">_phpscript</text>
</a>
</g>
</g>
<!-- Node1&#45;&gt;Node8 -->
<g id="edge7" class="edge">
<title>Node1&#45;&gt;Node8</title>
<path fill="none" stroke="midnightblue" d="M110.4,-186.72C134.15,-173.03 171.21,-152.69 205,-138.5 213.52,-134.92 222.74,-131.55 231.76,-128.51"/>
<polygon fill="midnightblue" stroke="midnightblue" points="108.56,-183.74 101.68,-191.8 112.09,-189.79 108.56,-183.74"/>
</g>
<!-- Node9 -->
<g id="node9" class="node">
<title>Node9</title>
<g id="a_node9"><a xlink:href="classidg__view__html__renderer__sourcefile.html" target="_top" xlink:title=" ">
<polygon fill="white" stroke="black" points="217,-49.5 217,-79.5 351,-79.5 351,-49.5 217,-49.5"/>
<text text-anchor="start" x="225" y="-67.5" font-family="Helvetica,sans-Serif" font-size="10.00">idg_view_html_renderer</text>
<text text-anchor="middle" x="284" y="-56.5" font-family="Helvetica,sans-Serif" font-size="10.00">_sourcefile</text>
</a>
</g>
</g>
<!-- Node1&#45;&gt;Node9 -->
<g id="edge8" class="edge">
<title>Node1&#45;&gt;Node9</title>
<path fill="none" stroke="midnightblue" d="M99.55,-184.16C120.23,-159.73 161.15,-115.29 205,-89.5 211.5,-85.68 218.65,-82.37 225.9,-79.52"/>
<polygon fill="midnightblue" stroke="midnightblue" points="96.82,-181.98 93.12,-191.9 102.2,-186.45 96.82,-181.98"/>
</g>
<!-- Node10 -->
<g id="node10" class="node">
<title>Node10</title>
<g id="a_node10"><a xlink:href="classidg__view__html__renderer__textfile.html" target="_top" xlink:title=" ">
<polygon fill="white" stroke="black" points="217,-0.5 217,-30.5 351,-30.5 351,-0.5 217,-0.5"/>
<text text-anchor="start" x="225" y="-18.5" font-family="Helvetica,sans-Serif" font-size="10.00">idg_view_html_renderer</text>
<text text-anchor="middle" x="284" y="-7.5" font-family="Helvetica,sans-Serif" font-size="10.00">_textfile</text>
</a>
</g>
</g>
<!-- Node1&#45;&gt;Node10 -->
<g id="edge9" class="edge">
<title>Node1&#45;&gt;Node10</title>
<path fill="none" stroke="midnightblue" d="M94.43,-182.76C111.31,-149.26 151.13,-79.06 205,-40.5 210.43,-36.61 216.5,-33.31 222.79,-30.5"/>
<polygon fill="midnightblue" stroke="midnightblue" points="91.2,-181.38 89.93,-191.89 97.48,-184.47 91.2,-181.38"/>
</g>
</g>
</svg>
