<?xml version="1.0" encoding="UTF-8" standalone="no"?>
<!DOCTYPE svg PUBLIC "-//W3C//DTD SVG 1.1//EN"
 "http://www.w3.org/Graphics/SVG/1.1/DTD/svg11.dtd">
<!-- Generated by graphviz version 2.43.0 (0)
 -->
<!-- Title: idg_folder_type\__construct Pages: 1 -->
<svg width="341pt" height="78pt"
 viewBox="0.00 0.00 341.00 77.50" xmlns="http://www.w3.org/2000/svg" xmlns:xlink="http://www.w3.org/1999/xlink">
<g id="graph0" class="graph" transform="scale(1 1) rotate(0) translate(4 73.5)">
<title>idg_folder_type\__construct</title>
<polygon fill="white" stroke="transparent" points="-4,4 -4,-73.5 337,-73.5 337,4 -4,4"/>
<!-- Node1 -->
<g id="node1" class="node">
<title>Node1</title>
<g id="a_node1"><a xlink:title="The constructor.">
<polygon fill="#bfbfbf" stroke="black" points="0,-28 0,-47 151,-47 151,-28 0,-28"/>
<text text-anchor="middle" x="75.5" y="-35" font-family="Helvetica,sans-Serif" font-size="10.00">idg_folder_type\__construct</text>
</a>
</g>
</g>
<!-- Node2 -->
<g id="node2" class="node">
<title>Node2</title>
<g id="a_node2"><a xlink:href="classidg__type.html#af530414c3e87419b503a207f8bda9abb" target="_top" xlink:title="Adds a name to the list of known properties.">
<polygon fill="white" stroke="black" points="187,-50 187,-69 333,-69 333,-50 187,-50"/>
<text text-anchor="middle" x="260" y="-57" font-family="Helvetica,sans-Serif" font-size="10.00">idg_type\register_property</text>
</a>
</g>
</g>
<!-- Node1&#45;&gt;Node2 -->
<g id="edge1" class="edge">
<title>Node1&#45;&gt;Node2</title>
<path fill="none" stroke="midnightblue" d="M151.26,-46.51C159.58,-47.52 168.1,-48.54 176.52,-49.56"/>
<polygon fill="midnightblue" stroke="midnightblue" points="176.37,-53.06 186.72,-50.79 177.21,-46.11 176.37,-53.06"/>
</g>
<!-- Node3 -->
<g id="node3" class="node">
<title>Node3</title>
<g id="a_node3"><a xlink:href="classidg__type.html#ab5d4ce497e00d120b942acb9372c214f" target="_top" xlink:title="Sets whether an existing property is mandatory.">
<polygon fill="white" stroke="black" points="198.5,-0.5 198.5,-30.5 321.5,-30.5 321.5,-0.5 198.5,-0.5"/>
<text text-anchor="start" x="206.5" y="-18.5" font-family="Helvetica,sans-Serif" font-size="10.00">idg_type\set_property</text>
<text text-anchor="middle" x="260" y="-7.5" font-family="Helvetica,sans-Serif" font-size="10.00">_mandatory</text>
</a>
</g>
</g>
<!-- Node1&#45;&gt;Node3 -->
<g id="edge2" class="edge">
<title>Node1&#45;&gt;Node3</title>
<path fill="none" stroke="midnightblue" d="M151.26,-28.49C163.48,-27.01 176.12,-25.49 188.25,-24.03"/>
<polygon fill="midnightblue" stroke="midnightblue" points="188.79,-27.49 198.29,-22.82 187.95,-20.54 188.79,-27.49"/>
</g>
</g>
</svg>
