<?xml version="1.0" encoding="UTF-8" standalone="no"?>
<!DOCTYPE svg PUBLIC "-//W3C//DTD SVG 1.1//EN"
 "http://www.w3.org/Graphics/SVG/1.1/DTD/svg11.dtd">
<!-- Generated by graphviz version 2.43.0 (0)
 -->
<!-- Title: idg_object_type\set_mandatory Pages: 1 -->
<svg width="307pt" height="312pt"
 viewBox="0.00 0.00 307.00 312.00" xmlns="http://www.w3.org/2000/svg" xmlns:xlink="http://www.w3.org/1999/xlink">
<g id="graph0" class="graph" transform="scale(1 1) rotate(0) translate(4 308)">
<title>idg_object_type\set_mandatory</title>
<polygon fill="white" stroke="transparent" points="-4,4 -4,-308 303,-308 303,4 -4,4"/>
<!-- Node1 -->
<g id="node1" class="node">
<title>Node1</title>
<g id="a_node1"><a xlink:title=" ">
<polygon fill="#bfbfbf" stroke="black" points="187,-131.5 187,-161.5 299,-161.5 299,-131.5 187,-131.5"/>
<text text-anchor="start" x="195" y="-149.5" font-family="Helvetica,sans-Serif" font-size="10.00">idg_object_type\set</text>
<text text-anchor="middle" x="243" y="-138.5" font-family="Helvetica,sans-Serif" font-size="10.00">_mandatory</text>
</a>
</g>
</g>
<!-- Node2 -->
<g id="node2" class="node">
<title>Node2</title>
<g id="a_node2"><a xlink:href="classidg__datasource__declaration__type.html#acf427d15d9f350ace6516710d724302a" target="_top" xlink:title=" ">
<polygon fill="white" stroke="black" points="0,-273.5 0,-303.5 151,-303.5 151,-273.5 0,-273.5"/>
<text text-anchor="start" x="8" y="-291.5" font-family="Helvetica,sans-Serif" font-size="10.00">idg_datasource_declaration</text>
<text text-anchor="middle" x="75.5" y="-280.5" font-family="Helvetica,sans-Serif" font-size="10.00">_type\__construct</text>
</a>
</g>
</g>
<!-- Node1&#45;&gt;Node2 -->
<g id="edge1" class="edge">
<title>Node1&#45;&gt;Node2</title>
<path fill="none" stroke="midnightblue" d="M229.34,-170.58C214.15,-197.24 186.25,-239.72 151,-264.5 146.11,-267.94 140.7,-270.9 135.09,-273.46"/>
<polygon fill="midnightblue" stroke="midnightblue" points="232.57,-171.98 234.36,-161.53 226.45,-168.58 232.57,-171.98"/>
</g>
<!-- Node3 -->
<g id="node3" class="node">
<title>Node3</title>
<g id="a_node3"><a xlink:href="classidg__renderer__declaration__type.html#af92105f008f328ef15ea2cb36fe45cda" target="_top" xlink:title=" ">
<polygon fill="white" stroke="black" points="6.5,-224.5 6.5,-254.5 144.5,-254.5 144.5,-224.5 6.5,-224.5"/>
<text text-anchor="start" x="14.5" y="-242.5" font-family="Helvetica,sans-Serif" font-size="10.00">idg_renderer_declaration</text>
<text text-anchor="middle" x="75.5" y="-231.5" font-family="Helvetica,sans-Serif" font-size="10.00">_type\__construct</text>
</a>
</g>
</g>
<!-- Node1&#45;&gt;Node3 -->
<g id="edge2" class="edge">
<title>Node1&#45;&gt;Node3</title>
<path fill="none" stroke="midnightblue" d="M217.75,-168.52C200.25,-183.46 175.48,-202.75 151,-215.5 144.61,-218.83 137.68,-221.81 130.69,-224.44"/>
<polygon fill="midnightblue" stroke="midnightblue" points="220.48,-170.78 225.72,-161.58 215.88,-165.5 220.48,-170.78"/>
</g>
<!-- Node4 -->
<g id="node4" class="node">
<title>Node4</title>
<g id="a_node4"><a xlink:href="classidg__site__element__type.html#a192a58686c7022f327f205ac88857434" target="_top" xlink:title=" ">
<polygon fill="white" stroke="black" points="11.5,-175.5 11.5,-205.5 139.5,-205.5 139.5,-175.5 11.5,-175.5"/>
<text text-anchor="start" x="19.5" y="-193.5" font-family="Helvetica,sans-Serif" font-size="10.00">idg_site_element_type</text>
<text text-anchor="middle" x="75.5" y="-182.5" font-family="Helvetica,sans-Serif" font-size="10.00">\__construct</text>
</a>
</g>
</g>
<!-- Node1&#45;&gt;Node4 -->
<g id="edge3" class="edge">
<title>Node1&#45;&gt;Node4</title>
<path fill="none" stroke="midnightblue" d="M176.99,-163.78C162.48,-167.64 147.2,-171.7 133.07,-175.46"/>
<polygon fill="midnightblue" stroke="midnightblue" points="178.13,-167.1 186.89,-161.15 176.33,-160.34 178.13,-167.1"/>
</g>
<!-- Node5 -->
<g id="node5" class="node">
<title>Node5</title>
<g id="a_node5"><a xlink:href="classidg__folder__type.html#a96eb19c506d068c46d54918c04200004" target="_top" xlink:title=" ">
<polygon fill="white" stroke="black" points="0,-137 0,-156 151,-156 151,-137 0,-137"/>
<text text-anchor="middle" x="75.5" y="-144" font-family="Helvetica,sans-Serif" font-size="10.00">idg_folder_type\__construct</text>
</a>
</g>
</g>
<!-- Node1&#45;&gt;Node5 -->
<g id="edge4" class="edge">
<title>Node1&#45;&gt;Node5</title>
<path fill="none" stroke="midnightblue" d="M176.77,-146.5C168.34,-146.5 159.67,-146.5 151.11,-146.5"/>
<polygon fill="midnightblue" stroke="midnightblue" points="176.89,-150 186.89,-146.5 176.89,-143 176.89,-150"/>
</g>
<!-- Node6 -->
<g id="node6" class="node">
<title>Node6</title>
<g id="a_node6"><a xlink:href="classidg__site__type.html#a7db9f166a582cacf48db2208262763bd" target="_top" xlink:title=" ">
<polygon fill="white" stroke="black" points="5.5,-99 5.5,-118 145.5,-118 145.5,-99 5.5,-99"/>
<text text-anchor="middle" x="75.5" y="-106" font-family="Helvetica,sans-Serif" font-size="10.00">idg_site_type\__construct</text>
</a>
</g>
</g>
<!-- Node1&#45;&gt;Node6 -->
<g id="edge5" class="edge">
<title>Node1&#45;&gt;Node6</title>
<path fill="none" stroke="midnightblue" d="M176.98,-131.57C157.13,-127.01 135.86,-122.13 118.02,-118.03"/>
<polygon fill="midnightblue" stroke="midnightblue" points="176.36,-135.02 186.89,-133.85 177.93,-128.2 176.36,-135.02"/>
</g>
<!-- Node7 -->
<g id="node7" class="node">
<title>Node7</title>
<g id="a_node7"><a xlink:href="classidg__view__html__renderer__type.html#afd0da975bd9282b67095b5e5812333aa" target="_top" xlink:title=" ">
<polygon fill="white" stroke="black" points="8.5,-49.5 8.5,-79.5 142.5,-79.5 142.5,-49.5 8.5,-49.5"/>
<text text-anchor="start" x="16.5" y="-67.5" font-family="Helvetica,sans-Serif" font-size="10.00">idg_view_html_renderer</text>
<text text-anchor="middle" x="75.5" y="-56.5" font-family="Helvetica,sans-Serif" font-size="10.00">_type\__construct</text>
</a>
</g>
</g>
<!-- Node1&#45;&gt;Node7 -->
<g id="edge6" class="edge">
<title>Node1&#45;&gt;Node7</title>
<path fill="none" stroke="midnightblue" d="M212.57,-125.58C195.23,-113.89 172.53,-99.68 151,-89.5 143.35,-85.88 135.04,-82.55 126.83,-79.58"/>
<polygon fill="midnightblue" stroke="midnightblue" points="210.89,-128.67 221.12,-131.42 214.84,-122.89 210.89,-128.67"/>
</g>
<!-- Node8 -->
<g id="node8" class="node">
<title>Node8</title>
<g id="a_node8"><a xlink:href="classidg__view__html__slot__type.html#ab2de0cfdabf53c6d204c02002750c238" target="_top" xlink:title=" ">
<polygon fill="white" stroke="black" points="20,-0.5 20,-30.5 131,-30.5 131,-0.5 20,-0.5"/>
<text text-anchor="start" x="28" y="-18.5" font-family="Helvetica,sans-Serif" font-size="10.00">idg_view_html_slot</text>
<text text-anchor="middle" x="75.5" y="-7.5" font-family="Helvetica,sans-Serif" font-size="10.00">_type\__construct</text>
</a>
</g>
</g>
<!-- Node1&#45;&gt;Node8 -->
<g id="edge7" class="edge">
<title>Node1&#45;&gt;Node8</title>
<path fill="none" stroke="midnightblue" d="M227.2,-122.72C211.16,-98.78 183.47,-62.36 151,-40.5 144.89,-36.39 138.04,-32.89 131.04,-29.95"/>
<polygon fill="midnightblue" stroke="midnightblue" points="224.36,-124.77 232.76,-131.23 230.22,-120.94 224.36,-124.77"/>
</g>
</g>
</svg>
