<?xml version="1.0" encoding="UTF-8" standalone="no"?>
<!DOCTYPE svg PUBLIC "-//W3C//DTD SVG 1.1//EN"
 "http://www.w3.org/Graphics/SVG/1.1/DTD/svg11.dtd">
<!-- Generated by graphviz version 2.43.0 (0)
 -->
<!-- Title: idg_object\set_idg_type Pages: 1 -->
<svg width="327pt" height="524pt"
 viewBox="0.00 0.00 327.00 524.00" xmlns="http://www.w3.org/2000/svg" xmlns:xlink="http://www.w3.org/1999/xlink">
<g id="graph0" class="graph" transform="scale(1 1) rotate(0) translate(4 520)">
<title>idg_object\set_idg_type</title>
<polygon fill="white" stroke="transparent" points="-4,4 -4,-520 323,-520 323,4 -4,4"/>
<!-- Node1 -->
<g id="node1" class="node">
<title>Node1</title>
<g id="a_node1"><a xlink:title=" ">
<polygon fill="#bfbfbf" stroke="black" points="187,-265 187,-284 319,-284 319,-265 187,-265"/>
<text text-anchor="middle" x="253" y="-272" font-family="Helvetica,sans-Serif" font-size="10.00">idg_object\set_idg_type</text>
</a>
</g>
</g>
<!-- Node2 -->
<g id="node2" class="node">
<title>Node2</title>
<g id="a_node2"><a xlink:href="classidg__datasource__declaration.html#a37c51859bdfc86d73601605fdedc03e9" target="_top" xlink:title="Constructs an idg object and assigns the corresponding idg type.">
<polygon fill="white" stroke="black" points="0,-485.5 0,-515.5 151,-515.5 151,-485.5 0,-485.5"/>
<text text-anchor="start" x="8" y="-503.5" font-family="Helvetica,sans-Serif" font-size="10.00">idg_datasource_declaration</text>
<text text-anchor="middle" x="75.5" y="-492.5" font-family="Helvetica,sans-Serif" font-size="10.00">\__construct</text>
</a>
</g>
</g>
<!-- Node1&#45;&gt;Node2 -->
<g id="edge1" class="edge">
<title>Node1&#45;&gt;Node2</title>
<path fill="none" stroke="midnightblue" d="M247.65,-294.02C237.69,-334.14 209.47,-426.31 151,-476.5 146.98,-479.95 142.45,-482.91 137.67,-485.44"/>
<polygon fill="midnightblue" stroke="midnightblue" points="251.08,-294.7 249.98,-284.16 244.27,-293.08 251.08,-294.7"/>
</g>
<!-- Node3 -->
<g id="node3" class="node">
<title>Node3</title>
<g id="a_node3"><a xlink:href="classidg__renderer__declaration.html#a5016fb09dc39752512e1ca67424992e5" target="_top" xlink:title="Constructs an idg object and assigns the corresponding idg type.">
<polygon fill="white" stroke="black" points="6.5,-436.5 6.5,-466.5 144.5,-466.5 144.5,-436.5 6.5,-436.5"/>
<text text-anchor="start" x="14.5" y="-454.5" font-family="Helvetica,sans-Serif" font-size="10.00">idg_renderer_declaration</text>
<text text-anchor="middle" x="75.5" y="-443.5" font-family="Helvetica,sans-Serif" font-size="10.00">\__construct</text>
</a>
</g>
</g>
<!-- Node1&#45;&gt;Node3 -->
<g id="edge2" class="edge">
<title>Node1&#45;&gt;Node3</title>
<path fill="none" stroke="midnightblue" d="M244.16,-293.88C230.2,-326.05 197.99,-390.48 151,-426.5 146.02,-430.32 140.42,-433.57 134.59,-436.34"/>
<polygon fill="midnightblue" stroke="midnightblue" points="247.54,-294.87 248.2,-284.3 241.09,-292.16 247.54,-294.87"/>
</g>
<!-- Node4 -->
<g id="node4" class="node">
<title>Node4</title>
<g id="a_node4"><a xlink:href="classidg__site.html#a7319dbf6edb027e67ef83125e64f3e61" target="_top" xlink:title="Constructs an idg object and assigns the corresponding idg type.">
<polygon fill="white" stroke="black" points="19,-398 19,-417 132,-417 132,-398 19,-398"/>
<text text-anchor="middle" x="75.5" y="-405" font-family="Helvetica,sans-Serif" font-size="10.00">idg_site\__construct</text>
</a>
</g>
</g>
<!-- Node1&#45;&gt;Node4 -->
<g id="edge3" class="edge">
<title>Node1&#45;&gt;Node4</title>
<path fill="none" stroke="midnightblue" d="M240.84,-292.88C224.4,-318.33 191.23,-363.96 151,-388.5 144.62,-392.39 137.46,-395.49 130.18,-397.96"/>
<polygon fill="midnightblue" stroke="midnightblue" points="243.94,-294.52 246.3,-284.19 238.01,-290.79 243.94,-294.52"/>
</g>
<!-- Node5 -->
<g id="node5" class="node">
<title>Node5</title>
<g id="a_node5"><a xlink:href="classidg__folder.html#ab70576b0e9fe6af00534babec2801fcf" target="_top" xlink:title="Constructs an idg object and assigns the corresponding idg type.">
<polygon fill="white" stroke="black" points="13.5,-360 13.5,-379 137.5,-379 137.5,-360 13.5,-360"/>
<text text-anchor="middle" x="75.5" y="-367" font-family="Helvetica,sans-Serif" font-size="10.00">idg_folder\__construct</text>
</a>
</g>
</g>
<!-- Node1&#45;&gt;Node5 -->
<g id="edge4" class="edge">
<title>Node1&#45;&gt;Node5</title>
<path fill="none" stroke="midnightblue" d="M234.43,-291.21C215.34,-308.48 183.23,-335.04 151,-350.5 143.06,-354.31 134.26,-357.42 125.57,-359.94"/>
<polygon fill="midnightblue" stroke="midnightblue" points="237.03,-293.57 242.01,-284.22 232.28,-288.43 237.03,-293.57"/>
</g>
<!-- Node6 -->
<g id="node6" class="node">
<title>Node6</title>
<g id="a_node6"><a xlink:href="classidg__document.html#a9133c3194bcf239db7303b4cf9cd6634" target="_top" xlink:title="Constructs an idg object and assigns the corresponding idg type.">
<polygon fill="white" stroke="black" points="3.5,-322 3.5,-341 147.5,-341 147.5,-322 3.5,-322"/>
<text text-anchor="middle" x="75.5" y="-329" font-family="Helvetica,sans-Serif" font-size="10.00">idg_document\__construct</text>
</a>
</g>
</g>
<!-- Node1&#45;&gt;Node6 -->
<g id="edge5" class="edge">
<title>Node1&#45;&gt;Node6</title>
<path fill="none" stroke="midnightblue" d="M219.19,-287.89C199.59,-295.63 174.09,-305.24 151,-312.5 140.18,-315.9 128.33,-319.14 117.33,-321.95"/>
<polygon fill="midnightblue" stroke="midnightblue" points="220.59,-291.1 228.58,-284.15 218,-284.6 220.59,-291.1"/>
</g>
<!-- Node7 -->
<g id="node7" class="node">
<title>Node7</title>
<g id="a_node7"><a xlink:href="classidg__view.html#aa4e8e7aec3dedb779edaad486e2964bb" target="_top" xlink:title="Constructs an idg object and assigns the corresponding idg type.">
<polygon fill="white" stroke="black" points="16,-284 16,-303 135,-303 135,-284 16,-284"/>
<text text-anchor="middle" x="75.5" y="-291" font-family="Helvetica,sans-Serif" font-size="10.00">idg_view\__construct</text>
</a>
</g>
</g>
<!-- Node1&#45;&gt;Node7 -->
<g id="edge6" class="edge">
<title>Node1&#45;&gt;Node7</title>
<path fill="none" stroke="midnightblue" d="M176.66,-282.66C162.8,-284.16 148.53,-285.7 135.25,-287.14"/>
<polygon fill="midnightblue" stroke="midnightblue" points="177.09,-286.13 186.65,-281.57 176.33,-279.17 177.09,-286.13"/>
</g>
<!-- Node8 -->
<g id="node8" class="node">
<title>Node8</title>
<g id="a_node8"><a xlink:href="classidg__view__html.html#aff8afda4cfa29671651119f11a6b81d1" target="_top" xlink:title="Constructs an idg object and assigns the corresponding idg type.">
<polygon fill="white" stroke="black" points="2.5,-246 2.5,-265 148.5,-265 148.5,-246 2.5,-246"/>
<text text-anchor="middle" x="75.5" y="-253" font-family="Helvetica,sans-Serif" font-size="10.00">idg_view_html\__construct</text>
</a>
</g>
</g>
<!-- Node1&#45;&gt;Node8 -->
<g id="edge7" class="edge">
<title>Node1&#45;&gt;Node8</title>
<path fill="none" stroke="midnightblue" d="M176.67,-266.34C167.39,-265.34 157.92,-264.31 148.69,-263.31"/>
<polygon fill="midnightblue" stroke="midnightblue" points="176.33,-269.83 186.65,-267.43 177.09,-262.87 176.33,-269.83"/>
</g>
<!-- Node9 -->
<g id="node9" class="node">
<title>Node9</title>
<g id="a_node9"><a xlink:href="classidg__view__html__part.html#a228057f62575b1f98ba135005017150d" target="_top" xlink:title="Constructs an idg object and assigns the corresponding idg type.">
<polygon fill="white" stroke="black" points="19,-196.5 19,-226.5 132,-226.5 132,-196.5 19,-196.5"/>
<text text-anchor="start" x="27" y="-214.5" font-family="Helvetica,sans-Serif" font-size="10.00">idg_view_html_part</text>
<text text-anchor="middle" x="75.5" y="-203.5" font-family="Helvetica,sans-Serif" font-size="10.00">\__construct</text>
</a>
</g>
</g>
<!-- Node1&#45;&gt;Node9 -->
<g id="edge8" class="edge">
<title>Node1&#45;&gt;Node9</title>
<path fill="none" stroke="midnightblue" d="M217.8,-261.28C198.29,-253.83 173.35,-244.45 151,-236.5 141.75,-233.21 131.8,-229.79 122.29,-226.58"/>
<polygon fill="midnightblue" stroke="midnightblue" points="216.6,-264.57 227.19,-264.88 219.1,-258.03 216.6,-264.57"/>
</g>
<!-- Node10 -->
<g id="node10" class="node">
<title>Node10</title>
<g id="a_node10"><a xlink:href="classidg__view__html__container.html#a4d51cacacd60dfe39278132be384b76a" target="_top" xlink:title="Constructs an idg object and assigns the corresponding idg type.">
<polygon fill="white" stroke="black" points="6,-147.5 6,-177.5 145,-177.5 145,-147.5 6,-147.5"/>
<text text-anchor="start" x="14" y="-165.5" font-family="Helvetica,sans-Serif" font-size="10.00">idg_view_html_container</text>
<text text-anchor="middle" x="75.5" y="-154.5" font-family="Helvetica,sans-Serif" font-size="10.00">\__construct</text>
</a>
</g>
</g>
<!-- Node1&#45;&gt;Node10 -->
<g id="edge9" class="edge">
<title>Node1&#45;&gt;Node10</title>
<path fill="none" stroke="midnightblue" d="M236.09,-257.24C217.39,-237.86 184.61,-206.63 151,-187.5 144.36,-183.72 137.06,-180.4 129.71,-177.51"/>
<polygon fill="midnightblue" stroke="midnightblue" points="233.78,-259.9 243.2,-264.75 238.87,-255.08 233.78,-259.9"/>
</g>
<!-- Node11 -->
<g id="node11" class="node">
<title>Node11</title>
<g id="a_node11"><a xlink:href="classidg__view__html__renderer.html#ac65cfec984782a1be6e02d8f732c1496" target="_top" xlink:title="Constructs an idg object and assigns the corresponding idg type.">
<polygon fill="white" stroke="black" points="8.5,-98.5 8.5,-128.5 142.5,-128.5 142.5,-98.5 8.5,-98.5"/>
<text text-anchor="start" x="16.5" y="-116.5" font-family="Helvetica,sans-Serif" font-size="10.00">idg_view_html_renderer</text>
<text text-anchor="middle" x="75.5" y="-105.5" font-family="Helvetica,sans-Serif" font-size="10.00">\__construct</text>
</a>
</g>
</g>
<!-- Node1&#45;&gt;Node11 -->
<g id="edge10" class="edge">
<title>Node1&#45;&gt;Node11</title>
<path fill="none" stroke="midnightblue" d="M242.76,-255.53C227.59,-226.26 194.65,-170.18 151,-138.5 145.7,-134.65 139.77,-131.37 133.63,-128.57"/>
<polygon fill="midnightblue" stroke="midnightblue" points="239.75,-257.32 247.38,-264.67 246,-254.17 239.75,-257.32"/>
</g>
<!-- Node12 -->
<g id="node12" class="node">
<title>Node12</title>
<g id="a_node12"><a xlink:href="classidg__view__html__item.html#ae60e4fc6f140dbd5bef92434905c4f82" target="_top" xlink:title="Constructs an idg object and assigns the corresponding idg type.">
<polygon fill="white" stroke="black" points="17.5,-49.5 17.5,-79.5 133.5,-79.5 133.5,-49.5 17.5,-49.5"/>
<text text-anchor="start" x="25.5" y="-67.5" font-family="Helvetica,sans-Serif" font-size="10.00">idg_view_html_item</text>
<text text-anchor="middle" x="75.5" y="-56.5" font-family="Helvetica,sans-Serif" font-size="10.00">\__construct</text>
</a>
</g>
</g>
<!-- Node1&#45;&gt;Node12 -->
<g id="edge11" class="edge">
<title>Node1&#45;&gt;Node12</title>
<path fill="none" stroke="midnightblue" d="M246.65,-255.15C235.32,-217.71 205.38,-135.06 151,-89.5 145.88,-85.21 139.98,-81.64 133.81,-78.68"/>
<polygon fill="midnightblue" stroke="midnightblue" points="243.31,-256.21 249.47,-264.83 250.03,-254.25 243.31,-256.21"/>
</g>
<!-- Node13 -->
<g id="node13" class="node">
<title>Node13</title>
<g id="a_node13"><a xlink:href="classidg__view__html__slot.html#acd3c3a715b1e7b9d8a84c75608b5f3d7" target="_top" xlink:title="Constructs an idg object and assigns the corresponding idg type.">
<polygon fill="white" stroke="black" points="20,-0.5 20,-30.5 131,-30.5 131,-0.5 20,-0.5"/>
<text text-anchor="start" x="28" y="-18.5" font-family="Helvetica,sans-Serif" font-size="10.00">idg_view_html_slot</text>
<text text-anchor="middle" x="75.5" y="-7.5" font-family="Helvetica,sans-Serif" font-size="10.00">\__construct</text>
</a>
</g>
</g>
<!-- Node1&#45;&gt;Node13 -->
<g id="edge12" class="edge">
<title>Node1&#45;&gt;Node13</title>
<path fill="none" stroke="midnightblue" d="M249.03,-254.77C241.28,-210.12 216.32,-100.57 151,-40.5 145.28,-35.24 138.41,-31.08 131.19,-27.79"/>
<polygon fill="midnightblue" stroke="midnightblue" points="245.61,-255.57 250.68,-264.88 252.52,-254.45 245.61,-255.57"/>
</g>
</g>
</svg>
