<?xml version="1.0" encoding="UTF-8" standalone="no"?>
<!DOCTYPE svg PUBLIC "-//W3C//DTD SVG 1.1//EN"
 "http://www.w3.org/Graphics/SVG/1.1/DTD/svg11.dtd">
<!-- Generated by graphviz version 2.43.0 (0)
 -->
<!-- Title: idg_view_html_part_fixedcontent\render Pages: 1 -->
<svg width="292pt" height="225pt"
 viewBox="0.00 0.00 292.00 224.50" xmlns="http://www.w3.org/2000/svg" xmlns:xlink="http://www.w3.org/1999/xlink">
<g id="graph0" class="graph" transform="scale(1 1) rotate(0) translate(4 220.5)">
<title>idg_view_html_part_fixedcontent\render</title>
<polygon fill="white" stroke="transparent" points="-4,4 -4,-220.5 288,-220.5 288,4 -4,4"/>
<!-- Node1 -->
<g id="node1" class="node">
<title>Node1</title>
<g id="a_node1"><a xlink:title=" ">
<polygon fill="#bfbfbf" stroke="black" points="0,-98.5 0,-128.5 116,-128.5 116,-98.5 0,-98.5"/>
<text text-anchor="start" x="8" y="-116.5" font-family="Helvetica,sans-Serif" font-size="10.00">idg_view_html_part</text>
<text text-anchor="middle" x="58" y="-105.5" font-family="Helvetica,sans-Serif" font-size="10.00">_fixedcontent\render</text>
</a>
</g>
</g>
<!-- Node2 -->
<g id="node2" class="node">
<title>Node2</title>
<g id="a_node2"><a xlink:href="diagnostics_8php.html#ab33364bd97c64c5f346adb6581e200b2" target="_top" xlink:title=" ">
<polygon fill="white" stroke="black" points="199,-197 199,-216 237,-216 237,-197 199,-197"/>
<text text-anchor="middle" x="218" y="-204" font-family="Helvetica,sans-Serif" font-size="10.00">diag</text>
</a>
</g>
</g>
<!-- Node1&#45;&gt;Node2 -->
<g id="edge1" class="edge">
<title>Node1&#45;&gt;Node2</title>
<path fill="none" stroke="midnightblue" d="M74.13,-128.66C91.52,-145.3 121.59,-171.74 152,-187.5 163.54,-193.48 177.25,-197.84 189.09,-200.87"/>
<polygon fill="midnightblue" stroke="midnightblue" points="188.37,-204.29 198.91,-203.18 189.98,-197.48 188.37,-204.29"/>
</g>
<!-- Node3 -->
<g id="node3" class="node">
<title>Node3</title>
<g id="a_node3"><a xlink:href="classidg__tree__node__instance.html#a89215ec2899bef35cd55e054d73d6638" target="_top" xlink:title="Returns child by number or null, i.e.">
<polygon fill="white" stroke="black" points="152,-147.5 152,-177.5 284,-177.5 284,-147.5 152,-147.5"/>
<text text-anchor="start" x="160" y="-165.5" font-family="Helvetica,sans-Serif" font-size="10.00">idg_tree_node_instance</text>
<text text-anchor="middle" x="218" y="-154.5" font-family="Helvetica,sans-Serif" font-size="10.00">\get_child</text>
</a>
</g>
</g>
<!-- Node1&#45;&gt;Node3 -->
<g id="edge2" class="edge">
<title>Node1&#45;&gt;Node3</title>
<path fill="none" stroke="midnightblue" d="M107.69,-128.6C123.84,-133.61 141.97,-139.23 158.76,-144.44"/>
<polygon fill="midnightblue" stroke="midnightblue" points="157.88,-147.83 168.47,-147.45 159.95,-141.14 157.88,-147.83"/>
</g>
<!-- Node4 -->
<g id="node4" class="node">
<title>Node4</title>
<g id="a_node4"><a xlink:href="classidg__tree__node__instance.html#aee07c5c32de34d534aee8a10e12548b7" target="_top" xlink:title=" ">
<polygon fill="white" stroke="black" points="152,-98.5 152,-128.5 284,-128.5 284,-98.5 152,-98.5"/>
<text text-anchor="start" x="160" y="-116.5" font-family="Helvetica,sans-Serif" font-size="10.00">idg_tree_node_instance</text>
<text text-anchor="middle" x="218" y="-105.5" font-family="Helvetica,sans-Serif" font-size="10.00">\get_child_count</text>
</a>
</g>
</g>
<!-- Node1&#45;&gt;Node4 -->
<g id="edge3" class="edge">
<title>Node1&#45;&gt;Node4</title>
<path fill="none" stroke="midnightblue" d="M116.04,-113.5C124.43,-113.5 133.17,-113.5 141.86,-113.5"/>
<polygon fill="midnightblue" stroke="midnightblue" points="141.99,-117 151.99,-113.5 141.99,-110 141.99,-117"/>
</g>
<!-- Node5 -->
<g id="node5" class="node">
<title>Node5</title>
<g id="a_node5"><a xlink:href="classidg__tree__node__instance.html#a15274630ffaabd3f91a8a1d16044f822" target="_top" xlink:title=" ">
<polygon fill="white" stroke="black" points="152,-49.5 152,-79.5 284,-79.5 284,-49.5 152,-49.5"/>
<text text-anchor="start" x="160" y="-67.5" font-family="Helvetica,sans-Serif" font-size="10.00">idg_tree_node_instance</text>
<text text-anchor="middle" x="218" y="-56.5" font-family="Helvetica,sans-Serif" font-size="10.00">\get_idg_id</text>
</a>
</g>
</g>
<!-- Node1&#45;&gt;Node5 -->
<g id="edge4" class="edge">
<title>Node1&#45;&gt;Node5</title>
<path fill="none" stroke="midnightblue" d="M107.69,-98.4C123.84,-93.39 141.97,-87.77 158.76,-82.56"/>
<polygon fill="midnightblue" stroke="midnightblue" points="159.95,-85.86 168.47,-79.55 157.88,-79.17 159.95,-85.86"/>
</g>
<!-- Node6 -->
<g id="node6" class="node">
<title>Node6</title>
<g id="a_node6"><a xlink:href="classidg__tree__node__instance.html#abf5f963e67716b4447d1062ddc5e9dc2" target="_top" xlink:title=" ">
<polygon fill="white" stroke="black" points="152,-0.5 152,-30.5 284,-30.5 284,-0.5 152,-0.5"/>
<text text-anchor="start" x="160" y="-18.5" font-family="Helvetica,sans-Serif" font-size="10.00">idg_tree_node_instance</text>
<text text-anchor="middle" x="218" y="-7.5" font-family="Helvetica,sans-Serif" font-size="10.00">\get_property</text>
</a>
</g>
</g>
<!-- Node1&#45;&gt;Node6 -->
<g id="edge5" class="edge">
<title>Node1&#45;&gt;Node6</title>
<path fill="none" stroke="midnightblue" d="M75.06,-98.43C92.79,-82.4 122.73,-57.12 152,-40.5 155.61,-38.45 159.42,-36.5 163.31,-34.67"/>
<polygon fill="midnightblue" stroke="midnightblue" points="164.77,-37.85 172.48,-30.58 161.92,-31.45 164.77,-37.85"/>
</g>
</g>
</svg>
