<?xml version="1.0" encoding="UTF-8" standalone="no"?>
<!DOCTYPE svg PUBLIC "-//W3C//DTD SVG 1.1//EN"
 "http://www.w3.org/Graphics/SVG/1.1/DTD/svg11.dtd">
<!-- Generated by graphviz version 2.43.0 (0)
 -->
<!-- Title: idg_document\get_datasource Pages: 1 -->
<svg width="448pt" height="140pt"
 viewBox="0.00 0.00 448.00 140.20" xmlns="http://www.w3.org/2000/svg" xmlns:xlink="http://www.w3.org/1999/xlink">
<g id="graph0" class="graph" transform="scale(1 1) rotate(0) translate(4 136.2)">
<title>idg_document\get_datasource</title>
<polygon fill="white" stroke="transparent" points="-4,4 -4,-136.2 444,-136.2 444,4 -4,4"/>
<!-- Node1 -->
<g id="node1" class="node">
<title>Node1</title>
<g id="a_node1"><a xlink:title=" ">
<polygon fill="#bfbfbf" stroke="black" points="0,-60.5 0,-79.5 164,-79.5 164,-60.5 0,-60.5"/>
<text text-anchor="middle" x="82" y="-67.5" font-family="Helvetica,sans-Serif" font-size="10.00">idg_document\get_datasource</text>
</a>
</g>
</g>
<!-- Node2 -->
<g id="node2" class="node">
<title>Node2</title>
<g id="a_node2"><a xlink:href="diagnostics_8php.html#ab33364bd97c64c5f346adb6581e200b2" target="_top" xlink:title=" ">
<polygon fill="white" stroke="black" points="402,-63.5 402,-82.5 440,-82.5 440,-63.5 402,-63.5"/>
<text text-anchor="middle" x="421" y="-70.5" font-family="Helvetica,sans-Serif" font-size="10.00">diag</text>
</a>
</g>
</g>
<!-- Node1&#45;&gt;Node2 -->
<g id="edge1" class="edge">
<title>Node1&#45;&gt;Node2</title>
<path fill="none" stroke="midnightblue" d="M100.58,-79.55C122.93,-91.09 163.03,-109.85 200,-117 272.44,-131.01 296.49,-141.73 366,-117 381.1,-111.63 395.04,-100.02 404.98,-90.08"/>
<polygon fill="midnightblue" stroke="midnightblue" points="407.71,-92.28 412.03,-82.61 402.62,-87.48 407.71,-92.28"/>
</g>
<!-- Node3 -->
<g id="node3" class="node">
<title>Node3</title>
<g id="a_node3"><a xlink:href="classidg__tree__node.html#a78459bb68b6088d2faf43fcfe098bdf3" target="_top" xlink:title="Finds a child whose property $key_name is set to $key_value.">
<polygon fill="white" stroke="black" points="216.5,-77 216.5,-107 349.5,-107 349.5,-77 216.5,-77"/>
<text text-anchor="start" x="224.5" y="-95" font-family="Helvetica,sans-Serif" font-size="10.00">idg_tree_node\get_child</text>
<text text-anchor="middle" x="283" y="-84" font-family="Helvetica,sans-Serif" font-size="10.00">_by_key</text>
</a>
</g>
</g>
<!-- Node1&#45;&gt;Node3 -->
<g id="edge2" class="edge">
<title>Node1&#45;&gt;Node3</title>
<path fill="none" stroke="midnightblue" d="M164.23,-78.98C178.02,-80.5 192.29,-82.08 205.94,-83.59"/>
<polygon fill="midnightblue" stroke="midnightblue" points="205.91,-87.11 216.24,-84.73 206.68,-80.15 205.91,-87.11"/>
</g>
<!-- Node4 -->
<g id="node4" class="node">
<title>Node4</title>
<g id="a_node4"><a xlink:href="classidg__tree__node.html#a3eb6b6cb90e4636f2083d15d32cd8828" target="_top" xlink:title=" ">
<polygon fill="white" stroke="black" points="200,-38.5 200,-57.5 366,-57.5 366,-38.5 200,-38.5"/>
<text text-anchor="middle" x="283" y="-45.5" font-family="Helvetica,sans-Serif" font-size="10.00">idg_tree_node\get_parameters</text>
</a>
</g>
</g>
<!-- Node1&#45;&gt;Node4 -->
<g id="edge3" class="edge">
<title>Node1&#45;&gt;Node4</title>
<path fill="none" stroke="midnightblue" d="M164.23,-61.02C172.65,-60.09 181.25,-59.14 189.78,-58.2"/>
<polygon fill="midnightblue" stroke="midnightblue" points="190.19,-61.67 199.74,-57.09 189.42,-54.71 190.19,-61.67"/>
</g>
<!-- Node5 -->
<g id="node5" class="node">
<title>Node5</title>
<g id="a_node5"><a xlink:href="classidg__site__element.html#a06514b8d84f5ba62cf4e821884752c65" target="_top" xlink:title=" ">
<polygon fill="white" stroke="black" points="211.5,-0.5 211.5,-19.5 354.5,-19.5 354.5,-0.5 211.5,-0.5"/>
<text text-anchor="middle" x="283" y="-7.5" font-family="Helvetica,sans-Serif" font-size="10.00">idg_site_element\get_site</text>
</a>
</g>
</g>
<!-- Node1&#45;&gt;Node5 -->
<g id="edge4" class="edge">
<title>Node1&#45;&gt;Node5</title>
<path fill="none" stroke="midnightblue" d="M107.85,-60.4C131.36,-51.53 167.75,-38.36 200,-29 208.57,-26.51 217.71,-24.13 226.66,-21.95"/>
<polygon fill="midnightblue" stroke="midnightblue" points="227.74,-25.29 236.66,-19.57 226.12,-18.48 227.74,-25.29"/>
</g>
<!-- Node5&#45;&gt;Node2 -->
<g id="edge5" class="edge">
<title>Node5&#45;&gt;Node2</title>
<path fill="none" stroke="midnightblue" d="M340.75,-19.57C349.44,-22.05 358.13,-25.14 366,-29 380.05,-35.89 393.7,-47.05 403.75,-56.41"/>
<polygon fill="midnightblue" stroke="midnightblue" points="401.37,-58.98 410.99,-63.42 406.24,-53.95 401.37,-58.98"/>
</g>
</g>
</svg>
