<?xml version="1.0" encoding="UTF-8" standalone="no"?>
<!DOCTYPE svg PUBLIC "-//W3C//DTD SVG 1.1//EN"
 "http://www.w3.org/Graphics/SVG/1.1/DTD/svg11.dtd">
<!-- Generated by graphviz version 2.43.0 (0)
 -->
<!-- Title: idg_tree_node Pages: 1 -->
<svg width="559pt" height="294pt"
 viewBox="0.00 0.00 559.00 294.00" xmlns="http://www.w3.org/2000/svg" xmlns:xlink="http://www.w3.org/1999/xlink">
<g id="graph0" class="graph" transform="scale(1 1) rotate(0) translate(4 290)">
<title>idg_tree_node</title>
<polygon fill="white" stroke="transparent" points="-4,4 -4,-290 555,-290 555,4 -4,4"/>
<!-- Node1 -->
<g id="node1" class="node">
<title>Node1</title>
<g id="a_node1"><a xlink:title=" ">
<polygon fill="#bfbfbf" stroke="black" points="103,-171.5 103,-190.5 189,-190.5 189,-171.5 103,-171.5"/>
<text text-anchor="middle" x="146" y="-178.5" font-family="Helvetica,sans-Serif" font-size="10.00">idg_tree_node</text>
</a>
</g>
</g>
<!-- Node3 -->
<g id="node3" class="node">
<title>Node3</title>
<g id="a_node3"><a xlink:href="classidg__datasource__declaration.html" target="_top" xlink:title=" ">
<polygon fill="white" stroke="black" points="225,-266.5 225,-285.5 376,-285.5 376,-266.5 225,-266.5"/>
<text text-anchor="middle" x="300.5" y="-273.5" font-family="Helvetica,sans-Serif" font-size="10.00">idg_datasource_declaration</text>
</a>
</g>
</g>
<!-- Node1&#45;&gt;Node3 -->
<g id="edge2" class="edge">
<title>Node1&#45;&gt;Node3</title>
<path fill="none" stroke="midnightblue" d="M160.52,-198.77C174.71,-216.19 198.6,-242.2 225,-257 231.87,-260.85 239.53,-263.94 247.25,-266.41"/>
<polygon fill="midnightblue" stroke="midnightblue" points="162.97,-196.23 154.02,-190.56 157.48,-200.57 162.97,-196.23"/>
</g>
<!-- Node4 -->
<g id="node4" class="node">
<title>Node4</title>
<g id="a_node4"><a xlink:href="classidg__renderer__declaration.html" target="_top" xlink:title=" ">
<polygon fill="white" stroke="black" points="231.5,-228.5 231.5,-247.5 369.5,-247.5 369.5,-228.5 231.5,-228.5"/>
<text text-anchor="middle" x="300.5" y="-235.5" font-family="Helvetica,sans-Serif" font-size="10.00">idg_renderer_declaration</text>
</a>
</g>
</g>
<!-- Node1&#45;&gt;Node4 -->
<g id="edge3" class="edge">
<title>Node1&#45;&gt;Node4</title>
<path fill="none" stroke="midnightblue" d="M173.3,-195.48C188.16,-203.23 207.25,-212.49 225,-219 234.77,-222.58 245.51,-225.75 255.71,-228.42"/>
<polygon fill="midnightblue" stroke="midnightblue" points="174.68,-192.25 164.21,-190.65 171.4,-198.43 174.68,-192.25"/>
</g>
<!-- Node5 -->
<g id="node5" class="node">
<title>Node5</title>
<g id="a_node5"><a xlink:href="classidg__site__element.html" target="_top" xlink:title="Base class for elements of a site definition.">
<polygon fill="white" stroke="black" points="250,-190.5 250,-209.5 351,-209.5 351,-190.5 250,-190.5"/>
<text text-anchor="middle" x="300.5" y="-197.5" font-family="Helvetica,sans-Serif" font-size="10.00">idg_site_element</text>
</a>
</g>
</g>
<!-- Node1&#45;&gt;Node5 -->
<g id="edge4" class="edge">
<title>Node1&#45;&gt;Node5</title>
<path fill="none" stroke="midnightblue" d="M199.08,-187.49C215.56,-189.54 233.71,-191.8 250,-193.83"/>
<polygon fill="midnightblue" stroke="midnightblue" points="199.43,-184.01 189.07,-186.24 198.57,-190.95 199.43,-184.01"/>
</g>
<!-- Node9 -->
<g id="node9" class="node">
<title>Node9</title>
<g id="a_node9"><a xlink:href="classidg__view.html" target="_top" xlink:title=" ">
<polygon fill="white" stroke="black" points="270.5,-152.5 270.5,-171.5 330.5,-171.5 330.5,-152.5 270.5,-152.5"/>
<text text-anchor="middle" x="300.5" y="-159.5" font-family="Helvetica,sans-Serif" font-size="10.00">idg_view</text>
</a>
</g>
</g>
<!-- Node1&#45;&gt;Node9 -->
<g id="edge8" class="edge">
<title>Node1&#45;&gt;Node9</title>
<path fill="none" stroke="midnightblue" d="M199,-174.52C222.75,-171.56 249.99,-168.17 270.12,-165.66"/>
<polygon fill="midnightblue" stroke="midnightblue" points="198.57,-171.05 189.07,-175.76 199.43,-177.99 198.57,-171.05"/>
</g>
<!-- Node11 -->
<g id="node11" class="node">
<title>Node11</title>
<g id="a_node11"><a xlink:href="classidg__view__html__element.html" target="_top" xlink:title=" ">
<polygon fill="white" stroke="black" points="233.5,-95.5 233.5,-114.5 367.5,-114.5 367.5,-95.5 233.5,-95.5"/>
<text text-anchor="middle" x="300.5" y="-102.5" font-family="Helvetica,sans-Serif" font-size="10.00">idg_view_html_element</text>
</a>
</g>
</g>
<!-- Node1&#45;&gt;Node11 -->
<g id="edge10" class="edge">
<title>Node1&#45;&gt;Node11</title>
<path fill="none" stroke="midnightblue" d="M175.61,-166.74C206.23,-151.48 253.96,-127.7 280.34,-114.55"/>
<polygon fill="midnightblue" stroke="midnightblue" points="173.7,-163.78 166.31,-171.37 176.83,-170.05 173.7,-163.78"/>
</g>
<!-- Node16 -->
<g id="node16" class="node">
<title>Node16</title>
<g id="a_node16"><a xlink:href="classidg__view__html__slot.html" target="_top" xlink:title=" ">
<polygon fill="white" stroke="black" points="245,-57.5 245,-76.5 356,-76.5 356,-57.5 245,-57.5"/>
<text text-anchor="middle" x="300.5" y="-64.5" font-family="Helvetica,sans-Serif" font-size="10.00">idg_view_html_slot</text>
</a>
</g>
</g>
<!-- Node1&#45;&gt;Node16 -->
<g id="edge15" class="edge">
<title>Node1&#45;&gt;Node16</title>
<path fill="none" stroke="midnightblue" d="M157.14,-162.62C170.05,-140.96 194.4,-105.47 225,-86 231.08,-82.13 237.91,-79.05 244.91,-76.59"/>
<polygon fill="midnightblue" stroke="midnightblue" points="153.99,-161.08 152.03,-171.49 160.05,-164.57 153.99,-161.08"/>
</g>
<!-- Node2 -->
<g id="node2" class="node">
<title>Node2</title>
<g id="a_node2"><a xlink:href="classidg__object.html" target="_top" xlink:title=" ">
<polygon fill="white" stroke="black" points="0,-171.5 0,-190.5 67,-190.5 67,-171.5 0,-171.5"/>
<text text-anchor="middle" x="33.5" y="-178.5" font-family="Helvetica,sans-Serif" font-size="10.00">idg_object</text>
</a>
</g>
</g>
<!-- Node2&#45;&gt;Node1 -->
<g id="edge1" class="edge">
<title>Node2&#45;&gt;Node1</title>
<path fill="none" stroke="midnightblue" d="M77.09,-181C85.54,-181 94.4,-181 102.83,-181"/>
<polygon fill="midnightblue" stroke="midnightblue" points="77.06,-177.5 67.06,-181 77.06,-184.5 77.06,-177.5"/>
</g>
<!-- Node6 -->
<g id="node6" class="node">
<title>Node6</title>
<g id="a_node6"><a xlink:href="classidg__document.html" target="_top" xlink:title=" ">
<polygon fill="white" stroke="black" points="438.5,-266.5 438.5,-285.5 524.5,-285.5 524.5,-266.5 438.5,-266.5"/>
<text text-anchor="middle" x="481.5" y="-273.5" font-family="Helvetica,sans-Serif" font-size="10.00">idg_document</text>
</a>
</g>
</g>
<!-- Node5&#45;&gt;Node6 -->
<g id="edge5" class="edge">
<title>Node5&#45;&gt;Node6</title>
<path fill="none" stroke="midnightblue" d="M360.8,-211.79C366.1,-213.83 371.25,-216.21 376,-219 396.06,-230.78 392.06,-245.01 412,-257 420.04,-261.83 429.34,-265.47 438.45,-268.2"/>
<polygon fill="midnightblue" stroke="midnightblue" points="361.74,-208.42 351.14,-208.49 359.47,-215.04 361.74,-208.42"/>
</g>
<!-- Node7 -->
<g id="node7" class="node">
<title>Node7</title>
<g id="a_node7"><a xlink:href="classidg__folder.html" target="_top" xlink:title=" ">
<polygon fill="white" stroke="black" points="449,-228.5 449,-247.5 514,-247.5 514,-228.5 449,-228.5"/>
<text text-anchor="middle" x="481.5" y="-235.5" font-family="Helvetica,sans-Serif" font-size="10.00">idg_folder</text>
</a>
</g>
</g>
<!-- Node5&#45;&gt;Node7 -->
<g id="edge6" class="edge">
<title>Node5&#45;&gt;Node7</title>
<path fill="none" stroke="midnightblue" d="M356.67,-211.71C386.95,-218.14 423.4,-225.88 448.88,-231.29"/>
<polygon fill="midnightblue" stroke="midnightblue" points="357.18,-208.24 346.67,-209.59 355.72,-215.09 357.18,-208.24"/>
</g>
<!-- Node8 -->
<g id="node8" class="node">
<title>Node8</title>
<g id="a_node8"><a xlink:href="classidg__site.html" target="_top" xlink:title=" ">
<polygon fill="white" stroke="black" points="454,-190.5 454,-209.5 509,-209.5 509,-190.5 454,-190.5"/>
<text text-anchor="middle" x="481.5" y="-197.5" font-family="Helvetica,sans-Serif" font-size="10.00">idg_site</text>
</a>
</g>
</g>
<!-- Node5&#45;&gt;Node8 -->
<g id="edge7" class="edge">
<title>Node5&#45;&gt;Node8</title>
<path fill="none" stroke="midnightblue" d="M361.74,-200C393.01,-200 429.64,-200 453.86,-200"/>
<polygon fill="midnightblue" stroke="midnightblue" points="361.36,-196.5 351.36,-200 361.36,-203.5 361.36,-196.5"/>
</g>
<!-- Node10 -->
<g id="node10" class="node">
<title>Node10</title>
<g id="a_node10"><a xlink:href="classidg__view__html.html" target="_top" xlink:title=" ">
<polygon fill="white" stroke="black" points="437.5,-152.5 437.5,-171.5 525.5,-171.5 525.5,-152.5 437.5,-152.5"/>
<text text-anchor="middle" x="481.5" y="-159.5" font-family="Helvetica,sans-Serif" font-size="10.00">idg_view_html</text>
</a>
</g>
</g>
<!-- Node9&#45;&gt;Node10 -->
<g id="edge9" class="edge">
<title>Node9&#45;&gt;Node10</title>
<path fill="none" stroke="midnightblue" d="M340.68,-162C369.22,-162 407.87,-162 437.3,-162"/>
<polygon fill="midnightblue" stroke="midnightblue" points="340.66,-158.5 330.66,-162 340.66,-165.5 340.66,-158.5"/>
</g>
<!-- Node12 -->
<g id="node12" class="node">
<title>Node12</title>
<g id="a_node12"><a xlink:href="classidg__view__html__container.html" target="_top" xlink:title=" ">
<polygon fill="white" stroke="black" points="412,-114.5 412,-133.5 551,-133.5 551,-114.5 412,-114.5"/>
<text text-anchor="middle" x="481.5" y="-121.5" font-family="Helvetica,sans-Serif" font-size="10.00">idg_view_html_container</text>
</a>
</g>
</g>
<!-- Node11&#45;&gt;Node12 -->
<g id="edge11" class="edge">
<title>Node11&#45;&gt;Node12</title>
<path fill="none" stroke="midnightblue" d="M377.92,-113.11C389.22,-114.31 400.8,-115.54 411.93,-116.72"/>
<polygon fill="midnightblue" stroke="midnightblue" points="377.96,-109.6 367.64,-112.02 377.22,-116.56 377.96,-109.6"/>
</g>
<!-- Node13 -->
<g id="node13" class="node">
<title>Node13</title>
<g id="a_node13"><a xlink:href="classidg__view__html__item.html" target="_top" xlink:title=" ">
<polygon fill="white" stroke="black" points="423.5,-76.5 423.5,-95.5 539.5,-95.5 539.5,-76.5 423.5,-76.5"/>
<text text-anchor="middle" x="481.5" y="-83.5" font-family="Helvetica,sans-Serif" font-size="10.00">idg_view_html_item</text>
</a>
</g>
</g>
<!-- Node11&#45;&gt;Node13 -->
<g id="edge12" class="edge">
<title>Node11&#45;&gt;Node13</title>
<path fill="none" stroke="midnightblue" d="M377.64,-96.92C393,-95.29 408.89,-93.6 423.46,-92.05"/>
<polygon fill="midnightblue" stroke="midnightblue" points="377.22,-93.44 367.64,-97.98 377.96,-100.4 377.22,-93.44"/>
</g>
<!-- Node14 -->
<g id="node14" class="node">
<title>Node14</title>
<g id="a_node14"><a xlink:href="classidg__view__html__renderer.html" target="_top" xlink:title="The parent class of all renderers.">
<polygon fill="white" stroke="black" points="414.5,-38.5 414.5,-57.5 548.5,-57.5 548.5,-38.5 414.5,-38.5"/>
<text text-anchor="middle" x="481.5" y="-45.5" font-family="Helvetica,sans-Serif" font-size="10.00">idg_view_html_renderer</text>
</a>
</g>
</g>
<!-- Node11&#45;&gt;Node14 -->
<g id="edge13" class="edge">
<title>Node11&#45;&gt;Node14</title>
<path fill="none" stroke="midnightblue" d="M356.06,-92.68C362.85,-90.68 369.64,-88.45 376,-86 392.88,-79.5 395.19,-73.68 412,-67 421.06,-63.4 431.05,-60.21 440.54,-57.53"/>
<polygon fill="midnightblue" stroke="midnightblue" points="354.85,-89.38 346.16,-95.44 356.73,-96.12 354.85,-89.38"/>
</g>
<!-- Node15 -->
<g id="node15" class="node">
<title>Node15</title>
<g id="a_node15"><a xlink:href="classidg__view__html__template.html" target="_top" xlink:title=" ">
<polygon fill="white" stroke="black" points="413,-0.5 413,-19.5 550,-19.5 550,-0.5 413,-0.5"/>
<text text-anchor="middle" x="481.5" y="-7.5" font-family="Helvetica,sans-Serif" font-size="10.00">idg_view_html_template</text>
</a>
</g>
</g>
<!-- Node11&#45;&gt;Node15 -->
<g id="edge14" class="edge">
<title>Node11&#45;&gt;Node15</title>
<path fill="none" stroke="midnightblue" d="M367.59,-91.21C370.53,-89.65 373.35,-87.92 376,-86 400.24,-68.38 387.95,-46.87 412,-29 417.25,-25.1 423.26,-22 429.5,-19.54"/>
<polygon fill="midnightblue" stroke="midnightblue" points="366.12,-88.03 358.48,-95.37 369.03,-94.4 366.12,-88.03"/>
</g>
</g>
</svg>
