<?xml version="1.0" encoding="UTF-8" standalone="no"?>
<!DOCTYPE svg PUBLIC "-//W3C//DTD SVG 1.1//EN"
 "http://www.w3.org/Graphics/SVG/1.1/DTD/svg11.dtd">
<!-- Generated by graphviz version 2.43.0 (0)
 -->
<!-- Title: idg_treenode Pages: 1 -->
<svg width="604pt" height="252pt"
 viewBox="0.00 0.00 604.00 252.00" xmlns="http://www.w3.org/2000/svg" xmlns:xlink="http://www.w3.org/1999/xlink">
<g id="graph0" class="graph" transform="scale(1 1) rotate(0) translate(4 248)">
<title>idg_treenode</title>
<polygon fill="white" stroke="transparent" points="-4,4 -4,-248 600,-248 600,4 -4,4"/>
<!-- Node1 -->
<g id="node1" class="node">
<title>Node1</title>
<g id="a_node1"><a xlink:title="Base class for all tree nodes which are not leaf nodes.">
<polygon fill="#bfbfbf" stroke="black" points="136,-112.5 136,-131.5 216,-131.5 216,-112.5 136,-112.5"/>
<text text-anchor="middle" x="176" y="-119.5" font-family="Helvetica,sans-Serif" font-size="10.00">idg_treenode</text>
</a>
</g>
</g>
<!-- Node4 -->
<g id="node4" class="node">
<title>Node4</title>
<g id="a_node4"><a xlink:href="classidg__filter.html" target="_top" xlink:title="A filter.">
<polygon fill="white" stroke="black" points="48.5,-56.5 48.5,-75.5 107.5,-75.5 107.5,-56.5 48.5,-56.5"/>
<text text-anchor="middle" x="78" y="-63.5" font-family="Helvetica,sans-Serif" font-size="10.00">idg_filter</text>
</a>
</g>
</g>
<!-- Node1&#45;&gt;Node4 -->
<g id="edge3" class="edge">
<title>Node1&#45;&gt;Node4</title>
<path fill="none" stroke="midnightblue" d="M151.41,-107.45C133.32,-97.48 109.27,-84.23 93.71,-75.65"/>
<polygon fill="midnightblue" stroke="midnightblue" points="149.81,-110.56 160.25,-112.32 153.19,-104.43 149.81,-110.56"/>
</g>
<!-- Node5 -->
<g id="node5" class="node">
<title>Node5</title>
<g id="a_node5"><a xlink:href="classidg__site__element.html" target="_top" xlink:title="Base class for elements of a site definition.">
<polygon fill="white" stroke="black" points="125.5,-56.5 125.5,-75.5 226.5,-75.5 226.5,-56.5 125.5,-56.5"/>
<text text-anchor="middle" x="176" y="-63.5" font-family="Helvetica,sans-Serif" font-size="10.00">idg_site_element</text>
</a>
</g>
</g>
<!-- Node1&#45;&gt;Node5 -->
<g id="edge4" class="edge">
<title>Node1&#45;&gt;Node5</title>
<path fill="none" stroke="midnightblue" d="M176,-101.8C176,-92.91 176,-82.78 176,-75.75"/>
<polygon fill="midnightblue" stroke="midnightblue" points="172.5,-102.08 176,-112.08 179.5,-102.08 172.5,-102.08"/>
</g>
<!-- Node9 -->
<g id="node9" class="node">
<title>Node9</title>
<g id="a_node9"><a xlink:href="classidg__view__element.html" target="_top" xlink:title="The parent class for idg_view and every sibling thereof.">
<polygon fill="white" stroke="black" points="350,-56.5 350,-75.5 456,-75.5 456,-56.5 350,-56.5"/>
<text text-anchor="middle" x="403" y="-63.5" font-family="Helvetica,sans-Serif" font-size="10.00">idg_view_element</text>
</a>
</g>
</g>
<!-- Node1&#45;&gt;Node9 -->
<g id="edge8" class="edge">
<title>Node1&#45;&gt;Node9</title>
<path fill="none" stroke="midnightblue" d="M221.87,-110.09C264.75,-99.89 327.92,-84.86 367.2,-75.52"/>
<polygon fill="midnightblue" stroke="midnightblue" points="220.89,-106.72 211.97,-112.44 222.51,-113.53 220.89,-106.72"/>
</g>
<!-- Node2 -->
<g id="node2" class="node">
<title>Node2</title>
<g id="a_node2"><a xlink:href="classidg__leafnode.html" target="_top" xlink:title="Base class for objects organized in a tree structure.">
<polygon fill="white" stroke="black" points="136,-168.5 136,-187.5 216,-187.5 216,-168.5 136,-168.5"/>
<text text-anchor="middle" x="176" y="-175.5" font-family="Helvetica,sans-Serif" font-size="10.00">idg_leafnode</text>
</a>
</g>
</g>
<!-- Node2&#45;&gt;Node1 -->
<g id="edge1" class="edge">
<title>Node2&#45;&gt;Node1</title>
<path fill="none" stroke="midnightblue" d="M176,-157.8C176,-148.91 176,-138.78 176,-131.75"/>
<polygon fill="midnightblue" stroke="midnightblue" points="172.5,-158.08 176,-168.08 179.5,-158.08 172.5,-158.08"/>
</g>
<!-- Node3 -->
<g id="node3" class="node">
<title>Node3</title>
<g id="a_node3"><a xlink:href="classidg__object.html" target="_top" xlink:title="Base class for all objects.">
<polygon fill="white" stroke="black" points="142.5,-224.5 142.5,-243.5 209.5,-243.5 209.5,-224.5 142.5,-224.5"/>
<text text-anchor="middle" x="176" y="-231.5" font-family="Helvetica,sans-Serif" font-size="10.00">idg_object</text>
</a>
</g>
</g>
<!-- Node3&#45;&gt;Node2 -->
<g id="edge2" class="edge">
<title>Node3&#45;&gt;Node2</title>
<path fill="none" stroke="midnightblue" d="M176,-213.8C176,-204.91 176,-194.78 176,-187.75"/>
<polygon fill="midnightblue" stroke="midnightblue" points="172.5,-214.08 176,-224.08 179.5,-214.08 172.5,-214.08"/>
</g>
<!-- Node6 -->
<g id="node6" class="node">
<title>Node6</title>
<g id="a_node6"><a xlink:href="classidg__document.html" target="_top" xlink:title="A document.">
<polygon fill="white" stroke="black" points="0,-0.5 0,-19.5 86,-19.5 86,-0.5 0,-0.5"/>
<text text-anchor="middle" x="43" y="-7.5" font-family="Helvetica,sans-Serif" font-size="10.00">idg_document</text>
</a>
</g>
</g>
<!-- Node5&#45;&gt;Node6 -->
<g id="edge5" class="edge">
<title>Node5&#45;&gt;Node6</title>
<path fill="none" stroke="midnightblue" d="M145.55,-52.64C120.59,-42.5 85.92,-28.43 63.98,-19.52"/>
<polygon fill="midnightblue" stroke="midnightblue" points="144.34,-55.92 154.93,-56.44 146.98,-49.44 144.34,-55.92"/>
</g>
<!-- Node7 -->
<g id="node7" class="node">
<title>Node7</title>
<g id="a_node7"><a xlink:href="classidg__folder.html" target="_top" xlink:title="A folder.">
<polygon fill="white" stroke="black" points="104.5,-0.5 104.5,-19.5 169.5,-19.5 169.5,-0.5 104.5,-0.5"/>
<text text-anchor="middle" x="137" y="-7.5" font-family="Helvetica,sans-Serif" font-size="10.00">idg_folder</text>
</a>
</g>
</g>
<!-- Node5&#45;&gt;Node7 -->
<g id="edge6" class="edge">
<title>Node5&#45;&gt;Node7</title>
<path fill="none" stroke="midnightblue" d="M163.62,-47.86C156.86,-38.5 148.79,-27.33 143.32,-19.75"/>
<polygon fill="midnightblue" stroke="midnightblue" points="160.87,-50.03 169.56,-56.08 166.54,-45.93 160.87,-50.03"/>
</g>
<!-- Node8 -->
<g id="node8" class="node">
<title>Node8</title>
<g id="a_node8"><a xlink:href="classidg__site.html" target="_top" xlink:title="The object that defines a whole site, i.e.">
<polygon fill="white" stroke="black" points="187.5,-0.5 187.5,-19.5 242.5,-19.5 242.5,-0.5 187.5,-0.5"/>
<text text-anchor="middle" x="215" y="-7.5" font-family="Helvetica,sans-Serif" font-size="10.00">idg_site</text>
</a>
</g>
</g>
<!-- Node5&#45;&gt;Node8 -->
<g id="edge7" class="edge">
<title>Node5&#45;&gt;Node8</title>
<path fill="none" stroke="midnightblue" d="M188.38,-47.86C195.14,-38.5 203.21,-27.33 208.68,-19.75"/>
<polygon fill="midnightblue" stroke="midnightblue" points="185.46,-45.93 182.44,-56.08 191.13,-50.03 185.46,-45.93"/>
</g>
<!-- Node10 -->
<g id="node10" class="node">
<title>Node10</title>
<g id="a_node10"><a xlink:href="classidg__container.html" target="_top" xlink:title="A container can contain containers as well as other elements.">
<polygon fill="white" stroke="black" points="260.5,-0.5 260.5,-19.5 343.5,-19.5 343.5,-0.5 260.5,-0.5"/>
<text text-anchor="middle" x="302" y="-7.5" font-family="Helvetica,sans-Serif" font-size="10.00">idg_container</text>
</a>
</g>
</g>
<!-- Node9&#45;&gt;Node10 -->
<g id="edge9" class="edge">
<title>Node9&#45;&gt;Node10</title>
<path fill="none" stroke="midnightblue" d="M377.92,-51.59C359.24,-41.61 334.3,-28.27 318.19,-19.65"/>
<polygon fill="midnightblue" stroke="midnightblue" points="376.3,-54.7 386.77,-56.32 379.6,-48.52 376.3,-54.7"/>
</g>
<!-- Node11 -->
<g id="node11" class="node">
<title>Node11</title>
<g id="a_node11"><a xlink:href="classidg__fragment.html" target="_top" xlink:title="A fragment produces output, has access to attributes and can also have a data source.">
<polygon fill="white" stroke="black" points="362,-0.5 362,-19.5 444,-19.5 444,-0.5 362,-0.5"/>
<text text-anchor="middle" x="403" y="-7.5" font-family="Helvetica,sans-Serif" font-size="10.00">idg_fragment</text>
</a>
</g>
</g>
<!-- Node9&#45;&gt;Node11 -->
<g id="edge10" class="edge">
<title>Node9&#45;&gt;Node11</title>
<path fill="none" stroke="midnightblue" d="M403,-45.8C403,-36.91 403,-26.78 403,-19.75"/>
<polygon fill="midnightblue" stroke="midnightblue" points="399.5,-46.08 403,-56.08 406.5,-46.08 399.5,-46.08"/>
</g>
<!-- Node12 -->
<g id="node12" class="node">
<title>Node12</title>
<g id="a_node12"><a xlink:href="classidg__slot.html" target="_top" xlink:title="A slot is where the output produced by a renderer has its place inside the view.">
<polygon fill="white" stroke="black" points="462.5,-0.5 462.5,-19.5 517.5,-19.5 517.5,-0.5 462.5,-0.5"/>
<text text-anchor="middle" x="490" y="-7.5" font-family="Helvetica,sans-Serif" font-size="10.00">idg_slot</text>
</a>
</g>
</g>
<!-- Node9&#45;&gt;Node12 -->
<g id="edge11" class="edge">
<title>Node9&#45;&gt;Node12</title>
<path fill="none" stroke="midnightblue" d="M425.72,-50.9C441.67,-41 462.5,-28.07 476.06,-19.65"/>
<polygon fill="midnightblue" stroke="midnightblue" points="423.63,-48.08 416.98,-56.32 427.32,-54.02 423.63,-48.08"/>
</g>
<!-- Node13 -->
<g id="node13" class="node">
<title>Node13</title>
<g id="a_node13"><a xlink:href="classidg__view.html" target="_top" xlink:title="A view.">
<polygon fill="white" stroke="black" points="536,-0.5 536,-19.5 596,-19.5 596,-0.5 536,-0.5"/>
<text text-anchor="middle" x="566" y="-7.5" font-family="Helvetica,sans-Serif" font-size="10.00">idg_view</text>
</a>
</g>
</g>
<!-- Node9&#45;&gt;Node13 -->
<g id="edge12" class="edge">
<title>Node9&#45;&gt;Node13</title>
<path fill="none" stroke="midnightblue" d="M438.7,-53.17C469.4,-43 512.92,-28.59 540.29,-19.52"/>
<polygon fill="midnightblue" stroke="midnightblue" points="437.22,-49.98 428.83,-56.44 439.42,-56.62 437.22,-49.98"/>
</g>
</g>
</svg>
