<?xml version="1.0" encoding="UTF-8" standalone="no"?>
<!DOCTYPE svg PUBLIC "-//W3C//DTD SVG 1.1//EN"
 "http://www.w3.org/Graphics/SVG/1.1/DTD/svg11.dtd">
<!-- Generated by graphviz version 2.43.0 (0)
 -->
<!-- Title: idg_object\_check Pages: 1 -->
<svg width="431pt" height="85pt"
 viewBox="0.00 0.00 431.00 85.00" xmlns="http://www.w3.org/2000/svg" xmlns:xlink="http://www.w3.org/1999/xlink">
<g id="graph0" class="graph" transform="scale(1 1) rotate(0) translate(4 81)">
<title>idg_object\_check</title>
<polygon fill="white" stroke="transparent" points="-4,4 -4,-81 427,-81 427,4 -4,4"/>
<!-- Node1 -->
<g id="node1" class="node">
<title>Node1</title>
<g id="a_node1"><a xlink:title="Performs consistency checks, dies when an error is encountered.">
<polygon fill="#bfbfbf" stroke="black" points="0,-38.5 0,-57.5 104,-57.5 104,-38.5 0,-38.5"/>
<text text-anchor="middle" x="52" y="-45.5" font-family="Helvetica,sans-Serif" font-size="10.00">idg_object\_check</text>
</a>
</g>
</g>
<!-- Node2 -->
<g id="node2" class="node">
<title>Node2</title>
<g id="a_node2"><a xlink:href="diagnostics_8php.html#ab33364bd97c64c5f346adb6581e200b2" target="_top" xlink:title=" ">
<polygon fill="white" stroke="black" points="187,-57.5 187,-76.5 225,-76.5 225,-57.5 187,-57.5"/>
<text text-anchor="middle" x="206" y="-64.5" font-family="Helvetica,sans-Serif" font-size="10.00">diag</text>
</a>
</g>
</g>
<!-- Node1&#45;&gt;Node2 -->
<g id="edge1" class="edge">
<title>Node1&#45;&gt;Node2</title>
<path fill="none" stroke="midnightblue" d="M104.04,-54.38C128.31,-57.41 156.4,-60.93 176.78,-63.47"/>
<polygon fill="midnightblue" stroke="midnightblue" points="176.6,-66.98 186.95,-64.74 177.47,-60.03 176.6,-66.98"/>
</g>
<!-- Node3 -->
<g id="node3" class="node">
<title>Node3</title>
<g id="a_node3"><a xlink:href="classidg__object.html#ac54f91fd013c01d09e085472d6bdb6e8" target="_top" xlink:title=" ">
<polygon fill="white" stroke="black" points="140,-19.5 140,-38.5 272,-38.5 272,-19.5 140,-19.5"/>
<text text-anchor="middle" x="206" y="-26.5" font-family="Helvetica,sans-Serif" font-size="10.00">idg_object\get_property</text>
</a>
</g>
</g>
<!-- Node1&#45;&gt;Node3 -->
<g id="edge2" class="edge">
<title>Node1&#45;&gt;Node3</title>
<path fill="none" stroke="midnightblue" d="M104.04,-41.62C112.28,-40.59 120.97,-39.5 129.64,-38.42"/>
<polygon fill="midnightblue" stroke="midnightblue" points="130.3,-41.86 139.79,-37.15 129.43,-34.92 130.3,-41.86"/>
</g>
<!-- Node4 -->
<g id="node4" class="node">
<title>Node4</title>
<g id="a_node4"><a xlink:href="classidg__object.html#a583e265c2dbc95871ab08eb9820c3ee8" target="_top" xlink:title="Executes members of this object and global functions.">
<polygon fill="white" stroke="black" points="311.5,-38.5 311.5,-57.5 419.5,-57.5 419.5,-38.5 311.5,-38.5"/>
<text text-anchor="middle" x="365.5" y="-45.5" font-family="Helvetica,sans-Serif" font-size="10.00">idg_object\execute</text>
</a>
</g>
</g>
<!-- Node3&#45;&gt;Node4 -->
<g id="edge3" class="edge">
<title>Node3&#45;&gt;Node4</title>
<path fill="none" stroke="midnightblue" d="M272.43,-36.89C281.98,-38.05 291.81,-39.23 301.32,-40.38"/>
<polygon fill="midnightblue" stroke="midnightblue" points="301.15,-43.88 311.49,-41.61 301.99,-36.93 301.15,-43.88"/>
</g>
<!-- Node5 -->
<g id="node5" class="node">
<title>Node5</title>
<g id="a_node5"><a xlink:href="classidg__object.html#a35093e6cb6bcfc815778ed16cbc11e75" target="_top" xlink:title=" ">
<polygon fill="white" stroke="black" points="308,-0.5 308,-19.5 423,-19.5 423,-0.5 308,-0.5"/>
<text text-anchor="middle" x="365.5" y="-7.5" font-family="Helvetica,sans-Serif" font-size="10.00">idg_object\get_hook</text>
</a>
</g>
</g>
<!-- Node3&#45;&gt;Node5 -->
<g id="edge4" class="edge">
<title>Node3&#45;&gt;Node5</title>
<path fill="none" stroke="midnightblue" d="M272.43,-21.11C280.72,-20.11 289.21,-19.08 297.53,-18.08"/>
<polygon fill="midnightblue" stroke="midnightblue" points="298.05,-21.54 307.56,-16.87 297.21,-14.59 298.05,-21.54"/>
</g>
</g>
</svg>
