<?xml version="1.0" encoding="UTF-8" standalone="no"?>
<!DOCTYPE svg PUBLIC "-//W3C//DTD SVG 1.1//EN"
 "http://www.w3.org/Graphics/SVG/1.1/DTD/svg11.dtd">
<!-- Generated by graphviz version 2.43.0 (0)
 -->
<!-- Title: idg_parameterized_instance Pages: 1 -->
<svg width="459pt" height="140pt"
 viewBox="0.00 0.00 459.00 140.00" xmlns="http://www.w3.org/2000/svg" xmlns:xlink="http://www.w3.org/1999/xlink">
<g id="graph0" class="graph" transform="scale(1 1) rotate(0) translate(4 136)">
<title>idg_parameterized_instance</title>
<polygon fill="white" stroke="transparent" points="-4,4 -4,-136 455,-136 455,4 -4,4"/>
<!-- Node1 -->
<g id="node1" class="node">
<title>Node1</title>
<g id="a_node1"><a xlink:title="Base class for idg entities with parameters.">
<polygon fill="#bfbfbf" stroke="black" points="101,-112.5 101,-131.5 256,-131.5 256,-112.5 101,-112.5"/>
<text text-anchor="middle" x="178.5" y="-119.5" font-family="Helvetica,sans-Serif" font-size="10.00">idg_parameterized_instance</text>
</a>
</g>
</g>
<!-- Node2 -->
<g id="node2" class="node">
<title>Node2</title>
<g id="a_node2"><a xlink:href="classidg__attribute.html" target="_top" xlink:title=" ">
<polygon fill="white" stroke="black" points="88,-56.5 88,-75.5 167,-75.5 167,-56.5 88,-56.5"/>
<text text-anchor="middle" x="127.5" y="-63.5" font-family="Helvetica,sans-Serif" font-size="10.00">idg_attribute</text>
</a>
</g>
</g>
<!-- Node1&#45;&gt;Node2 -->
<g id="edge1" class="edge">
<title>Node1&#45;&gt;Node2</title>
<path fill="none" stroke="midnightblue" d="M163.12,-104.72C154.13,-95.2 143.14,-83.56 135.76,-75.75"/>
<polygon fill="midnightblue" stroke="midnightblue" points="160.67,-107.22 170.08,-112.08 165.76,-102.41 160.67,-107.22"/>
</g>
<!-- Node3 -->
<g id="node3" class="node">
<title>Node3</title>
<g id="a_node3"><a xlink:href="classidg__datasource.html" target="_top" xlink:title="The source of all data.">
<polygon fill="white" stroke="black" points="185,-56.5 185,-75.5 276,-75.5 276,-56.5 185,-56.5"/>
<text text-anchor="middle" x="230.5" y="-63.5" font-family="Helvetica,sans-Serif" font-size="10.00">idg_datasource</text>
</a>
</g>
</g>
<!-- Node1&#45;&gt;Node3 -->
<g id="edge2" class="edge">
<title>Node1&#45;&gt;Node3</title>
<path fill="none" stroke="midnightblue" d="M194.18,-104.72C203.34,-95.2 214.55,-83.56 222.07,-75.75"/>
<polygon fill="midnightblue" stroke="midnightblue" points="191.5,-102.45 187.09,-112.08 196.54,-107.31 191.5,-102.45"/>
</g>
<!-- Node4 -->
<g id="node4" class="node">
<title>Node4</title>
<g id="a_node4"><a xlink:href="classidg__datasource__phpscript.html" target="_top" xlink:title=" ">
<polygon fill="white" stroke="black" points="0,-0.5 0,-19.5 141,-19.5 141,-0.5 0,-0.5"/>
<text text-anchor="middle" x="70.5" y="-7.5" font-family="Helvetica,sans-Serif" font-size="10.00">idg_datasource_phpscript</text>
</a>
</g>
</g>
<!-- Node3&#45;&gt;Node4 -->
<g id="edge3" class="edge">
<title>Node3&#45;&gt;Node4</title>
<path fill="none" stroke="midnightblue" d="M195.45,-53.17C165.33,-43 122.6,-28.59 95.73,-19.52"/>
<polygon fill="midnightblue" stroke="midnightblue" points="194.55,-56.56 205.15,-56.44 196.79,-49.93 194.55,-56.56"/>
</g>
<!-- Node5 -->
<g id="node5" class="node">
<title>Node5</title>
<g id="a_node5"><a xlink:href="classidg__datasource__sourcefile.html" target="_top" xlink:title=" ">
<polygon fill="white" stroke="black" points="159,-0.5 159,-19.5 302,-19.5 302,-0.5 159,-0.5"/>
<text text-anchor="middle" x="230.5" y="-7.5" font-family="Helvetica,sans-Serif" font-size="10.00">idg_datasource_sourcefile</text>
</a>
</g>
</g>
<!-- Node3&#45;&gt;Node5 -->
<g id="edge4" class="edge">
<title>Node3&#45;&gt;Node5</title>
<path fill="none" stroke="midnightblue" d="M230.5,-45.8C230.5,-36.91 230.5,-26.78 230.5,-19.75"/>
<polygon fill="midnightblue" stroke="midnightblue" points="227,-46.08 230.5,-56.08 234,-46.08 227,-46.08"/>
</g>
<!-- Node6 -->
<g id="node6" class="node">
<title>Node6</title>
<g id="a_node6"><a xlink:href="classidg__datasource__textfile.html" target="_top" xlink:title="Returns the content of a (normally text) file.">
<polygon fill="white" stroke="black" points="320,-0.5 320,-19.5 451,-19.5 451,-0.5 320,-0.5"/>
<text text-anchor="middle" x="385.5" y="-7.5" font-family="Helvetica,sans-Serif" font-size="10.00">idg_datasource_textfile</text>
</a>
</g>
</g>
<!-- Node3&#45;&gt;Node6 -->
<g id="edge5" class="edge">
<title>Node3&#45;&gt;Node6</title>
<path fill="none" stroke="midnightblue" d="M264.83,-53.04C294,-42.88 335.14,-28.55 361.05,-19.52"/>
<polygon fill="midnightblue" stroke="midnightblue" points="263.35,-49.85 255.06,-56.44 265.66,-56.46 263.35,-49.85"/>
</g>
</g>
</svg>
