<?xml version="1.0" encoding="UTF-8" standalone="no"?>
<!DOCTYPE svg PUBLIC "-//W3C//DTD SVG 1.1//EN"
 "http://www.w3.org/Graphics/SVG/1.1/DTD/svg11.dtd">
<!-- Generated by graphviz version 2.43.0 (0)
 -->
<!-- Title: idg_object\get_property_values Pages: 1 -->
<svg width="459pt" height="66pt"
 viewBox="0.00 0.00 459.00 66.00" xmlns="http://www.w3.org/2000/svg" xmlns:xlink="http://www.w3.org/1999/xlink">
<g id="graph0" class="graph" transform="scale(1 1) rotate(0) translate(4 62)">
<title>idg_object\get_property_values</title>
<polygon fill="white" stroke="transparent" points="-4,4 -4,-62 455,-62 455,4 -4,4"/>
<!-- Node1 -->
<g id="node1" class="node">
<title>Node1</title>
<g id="a_node1"><a xlink:title=" ">
<polygon fill="#bfbfbf" stroke="black" points="0,-14 0,-44 132,-44 132,-14 0,-14"/>
<text text-anchor="start" x="8" y="-32" font-family="Helvetica,sans-Serif" font-size="10.00">idg_object\get_property</text>
<text text-anchor="middle" x="66" y="-21" font-family="Helvetica,sans-Serif" font-size="10.00">_values</text>
</a>
</g>
</g>
<!-- Node2 -->
<g id="node2" class="node">
<title>Node2</title>
<g id="a_node2"><a xlink:href="classidg__object.html#a583e265c2dbc95871ab08eb9820c3ee8" target="_top" xlink:title="Executes members of this object and global functions.">
<polygon fill="white" stroke="black" points="339.5,-38.5 339.5,-57.5 447.5,-57.5 447.5,-38.5 339.5,-38.5"/>
<text text-anchor="middle" x="393.5" y="-45.5" font-family="Helvetica,sans-Serif" font-size="10.00">idg_object\execute</text>
</a>
</g>
</g>
<!-- Node1&#45;&gt;Node2 -->
<g id="edge1" class="edge">
<title>Node1&#45;&gt;Node2</title>
<path fill="none" stroke="midnightblue" d="M132.09,-32.8C189.37,-36.14 272.28,-40.98 329.07,-44.3"/>
<polygon fill="midnightblue" stroke="midnightblue" points="329.17,-47.81 339.35,-44.9 329.57,-40.82 329.17,-47.81"/>
</g>
<!-- Node3 -->
<g id="node3" class="node">
<title>Node3</title>
<g id="a_node3"><a xlink:href="classidg__object.html#ac54f91fd013c01d09e085472d6bdb6e8" target="_top" xlink:title=" ">
<polygon fill="white" stroke="black" points="168,-0.5 168,-19.5 300,-19.5 300,-0.5 168,-0.5"/>
<text text-anchor="middle" x="234" y="-7.5" font-family="Helvetica,sans-Serif" font-size="10.00">idg_object\get_property</text>
</a>
</g>
</g>
<!-- Node1&#45;&gt;Node3 -->
<g id="edge2" class="edge">
<title>Node1&#45;&gt;Node3</title>
<path fill="none" stroke="midnightblue" d="M132.13,-21.55C140.55,-20.58 149.23,-19.59 157.8,-18.61"/>
<polygon fill="midnightblue" stroke="midnightblue" points="158.25,-22.08 167.78,-17.46 157.45,-15.12 158.25,-22.08"/>
</g>
<!-- Node3&#45;&gt;Node2 -->
<g id="edge3" class="edge">
<title>Node3&#45;&gt;Node2</title>
<path fill="none" stroke="midnightblue" d="M274.74,-19.59C295.53,-24.6 321.16,-30.79 343.2,-36.11"/>
<polygon fill="midnightblue" stroke="midnightblue" points="342.5,-39.54 353.04,-38.48 344.14,-32.73 342.5,-39.54"/>
</g>
<!-- Node4 -->
<g id="node4" class="node">
<title>Node4</title>
<g id="a_node4"><a xlink:href="classidg__object.html#a35093e6cb6bcfc815778ed16cbc11e75" target="_top" xlink:title=" ">
<polygon fill="white" stroke="black" points="336,-0.5 336,-19.5 451,-19.5 451,-0.5 336,-0.5"/>
<text text-anchor="middle" x="393.5" y="-7.5" font-family="Helvetica,sans-Serif" font-size="10.00">idg_object\get_hook</text>
</a>
</g>
</g>
<!-- Node3&#45;&gt;Node4 -->
<g id="edge4" class="edge">
<title>Node3&#45;&gt;Node4</title>
<path fill="none" stroke="midnightblue" d="M300.43,-10C308.72,-10 317.21,-10 325.53,-10"/>
<polygon fill="midnightblue" stroke="midnightblue" points="325.56,-13.5 335.56,-10 325.56,-6.5 325.56,-13.5"/>
</g>
</g>
</svg>
