<?xml version="1.0" encoding="UTF-8" standalone="no"?>
<!DOCTYPE svg PUBLIC "-//W3C//DTD SVG 1.1//EN"
 "http://www.w3.org/Graphics/SVG/1.1/DTD/svg11.dtd">
<!-- Generated by graphviz version 2.43.0 (0)
 -->
<!-- Title: idg_view_element Pages: 1 -->
<svg width="344pt" height="252pt"
 viewBox="0.00 0.00 343.50 252.00" xmlns="http://www.w3.org/2000/svg" xmlns:xlink="http://www.w3.org/1999/xlink">
<g id="graph0" class="graph" transform="scale(1 1) rotate(0) translate(4 248)">
<title>idg_view_element</title>
<polygon fill="white" stroke="transparent" points="-4,4 -4,-248 339.5,-248 339.5,4 -4,4"/>
<!-- Node1 -->
<g id="node1" class="node">
<title>Node1</title>
<g id="a_node1"><a xlink:title="The parent class for idg_view and every sibling thereof.">
<polygon fill="#bfbfbf" stroke="black" points="132.5,-56.5 132.5,-75.5 238.5,-75.5 238.5,-56.5 132.5,-56.5"/>
<text text-anchor="middle" x="185.5" y="-63.5" font-family="Helvetica,sans-Serif" font-size="10.00">idg_view_element</text>
</a>
</g>
</g>
<!-- Node5 -->
<g id="node5" class="node">
<title>Node5</title>
<g id="a_node5"><a xlink:href="classidg__container.html" target="_top" xlink:title="A container can contain containers as well as other elements.">
<polygon fill="white" stroke="black" points="0,-0.5 0,-19.5 83,-19.5 83,-0.5 0,-0.5"/>
<text text-anchor="middle" x="41.5" y="-7.5" font-family="Helvetica,sans-Serif" font-size="10.00">idg_container</text>
</a>
</g>
</g>
<!-- Node1&#45;&gt;Node5 -->
<g id="edge4" class="edge">
<title>Node1&#45;&gt;Node5</title>
<path fill="none" stroke="midnightblue" d="M153.25,-52.91C126.18,-42.75 88.18,-28.51 64.21,-19.52"/>
<polygon fill="midnightblue" stroke="midnightblue" points="152.09,-56.21 162.68,-56.44 154.55,-49.66 152.09,-56.21"/>
</g>
<!-- Node6 -->
<g id="node6" class="node">
<title>Node6</title>
<g id="a_node6"><a xlink:href="classidg__fragment.html" target="_top" xlink:title="A fragment produces output, has access to attributes and can also have a data source.">
<polygon fill="white" stroke="black" points="101.5,-0.5 101.5,-19.5 183.5,-19.5 183.5,-0.5 101.5,-0.5"/>
<text text-anchor="middle" x="142.5" y="-7.5" font-family="Helvetica,sans-Serif" font-size="10.00">idg_fragment</text>
</a>
</g>
</g>
<!-- Node1&#45;&gt;Node6 -->
<g id="edge5" class="edge">
<title>Node1&#45;&gt;Node6</title>
<path fill="none" stroke="midnightblue" d="M172.08,-48.14C164.59,-38.74 155.56,-27.4 149.47,-19.75"/>
<polygon fill="midnightblue" stroke="midnightblue" points="169.43,-50.44 178.4,-56.08 174.91,-46.08 169.43,-50.44"/>
</g>
<!-- Node7 -->
<g id="node7" class="node">
<title>Node7</title>
<g id="a_node7"><a xlink:href="classidg__slot.html" target="_top" xlink:title="A slot is where the output produced by a renderer has its place inside the view.">
<polygon fill="white" stroke="black" points="202,-0.5 202,-19.5 257,-19.5 257,-0.5 202,-0.5"/>
<text text-anchor="middle" x="229.5" y="-7.5" font-family="Helvetica,sans-Serif" font-size="10.00">idg_slot</text>
</a>
</g>
</g>
<!-- Node1&#45;&gt;Node7 -->
<g id="edge6" class="edge">
<title>Node1&#45;&gt;Node7</title>
<path fill="none" stroke="midnightblue" d="M199.23,-48.14C206.9,-38.74 216.13,-27.4 222.37,-19.75"/>
<polygon fill="midnightblue" stroke="midnightblue" points="196.37,-46.12 192.77,-56.08 201.8,-50.54 196.37,-46.12"/>
</g>
<!-- Node8 -->
<g id="node8" class="node">
<title>Node8</title>
<g id="a_node8"><a xlink:href="classidg__view.html" target="_top" xlink:title="A view.">
<polygon fill="white" stroke="black" points="275.5,-0.5 275.5,-19.5 335.5,-19.5 335.5,-0.5 275.5,-0.5"/>
<text text-anchor="middle" x="305.5" y="-7.5" font-family="Helvetica,sans-Serif" font-size="10.00">idg_view</text>
</a>
</g>
</g>
<!-- Node1&#45;&gt;Node8 -->
<g id="edge7" class="edge">
<title>Node1&#45;&gt;Node8</title>
<path fill="none" stroke="midnightblue" d="M213.87,-52.23C236.32,-42.13 267.04,-28.31 286.57,-19.52"/>
<polygon fill="midnightblue" stroke="midnightblue" points="212.2,-49.15 204.51,-56.44 215.07,-55.53 212.2,-49.15"/>
</g>
<!-- Node2 -->
<g id="node2" class="node">
<title>Node2</title>
<g id="a_node2"><a xlink:href="classidg__treenode.html" target="_top" xlink:title="Base class for all tree nodes which are not leaf nodes.">
<polygon fill="white" stroke="black" points="145.5,-112.5 145.5,-131.5 225.5,-131.5 225.5,-112.5 145.5,-112.5"/>
<text text-anchor="middle" x="185.5" y="-119.5" font-family="Helvetica,sans-Serif" font-size="10.00">idg_treenode</text>
</a>
</g>
</g>
<!-- Node2&#45;&gt;Node1 -->
<g id="edge1" class="edge">
<title>Node2&#45;&gt;Node1</title>
<path fill="none" stroke="midnightblue" d="M185.5,-101.8C185.5,-92.91 185.5,-82.78 185.5,-75.75"/>
<polygon fill="midnightblue" stroke="midnightblue" points="182,-102.08 185.5,-112.08 189,-102.08 182,-102.08"/>
</g>
<!-- Node3 -->
<g id="node3" class="node">
<title>Node3</title>
<g id="a_node3"><a xlink:href="classidg__leafnode.html" target="_top" xlink:title="Base class for objects organized in a tree structure.">
<polygon fill="white" stroke="black" points="145.5,-168.5 145.5,-187.5 225.5,-187.5 225.5,-168.5 145.5,-168.5"/>
<text text-anchor="middle" x="185.5" y="-175.5" font-family="Helvetica,sans-Serif" font-size="10.00">idg_leafnode</text>
</a>
</g>
</g>
<!-- Node3&#45;&gt;Node2 -->
<g id="edge2" class="edge">
<title>Node3&#45;&gt;Node2</title>
<path fill="none" stroke="midnightblue" d="M185.5,-157.8C185.5,-148.91 185.5,-138.78 185.5,-131.75"/>
<polygon fill="midnightblue" stroke="midnightblue" points="182,-158.08 185.5,-168.08 189,-158.08 182,-158.08"/>
</g>
<!-- Node4 -->
<g id="node4" class="node">
<title>Node4</title>
<g id="a_node4"><a xlink:href="classidg__object.html" target="_top" xlink:title="Base class for all objects.">
<polygon fill="white" stroke="black" points="152,-224.5 152,-243.5 219,-243.5 219,-224.5 152,-224.5"/>
<text text-anchor="middle" x="185.5" y="-231.5" font-family="Helvetica,sans-Serif" font-size="10.00">idg_object</text>
</a>
</g>
</g>
<!-- Node4&#45;&gt;Node3 -->
<g id="edge3" class="edge">
<title>Node4&#45;&gt;Node3</title>
<path fill="none" stroke="midnightblue" d="M185.5,-213.8C185.5,-204.91 185.5,-194.78 185.5,-187.75"/>
<polygon fill="midnightblue" stroke="midnightblue" points="182,-214.08 185.5,-224.08 189,-214.08 182,-214.08"/>
</g>
</g>
</svg>
