<?xml version="1.0" encoding="UTF-8" standalone="no"?>
<!DOCTYPE svg PUBLIC "-//W3C//DTD SVG 1.1//EN"
 "http://www.w3.org/Graphics/SVG/1.1/DTD/svg11.dtd">
<!-- Generated by graphviz version 2.43.0 (0)
 -->
<!-- Title: Indigo\Fragment\image\_render Pages: 1 -->
<svg width="339pt" height="176pt"
 viewBox="0.00 0.00 339.00 175.50" xmlns="http://www.w3.org/2000/svg" xmlns:xlink="http://www.w3.org/1999/xlink">
<g id="graph0" class="graph" transform="scale(1 1) rotate(0) translate(4 171.5)">
<title>Indigo\Fragment\image\_render</title>
<polygon fill="white" stroke="transparent" points="-4,4 -4,-171.5 335,-171.5 335,4 -4,4"/>
<!-- Node1 -->
<g id="node1" class="node">
<title>Node1</title>
<g id="a_node1"><a xlink:title=" ">
<polygon fill="#bfbfbf" stroke="black" points="0,-63 0,-93 130,-93 130,-63 0,-63"/>
<text text-anchor="start" x="8" y="-81" font-family="Helvetica,sans-Serif" font-size="10.00">Indigo\Fragment\image</text>
<text text-anchor="middle" x="65" y="-70" font-family="Helvetica,sans-Serif" font-size="10.00">\_render</text>
</a>
</g>
</g>
<!-- Node2 -->
<g id="node2" class="node">
<title>Node2</title>
<g id="a_node2"><a xlink:href="classidg__object__implementation.html#aa4f7cdab064551936664e98dad737285" target="_top" xlink:title="Returns the idg_id of the object, as it was set in the parent.">
<polygon fill="white" stroke="black" points="173.5,-137 173.5,-167 323.5,-167 323.5,-137 173.5,-137"/>
<text text-anchor="start" x="181.5" y="-155" font-family="Helvetica,sans-Serif" font-size="10.00">idg_object_implementation</text>
<text text-anchor="middle" x="248.5" y="-144" font-family="Helvetica,sans-Serif" font-size="10.00">\get_idg_id</text>
</a>
</g>
</g>
<!-- Node1&#45;&gt;Node2 -->
<g id="edge1" class="edge">
<title>Node1&#45;&gt;Node2</title>
<path fill="none" stroke="midnightblue" d="M92.99,-93.14C112.78,-103.83 140.53,-117.98 166,-128 171.06,-129.99 176.36,-131.91 181.71,-133.73"/>
<polygon fill="midnightblue" stroke="midnightblue" points="180.78,-137.11 191.38,-136.9 182.97,-130.46 180.78,-137.11"/>
</g>
<!-- Node3 -->
<g id="node3" class="node">
<title>Node3</title>
<g id="a_node3"><a xlink:href="classidg__fragment__implementation.html#abc699728edbb99dc6c12dd327742c155" target="_top" xlink:title="Returns a parameter with the given name and scope, obtained from the parent.">
<polygon fill="white" stroke="black" points="166,-88 166,-118 331,-118 331,-88 166,-88"/>
<text text-anchor="start" x="174" y="-106" font-family="Helvetica,sans-Serif" font-size="10.00">idg_fragment_implementation</text>
<text text-anchor="middle" x="248.5" y="-95" font-family="Helvetica,sans-Serif" font-size="10.00">\get_parameter</text>
</a>
</g>
</g>
<!-- Node1&#45;&gt;Node3 -->
<g id="edge2" class="edge">
<title>Node1&#45;&gt;Node3</title>
<path fill="none" stroke="midnightblue" d="M130.25,-86.85C138.53,-87.99 147.13,-89.18 155.75,-90.36"/>
<polygon fill="midnightblue" stroke="midnightblue" points="155.47,-93.86 165.85,-91.75 156.42,-86.92 155.47,-93.86"/>
</g>
<!-- Node4 -->
<g id="node4" class="node">
<title>Node4</title>
<g id="a_node4"><a xlink:href="classidg__object__implementation.html#a6a21a88b0ee0cc804533de1d7604974d" target="_top" xlink:title="Returns the property with the given name of the object, as set in the parent.">
<polygon fill="white" stroke="black" points="173.5,-39 173.5,-69 323.5,-69 323.5,-39 173.5,-39"/>
<text text-anchor="start" x="181.5" y="-57" font-family="Helvetica,sans-Serif" font-size="10.00">idg_object_implementation</text>
<text text-anchor="middle" x="248.5" y="-46" font-family="Helvetica,sans-Serif" font-size="10.00">\get_property</text>
</a>
</g>
</g>
<!-- Node1&#45;&gt;Node4 -->
<g id="edge3" class="edge">
<title>Node1&#45;&gt;Node4</title>
<path fill="none" stroke="midnightblue" d="M130.25,-69.5C140.94,-68.09 152.18,-66.6 163.28,-65.14"/>
<polygon fill="midnightblue" stroke="midnightblue" points="163.97,-68.58 173.42,-63.8 163.05,-61.64 163.97,-68.58"/>
</g>
<!-- Node5 -->
<g id="node5" class="node">
<title>Node5</title>
<g id="a_node5"><a xlink:href="classidg__view.html#ad55847cece039cda45daac1c6c4b3c2c" target="_top" xlink:title="Write some content to a stream.">
<polygon fill="white" stroke="black" points="179,-0.5 179,-19.5 318,-19.5 318,-0.5 179,-0.5"/>
<text text-anchor="middle" x="248.5" y="-7.5" font-family="Helvetica,sans-Serif" font-size="10.00">idg_view\stream_append</text>
</a>
</g>
</g>
<!-- Node1&#45;&gt;Node5 -->
<g id="edge4" class="edge">
<title>Node1&#45;&gt;Node5</title>
<path fill="none" stroke="midnightblue" d="M93.36,-62.97C113.09,-52.6 140.62,-39.09 166,-30 174.17,-27.07 182.95,-24.42 191.62,-22.08"/>
<polygon fill="midnightblue" stroke="midnightblue" points="192.51,-25.47 201.32,-19.57 190.76,-18.69 192.51,-25.47"/>
</g>
</g>
</svg>
