<?xml version="1.0" encoding="UTF-8" standalone="no"?>
<!DOCTYPE svg PUBLIC "-//W3C//DTD SVG 1.1//EN"
 "http://www.w3.org/Graphics/SVG/1.1/DTD/svg11.dtd">
<!-- Generated by graphviz version 2.43.0 (0)
 -->
<!-- Title: idg_param_instance\set_option Pages: 1 -->
<svg width="451pt" height="66pt"
 viewBox="0.00 0.00 451.00 66.00" xmlns="http://www.w3.org/2000/svg" xmlns:xlink="http://www.w3.org/1999/xlink">
<g id="graph0" class="graph" transform="scale(1 1) rotate(0) translate(4 62)">
<title>idg_param_instance\set_option</title>
<polygon fill="white" stroke="transparent" points="-4,4 -4,-62 447,-62 447,4 -4,4"/>
<!-- Node1 -->
<g id="node1" class="node">
<title>Node1</title>
<g id="a_node1"><a xlink:title=" ">
<polygon fill="#bfbfbf" stroke="black" points="328,-14 328,-44 443,-44 443,-14 328,-14"/>
<text text-anchor="start" x="336" y="-32" font-family="Helvetica,sans-Serif" font-size="10.00">idg_param_instance</text>
<text text-anchor="middle" x="385.5" y="-21" font-family="Helvetica,sans-Serif" font-size="10.00">\set_option</text>
</a>
</g>
</g>
<!-- Node2 -->
<g id="node2" class="node">
<title>Node2</title>
<g id="a_node2"><a xlink:href="classidg__param__instance.html#a5712a1487d650db71b67c178ee8214db" target="_top" xlink:title=" ">
<polygon fill="white" stroke="black" points="177,-14 177,-44 292,-44 292,-14 177,-14"/>
<text text-anchor="start" x="185" y="-32" font-family="Helvetica,sans-Serif" font-size="10.00">idg_param_instance</text>
<text text-anchor="middle" x="234.5" y="-21" font-family="Helvetica,sans-Serif" font-size="10.00">\set_options</text>
</a>
</g>
</g>
<!-- Node1&#45;&gt;Node2 -->
<g id="edge1" class="edge">
<title>Node1&#45;&gt;Node2</title>
<path fill="none" stroke="midnightblue" d="M317.49,-29C309.01,-29 300.4,-29 292.1,-29"/>
<polygon fill="midnightblue" stroke="midnightblue" points="317.74,-32.5 327.74,-29 317.74,-25.5 317.74,-32.5"/>
</g>
<!-- Node3 -->
<g id="node3" class="node">
<title>Node3</title>
<g id="a_node3"><a xlink:href="classidg__attribute.html#a28c5f49e21bfda8c1bb19be99cd1a6cf" target="_top" xlink:title="Causes the attribute to inherit all instances in and above a given tree node.">
<polygon fill="white" stroke="black" points="0,-38.5 0,-57.5 141,-57.5 141,-38.5 0,-38.5"/>
<text text-anchor="middle" x="70.5" y="-45.5" font-family="Helvetica,sans-Serif" font-size="10.00">idg_attribute\add_options</text>
</a>
</g>
</g>
<!-- Node2&#45;&gt;Node3 -->
<g id="edge2" class="edge">
<title>Node2&#45;&gt;Node3</title>
<path fill="none" stroke="midnightblue" d="M166.72,-36.83C158.31,-37.82 149.69,-38.83 141.24,-39.82"/>
<polygon fill="midnightblue" stroke="midnightblue" points="167.32,-40.29 176.84,-35.65 166.5,-33.33 167.32,-40.29"/>
</g>
<!-- Node4 -->
<g id="node4" class="node">
<title>Node4</title>
<g id="a_node4"><a xlink:href="classidg__site.html#a453c0ebf27c6a8369b64690bf3afdfbf" target="_top" xlink:title=" ">
<polygon fill="white" stroke="black" points="4,-0.5 4,-19.5 137,-19.5 137,-0.5 4,-0.5"/>
<text text-anchor="middle" x="70.5" y="-7.5" font-family="Helvetica,sans-Serif" font-size="10.00">idg_site\get_datasource</text>
</a>
</g>
</g>
<!-- Node2&#45;&gt;Node4 -->
<g id="edge3" class="edge">
<title>Node2&#45;&gt;Node4</title>
<path fill="none" stroke="midnightblue" d="M166.74,-21.17C156.91,-20.02 146.8,-18.83 137.01,-17.68"/>
<polygon fill="midnightblue" stroke="midnightblue" points="166.5,-24.67 176.84,-22.35 167.32,-17.71 166.5,-24.67"/>
</g>
</g>
</svg>
