<?xml version="1.0" encoding="UTF-8" standalone="no"?>
<!DOCTYPE svg PUBLIC "-//W3C//DTD SVG 1.1//EN"
 "http://www.w3.org/Graphics/SVG/1.1/DTD/svg11.dtd">
<!-- Generated by graphviz version 2.43.0 (0)
 -->
<!-- Title: idg_attribute\add_options Pages: 1 -->
<svg width="603pt" height="154pt"
 viewBox="0.00 0.00 603.00 153.50" xmlns="http://www.w3.org/2000/svg" xmlns:xlink="http://www.w3.org/1999/xlink">
<g id="graph0" class="graph" transform="scale(1 1) rotate(0) translate(4 149.5)">
<title>idg_attribute\add_options</title>
<polygon fill="white" stroke="transparent" points="-4,4 -4,-149.5 599,-149.5 599,4 -4,4"/>
<!-- Node1 -->
<g id="node1" class="node">
<title>Node1</title>
<g id="a_node1"><a xlink:title="Causes the attribute to inherit all instances in and above a given tree node.">
<polygon fill="#bfbfbf" stroke="black" points="0,-69 0,-88 141,-88 141,-69 0,-69"/>
<text text-anchor="middle" x="70.5" y="-76" font-family="Helvetica,sans-Serif" font-size="10.00">idg_attribute\add_options</text>
</a>
</g>
</g>
<!-- Node2 -->
<g id="node2" class="node">
<title>Node2</title>
<g id="a_node2"><a xlink:href="diagnostics_8php.html#ab33364bd97c64c5f346adb6581e200b2" target="_top" xlink:title=" ">
<polygon fill="white" stroke="black" points="253.5,-126 253.5,-145 291.5,-145 291.5,-126 253.5,-126"/>
<text text-anchor="middle" x="272.5" y="-133" font-family="Helvetica,sans-Serif" font-size="10.00">diag</text>
</a>
</g>
</g>
<!-- Node1&#45;&gt;Node2 -->
<g id="edge1" class="edge">
<title>Node1&#45;&gt;Node2</title>
<path fill="none" stroke="midnightblue" d="M95.06,-88.12C116.23,-96.49 148.31,-108.5 177,-116.5 198.93,-122.62 224.24,-127.6 243.15,-130.92"/>
<polygon fill="midnightblue" stroke="midnightblue" points="242.75,-134.41 253.2,-132.64 243.93,-127.51 242.75,-134.41"/>
</g>
<!-- Node3 -->
<g id="node3" class="node">
<title>Node3</title>
<g id="a_node3"><a xlink:href="classidg__tree__node.html#a6d119e4b7dc3e041d13719fb6c92eddf" target="_top" xlink:title=" ">
<polygon fill="white" stroke="black" points="196.5,-88 196.5,-107 348.5,-107 348.5,-88 196.5,-88"/>
<text text-anchor="middle" x="272.5" y="-95" font-family="Helvetica,sans-Serif" font-size="10.00">idg_tree_node\get_attribute</text>
</a>
</g>
</g>
<!-- Node1&#45;&gt;Node3 -->
<g id="edge2" class="edge">
<title>Node1&#45;&gt;Node3</title>
<path fill="none" stroke="midnightblue" d="M141.17,-85.12C155.64,-86.49 171.05,-87.96 186.02,-89.38"/>
<polygon fill="midnightblue" stroke="midnightblue" points="186,-92.89 196.29,-90.35 186.66,-85.92 186,-92.89"/>
</g>
<!-- Node4 -->
<g id="node4" class="node">
<title>Node4</title>
<g id="a_node4"><a xlink:href="classidg__tree__node.html#a46125cb222ce856fc14b1434620a3eb2" target="_top" xlink:title=" ">
<polygon fill="white" stroke="black" points="202,-50 202,-69 343,-69 343,-50 202,-50"/>
<text text-anchor="middle" x="272.5" y="-57" font-family="Helvetica,sans-Serif" font-size="10.00">idg_tree_node\get_parent</text>
</a>
</g>
</g>
<!-- Node1&#45;&gt;Node4 -->
<g id="edge3" class="edge">
<title>Node1&#45;&gt;Node4</title>
<path fill="none" stroke="midnightblue" d="M141.17,-71.88C157.41,-70.34 174.84,-68.68 191.49,-67.1"/>
<polygon fill="midnightblue" stroke="midnightblue" points="192.12,-70.56 201.74,-66.13 191.46,-63.59 192.12,-70.56"/>
</g>
<!-- Node5 -->
<g id="node5" class="node">
<title>Node5</title>
<g id="a_node5"><a xlink:href="classidg__parameterized__implementation.html#af5171abcdcf949650e61573b6b29435c" target="_top" xlink:title=" ">
<polygon fill="white" stroke="black" points="177,-0.5 177,-30.5 368,-30.5 368,-0.5 177,-0.5"/>
<text text-anchor="start" x="185" y="-18.5" font-family="Helvetica,sans-Serif" font-size="10.00">idg_parameterized_implementation</text>
<text text-anchor="middle" x="272.5" y="-7.5" font-family="Helvetica,sans-Serif" font-size="10.00">\set_options</text>
</a>
</g>
</g>
<!-- Node1&#45;&gt;Node5 -->
<g id="edge4" class="edge">
<title>Node1&#45;&gt;Node5</title>
<path fill="none" stroke="midnightblue" d="M96.02,-68.98C117.27,-60.9 148.94,-49.25 177,-40.5 184.98,-38.01 193.38,-35.56 201.75,-33.22"/>
<polygon fill="midnightblue" stroke="midnightblue" points="202.83,-36.55 211.54,-30.52 200.97,-29.8 202.83,-36.55"/>
</g>
<!-- Node6 -->
<g id="node6" class="node">
<title>Node6</title>
<g id="a_node6"><a xlink:href="classidg__parameterized__implementation.html#a705b8f9e95ae0009ff9e65957dc7e25e" target="_top" xlink:title=" ">
<polygon fill="white" stroke="black" points="404,-0.5 404,-30.5 595,-30.5 595,-0.5 404,-0.5"/>
<text text-anchor="start" x="412" y="-18.5" font-family="Helvetica,sans-Serif" font-size="10.00">idg_parameterized_implementation</text>
<text text-anchor="middle" x="499.5" y="-7.5" font-family="Helvetica,sans-Serif" font-size="10.00">\set_option</text>
</a>
</g>
</g>
<!-- Node5&#45;&gt;Node6 -->
<g id="edge5" class="edge">
<title>Node5&#45;&gt;Node6</title>
<path fill="none" stroke="midnightblue" d="M368.27,-15.5C376.64,-15.5 385.14,-15.5 393.58,-15.5"/>
<polygon fill="midnightblue" stroke="midnightblue" points="393.84,-19 403.84,-15.5 393.84,-12 393.84,-19"/>
</g>
</g>
</svg>
