<?xml version="1.0" encoding="UTF-8" standalone="no"?>
<!DOCTYPE svg PUBLIC "-//W3C//DTD SVG 1.1//EN"
 "http://www.w3.org/Graphics/SVG/1.1/DTD/svg11.dtd">
<!-- Generated by graphviz version 2.43.0 (0)
 -->
<!-- Title: idg_view_html\render Pages: 1 -->
<svg width="449pt" height="85pt"
 viewBox="0.00 0.00 449.00 85.00" xmlns="http://www.w3.org/2000/svg" xmlns:xlink="http://www.w3.org/1999/xlink">
<g id="graph0" class="graph" transform="scale(1 1) rotate(0) translate(4 81)">
<title>idg_view_html\render</title>
<polygon fill="white" stroke="transparent" points="-4,4 -4,-81 445,-81 445,4 -4,4"/>
<!-- Node1 -->
<g id="node1" class="node">
<title>Node1</title>
<g id="a_node1"><a xlink:title=" ">
<polygon fill="#bfbfbf" stroke="black" points="0,-19.5 0,-38.5 122,-38.5 122,-19.5 0,-19.5"/>
<text text-anchor="middle" x="61" y="-26.5" font-family="Helvetica,sans-Serif" font-size="10.00">idg_view_html\render</text>
</a>
</g>
</g>
<!-- Node2 -->
<g id="node2" class="node">
<title>Node2</title>
<g id="a_node2"><a xlink:href="classidg__object.html#ac54f91fd013c01d09e085472d6bdb6e8" target="_top" xlink:title=" ">
<polygon fill="white" stroke="black" points="158,-38.5 158,-57.5 290,-57.5 290,-38.5 158,-38.5"/>
<text text-anchor="middle" x="224" y="-45.5" font-family="Helvetica,sans-Serif" font-size="10.00">idg_object\get_property</text>
</a>
</g>
</g>
<!-- Node1&#45;&gt;Node2 -->
<g id="edge1" class="edge">
<title>Node1&#45;&gt;Node2</title>
<path fill="none" stroke="midnightblue" d="M122.41,-36.13C130.75,-37.11 139.39,-38.13 147.95,-39.14"/>
<polygon fill="midnightblue" stroke="midnightblue" points="147.6,-42.63 157.94,-40.32 148.42,-35.67 147.6,-42.63"/>
</g>
<!-- Node5 -->
<g id="node5" class="node">
<title>Node5</title>
<g id="a_node5"><a xlink:href="classUUID.html#ac29daa3e5132d33790efe43f57ed4b06" target="_top" xlink:title=" ">
<polygon fill="white" stroke="black" points="195.5,-0.5 195.5,-19.5 252.5,-19.5 252.5,-0.5 195.5,-0.5"/>
<text text-anchor="middle" x="224" y="-7.5" font-family="Helvetica,sans-Serif" font-size="10.00">UUID\v4</text>
</a>
</g>
</g>
<!-- Node1&#45;&gt;Node5 -->
<g id="edge4" class="edge">
<title>Node1&#45;&gt;Node5</title>
<path fill="none" stroke="midnightblue" d="M122.41,-21.87C143.39,-19.39 166.32,-16.69 184.98,-14.49"/>
<polygon fill="midnightblue" stroke="midnightblue" points="185.62,-17.94 195.15,-13.29 184.8,-10.98 185.62,-17.94"/>
</g>
<!-- Node3 -->
<g id="node3" class="node">
<title>Node3</title>
<g id="a_node3"><a xlink:href="classidg__object.html#a583e265c2dbc95871ab08eb9820c3ee8" target="_top" xlink:title="Helper: executes members of this object and global functions.">
<polygon fill="white" stroke="black" points="329.5,-57.5 329.5,-76.5 437.5,-76.5 437.5,-57.5 329.5,-57.5"/>
<text text-anchor="middle" x="383.5" y="-64.5" font-family="Helvetica,sans-Serif" font-size="10.00">idg_object\execute</text>
</a>
</g>
</g>
<!-- Node2&#45;&gt;Node3 -->
<g id="edge2" class="edge">
<title>Node2&#45;&gt;Node3</title>
<path fill="none" stroke="midnightblue" d="M290.43,-55.89C299.98,-57.05 309.81,-58.23 319.32,-59.38"/>
<polygon fill="midnightblue" stroke="midnightblue" points="319.15,-62.88 329.49,-60.61 319.99,-55.93 319.15,-62.88"/>
</g>
<!-- Node4 -->
<g id="node4" class="node">
<title>Node4</title>
<g id="a_node4"><a xlink:href="classidg__object.html#a35093e6cb6bcfc815778ed16cbc11e75" target="_top" xlink:title=" ">
<polygon fill="white" stroke="black" points="326,-19.5 326,-38.5 441,-38.5 441,-19.5 326,-19.5"/>
<text text-anchor="middle" x="383.5" y="-26.5" font-family="Helvetica,sans-Serif" font-size="10.00">idg_object\get_hook</text>
</a>
</g>
</g>
<!-- Node2&#45;&gt;Node4 -->
<g id="edge3" class="edge">
<title>Node2&#45;&gt;Node4</title>
<path fill="none" stroke="midnightblue" d="M290.43,-40.11C298.72,-39.11 307.21,-38.08 315.53,-37.08"/>
<polygon fill="midnightblue" stroke="midnightblue" points="316.05,-40.54 325.56,-35.87 315.21,-33.59 316.05,-40.54"/>
</g>
</g>
</svg>
