<?xml version="1.0" encoding="UTF-8" standalone="no"?>
<!DOCTYPE svg PUBLIC "-//W3C//DTD SVG 1.1//EN"
 "http://www.w3.org/Graphics/SVG/1.1/DTD/svg11.dtd">
<!-- Generated by graphviz version 2.43.0 (0)
 -->
<!-- Title: idg_object_type\set_known Pages: 1 -->
<svg width="308pt" height="460pt"
 viewBox="0.00 0.00 308.00 460.00" xmlns="http://www.w3.org/2000/svg" xmlns:xlink="http://www.w3.org/1999/xlink">
<g id="graph0" class="graph" transform="scale(1 1) rotate(0) translate(4 456)">
<title>idg_object_type\set_known</title>
<polygon fill="white" stroke="transparent" points="-4,4 -4,-456 304,-456 304,4 -4,4"/>
<!-- Node1 -->
<g id="node1" class="node">
<title>Node1</title>
<g id="a_node1"><a xlink:title=" ">
<polygon fill="#bfbfbf" stroke="black" points="188,-218.5 188,-248.5 300,-248.5 300,-218.5 188,-218.5"/>
<text text-anchor="start" x="196" y="-236.5" font-family="Helvetica,sans-Serif" font-size="10.00">idg_object_type\set</text>
<text text-anchor="middle" x="244" y="-225.5" font-family="Helvetica,sans-Serif" font-size="10.00">_known</text>
</a>
</g>
</g>
<!-- Node2 -->
<g id="node2" class="node">
<title>Node2</title>
<g id="a_node2"><a xlink:href="classidg__datasource__declaration__type.html#acf427d15d9f350ace6516710d724302a" target="_top" xlink:title=" ">
<polygon fill="white" stroke="black" points="0.5,-421.5 0.5,-451.5 151.5,-451.5 151.5,-421.5 0.5,-421.5"/>
<text text-anchor="start" x="8.5" y="-439.5" font-family="Helvetica,sans-Serif" font-size="10.00">idg_datasource_declaration</text>
<text text-anchor="middle" x="76" y="-428.5" font-family="Helvetica,sans-Serif" font-size="10.00">_type\__construct</text>
</a>
</g>
</g>
<!-- Node1&#45;&gt;Node2 -->
<g id="edge1" class="edge">
<title>Node1&#45;&gt;Node2</title>
<path fill="none" stroke="midnightblue" d="M236.92,-258.61C226.29,-297.23 200.66,-371.09 152,-412.5 147.94,-415.96 143.38,-418.92 138.56,-421.45"/>
<polygon fill="midnightblue" stroke="midnightblue" points="240.37,-259.27 239.53,-248.7 233.6,-257.48 240.37,-259.27"/>
</g>
<!-- Node3 -->
<g id="node3" class="node">
<title>Node3</title>
<g id="a_node3"><a xlink:href="classidg__renderer__declaration__type.html#af92105f008f328ef15ea2cb36fe45cda" target="_top" xlink:title=" ">
<polygon fill="white" stroke="black" points="7,-372.5 7,-402.5 145,-402.5 145,-372.5 7,-372.5"/>
<text text-anchor="start" x="15" y="-390.5" font-family="Helvetica,sans-Serif" font-size="10.00">idg_renderer_declaration</text>
<text text-anchor="middle" x="76" y="-379.5" font-family="Helvetica,sans-Serif" font-size="10.00">_type\__construct</text>
</a>
</g>
</g>
<!-- Node1&#45;&gt;Node3 -->
<g id="edge2" class="edge">
<title>Node1&#45;&gt;Node3</title>
<path fill="none" stroke="midnightblue" d="M231.93,-257.63C217.49,-286.55 189.55,-334.59 152,-362.5 146.82,-366.35 141.02,-369.63 134.99,-372.41"/>
<polygon fill="midnightblue" stroke="midnightblue" points="235.09,-259.13 236.31,-248.61 228.79,-256.08 235.09,-259.13"/>
</g>
<!-- Node4 -->
<g id="node4" class="node">
<title>Node4</title>
<g id="a_node4"><a xlink:href="classidg__object__type.html#ad6aaf736323ef80579db677181233e98" target="_top" xlink:title=" ">
<polygon fill="white" stroke="black" points="0,-334 0,-353 152,-353 152,-334 0,-334"/>
<text text-anchor="middle" x="76" y="-341" font-family="Helvetica,sans-Serif" font-size="10.00">idg_object_type\__construct</text>
</a>
</g>
</g>
<!-- Node1&#45;&gt;Node4 -->
<g id="edge3" class="edge">
<title>Node1&#45;&gt;Node4</title>
<path fill="none" stroke="midnightblue" d="M225.92,-256.6C209.32,-277.42 182.22,-307.33 152,-324.5 145.23,-328.35 137.67,-331.43 130.04,-333.89"/>
<polygon fill="midnightblue" stroke="midnightblue" points="228.8,-258.61 232.17,-248.57 223.27,-254.31 228.8,-258.61"/>
</g>
<!-- Node5 -->
<g id="node5" class="node">
<title>Node5</title>
<g id="a_node5"><a xlink:href="classidg__site__element__type.html#a192a58686c7022f327f205ac88857434" target="_top" xlink:title=" ">
<polygon fill="white" stroke="black" points="12,-284.5 12,-314.5 140,-314.5 140,-284.5 12,-284.5"/>
<text text-anchor="start" x="20" y="-302.5" font-family="Helvetica,sans-Serif" font-size="10.00">idg_site_element_type</text>
<text text-anchor="middle" x="76" y="-291.5" font-family="Helvetica,sans-Serif" font-size="10.00">\__construct</text>
</a>
</g>
</g>
<!-- Node1&#45;&gt;Node5 -->
<g id="edge4" class="edge">
<title>Node1&#45;&gt;Node5</title>
<path fill="none" stroke="midnightblue" d="M202.39,-252.86C186.78,-260.02 168.71,-267.97 152,-274.5 143.18,-277.95 133.66,-281.35 124.47,-284.49"/>
<polygon fill="midnightblue" stroke="midnightblue" points="204.14,-255.9 211.75,-248.53 201.2,-249.55 204.14,-255.9"/>
</g>
<!-- Node6 -->
<g id="node6" class="node">
<title>Node6</title>
<g id="a_node6"><a xlink:href="classidg__view__type.html#ad2efac1079cfd83aebc3f86968109d46" target="_top" xlink:title=" ">
<polygon fill="white" stroke="black" points="3,-246 3,-265 149,-265 149,-246 3,-246"/>
<text text-anchor="middle" x="76" y="-253" font-family="Helvetica,sans-Serif" font-size="10.00">idg_view_type\__construct</text>
</a>
</g>
</g>
<!-- Node1&#45;&gt;Node6 -->
<g id="edge5" class="edge">
<title>Node1&#45;&gt;Node6</title>
<path fill="none" stroke="midnightblue" d="M177.63,-242.16C168.19,-243.41 158.43,-244.71 148.87,-245.98"/>
<polygon fill="midnightblue" stroke="midnightblue" points="178.27,-245.61 187.72,-240.83 177.35,-238.67 178.27,-245.61"/>
</g>
<!-- Node7 -->
<g id="node7" class="node">
<title>Node7</title>
<g id="a_node7"><a xlink:href="classidg__view__html__type.html#af7fbb5d981b82ad26c46219d6b1f8127" target="_top" xlink:title=" ">
<polygon fill="white" stroke="black" points="18.5,-196.5 18.5,-226.5 133.5,-226.5 133.5,-196.5 18.5,-196.5"/>
<text text-anchor="start" x="26.5" y="-214.5" font-family="Helvetica,sans-Serif" font-size="10.00">idg_view_html_type</text>
<text text-anchor="middle" x="76" y="-203.5" font-family="Helvetica,sans-Serif" font-size="10.00">\__construct</text>
</a>
</g>
</g>
<!-- Node1&#45;&gt;Node7 -->
<g id="edge6" class="edge">
<title>Node1&#45;&gt;Node7</title>
<path fill="none" stroke="midnightblue" d="M177.79,-224.86C163.24,-222.93 147.92,-220.9 133.74,-219.02"/>
<polygon fill="midnightblue" stroke="midnightblue" points="177.35,-228.33 187.72,-226.17 178.27,-221.39 177.35,-228.33"/>
</g>
<!-- Node8 -->
<g id="node8" class="node">
<title>Node8</title>
<g id="a_node8"><a xlink:href="classidg__view__html__element__type.html#ad602ad717abd8c243e5e1f200930768b" target="_top" xlink:title=" ">
<polygon fill="white" stroke="black" points="9,-147.5 9,-177.5 143,-177.5 143,-147.5 9,-147.5"/>
<text text-anchor="start" x="17" y="-165.5" font-family="Helvetica,sans-Serif" font-size="10.00">idg_view_html_element</text>
<text text-anchor="middle" x="76" y="-154.5" font-family="Helvetica,sans-Serif" font-size="10.00">_type\__construct</text>
</a>
</g>
</g>
<!-- Node1&#45;&gt;Node8 -->
<g id="edge7" class="edge">
<title>Node1&#45;&gt;Node8</title>
<path fill="none" stroke="midnightblue" d="M206.39,-213.45C190.01,-204.89 170.3,-195.13 152,-187.5 143.64,-184.02 134.6,-180.67 125.8,-177.61"/>
<polygon fill="midnightblue" stroke="midnightblue" points="205.14,-216.75 215.62,-218.33 208.41,-210.56 205.14,-216.75"/>
</g>
<!-- Node9 -->
<g id="node9" class="node">
<title>Node9</title>
<g id="a_node9"><a xlink:href="classidg__view__html__container__type.html#a4de6e902b43b0591fb8095254781dab1" target="_top" xlink:title=" ">
<polygon fill="white" stroke="black" points="6.5,-98.5 6.5,-128.5 145.5,-128.5 145.5,-98.5 6.5,-98.5"/>
<text text-anchor="start" x="14.5" y="-116.5" font-family="Helvetica,sans-Serif" font-size="10.00">idg_view_html_container</text>
<text text-anchor="middle" x="76" y="-105.5" font-family="Helvetica,sans-Serif" font-size="10.00">_type\__construct</text>
</a>
</g>
</g>
<!-- Node1&#45;&gt;Node9 -->
<g id="edge8" class="edge">
<title>Node1&#45;&gt;Node9</title>
<path fill="none" stroke="midnightblue" d="M226.11,-210.24C209.47,-188.84 182.19,-157.61 152,-138.5 145.97,-134.68 139.29,-131.38 132.49,-128.55"/>
<polygon fill="midnightblue" stroke="midnightblue" points="223.53,-212.63 232.37,-218.47 229.1,-208.39 223.53,-212.63"/>
</g>
<!-- Node10 -->
<g id="node10" class="node">
<title>Node10</title>
<g id="a_node10"><a xlink:href="classidg__view__html__renderer__type.html#afd0da975bd9282b67095b5e5812333aa" target="_top" xlink:title=" ">
<polygon fill="white" stroke="black" points="9,-49.5 9,-79.5 143,-79.5 143,-49.5 9,-49.5"/>
<text text-anchor="start" x="17" y="-67.5" font-family="Helvetica,sans-Serif" font-size="10.00">idg_view_html_renderer</text>
<text text-anchor="middle" x="76" y="-56.5" font-family="Helvetica,sans-Serif" font-size="10.00">_type\__construct</text>
</a>
</g>
</g>
<!-- Node1&#45;&gt;Node10 -->
<g id="edge9" class="edge">
<title>Node1&#45;&gt;Node10</title>
<path fill="none" stroke="midnightblue" d="M233.68,-208.99C220.32,-177.02 192.76,-121.42 152,-89.5 147.03,-85.61 141.42,-82.31 135.57,-79.51"/>
<polygon fill="midnightblue" stroke="midnightblue" points="230.53,-210.52 237.52,-218.48 237.02,-207.89 230.53,-210.52"/>
</g>
<!-- Node11 -->
<g id="node11" class="node">
<title>Node11</title>
<g id="a_node11"><a xlink:href="classidg__view__html__slot__type.html#ab2de0cfdabf53c6d204c02002750c238" target="_top" xlink:title=" ">
<polygon fill="white" stroke="black" points="20.5,-0.5 20.5,-30.5 131.5,-30.5 131.5,-0.5 20.5,-0.5"/>
<text text-anchor="start" x="28.5" y="-18.5" font-family="Helvetica,sans-Serif" font-size="10.00">idg_view_html_slot</text>
<text text-anchor="middle" x="76" y="-7.5" font-family="Helvetica,sans-Serif" font-size="10.00">_type\__construct</text>
</a>
</g>
</g>
<!-- Node1&#45;&gt;Node11 -->
<g id="edge10" class="edge">
<title>Node1&#45;&gt;Node11</title>
<path fill="none" stroke="midnightblue" d="M237.85,-208.29C228.19,-167.3 203.5,-86.22 152,-40.5 146.05,-35.22 138.94,-31.04 131.51,-27.75"/>
<polygon fill="midnightblue" stroke="midnightblue" points="234.48,-209.27 240.09,-218.26 241.31,-207.74 234.48,-209.27"/>
</g>
</g>
</svg>
