<?xml version="1.0" encoding="UTF-8" standalone="no"?>
<!DOCTYPE svg PUBLIC "-//W3C//DTD SVG 1.1//EN"
 "http://www.w3.org/Graphics/SVG/1.1/DTD/svg11.dtd">
<!-- Generated by graphviz version 2.43.0 (0)
 -->
<!-- Title: idg_datasource_declaration\create_instance Pages: 1 -->
<svg width="512pt" height="85pt"
 viewBox="0.00 0.00 512.00 85.00" xmlns="http://www.w3.org/2000/svg" xmlns:xlink="http://www.w3.org/1999/xlink">
<g id="graph0" class="graph" transform="scale(1 1) rotate(0) translate(4 81)">
<title>idg_datasource_declaration\create_instance</title>
<polygon fill="white" stroke="transparent" points="-4,4 -4,-81 508,-81 508,4 -4,4"/>
<!-- Node1 -->
<g id="node1" class="node">
<title>Node1</title>
<g id="a_node1"><a xlink:title=" ">
<polygon fill="#bfbfbf" stroke="black" points="0,-33 0,-63 151,-63 151,-33 0,-33"/>
<text text-anchor="start" x="8" y="-51" font-family="Helvetica,sans-Serif" font-size="10.00">idg_datasource_declaration</text>
<text text-anchor="middle" x="75.5" y="-40" font-family="Helvetica,sans-Serif" font-size="10.00">\create_instance</text>
</a>
</g>
</g>
<!-- Node2 -->
<g id="node2" class="node">
<title>Node2</title>
<g id="a_node2"><a xlink:href="classidg__tree__node.html#a3eb6b6cb90e4636f2083d15d32cd8828" target="_top" xlink:title=" ">
<polygon fill="white" stroke="black" points="187,-57.5 187,-76.5 353,-76.5 353,-57.5 187,-57.5"/>
<text text-anchor="middle" x="270" y="-64.5" font-family="Helvetica,sans-Serif" font-size="10.00">idg_tree_node\get_parameters</text>
</a>
</g>
</g>
<!-- Node1&#45;&gt;Node2 -->
<g id="edge1" class="edge">
<title>Node1&#45;&gt;Node2</title>
<path fill="none" stroke="midnightblue" d="M151.2,-55.37C159.63,-56.21 168.3,-57.06 176.92,-57.91"/>
<polygon fill="midnightblue" stroke="midnightblue" points="176.7,-61.41 187,-58.91 177.39,-54.44 176.7,-61.41"/>
</g>
<!-- Node3 -->
<g id="node3" class="node">
<title>Node3</title>
<g id="a_node3"><a xlink:href="classidg__object.html#ac54f91fd013c01d09e085472d6bdb6e8" target="_top" xlink:title=" ">
<polygon fill="white" stroke="black" points="204,-19.5 204,-38.5 336,-38.5 336,-19.5 204,-19.5"/>
<text text-anchor="middle" x="270" y="-26.5" font-family="Helvetica,sans-Serif" font-size="10.00">idg_object\get_property</text>
</a>
</g>
</g>
<!-- Node1&#45;&gt;Node3 -->
<g id="edge2" class="edge">
<title>Node1&#45;&gt;Node3</title>
<path fill="none" stroke="midnightblue" d="M151.2,-40.63C165.15,-39.25 179.73,-37.81 193.7,-36.43"/>
<polygon fill="midnightblue" stroke="midnightblue" points="194.13,-39.91 203.74,-35.44 193.44,-32.94 194.13,-39.91"/>
</g>
<!-- Node4 -->
<g id="node4" class="node">
<title>Node4</title>
<g id="a_node4"><a xlink:href="classidg__object.html#a583e265c2dbc95871ab08eb9820c3ee8" target="_top" xlink:title="Executes members of this object and global functions.">
<polygon fill="white" stroke="black" points="392.5,-38.5 392.5,-57.5 500.5,-57.5 500.5,-38.5 392.5,-38.5"/>
<text text-anchor="middle" x="446.5" y="-45.5" font-family="Helvetica,sans-Serif" font-size="10.00">idg_object\execute</text>
</a>
</g>
</g>
<!-- Node3&#45;&gt;Node4 -->
<g id="edge3" class="edge">
<title>Node3&#45;&gt;Node4</title>
<path fill="none" stroke="midnightblue" d="M336.47,-36.13C351.48,-37.76 367.41,-39.5 382.32,-41.12"/>
<polygon fill="midnightblue" stroke="midnightblue" points="382.13,-44.62 392.45,-42.22 382.89,-37.66 382.13,-44.62"/>
</g>
<!-- Node5 -->
<g id="node5" class="node">
<title>Node5</title>
<g id="a_node5"><a xlink:href="classidg__object.html#a35093e6cb6bcfc815778ed16cbc11e75" target="_top" xlink:title=" ">
<polygon fill="white" stroke="black" points="389,-0.5 389,-19.5 504,-19.5 504,-0.5 389,-0.5"/>
<text text-anchor="middle" x="446.5" y="-7.5" font-family="Helvetica,sans-Serif" font-size="10.00">idg_object\get_hook</text>
</a>
</g>
</g>
<!-- Node3&#45;&gt;Node5 -->
<g id="edge4" class="edge">
<title>Node3&#45;&gt;Node5</title>
<path fill="none" stroke="midnightblue" d="M336.47,-21.87C350.33,-20.36 364.96,-18.77 378.86,-17.26"/>
<polygon fill="midnightblue" stroke="midnightblue" points="379.26,-20.73 388.82,-16.17 378.5,-13.77 379.26,-20.73"/>
</g>
</g>
</svg>
