<?xml version="1.0" encoding="UTF-8" standalone="no"?>
<!DOCTYPE svg PUBLIC "-//W3C//DTD SVG 1.1//EN"
 "http://www.w3.org/Graphics/SVG/1.1/DTD/svg11.dtd">
<!-- Generated by graphviz version 2.43.0 (0)
 -->
<!-- Title: Indigo\Renderer\textfile\_render Pages: 1 -->
<svg width="336pt" height="127pt"
 viewBox="0.00 0.00 336.00 126.50" xmlns="http://www.w3.org/2000/svg" xmlns:xlink="http://www.w3.org/1999/xlink">
<g id="graph0" class="graph" transform="scale(1 1) rotate(0) translate(4 122.5)">
<title>Indigo\Renderer\textfile\_render</title>
<polygon fill="white" stroke="transparent" points="-4,4 -4,-122.5 332,-122.5 332,4 -4,4"/>
<!-- Node1 -->
<g id="node1" class="node">
<title>Node1</title>
<g id="a_node1"><a xlink:title=" ">
<polygon fill="#bfbfbf" stroke="black" points="0,-39 0,-69 131,-69 131,-39 0,-39"/>
<text text-anchor="start" x="8" y="-57" font-family="Helvetica,sans-Serif" font-size="10.00">Indigo\Renderer\textfile</text>
<text text-anchor="middle" x="65.5" y="-46" font-family="Helvetica,sans-Serif" font-size="10.00">\_render</text>
</a>
</g>
</g>
<!-- Node2 -->
<g id="node2" class="node">
<title>Node2</title>
<g id="a_node2"><a xlink:href="classidg__renderer__implementation.html#a0e05067c7abd70005790ab18b3477593" target="_top" xlink:title="Gets the associated datasource object.">
<polygon fill="white" stroke="black" points="167,-88 167,-118 328,-118 328,-88 167,-88"/>
<text text-anchor="start" x="175" y="-106" font-family="Helvetica,sans-Serif" font-size="10.00">idg_renderer_implementation</text>
<text text-anchor="middle" x="247.5" y="-95" font-family="Helvetica,sans-Serif" font-size="10.00">\get_datasource</text>
</a>
</g>
</g>
<!-- Node1&#45;&gt;Node2 -->
<g id="edge1" class="edge">
<title>Node1&#45;&gt;Node2</title>
<path fill="none" stroke="midnightblue" d="M121.97,-69.1C140.8,-74.23 161.99,-80 181.49,-85.3"/>
<polygon fill="midnightblue" stroke="midnightblue" points="180.64,-88.7 191.21,-87.95 182.48,-81.94 180.64,-88.7"/>
</g>
<!-- Node3 -->
<g id="node3" class="node">
<title>Node3</title>
<g id="a_node3"><a xlink:href="classidg__document.html#a0e54d75f75f119d29ea8eea696f621c1" target="_top" xlink:title="Updates the document&#39;s last modification time.">
<polygon fill="white" stroke="black" points="184,-39 184,-69 311,-69 311,-39 184,-39"/>
<text text-anchor="start" x="192" y="-57" font-family="Helvetica,sans-Serif" font-size="10.00">idg_document\set_last</text>
<text text-anchor="middle" x="247.5" y="-46" font-family="Helvetica,sans-Serif" font-size="10.00">_change</text>
</a>
</g>
</g>
<!-- Node1&#45;&gt;Node3 -->
<g id="edge2" class="edge">
<title>Node1&#45;&gt;Node3</title>
<path fill="none" stroke="midnightblue" d="M131.23,-54C145.02,-54 159.67,-54 173.73,-54"/>
<polygon fill="midnightblue" stroke="midnightblue" points="173.85,-57.5 183.85,-54 173.85,-50.5 173.85,-57.5"/>
</g>
<!-- Node4 -->
<g id="node4" class="node">
<title>Node4</title>
<g id="a_node4"><a xlink:href="classidg__view.html#ad55847cece039cda45daac1c6c4b3c2c" target="_top" xlink:title="Write some content to a stream.">
<polygon fill="white" stroke="black" points="178,-0.5 178,-19.5 317,-19.5 317,-0.5 178,-0.5"/>
<text text-anchor="middle" x="247.5" y="-7.5" font-family="Helvetica,sans-Serif" font-size="10.00">idg_view\stream_append</text>
</a>
</g>
</g>
<!-- Node1&#45;&gt;Node4 -->
<g id="edge3" class="edge">
<title>Node1&#45;&gt;Node4</title>
<path fill="none" stroke="midnightblue" d="M127.94,-38.98C150.71,-33.41 176.21,-27.18 197.7,-21.93"/>
<polygon fill="midnightblue" stroke="midnightblue" points="198.7,-25.29 207.59,-19.51 197.04,-18.49 198.7,-25.29"/>
</g>
</g>
</svg>
