<?xml version="1.0" encoding="UTF-8" standalone="no"?>
<!DOCTYPE svg PUBLIC "-//W3C//DTD SVG 1.1//EN"
 "http://www.w3.org/Graphics/SVG/1.1/DTD/svg11.dtd">
<!-- Generated by graphviz version 2.43.0 (0)
 -->
<!-- Title: idg_object\get_hook Pages: 1 -->
<svg width="670pt" height="553pt"
 viewBox="0.00 0.00 670.00 553.00" xmlns="http://www.w3.org/2000/svg" xmlns:xlink="http://www.w3.org/1999/xlink">
<g id="graph0" class="graph" transform="scale(1 1) rotate(0) translate(4 549)">
<title>idg_object\get_hook</title>
<polygon fill="white" stroke="transparent" points="-4,4 -4,-549 666,-549 666,4 -4,4"/>
<!-- Node1 -->
<g id="node1" class="node">
<title>Node1</title>
<g id="a_node1"><a xlink:title=" ">
<polygon fill="#bfbfbf" stroke="black" points="547,-246.5 547,-265.5 662,-265.5 662,-246.5 547,-246.5"/>
<text text-anchor="middle" x="604.5" y="-253.5" font-family="Helvetica,sans-Serif" font-size="10.00">idg_object\get_hook</text>
</a>
</g>
</g>
<!-- Node2 -->
<g id="node2" class="node">
<title>Node2</title>
<g id="a_node2"><a xlink:href="classidg__object.html#ac54f91fd013c01d09e085472d6bdb6e8" target="_top" xlink:title=" ">
<polygon fill="white" stroke="black" points="379,-246.5 379,-265.5 511,-265.5 511,-246.5 379,-246.5"/>
<text text-anchor="middle" x="445" y="-253.5" font-family="Helvetica,sans-Serif" font-size="10.00">idg_object\get_property</text>
</a>
</g>
</g>
<!-- Node1&#45;&gt;Node2 -->
<g id="edge1" class="edge">
<title>Node1&#45;&gt;Node2</title>
<path fill="none" stroke="midnightblue" d="M536.48,-256C528.06,-256 519.46,-256 511.07,-256"/>
<polygon fill="midnightblue" stroke="midnightblue" points="536.64,-259.5 546.64,-256 536.64,-252.5 536.64,-259.5"/>
</g>
<!-- Node3 -->
<g id="node3" class="node">
<title>Node3</title>
<g id="a_node3"><a xlink:href="classidg__object.html#ab7575668c8250d7e67c2f94b199d7695" target="_top" xlink:title="Performs consistency checks, dies when an error is encountered.">
<polygon fill="white" stroke="black" points="215.5,-525.5 215.5,-544.5 319.5,-544.5 319.5,-525.5 215.5,-525.5"/>
<text text-anchor="middle" x="267.5" y="-532.5" font-family="Helvetica,sans-Serif" font-size="10.00">idg_object\_check</text>
</a>
</g>
</g>
<!-- Node2&#45;&gt;Node3 -->
<g id="edge2" class="edge">
<title>Node2&#45;&gt;Node3</title>
<path fill="none" stroke="midnightblue" d="M442.35,-275.62C437.2,-324.12 416.99,-450.45 343,-516 336.41,-521.84 328.26,-525.93 319.8,-528.79"/>
<polygon fill="midnightblue" stroke="midnightblue" points="445.85,-275.82 443.32,-265.53 438.88,-275.15 445.85,-275.82"/>
</g>
<!-- Node4 -->
<g id="node4" class="node">
<title>Node4</title>
<g id="a_node4"><a xlink:href="classidg__view__html__container.html#a26eab2df981893738a1e9d859b79ffda" target="_top" xlink:title=" ">
<polygon fill="white" stroke="black" points="198,-476 198,-506 337,-506 337,-476 198,-476"/>
<text text-anchor="start" x="206" y="-494" font-family="Helvetica,sans-Serif" font-size="10.00">idg_view_html_container</text>
<text text-anchor="middle" x="267.5" y="-483" font-family="Helvetica,sans-Serif" font-size="10.00">\_render</text>
</a>
</g>
</g>
<!-- Node2&#45;&gt;Node4 -->
<g id="edge3" class="edge">
<title>Node2&#45;&gt;Node4</title>
<path fill="none" stroke="midnightblue" d="M439.43,-275.47C429.08,-315.55 400.16,-407.97 343,-461 336.46,-467.07 328.53,-471.98 320.32,-475.93"/>
<polygon fill="midnightblue" stroke="midnightblue" points="442.86,-276.17 441.87,-265.63 436.07,-274.49 442.86,-276.17"/>
</g>
<!-- Node5 -->
<g id="node5" class="node">
<title>Node5</title>
<g id="a_node5"><a xlink:href="classidg__view__html__renderer.html#ae38258ae5fd5ed1b8020e44ce7666c0a" target="_top" xlink:title="See class description.">
<polygon fill="white" stroke="black" points="11,-323 11,-353 145,-353 145,-323 11,-323"/>
<text text-anchor="start" x="19" y="-341" font-family="Helvetica,sans-Serif" font-size="10.00">idg_view_html_renderer</text>
<text text-anchor="middle" x="78" y="-330" font-family="Helvetica,sans-Serif" font-size="10.00">\_render</text>
</a>
</g>
</g>
<!-- Node2&#45;&gt;Node5 -->
<g id="edge4" class="edge">
<title>Node2&#45;&gt;Node5</title>
<path fill="none" stroke="midnightblue" d="M439.33,-275.59C429.2,-313.17 401.26,-394.65 343,-428 284.76,-461.34 255.35,-450.15 192,-428 149.38,-413.1 110.83,-374.66 91.7,-353.15"/>
<polygon fill="midnightblue" stroke="midnightblue" points="442.74,-276.38 441.83,-265.83 435.96,-274.65 442.74,-276.38"/>
</g>
<!-- Node6 -->
<g id="node6" class="node">
<title>Node6</title>
<g id="a_node6"><a xlink:href="classidg__view__html__slot.html#ac81c6c0e2e66289d856dbdeb75193ad1" target="_top" xlink:title=" ">
<polygon fill="white" stroke="black" points="212,-388 212,-418 323,-418 323,-388 212,-388"/>
<text text-anchor="start" x="220" y="-406" font-family="Helvetica,sans-Serif" font-size="10.00">idg_view_html_slot</text>
<text text-anchor="middle" x="267.5" y="-395" font-family="Helvetica,sans-Serif" font-size="10.00">\_render</text>
</a>
</g>
</g>
<!-- Node2&#45;&gt;Node6 -->
<g id="edge5" class="edge">
<title>Node2&#45;&gt;Node6</title>
<path fill="none" stroke="midnightblue" d="M433.67,-274.33C417.64,-301.14 384.3,-350.9 343,-379 336.93,-383.13 330.11,-386.58 323.12,-389.46"/>
<polygon fill="midnightblue" stroke="midnightblue" points="436.76,-275.98 438.77,-265.58 430.71,-272.45 436.76,-275.98"/>
</g>
<!-- Node7 -->
<g id="node7" class="node">
<title>Node7</title>
<g id="a_node7"><a xlink:href="classidg__renderer__declaration.html#acd121a1c23b97d5f571a1e20f3de6309" target="_top" xlink:title=" ">
<polygon fill="white" stroke="black" points="198.5,-339 198.5,-369 336.5,-369 336.5,-339 198.5,-339"/>
<text text-anchor="start" x="206.5" y="-357" font-family="Helvetica,sans-Serif" font-size="10.00">idg_renderer_declaration</text>
<text text-anchor="middle" x="267.5" y="-346" font-family="Helvetica,sans-Serif" font-size="10.00">\add_token</text>
</a>
</g>
</g>
<!-- Node2&#45;&gt;Node7 -->
<g id="edge6" class="edge">
<title>Node2&#45;&gt;Node7</title>
<path fill="none" stroke="midnightblue" d="M425.53,-272.39C406.14,-288.87 374.2,-314.07 343,-330 336.46,-333.34 329.37,-336.33 322.25,-338.98"/>
<polygon fill="midnightblue" stroke="midnightblue" points="427.99,-274.89 433.27,-265.7 423.41,-269.59 427.99,-274.89"/>
</g>
<!-- Node8 -->
<g id="node8" class="node">
<title>Node8</title>
<g id="a_node8"><a xlink:href="classidg__datasource__declaration.html#aa0097c6bed6052259b03637f84628be0" target="_top" xlink:title=" ">
<polygon fill="white" stroke="black" points="192,-290 192,-320 343,-320 343,-290 192,-290"/>
<text text-anchor="start" x="200" y="-308" font-family="Helvetica,sans-Serif" font-size="10.00">idg_datasource_declaration</text>
<text text-anchor="middle" x="267.5" y="-297" font-family="Helvetica,sans-Serif" font-size="10.00">\create_instance</text>
</a>
</g>
</g>
<!-- Node2&#45;&gt;Node8 -->
<g id="edge7" class="edge">
<title>Node2&#45;&gt;Node8</title>
<path fill="none" stroke="midnightblue" d="M400.03,-268.28C376.47,-274.85 347.26,-283.01 322.36,-289.96"/>
<polygon fill="midnightblue" stroke="midnightblue" points="401.05,-271.62 409.75,-265.56 399.17,-264.88 401.05,-271.62"/>
</g>
<!-- Node9 -->
<g id="node9" class="node">
<title>Node9</title>
<g id="a_node9"><a xlink:href="classidg__renderer__declaration.html#a57b09006d42f1959d7ac91ca327de3d7" target="_top" xlink:title=" ">
<polygon fill="white" stroke="black" points="198.5,-241 198.5,-271 336.5,-271 336.5,-241 198.5,-241"/>
<text text-anchor="start" x="206.5" y="-259" font-family="Helvetica,sans-Serif" font-size="10.00">idg_renderer_declaration</text>
<text text-anchor="middle" x="267.5" y="-248" font-family="Helvetica,sans-Serif" font-size="10.00">\create_instance</text>
</a>
</g>
</g>
<!-- Node2&#45;&gt;Node9 -->
<g id="edge8" class="edge">
<title>Node2&#45;&gt;Node9</title>
<path fill="none" stroke="midnightblue" d="M368.55,-256C357.91,-256 347.03,-256 336.55,-256"/>
<polygon fill="midnightblue" stroke="midnightblue" points="368.65,-259.5 378.65,-256 368.65,-252.5 368.65,-259.5"/>
</g>
<!-- Node10 -->
<g id="node10" class="node">
<title>Node10</title>
<g id="a_node10"><a xlink:href="classidg__site.html#a3446705c00bb5320e4b629d11aa4d1c3" target="_top" xlink:title=" ">
<polygon fill="white" stroke="black" points="203.5,-202.5 203.5,-221.5 331.5,-221.5 331.5,-202.5 203.5,-202.5"/>
<text text-anchor="middle" x="267.5" y="-209.5" font-family="Helvetica,sans-Serif" font-size="10.00">idg_site\get_document</text>
</a>
</g>
</g>
<!-- Node2&#45;&gt;Node10 -->
<g id="edge9" class="edge">
<title>Node2&#45;&gt;Node10</title>
<path fill="none" stroke="midnightblue" d="M395.89,-243.94C367.74,-236.88 332.71,-228.1 306.51,-221.53"/>
<polygon fill="midnightblue" stroke="midnightblue" points="395.37,-247.42 405.92,-246.45 397.07,-240.63 395.37,-247.42"/>
</g>
<!-- Node11 -->
<g id="node11" class="node">
<title>Node11</title>
<g id="a_node11"><a xlink:href="classidg__object.html#ac41f30824083065ee9430a74f7301116" target="_top" xlink:title=" ">
<polygon fill="white" stroke="black" points="201.5,-164.5 201.5,-183.5 333.5,-183.5 333.5,-164.5 201.5,-164.5"/>
<text text-anchor="middle" x="267.5" y="-171.5" font-family="Helvetica,sans-Serif" font-size="10.00">idg_object\get_instance</text>
</a>
</g>
</g>
<!-- Node2&#45;&gt;Node11 -->
<g id="edge10" class="edge">
<title>Node2&#45;&gt;Node11</title>
<path fill="none" stroke="midnightblue" d="M423.08,-240.26C403.36,-226.08 372.5,-205.6 343,-193 334.28,-189.28 324.67,-186.16 315.33,-183.59"/>
<polygon fill="midnightblue" stroke="midnightblue" points="421.18,-243.2 431.32,-246.27 425.31,-237.55 421.18,-243.2"/>
</g>
<!-- Node13 -->
<g id="node13" class="node">
<title>Node13</title>
<g id="a_node13"><a xlink:href="classidg__document.html#a4554297770548415a0edf16831c41255" target="_top" xlink:title=" ">
<polygon fill="white" stroke="black" points="202,-126.5 202,-145.5 333,-145.5 333,-126.5 202,-126.5"/>
<text text-anchor="middle" x="267.5" y="-133.5" font-family="Helvetica,sans-Serif" font-size="10.00">idg_document\get_path</text>
</a>
</g>
</g>
<!-- Node2&#45;&gt;Node13 -->
<g id="edge13" class="edge">
<title>Node2&#45;&gt;Node13</title>
<path fill="none" stroke="midnightblue" d="M431.07,-238.09C413.65,-215.3 380.48,-176.34 343,-155 336.16,-151.1 328.51,-147.99 320.79,-145.52"/>
<polygon fill="midnightblue" stroke="midnightblue" points="428.36,-240.31 437.14,-246.23 433.97,-236.12 428.36,-240.31"/>
</g>
<!-- Node17 -->
<g id="node17" class="node">
<title>Node17</title>
<g id="a_node17"><a xlink:href="classidg__object.html#ab7d008607f7a1d343deae48977d568de" target="_top" xlink:title=" ">
<polygon fill="white" stroke="black" points="201.5,-77 201.5,-107 333.5,-107 333.5,-77 201.5,-77"/>
<text text-anchor="start" x="209.5" y="-95" font-family="Helvetica,sans-Serif" font-size="10.00">idg_object\get_property</text>
<text text-anchor="middle" x="267.5" y="-84" font-family="Helvetica,sans-Serif" font-size="10.00">_values</text>
</a>
</g>
</g>
<!-- Node2&#45;&gt;Node17 -->
<g id="edge17" class="edge">
<title>Node2&#45;&gt;Node17</title>
<path fill="none" stroke="midnightblue" d="M435.09,-237.04C420.16,-207.25 387.32,-149.52 343,-117 337.72,-113.13 331.8,-109.83 325.67,-107.02"/>
<polygon fill="midnightblue" stroke="midnightblue" points="432.09,-238.87 439.62,-246.32 438.38,-235.8 432.09,-238.87"/>
</g>
<!-- Node18 -->
<g id="node18" class="node">
<title>Node18</title>
<g id="a_node18"><a xlink:href="classidg__view__html.html#ad2ab39b24e4559133a02074eb51ccd8b" target="_top" xlink:title=" ">
<polygon fill="white" stroke="black" points="206.5,-38.5 206.5,-57.5 328.5,-57.5 328.5,-38.5 206.5,-38.5"/>
<text text-anchor="middle" x="267.5" y="-45.5" font-family="Helvetica,sans-Serif" font-size="10.00">idg_view_html\render</text>
</a>
</g>
</g>
<!-- Node2&#45;&gt;Node18 -->
<g id="edge18" class="edge">
<title>Node2&#45;&gt;Node18</title>
<path fill="none" stroke="midnightblue" d="M439.22,-236.41C428.74,-197.79 400.03,-111.71 343,-67 338.06,-63.13 332.43,-60.04 326.52,-57.57"/>
<polygon fill="midnightblue" stroke="midnightblue" points="435.9,-237.57 441.8,-246.37 442.68,-235.82 435.9,-237.57"/>
</g>
<!-- Node19 -->
<g id="node19" class="node">
<title>Node19</title>
<g id="a_node19"><a xlink:href="classidg__view.html#a1ddb1fb570a49b50e820ad45f8e5ee2f" target="_top" xlink:title=" ">
<polygon fill="white" stroke="black" points="198,-0.5 198,-19.5 337,-19.5 337,-0.5 198,-0.5"/>
<text text-anchor="middle" x="267.5" y="-7.5" font-family="Helvetica,sans-Serif" font-size="10.00">idg_view\stream_append</text>
</a>
</g>
</g>
<!-- Node2&#45;&gt;Node19 -->
<g id="edge19" class="edge">
<title>Node2&#45;&gt;Node19</title>
<path fill="none" stroke="midnightblue" d="M441.14,-236.51C433.62,-192.47 409.11,-84.79 343,-29 338.41,-25.13 333.13,-22.03 327.55,-19.55"/>
<polygon fill="midnightblue" stroke="midnightblue" points="437.7,-237.17 442.73,-246.49 444.61,-236.06 437.7,-237.17"/>
</g>
<!-- Node11&#45;&gt;Node5 -->
<g id="edge12" class="edge">
<title>Node11&#45;&gt;Node5</title>
<path fill="none" stroke="midnightblue" d="M201.98,-187.47C198.5,-189.11 195.15,-190.94 192,-193 165.29,-210.47 111.35,-289.14 89.02,-322.73"/>
<polygon fill="midnightblue" stroke="midnightblue" points="203.51,-190.63 211.43,-183.59 200.85,-184.15 203.51,-190.63"/>
</g>
<!-- Node12 -->
<g id="node12" class="node">
<title>Node12</title>
<g id="a_node12"><a xlink:href="classidg__view__html__element.html#a7cae4f263e28692e70e554d47ea3f412" target="_top" xlink:title=" ">
<polygon fill="white" stroke="black" points="11,-184 11,-214 145,-214 145,-184 11,-184"/>
<text text-anchor="start" x="19" y="-202" font-family="Helvetica,sans-Serif" font-size="10.00">idg_view_html_element</text>
<text text-anchor="middle" x="78" y="-191" font-family="Helvetica,sans-Serif" font-size="10.00">\_render</text>
</a>
</g>
</g>
<!-- Node11&#45;&gt;Node12 -->
<g id="edge11" class="edge">
<title>Node11&#45;&gt;Node12</title>
<path fill="none" stroke="midnightblue" d="M191.5,-184C176.19,-186.04 160.19,-188.18 145.21,-190.17"/>
<polygon fill="midnightblue" stroke="midnightblue" points="192,-187.46 201.45,-182.67 191.07,-180.53 192,-187.46"/>
</g>
<!-- Node14 -->
<g id="node14" class="node">
<title>Node14</title>
<g id="a_node14"><a xlink:href="classidg__document.html#a9ff98fd927f8ce36998139615667f573" target="_top" xlink:title=" ">
<polygon fill="white" stroke="black" points="8.5,-145.5 8.5,-164.5 147.5,-164.5 147.5,-145.5 8.5,-145.5"/>
<text text-anchor="middle" x="78" y="-152.5" font-family="Helvetica,sans-Serif" font-size="10.00">idg_document\add_token</text>
</a>
</g>
</g>
<!-- Node13&#45;&gt;Node14 -->
<g id="edge14" class="edge">
<title>Node13&#45;&gt;Node14</title>
<path fill="none" stroke="midnightblue" d="M192,-143.55C177.42,-145.03 162.19,-146.57 147.81,-148.03"/>
<polygon fill="midnightblue" stroke="midnightblue" points="192.38,-147.03 201.97,-142.54 191.67,-140.06 192.38,-147.03"/>
</g>
<!-- Node15 -->
<g id="node15" class="node">
<title>Node15</title>
<g id="a_node15"><a xlink:href="classidg__document.html#a0e01326ce378e5cf31d9c6fb11097b31" target="_top" xlink:title=" ">
<polygon fill="white" stroke="black" points="0,-107.5 0,-126.5 156,-126.5 156,-107.5 0,-107.5"/>
<text text-anchor="middle" x="78" y="-114.5" font-family="Helvetica,sans-Serif" font-size="10.00">idg_document\get_renderers</text>
</a>
</g>
</g>
<!-- Node13&#45;&gt;Node15 -->
<g id="edge15" class="edge">
<title>Node13&#45;&gt;Node15</title>
<path fill="none" stroke="midnightblue" d="M191.82,-128.43C180.12,-127.25 168.01,-126.02 156.26,-124.83"/>
<polygon fill="midnightblue" stroke="midnightblue" points="191.67,-131.94 201.97,-129.46 192.38,-124.97 191.67,-131.94"/>
</g>
<!-- Node16 -->
<g id="node16" class="node">
<title>Node16</title>
<g id="a_node16"><a xlink:href="classidg__document.html#aed4be589596f2e466b8c79d352bd62d9" target="_top" xlink:title=" ">
<polygon fill="white" stroke="black" points="17,-69.5 17,-88.5 139,-88.5 139,-69.5 17,-69.5"/>
<text text-anchor="middle" x="78" y="-76.5" font-family="Helvetica,sans-Serif" font-size="10.00">idg_document\get_url</text>
</a>
</g>
</g>
<!-- Node13&#45;&gt;Node16 -->
<g id="edge16" class="edge">
<title>Node13&#45;&gt;Node16</title>
<path fill="none" stroke="midnightblue" d="M215.19,-123.69C207.34,-121.39 199.39,-118.81 192,-116 175.28,-109.65 172.79,-104.18 156,-98 146.05,-94.34 135.12,-91.16 124.7,-88.5"/>
<polygon fill="midnightblue" stroke="midnightblue" points="214.47,-127.12 225.04,-126.46 216.36,-120.38 214.47,-127.12"/>
</g>
</g>
</svg>
