<?xml version="1.0" encoding="UTF-8" standalone="no"?>
<!DOCTYPE svg PUBLIC "-//W3C//DTD SVG 1.1//EN"
 "http://www.w3.org/Graphics/SVG/1.1/DTD/svg11.dtd">
<!-- Generated by graphviz version 2.43.0 (0)
 -->
<!-- Title: idg_view\stream_append Pages: 1 -->
<svg width="320pt" height="225pt"
 viewBox="0.00 0.00 320.00 225.00" xmlns="http://www.w3.org/2000/svg" xmlns:xlink="http://www.w3.org/1999/xlink">
<g id="graph0" class="graph" transform="scale(1 1) rotate(0) translate(4 221)">
<title>idg_view\stream_append</title>
<polygon fill="white" stroke="transparent" points="-4,4 -4,-221 316,-221 316,4 -4,4"/>
<!-- Node1 -->
<g id="node1" class="node">
<title>Node1</title>
<g id="a_node1"><a xlink:title="Write some content to a stream.">
<polygon fill="#bfbfbf" stroke="black" points="173,-94 173,-113 312,-113 312,-94 173,-94"/>
<text text-anchor="middle" x="242.5" y="-101" font-family="Helvetica,sans-Serif" font-size="10.00">idg_view\stream_append</text>
</a>
</g>
</g>
<!-- Node2 -->
<g id="node2" class="node">
<title>Node2</title>
<g id="a_node2"><a xlink:href="classIndigo_1_1Fragment_1_1image.html#aed8214abc57c39d733268d3710539a54" target="_top" xlink:title=" ">
<polygon fill="white" stroke="black" points="3.5,-186.5 3.5,-216.5 133.5,-216.5 133.5,-186.5 3.5,-186.5"/>
<text text-anchor="start" x="11.5" y="-204.5" font-family="Helvetica,sans-Serif" font-size="10.00">Indigo\Fragment\image</text>
<text text-anchor="middle" x="68.5" y="-193.5" font-family="Helvetica,sans-Serif" font-size="10.00">\_render</text>
</a>
</g>
</g>
<!-- Node1&#45;&gt;Node2 -->
<g id="edge1" class="edge">
<title>Node1&#45;&gt;Node2</title>
<path fill="none" stroke="midnightblue" d="M222.46,-119.43C202.27,-135.72 168.94,-160.92 137,-177.5 130.71,-180.77 123.87,-183.77 117.05,-186.46"/>
<polygon fill="midnightblue" stroke="midnightblue" points="224.74,-122.09 230.27,-113.05 220.31,-116.67 224.74,-122.09"/>
</g>
<!-- Node3 -->
<g id="node3" class="node">
<title>Node3</title>
<g id="a_node3"><a xlink:href="classIndigo_1_1Fragment_1_1text.html#ac17d35c999d5cbbe6b31b19b0713cb3b" target="_top" xlink:title=" ">
<polygon fill="white" stroke="black" points="9,-137.5 9,-167.5 128,-167.5 128,-137.5 9,-137.5"/>
<text text-anchor="start" x="17" y="-155.5" font-family="Helvetica,sans-Serif" font-size="10.00">Indigo\Fragment\text</text>
<text text-anchor="middle" x="68.5" y="-144.5" font-family="Helvetica,sans-Serif" font-size="10.00">\_render</text>
</a>
</g>
</g>
<!-- Node1&#45;&gt;Node3 -->
<g id="edge2" class="edge">
<title>Node1&#45;&gt;Node3</title>
<path fill="none" stroke="midnightblue" d="M198.09,-115.87C175.06,-122.43 146.58,-130.54 122.28,-137.46"/>
<polygon fill="midnightblue" stroke="midnightblue" points="199.27,-119.17 207.93,-113.06 197.35,-112.44 199.27,-119.17"/>
</g>
<!-- Node4 -->
<g id="node4" class="node">
<title>Node4</title>
<g id="a_node4"><a xlink:href="classIndigo_1_1Renderer_1_1textfile.html#a841cd70938e7ad89e468d8a8bdd350d1" target="_top" xlink:title=" ">
<polygon fill="white" stroke="black" points="3,-88.5 3,-118.5 134,-118.5 134,-88.5 3,-88.5"/>
<text text-anchor="start" x="11" y="-106.5" font-family="Helvetica,sans-Serif" font-size="10.00">Indigo\Renderer\textfile</text>
<text text-anchor="middle" x="68.5" y="-95.5" font-family="Helvetica,sans-Serif" font-size="10.00">\_render</text>
</a>
</g>
</g>
<!-- Node1&#45;&gt;Node4 -->
<g id="edge3" class="edge">
<title>Node1&#45;&gt;Node4</title>
<path fill="none" stroke="midnightblue" d="M162.32,-103.5C152.84,-103.5 143.25,-103.5 134.02,-103.5"/>
<polygon fill="midnightblue" stroke="midnightblue" points="162.53,-107 172.53,-103.5 162.53,-100 162.53,-107"/>
</g>
<!-- Node5 -->
<g id="node5" class="node">
<title>Node5</title>
<g id="a_node5"><a xlink:href="classIndigo_1_1View_1_1grid.html#ac50f60c0bb170cfa5f06e44fb65947a0" target="_top" xlink:title=" ">
<polygon fill="white" stroke="black" points="1,-50 1,-69 136,-69 136,-50 1,-50"/>
<text text-anchor="middle" x="68.5" y="-57" font-family="Helvetica,sans-Serif" font-size="10.00">Indigo\View\grid\_render</text>
</a>
</g>
</g>
<!-- Node1&#45;&gt;Node5 -->
<g id="edge4" class="edge">
<title>Node1&#45;&gt;Node5</title>
<path fill="none" stroke="midnightblue" d="M194.35,-91.44C166.76,-84.38 132.43,-75.6 106.75,-69.03"/>
<polygon fill="midnightblue" stroke="midnightblue" points="193.62,-94.87 204.18,-93.95 195.36,-88.08 193.62,-94.87"/>
</g>
<!-- Node6 -->
<g id="node6" class="node">
<title>Node6</title>
<g id="a_node6"><a xlink:href="classIndigo_1_1Module_1_1Sourcefile_1_1renderer.html#ac963388c11f64b6e73c1d2bbb8625a3c" target="_top" xlink:title=" ">
<polygon fill="white" stroke="black" points="0,-0.5 0,-30.5 137,-30.5 137,-0.5 0,-0.5"/>
<text text-anchor="start" x="8" y="-18.5" font-family="Helvetica,sans-Serif" font-size="10.00">Indigo\Module\Sourcefile</text>
<text text-anchor="middle" x="68.5" y="-7.5" font-family="Helvetica,sans-Serif" font-size="10.00">\renderer\_render</text>
</a>
</g>
</g>
<!-- Node1&#45;&gt;Node6 -->
<g id="edge5" class="edge">
<title>Node1&#45;&gt;Node6</title>
<path fill="none" stroke="midnightblue" d="M219.02,-88.25C198.32,-74.62 166.43,-54.67 137,-40.5 129.68,-36.98 121.73,-33.63 113.93,-30.6"/>
<polygon fill="midnightblue" stroke="midnightblue" points="217.17,-91.23 227.44,-93.85 221.05,-85.4 217.17,-91.23"/>
</g>
</g>
</svg>
