<?xml version="1.0" encoding="UTF-8" standalone="no"?>
<!DOCTYPE svg PUBLIC "-//W3C//DTD SVG 1.1//EN"
 "http://www.w3.org/Graphics/SVG/1.1/DTD/svg11.dtd">
<!-- Generated by graphviz version 2.43.0 (0)
 -->
<!-- Title: idg_document\get_path Pages: 1 -->
<svg width="467pt" height="85pt"
 viewBox="0.00 0.00 467.00 85.00" xmlns="http://www.w3.org/2000/svg" xmlns:xlink="http://www.w3.org/1999/xlink">
<g id="graph0" class="graph" transform="scale(1 1) rotate(0) translate(4 81)">
<title>idg_document\get_path</title>
<polygon fill="white" stroke="transparent" points="-4,4 -4,-81 463,-81 463,4 -4,4"/>
<!-- Node1 -->
<g id="node1" class="node">
<title>Node1</title>
<g id="a_node1"><a xlink:title=" ">
<polygon fill="#bfbfbf" stroke="black" points="0,-38.5 0,-57.5 131,-57.5 131,-38.5 0,-38.5"/>
<text text-anchor="middle" x="65.5" y="-45.5" font-family="Helvetica,sans-Serif" font-size="10.00">idg_document\get_path</text>
</a>
</g>
</g>
<!-- Node2 -->
<g id="node2" class="node">
<title>Node2</title>
<g id="a_node2"><a xlink:href="classidg__tree__node.html#a46125cb222ce856fc14b1434620a3eb2" target="_top" xlink:title=" ">
<polygon fill="white" stroke="black" points="167,-57.5 167,-76.5 308,-76.5 308,-57.5 167,-57.5"/>
<text text-anchor="middle" x="237.5" y="-64.5" font-family="Helvetica,sans-Serif" font-size="10.00">idg_tree_node\get_parent</text>
</a>
</g>
</g>
<!-- Node1&#45;&gt;Node2 -->
<g id="edge1" class="edge">
<title>Node1&#45;&gt;Node2</title>
<path fill="none" stroke="midnightblue" d="M131.25,-55.24C139.62,-56.17 148.26,-57.14 156.83,-58.1"/>
<polygon fill="midnightblue" stroke="midnightblue" points="156.5,-61.58 166.83,-59.21 157.28,-54.62 156.5,-61.58"/>
</g>
<!-- Node3 -->
<g id="node3" class="node">
<title>Node3</title>
<g id="a_node3"><a xlink:href="classidg__object.html#ac54f91fd013c01d09e085472d6bdb6e8" target="_top" xlink:title=" ">
<polygon fill="white" stroke="black" points="171.5,-19.5 171.5,-38.5 303.5,-38.5 303.5,-19.5 171.5,-19.5"/>
<text text-anchor="middle" x="237.5" y="-26.5" font-family="Helvetica,sans-Serif" font-size="10.00">idg_object\get_property</text>
</a>
</g>
</g>
<!-- Node1&#45;&gt;Node3 -->
<g id="edge2" class="edge">
<title>Node1&#45;&gt;Node3</title>
<path fill="none" stroke="midnightblue" d="M131.25,-40.76C141.11,-39.66 151.34,-38.52 161.4,-37.39"/>
<polygon fill="midnightblue" stroke="midnightblue" points="161.81,-40.87 171.36,-36.28 161.04,-33.91 161.81,-40.87"/>
</g>
<!-- Node4 -->
<g id="node4" class="node">
<title>Node4</title>
<g id="a_node4"><a xlink:href="classidg__object.html#a583e265c2dbc95871ab08eb9820c3ee8" target="_top" xlink:title="Executes members of this object and global functions.">
<polygon fill="white" stroke="black" points="347.5,-38.5 347.5,-57.5 455.5,-57.5 455.5,-38.5 347.5,-38.5"/>
<text text-anchor="middle" x="401.5" y="-45.5" font-family="Helvetica,sans-Serif" font-size="10.00">idg_object\execute</text>
</a>
</g>
</g>
<!-- Node3&#45;&gt;Node4 -->
<g id="edge3" class="edge">
<title>Node3&#45;&gt;Node4</title>
<path fill="none" stroke="midnightblue" d="M303.92,-36.67C314.84,-37.95 326.14,-39.28 337.01,-40.55"/>
<polygon fill="midnightblue" stroke="midnightblue" points="336.92,-44.07 347.26,-41.76 337.74,-37.11 336.92,-44.07"/>
</g>
<!-- Node5 -->
<g id="node5" class="node">
<title>Node5</title>
<g id="a_node5"><a xlink:href="classidg__object.html#a35093e6cb6bcfc815778ed16cbc11e75" target="_top" xlink:title=" ">
<polygon fill="white" stroke="black" points="344,-0.5 344,-19.5 459,-19.5 459,-0.5 344,-0.5"/>
<text text-anchor="middle" x="401.5" y="-7.5" font-family="Helvetica,sans-Serif" font-size="10.00">idg_object\get_hook</text>
</a>
</g>
</g>
<!-- Node3&#45;&gt;Node5 -->
<g id="edge4" class="edge">
<title>Node3&#45;&gt;Node5</title>
<path fill="none" stroke="midnightblue" d="M303.92,-21.33C313.77,-20.17 323.93,-18.98 333.79,-17.82"/>
<polygon fill="midnightblue" stroke="midnightblue" points="334.42,-21.27 343.95,-16.63 333.61,-14.32 334.42,-21.27"/>
</g>
</g>
</svg>
