<?xml version="1.0" encoding="UTF-8" standalone="no"?>
<!DOCTYPE svg PUBLIC "-//W3C//DTD SVG 1.1//EN"
 "http://www.w3.org/Graphics/SVG/1.1/DTD/svg11.dtd">
<!-- Generated by graphviz version 2.43.0 (0)
 -->
<!-- Title: idg_tree_node_instance\get_idg_id Pages: 1 -->
<svg width="313pt" height="186pt"
 viewBox="0.00 0.00 313.00 186.00" xmlns="http://www.w3.org/2000/svg" xmlns:xlink="http://www.w3.org/1999/xlink">
<g id="graph0" class="graph" transform="scale(1 1) rotate(0) translate(4 182)">
<title>idg_tree_node_instance\get_idg_id</title>
<polygon fill="white" stroke="transparent" points="-4,4 -4,-182 309,-182 309,4 -4,4"/>
<!-- Node1 -->
<g id="node1" class="node">
<title>Node1</title>
<g id="a_node1"><a xlink:title=" ">
<polygon fill="#bfbfbf" stroke="black" points="173,-73.5 173,-103.5 305,-103.5 305,-73.5 173,-73.5"/>
<text text-anchor="start" x="181" y="-91.5" font-family="Helvetica,sans-Serif" font-size="10.00">idg_tree_node_instance</text>
<text text-anchor="middle" x="239" y="-80.5" font-family="Helvetica,sans-Serif" font-size="10.00">\get_idg_id</text>
</a>
</g>
</g>
<!-- Node2 -->
<g id="node2" class="node">
<title>Node2</title>
<g id="a_node2"><a xlink:href="classidg__view__html__item__image.html#ae53e0d18e7400c9b1d01f74bc8a84536" target="_top" xlink:title=" ">
<polygon fill="white" stroke="black" points="10.5,-147.5 10.5,-177.5 126.5,-177.5 126.5,-147.5 10.5,-147.5"/>
<text text-anchor="start" x="18.5" y="-165.5" font-family="Helvetica,sans-Serif" font-size="10.00">idg_view_html_item</text>
<text text-anchor="middle" x="68.5" y="-154.5" font-family="Helvetica,sans-Serif" font-size="10.00">_image\render</text>
</a>
</g>
</g>
<!-- Node1&#45;&gt;Node2 -->
<g id="edge1" class="edge">
<title>Node1&#45;&gt;Node2</title>
<path fill="none" stroke="midnightblue" d="M200.56,-108.35C181.74,-117.99 158.42,-129.43 137,-138.5 129.67,-141.6 121.79,-144.66 114.08,-147.49"/>
<polygon fill="midnightblue" stroke="midnightblue" points="202.41,-111.34 209.69,-103.64 199.2,-105.12 202.41,-111.34"/>
</g>
<!-- Node3 -->
<g id="node3" class="node">
<title>Node3</title>
<g id="a_node3"><a xlink:href="classidg__view__html__item__text.html#a723147371558095783bc6fbd4ff71158" target="_top" xlink:title=" ">
<polygon fill="white" stroke="black" points="10.5,-98.5 10.5,-128.5 126.5,-128.5 126.5,-98.5 10.5,-98.5"/>
<text text-anchor="start" x="18.5" y="-116.5" font-family="Helvetica,sans-Serif" font-size="10.00">idg_view_html_item</text>
<text text-anchor="middle" x="68.5" y="-105.5" font-family="Helvetica,sans-Serif" font-size="10.00">_text\render</text>
</a>
</g>
</g>
<!-- Node1&#45;&gt;Node3 -->
<g id="edge2" class="edge">
<title>Node1&#45;&gt;Node3</title>
<path fill="none" stroke="midnightblue" d="M162.72,-99.67C150.56,-101.47 138.15,-103.31 126.51,-105.04"/>
<polygon fill="midnightblue" stroke="midnightblue" points="163.48,-103.1 172.85,-98.17 162.45,-96.17 163.48,-103.1"/>
</g>
<!-- Node4 -->
<g id="node4" class="node">
<title>Node4</title>
<g id="a_node4"><a xlink:href="classidg__view__html__renderer__phpscript.html#a1b7529fcacaa0e283a2f8e8ecbfb10e6" target="_top" xlink:title=" ">
<polygon fill="white" stroke="black" points="1.5,-49.5 1.5,-79.5 135.5,-79.5 135.5,-49.5 1.5,-49.5"/>
<text text-anchor="start" x="9.5" y="-67.5" font-family="Helvetica,sans-Serif" font-size="10.00">idg_view_html_renderer</text>
<text text-anchor="middle" x="68.5" y="-56.5" font-family="Helvetica,sans-Serif" font-size="10.00">_phpscript\render</text>
</a>
</g>
</g>
<!-- Node1&#45;&gt;Node4 -->
<g id="edge3" class="edge">
<title>Node1&#45;&gt;Node4</title>
<path fill="none" stroke="midnightblue" d="M162.72,-77.78C153.67,-76.49 144.49,-75.18 135.59,-73.91"/>
<polygon fill="midnightblue" stroke="midnightblue" points="162.46,-81.28 172.85,-79.22 163.45,-74.35 162.46,-81.28"/>
</g>
<!-- Node5 -->
<g id="node5" class="node">
<title>Node5</title>
<g id="a_node5"><a xlink:href="classidg__view__html__template__fixedcontent.html#aab13a71ed141068eb4a7c6f8d7c0bc18" target="_top" xlink:title=" ">
<polygon fill="white" stroke="black" points="0,-0.5 0,-30.5 137,-30.5 137,-0.5 0,-0.5"/>
<text text-anchor="start" x="8" y="-18.5" font-family="Helvetica,sans-Serif" font-size="10.00">idg_view_html_template</text>
<text text-anchor="middle" x="68.5" y="-7.5" font-family="Helvetica,sans-Serif" font-size="10.00">_fixedcontent\render</text>
</a>
</g>
</g>
<!-- Node1&#45;&gt;Node5 -->
<g id="edge4" class="edge">
<title>Node1&#45;&gt;Node5</title>
<path fill="none" stroke="midnightblue" d="M198.79,-68.87C180.23,-59.83 157.66,-49.21 137,-40.5 128.94,-37.1 120.24,-33.69 111.86,-30.53"/>
<polygon fill="midnightblue" stroke="midnightblue" points="197.3,-72.04 207.82,-73.29 200.38,-65.75 197.3,-72.04"/>
</g>
</g>
</svg>
