<?xml version="1.0" encoding="UTF-8" standalone="no"?>
<!DOCTYPE svg PUBLIC "-//W3C//DTD SVG 1.1//EN"
 "http://www.w3.org/Graphics/SVG/1.1/DTD/svg11.dtd">
<!-- Generated by graphviz version 2.43.0 (0)
 -->
<!-- Title: idg_tree_node\get_parameters Pages: 1 -->
<svg width="566pt" height="116pt"
 viewBox="0.00 0.00 566.00 115.50" xmlns="http://www.w3.org/2000/svg" xmlns:xlink="http://www.w3.org/1999/xlink">
<g id="graph0" class="graph" transform="scale(1 1) rotate(0) translate(4 111.5)">
<title>idg_tree_node\get_parameters</title>
<polygon fill="white" stroke="transparent" points="-4,4 -4,-111.5 562,-111.5 562,4 -4,4"/>
<!-- Node1 -->
<g id="node1" class="node">
<title>Node1</title>
<g id="a_node1"><a xlink:title=" ">
<polygon fill="#bfbfbf" stroke="black" points="392,-38.5 392,-57.5 558,-57.5 558,-38.5 392,-38.5"/>
<text text-anchor="middle" x="475" y="-45.5" font-family="Helvetica,sans-Serif" font-size="10.00">idg_tree_node\get_parameters</text>
</a>
</g>
</g>
<!-- Node2 -->
<g id="node2" class="node">
<title>Node2</title>
<g id="a_node2"><a xlink:href="classidg__datasource__declaration.html#aa0097c6bed6052259b03637f84628be0" target="_top" xlink:title=" ">
<polygon fill="white" stroke="black" points="198.5,-77 198.5,-107 349.5,-107 349.5,-77 198.5,-77"/>
<text text-anchor="start" x="206.5" y="-95" font-family="Helvetica,sans-Serif" font-size="10.00">idg_datasource_declaration</text>
<text text-anchor="middle" x="274" y="-84" font-family="Helvetica,sans-Serif" font-size="10.00">\create_instance</text>
</a>
</g>
</g>
<!-- Node1&#45;&gt;Node2 -->
<g id="edge1" class="edge">
<title>Node1&#45;&gt;Node2</title>
<path fill="none" stroke="midnightblue" d="M420.89,-59.74C397.02,-65.02 368.56,-71.31 343.14,-76.93"/>
<polygon fill="midnightblue" stroke="midnightblue" points="421.81,-63.12 430.82,-57.55 420.3,-56.29 421.81,-63.12"/>
</g>
<!-- Node3 -->
<g id="node3" class="node">
<title>Node3</title>
<g id="a_node3"><a xlink:href="classidg__document.html#a4afd3976093de18e8f339c3dee48bed4" target="_top" xlink:title=" ">
<polygon fill="white" stroke="black" points="192,-38.5 192,-57.5 356,-57.5 356,-38.5 192,-38.5"/>
<text text-anchor="middle" x="274" y="-45.5" font-family="Helvetica,sans-Serif" font-size="10.00">idg_document\get_datasource</text>
</a>
</g>
</g>
<!-- Node1&#45;&gt;Node3 -->
<g id="edge2" class="edge">
<title>Node1&#45;&gt;Node3</title>
<path fill="none" stroke="midnightblue" d="M381.91,-48C373.35,-48 364.71,-48 356.26,-48"/>
<polygon fill="midnightblue" stroke="midnightblue" points="381.91,-51.5 391.91,-48 381.91,-44.5 381.91,-51.5"/>
</g>
<!-- Node5 -->
<g id="node5" class="node">
<title>Node5</title>
<g id="a_node5"><a xlink:href="classidg__site.html#a453c0ebf27c6a8369b64690bf3afdfbf" target="_top" xlink:title=" ">
<polygon fill="white" stroke="black" points="207.5,-0.5 207.5,-19.5 340.5,-19.5 340.5,-0.5 207.5,-0.5"/>
<text text-anchor="middle" x="274" y="-7.5" font-family="Helvetica,sans-Serif" font-size="10.00">idg_site\get_datasource</text>
</a>
</g>
</g>
<!-- Node1&#45;&gt;Node5 -->
<g id="edge4" class="edge">
<title>Node1&#45;&gt;Node5</title>
<path fill="none" stroke="midnightblue" d="M414.21,-36.58C385.73,-31.14 352.07,-24.72 324.98,-19.54"/>
<polygon fill="midnightblue" stroke="midnightblue" points="413.56,-40.02 424.04,-38.46 414.87,-33.15 413.56,-40.02"/>
</g>
<!-- Node4 -->
<g id="node4" class="node">
<title>Node4</title>
<g id="a_node4"><a xlink:href="classidg__document.html#a0e01326ce378e5cf31d9c6fb11097b31" target="_top" xlink:title=" ">
<polygon fill="white" stroke="black" points="0,-38.5 0,-57.5 156,-57.5 156,-38.5 0,-38.5"/>
<text text-anchor="middle" x="78" y="-45.5" font-family="Helvetica,sans-Serif" font-size="10.00">idg_document\get_renderers</text>
</a>
</g>
</g>
<!-- Node3&#45;&gt;Node4 -->
<g id="edge3" class="edge">
<title>Node3&#45;&gt;Node4</title>
<path fill="none" stroke="midnightblue" d="M181.8,-48C173.21,-48 164.55,-48 156.1,-48"/>
<polygon fill="midnightblue" stroke="midnightblue" points="181.85,-51.5 191.85,-48 181.85,-44.5 181.85,-51.5"/>
</g>
</g>
</svg>
