<?xml version="1.0" encoding="UTF-8" standalone="no"?>
<!DOCTYPE svg PUBLIC "-//W3C//DTD SVG 1.1//EN"
 "http://www.w3.org/Graphics/SVG/1.1/DTD/svg11.dtd">
<!-- Generated by graphviz version 2.43.0 (0)
 -->
<!-- Title: idg_attribute\add_options Pages: 1 -->
<svg width="468pt" height="176pt"
 viewBox="0.00 0.00 468.00 175.50" xmlns="http://www.w3.org/2000/svg" xmlns:xlink="http://www.w3.org/1999/xlink">
<g id="graph0" class="graph" transform="scale(1 1) rotate(0) translate(4 171.5)">
<title>idg_attribute\add_options</title>
<polygon fill="white" stroke="transparent" points="-4,4 -4,-171.5 464,-171.5 464,4 -4,4"/>
<!-- Node1 -->
<g id="node1" class="node">
<title>Node1</title>
<g id="a_node1"><a xlink:title="Causes the attribute to inherit all instances in and above a given tree node.">
<polygon fill="#bfbfbf" stroke="black" points="0,-79 0,-98 141,-98 141,-79 0,-79"/>
<text text-anchor="middle" x="70.5" y="-86" font-family="Helvetica,sans-Serif" font-size="10.00">idg_attribute\add_options</text>
</a>
</g>
</g>
<!-- Node2 -->
<g id="node2" class="node">
<title>Node2</title>
<g id="a_node2"><a xlink:href="diagnostics_8php.html#ab33364bd97c64c5f346adb6581e200b2" target="_top" xlink:title=" ">
<polygon fill="white" stroke="black" points="224,-148 224,-167 262,-167 262,-148 224,-148"/>
<text text-anchor="middle" x="243" y="-155" font-family="Helvetica,sans-Serif" font-size="10.00">diag</text>
</a>
</g>
</g>
<!-- Node1&#45;&gt;Node2 -->
<g id="edge1" class="edge">
<title>Node1&#45;&gt;Node2</title>
<path fill="none" stroke="midnightblue" d="M89.42,-98.06C110.11,-108.85 145.36,-126.47 177,-138.5 188.86,-143.01 202.28,-147.1 213.83,-150.31"/>
<polygon fill="midnightblue" stroke="midnightblue" points="213.25,-153.78 223.81,-153.01 215.07,-147.02 213.25,-153.78"/>
</g>
<!-- Node3 -->
<g id="node3" class="node">
<title>Node3</title>
<g id="a_node3"><a xlink:href="classidg__tree__node__instance.html#aa85824a0771cb5168af4459e598e3061" target="_top" xlink:title=" ">
<polygon fill="white" stroke="black" points="177,-98.5 177,-128.5 309,-128.5 309,-98.5 177,-98.5"/>
<text text-anchor="start" x="185" y="-116.5" font-family="Helvetica,sans-Serif" font-size="10.00">idg_tree_node_instance</text>
<text text-anchor="middle" x="243" y="-105.5" font-family="Helvetica,sans-Serif" font-size="10.00">\get_attribute</text>
</a>
</g>
</g>
<!-- Node1&#45;&gt;Node3 -->
<g id="edge2" class="edge">
<title>Node1&#45;&gt;Node3</title>
<path fill="none" stroke="midnightblue" d="M136.45,-98.02C146.4,-99.48 156.74,-101 166.89,-102.49"/>
<polygon fill="midnightblue" stroke="midnightblue" points="166.55,-105.97 176.95,-103.96 167.57,-99.05 166.55,-105.97"/>
</g>
<!-- Node4 -->
<g id="node4" class="node">
<title>Node4</title>
<g id="a_node4"><a xlink:href="classidg__tree__node__instance.html#a8093f70e1fd97960783ca8429ecf4ff8" target="_top" xlink:title="Returns the immediate parent, or if $class_name is given, the nearest ancestor of that class,...">
<polygon fill="white" stroke="black" points="177,-49.5 177,-79.5 309,-79.5 309,-49.5 177,-49.5"/>
<text text-anchor="start" x="185" y="-67.5" font-family="Helvetica,sans-Serif" font-size="10.00">idg_tree_node_instance</text>
<text text-anchor="middle" x="243" y="-56.5" font-family="Helvetica,sans-Serif" font-size="10.00">\get_parent</text>
</a>
</g>
</g>
<!-- Node1&#45;&gt;Node4 -->
<g id="edge3" class="edge">
<title>Node1&#45;&gt;Node4</title>
<path fill="none" stroke="midnightblue" d="M139.38,-78.95C148.35,-77.68 157.59,-76.38 166.68,-75.1"/>
<polygon fill="midnightblue" stroke="midnightblue" points="167.44,-78.53 176.86,-73.67 166.47,-71.6 167.44,-78.53"/>
</g>
<!-- Node5 -->
<g id="node5" class="node">
<title>Node5</title>
<g id="a_node5"><a xlink:href="classidg__param__instance.html#a7dc5b99b73fd83174adeb2d17218bd37" target="_top" xlink:title=" ">
<polygon fill="white" stroke="black" points="185.5,-0.5 185.5,-30.5 300.5,-30.5 300.5,-0.5 185.5,-0.5"/>
<text text-anchor="start" x="193.5" y="-18.5" font-family="Helvetica,sans-Serif" font-size="10.00">idg_param_instance</text>
<text text-anchor="middle" x="243" y="-7.5" font-family="Helvetica,sans-Serif" font-size="10.00">\set_parameters</text>
</a>
</g>
</g>
<!-- Node1&#45;&gt;Node5 -->
<g id="edge4" class="edge">
<title>Node1&#45;&gt;Node5</title>
<path fill="none" stroke="midnightblue" d="M91.57,-78.94C112.68,-68.98 146.94,-53.11 177,-40.5 181.82,-38.48 186.87,-36.42 191.94,-34.41"/>
<polygon fill="midnightblue" stroke="midnightblue" points="193.6,-37.51 201.63,-30.6 191.04,-31 193.6,-37.51"/>
</g>
<!-- Node6 -->
<g id="node6" class="node">
<title>Node6</title>
<g id="a_node6"><a xlink:href="classidg__param__instance.html#ae71881c1da1d8ba0c45178256da45543" target="_top" xlink:title=" ">
<polygon fill="white" stroke="black" points="345,-0.5 345,-30.5 460,-30.5 460,-0.5 345,-0.5"/>
<text text-anchor="start" x="353" y="-18.5" font-family="Helvetica,sans-Serif" font-size="10.00">idg_param_instance</text>
<text text-anchor="middle" x="402.5" y="-7.5" font-family="Helvetica,sans-Serif" font-size="10.00">\set_parameter</text>
</a>
</g>
</g>
<!-- Node5&#45;&gt;Node6 -->
<g id="edge5" class="edge">
<title>Node5&#45;&gt;Node6</title>
<path fill="none" stroke="midnightblue" d="M300.86,-15.5C311.86,-15.5 323.47,-15.5 334.75,-15.5"/>
<polygon fill="midnightblue" stroke="midnightblue" points="334.99,-19 344.99,-15.5 334.99,-12 334.99,-19"/>
</g>
</g>
</svg>
