<?xml version="1.0" encoding="UTF-8" standalone="no"?>
<!DOCTYPE svg PUBLIC "-//W3C//DTD SVG 1.1//EN"
 "http://www.w3.org/Graphics/SVG/1.1/DTD/svg11.dtd">
<!-- Generated by graphviz version 2.43.0 (0)
 -->
<!-- Title: Indigo\Datasource\rss\__construct Pages: 1 -->
<svg width="340pt" height="176pt"
 viewBox="0.00 0.00 340.00 176.00" xmlns="http://www.w3.org/2000/svg" xmlns:xlink="http://www.w3.org/1999/xlink">
<g id="graph0" class="graph" transform="scale(1 1) rotate(0) translate(4 172)">
<title>Indigo\Datasource\rss\__construct</title>
<polygon fill="white" stroke="transparent" points="-4,4 -4,-172 336,-172 336,4 -4,4"/>
<!-- Node1 -->
<g id="node1" class="node">
<title>Node1</title>
<g id="a_node1"><a xlink:title=" ">
<polygon fill="#bfbfbf" stroke="black" points="0,-71.5 0,-101.5 122,-101.5 122,-71.5 0,-71.5"/>
<text text-anchor="start" x="8" y="-89.5" font-family="Helvetica,sans-Serif" font-size="10.00">Indigo\Datasource\rss</text>
<text text-anchor="middle" x="61" y="-78.5" font-family="Helvetica,sans-Serif" font-size="10.00">\__construct</text>
</a>
</g>
</g>
<!-- Node2 -->
<g id="node2" class="node">
<title>Node2</title>
<g id="a_node2"><a xlink:href="interfaceidg__parameterized.html#a7b69d8e7fb475ede1ffbbc1502bc3c37" target="_top" xlink:title="Gets a parameter optionally providing a default value.">
<polygon fill="white" stroke="black" points="181.5,-137.5 181.5,-167.5 308.5,-167.5 308.5,-137.5 181.5,-137.5"/>
<text text-anchor="start" x="189.5" y="-155.5" font-family="Helvetica,sans-Serif" font-size="10.00">idg_parameterized\get</text>
<text text-anchor="middle" x="245" y="-144.5" font-family="Helvetica,sans-Serif" font-size="10.00">_parameter</text>
</a>
</g>
</g>
<!-- Node1&#45;&gt;Node2 -->
<g id="edge1" class="edge">
<title>Node1&#45;&gt;Node2</title>
<path fill="none" stroke="midnightblue" d="M94.49,-101.53C112.91,-109.76 136.5,-119.81 158,-127.5 164.74,-129.91 171.85,-132.26 178.96,-134.5"/>
<polygon fill="midnightblue" stroke="midnightblue" points="178.04,-137.88 188.63,-137.47 180.1,-131.19 178.04,-137.88"/>
</g>
<!-- Node3 -->
<g id="node3" class="node">
<title>Node3</title>
<g id="a_node3"><a xlink:href="diagnostics_8php.html#adb7dcc2469f04d5090cd68dc99cc5061" target="_top" xlink:title="Prints as much information as possible and then terminates execution calling die().">
<polygon fill="white" stroke="black" points="216,-99 216,-118 274,-118 274,-99 216,-99"/>
<text text-anchor="middle" x="245" y="-106" font-family="Helvetica,sans-Serif" font-size="10.00">idg_diag</text>
</a>
</g>
</g>
<!-- Node1&#45;&gt;Node3 -->
<g id="edge2" class="edge">
<title>Node1&#45;&gt;Node3</title>
<path fill="none" stroke="midnightblue" d="M122.1,-93.76C149.52,-97.08 181.18,-100.91 205.37,-103.83"/>
<polygon fill="midnightblue" stroke="midnightblue" points="205.23,-107.34 215.57,-105.06 206.07,-100.39 205.23,-107.34"/>
</g>
<!-- Node4 -->
<g id="node4" class="node">
<title>Node4</title>
<g id="a_node4"><a xlink:href="classidg__datasource__implementation.html#ad2bcbe4fb41ece3bc4683e4000fd344d" target="_top" xlink:title=" ">
<polygon fill="white" stroke="black" points="158,-49.5 158,-79.5 332,-79.5 332,-49.5 158,-49.5"/>
<text text-anchor="start" x="166" y="-67.5" font-family="Helvetica,sans-Serif" font-size="10.00">idg_datasource_implementation</text>
<text text-anchor="middle" x="245" y="-56.5" font-family="Helvetica,sans-Serif" font-size="10.00">\reverse</text>
</a>
</g>
</g>
<!-- Node1&#45;&gt;Node4 -->
<g id="edge3" class="edge">
<title>Node1&#45;&gt;Node4</title>
<path fill="none" stroke="midnightblue" d="M122.1,-79.24C130.45,-78.23 139.19,-77.17 148,-76.1"/>
<polygon fill="midnightblue" stroke="midnightblue" points="148.44,-79.58 157.95,-74.9 147.6,-72.63 148.44,-79.58"/>
</g>
<!-- Node5 -->
<g id="node5" class="node">
<title>Node5</title>
<g id="a_node5"><a xlink:href="classidg__datasource__implementation.html#a57a5ba37648e58f4b8303152f852ebc9" target="_top" xlink:title=" ">
<polygon fill="white" stroke="black" points="158,-0.5 158,-30.5 332,-30.5 332,-0.5 158,-0.5"/>
<text text-anchor="start" x="166" y="-18.5" font-family="Helvetica,sans-Serif" font-size="10.00">idg_datasource_implementation</text>
<text text-anchor="middle" x="245" y="-7.5" font-family="Helvetica,sans-Serif" font-size="10.00">\truncate</text>
</a>
</g>
</g>
<!-- Node1&#45;&gt;Node5 -->
<g id="edge4" class="edge">
<title>Node1&#45;&gt;Node5</title>
<path fill="none" stroke="midnightblue" d="M90.45,-71.35C109.27,-61.71 134.69,-49.4 158,-40.5 164.25,-38.11 170.82,-35.82 177.44,-33.67"/>
<polygon fill="midnightblue" stroke="midnightblue" points="178.65,-36.95 187.12,-30.6 176.53,-30.28 178.65,-36.95"/>
</g>
</g>
</svg>
