<?xml version="1.0" encoding="UTF-8" standalone="no"?>
<!DOCTYPE svg PUBLIC "-//W3C//DTD SVG 1.1//EN"
 "http://www.w3.org/Graphics/SVG/1.1/DTD/svg11.dtd">
<!-- Generated by graphviz version 2.43.0 (0)
 -->
<!-- Title: idg_datasource_implementation\add_token Pages: 1 -->
<svg width="372pt" height="274pt"
 viewBox="0.00 0.00 372.00 274.00" xmlns="http://www.w3.org/2000/svg" xmlns:xlink="http://www.w3.org/1999/xlink">
<g id="graph0" class="graph" transform="scale(1 1) rotate(0) translate(4 270)">
<title>idg_datasource_implementation\add_token</title>
<polygon fill="white" stroke="transparent" points="-4,4 -4,-270 368,-270 368,4 -4,4"/>
<!-- Node1 -->
<g id="node1" class="node">
<title>Node1</title>
<g id="a_node1"><a xlink:title=" ">
<polygon fill="#bfbfbf" stroke="black" points="190,-112.5 190,-142.5 364,-142.5 364,-112.5 190,-112.5"/>
<text text-anchor="start" x="198" y="-130.5" font-family="Helvetica,sans-Serif" font-size="10.00">idg_datasource_implementation</text>
<text text-anchor="middle" x="277" y="-119.5" font-family="Helvetica,sans-Serif" font-size="10.00">\add_token</text>
</a>
</g>
</g>
<!-- Node2 -->
<g id="node2" class="node">
<title>Node2</title>
<g id="a_node2"><a xlink:href="classIndigo_1_1Module_1_1Sourcefile_1_1datasource.html#ab9169bfa5e5bb1c8d4326dbef4a231c4" target="_top" xlink:title=" ">
<polygon fill="white" stroke="black" points="8.5,-235.5 8.5,-265.5 145.5,-265.5 145.5,-235.5 8.5,-235.5"/>
<text text-anchor="start" x="16.5" y="-253.5" font-family="Helvetica,sans-Serif" font-size="10.00">Indigo\Module\Sourcefile</text>
<text text-anchor="middle" x="77" y="-242.5" font-family="Helvetica,sans-Serif" font-size="10.00">\datasource\__construct</text>
</a>
</g>
</g>
<!-- Node1&#45;&gt;Node2 -->
<g id="edge1" class="edge">
<title>Node1&#45;&gt;Node2</title>
<path fill="none" stroke="midnightblue" d="M253.97,-149.76C230.87,-171.97 192.63,-205.71 154,-226.5 147.79,-229.84 141.03,-232.81 134.2,-235.41"/>
<polygon fill="midnightblue" stroke="midnightblue" points="256.48,-152.19 261.2,-142.7 251.59,-147.18 256.48,-152.19"/>
</g>
<!-- Node3 -->
<g id="node3" class="node">
<title>Node3</title>
<g id="a_node3"><a xlink:href="classIndigo_1_1Datasource_1_1scanlinks.html#a0b175571586483f1ec5c1804fcfa8105" target="_top" xlink:title=" ">
<polygon fill="white" stroke="black" points="0,-186.5 0,-216.5 154,-216.5 154,-186.5 0,-186.5"/>
<text text-anchor="start" x="8" y="-204.5" font-family="Helvetica,sans-Serif" font-size="10.00">Indigo\Datasource\scanlinks</text>
<text text-anchor="middle" x="77" y="-193.5" font-family="Helvetica,sans-Serif" font-size="10.00">\__construct</text>
</a>
</g>
</g>
<!-- Node1&#45;&gt;Node3 -->
<g id="edge2" class="edge">
<title>Node1&#45;&gt;Node3</title>
<path fill="none" stroke="midnightblue" d="M231.83,-146.64C208.81,-156.35 180.08,-168.06 154,-177.5 145.54,-180.56 136.48,-183.62 127.67,-186.47"/>
<polygon fill="midnightblue" stroke="midnightblue" points="233.49,-149.74 241.33,-142.61 230.76,-143.29 233.49,-149.74"/>
</g>
<!-- Node4 -->
<g id="node4" class="node">
<title>Node4</title>
<g id="a_node4"><a xlink:href="classIndigo_1_1Datasource_1_1text.html#aa90e0e4aa4cab28702f3096fae2ff780" target="_top" xlink:title=" ">
<polygon fill="white" stroke="black" points="13,-137.5 13,-167.5 141,-167.5 141,-137.5 13,-137.5"/>
<text text-anchor="start" x="21" y="-155.5" font-family="Helvetica,sans-Serif" font-size="10.00">Indigo\Datasource\text</text>
<text text-anchor="middle" x="77" y="-144.5" font-family="Helvetica,sans-Serif" font-size="10.00">\__construct</text>
</a>
</g>
</g>
<!-- Node1&#45;&gt;Node4 -->
<g id="edge3" class="edge">
<title>Node1&#45;&gt;Node4</title>
<path fill="none" stroke="midnightblue" d="M179.72,-139.66C166.59,-141.31 153.39,-142.98 141.06,-144.54"/>
<polygon fill="midnightblue" stroke="midnightblue" points="180.25,-143.12 189.73,-138.39 179.37,-136.17 180.25,-143.12"/>
</g>
<!-- Node5 -->
<g id="node5" class="node">
<title>Node5</title>
<g id="a_node5"><a xlink:href="classIndigo_1_1Datasource_1_1textfile.html#a650a4e3a582d22822ee99f7de5c6c358" target="_top" xlink:title=" ">
<polygon fill="white" stroke="black" points="5.5,-88.5 5.5,-118.5 148.5,-118.5 148.5,-88.5 5.5,-88.5"/>
<text text-anchor="start" x="13.5" y="-106.5" font-family="Helvetica,sans-Serif" font-size="10.00">Indigo\Datasource\textfile</text>
<text text-anchor="middle" x="77" y="-95.5" font-family="Helvetica,sans-Serif" font-size="10.00">\__construct</text>
</a>
</g>
</g>
<!-- Node1&#45;&gt;Node5 -->
<g id="edge4" class="edge">
<title>Node1&#45;&gt;Node5</title>
<path fill="none" stroke="midnightblue" d="M179.69,-115.83C169.19,-114.55 158.65,-113.28 148.55,-112.05"/>
<polygon fill="midnightblue" stroke="midnightblue" points="179.38,-119.31 189.73,-117.04 180.22,-112.37 179.38,-119.31"/>
</g>
<!-- Node6 -->
<g id="node6" class="node">
<title>Node6</title>
<g id="a_node6"><a xlink:href="classidg__renderer.html#ad7f6a90910cc5fecc3837442cfb5fb3e" target="_top" xlink:title="Produces a token meant for the site&#39;s built&#45;in datasource.">
<polygon fill="white" stroke="black" points="8.5,-50 8.5,-69 145.5,-69 145.5,-50 8.5,-50"/>
<text text-anchor="middle" x="77" y="-57" font-family="Helvetica,sans-Serif" font-size="10.00">idg_renderer\_add_token</text>
</a>
</g>
</g>
<!-- Node1&#45;&gt;Node6 -->
<g id="edge5" class="edge">
<title>Node1&#45;&gt;Node6</title>
<path fill="none" stroke="midnightblue" d="M231.45,-108.51C208.54,-99.13 180.03,-88.01 154,-79.5 142.33,-75.68 129.47,-72.08 117.7,-69.01"/>
<polygon fill="midnightblue" stroke="midnightblue" points="230.32,-111.84 240.9,-112.42 232.99,-105.37 230.32,-111.84"/>
</g>
<!-- Node7 -->
<g id="node7" class="node">
<title>Node7</title>
<g id="a_node7"><a xlink:href="classIndigo_1_1Datasource_1_1rss.html#abe33683ddf83648473d35bf4eb9284c9" target="_top" xlink:title=" ">
<polygon fill="white" stroke="black" points="16,-0.5 16,-30.5 138,-30.5 138,-0.5 16,-0.5"/>
<text text-anchor="start" x="24" y="-18.5" font-family="Helvetica,sans-Serif" font-size="10.00">Indigo\Datasource\rss</text>
<text text-anchor="middle" x="77" y="-7.5" font-family="Helvetica,sans-Serif" font-size="10.00">\_xml_read_end</text>
</a>
</g>
</g>
<!-- Node1&#45;&gt;Node7 -->
<g id="edge6" class="edge">
<title>Node1&#45;&gt;Node7</title>
<path fill="none" stroke="midnightblue" d="M250.7,-105.97C226.99,-86.68 189.92,-58.68 154,-40.5 146.69,-36.8 138.71,-33.48 130.76,-30.55"/>
<polygon fill="midnightblue" stroke="midnightblue" points="248.56,-108.75 258.51,-112.4 253.01,-103.34 248.56,-108.75"/>
</g>
</g>
</svg>
