<?xml version="1.0" encoding="UTF-8" standalone="no"?>
<!DOCTYPE svg PUBLIC "-//W3C//DTD SVG 1.1//EN"
 "http://www.w3.org/Graphics/SVG/1.1/DTD/svg11.dtd">
<!-- Generated by graphviz version 2.43.0 (0)
 -->
<!-- Title: idg_object\get_property Pages: 1 -->
<svg width="519pt" height="527pt"
 viewBox="0.00 0.00 519.00 526.50" xmlns="http://www.w3.org/2000/svg" xmlns:xlink="http://www.w3.org/1999/xlink">
<g id="graph0" class="graph" transform="scale(1 1) rotate(0) translate(4 522.5)">
<title>idg_object\get_property</title>
<polygon fill="white" stroke="transparent" points="-4,4 -4,-522.5 515,-522.5 515,4 -4,4"/>
<!-- Node1 -->
<g id="node1" class="node">
<title>Node1</title>
<g id="a_node1"><a xlink:title=" ">
<polygon fill="#bfbfbf" stroke="black" points="379,-241.5 379,-260.5 511,-260.5 511,-241.5 379,-241.5"/>
<text text-anchor="middle" x="445" y="-248.5" font-family="Helvetica,sans-Serif" font-size="10.00">idg_object\get_property</text>
</a>
</g>
</g>
<!-- Node2 -->
<g id="node2" class="node">
<title>Node2</title>
<g id="a_node2"><a xlink:href="classidg__document.html#a42f2bc2c4324f1e8ff1aecaef5aaa54e" target="_top" xlink:title=" ">
<polygon fill="white" stroke="black" points="193,-488 193,-518 342,-518 342,-488 193,-488"/>
<text text-anchor="start" x="201" y="-506" font-family="Helvetica,sans-Serif" font-size="10.00">idg_document\_get_default</text>
<text text-anchor="middle" x="267.5" y="-495" font-family="Helvetica,sans-Serif" font-size="10.00">_title</text>
</a>
</g>
</g>
<!-- Node1&#45;&gt;Node2 -->
<g id="edge1" class="edge">
<title>Node1&#45;&gt;Node2</title>
<path fill="none" stroke="midnightblue" d="M440.81,-270.89C432.71,-314.9 407.24,-421.19 343,-479 339.16,-482.45 334.82,-485.41 330.21,-487.94"/>
<polygon fill="midnightblue" stroke="midnightblue" points="444.28,-271.34 442.54,-260.89 437.39,-270.14 444.28,-271.34"/>
</g>
<!-- Node3 -->
<g id="node3" class="node">
<title>Node3</title>
<g id="a_node3"><a xlink:href="classidg__view__html__container.html#a26eab2df981893738a1e9d859b79ffda" target="_top" xlink:title=" ">
<polygon fill="white" stroke="black" points="198,-439 198,-469 337,-469 337,-439 198,-439"/>
<text text-anchor="start" x="206" y="-457" font-family="Helvetica,sans-Serif" font-size="10.00">idg_view_html_container</text>
<text text-anchor="middle" x="267.5" y="-446" font-family="Helvetica,sans-Serif" font-size="10.00">\_render</text>
</a>
</g>
</g>
<!-- Node1&#45;&gt;Node3 -->
<g id="edge2" class="edge">
<title>Node1&#45;&gt;Node3</title>
<path fill="none" stroke="midnightblue" d="M437.54,-270.27C424.82,-305.47 393.32,-380.52 343,-424 336.04,-430.02 327.71,-434.92 319.19,-438.9"/>
<polygon fill="midnightblue" stroke="midnightblue" points="440.89,-271.3 440.88,-260.71 434.28,-268.99 440.89,-271.3"/>
</g>
<!-- Node4 -->
<g id="node4" class="node">
<title>Node4</title>
<g id="a_node4"><a xlink:href="classidg__view__html__renderer.html#ae38258ae5fd5ed1b8020e44ce7666c0a" target="_top" xlink:title="See class description.">
<polygon fill="white" stroke="black" points="11,-285 11,-315 145,-315 145,-285 11,-285"/>
<text text-anchor="start" x="19" y="-303" font-family="Helvetica,sans-Serif" font-size="10.00">idg_view_html_renderer</text>
<text text-anchor="middle" x="78" y="-292" font-family="Helvetica,sans-Serif" font-size="10.00">\_render</text>
</a>
</g>
</g>
<!-- Node1&#45;&gt;Node4 -->
<g id="edge3" class="edge">
<title>Node1&#45;&gt;Node4</title>
<path fill="none" stroke="midnightblue" d="M436.98,-270.07C424.04,-302.02 393.1,-365.37 343,-391 283.25,-421.57 255.29,-413.32 192,-391 149.24,-375.92 110.75,-337.06 91.66,-315.31"/>
<polygon fill="midnightblue" stroke="midnightblue" points="440.32,-271.13 440.68,-260.54 433.8,-268.6 440.32,-271.13"/>
</g>
<!-- Node5 -->
<g id="node5" class="node">
<title>Node5</title>
<g id="a_node5"><a xlink:href="classidg__view__html__slot.html#ac81c6c0e2e66289d856dbdeb75193ad1" target="_top" xlink:title=" ">
<polygon fill="white" stroke="black" points="212,-351 212,-381 323,-381 323,-351 212,-351"/>
<text text-anchor="start" x="220" y="-369" font-family="Helvetica,sans-Serif" font-size="10.00">idg_view_html_slot</text>
<text text-anchor="middle" x="267.5" y="-358" font-family="Helvetica,sans-Serif" font-size="10.00">\_render</text>
</a>
</g>
</g>
<!-- Node1&#45;&gt;Node5 -->
<g id="edge4" class="edge">
<title>Node1&#45;&gt;Node5</title>
<path fill="none" stroke="midnightblue" d="M429.11,-268.26C410.76,-288.56 377.69,-322.02 343,-342 336.88,-345.53 330.17,-348.61 323.36,-351.29"/>
<polygon fill="midnightblue" stroke="midnightblue" points="431.81,-270.49 435.83,-260.69 426.58,-265.85 431.81,-270.49"/>
</g>
<!-- Node6 -->
<g id="node6" class="node">
<title>Node6</title>
<g id="a_node6"><a xlink:href="classidg__renderer__declaration.html#acd121a1c23b97d5f571a1e20f3de6309" target="_top" xlink:title=" ">
<polygon fill="white" stroke="black" points="198.5,-302 198.5,-332 336.5,-332 336.5,-302 198.5,-302"/>
<text text-anchor="start" x="206.5" y="-320" font-family="Helvetica,sans-Serif" font-size="10.00">idg_renderer_declaration</text>
<text text-anchor="middle" x="267.5" y="-309" font-family="Helvetica,sans-Serif" font-size="10.00">\add_token</text>
</a>
</g>
</g>
<!-- Node1&#45;&gt;Node6 -->
<g id="edge5" class="edge">
<title>Node1&#45;&gt;Node6</title>
<path fill="none" stroke="midnightblue" d="M412.24,-264.48C392.44,-272.74 366.38,-283.34 343,-292 333.92,-295.36 324.14,-298.79 314.76,-301.97"/>
<polygon fill="midnightblue" stroke="midnightblue" points="413.82,-267.61 421.69,-260.52 411.12,-261.16 413.82,-267.61"/>
</g>
<!-- Node7 -->
<g id="node7" class="node">
<title>Node7</title>
<g id="a_node7"><a xlink:href="classidg__site.html#a3446705c00bb5320e4b629d11aa4d1c3" target="_top" xlink:title=" ">
<polygon fill="white" stroke="black" points="203.5,-263.5 203.5,-282.5 331.5,-282.5 331.5,-263.5 203.5,-263.5"/>
<text text-anchor="middle" x="267.5" y="-270.5" font-family="Helvetica,sans-Serif" font-size="10.00">idg_site\get_document</text>
</a>
</g>
</g>
<!-- Node1&#45;&gt;Node7 -->
<g id="edge6" class="edge">
<title>Node1&#45;&gt;Node7</title>
<path fill="none" stroke="midnightblue" d="M368.43,-260.47C356.14,-262.01 343.52,-263.6 331.57,-265.09"/>
<polygon fill="midnightblue" stroke="midnightblue" points="369.16,-263.91 378.65,-259.19 368.29,-256.96 369.16,-263.91"/>
</g>
<!-- Node8 -->
<g id="node8" class="node">
<title>Node8</title>
<g id="a_node8"><a xlink:href="classidg__datasource__declaration.html#a4b2987dc6f360862f0cab47a351895ea" target="_top" xlink:title=" ">
<polygon fill="white" stroke="black" points="192,-214 192,-244 343,-244 343,-214 192,-214"/>
<text text-anchor="start" x="200" y="-232" font-family="Helvetica,sans-Serif" font-size="10.00">idg_datasource_declaration</text>
<text text-anchor="middle" x="267.5" y="-221" font-family="Helvetica,sans-Serif" font-size="10.00">\get_instance</text>
</a>
</g>
</g>
<!-- Node1&#45;&gt;Node8 -->
<g id="edge7" class="edge">
<title>Node1&#45;&gt;Node8</title>
<path fill="none" stroke="midnightblue" d="M368.47,-241.53C360.05,-240.48 351.48,-239.4 343.07,-238.35"/>
<polygon fill="midnightblue" stroke="midnightblue" points="368.29,-245.04 378.65,-242.81 369.16,-238.09 368.29,-245.04"/>
</g>
<!-- Node9 -->
<g id="node9" class="node">
<title>Node9</title>
<g id="a_node9"><a xlink:href="classidg__renderer__declaration.html#a64d09e81c5f8a7094f52ec0be998d78b" target="_top" xlink:title=" ">
<polygon fill="white" stroke="black" points="198.5,-165 198.5,-195 336.5,-195 336.5,-165 198.5,-165"/>
<text text-anchor="start" x="206.5" y="-183" font-family="Helvetica,sans-Serif" font-size="10.00">idg_renderer_declaration</text>
<text text-anchor="middle" x="267.5" y="-172" font-family="Helvetica,sans-Serif" font-size="10.00">\get_instance</text>
</a>
</g>
</g>
<!-- Node1&#45;&gt;Node9 -->
<g id="edge8" class="edge">
<title>Node1&#45;&gt;Node9</title>
<path fill="none" stroke="midnightblue" d="M415.33,-236.98C395.3,-227.42 367.8,-214.78 343,-205 334.24,-201.55 324.79,-198.14 315.66,-195"/>
<polygon fill="midnightblue" stroke="midnightblue" points="413.99,-240.22 424.52,-241.4 417.02,-233.91 413.99,-240.22"/>
</g>
<!-- Node10 -->
<g id="node10" class="node">
<title>Node10</title>
<g id="a_node10"><a xlink:href="classidg__object.html#ac41f30824083065ee9430a74f7301116" target="_top" xlink:title=" ">
<polygon fill="white" stroke="black" points="201.5,-126.5 201.5,-145.5 333.5,-145.5 333.5,-126.5 201.5,-126.5"/>
<text text-anchor="middle" x="267.5" y="-133.5" font-family="Helvetica,sans-Serif" font-size="10.00">idg_object\get_instance</text>
</a>
</g>
</g>
<!-- Node1&#45;&gt;Node10 -->
<g id="edge9" class="edge">
<title>Node1&#45;&gt;Node10</title>
<path fill="none" stroke="midnightblue" d="M430,-233.31C412.09,-211.86 379.04,-176.09 343,-156 335.28,-151.7 326.59,-148.28 317.94,-145.59"/>
<polygon fill="midnightblue" stroke="midnightblue" points="427.48,-235.75 436.51,-241.28 432.9,-231.32 427.48,-235.75"/>
</g>
<!-- Node12 -->
<g id="node12" class="node">
<title>Node12</title>
<g id="a_node12"><a xlink:href="classidg__document.html#a4554297770548415a0edf16831c41255" target="_top" xlink:title=" ">
<polygon fill="white" stroke="black" points="202,-88.5 202,-107.5 333,-107.5 333,-88.5 202,-88.5"/>
<text text-anchor="middle" x="267.5" y="-95.5" font-family="Helvetica,sans-Serif" font-size="10.00">idg_document\get_path</text>
</a>
</g>
</g>
<!-- Node1&#45;&gt;Node12 -->
<g id="edge12" class="edge">
<title>Node1&#45;&gt;Node12</title>
<path fill="none" stroke="midnightblue" d="M435.18,-232.34C420.37,-203.1 387.69,-146.75 343,-117 337.22,-113.15 330.72,-110.09 324.02,-107.64"/>
<polygon fill="midnightblue" stroke="midnightblue" points="432.11,-234.04 439.66,-241.47 438.4,-230.95 432.11,-234.04"/>
</g>
<!-- Node16 -->
<g id="node16" class="node">
<title>Node16</title>
<g id="a_node16"><a xlink:href="classidg__object.html#ab7d008607f7a1d343deae48977d568de" target="_top" xlink:title=" ">
<polygon fill="white" stroke="black" points="201.5,-39 201.5,-69 333.5,-69 333.5,-39 201.5,-39"/>
<text text-anchor="start" x="209.5" y="-57" font-family="Helvetica,sans-Serif" font-size="10.00">idg_object\get_property</text>
<text text-anchor="middle" x="267.5" y="-46" font-family="Helvetica,sans-Serif" font-size="10.00">_values</text>
</a>
</g>
</g>
<!-- Node1&#45;&gt;Node16 -->
<g id="edge16" class="edge">
<title>Node1&#45;&gt;Node16</title>
<path fill="none" stroke="midnightblue" d="M437.75,-231.55C425.37,-196.08 394.41,-120.73 343,-79 338.23,-75.13 332.84,-71.85 327.19,-69.07"/>
<polygon fill="midnightblue" stroke="midnightblue" points="434.49,-232.83 440.99,-241.19 441.12,-230.6 434.49,-232.83"/>
</g>
<!-- Node17 -->
<g id="node17" class="node">
<title>Node17</title>
<g id="a_node17"><a xlink:href="classidg__view__html.html#ad2ab39b24e4559133a02074eb51ccd8b" target="_top" xlink:title=" ">
<polygon fill="white" stroke="black" points="206.5,-0.5 206.5,-19.5 328.5,-19.5 328.5,-0.5 206.5,-0.5"/>
<text text-anchor="middle" x="267.5" y="-7.5" font-family="Helvetica,sans-Serif" font-size="10.00">idg_view_html\render</text>
</a>
</g>
</g>
<!-- Node1&#45;&gt;Node17 -->
<g id="edge17" class="edge">
<title>Node1&#45;&gt;Node17</title>
<path fill="none" stroke="midnightblue" d="M440.89,-231.33C432.97,-187.88 407.82,-83.24 343,-29 338.39,-25.15 333.1,-22.06 327.52,-19.59"/>
<polygon fill="midnightblue" stroke="midnightblue" points="437.45,-231.95 442.59,-241.22 444.35,-230.77 437.45,-231.95"/>
</g>
<!-- Node10&#45;&gt;Node4 -->
<g id="edge11" class="edge">
<title>Node10&#45;&gt;Node4</title>
<path fill="none" stroke="midnightblue" d="M204.21,-149.35C199.93,-151.28 195.81,-153.48 192,-156 140.56,-189.98 102.19,-255.16 86.62,-284.73"/>
<polygon fill="midnightblue" stroke="midnightblue" points="205.75,-152.51 213.76,-145.56 203.17,-146 205.75,-152.51"/>
</g>
<!-- Node11 -->
<g id="node11" class="node">
<title>Node11</title>
<g id="a_node11"><a xlink:href="classidg__view__html__element.html#a7cae4f263e28692e70e554d47ea3f412" target="_top" xlink:title=" ">
<polygon fill="white" stroke="black" points="11,-146 11,-176 145,-176 145,-146 11,-146"/>
<text text-anchor="start" x="19" y="-164" font-family="Helvetica,sans-Serif" font-size="10.00">idg_view_html_element</text>
<text text-anchor="middle" x="78" y="-153" font-family="Helvetica,sans-Serif" font-size="10.00">\_render</text>
</a>
</g>
</g>
<!-- Node10&#45;&gt;Node11 -->
<g id="edge10" class="edge">
<title>Node10&#45;&gt;Node11</title>
<path fill="none" stroke="midnightblue" d="M191.5,-146C176.19,-148.04 160.19,-150.18 145.21,-152.17"/>
<polygon fill="midnightblue" stroke="midnightblue" points="192,-149.46 201.45,-144.67 191.07,-142.53 192,-149.46"/>
</g>
<!-- Node13 -->
<g id="node13" class="node">
<title>Node13</title>
<g id="a_node13"><a xlink:href="classidg__document.html#a9ff98fd927f8ce36998139615667f573" target="_top" xlink:title=" ">
<polygon fill="white" stroke="black" points="8.5,-107.5 8.5,-126.5 147.5,-126.5 147.5,-107.5 8.5,-107.5"/>
<text text-anchor="middle" x="78" y="-114.5" font-family="Helvetica,sans-Serif" font-size="10.00">idg_document\add_token</text>
</a>
</g>
</g>
<!-- Node12&#45;&gt;Node13 -->
<g id="edge13" class="edge">
<title>Node12&#45;&gt;Node13</title>
<path fill="none" stroke="midnightblue" d="M192,-105.55C177.42,-107.03 162.19,-108.57 147.81,-110.03"/>
<polygon fill="midnightblue" stroke="midnightblue" points="192.38,-109.03 201.97,-104.54 191.67,-102.06 192.38,-109.03"/>
</g>
<!-- Node14 -->
<g id="node14" class="node">
<title>Node14</title>
<g id="a_node14"><a xlink:href="classidg__document.html#a0e01326ce378e5cf31d9c6fb11097b31" target="_top" xlink:title=" ">
<polygon fill="white" stroke="black" points="0,-69.5 0,-88.5 156,-88.5 156,-69.5 0,-69.5"/>
<text text-anchor="middle" x="78" y="-76.5" font-family="Helvetica,sans-Serif" font-size="10.00">idg_document\get_renderers</text>
</a>
</g>
</g>
<!-- Node12&#45;&gt;Node14 -->
<g id="edge14" class="edge">
<title>Node12&#45;&gt;Node14</title>
<path fill="none" stroke="midnightblue" d="M191.82,-90.43C180.12,-89.25 168.01,-88.02 156.26,-86.83"/>
<polygon fill="midnightblue" stroke="midnightblue" points="191.67,-93.94 201.97,-91.46 192.38,-86.97 191.67,-93.94"/>
</g>
<!-- Node15 -->
<g id="node15" class="node">
<title>Node15</title>
<g id="a_node15"><a xlink:href="classidg__document.html#afdb00cf2e04ec161121bebf88229c912" target="_top" xlink:title=" ">
<polygon fill="white" stroke="black" points="17,-31.5 17,-50.5 139,-50.5 139,-31.5 17,-31.5"/>
<text text-anchor="middle" x="78" y="-38.5" font-family="Helvetica,sans-Serif" font-size="10.00">idg_document\get_uri</text>
</a>
</g>
</g>
<!-- Node12&#45;&gt;Node15 -->
<g id="edge15" class="edge">
<title>Node12&#45;&gt;Node15</title>
<path fill="none" stroke="midnightblue" d="M215.19,-85.69C207.34,-83.39 199.39,-80.81 192,-78 175.28,-71.65 172.79,-66.18 156,-60 146.05,-56.34 135.12,-53.16 124.7,-50.5"/>
<polygon fill="midnightblue" stroke="midnightblue" points="214.47,-89.12 225.04,-88.46 216.36,-82.38 214.47,-89.12"/>
</g>
</g>
</svg>
