<?xml version="1.0" encoding="UTF-8" standalone="no"?>
<!DOCTYPE svg PUBLIC "-//W3C//DTD SVG 1.1//EN"
 "http://www.w3.org/Graphics/SVG/1.1/DTD/svg11.dtd">
<!-- Generated by graphviz version 2.43.0 (0)
 -->
<!-- Title: idg_view_html_renderer_type Pages: 1 -->
<svg width="169pt" height="308pt"
 viewBox="0.00 0.00 169.00 308.00" xmlns="http://www.w3.org/2000/svg" xmlns:xlink="http://www.w3.org/1999/xlink">
<g id="graph0" class="graph" transform="scale(1 1) rotate(0) translate(4 304)">
<title>idg_view_html_renderer_type</title>
<polygon fill="white" stroke="transparent" points="-4,4 -4,-304 165,-304 165,4 -4,4"/>
<!-- Node1 -->
<g id="node1" class="node">
<title>Node1</title>
<g id="a_node1"><a xlink:title=" ">
<polygon fill="#bfbfbf" stroke="black" points="0,-0.5 0,-19.5 161,-19.5 161,-0.5 0,-0.5"/>
<text text-anchor="middle" x="80.5" y="-7.5" font-family="Helvetica,sans-Serif" font-size="10.00">idg_view_html_renderer_type</text>
</a>
</g>
</g>
<!-- Node2 -->
<g id="node2" class="node">
<title>Node2</title>
<g id="a_node2"><a xlink:href="classidg__view__html__element__type.html" target="_top" xlink:title=" ">
<polygon fill="white" stroke="black" points="0,-56.5 0,-75.5 161,-75.5 161,-56.5 0,-56.5"/>
<text text-anchor="middle" x="80.5" y="-63.5" font-family="Helvetica,sans-Serif" font-size="10.00">idg_view_html_element_type</text>
</a>
</g>
</g>
<!-- Node2&#45;&gt;Node1 -->
<g id="edge1" class="edge">
<title>Node2&#45;&gt;Node1</title>
<path fill="none" stroke="midnightblue" d="M80.5,-45.8C80.5,-36.91 80.5,-26.78 80.5,-19.75"/>
<polygon fill="midnightblue" stroke="midnightblue" points="77,-46.08 80.5,-56.08 84,-46.08 77,-46.08"/>
</g>
<!-- Node3 -->
<g id="node3" class="node">
<title>Node3</title>
<g id="a_node3"><a xlink:href="classidg__view__html__type.html" target="_top" xlink:title="Parent class of all views.">
<polygon fill="white" stroke="black" points="23,-112.5 23,-131.5 138,-131.5 138,-112.5 23,-112.5"/>
<text text-anchor="middle" x="80.5" y="-119.5" font-family="Helvetica,sans-Serif" font-size="10.00">idg_view_html_type</text>
</a>
</g>
</g>
<!-- Node3&#45;&gt;Node2 -->
<g id="edge2" class="edge">
<title>Node3&#45;&gt;Node2</title>
<path fill="none" stroke="midnightblue" d="M80.5,-101.8C80.5,-92.91 80.5,-82.78 80.5,-75.75"/>
<polygon fill="midnightblue" stroke="midnightblue" points="77,-102.08 80.5,-112.08 84,-102.08 77,-102.08"/>
</g>
<!-- Node4 -->
<g id="node4" class="node">
<title>Node4</title>
<g id="a_node4"><a xlink:href="classidg__view__type.html" target="_top" xlink:title=" ">
<polygon fill="white" stroke="black" points="37,-168.5 37,-187.5 124,-187.5 124,-168.5 37,-168.5"/>
<text text-anchor="middle" x="80.5" y="-175.5" font-family="Helvetica,sans-Serif" font-size="10.00">idg_view_type</text>
</a>
</g>
</g>
<!-- Node4&#45;&gt;Node3 -->
<g id="edge3" class="edge">
<title>Node4&#45;&gt;Node3</title>
<path fill="none" stroke="midnightblue" d="M80.5,-157.8C80.5,-148.91 80.5,-138.78 80.5,-131.75"/>
<polygon fill="midnightblue" stroke="midnightblue" points="77,-158.08 80.5,-168.08 84,-158.08 77,-158.08"/>
</g>
<!-- Node5 -->
<g id="node5" class="node">
<title>Node5</title>
<g id="a_node5"><a xlink:href="classidg__tree__node__type.html" target="_top" xlink:title=" ">
<polygon fill="white" stroke="black" points="24,-224.5 24,-243.5 137,-243.5 137,-224.5 24,-224.5"/>
<text text-anchor="middle" x="80.5" y="-231.5" font-family="Helvetica,sans-Serif" font-size="10.00">idg_tree_node_type</text>
</a>
</g>
</g>
<!-- Node5&#45;&gt;Node4 -->
<g id="edge4" class="edge">
<title>Node5&#45;&gt;Node4</title>
<path fill="none" stroke="midnightblue" d="M80.5,-213.8C80.5,-204.91 80.5,-194.78 80.5,-187.75"/>
<polygon fill="midnightblue" stroke="midnightblue" points="77,-214.08 80.5,-224.08 84,-214.08 77,-214.08"/>
</g>
<!-- Node6 -->
<g id="node6" class="node">
<title>Node6</title>
<g id="a_node6"><a xlink:href="classidg__object__type.html" target="_top" xlink:title=" ">
<polygon fill="white" stroke="black" points="33.5,-280.5 33.5,-299.5 127.5,-299.5 127.5,-280.5 33.5,-280.5"/>
<text text-anchor="middle" x="80.5" y="-287.5" font-family="Helvetica,sans-Serif" font-size="10.00">idg_object_type</text>
</a>
</g>
</g>
<!-- Node6&#45;&gt;Node5 -->
<g id="edge5" class="edge">
<title>Node6&#45;&gt;Node5</title>
<path fill="none" stroke="midnightblue" d="M80.5,-269.8C80.5,-260.91 80.5,-250.78 80.5,-243.75"/>
<polygon fill="midnightblue" stroke="midnightblue" points="77,-270.08 80.5,-280.08 84,-270.08 77,-270.08"/>
</g>
</g>
</svg>
