<?xml version="1.0" encoding="UTF-8" standalone="no"?>
<!DOCTYPE svg PUBLIC "-//W3C//DTD SVG 1.1//EN"
 "http://www.w3.org/Graphics/SVG/1.1/DTD/svg11.dtd">
<!-- Generated by graphviz version 2.43.0 (0)
 -->
<!-- Title: idg_view_html_element\_render Pages: 1 -->
<svg width="629pt" height="85pt"
 viewBox="0.00 0.00 629.00 85.00" xmlns="http://www.w3.org/2000/svg" xmlns:xlink="http://www.w3.org/1999/xlink">
<g id="graph0" class="graph" transform="scale(1 1) rotate(0) translate(4 81)">
<title>idg_view_html_element\_render</title>
<polygon fill="white" stroke="transparent" points="-4,4 -4,-81 625,-81 625,4 -4,4"/>
<!-- Node1 -->
<g id="node1" class="node">
<title>Node1</title>
<g id="a_node1"><a xlink:title=" ">
<polygon fill="#bfbfbf" stroke="black" points="0,-33 0,-63 134,-63 134,-33 0,-33"/>
<text text-anchor="start" x="8" y="-51" font-family="Helvetica,sans-Serif" font-size="10.00">idg_view_html_element</text>
<text text-anchor="middle" x="67" y="-40" font-family="Helvetica,sans-Serif" font-size="10.00">\_render</text>
</a>
</g>
</g>
<!-- Node2 -->
<g id="node2" class="node">
<title>Node2</title>
<g id="a_node2"><a xlink:href="classidg__object.html#ac41f30824083065ee9430a74f7301116" target="_top" xlink:title=" ">
<polygon fill="white" stroke="black" points="170,-38.5 170,-57.5 302,-57.5 302,-38.5 170,-38.5"/>
<text text-anchor="middle" x="236" y="-45.5" font-family="Helvetica,sans-Serif" font-size="10.00">idg_object\get_instance</text>
</a>
</g>
</g>
<!-- Node1&#45;&gt;Node2 -->
<g id="edge1" class="edge">
<title>Node1&#45;&gt;Node2</title>
<path fill="none" stroke="midnightblue" d="M134,-48C142.46,-48 151.16,-48 159.75,-48"/>
<polygon fill="midnightblue" stroke="midnightblue" points="159.75,-51.5 169.75,-48 159.75,-44.5 159.75,-51.5"/>
</g>
<!-- Node3 -->
<g id="node3" class="node">
<title>Node3</title>
<g id="a_node3"><a xlink:href="diagnostics_8php.html#ab33364bd97c64c5f346adb6581e200b2" target="_top" xlink:title=" ">
<polygon fill="white" stroke="black" points="385,-57.5 385,-76.5 423,-76.5 423,-57.5 385,-57.5"/>
<text text-anchor="middle" x="404" y="-64.5" font-family="Helvetica,sans-Serif" font-size="10.00">diag</text>
</a>
</g>
</g>
<!-- Node2&#45;&gt;Node3 -->
<g id="edge2" class="edge">
<title>Node2&#45;&gt;Node3</title>
<path fill="none" stroke="midnightblue" d="M302.13,-55.45C327.39,-58.35 354.96,-61.5 374.88,-63.78"/>
<polygon fill="midnightblue" stroke="midnightblue" points="374.49,-67.26 384.82,-64.92 375.29,-60.31 374.49,-67.26"/>
</g>
<!-- Node4 -->
<g id="node4" class="node">
<title>Node4</title>
<g id="a_node4"><a xlink:href="classidg__object.html#ac54f91fd013c01d09e085472d6bdb6e8" target="_top" xlink:title=" ">
<polygon fill="white" stroke="black" points="338,-19.5 338,-38.5 470,-38.5 470,-19.5 338,-19.5"/>
<text text-anchor="middle" x="404" y="-26.5" font-family="Helvetica,sans-Serif" font-size="10.00">idg_object\get_property</text>
</a>
</g>
</g>
<!-- Node2&#45;&gt;Node4 -->
<g id="edge3" class="edge">
<title>Node2&#45;&gt;Node4</title>
<path fill="none" stroke="midnightblue" d="M302.13,-40.55C310.55,-39.58 319.23,-38.59 327.8,-37.61"/>
<polygon fill="midnightblue" stroke="midnightblue" points="328.25,-41.08 337.78,-36.46 327.45,-34.12 328.25,-41.08"/>
</g>
<!-- Node5 -->
<g id="node5" class="node">
<title>Node5</title>
<g id="a_node5"><a xlink:href="classidg__object.html#a583e265c2dbc95871ab08eb9820c3ee8" target="_top" xlink:title="Executes members of this object and global functions.">
<polygon fill="white" stroke="black" points="509.5,-38.5 509.5,-57.5 617.5,-57.5 617.5,-38.5 509.5,-38.5"/>
<text text-anchor="middle" x="563.5" y="-45.5" font-family="Helvetica,sans-Serif" font-size="10.00">idg_object\execute</text>
</a>
</g>
</g>
<!-- Node4&#45;&gt;Node5 -->
<g id="edge4" class="edge">
<title>Node4&#45;&gt;Node5</title>
<path fill="none" stroke="midnightblue" d="M470.43,-36.89C479.98,-38.05 489.81,-39.23 499.32,-40.38"/>
<polygon fill="midnightblue" stroke="midnightblue" points="499.15,-43.88 509.49,-41.61 499.99,-36.93 499.15,-43.88"/>
</g>
<!-- Node6 -->
<g id="node6" class="node">
<title>Node6</title>
<g id="a_node6"><a xlink:href="classidg__object.html#a35093e6cb6bcfc815778ed16cbc11e75" target="_top" xlink:title=" ">
<polygon fill="white" stroke="black" points="506,-0.5 506,-19.5 621,-19.5 621,-0.5 506,-0.5"/>
<text text-anchor="middle" x="563.5" y="-7.5" font-family="Helvetica,sans-Serif" font-size="10.00">idg_object\get_hook</text>
</a>
</g>
</g>
<!-- Node4&#45;&gt;Node6 -->
<g id="edge5" class="edge">
<title>Node4&#45;&gt;Node6</title>
<path fill="none" stroke="midnightblue" d="M470.43,-21.11C478.72,-20.11 487.21,-19.08 495.53,-18.08"/>
<polygon fill="midnightblue" stroke="midnightblue" points="496.05,-21.54 505.56,-16.87 495.21,-14.59 496.05,-21.54"/>
</g>
</g>
</svg>
