<?xml version="1.0" encoding="UTF-8" standalone="no"?>
<!DOCTYPE svg PUBLIC "-//W3C//DTD SVG 1.1//EN"
 "http://www.w3.org/Graphics/SVG/1.1/DTD/svg11.dtd">
<!-- Generated by graphviz version 2.43.0 (0)
 -->
<!-- Title: idg_view_implementation Pages: 1 -->
<svg width="363pt" height="140pt"
 viewBox="0.00 0.00 362.50 140.00" xmlns="http://www.w3.org/2000/svg" xmlns:xlink="http://www.w3.org/1999/xlink">
<g id="graph0" class="graph" transform="scale(1 1) rotate(0) translate(4 136)">
<title>idg_view_implementation</title>
<polygon fill="white" stroke="transparent" points="-4,4 -4,-136 358.5,-136 358.5,4 -4,4"/>
<!-- Node1 -->
<g id="node1" class="node">
<title>Node1</title>
<g id="a_node1"><a xlink:title="An object instance of a view.">
<polygon fill="#bfbfbf" stroke="black" points="98,-56.5 98,-75.5 241,-75.5 241,-56.5 98,-56.5"/>
<text text-anchor="middle" x="169.5" y="-63.5" font-family="Helvetica,sans-Serif" font-size="10.00">idg_view_implementation</text>
</a>
</g>
</g>
<!-- Node3 -->
<g id="node3" class="node">
<title>Node3</title>
<g id="a_node3"><a xlink:href="classIndigo_1_1View_1_1grid.html" target="_top" xlink:title="A view using grid.">
<polygon fill="white" stroke="black" points="0,-0.5 0,-19.5 95,-19.5 95,-0.5 0,-0.5"/>
<text text-anchor="middle" x="47.5" y="-7.5" font-family="Helvetica,sans-Serif" font-size="10.00">Indigo\View\grid</text>
</a>
</g>
</g>
<!-- Node1&#45;&gt;Node3 -->
<g id="edge2" class="edge">
<title>Node1&#45;&gt;Node3</title>
<path fill="none" stroke="midnightblue" d="M140.96,-52.37C118.11,-42.26 86.69,-28.35 66.74,-19.52"/>
<polygon fill="midnightblue" stroke="midnightblue" points="139.61,-55.6 150.17,-56.44 142.44,-49.2 139.61,-55.6"/>
</g>
<!-- Node4 -->
<g id="node4" class="node">
<title>Node4</title>
<g id="a_node4"><a xlink:href="classIndigo_1_1View_1_1sidebar.html" target="_top" xlink:title="A fixed div to the left or right.">
<polygon fill="white" stroke="black" points="113,-0.5 113,-19.5 226,-19.5 226,-0.5 113,-0.5"/>
<text text-anchor="middle" x="169.5" y="-7.5" font-family="Helvetica,sans-Serif" font-size="10.00">Indigo\View\sidebar</text>
</a>
</g>
</g>
<!-- Node1&#45;&gt;Node4 -->
<g id="edge3" class="edge">
<title>Node1&#45;&gt;Node4</title>
<path fill="none" stroke="midnightblue" d="M169.5,-45.8C169.5,-36.91 169.5,-26.78 169.5,-19.75"/>
<polygon fill="midnightblue" stroke="midnightblue" points="166,-46.08 169.5,-56.08 173,-46.08 166,-46.08"/>
</g>
<!-- Node5 -->
<g id="node5" class="node">
<title>Node5</title>
<g id="a_node5"><a xlink:href="classIndigo_1_1View_1_1simple.html" target="_top" xlink:title="A simple one with the scroll bar always visible.">
<polygon fill="white" stroke="black" points="244.5,-0.5 244.5,-19.5 354.5,-19.5 354.5,-0.5 244.5,-0.5"/>
<text text-anchor="middle" x="299.5" y="-7.5" font-family="Helvetica,sans-Serif" font-size="10.00">Indigo\View\simple</text>
</a>
</g>
</g>
<!-- Node1&#45;&gt;Node5 -->
<g id="edge4" class="edge">
<title>Node1&#45;&gt;Node5</title>
<path fill="none" stroke="midnightblue" d="M199.59,-52.5C223.96,-42.38 257.64,-28.39 279,-19.52"/>
<polygon fill="midnightblue" stroke="midnightblue" points="197.99,-49.38 190.1,-56.44 200.68,-55.84 197.99,-49.38"/>
</g>
<!-- Node2 -->
<g id="node2" class="node">
<title>Node2</title>
<g id="a_node2"><a xlink:href="classidg__object__implementation.html" target="_top" xlink:title="Base class for ancillary objects that have no associated type information.">
<polygon fill="white" stroke="black" points="94.5,-112.5 94.5,-131.5 244.5,-131.5 244.5,-112.5 94.5,-112.5"/>
<text text-anchor="middle" x="169.5" y="-119.5" font-family="Helvetica,sans-Serif" font-size="10.00">idg_object_implementation</text>
</a>
</g>
</g>
<!-- Node2&#45;&gt;Node1 -->
<g id="edge1" class="edge">
<title>Node2&#45;&gt;Node1</title>
<path fill="none" stroke="midnightblue" d="M169.5,-101.8C169.5,-92.91 169.5,-82.78 169.5,-75.75"/>
<polygon fill="midnightblue" stroke="midnightblue" points="166,-102.08 169.5,-112.08 173,-102.08 166,-102.08"/>
</g>
</g>
</svg>
