<?xml version="1.0" encoding="UTF-8" standalone="no"?>
<!DOCTYPE svg PUBLIC "-//W3C//DTD SVG 1.1//EN"
 "http://www.w3.org/Graphics/SVG/1.1/DTD/svg11.dtd">
<!-- Generated by graphviz version 2.43.0 (0)
 -->
<!-- Title: Indigo\Datasource\scanlinks\__construct Pages: 1 -->
<svg width="372pt" height="127pt"
 viewBox="0.00 0.00 372.00 126.50" xmlns="http://www.w3.org/2000/svg" xmlns:xlink="http://www.w3.org/1999/xlink">
<g id="graph0" class="graph" transform="scale(1 1) rotate(0) translate(4 122.5)">
<title>Indigo\Datasource\scanlinks\__construct</title>
<polygon fill="white" stroke="transparent" points="-4,4 -4,-122.5 368,-122.5 368,4 -4,4"/>
<!-- Node1 -->
<g id="node1" class="node">
<title>Node1</title>
<g id="a_node1"><a xlink:title=" ">
<polygon fill="#bfbfbf" stroke="black" points="0,-39 0,-69 154,-69 154,-39 0,-39"/>
<text text-anchor="start" x="8" y="-57" font-family="Helvetica,sans-Serif" font-size="10.00">Indigo\Datasource\scanlinks</text>
<text text-anchor="middle" x="77" y="-46" font-family="Helvetica,sans-Serif" font-size="10.00">\__construct</text>
</a>
</g>
</g>
<!-- Node2 -->
<g id="node2" class="node">
<title>Node2</title>
<g id="a_node2"><a xlink:href="classidg__datasource__implementation.html#a1357a683acf9ea8f9d3a966943c28db0" target="_top" xlink:title=" ">
<polygon fill="white" stroke="black" points="190,-88 190,-118 364,-118 364,-88 190,-88"/>
<text text-anchor="start" x="198" y="-106" font-family="Helvetica,sans-Serif" font-size="10.00">idg_datasource_implementation</text>
<text text-anchor="middle" x="277" y="-95" font-family="Helvetica,sans-Serif" font-size="10.00">\add_token</text>
</a>
</g>
</g>
<!-- Node1&#45;&gt;Node2 -->
<g id="edge1" class="edge">
<title>Node1&#45;&gt;Node2</title>
<path fill="none" stroke="midnightblue" d="M138.75,-69.03C159.85,-74.26 183.68,-80.15 205.5,-85.55"/>
<polygon fill="midnightblue" stroke="midnightblue" points="204.81,-88.99 215.36,-87.99 206.5,-82.19 204.81,-88.99"/>
</g>
<!-- Node3 -->
<g id="node3" class="node">
<title>Node3</title>
<g id="a_node3"><a xlink:href="interfaceidg__parameterized.html#a7b69d8e7fb475ede1ffbbc1502bc3c37" target="_top" xlink:title="Gets a parameter optionally providing a default value.">
<polygon fill="white" stroke="black" points="213.5,-39 213.5,-69 340.5,-69 340.5,-39 213.5,-39"/>
<text text-anchor="start" x="221.5" y="-57" font-family="Helvetica,sans-Serif" font-size="10.00">idg_parameterized\get</text>
<text text-anchor="middle" x="277" y="-46" font-family="Helvetica,sans-Serif" font-size="10.00">_parameter</text>
</a>
</g>
</g>
<!-- Node1&#45;&gt;Node3 -->
<g id="edge2" class="edge">
<title>Node1&#45;&gt;Node3</title>
<path fill="none" stroke="midnightblue" d="M154.27,-54C170.27,-54 187.1,-54 202.97,-54"/>
<polygon fill="midnightblue" stroke="midnightblue" points="203.25,-57.5 213.25,-54 203.25,-50.5 203.25,-57.5"/>
</g>
<!-- Node4 -->
<g id="node4" class="node">
<title>Node4</title>
<g id="a_node4"><a xlink:href="diagnostics_8php.html#adb7dcc2469f04d5090cd68dc99cc5061" target="_top" xlink:title="Prints as much information as possible and then terminates execution calling die().">
<polygon fill="white" stroke="black" points="248,-0.5 248,-19.5 306,-19.5 306,-0.5 248,-0.5"/>
<text text-anchor="middle" x="277" y="-7.5" font-family="Helvetica,sans-Serif" font-size="10.00">idg_diag</text>
</a>
</g>
</g>
<!-- Node1&#45;&gt;Node4 -->
<g id="edge3" class="edge">
<title>Node1&#45;&gt;Node4</title>
<path fill="none" stroke="midnightblue" d="M145.59,-38.98C176.44,-32.12 211.84,-24.26 237.97,-18.45"/>
<polygon fill="midnightblue" stroke="midnightblue" points="238.85,-21.84 247.85,-16.26 237.33,-15.01 238.85,-21.84"/>
</g>
</g>
</svg>
