<?xml version="1.0" encoding="UTF-8" standalone="no"?>
<!DOCTYPE svg PUBLIC "-//W3C//DTD SVG 1.1//EN"
 "http://www.w3.org/Graphics/SVG/1.1/DTD/svg11.dtd">
<!-- Generated by graphviz version 2.43.0 (0)
 -->
<!-- Title: idg_view_html_template_fixedbar\render Pages: 1 -->
<svg width="313pt" height="176pt"
 viewBox="0.00 0.00 313.00 175.50" xmlns="http://www.w3.org/2000/svg" xmlns:xlink="http://www.w3.org/1999/xlink">
<g id="graph0" class="graph" transform="scale(1 1) rotate(0) translate(4 171.5)">
<title>idg_view_html_template_fixedbar\render</title>
<polygon fill="white" stroke="transparent" points="-4,4 -4,-171.5 309,-171.5 309,4 -4,4"/>
<!-- Node1 -->
<g id="node1" class="node">
<title>Node1</title>
<g id="a_node1"><a xlink:title=" ">
<polygon fill="#bfbfbf" stroke="black" points="0,-73.5 0,-103.5 137,-103.5 137,-73.5 0,-73.5"/>
<text text-anchor="start" x="8" y="-91.5" font-family="Helvetica,sans-Serif" font-size="10.00">idg_view_html_template</text>
<text text-anchor="middle" x="68.5" y="-80.5" font-family="Helvetica,sans-Serif" font-size="10.00">_fixedbar\render</text>
</a>
</g>
</g>
<!-- Node2 -->
<g id="node2" class="node">
<title>Node2</title>
<g id="a_node2"><a xlink:href="diagnostics_8php.html#ab33364bd97c64c5f346adb6581e200b2" target="_top" xlink:title=" ">
<polygon fill="white" stroke="black" points="220,-148 220,-167 258,-167 258,-148 220,-148"/>
<text text-anchor="middle" x="239" y="-155" font-family="Helvetica,sans-Serif" font-size="10.00">diag</text>
</a>
</g>
</g>
<!-- Node1&#45;&gt;Node2 -->
<g id="edge1" class="edge">
<title>Node1&#45;&gt;Node2</title>
<path fill="none" stroke="midnightblue" d="M97.49,-103.59C118.01,-114.26 146.74,-128.4 173,-138.5 184.85,-143.06 198.26,-147.15 209.81,-150.36"/>
<polygon fill="midnightblue" stroke="midnightblue" points="209.23,-153.83 219.8,-153.05 211.05,-147.07 209.23,-153.83"/>
</g>
<!-- Node3 -->
<g id="node3" class="node">
<title>Node3</title>
<g id="a_node3"><a xlink:href="classidg__tree__node__instance.html#a89215ec2899bef35cd55e054d73d6638" target="_top" xlink:title="Returns child by number or null, i.e.">
<polygon fill="white" stroke="black" points="173,-98.5 173,-128.5 305,-128.5 305,-98.5 173,-98.5"/>
<text text-anchor="start" x="181" y="-116.5" font-family="Helvetica,sans-Serif" font-size="10.00">idg_tree_node_instance</text>
<text text-anchor="middle" x="239" y="-105.5" font-family="Helvetica,sans-Serif" font-size="10.00">\get_child</text>
</a>
</g>
</g>
<!-- Node1&#45;&gt;Node3 -->
<g id="edge2" class="edge">
<title>Node1&#45;&gt;Node3</title>
<path fill="none" stroke="midnightblue" d="M137.06,-98.52C145.55,-99.78 154.28,-101.08 162.87,-102.35"/>
<polygon fill="midnightblue" stroke="midnightblue" points="162.48,-105.83 172.89,-103.84 163.51,-98.91 162.48,-105.83"/>
</g>
<!-- Node4 -->
<g id="node4" class="node">
<title>Node4</title>
<g id="a_node4"><a xlink:href="classidg__tree__node__instance.html#aee07c5c32de34d534aee8a10e12548b7" target="_top" xlink:title=" ">
<polygon fill="white" stroke="black" points="173,-49.5 173,-79.5 305,-79.5 305,-49.5 173,-49.5"/>
<text text-anchor="start" x="181" y="-67.5" font-family="Helvetica,sans-Serif" font-size="10.00">idg_tree_node_instance</text>
<text text-anchor="middle" x="239" y="-56.5" font-family="Helvetica,sans-Serif" font-size="10.00">\get_child_count</text>
</a>
</g>
</g>
<!-- Node1&#45;&gt;Node4 -->
<g id="edge3" class="edge">
<title>Node1&#45;&gt;Node4</title>
<path fill="none" stroke="midnightblue" d="M137.06,-78.88C145.55,-77.67 154.28,-76.42 162.87,-75.2"/>
<polygon fill="midnightblue" stroke="midnightblue" points="163.48,-78.65 172.89,-73.77 162.49,-71.72 163.48,-78.65"/>
</g>
<!-- Node5 -->
<g id="node5" class="node">
<title>Node5</title>
<g id="a_node5"><a xlink:href="classidg__tree__node__instance.html#abf5f963e67716b4447d1062ddc5e9dc2" target="_top" xlink:title=" ">
<polygon fill="white" stroke="black" points="173,-0.5 173,-30.5 305,-30.5 305,-0.5 173,-0.5"/>
<text text-anchor="start" x="181" y="-18.5" font-family="Helvetica,sans-Serif" font-size="10.00">idg_tree_node_instance</text>
<text text-anchor="middle" x="239" y="-7.5" font-family="Helvetica,sans-Serif" font-size="10.00">\get_property</text>
</a>
</g>
</g>
<!-- Node1&#45;&gt;Node5 -->
<g id="edge4" class="edge">
<title>Node1&#45;&gt;Node5</title>
<path fill="none" stroke="midnightblue" d="M100.51,-73.46C120.94,-63.71 148.38,-50.93 173,-40.5 177.82,-38.46 182.86,-36.39 187.92,-34.37"/>
<polygon fill="midnightblue" stroke="midnightblue" points="189.59,-37.48 197.61,-30.55 187.02,-30.96 189.59,-37.48"/>
</g>
</g>
</svg>
