<?xml version="1.0" encoding="UTF-8" standalone="no"?>
<!DOCTYPE svg PUBLIC "-//W3C//DTD SVG 1.1//EN"
 "http://www.w3.org/Graphics/SVG/1.1/DTD/svg11.dtd">
<!-- Generated by graphviz version 2.43.0 (0)
 -->
<!-- Title: idg_object\execute Pages: 1 -->
<svg width="663pt" height="526pt"
 viewBox="0.00 0.00 663.00 526.00" xmlns="http://www.w3.org/2000/svg" xmlns:xlink="http://www.w3.org/1999/xlink">
<g id="graph0" class="graph" transform="scale(1 1) rotate(0) translate(4 522)">
<title>idg_object\execute</title>
<polygon fill="white" stroke="transparent" points="-4,4 -4,-522 659,-522 659,4 -4,4"/>
<!-- Node1 -->
<g id="node1" class="node">
<title>Node1</title>
<g id="a_node1"><a xlink:title="Helper: executes members of this object and global functions.">
<polygon fill="#bfbfbf" stroke="black" points="547,-113 547,-132 655,-132 655,-113 547,-113"/>
<text text-anchor="middle" x="601" y="-120" font-family="Helvetica,sans-Serif" font-size="10.00">idg_object\execute</text>
</a>
</g>
</g>
<!-- Node2 -->
<g id="node2" class="node">
<title>Node2</title>
<g id="a_node2"><a xlink:href="classidg__object.html#ac54f91fd013c01d09e085472d6bdb6e8" target="_top" xlink:title=" ">
<polygon fill="white" stroke="black" points="379,-219 379,-238 511,-238 511,-219 379,-219"/>
<text text-anchor="middle" x="445" y="-226" font-family="Helvetica,sans-Serif" font-size="10.00">idg_object\get_property</text>
</a>
</g>
</g>
<!-- Node1&#45;&gt;Node2 -->
<g id="edge1" class="edge">
<title>Node1&#45;&gt;Node2</title>
<path fill="none" stroke="midnightblue" d="M577.75,-137.82C545.62,-159.93 487.14,-200.18 460.24,-218.7"/>
<polygon fill="midnightblue" stroke="midnightblue" points="579.81,-140.65 586.06,-132.09 575.84,-134.88 579.81,-140.65"/>
</g>
<!-- Node17 -->
<g id="node17" class="node">
<title>Node17</title>
<g id="a_node17"><a xlink:href="classidg__object.html#ab7d008607f7a1d343deae48977d568de" target="_top" xlink:title=" ">
<polygon fill="white" stroke="black" points="201.5,-0.5 201.5,-30.5 333.5,-30.5 333.5,-0.5 201.5,-0.5"/>
<text text-anchor="start" x="209.5" y="-18.5" font-family="Helvetica,sans-Serif" font-size="10.00">idg_object\get_property</text>
<text text-anchor="middle" x="267.5" y="-7.5" font-family="Helvetica,sans-Serif" font-size="10.00">_values</text>
</a>
</g>
</g>
<!-- Node1&#45;&gt;Node17 -->
<g id="edge19" class="edge">
<title>Node1&#45;&gt;Node17</title>
<path fill="none" stroke="midnightblue" d="M560.57,-109.77C499.09,-89.93 380.66,-51.7 315.07,-30.53"/>
<polygon fill="midnightblue" stroke="midnightblue" points="559.7,-113.17 570.29,-112.91 561.85,-106.51 559.7,-113.17"/>
</g>
<!-- Node3 -->
<g id="node3" class="node">
<title>Node3</title>
<g id="a_node3"><a xlink:href="classidg__document.html#a42f2bc2c4324f1e8ff1aecaef5aaa54e" target="_top" xlink:title=" ">
<polygon fill="white" stroke="black" points="193,-487.5 193,-517.5 342,-517.5 342,-487.5 193,-487.5"/>
<text text-anchor="start" x="201" y="-505.5" font-family="Helvetica,sans-Serif" font-size="10.00">idg_document\_get_default</text>
<text text-anchor="middle" x="267.5" y="-494.5" font-family="Helvetica,sans-Serif" font-size="10.00">_title</text>
</a>
</g>
</g>
<!-- Node2&#45;&gt;Node3 -->
<g id="edge2" class="edge">
<title>Node2&#45;&gt;Node3</title>
<path fill="none" stroke="midnightblue" d="M441.73,-248.04C435.27,-294.76 412.5,-413.85 343,-478.5 339.32,-481.92 335.15,-484.86 330.7,-487.38"/>
<polygon fill="midnightblue" stroke="midnightblue" points="445.21,-248.39 443.01,-238.03 438.27,-247.5 445.21,-248.39"/>
</g>
<!-- Node4 -->
<g id="node4" class="node">
<title>Node4</title>
<g id="a_node4"><a xlink:href="classidg__view__html__container.html#a26eab2df981893738a1e9d859b79ffda" target="_top" xlink:title=" ">
<polygon fill="white" stroke="black" points="198,-438.5 198,-468.5 337,-468.5 337,-438.5 198,-438.5"/>
<text text-anchor="start" x="206" y="-456.5" font-family="Helvetica,sans-Serif" font-size="10.00">idg_view_html_container</text>
<text text-anchor="middle" x="267.5" y="-445.5" font-family="Helvetica,sans-Serif" font-size="10.00">\_render</text>
</a>
</g>
</g>
<!-- Node2&#45;&gt;Node4 -->
<g id="edge3" class="edge">
<title>Node2&#45;&gt;Node4</title>
<path fill="none" stroke="midnightblue" d="M438.86,-248.05C427.75,-286.73 397.95,-373.55 343,-423.5 336.4,-429.5 328.44,-434.38 320.22,-438.32"/>
<polygon fill="midnightblue" stroke="midnightblue" points="442.32,-248.66 441.61,-238.09 435.58,-246.8 442.32,-248.66"/>
</g>
<!-- Node5 -->
<g id="node5" class="node">
<title>Node5</title>
<g id="a_node5"><a xlink:href="classidg__view__html__renderer.html#ae38258ae5fd5ed1b8020e44ce7666c0a" target="_top" xlink:title="See class description.">
<polygon fill="white" stroke="black" points="11,-303.5 11,-333.5 145,-333.5 145,-303.5 11,-303.5"/>
<text text-anchor="start" x="19" y="-321.5" font-family="Helvetica,sans-Serif" font-size="10.00">idg_view_html_renderer</text>
<text text-anchor="middle" x="78" y="-310.5" font-family="Helvetica,sans-Serif" font-size="10.00">\_render</text>
</a>
</g>
</g>
<!-- Node2&#45;&gt;Node5 -->
<g id="edge4" class="edge">
<title>Node2&#45;&gt;Node5</title>
<path fill="none" stroke="midnightblue" d="M438.67,-247.95C427.67,-283.84 398.68,-359.6 343,-390.5 284.32,-423.07 256.43,-409.28 192,-390.5 154.03,-379.43 116.66,-351.31 95.84,-333.67"/>
<polygon fill="midnightblue" stroke="midnightblue" points="442.08,-248.77 441.52,-238.19 435.36,-246.81 442.08,-248.77"/>
</g>
<!-- Node6 -->
<g id="node6" class="node">
<title>Node6</title>
<g id="a_node6"><a xlink:href="classidg__view__html__slot.html#ac81c6c0e2e66289d856dbdeb75193ad1" target="_top" xlink:title=" ">
<polygon fill="white" stroke="black" points="212,-350.5 212,-380.5 323,-380.5 323,-350.5 212,-350.5"/>
<text text-anchor="start" x="220" y="-368.5" font-family="Helvetica,sans-Serif" font-size="10.00">idg_view_html_slot</text>
<text text-anchor="middle" x="267.5" y="-357.5" font-family="Helvetica,sans-Serif" font-size="10.00">\_render</text>
</a>
</g>
</g>
<!-- Node2&#45;&gt;Node6 -->
<g id="edge5" class="edge">
<title>Node2&#45;&gt;Node6</title>
<path fill="none" stroke="midnightblue" d="M432.33,-246.74C415.51,-271.64 382.12,-316.06 343,-341.5 336.96,-345.43 330.23,-348.75 323.35,-351.57"/>
<polygon fill="midnightblue" stroke="midnightblue" points="435.36,-248.51 437.95,-238.24 429.52,-244.66 435.36,-248.51"/>
</g>
<!-- Node7 -->
<g id="node7" class="node">
<title>Node7</title>
<g id="a_node7"><a xlink:href="classidg__renderer__declaration.html#acd121a1c23b97d5f571a1e20f3de6309" target="_top" xlink:title=" ">
<polygon fill="white" stroke="black" points="198.5,-301.5 198.5,-331.5 336.5,-331.5 336.5,-301.5 198.5,-301.5"/>
<text text-anchor="start" x="206.5" y="-319.5" font-family="Helvetica,sans-Serif" font-size="10.00">idg_renderer_declaration</text>
<text text-anchor="middle" x="267.5" y="-308.5" font-family="Helvetica,sans-Serif" font-size="10.00">\add_token</text>
</a>
</g>
</g>
<!-- Node2&#45;&gt;Node7 -->
<g id="edge6" class="edge">
<title>Node2&#45;&gt;Node7</title>
<path fill="none" stroke="midnightblue" d="M422.52,-243.97C402.63,-257.79 371.85,-277.89 343,-291.5 335.35,-295.11 327.04,-298.44 318.83,-301.41"/>
<polygon fill="midnightblue" stroke="midnightblue" points="424.69,-246.73 430.85,-238.11 420.66,-241 424.69,-246.73"/>
</g>
<!-- Node8 -->
<g id="node8" class="node">
<title>Node8</title>
<g id="a_node8"><a xlink:href="classidg__site.html#a3446705c00bb5320e4b629d11aa4d1c3" target="_top" xlink:title=" ">
<polygon fill="white" stroke="black" points="203.5,-263 203.5,-282 331.5,-282 331.5,-263 203.5,-263"/>
<text text-anchor="middle" x="267.5" y="-270" font-family="Helvetica,sans-Serif" font-size="10.00">idg_site\get_document</text>
</a>
</g>
</g>
<!-- Node2&#45;&gt;Node8 -->
<g id="edge7" class="edge">
<title>Node2&#45;&gt;Node8</title>
<path fill="none" stroke="midnightblue" d="M395.89,-240.56C367.74,-247.62 332.71,-256.4 306.51,-262.97"/>
<polygon fill="midnightblue" stroke="midnightblue" points="397.07,-243.87 405.92,-238.05 395.37,-237.08 397.07,-243.87"/>
</g>
<!-- Node9 -->
<g id="node9" class="node">
<title>Node9</title>
<g id="a_node9"><a xlink:href="classidg__datasource__declaration.html#a4b2987dc6f360862f0cab47a351895ea" target="_top" xlink:title=" ">
<polygon fill="white" stroke="black" points="192,-213.5 192,-243.5 343,-243.5 343,-213.5 192,-213.5"/>
<text text-anchor="start" x="200" y="-231.5" font-family="Helvetica,sans-Serif" font-size="10.00">idg_datasource_declaration</text>
<text text-anchor="middle" x="267.5" y="-220.5" font-family="Helvetica,sans-Serif" font-size="10.00">\get_instance</text>
</a>
</g>
</g>
<!-- Node2&#45;&gt;Node9 -->
<g id="edge8" class="edge">
<title>Node2&#45;&gt;Node9</title>
<path fill="none" stroke="midnightblue" d="M368.47,-228.5C360.05,-228.5 351.48,-228.5 343.07,-228.5"/>
<polygon fill="midnightblue" stroke="midnightblue" points="368.65,-232 378.65,-228.5 368.65,-225 368.65,-232"/>
</g>
<!-- Node10 -->
<g id="node10" class="node">
<title>Node10</title>
<g id="a_node10"><a xlink:href="classidg__renderer__declaration.html#a64d09e81c5f8a7094f52ec0be998d78b" target="_top" xlink:title=" ">
<polygon fill="white" stroke="black" points="198.5,-164.5 198.5,-194.5 336.5,-194.5 336.5,-164.5 198.5,-164.5"/>
<text text-anchor="start" x="206.5" y="-182.5" font-family="Helvetica,sans-Serif" font-size="10.00">idg_renderer_declaration</text>
<text text-anchor="middle" x="267.5" y="-171.5" font-family="Helvetica,sans-Serif" font-size="10.00">\get_instance</text>
</a>
</g>
</g>
<!-- Node2&#45;&gt;Node10 -->
<g id="edge9" class="edge">
<title>Node2&#45;&gt;Node10</title>
<path fill="none" stroke="midnightblue" d="M400.03,-216.22C376.47,-209.65 347.26,-201.49 322.36,-194.54"/>
<polygon fill="midnightblue" stroke="midnightblue" points="399.17,-219.62 409.75,-218.94 401.05,-212.88 399.17,-219.62"/>
</g>
<!-- Node11 -->
<g id="node11" class="node">
<title>Node11</title>
<g id="a_node11"><a xlink:href="classidg__object.html#ac41f30824083065ee9430a74f7301116" target="_top" xlink:title=" ">
<polygon fill="white" stroke="black" points="201.5,-126 201.5,-145 333.5,-145 333.5,-126 201.5,-126"/>
<text text-anchor="middle" x="267.5" y="-133" font-family="Helvetica,sans-Serif" font-size="10.00">idg_object\get_instance</text>
</a>
</g>
</g>
<!-- Node2&#45;&gt;Node11 -->
<g id="edge10" class="edge">
<title>Node2&#45;&gt;Node11</title>
<path fill="none" stroke="midnightblue" d="M425.96,-212.3C406.7,-195.8 374.65,-170.56 343,-155.5 334.17,-151.3 324.32,-147.87 314.75,-145.11"/>
<polygon fill="midnightblue" stroke="midnightblue" points="423.79,-215.05 433.63,-218.99 428.39,-209.78 423.79,-215.05"/>
</g>
<!-- Node13 -->
<g id="node13" class="node">
<title>Node13</title>
<g id="a_node13"><a xlink:href="classidg__document.html#a4554297770548415a0edf16831c41255" target="_top" xlink:title=" ">
<polygon fill="white" stroke="black" points="202,-88 202,-107 333,-107 333,-88 202,-88"/>
<text text-anchor="middle" x="267.5" y="-95" font-family="Helvetica,sans-Serif" font-size="10.00">idg_document\get_path</text>
</a>
</g>
</g>
<!-- Node2&#45;&gt;Node13 -->
<g id="edge13" class="edge">
<title>Node2&#45;&gt;Node13</title>
<path fill="none" stroke="midnightblue" d="M432.76,-210.45C416.23,-185.45 382.95,-140.63 343,-116.5 336.6,-112.64 329.44,-109.55 322.15,-107.09"/>
<polygon fill="midnightblue" stroke="midnightblue" points="429.9,-212.47 438.26,-218.98 435.78,-208.68 429.9,-212.47"/>
</g>
<!-- Node2&#45;&gt;Node17 -->
<g id="edge17" class="edge">
<title>Node2&#45;&gt;Node17</title>
<path fill="none" stroke="midnightblue" d="M432.66,-210.33C419.25,-188.58 396.55,-150.91 379,-117.5 361.44,-84.05 371.19,-65.65 343,-40.5 338.62,-36.59 333.61,-33.29 328.31,-30.51"/>
<polygon fill="midnightblue" stroke="midnightblue" points="429.71,-212.21 437.95,-218.87 435.66,-208.53 429.71,-212.21"/>
</g>
<!-- Node18 -->
<g id="node18" class="node">
<title>Node18</title>
<g id="a_node18"><a xlink:href="classidg__view__html.html#ad2ab39b24e4559133a02074eb51ccd8b" target="_top" xlink:title=" ">
<polygon fill="white" stroke="black" points="206.5,-50 206.5,-69 328.5,-69 328.5,-50 206.5,-50"/>
<text text-anchor="middle" x="267.5" y="-57" font-family="Helvetica,sans-Serif" font-size="10.00">idg_view_html\render</text>
</a>
</g>
</g>
<!-- Node2&#45;&gt;Node18 -->
<g id="edge18" class="edge">
<title>Node2&#45;&gt;Node18</title>
<path fill="none" stroke="midnightblue" d="M433.7,-209.84C413.38,-173.69 367.98,-96.11 343,-78.5 337.54,-74.66 331.38,-71.59 324.99,-69.14"/>
<polygon fill="midnightblue" stroke="midnightblue" points="430.79,-211.83 438.72,-218.86 436.91,-208.42 430.79,-211.83"/>
</g>
<!-- Node11&#45;&gt;Node5 -->
<g id="edge12" class="edge">
<title>Node11&#45;&gt;Node5</title>
<path fill="none" stroke="midnightblue" d="M203.27,-148.96C199.31,-150.86 195.51,-153.03 192,-155.5 136.25,-194.75 99.14,-270.79 85.19,-303.23"/>
<polygon fill="midnightblue" stroke="midnightblue" points="204.87,-152.09 212.75,-145 202.17,-145.63 204.87,-152.09"/>
</g>
<!-- Node12 -->
<g id="node12" class="node">
<title>Node12</title>
<g id="a_node12"><a xlink:href="classidg__view__html__element.html#a7cae4f263e28692e70e554d47ea3f412" target="_top" xlink:title=" ">
<polygon fill="white" stroke="black" points="11,-145.5 11,-175.5 145,-175.5 145,-145.5 11,-145.5"/>
<text text-anchor="start" x="19" y="-163.5" font-family="Helvetica,sans-Serif" font-size="10.00">idg_view_html_element</text>
<text text-anchor="middle" x="78" y="-152.5" font-family="Helvetica,sans-Serif" font-size="10.00">\_render</text>
</a>
</g>
</g>
<!-- Node11&#45;&gt;Node12 -->
<g id="edge11" class="edge">
<title>Node11&#45;&gt;Node12</title>
<path fill="none" stroke="midnightblue" d="M191.5,-145.5C176.19,-147.54 160.19,-149.68 145.21,-151.67"/>
<polygon fill="midnightblue" stroke="midnightblue" points="192,-148.96 201.45,-144.17 191.07,-142.03 192,-148.96"/>
</g>
<!-- Node14 -->
<g id="node14" class="node">
<title>Node14</title>
<g id="a_node14"><a xlink:href="classidg__document.html#a9ff98fd927f8ce36998139615667f573" target="_top" xlink:title=" ">
<polygon fill="white" stroke="black" points="8.5,-107 8.5,-126 147.5,-126 147.5,-107 8.5,-107"/>
<text text-anchor="middle" x="78" y="-114" font-family="Helvetica,sans-Serif" font-size="10.00">idg_document\add_token</text>
</a>
</g>
</g>
<!-- Node13&#45;&gt;Node14 -->
<g id="edge14" class="edge">
<title>Node13&#45;&gt;Node14</title>
<path fill="none" stroke="midnightblue" d="M192,-105.05C177.42,-106.53 162.19,-108.07 147.81,-109.53"/>
<polygon fill="midnightblue" stroke="midnightblue" points="192.38,-108.53 201.97,-104.04 191.67,-101.56 192.38,-108.53"/>
</g>
<!-- Node15 -->
<g id="node15" class="node">
<title>Node15</title>
<g id="a_node15"><a xlink:href="classidg__document.html#a0e01326ce378e5cf31d9c6fb11097b31" target="_top" xlink:title=" ">
<polygon fill="white" stroke="black" points="0,-69 0,-88 156,-88 156,-69 0,-69"/>
<text text-anchor="middle" x="78" y="-76" font-family="Helvetica,sans-Serif" font-size="10.00">idg_document\get_renderers</text>
</a>
</g>
</g>
<!-- Node13&#45;&gt;Node15 -->
<g id="edge15" class="edge">
<title>Node13&#45;&gt;Node15</title>
<path fill="none" stroke="midnightblue" d="M191.82,-89.93C180.12,-88.75 168.01,-87.52 156.26,-86.33"/>
<polygon fill="midnightblue" stroke="midnightblue" points="191.67,-93.44 201.97,-90.96 192.38,-86.47 191.67,-93.44"/>
</g>
<!-- Node16 -->
<g id="node16" class="node">
<title>Node16</title>
<g id="a_node16"><a xlink:href="classidg__document.html#afdb00cf2e04ec161121bebf88229c912" target="_top" xlink:title=" ">
<polygon fill="white" stroke="black" points="17,-31 17,-50 139,-50 139,-31 17,-31"/>
<text text-anchor="middle" x="78" y="-38" font-family="Helvetica,sans-Serif" font-size="10.00">idg_document\get_uri</text>
</a>
</g>
</g>
<!-- Node13&#45;&gt;Node16 -->
<g id="edge16" class="edge">
<title>Node13&#45;&gt;Node16</title>
<path fill="none" stroke="midnightblue" d="M211.94,-85.18C205.15,-83.18 198.36,-80.95 192,-78.5 175.12,-72 172.91,-65.94 156,-59.5 146.35,-55.83 135.74,-52.67 125.57,-50.05"/>
<polygon fill="midnightblue" stroke="midnightblue" points="211.27,-88.62 221.84,-87.94 213.15,-81.88 211.27,-88.62"/>
</g>
</g>
</svg>
