<?xml version="1.0" encoding="UTF-8" standalone="no"?>
<!DOCTYPE svg PUBLIC "-//W3C//DTD SVG 1.1//EN"
 "http://www.w3.org/Graphics/SVG/1.1/DTD/svg11.dtd">
<!-- Generated by graphviz version 2.43.0 (0)
 -->
<!-- Title: idg_fragment_implementation\get_parameter Pages: 1 -->
<svg width="339pt" height="39pt"
 viewBox="0.00 0.00 339.00 39.00" xmlns="http://www.w3.org/2000/svg" xmlns:xlink="http://www.w3.org/1999/xlink">
<g id="graph0" class="graph" transform="scale(1 1) rotate(0) translate(4 35)">
<title>idg_fragment_implementation\get_parameter</title>
<polygon fill="white" stroke="transparent" points="-4,4 -4,-35 335,-35 335,4 -4,4"/>
<!-- Node1 -->
<g id="node1" class="node">
<title>Node1</title>
<g id="a_node1"><a xlink:title="Returns a parameter with the given name and scope, obtained from the parent.">
<polygon fill="#bfbfbf" stroke="black" points="166,-0.5 166,-30.5 331,-30.5 331,-0.5 166,-0.5"/>
<text text-anchor="start" x="174" y="-18.5" font-family="Helvetica,sans-Serif" font-size="10.00">idg_fragment_implementation</text>
<text text-anchor="middle" x="248.5" y="-7.5" font-family="Helvetica,sans-Serif" font-size="10.00">\get_parameter</text>
</a>
</g>
</g>
<!-- Node2 -->
<g id="node2" class="node">
<title>Node2</title>
<g id="a_node2"><a xlink:href="classIndigo_1_1Fragment_1_1image.html#aed8214abc57c39d733268d3710539a54" target="_top" xlink:title=" ">
<polygon fill="white" stroke="black" points="0,-0.5 0,-30.5 130,-30.5 130,-0.5 0,-0.5"/>
<text text-anchor="start" x="8" y="-18.5" font-family="Helvetica,sans-Serif" font-size="10.00">Indigo\Fragment\image</text>
<text text-anchor="middle" x="65" y="-7.5" font-family="Helvetica,sans-Serif" font-size="10.00">\_render</text>
</a>
</g>
</g>
<!-- Node1&#45;&gt;Node2 -->
<g id="edge1" class="edge">
<title>Node1&#45;&gt;Node2</title>
<path fill="none" stroke="midnightblue" d="M155.66,-15.5C147.04,-15.5 138.42,-15.5 130.13,-15.5"/>
<polygon fill="midnightblue" stroke="midnightblue" points="155.78,-19 165.78,-15.5 155.78,-12 155.78,-19"/>
</g>
</g>
</svg>
