<?xml version="1.0" encoding="UTF-8" standalone="no"?>
<!DOCTYPE svg PUBLIC "-//W3C//DTD SVG 1.1//EN"
 "http://www.w3.org/Graphics/SVG/1.1/DTD/svg11.dtd">
<!-- Generated by graphviz version 2.43.0 (0)
 -->
<!-- Title: Indigo\Datasource\text\__construct Pages: 1 -->
<svg width="346pt" height="78pt"
 viewBox="0.00 0.00 346.00 77.50" xmlns="http://www.w3.org/2000/svg" xmlns:xlink="http://www.w3.org/1999/xlink">
<g id="graph0" class="graph" transform="scale(1 1) rotate(0) translate(4 73.5)">
<title>Indigo\Datasource\text\__construct</title>
<polygon fill="white" stroke="transparent" points="-4,4 -4,-73.5 342,-73.5 342,4 -4,4"/>
<!-- Node1 -->
<g id="node1" class="node">
<title>Node1</title>
<g id="a_node1"><a xlink:title=" ">
<polygon fill="#bfbfbf" stroke="black" points="0,-17 0,-47 128,-47 128,-17 0,-17"/>
<text text-anchor="start" x="8" y="-35" font-family="Helvetica,sans-Serif" font-size="10.00">Indigo\Datasource\text</text>
<text text-anchor="middle" x="64" y="-24" font-family="Helvetica,sans-Serif" font-size="10.00">\__construct</text>
</a>
</g>
</g>
<!-- Node2 -->
<g id="node2" class="node">
<title>Node2</title>
<g id="a_node2"><a xlink:href="classidg__datasource__implementation.html#a1357a683acf9ea8f9d3a966943c28db0" target="_top" xlink:title=" ">
<polygon fill="white" stroke="black" points="164,-39 164,-69 338,-69 338,-39 164,-39"/>
<text text-anchor="start" x="172" y="-57" font-family="Helvetica,sans-Serif" font-size="10.00">idg_datasource_implementation</text>
<text text-anchor="middle" x="251" y="-46" font-family="Helvetica,sans-Serif" font-size="10.00">\add_token</text>
</a>
</g>
</g>
<!-- Node1&#45;&gt;Node2 -->
<g id="edge1" class="edge">
<title>Node1&#45;&gt;Node2</title>
<path fill="none" stroke="midnightblue" d="M128.15,-39.51C136.42,-40.49 145.05,-41.52 153.72,-42.55"/>
<polygon fill="midnightblue" stroke="midnightblue" points="153.56,-46.06 163.9,-43.76 154.38,-39.1 153.56,-46.06"/>
</g>
<!-- Node3 -->
<g id="node3" class="node">
<title>Node3</title>
<g id="a_node3"><a xlink:href="classidg__leafnode.html#a338e94af10e83f8a4fa1b5a28bba0131" target="_top" xlink:title="Gets the text previously set with set_text().">
<polygon fill="white" stroke="black" points="189.5,-0.5 189.5,-19.5 312.5,-19.5 312.5,-0.5 189.5,-0.5"/>
<text text-anchor="middle" x="251" y="-7.5" font-family="Helvetica,sans-Serif" font-size="10.00">idg_leafnode\get_text</text>
</a>
</g>
</g>
<!-- Node1&#45;&gt;Node3 -->
<g id="edge2" class="edge">
<title>Node1&#45;&gt;Node3</title>
<path fill="none" stroke="midnightblue" d="M128.15,-24.49C144.53,-22.54 162.29,-20.43 179.04,-18.44"/>
<polygon fill="midnightblue" stroke="midnightblue" points="179.81,-21.87 189.32,-17.22 178.98,-14.92 179.81,-21.87"/>
</g>
</g>
</svg>
