<?xml version="1.0" encoding="UTF-8" standalone="no"?>
<!DOCTYPE svg PUBLIC "-//W3C//DTD SVG 1.1//EN"
 "http://www.w3.org/Graphics/SVG/1.1/DTD/svg11.dtd">
<!-- Generated by graphviz version 2.43.0 (0)
 -->
<!-- Title: idg_document\add_token Pages: 1 -->
<svg width="651pt" height="104pt"
 viewBox="0.00 0.00 651.00 104.00" xmlns="http://www.w3.org/2000/svg" xmlns:xlink="http://www.w3.org/1999/xlink">
<g id="graph0" class="graph" transform="scale(1 1) rotate(0) translate(4 100)">
<title>idg_document\add_token</title>
<polygon fill="white" stroke="transparent" points="-4,4 -4,-100 647,-100 647,4 -4,4"/>
<!-- Node1 -->
<g id="node1" class="node">
<title>Node1</title>
<g id="a_node1"><a xlink:title=" ">
<polygon fill="#bfbfbf" stroke="black" points="0,-38.5 0,-57.5 139,-57.5 139,-38.5 0,-38.5"/>
<text text-anchor="middle" x="69.5" y="-45.5" font-family="Helvetica,sans-Serif" font-size="10.00">idg_document\add_token</text>
</a>
</g>
</g>
<!-- Node2 -->
<g id="node2" class="node">
<title>Node2</title>
<g id="a_node2"><a xlink:href="classidg__tree__node.html#a46125cb222ce856fc14b1434620a3eb2" target="_top" xlink:title=" ">
<polygon fill="white" stroke="black" points="351,-76.5 351,-95.5 492,-95.5 492,-76.5 351,-76.5"/>
<text text-anchor="middle" x="421.5" y="-83.5" font-family="Helvetica,sans-Serif" font-size="10.00">idg_tree_node\get_parent</text>
</a>
</g>
</g>
<!-- Node1&#45;&gt;Node2 -->
<g id="edge1" class="edge">
<title>Node1&#45;&gt;Node2</title>
<path fill="none" stroke="midnightblue" d="M117.16,-57.54C135.17,-60.94 155.98,-64.54 175,-67 230.22,-74.14 292.79,-78.93 340.94,-81.92"/>
<polygon fill="midnightblue" stroke="midnightblue" points="340.8,-85.41 350.99,-82.53 341.22,-78.43 340.8,-85.41"/>
</g>
<!-- Node3 -->
<g id="node3" class="node">
<title>Node3</title>
<g id="a_node3"><a xlink:href="classidg__document.html#a4554297770548415a0edf16831c41255" target="_top" xlink:title=" ">
<polygon fill="white" stroke="black" points="179.5,-38.5 179.5,-57.5 310.5,-57.5 310.5,-38.5 179.5,-38.5"/>
<text text-anchor="middle" x="245" y="-45.5" font-family="Helvetica,sans-Serif" font-size="10.00">idg_document\get_path</text>
</a>
</g>
</g>
<!-- Node1&#45;&gt;Node3 -->
<g id="edge2" class="edge">
<title>Node1&#45;&gt;Node3</title>
<path fill="none" stroke="midnightblue" d="M139.07,-48C148.91,-48 159.08,-48 169.04,-48"/>
<polygon fill="midnightblue" stroke="midnightblue" points="169.32,-51.5 179.32,-48 169.32,-44.5 169.32,-51.5"/>
</g>
<!-- Node7 -->
<g id="node7" class="node">
<title>Node7</title>
<g id="a_node7"><a xlink:href="classidg__object.html#a79f6b30d257d77f65301811591874429" target="_top" xlink:title=" ">
<polygon fill="white" stroke="black" points="175,-0.5 175,-19.5 315,-19.5 315,-0.5 175,-0.5"/>
<text text-anchor="middle" x="245" y="-7.5" font-family="Helvetica,sans-Serif" font-size="10.00">idg_object\get_properties</text>
</a>
</g>
</g>
<!-- Node1&#45;&gt;Node7 -->
<g id="edge7" class="edge">
<title>Node1&#45;&gt;Node7</title>
<path fill="none" stroke="midnightblue" d="M114.28,-38.41C137.49,-33.33 166.18,-27.04 190.67,-21.68"/>
<polygon fill="midnightblue" stroke="midnightblue" points="191.51,-25.08 200.53,-19.52 190.02,-18.24 191.51,-25.08"/>
</g>
<!-- Node3&#45;&gt;Node2 -->
<g id="edge3" class="edge">
<title>Node3&#45;&gt;Node2</title>
<path fill="none" stroke="midnightblue" d="M290.03,-57.59C313.37,-62.67 342.23,-68.96 366.87,-74.32"/>
<polygon fill="midnightblue" stroke="midnightblue" points="366.27,-77.77 376.78,-76.48 367.76,-70.93 366.27,-77.77"/>
</g>
<!-- Node4 -->
<g id="node4" class="node">
<title>Node4</title>
<g id="a_node4"><a xlink:href="classidg__object.html#ac54f91fd013c01d09e085472d6bdb6e8" target="_top" xlink:title=" ">
<polygon fill="white" stroke="black" points="355.5,-38.5 355.5,-57.5 487.5,-57.5 487.5,-38.5 355.5,-38.5"/>
<text text-anchor="middle" x="421.5" y="-45.5" font-family="Helvetica,sans-Serif" font-size="10.00">idg_object\get_property</text>
</a>
</g>
</g>
<!-- Node3&#45;&gt;Node4 -->
<g id="edge4" class="edge">
<title>Node3&#45;&gt;Node4</title>
<path fill="none" stroke="midnightblue" d="M310.98,-48C322.11,-48 333.75,-48 345.12,-48"/>
<polygon fill="midnightblue" stroke="midnightblue" points="345.47,-51.5 355.47,-48 345.47,-44.5 345.47,-51.5"/>
</g>
<!-- Node5 -->
<g id="node5" class="node">
<title>Node5</title>
<g id="a_node5"><a xlink:href="classidg__object.html#a583e265c2dbc95871ab08eb9820c3ee8" target="_top" xlink:title="Executes members of this object and global functions.">
<polygon fill="white" stroke="black" points="531.5,-57.5 531.5,-76.5 639.5,-76.5 639.5,-57.5 531.5,-57.5"/>
<text text-anchor="middle" x="585.5" y="-64.5" font-family="Helvetica,sans-Serif" font-size="10.00">idg_object\execute</text>
</a>
</g>
</g>
<!-- Node4&#45;&gt;Node5 -->
<g id="edge5" class="edge">
<title>Node4&#45;&gt;Node5</title>
<path fill="none" stroke="midnightblue" d="M487.92,-55.67C498.84,-56.95 510.14,-58.28 521.01,-59.55"/>
<polygon fill="midnightblue" stroke="midnightblue" points="520.92,-63.07 531.26,-60.76 521.74,-56.11 520.92,-63.07"/>
</g>
<!-- Node6 -->
<g id="node6" class="node">
<title>Node6</title>
<g id="a_node6"><a xlink:href="classidg__object.html#a35093e6cb6bcfc815778ed16cbc11e75" target="_top" xlink:title=" ">
<polygon fill="white" stroke="black" points="528,-19.5 528,-38.5 643,-38.5 643,-19.5 528,-19.5"/>
<text text-anchor="middle" x="585.5" y="-26.5" font-family="Helvetica,sans-Serif" font-size="10.00">idg_object\get_hook</text>
</a>
</g>
</g>
<!-- Node4&#45;&gt;Node6 -->
<g id="edge6" class="edge">
<title>Node4&#45;&gt;Node6</title>
<path fill="none" stroke="midnightblue" d="M487.92,-40.33C497.77,-39.17 507.93,-37.98 517.79,-36.82"/>
<polygon fill="midnightblue" stroke="midnightblue" points="518.42,-40.27 527.95,-35.63 517.61,-33.32 518.42,-40.27"/>
</g>
</g>
</svg>
