<?xml version="1.0" encoding="UTF-8" standalone="no"?>
<!DOCTYPE svg PUBLIC "-//W3C//DTD SVG 1.1//EN"
 "http://www.w3.org/Graphics/SVG/1.1/DTD/svg11.dtd">
<!-- Generated by graphviz version 2.43.0 (0)
 -->
<!-- Title: idg_tree_node_type Pages: 1 -->
<svg width="975pt" height="199pt"
 viewBox="0.00 0.00 975.00 199.00" xmlns="http://www.w3.org/2000/svg" xmlns:xlink="http://www.w3.org/1999/xlink">
<g id="graph0" class="graph" transform="scale(1 1) rotate(0) translate(4 195)">
<title>idg_tree_node_type</title>
<polygon fill="white" stroke="transparent" points="-4,4 -4,-195 971,-195 971,4 -4,4"/>
<!-- Node1 -->
<g id="node1" class="node">
<title>Node1</title>
<g id="a_node1"><a xlink:title=" ">
<polygon fill="#bfbfbf" stroke="black" points="130,-95.5 130,-114.5 243,-114.5 243,-95.5 130,-95.5"/>
<text text-anchor="middle" x="186.5" y="-102.5" font-family="Helvetica,sans-Serif" font-size="10.00">idg_tree_node_type</text>
</a>
</g>
</g>
<!-- Node3 -->
<g id="node3" class="node">
<title>Node3</title>
<g id="a_node3"><a xlink:href="classidg__site__element__type.html" target="_top" xlink:title=" ">
<polygon fill="white" stroke="black" points="284,-133.5 284,-152.5 412,-152.5 412,-133.5 284,-133.5"/>
<text text-anchor="middle" x="348" y="-140.5" font-family="Helvetica,sans-Serif" font-size="10.00">idg_site_element_type</text>
</a>
</g>
</g>
<!-- Node1&#45;&gt;Node3 -->
<g id="edge2" class="edge">
<title>Node1&#45;&gt;Node3</title>
<path fill="none" stroke="midnightblue" d="M237.73,-116.97C260.09,-122.29 286.04,-128.48 307.04,-133.48"/>
<polygon fill="midnightblue" stroke="midnightblue" points="238.29,-113.5 227.75,-114.59 236.67,-120.31 238.29,-113.5"/>
</g>
<!-- Node7 -->
<g id="node7" class="node">
<title>Node7</title>
<g id="a_node7"><a xlink:href="classidg__view__html__slot__type.html" target="_top" xlink:title=" ">
<polygon fill="white" stroke="black" points="279,-95.5 279,-114.5 417,-114.5 417,-95.5 279,-95.5"/>
<text text-anchor="middle" x="348" y="-102.5" font-family="Helvetica,sans-Serif" font-size="10.00">idg_view_html_slot_type</text>
</a>
</g>
</g>
<!-- Node1&#45;&gt;Node7 -->
<g id="edge6" class="edge">
<title>Node1&#45;&gt;Node7</title>
<path fill="none" stroke="midnightblue" d="M253.41,-105C261.83,-105 270.45,-105 278.89,-105"/>
<polygon fill="midnightblue" stroke="midnightblue" points="253.29,-101.5 243.29,-105 253.29,-108.5 253.29,-101.5"/>
</g>
<!-- Node8 -->
<g id="node8" class="node">
<title>Node8</title>
<g id="a_node8"><a xlink:href="classidg__view__type.html" target="_top" xlink:title=" ">
<polygon fill="white" stroke="black" points="304.5,-57.5 304.5,-76.5 391.5,-76.5 391.5,-57.5 304.5,-57.5"/>
<text text-anchor="middle" x="348" y="-64.5" font-family="Helvetica,sans-Serif" font-size="10.00">idg_view_type</text>
</a>
</g>
</g>
<!-- Node1&#45;&gt;Node8 -->
<g id="edge7" class="edge">
<title>Node1&#45;&gt;Node8</title>
<path fill="none" stroke="midnightblue" d="M237.73,-93.03C260.09,-87.71 286.04,-81.52 307.04,-76.52"/>
<polygon fill="midnightblue" stroke="midnightblue" points="236.67,-89.69 227.75,-95.41 238.29,-96.5 236.67,-89.69"/>
</g>
<!-- Node2 -->
<g id="node2" class="node">
<title>Node2</title>
<g id="a_node2"><a xlink:href="classidg__object__type.html" target="_top" xlink:title=" ">
<polygon fill="white" stroke="black" points="0,-95.5 0,-114.5 94,-114.5 94,-95.5 0,-95.5"/>
<text text-anchor="middle" x="47" y="-102.5" font-family="Helvetica,sans-Serif" font-size="10.00">idg_object_type</text>
</a>
</g>
</g>
<!-- Node2&#45;&gt;Node1 -->
<g id="edge1" class="edge">
<title>Node2&#45;&gt;Node1</title>
<path fill="none" stroke="midnightblue" d="M104.24,-105C112.64,-105 121.29,-105 129.67,-105"/>
<polygon fill="midnightblue" stroke="midnightblue" points="104.17,-101.5 94.17,-105 104.17,-108.5 104.17,-101.5"/>
</g>
<!-- Node4 -->
<g id="node4" class="node">
<title>Node4</title>
<g id="a_node4"><a xlink:href="classidg__document__type.html" target="_top" xlink:title=" ">
<polygon fill="white" stroke="black" points="454,-171.5 454,-190.5 567,-190.5 567,-171.5 454,-171.5"/>
<text text-anchor="middle" x="510.5" y="-178.5" font-family="Helvetica,sans-Serif" font-size="10.00">idg_document_type</text>
</a>
</g>
</g>
<!-- Node3&#45;&gt;Node4 -->
<g id="edge3" class="edge">
<title>Node3&#45;&gt;Node4</title>
<path fill="none" stroke="midnightblue" d="M399.25,-154.9C421.81,-160.24 448.06,-166.45 469.29,-171.48"/>
<polygon fill="midnightblue" stroke="midnightblue" points="400.04,-151.49 389.5,-152.59 398.43,-158.3 400.04,-151.49"/>
</g>
<!-- Node5 -->
<g id="node5" class="node">
<title>Node5</title>
<g id="a_node5"><a xlink:href="classidg__folder__type.html" target="_top" xlink:title=" ">
<polygon fill="white" stroke="black" points="464.5,-133.5 464.5,-152.5 556.5,-152.5 556.5,-133.5 464.5,-133.5"/>
<text text-anchor="middle" x="510.5" y="-140.5" font-family="Helvetica,sans-Serif" font-size="10.00">idg_folder_type</text>
</a>
</g>
</g>
<!-- Node3&#45;&gt;Node5 -->
<g id="edge4" class="edge">
<title>Node3&#45;&gt;Node5</title>
<path fill="none" stroke="midnightblue" d="M422.7,-143C436.9,-143 451.37,-143 464.33,-143"/>
<polygon fill="midnightblue" stroke="midnightblue" points="422.43,-139.5 412.43,-143 422.43,-146.5 422.43,-139.5"/>
</g>
<!-- Node6 -->
<g id="node6" class="node">
<title>Node6</title>
<g id="a_node6"><a xlink:href="classidg__site__type.html" target="_top" xlink:title=" ">
<polygon fill="white" stroke="black" points="469.5,-95.5 469.5,-114.5 551.5,-114.5 551.5,-95.5 469.5,-95.5"/>
<text text-anchor="middle" x="510.5" y="-102.5" font-family="Helvetica,sans-Serif" font-size="10.00">idg_site_type</text>
</a>
</g>
</g>
<!-- Node3&#45;&gt;Node6 -->
<g id="edge5" class="edge">
<title>Node3&#45;&gt;Node6</title>
<path fill="none" stroke="midnightblue" d="M399.25,-131.1C421.81,-125.76 448.06,-119.55 469.29,-114.52"/>
<polygon fill="midnightblue" stroke="midnightblue" points="398.43,-127.7 389.5,-133.41 400.04,-134.51 398.43,-127.7"/>
</g>
<!-- Node9 -->
<g id="node9" class="node">
<title>Node9</title>
<g id="a_node9"><a xlink:href="classidg__view__html__type.html" target="_top" xlink:title="Parent class of all views.">
<polygon fill="white" stroke="black" points="453,-57.5 453,-76.5 568,-76.5 568,-57.5 453,-57.5"/>
<text text-anchor="middle" x="510.5" y="-64.5" font-family="Helvetica,sans-Serif" font-size="10.00">idg_view_html_type</text>
</a>
</g>
</g>
<!-- Node8&#45;&gt;Node9 -->
<g id="edge8" class="edge">
<title>Node8&#45;&gt;Node9</title>
<path fill="none" stroke="midnightblue" d="M402.01,-67C418.3,-67 436.28,-67 452.8,-67"/>
<polygon fill="midnightblue" stroke="midnightblue" points="401.59,-63.5 391.59,-67 401.59,-70.5 401.59,-63.5"/>
</g>
<!-- Node10 -->
<g id="node10" class="node">
<title>Node10</title>
<g id="a_node10"><a xlink:href="classidg__view__html__element__type.html" target="_top" xlink:title=" ">
<polygon fill="white" stroke="black" points="604,-57.5 604,-76.5 765,-76.5 765,-57.5 604,-57.5"/>
<text text-anchor="middle" x="684.5" y="-64.5" font-family="Helvetica,sans-Serif" font-size="10.00">idg_view_html_element_type</text>
</a>
</g>
</g>
<!-- Node9&#45;&gt;Node10 -->
<g id="edge9" class="edge">
<title>Node9&#45;&gt;Node10</title>
<path fill="none" stroke="midnightblue" d="M578.31,-67C586.64,-67 595.22,-67 603.73,-67"/>
<polygon fill="midnightblue" stroke="midnightblue" points="578.3,-63.5 568.3,-67 578.3,-70.5 578.3,-63.5"/>
</g>
<!-- Node11 -->
<g id="node11" class="node">
<title>Node11</title>
<g id="a_node11"><a xlink:href="classidg__view__html__container__type.html" target="_top" xlink:title=" ">
<polygon fill="white" stroke="black" points="801,-114.5 801,-133.5 967,-133.5 967,-114.5 801,-114.5"/>
<text text-anchor="middle" x="884" y="-121.5" font-family="Helvetica,sans-Serif" font-size="10.00">idg_view_html_container_type</text>
</a>
</g>
</g>
<!-- Node10&#45;&gt;Node11 -->
<g id="edge10" class="edge">
<title>Node10&#45;&gt;Node11</title>
<path fill="none" stroke="midnightblue" d="M721.9,-79.91C744.51,-87.69 774.26,-97.52 801,-105 813.1,-108.39 826.33,-111.64 838.56,-114.47"/>
<polygon fill="midnightblue" stroke="midnightblue" points="722.95,-76.57 712.36,-76.6 720.66,-83.18 722.95,-76.57"/>
</g>
<!-- Node12 -->
<g id="node12" class="node">
<title>Node12</title>
<g id="a_node12"><a xlink:href="classidg__view__html__item__type.html" target="_top" xlink:title=" ">
<polygon fill="white" stroke="black" points="812.5,-76.5 812.5,-95.5 955.5,-95.5 955.5,-76.5 812.5,-76.5"/>
<text text-anchor="middle" x="884" y="-83.5" font-family="Helvetica,sans-Serif" font-size="10.00">idg_view_html_item_type</text>
</a>
</g>
</g>
<!-- Node10&#45;&gt;Node12 -->
<g id="edge11" class="edge">
<title>Node10&#45;&gt;Node12</title>
<path fill="none" stroke="midnightblue" d="M775.23,-75.63C787.72,-76.83 800.41,-78.05 812.48,-79.22"/>
<polygon fill="midnightblue" stroke="midnightblue" points="775.55,-72.15 765.26,-74.67 774.88,-79.11 775.55,-72.15"/>
</g>
<!-- Node13 -->
<g id="node13" class="node">
<title>Node13</title>
<g id="a_node13"><a xlink:href="classidg__view__html__part__type.html" target="_top" xlink:title=" ">
<polygon fill="white" stroke="black" points="814,-38.5 814,-57.5 954,-57.5 954,-38.5 814,-38.5"/>
<text text-anchor="middle" x="884" y="-45.5" font-family="Helvetica,sans-Serif" font-size="10.00">idg_view_html_part_type</text>
</a>
</g>
</g>
<!-- Node10&#45;&gt;Node13 -->
<g id="edge12" class="edge">
<title>Node10&#45;&gt;Node13</title>
<path fill="none" stroke="midnightblue" d="M775.5,-58.34C788.34,-57.11 801.38,-55.85 813.74,-54.66"/>
<polygon fill="midnightblue" stroke="midnightblue" points="774.88,-54.89 765.26,-59.33 775.55,-61.85 774.88,-54.89"/>
</g>
<!-- Node14 -->
<g id="node14" class="node">
<title>Node14</title>
<g id="a_node14"><a xlink:href="classidg__view__html__renderer__type.html" target="_top" xlink:title=" ">
<polygon fill="white" stroke="black" points="803.5,-0.5 803.5,-19.5 964.5,-19.5 964.5,-0.5 803.5,-0.5"/>
<text text-anchor="middle" x="884" y="-7.5" font-family="Helvetica,sans-Serif" font-size="10.00">idg_view_html_renderer_type</text>
</a>
</g>
</g>
<!-- Node10&#45;&gt;Node14 -->
<g id="edge13" class="edge">
<title>Node10&#45;&gt;Node14</title>
<path fill="none" stroke="midnightblue" d="M721.9,-54.09C744.51,-46.31 774.26,-36.48 801,-29 813.1,-25.61 826.33,-22.36 838.56,-19.53"/>
<polygon fill="midnightblue" stroke="midnightblue" points="720.66,-50.82 712.36,-57.4 722.95,-57.43 720.66,-50.82"/>
</g>
</g>
</svg>
