<?xml version="1.0" encoding="UTF-8" standalone="no"?>
<!DOCTYPE svg PUBLIC "-//W3C//DTD SVG 1.1//EN"
 "http://www.w3.org/Graphics/SVG/1.1/DTD/svg11.dtd">
<!-- Generated by graphviz version 2.43.0 (0)
 -->
<!-- Title: idg_type\set_property_mandatory Pages: 1 -->
<svg width="318pt" height="389pt"
 viewBox="0.00 0.00 318.00 389.00" xmlns="http://www.w3.org/2000/svg" xmlns:xlink="http://www.w3.org/1999/xlink">
<g id="graph0" class="graph" transform="scale(1 1) rotate(0) translate(4 385)">
<title>idg_type\set_property_mandatory</title>
<polygon fill="white" stroke="transparent" points="-4,4 -4,-385 314,-385 314,4 -4,4"/>
<!-- Node1 -->
<g id="node1" class="node">
<title>Node1</title>
<g id="a_node1"><a xlink:title="Sets whether an existing property is mandatory.">
<polygon fill="#bfbfbf" stroke="black" points="187,-175.5 187,-205.5 310,-205.5 310,-175.5 187,-175.5"/>
<text text-anchor="start" x="195" y="-193.5" font-family="Helvetica,sans-Serif" font-size="10.00">idg_type\set_property</text>
<text text-anchor="middle" x="248.5" y="-182.5" font-family="Helvetica,sans-Serif" font-size="10.00">_mandatory</text>
</a>
</g>
</g>
<!-- Node2 -->
<g id="node2" class="node">
<title>Node2</title>
<g id="a_node2"><a xlink:href="classidg__datasource__type.html#afd3c8a6ba5f9cf7936f95da92d71e469" target="_top" xlink:title="The constructor.">
<polygon fill="white" stroke="black" points="16.5,-350.5 16.5,-380.5 134.5,-380.5 134.5,-350.5 16.5,-350.5"/>
<text text-anchor="start" x="24.5" y="-368.5" font-family="Helvetica,sans-Serif" font-size="10.00">idg_datasource_type</text>
<text text-anchor="middle" x="75.5" y="-357.5" font-family="Helvetica,sans-Serif" font-size="10.00">\__construct</text>
</a>
</g>
</g>
<!-- Node1&#45;&gt;Node2 -->
<g id="edge1" class="edge">
<title>Node1&#45;&gt;Node2</title>
<path fill="none" stroke="midnightblue" d="M237.99,-215.32C223.95,-248.75 194.54,-307.93 151,-341.5 146.05,-345.32 140.47,-348.54 134.66,-351.25"/>
<polygon fill="midnightblue" stroke="midnightblue" points="241.33,-216.41 241.86,-205.82 234.85,-213.77 241.33,-216.41"/>
</g>
<!-- Node3 -->
<g id="node3" class="node">
<title>Node3</title>
<g id="a_node3"><a xlink:href="classidg__document__type.html#a2deb298a0207d67de704821466270487" target="_top" xlink:title="The constructor.">
<polygon fill="white" stroke="black" points="17.5,-301.5 17.5,-331.5 133.5,-331.5 133.5,-301.5 17.5,-301.5"/>
<text text-anchor="start" x="25.5" y="-319.5" font-family="Helvetica,sans-Serif" font-size="10.00">idg_document_type\</text>
<text text-anchor="middle" x="75.5" y="-308.5" font-family="Helvetica,sans-Serif" font-size="10.00">__construct</text>
</a>
</g>
</g>
<!-- Node1&#45;&gt;Node3 -->
<g id="edge2" class="edge">
<title>Node1&#45;&gt;Node3</title>
<path fill="none" stroke="midnightblue" d="M230.66,-213.85C213.12,-236.61 183.67,-270.74 151,-291.5 145.01,-295.3 138.38,-298.59 131.62,-301.42"/>
<polygon fill="midnightblue" stroke="midnightblue" points="233.55,-215.82 236.78,-205.73 227.96,-211.61 233.55,-215.82"/>
</g>
<!-- Node4 -->
<g id="node4" class="node">
<title>Node4</title>
<g id="a_node4"><a xlink:href="classidg__filter__type.html#a5bcd2051e1c26282e35059a5cd3cb139" target="_top" xlink:title="The constructor.">
<polygon fill="white" stroke="black" points="3,-263 3,-282 148,-282 148,-263 3,-263"/>
<text text-anchor="middle" x="75.5" y="-270" font-family="Helvetica,sans-Serif" font-size="10.00">idg_filter_type\__construct</text>
</a>
</g>
</g>
<!-- Node1&#45;&gt;Node4 -->
<g id="edge3" class="edge">
<title>Node1&#45;&gt;Node4</title>
<path fill="none" stroke="midnightblue" d="M220.6,-211.53C201.97,-225.2 176.1,-242.47 151,-253.5 142.45,-257.26 133,-260.38 123.79,-262.94"/>
<polygon fill="midnightblue" stroke="midnightblue" points="222.71,-214.33 228.63,-205.54 218.52,-208.72 222.71,-214.33"/>
</g>
<!-- Node5 -->
<g id="node5" class="node">
<title>Node5</title>
<g id="a_node5"><a xlink:href="classidg__folder__type.html#a96eb19c506d068c46d54918c04200004" target="_top" xlink:title="The constructor.">
<polygon fill="white" stroke="black" points="0,-225 0,-244 151,-244 151,-225 0,-225"/>
<text text-anchor="middle" x="75.5" y="-232" font-family="Helvetica,sans-Serif" font-size="10.00">idg_folder_type\__construct</text>
</a>
</g>
</g>
<!-- Node1&#45;&gt;Node5 -->
<g id="edge4" class="edge">
<title>Node1&#45;&gt;Node5</title>
<path fill="none" stroke="midnightblue" d="M179.65,-208.11C170.03,-210.6 160.27,-213.12 151,-215.5 138.98,-218.59 125.86,-221.94 114.03,-224.96"/>
<polygon fill="midnightblue" stroke="midnightblue" points="180.79,-211.43 189.59,-205.54 179.03,-204.66 180.79,-211.43"/>
</g>
<!-- Node6 -->
<g id="node6" class="node">
<title>Node6</title>
<g id="a_node6"><a xlink:href="classidg__fragment__type.html#ace52a725a7d30b151604985fd3dc239d" target="_top" xlink:title="The constructor.">
<polygon fill="white" stroke="black" points="19.5,-175.5 19.5,-205.5 131.5,-205.5 131.5,-175.5 19.5,-175.5"/>
<text text-anchor="start" x="27.5" y="-193.5" font-family="Helvetica,sans-Serif" font-size="10.00">idg_fragment_type\</text>
<text text-anchor="middle" x="75.5" y="-182.5" font-family="Helvetica,sans-Serif" font-size="10.00">__construct</text>
</a>
</g>
</g>
<!-- Node1&#45;&gt;Node6 -->
<g id="edge5" class="edge">
<title>Node1&#45;&gt;Node6</title>
<path fill="none" stroke="midnightblue" d="M176.49,-190.5C161.52,-190.5 145.94,-190.5 131.66,-190.5"/>
<polygon fill="midnightblue" stroke="midnightblue" points="176.73,-194 186.73,-190.5 176.73,-187 176.73,-194"/>
</g>
<!-- Node7 -->
<g id="node7" class="node">
<title>Node7</title>
<g id="a_node7"><a xlink:href="classidg__renderer__type.html#a72bd03233fb88598b53dedbc0fd197bf" target="_top" xlink:title="The constructor.">
<polygon fill="white" stroke="black" points="21.5,-126.5 21.5,-156.5 129.5,-156.5 129.5,-126.5 21.5,-126.5"/>
<text text-anchor="start" x="29.5" y="-144.5" font-family="Helvetica,sans-Serif" font-size="10.00">idg_renderer_type\</text>
<text text-anchor="middle" x="75.5" y="-133.5" font-family="Helvetica,sans-Serif" font-size="10.00">__construct</text>
</a>
</g>
</g>
<!-- Node1&#45;&gt;Node7 -->
<g id="edge6" class="edge">
<title>Node1&#45;&gt;Node7</title>
<path fill="none" stroke="midnightblue" d="M185.05,-172.61C166.66,-167.34 146.73,-161.62 129.03,-156.55"/>
<polygon fill="midnightblue" stroke="midnightblue" points="184.22,-176.01 194.8,-175.4 186.15,-169.28 184.22,-176.01"/>
</g>
<!-- Node8 -->
<g id="node8" class="node">
<title>Node8</title>
<g id="a_node8"><a xlink:href="classidg__slot__type.html#aaa71ff7cc37d1f1b38200ea892b96d9b" target="_top" xlink:title="The constructor.">
<polygon fill="white" stroke="black" points="5.5,-88 5.5,-107 145.5,-107 145.5,-88 5.5,-88"/>
<text text-anchor="middle" x="75.5" y="-95" font-family="Helvetica,sans-Serif" font-size="10.00">idg_slot_type\__construct</text>
</a>
</g>
</g>
<!-- Node1&#45;&gt;Node8 -->
<g id="edge7" class="edge">
<title>Node1&#45;&gt;Node8</title>
<path fill="none" stroke="midnightblue" d="M224.09,-168.64C205.54,-152.41 178.29,-130.85 151,-117.5 142.34,-113.26 132.66,-109.83 123.21,-107.08"/>
<polygon fill="midnightblue" stroke="midnightblue" points="221.93,-171.41 231.72,-175.46 226.59,-166.19 221.93,-171.41"/>
</g>
<!-- Node9 -->
<g id="node9" class="node">
<title>Node9</title>
<g id="a_node9"><a xlink:href="classidg__site__type.html#a7db9f166a582cacf48db2208262763bd" target="_top" xlink:title="The constructor.">
<polygon fill="white" stroke="black" points="5.5,-50 5.5,-69 145.5,-69 145.5,-50 5.5,-50"/>
<text text-anchor="middle" x="75.5" y="-57" font-family="Helvetica,sans-Serif" font-size="10.00">idg_site_type\__construct</text>
</a>
</g>
</g>
<!-- Node1&#45;&gt;Node9 -->
<g id="edge8" class="edge">
<title>Node1&#45;&gt;Node9</title>
<path fill="none" stroke="midnightblue" d="M233.16,-166.45C216.6,-140.77 186.95,-100.77 151,-78.5 144.76,-74.63 137.76,-71.55 130.62,-69.1"/>
<polygon fill="midnightblue" stroke="midnightblue" points="230.38,-168.6 238.66,-175.2 236.31,-164.87 230.38,-168.6"/>
</g>
<!-- Node10 -->
<g id="node10" class="node">
<title>Node10</title>
<g id="a_node10"><a xlink:href="classidg__site__element__type.html#a192a58686c7022f327f205ac88857434" target="_top" xlink:title="The constructor.">
<polygon fill="white" stroke="black" points="11.5,-0.5 11.5,-30.5 139.5,-30.5 139.5,-0.5 11.5,-0.5"/>
<text text-anchor="start" x="19.5" y="-18.5" font-family="Helvetica,sans-Serif" font-size="10.00">idg_site_element_type</text>
<text text-anchor="middle" x="75.5" y="-7.5" font-family="Helvetica,sans-Serif" font-size="10.00">\__construct</text>
</a>
</g>
</g>
<!-- Node1&#45;&gt;Node10 -->
<g id="edge9" class="edge">
<title>Node1&#45;&gt;Node10</title>
<path fill="none" stroke="midnightblue" d="M237.89,-165.92C223.73,-132.8 194.18,-74.11 151,-40.5 146.05,-36.65 140.47,-33.37 134.65,-30.59"/>
<polygon fill="midnightblue" stroke="midnightblue" points="234.73,-167.43 241.79,-175.33 241.19,-164.75 234.73,-167.43"/>
</g>
</g>
</svg>
