<?xml version="1.0" encoding="UTF-8" standalone="no"?>
<!DOCTYPE svg PUBLIC "-//W3C//DTD SVG 1.1//EN"
 "http://www.w3.org/Graphics/SVG/1.1/DTD/svg11.dtd">
<!-- Generated by graphviz version 2.43.0 (0)
 -->
<!-- Title: idg_view_html_renderer_phpscript_obj\set_variable Pages: 1 -->
<svg width="340pt" height="100pt"
 viewBox="0.00 0.00 340.00 99.50" xmlns="http://www.w3.org/2000/svg" xmlns:xlink="http://www.w3.org/1999/xlink">
<g id="graph0" class="graph" transform="scale(1 1) rotate(0) translate(4 95.5)">
<title>idg_view_html_renderer_phpscript_obj\set_variable</title>
<polygon fill="white" stroke="transparent" points="-4,4 -4,-95.5 336,-95.5 336,4 -4,4"/>
<!-- Node1 -->
<g id="node1" class="node">
<title>Node1</title>
<g id="a_node1"><a xlink:title=" ">
<polygon fill="#bfbfbf" stroke="black" points="182,-33 182,-63 332,-63 332,-33 182,-33"/>
<text text-anchor="start" x="190" y="-51" font-family="Helvetica,sans-Serif" font-size="10.00">idg_view_html_renderer</text>
<text text-anchor="middle" x="257" y="-40" font-family="Helvetica,sans-Serif" font-size="10.00">_phpscript_obj\set_variable</text>
</a>
</g>
</g>
<!-- Node2 -->
<g id="node2" class="node">
<title>Node2</title>
<g id="a_node2"><a xlink:href="classidg__view__html__renderer__phpscript__obj.html#a41e2328445c57e10801440e2d90ab024" target="_top" xlink:title=" ">
<polygon fill="white" stroke="black" points="0,-61 0,-91 146,-91 146,-61 0,-61"/>
<text text-anchor="start" x="8" y="-79" font-family="Helvetica,sans-Serif" font-size="10.00">idg_view_html_renderer</text>
<text text-anchor="middle" x="73" y="-68" font-family="Helvetica,sans-Serif" font-size="10.00">_phpscript_obj\__construct</text>
</a>
</g>
</g>
<!-- Node1&#45;&gt;Node2 -->
<g id="edge1" class="edge">
<title>Node1&#45;&gt;Node2</title>
<path fill="none" stroke="midnightblue" d="M171.93,-60.93C163.33,-62.26 154.65,-63.59 146.19,-64.89"/>
<polygon fill="midnightblue" stroke="midnightblue" points="172.62,-64.37 181.97,-59.39 171.56,-57.45 172.62,-64.37"/>
</g>
<!-- Node3 -->
<g id="node3" class="node">
<title>Node3</title>
<g id="a_node3"><a xlink:href="classidg__view__html__renderer__phpscript__obj.html#a7379dd1098638843faed2bb3000456ee" target="_top" xlink:title=" ">
<polygon fill="white" stroke="black" points="1.5,-0.5 1.5,-41.5 144.5,-41.5 144.5,-0.5 1.5,-0.5"/>
<text text-anchor="start" x="9.5" y="-29.5" font-family="Helvetica,sans-Serif" font-size="10.00">idg_view_html_renderer</text>
<text text-anchor="start" x="9.5" y="-18.5" font-family="Helvetica,sans-Serif" font-size="10.00">_phpscript_obj\set_invalid</text>
<text text-anchor="middle" x="73" y="-7.5" font-family="Helvetica,sans-Serif" font-size="10.00">_if_empty</text>
</a>
</g>
</g>
<!-- Node1&#45;&gt;Node3 -->
<g id="edge2" class="edge">
<title>Node1&#45;&gt;Node3</title>
<path fill="none" stroke="midnightblue" d="M171.81,-35.51C162.75,-34.17 153.6,-32.81 144.72,-31.49"/>
<polygon fill="midnightblue" stroke="midnightblue" points="171.57,-39.01 181.97,-37.02 172.6,-32.09 171.57,-39.01"/>
</g>
</g>
</svg>
