<?xml version="1.0" encoding="UTF-8" standalone="no"?>
<!DOCTYPE svg PUBLIC "-//W3C//DTD SVG 1.1//EN"
 "http://www.w3.org/Graphics/SVG/1.1/DTD/svg11.dtd">
<!-- Generated by graphviz version 2.43.0 (0)
 -->
<!-- Title: Indigo\Module\Sourcefile\renderer\_render Pages: 1 -->
<svg width="342pt" height="78pt"
 viewBox="0.00 0.00 342.00 77.50" xmlns="http://www.w3.org/2000/svg" xmlns:xlink="http://www.w3.org/1999/xlink">
<g id="graph0" class="graph" transform="scale(1 1) rotate(0) translate(4 73.5)">
<title>Indigo\Module\Sourcefile\renderer\_render</title>
<polygon fill="white" stroke="transparent" points="-4,4 -4,-73.5 338,-73.5 338,4 -4,4"/>
<!-- Node1 -->
<g id="node1" class="node">
<title>Node1</title>
<g id="a_node1"><a xlink:title=" ">
<polygon fill="#bfbfbf" stroke="black" points="0,-17 0,-47 137,-47 137,-17 0,-17"/>
<text text-anchor="start" x="8" y="-35" font-family="Helvetica,sans-Serif" font-size="10.00">Indigo\Module\Sourcefile</text>
<text text-anchor="middle" x="68.5" y="-24" font-family="Helvetica,sans-Serif" font-size="10.00">\renderer\_render</text>
</a>
</g>
</g>
<!-- Node2 -->
<g id="node2" class="node">
<title>Node2</title>
<g id="a_node2"><a xlink:href="classidg__renderer__implementation.html#a0e05067c7abd70005790ab18b3477593" target="_top" xlink:title="Gets the associated datasource object.">
<polygon fill="white" stroke="black" points="173,-39 173,-69 334,-69 334,-39 173,-39"/>
<text text-anchor="start" x="181" y="-57" font-family="Helvetica,sans-Serif" font-size="10.00">idg_renderer_implementation</text>
<text text-anchor="middle" x="253.5" y="-46" font-family="Helvetica,sans-Serif" font-size="10.00">\get_datasource</text>
</a>
</g>
</g>
<!-- Node1&#45;&gt;Node2 -->
<g id="edge1" class="edge">
<title>Node1&#45;&gt;Node2</title>
<path fill="none" stroke="midnightblue" d="M137.12,-40.13C145.47,-41.13 154.09,-42.17 162.7,-43.2"/>
<polygon fill="midnightblue" stroke="midnightblue" points="162.43,-46.7 172.78,-44.42 163.27,-39.75 162.43,-46.7"/>
</g>
<!-- Node3 -->
<g id="node3" class="node">
<title>Node3</title>
<g id="a_node3"><a xlink:href="classidg__view.html#ad55847cece039cda45daac1c6c4b3c2c" target="_top" xlink:title="Write some content to a stream.">
<polygon fill="white" stroke="black" points="184,-0.5 184,-19.5 323,-19.5 323,-0.5 184,-0.5"/>
<text text-anchor="middle" x="253.5" y="-7.5" font-family="Helvetica,sans-Serif" font-size="10.00">idg_view\stream_append</text>
</a>
</g>
</g>
<!-- Node1&#45;&gt;Node3 -->
<g id="edge2" class="edge">
<title>Node1&#45;&gt;Node3</title>
<path fill="none" stroke="midnightblue" d="M137.12,-23.87C149.05,-22.44 161.57,-20.93 173.77,-19.46"/>
<polygon fill="midnightblue" stroke="midnightblue" points="174.42,-22.91 183.93,-18.24 173.59,-15.96 174.42,-22.91"/>
</g>
</g>
</svg>
