<?xml version="1.0" encoding="UTF-8" standalone="no"?>
<!DOCTYPE svg PUBLIC "-//W3C//DTD SVG 1.1//EN"
 "http://www.w3.org/Graphics/SVG/1.1/DTD/svg11.dtd">
<!-- Generated by graphviz version 2.43.0 (0)
 -->
<!-- Title: idg_view_element_type Pages: 1 -->
<svg width="452pt" height="196pt"
 viewBox="0.00 0.00 451.50 196.00" xmlns="http://www.w3.org/2000/svg" xmlns:xlink="http://www.w3.org/1999/xlink">
<g id="graph0" class="graph" transform="scale(1 1) rotate(0) translate(4 192)">
<title>idg_view_element_type</title>
<polygon fill="white" stroke="transparent" points="-4,4 -4,-192 447.5,-192 447.5,4 -4,4"/>
<!-- Node1 -->
<g id="node1" class="node">
<title>Node1</title>
<g id="a_node1"><a xlink:title="Type information for idg_view_element.">
<polygon fill="#bfbfbf" stroke="black" points="173.5,-56.5 173.5,-75.5 306.5,-75.5 306.5,-56.5 173.5,-56.5"/>
<text text-anchor="middle" x="240" y="-63.5" font-family="Helvetica,sans-Serif" font-size="10.00">idg_view_element_type</text>
</a>
</g>
</g>
<!-- Node4 -->
<g id="node4" class="node">
<title>Node4</title>
<g id="a_node4"><a xlink:href="classidg__container__type.html" target="_top" xlink:title="Type information for idg_container.">
<polygon fill="white" stroke="black" points="0,-0.5 0,-19.5 110,-19.5 110,-0.5 0,-0.5"/>
<text text-anchor="middle" x="55" y="-7.5" font-family="Helvetica,sans-Serif" font-size="10.00">idg_container_type</text>
</a>
</g>
</g>
<!-- Node1&#45;&gt;Node4 -->
<g id="edge3" class="edge">
<title>Node1&#45;&gt;Node4</title>
<path fill="none" stroke="midnightblue" d="M200.83,-53.57C165.93,-43.38 115.65,-28.7 84.18,-19.52"/>
<polygon fill="midnightblue" stroke="midnightblue" points="200.11,-57 210.69,-56.44 202.07,-50.28 200.11,-57"/>
</g>
<!-- Node5 -->
<g id="node5" class="node">
<title>Node5</title>
<g id="a_node5"><a xlink:href="classidg__fragment__type.html" target="_top" xlink:title="Type information for idg_fragment.">
<polygon fill="white" stroke="black" points="128.5,-0.5 128.5,-19.5 237.5,-19.5 237.5,-0.5 128.5,-0.5"/>
<text text-anchor="middle" x="183" y="-7.5" font-family="Helvetica,sans-Serif" font-size="10.00">idg_fragment_type</text>
</a>
</g>
</g>
<!-- Node1&#45;&gt;Node5 -->
<g id="edge4" class="edge">
<title>Node1&#45;&gt;Node5</title>
<path fill="none" stroke="midnightblue" d="M223.38,-49.25C213.27,-39.67 200.72,-27.79 192.32,-19.83"/>
<polygon fill="midnightblue" stroke="midnightblue" points="221.18,-51.99 230.84,-56.32 225.99,-46.91 221.18,-51.99"/>
</g>
<!-- Node6 -->
<g id="node6" class="node">
<title>Node6</title>
<g id="a_node6"><a xlink:href="classidg__slot__type.html" target="_top" xlink:title="Type information for idg_slot.">
<polygon fill="white" stroke="black" points="256,-0.5 256,-19.5 338,-19.5 338,-0.5 256,-0.5"/>
<text text-anchor="middle" x="297" y="-7.5" font-family="Helvetica,sans-Serif" font-size="10.00">idg_slot_type</text>
</a>
</g>
</g>
<!-- Node1&#45;&gt;Node6 -->
<g id="edge5" class="edge">
<title>Node1&#45;&gt;Node6</title>
<path fill="none" stroke="midnightblue" d="M256.62,-49.25C266.73,-39.67 279.28,-27.79 287.68,-19.83"/>
<polygon fill="midnightblue" stroke="midnightblue" points="254.01,-46.91 249.16,-56.32 258.82,-51.99 254.01,-46.91"/>
</g>
<!-- Node7 -->
<g id="node7" class="node">
<title>Node7</title>
<g id="a_node7"><a xlink:href="classidg__view__type.html" target="_top" xlink:title="Type information for idg_view.">
<polygon fill="white" stroke="black" points="356.5,-0.5 356.5,-19.5 443.5,-19.5 443.5,-0.5 356.5,-0.5"/>
<text text-anchor="middle" x="400" y="-7.5" font-family="Helvetica,sans-Serif" font-size="10.00">idg_view_type</text>
</a>
</g>
</g>
<!-- Node1&#45;&gt;Node7 -->
<g id="edge6" class="edge">
<title>Node1&#45;&gt;Node7</title>
<path fill="none" stroke="midnightblue" d="M275.05,-53.17C305.17,-43 347.9,-28.59 374.77,-19.52"/>
<polygon fill="midnightblue" stroke="midnightblue" points="273.71,-49.93 265.35,-56.44 275.95,-56.56 273.71,-49.93"/>
</g>
<!-- Node2 -->
<g id="node2" class="node">
<title>Node2</title>
<g id="a_node2"><a xlink:href="classidg__treenode__type.html" target="_top" xlink:title="Type information for idg_treenode.">
<polygon fill="white" stroke="black" points="186.5,-112.5 186.5,-131.5 293.5,-131.5 293.5,-112.5 186.5,-112.5"/>
<text text-anchor="middle" x="240" y="-119.5" font-family="Helvetica,sans-Serif" font-size="10.00">idg_treenode_type</text>
</a>
</g>
</g>
<!-- Node2&#45;&gt;Node1 -->
<g id="edge1" class="edge">
<title>Node2&#45;&gt;Node1</title>
<path fill="none" stroke="midnightblue" d="M240,-101.8C240,-92.91 240,-82.78 240,-75.75"/>
<polygon fill="midnightblue" stroke="midnightblue" points="236.5,-102.08 240,-112.08 243.5,-102.08 236.5,-102.08"/>
</g>
<!-- Node3 -->
<g id="node3" class="node">
<title>Node3</title>
<g id="a_node3"><a xlink:href="classidg__type.html" target="_top" xlink:title="Type information for idg_object.">
<polygon fill="white" stroke="black" points="210.5,-168.5 210.5,-187.5 269.5,-187.5 269.5,-168.5 210.5,-168.5"/>
<text text-anchor="middle" x="240" y="-175.5" font-family="Helvetica,sans-Serif" font-size="10.00">idg_type</text>
</a>
</g>
</g>
<!-- Node3&#45;&gt;Node2 -->
<g id="edge2" class="edge">
<title>Node3&#45;&gt;Node2</title>
<path fill="none" stroke="midnightblue" d="M240,-157.8C240,-148.91 240,-138.78 240,-131.75"/>
<polygon fill="midnightblue" stroke="midnightblue" points="236.5,-158.08 240,-168.08 243.5,-158.08 236.5,-158.08"/>
</g>
</g>
</svg>
