<?xml version="1.0" encoding="UTF-8" standalone="no"?>
<!DOCTYPE svg PUBLIC "-//W3C//DTD SVG 1.1//EN"
 "http://www.w3.org/Graphics/SVG/1.1/DTD/svg11.dtd">
<!-- Generated by graphviz version 2.43.0 (0)
 -->
<!-- Title: idg_renderer_type\__construct Pages: 1 -->
<svg width="298pt" height="78pt"
 viewBox="0.00 0.00 298.00 77.50" xmlns="http://www.w3.org/2000/svg" xmlns:xlink="http://www.w3.org/1999/xlink">
<g id="graph0" class="graph" transform="scale(1 1) rotate(0) translate(4 73.5)">
<title>idg_renderer_type\__construct</title>
<polygon fill="white" stroke="transparent" points="-4,4 -4,-73.5 294,-73.5 294,4 -4,4"/>
<!-- Node1 -->
<g id="node1" class="node">
<title>Node1</title>
<g id="a_node1"><a xlink:title="The constructor.">
<polygon fill="#bfbfbf" stroke="black" points="0,-22.5 0,-52.5 108,-52.5 108,-22.5 0,-22.5"/>
<text text-anchor="start" x="8" y="-40.5" font-family="Helvetica,sans-Serif" font-size="10.00">idg_renderer_type\</text>
<text text-anchor="middle" x="54" y="-29.5" font-family="Helvetica,sans-Serif" font-size="10.00">__construct</text>
</a>
</g>
</g>
<!-- Node2 -->
<g id="node2" class="node">
<title>Node2</title>
<g id="a_node2"><a xlink:href="classidg__type.html#af530414c3e87419b503a207f8bda9abb" target="_top" xlink:title="Adds a name to the list of known properties.">
<polygon fill="white" stroke="black" points="144,-50 144,-69 290,-69 290,-50 144,-50"/>
<text text-anchor="middle" x="217" y="-57" font-family="Helvetica,sans-Serif" font-size="10.00">idg_type\register_property</text>
</a>
</g>
</g>
<!-- Node1&#45;&gt;Node2 -->
<g id="edge1" class="edge">
<title>Node1&#45;&gt;Node2</title>
<path fill="none" stroke="midnightblue" d="M108.16,-44.76C117.2,-46 126.77,-47.31 136.32,-48.61"/>
<polygon fill="midnightblue" stroke="midnightblue" points="135.86,-52.08 146.24,-49.97 136.8,-45.15 135.86,-52.08"/>
</g>
<!-- Node3 -->
<g id="node3" class="node">
<title>Node3</title>
<g id="a_node3"><a xlink:href="classidg__type.html#ab5d4ce497e00d120b942acb9372c214f" target="_top" xlink:title="Sets whether an existing property is mandatory.">
<polygon fill="white" stroke="black" points="155.5,-0.5 155.5,-30.5 278.5,-30.5 278.5,-0.5 155.5,-0.5"/>
<text text-anchor="start" x="163.5" y="-18.5" font-family="Helvetica,sans-Serif" font-size="10.00">idg_type\set_property</text>
<text text-anchor="middle" x="217" y="-7.5" font-family="Helvetica,sans-Serif" font-size="10.00">_mandatory</text>
</a>
</g>
</g>
<!-- Node1&#45;&gt;Node3 -->
<g id="edge2" class="edge">
<title>Node1&#45;&gt;Node3</title>
<path fill="none" stroke="midnightblue" d="M108.16,-30.24C120.09,-28.61 132.92,-26.85 145.43,-25.14"/>
<polygon fill="midnightblue" stroke="midnightblue" points="145.93,-28.61 155.37,-23.79 144.99,-21.67 145.93,-28.61"/>
</g>
</g>
</svg>
