<?xml version="1.0" encoding="UTF-8" standalone="no"?>
<!DOCTYPE svg PUBLIC "-//W3C//DTD SVG 1.1//EN"
 "http://www.w3.org/Graphics/SVG/1.1/DTD/svg11.dtd">
<!-- Generated by graphviz version 2.43.0 (0)
 -->
<!-- Title: idg_treenode_type Pages: 1 -->
<svg width="528pt" height="256pt"
 viewBox="0.00 0.00 528.00 256.00" xmlns="http://www.w3.org/2000/svg" xmlns:xlink="http://www.w3.org/1999/xlink">
<g id="graph0" class="graph" transform="scale(1 1) rotate(0) translate(4 252)">
<title>idg_treenode_type</title>
<polygon fill="white" stroke="transparent" points="-4,4 -4,-252 524,-252 524,4 -4,4"/>
<!-- Node1 -->
<g id="node1" class="node">
<title>Node1</title>
<g id="a_node1"><a xlink:title="Type information for idg_treenode.">
<polygon fill="#bfbfbf" stroke="black" points="95,-171.5 95,-190.5 202,-190.5 202,-171.5 95,-171.5"/>
<text text-anchor="middle" x="148.5" y="-178.5" font-family="Helvetica,sans-Serif" font-size="10.00">idg_treenode_type</text>
</a>
</g>
</g>
<!-- Node3 -->
<g id="node3" class="node">
<title>Node3</title>
<g id="a_node3"><a xlink:href="classidg__filter__type.html" target="_top" xlink:title="Type information for idg_filter.">
<polygon fill="white" stroke="black" points="261.5,-209.5 261.5,-228.5 347.5,-228.5 347.5,-209.5 261.5,-209.5"/>
<text text-anchor="middle" x="304.5" y="-216.5" font-family="Helvetica,sans-Serif" font-size="10.00">idg_filter_type</text>
</a>
</g>
</g>
<!-- Node1&#45;&gt;Node3 -->
<g id="edge2" class="edge">
<title>Node1&#45;&gt;Node3</title>
<path fill="none" stroke="midnightblue" d="M198.29,-193.04C219.81,-198.35 244.73,-204.5 264.92,-209.48"/>
<polygon fill="midnightblue" stroke="midnightblue" points="198.91,-189.59 188.36,-190.59 197.23,-196.38 198.91,-189.59"/>
</g>
<!-- Node4 -->
<g id="node4" class="node">
<title>Node4</title>
<g id="a_node4"><a xlink:href="classidg__site__element__type.html" target="_top" xlink:title="Type information for idg_site_element.">
<polygon fill="white" stroke="black" points="240.5,-171.5 240.5,-190.5 368.5,-190.5 368.5,-171.5 240.5,-171.5"/>
<text text-anchor="middle" x="304.5" y="-178.5" font-family="Helvetica,sans-Serif" font-size="10.00">idg_site_element_type</text>
</a>
</g>
</g>
<!-- Node1&#45;&gt;Node4 -->
<g id="edge3" class="edge">
<title>Node1&#45;&gt;Node4</title>
<path fill="none" stroke="midnightblue" d="M212.32,-181C221.54,-181 231.04,-181 240.26,-181"/>
<polygon fill="midnightblue" stroke="midnightblue" points="212.07,-177.5 202.07,-181 212.07,-184.5 212.07,-177.5"/>
</g>
<!-- Node8 -->
<g id="node8" class="node">
<title>Node8</title>
<g id="a_node8"><a xlink:href="classidg__view__element__type.html" target="_top" xlink:title="Type information for idg_view_element.">
<polygon fill="white" stroke="black" points="238,-76.5 238,-95.5 371,-95.5 371,-76.5 238,-76.5"/>
<text text-anchor="middle" x="304.5" y="-83.5" font-family="Helvetica,sans-Serif" font-size="10.00">idg_view_element_type</text>
</a>
</g>
</g>
<!-- Node1&#45;&gt;Node8 -->
<g id="edge7" class="edge">
<title>Node1&#45;&gt;Node8</title>
<path fill="none" stroke="midnightblue" d="M173.85,-165.98C205.79,-146.27 260.95,-112.25 287.84,-95.66"/>
<polygon fill="midnightblue" stroke="midnightblue" points="171.79,-163.14 165.11,-171.37 175.46,-169.1 171.79,-163.14"/>
</g>
<!-- Node2 -->
<g id="node2" class="node">
<title>Node2</title>
<g id="a_node2"><a xlink:href="classidg__type.html" target="_top" xlink:title="Type information for idg_object.">
<polygon fill="white" stroke="black" points="0,-171.5 0,-190.5 59,-190.5 59,-171.5 0,-171.5"/>
<text text-anchor="middle" x="29.5" y="-178.5" font-family="Helvetica,sans-Serif" font-size="10.00">idg_type</text>
</a>
</g>
</g>
<!-- Node2&#45;&gt;Node1 -->
<g id="edge1" class="edge">
<title>Node2&#45;&gt;Node1</title>
<path fill="none" stroke="midnightblue" d="M69.2,-181C77.45,-181 86.3,-181 94.97,-181"/>
<polygon fill="midnightblue" stroke="midnightblue" points="69.12,-177.5 59.12,-181 69.12,-184.5 69.12,-177.5"/>
</g>
<!-- Node5 -->
<g id="node5" class="node">
<title>Node5</title>
<g id="a_node5"><a xlink:href="classidg__document__type.html" target="_top" xlink:title="Type information for idg_document.">
<polygon fill="white" stroke="black" points="407,-228.5 407,-247.5 520,-247.5 520,-228.5 407,-228.5"/>
<text text-anchor="middle" x="463.5" y="-235.5" font-family="Helvetica,sans-Serif" font-size="10.00">idg_document_type</text>
</a>
</g>
</g>
<!-- Node4&#45;&gt;Node5 -->
<g id="edge4" class="edge">
<title>Node4&#45;&gt;Node5</title>
<path fill="none" stroke="midnightblue" d="M352.94,-193.52C359.08,-195.5 365.24,-197.67 371,-200 387.77,-206.78 390.39,-211.83 407,-219 414.95,-222.43 423.74,-225.68 431.93,-228.49"/>
<polygon fill="midnightblue" stroke="midnightblue" points="353.94,-190.16 343.36,-190.56 351.88,-196.85 353.94,-190.16"/>
</g>
<!-- Node6 -->
<g id="node6" class="node">
<title>Node6</title>
<g id="a_node6"><a xlink:href="classidg__folder__type.html" target="_top" xlink:title="Type information for idg_folder.">
<polygon fill="white" stroke="black" points="417.5,-190.5 417.5,-209.5 509.5,-209.5 509.5,-190.5 417.5,-190.5"/>
<text text-anchor="middle" x="463.5" y="-197.5" font-family="Helvetica,sans-Serif" font-size="10.00">idg_folder_type</text>
</a>
</g>
</g>
<!-- Node4&#45;&gt;Node6 -->
<g id="edge5" class="edge">
<title>Node4&#45;&gt;Node6</title>
<path fill="none" stroke="midnightblue" d="M378.84,-189.88C391.92,-191.46 405.19,-193.06 417.19,-194.52"/>
<polygon fill="midnightblue" stroke="midnightblue" points="379.25,-186.4 368.91,-188.67 378.41,-193.35 379.25,-186.4"/>
</g>
<!-- Node7 -->
<g id="node7" class="node">
<title>Node7</title>
<g id="a_node7"><a xlink:href="classidg__site__type.html" target="_top" xlink:title="Type information for idg_site.">
<polygon fill="white" stroke="black" points="422.5,-152.5 422.5,-171.5 504.5,-171.5 504.5,-152.5 422.5,-152.5"/>
<text text-anchor="middle" x="463.5" y="-159.5" font-family="Helvetica,sans-Serif" font-size="10.00">idg_site_type</text>
</a>
</g>
</g>
<!-- Node4&#45;&gt;Node7 -->
<g id="edge6" class="edge">
<title>Node4&#45;&gt;Node7</title>
<path fill="none" stroke="midnightblue" d="M379.14,-172.09C394.03,-170.29 409.14,-168.46 422.34,-166.86"/>
<polygon fill="midnightblue" stroke="midnightblue" points="378.41,-168.65 368.91,-173.33 379.25,-175.6 378.41,-168.65"/>
</g>
<!-- Node9 -->
<g id="node9" class="node">
<title>Node9</title>
<g id="a_node9"><a xlink:href="classidg__container__type.html" target="_top" xlink:title="Type information for idg_container.">
<polygon fill="white" stroke="black" points="408.5,-114.5 408.5,-133.5 518.5,-133.5 518.5,-114.5 408.5,-114.5"/>
<text text-anchor="middle" x="463.5" y="-121.5" font-family="Helvetica,sans-Serif" font-size="10.00">idg_container_type</text>
</a>
</g>
</g>
<!-- Node8&#45;&gt;Node9 -->
<g id="edge8" class="edge">
<title>Node8&#45;&gt;Node9</title>
<path fill="none" stroke="midnightblue" d="M354.95,-97.97C376.95,-103.29 402.49,-109.48 423.17,-114.48"/>
<polygon fill="midnightblue" stroke="midnightblue" points="355.66,-94.54 345.12,-95.59 354.01,-101.34 355.66,-94.54"/>
</g>
<!-- Node10 -->
<g id="node10" class="node">
<title>Node10</title>
<g id="a_node10"><a xlink:href="classidg__fragment__type.html" target="_top" xlink:title="Type information for idg_fragment.">
<polygon fill="white" stroke="black" points="409,-76.5 409,-95.5 518,-95.5 518,-76.5 409,-76.5"/>
<text text-anchor="middle" x="463.5" y="-83.5" font-family="Helvetica,sans-Serif" font-size="10.00">idg_fragment_type</text>
</a>
</g>
</g>
<!-- Node8&#45;&gt;Node10 -->
<g id="edge9" class="edge">
<title>Node8&#45;&gt;Node10</title>
<path fill="none" stroke="midnightblue" d="M381.29,-86C390.65,-86 400.07,-86 409,-86"/>
<polygon fill="midnightblue" stroke="midnightblue" points="381.17,-82.5 371.17,-86 381.17,-89.5 381.17,-82.5"/>
</g>
<!-- Node11 -->
<g id="node11" class="node">
<title>Node11</title>
<g id="a_node11"><a xlink:href="classidg__slot__type.html" target="_top" xlink:title="Type information for idg_slot.">
<polygon fill="white" stroke="black" points="422.5,-38.5 422.5,-57.5 504.5,-57.5 504.5,-38.5 422.5,-38.5"/>
<text text-anchor="middle" x="463.5" y="-45.5" font-family="Helvetica,sans-Serif" font-size="10.00">idg_slot_type</text>
</a>
</g>
</g>
<!-- Node8&#45;&gt;Node11 -->
<g id="edge10" class="edge">
<title>Node8&#45;&gt;Node11</title>
<path fill="none" stroke="midnightblue" d="M354.95,-74.03C376.95,-68.71 402.49,-62.52 423.17,-57.52"/>
<polygon fill="midnightblue" stroke="midnightblue" points="354.01,-70.66 345.12,-76.41 355.66,-77.46 354.01,-70.66"/>
</g>
<!-- Node12 -->
<g id="node12" class="node">
<title>Node12</title>
<g id="a_node12"><a xlink:href="classidg__view__type.html" target="_top" xlink:title="Type information for idg_view.">
<polygon fill="white" stroke="black" points="420,-0.5 420,-19.5 507,-19.5 507,-0.5 420,-0.5"/>
<text text-anchor="middle" x="463.5" y="-7.5" font-family="Helvetica,sans-Serif" font-size="10.00">idg_view_type</text>
</a>
</g>
</g>
<!-- Node8&#45;&gt;Node12 -->
<g id="edge11" class="edge">
<title>Node8&#45;&gt;Node12</title>
<path fill="none" stroke="midnightblue" d="M329.05,-71.15C349.23,-58.83 379.32,-41.38 407,-29 414.72,-25.55 423.26,-22.34 431.29,-19.57"/>
<polygon fill="midnightblue" stroke="midnightblue" points="327.2,-68.18 320.53,-76.41 330.87,-74.14 327.2,-68.18"/>
</g>
</g>
</svg>
