<?xml version="1.0" encoding="UTF-8" standalone="no"?>
<!DOCTYPE svg PUBLIC "-//W3C//DTD SVG 1.1//EN"
 "http://www.w3.org/Graphics/SVG/1.1/DTD/svg11.dtd">
<!-- Generated by graphviz version 2.43.0 (0)
 -->
<!-- Title: idg_tree_node_implementation\get_idg_id Pages: 1 -->
<svg width="347pt" height="186pt"
 viewBox="0.00 0.00 347.00 186.00" xmlns="http://www.w3.org/2000/svg" xmlns:xlink="http://www.w3.org/1999/xlink">
<g id="graph0" class="graph" transform="scale(1 1) rotate(0) translate(4 182)">
<title>idg_tree_node_implementation\get_idg_id</title>
<polygon fill="white" stroke="transparent" points="-4,4 -4,-182 343,-182 343,4 -4,4"/>
<!-- Node1 -->
<g id="node1" class="node">
<title>Node1</title>
<g id="a_node1"><a xlink:title=" ">
<polygon fill="#bfbfbf" stroke="black" points="170,-73.5 170,-103.5 339,-103.5 339,-73.5 170,-73.5"/>
<text text-anchor="start" x="178" y="-91.5" font-family="Helvetica,sans-Serif" font-size="10.00">idg_tree_node_implementation</text>
<text text-anchor="middle" x="254.5" y="-80.5" font-family="Helvetica,sans-Serif" font-size="10.00">\get_idg_id</text>
</a>
</g>
</g>
<!-- Node2 -->
<g id="node2" class="node">
<title>Node2</title>
<g id="a_node2"><a xlink:href="classidg__view__html__item__image.html#ae53e0d18e7400c9b1d01f74bc8a84536" target="_top" xlink:title=" ">
<polygon fill="white" stroke="black" points="9,-147.5 9,-177.5 125,-177.5 125,-147.5 9,-147.5"/>
<text text-anchor="start" x="17" y="-165.5" font-family="Helvetica,sans-Serif" font-size="10.00">idg_view_html_item</text>
<text text-anchor="middle" x="67" y="-154.5" font-family="Helvetica,sans-Serif" font-size="10.00">_image\render</text>
</a>
</g>
</g>
<!-- Node1&#45;&gt;Node2 -->
<g id="edge1" class="edge">
<title>Node1&#45;&gt;Node2</title>
<path fill="none" stroke="midnightblue" d="M209.37,-107.55C186.91,-117.1 159.11,-128.69 134,-138.5 126.39,-141.47 118.24,-144.53 110.36,-147.43"/>
<polygon fill="midnightblue" stroke="midnightblue" points="210.82,-110.74 218.64,-103.6 208.07,-104.3 210.82,-110.74"/>
</g>
<!-- Node3 -->
<g id="node3" class="node">
<title>Node3</title>
<g id="a_node3"><a xlink:href="classidg__view__html__item__text.html#a723147371558095783bc6fbd4ff71158" target="_top" xlink:title=" ">
<polygon fill="white" stroke="black" points="9,-98.5 9,-128.5 125,-128.5 125,-98.5 9,-98.5"/>
<text text-anchor="start" x="17" y="-116.5" font-family="Helvetica,sans-Serif" font-size="10.00">idg_view_html_item</text>
<text text-anchor="middle" x="67" y="-105.5" font-family="Helvetica,sans-Serif" font-size="10.00">_text\render</text>
</a>
</g>
</g>
<!-- Node1&#45;&gt;Node3 -->
<g id="edge2" class="edge">
<title>Node1&#45;&gt;Node3</title>
<path fill="none" stroke="midnightblue" d="M159.97,-101.1C148.05,-102.71 136.15,-104.32 125.05,-105.81"/>
<polygon fill="midnightblue" stroke="midnightblue" points="160.53,-104.56 169.98,-99.76 159.6,-97.62 160.53,-104.56"/>
</g>
<!-- Node4 -->
<g id="node4" class="node">
<title>Node4</title>
<g id="a_node4"><a xlink:href="classidg__view__html__part__fixedcontent.html#aface840104117acc29a8835aeb774f7b" target="_top" xlink:title=" ">
<polygon fill="white" stroke="black" points="9,-49.5 9,-79.5 125,-79.5 125,-49.5 9,-49.5"/>
<text text-anchor="start" x="17" y="-67.5" font-family="Helvetica,sans-Serif" font-size="10.00">idg_view_html_part</text>
<text text-anchor="middle" x="67" y="-56.5" font-family="Helvetica,sans-Serif" font-size="10.00">_fixedcontent\render</text>
</a>
</g>
</g>
<!-- Node1&#45;&gt;Node4 -->
<g id="edge3" class="edge">
<title>Node1&#45;&gt;Node4</title>
<path fill="none" stroke="midnightblue" d="M159.97,-76.4C148.05,-74.86 136.15,-73.32 125.05,-71.88"/>
<polygon fill="midnightblue" stroke="midnightblue" points="159.61,-79.88 169.98,-77.69 160.51,-72.94 159.61,-79.88"/>
</g>
<!-- Node5 -->
<g id="node5" class="node">
<title>Node5</title>
<g id="a_node5"><a xlink:href="classidg__view__html__renderer__phpscript.html#a1b7529fcacaa0e283a2f8e8ecbfb10e6" target="_top" xlink:title=" ">
<polygon fill="white" stroke="black" points="0,-0.5 0,-30.5 134,-30.5 134,-0.5 0,-0.5"/>
<text text-anchor="start" x="8" y="-18.5" font-family="Helvetica,sans-Serif" font-size="10.00">idg_view_html_renderer</text>
<text text-anchor="middle" x="67" y="-7.5" font-family="Helvetica,sans-Serif" font-size="10.00">_phpscript\render</text>
</a>
</g>
</g>
<!-- Node1&#45;&gt;Node5 -->
<g id="edge4" class="edge">
<title>Node1&#45;&gt;Node5</title>
<path fill="none" stroke="midnightblue" d="M207.22,-69.66C185.1,-60.72 158.22,-49.95 134,-40.5 125.67,-37.25 116.72,-33.82 108.19,-30.58"/>
<polygon fill="midnightblue" stroke="midnightblue" points="206.12,-72.99 216.7,-73.5 208.74,-66.5 206.12,-72.99"/>
</g>
</g>
</svg>
