<?xml version="1.0" encoding="UTF-8" standalone="no"?>
<!DOCTYPE svg PUBLIC "-//W3C//DTD SVG 1.1//EN"
 "http://www.w3.org/Graphics/SVG/1.1/DTD/svg11.dtd">
<!-- Generated by graphviz version 2.43.0 (0)
 -->
<!-- Title: idg_treenode\add_child Pages: 1 -->
<svg width="308pt" height="66pt"
 viewBox="0.00 0.00 308.00 66.00" xmlns="http://www.w3.org/2000/svg" xmlns:xlink="http://www.w3.org/1999/xlink">
<g id="graph0" class="graph" transform="scale(1 1) rotate(0) translate(4 62)">
<title>idg_treenode\add_child</title>
<polygon fill="white" stroke="transparent" points="-4,4 -4,-62 304,-62 304,4 -4,4"/>
<!-- Node1 -->
<g id="node1" class="node">
<title>Node1</title>
<g id="a_node1"><a xlink:title="Adds a child to the node.">
<polygon fill="#bfbfbf" stroke="black" points="0,-19.5 0,-38.5 130,-38.5 130,-19.5 0,-19.5"/>
<text text-anchor="middle" x="65" y="-26.5" font-family="Helvetica,sans-Serif" font-size="10.00">idg_treenode\add_child</text>
</a>
</g>
</g>
<!-- Node2 -->
<g id="node2" class="node">
<title>Node2</title>
<g id="a_node2"><a xlink:href="diagnostics_8php.html#adb7dcc2469f04d5090cd68dc99cc5061" target="_top" xlink:title="Prints as much information as possible and then terminates execution calling die().">
<polygon fill="white" stroke="black" points="204,-38.5 204,-57.5 262,-57.5 262,-38.5 204,-38.5"/>
<text text-anchor="middle" x="233" y="-45.5" font-family="Helvetica,sans-Serif" font-size="10.00">idg_diag</text>
</a>
</g>
</g>
<!-- Node1&#45;&gt;Node2 -->
<g id="edge1" class="edge">
<title>Node1&#45;&gt;Node2</title>
<path fill="none" stroke="midnightblue" d="M130.18,-36.35C151.73,-38.81 175.08,-41.48 193.97,-43.65"/>
<polygon fill="midnightblue" stroke="midnightblue" points="193.63,-47.13 203.96,-44.79 194.43,-40.18 193.63,-47.13"/>
</g>
<!-- Node3 -->
<g id="node3" class="node">
<title>Node3</title>
<g id="a_node3"><a xlink:href="classidg__leafnode.html#a69bead9c67af8414bc072edfe30d52e2" target="_top" xlink:title="Set the parent object.">
<polygon fill="white" stroke="black" points="166,-0.5 166,-19.5 300,-19.5 300,-0.5 166,-0.5"/>
<text text-anchor="middle" x="233" y="-7.5" font-family="Helvetica,sans-Serif" font-size="10.00">idg_leafnode\set_parent</text>
</a>
</g>
</g>
<!-- Node1&#45;&gt;Node3 -->
<g id="edge2" class="edge">
<title>Node1&#45;&gt;Node3</title>
<path fill="none" stroke="midnightblue" d="M130.18,-21.65C138.57,-20.69 147.24,-19.7 155.81,-18.72"/>
<polygon fill="midnightblue" stroke="midnightblue" points="156.26,-22.19 165.8,-17.58 155.46,-15.24 156.26,-22.19"/>
</g>
</g>
</svg>
