<?xml version="1.0" encoding="UTF-8" standalone="no"?>
<!DOCTYPE svg PUBLIC "-//W3C//DTD SVG 1.1//EN"
 "http://www.w3.org/Graphics/SVG/1.1/DTD/svg11.dtd">
<!-- Generated by graphviz version 2.43.0 (0)
 -->
<!-- Title: idg_datasource_type\__construct Pages: 1 -->
<svg width="308pt" height="78pt"
 viewBox="0.00 0.00 308.00 77.50" xmlns="http://www.w3.org/2000/svg" xmlns:xlink="http://www.w3.org/1999/xlink">
<g id="graph0" class="graph" transform="scale(1 1) rotate(0) translate(4 73.5)">
<title>idg_datasource_type\__construct</title>
<polygon fill="white" stroke="transparent" points="-4,4 -4,-73.5 304,-73.5 304,4 -4,4"/>
<!-- Node1 -->
<g id="node1" class="node">
<title>Node1</title>
<g id="a_node1"><a xlink:title="The constructor.">
<polygon fill="#bfbfbf" stroke="black" points="0,-22.5 0,-52.5 118,-52.5 118,-22.5 0,-22.5"/>
<text text-anchor="start" x="8" y="-40.5" font-family="Helvetica,sans-Serif" font-size="10.00">idg_datasource_type</text>
<text text-anchor="middle" x="59" y="-29.5" font-family="Helvetica,sans-Serif" font-size="10.00">\__construct</text>
</a>
</g>
</g>
<!-- Node2 -->
<g id="node2" class="node">
<title>Node2</title>
<g id="a_node2"><a xlink:href="classidg__type.html#af530414c3e87419b503a207f8bda9abb" target="_top" xlink:title="Adds a name to the list of known properties.">
<polygon fill="white" stroke="black" points="154,-50 154,-69 300,-69 300,-50 154,-50"/>
<text text-anchor="middle" x="227" y="-57" font-family="Helvetica,sans-Serif" font-size="10.00">idg_type\register_property</text>
</a>
</g>
</g>
<!-- Node1&#45;&gt;Node2 -->
<g id="edge1" class="edge">
<title>Node1&#45;&gt;Node2</title>
<path fill="none" stroke="midnightblue" d="M118.06,-45.19C126.55,-46.32 135.43,-47.5 144.28,-48.67"/>
<polygon fill="midnightblue" stroke="midnightblue" points="143.88,-52.15 154.25,-49.99 144.8,-45.21 143.88,-52.15"/>
</g>
<!-- Node3 -->
<g id="node3" class="node">
<title>Node3</title>
<g id="a_node3"><a xlink:href="classidg__type.html#ab5d4ce497e00d120b942acb9372c214f" target="_top" xlink:title="Sets whether an existing property is mandatory.">
<polygon fill="white" stroke="black" points="165.5,-0.5 165.5,-30.5 288.5,-30.5 288.5,-0.5 165.5,-0.5"/>
<text text-anchor="start" x="173.5" y="-18.5" font-family="Helvetica,sans-Serif" font-size="10.00">idg_type\set_property</text>
<text text-anchor="middle" x="227" y="-7.5" font-family="Helvetica,sans-Serif" font-size="10.00">_mandatory</text>
</a>
</g>
</g>
<!-- Node1&#45;&gt;Node3 -->
<g id="edge2" class="edge">
<title>Node1&#45;&gt;Node3</title>
<path fill="none" stroke="midnightblue" d="M118.06,-29.81C130.04,-28.22 142.78,-26.53 155.16,-24.89"/>
<polygon fill="midnightblue" stroke="midnightblue" points="155.99,-28.31 165.44,-23.53 155.07,-21.37 155.99,-28.31"/>
</g>
</g>
</svg>
