<?xml version="1.0" encoding="UTF-8" standalone="no"?>
<!DOCTYPE svg PUBLIC "-//W3C//DTD SVG 1.1//EN"
 "http://www.w3.org/Graphics/SVG/1.1/DTD/svg11.dtd">
<!-- Generated by graphviz version 2.43.0 (0)
 -->
<!-- Title: idg_parameterized_instance\set_option Pages: 1 -->
<svg width="531pt" height="39pt"
 viewBox="0.00 0.00 531.00 39.00" xmlns="http://www.w3.org/2000/svg" xmlns:xlink="http://www.w3.org/1999/xlink">
<g id="graph0" class="graph" transform="scale(1 1) rotate(0) translate(4 35)">
<title>idg_parameterized_instance\set_option</title>
<polygon fill="white" stroke="transparent" points="-4,4 -4,-35 527,-35 527,4 -4,4"/>
<!-- Node1 -->
<g id="node1" class="node">
<title>Node1</title>
<g id="a_node1"><a xlink:title=" ">
<polygon fill="#bfbfbf" stroke="black" points="368,-0.5 368,-30.5 523,-30.5 523,-0.5 368,-0.5"/>
<text text-anchor="start" x="376" y="-18.5" font-family="Helvetica,sans-Serif" font-size="10.00">idg_parameterized_instance</text>
<text text-anchor="middle" x="445.5" y="-7.5" font-family="Helvetica,sans-Serif" font-size="10.00">\set_option</text>
</a>
</g>
</g>
<!-- Node2 -->
<g id="node2" class="node">
<title>Node2</title>
<g id="a_node2"><a xlink:href="classidg__parameterized__instance.html#a4c866c7eaf7b9f7f697fc7a87829519c" target="_top" xlink:title=" ">
<polygon fill="white" stroke="black" points="177,-0.5 177,-30.5 332,-30.5 332,-0.5 177,-0.5"/>
<text text-anchor="start" x="185" y="-18.5" font-family="Helvetica,sans-Serif" font-size="10.00">idg_parameterized_instance</text>
<text text-anchor="middle" x="254.5" y="-7.5" font-family="Helvetica,sans-Serif" font-size="10.00">\set_options</text>
</a>
</g>
</g>
<!-- Node1&#45;&gt;Node2 -->
<g id="edge1" class="edge">
<title>Node1&#45;&gt;Node2</title>
<path fill="none" stroke="midnightblue" d="M357.9,-15.5C349.33,-15.5 340.67,-15.5 332.21,-15.5"/>
<polygon fill="midnightblue" stroke="midnightblue" points="357.9,-19 367.9,-15.5 357.9,-12 357.9,-19"/>
</g>
<!-- Node3 -->
<g id="node3" class="node">
<title>Node3</title>
<g id="a_node3"><a xlink:href="classidg__attribute.html#aa337e86a65f2abb6758f393bc86e37b3" target="_top" xlink:title="Causes the attribute to inherit all instances in and above a given tree node.">
<polygon fill="white" stroke="black" points="0,-6 0,-25 141,-25 141,-6 0,-6"/>
<text text-anchor="middle" x="70.5" y="-13" font-family="Helvetica,sans-Serif" font-size="10.00">idg_attribute\add_options</text>
</a>
</g>
</g>
<!-- Node2&#45;&gt;Node3 -->
<g id="edge2" class="edge">
<title>Node2&#45;&gt;Node3</title>
<path fill="none" stroke="midnightblue" d="M166.78,-15.5C158.18,-15.5 149.52,-15.5 141.12,-15.5"/>
<polygon fill="midnightblue" stroke="midnightblue" points="166.84,-19 176.84,-15.5 166.84,-12 166.84,-19"/>
</g>
</g>
</svg>
