<?xml version="1.0" encoding="UTF-8" standalone="no"?>
<!DOCTYPE svg PUBLIC "-//W3C//DTD SVG 1.1//EN"
 "http://www.w3.org/Graphics/SVG/1.1/DTD/svg11.dtd">
<!-- Generated by graphviz version 2.43.0 (0)
 -->
<!-- Title: idg_object\execute Pages: 1 -->
<svg width="663pt" height="553pt"
 viewBox="0.00 0.00 663.00 552.50" xmlns="http://www.w3.org/2000/svg" xmlns:xlink="http://www.w3.org/1999/xlink">
<g id="graph0" class="graph" transform="scale(1 1) rotate(0) translate(4 548.5)">
<title>idg_object\execute</title>
<polygon fill="white" stroke="transparent" points="-4,4 -4,-548.5 659,-548.5 659,4 -4,4"/>
<!-- Node1 -->
<g id="node1" class="node">
<title>Node1</title>
<g id="a_node1"><a xlink:title="Executes members of this object and global functions.">
<polygon fill="#bfbfbf" stroke="black" points="547,-126 547,-145 655,-145 655,-126 547,-126"/>
<text text-anchor="middle" x="601" y="-133" font-family="Helvetica,sans-Serif" font-size="10.00">idg_object\execute</text>
</a>
</g>
</g>
<!-- Node2 -->
<g id="node2" class="node">
<title>Node2</title>
<g id="a_node2"><a xlink:href="classidg__object.html#ac54f91fd013c01d09e085472d6bdb6e8" target="_top" xlink:title=" ">
<polygon fill="white" stroke="black" points="379,-224 379,-243 511,-243 511,-224 379,-224"/>
<text text-anchor="middle" x="445" y="-231" font-family="Helvetica,sans-Serif" font-size="10.00">idg_object\get_property</text>
</a>
</g>
</g>
<!-- Node1&#45;&gt;Node2 -->
<g id="edge1" class="edge">
<title>Node1&#45;&gt;Node2</title>
<path fill="none" stroke="midnightblue" d="M576.23,-150.62C544.25,-170.98 488.27,-206.6 461.34,-223.74"/>
<polygon fill="midnightblue" stroke="midnightblue" points="578.4,-153.4 584.95,-145.08 574.64,-147.49 578.4,-153.4"/>
</g>
<!-- Node17 -->
<g id="node17" class="node">
<title>Node17</title>
<g id="a_node17"><a xlink:href="classidg__object.html#ab7d008607f7a1d343deae48977d568de" target="_top" xlink:title=" ">
<polygon fill="white" stroke="black" points="201.5,-0.5 201.5,-30.5 333.5,-30.5 333.5,-0.5 201.5,-0.5"/>
<text text-anchor="start" x="209.5" y="-18.5" font-family="Helvetica,sans-Serif" font-size="10.00">idg_object\get_property</text>
<text text-anchor="middle" x="267.5" y="-7.5" font-family="Helvetica,sans-Serif" font-size="10.00">_values</text>
</a>
</g>
</g>
<!-- Node1&#45;&gt;Node17 -->
<g id="edge20" class="edge">
<title>Node1&#45;&gt;Node17</title>
<path fill="none" stroke="midnightblue" d="M565.39,-122.33C516.14,-103.67 422.96,-68.69 343,-40.5 333.74,-37.23 323.79,-33.83 314.28,-30.62"/>
<polygon fill="midnightblue" stroke="midnightblue" points="564.33,-125.67 574.92,-125.94 566.81,-119.12 564.33,-125.67"/>
</g>
<!-- Node3 -->
<g id="node3" class="node">
<title>Node3</title>
<g id="a_node3"><a xlink:href="classidg__object.html#ab7575668c8250d7e67c2f94b199d7695" target="_top" xlink:title="Performs consistency checks, dies when an error is encountered.">
<polygon fill="white" stroke="black" points="215.5,-525 215.5,-544 319.5,-544 319.5,-525 215.5,-525"/>
<text text-anchor="middle" x="267.5" y="-532" font-family="Helvetica,sans-Serif" font-size="10.00">idg_object\_check</text>
</a>
</g>
</g>
<!-- Node2&#45;&gt;Node3 -->
<g id="edge2" class="edge">
<title>Node2&#45;&gt;Node3</title>
<path fill="none" stroke="midnightblue" d="M443.01,-253.37C439.34,-304.83 422.21,-443.43 343,-515.5 336.39,-521.52 328.13,-525.69 319.55,-528.57"/>
<polygon fill="midnightblue" stroke="midnightblue" points="446.51,-253.46 443.63,-243.26 439.52,-253.03 446.51,-253.46"/>
</g>
<!-- Node4 -->
<g id="node4" class="node">
<title>Node4</title>
<g id="a_node4"><a xlink:href="classidg__view__html__container.html#a26eab2df981893738a1e9d859b79ffda" target="_top" xlink:title=" ">
<polygon fill="white" stroke="black" points="198,-475.5 198,-505.5 337,-505.5 337,-475.5 198,-475.5"/>
<text text-anchor="start" x="206" y="-493.5" font-family="Helvetica,sans-Serif" font-size="10.00">idg_view_html_container</text>
<text text-anchor="middle" x="267.5" y="-482.5" font-family="Helvetica,sans-Serif" font-size="10.00">\_render</text>
</a>
</g>
</g>
<!-- Node2&#45;&gt;Node4 -->
<g id="edge3" class="edge">
<title>Node2&#45;&gt;Node4</title>
<path fill="none" stroke="midnightblue" d="M440.42,-253.26C431.59,-296.58 404.84,-400.84 343,-460.5 336.68,-466.6 328.96,-471.51 320.91,-475.46"/>
<polygon fill="midnightblue" stroke="midnightblue" points="443.91,-253.66 442.37,-243.17 437.04,-252.33 443.91,-253.66"/>
</g>
<!-- Node5 -->
<g id="node5" class="node">
<title>Node5</title>
<g id="a_node5"><a xlink:href="classidg__view__html__renderer.html#ae38258ae5fd5ed1b8020e44ce7666c0a" target="_top" xlink:title="See class description.">
<polygon fill="white" stroke="black" points="11,-341.5 11,-371.5 145,-371.5 145,-341.5 11,-341.5"/>
<text text-anchor="start" x="19" y="-359.5" font-family="Helvetica,sans-Serif" font-size="10.00">idg_view_html_renderer</text>
<text text-anchor="middle" x="78" y="-348.5" font-family="Helvetica,sans-Serif" font-size="10.00">\_render</text>
</a>
</g>
</g>
<!-- Node2&#45;&gt;Node5 -->
<g id="edge4" class="edge">
<title>Node2&#45;&gt;Node5</title>
<path fill="none" stroke="midnightblue" d="M440.68,-252.94C432.51,-293.91 407.23,-388.53 343,-427.5 285.63,-462.31 256.49,-446.08 192,-427.5 154.37,-416.66 117.18,-389.19 96.25,-371.77"/>
<polygon fill="midnightblue" stroke="midnightblue" points="444.12,-253.58 442.51,-243.11 437.24,-252.3 444.12,-253.58"/>
</g>
<!-- Node6 -->
<g id="node6" class="node">
<title>Node6</title>
<g id="a_node6"><a xlink:href="classidg__view__html__slot.html#ac81c6c0e2e66289d856dbdeb75193ad1" target="_top" xlink:title=" ">
<polygon fill="white" stroke="black" points="212,-387.5 212,-417.5 323,-417.5 323,-387.5 212,-387.5"/>
<text text-anchor="start" x="220" y="-405.5" font-family="Helvetica,sans-Serif" font-size="10.00">idg_view_html_slot</text>
<text text-anchor="middle" x="267.5" y="-394.5" font-family="Helvetica,sans-Serif" font-size="10.00">\_render</text>
</a>
</g>
</g>
<!-- Node2&#45;&gt;Node6 -->
<g id="edge5" class="edge">
<title>Node2&#45;&gt;Node6</title>
<path fill="none" stroke="midnightblue" d="M435.76,-252.49C421.39,-283.41 388.86,-344.56 343,-378.5 336.99,-382.95 330.13,-386.59 323.05,-389.57"/>
<polygon fill="midnightblue" stroke="midnightblue" points="439.01,-253.81 439.93,-243.25 432.62,-250.93 439.01,-253.81"/>
</g>
<!-- Node7 -->
<g id="node7" class="node">
<title>Node7</title>
<g id="a_node7"><a xlink:href="classidg__renderer__declaration.html#acd121a1c23b97d5f571a1e20f3de6309" target="_top" xlink:title=" ">
<polygon fill="white" stroke="black" points="198.5,-338.5 198.5,-368.5 336.5,-368.5 336.5,-338.5 198.5,-338.5"/>
<text text-anchor="start" x="206.5" y="-356.5" font-family="Helvetica,sans-Serif" font-size="10.00">idg_renderer_declaration</text>
<text text-anchor="middle" x="267.5" y="-345.5" font-family="Helvetica,sans-Serif" font-size="10.00">\add_token</text>
</a>
</g>
</g>
<!-- Node2&#45;&gt;Node7 -->
<g id="edge6" class="edge">
<title>Node2&#45;&gt;Node7</title>
<path fill="none" stroke="midnightblue" d="M429.88,-251.09C411.83,-272.48 378.65,-308.33 343,-329.5 337.27,-332.9 331.01,-335.88 324.63,-338.47"/>
<polygon fill="midnightblue" stroke="midnightblue" points="432.77,-253.09 436.44,-243.15 427.37,-248.63 432.77,-253.09"/>
</g>
<!-- Node8 -->
<g id="node8" class="node">
<title>Node8</title>
<g id="a_node8"><a xlink:href="classidg__datasource__declaration.html#aa0097c6bed6052259b03637f84628be0" target="_top" xlink:title=" ">
<polygon fill="white" stroke="black" points="192,-289.5 192,-319.5 343,-319.5 343,-289.5 192,-289.5"/>
<text text-anchor="start" x="200" y="-307.5" font-family="Helvetica,sans-Serif" font-size="10.00">idg_datasource_declaration</text>
<text text-anchor="middle" x="267.5" y="-296.5" font-family="Helvetica,sans-Serif" font-size="10.00">\create_instance</text>
</a>
</g>
</g>
<!-- Node2&#45;&gt;Node8 -->
<g id="edge7" class="edge">
<title>Node2&#45;&gt;Node8</title>
<path fill="none" stroke="midnightblue" d="M416.14,-247.6C396.08,-257.47 368.22,-270.61 343,-280.5 335.03,-283.62 326.47,-286.66 318.09,-289.47"/>
<polygon fill="midnightblue" stroke="midnightblue" points="417.92,-250.63 425.32,-243.05 414.8,-244.36 417.92,-250.63"/>
</g>
<!-- Node9 -->
<g id="node9" class="node">
<title>Node9</title>
<g id="a_node9"><a xlink:href="classidg__renderer__declaration.html#a57b09006d42f1959d7ac91ca327de3d7" target="_top" xlink:title=" ">
<polygon fill="white" stroke="black" points="198.5,-240.5 198.5,-270.5 336.5,-270.5 336.5,-240.5 198.5,-240.5"/>
<text text-anchor="start" x="206.5" y="-258.5" font-family="Helvetica,sans-Serif" font-size="10.00">idg_renderer_declaration</text>
<text text-anchor="middle" x="267.5" y="-247.5" font-family="Helvetica,sans-Serif" font-size="10.00">\create_instance</text>
</a>
</g>
</g>
<!-- Node2&#45;&gt;Node9 -->
<g id="edge8" class="edge">
<title>Node2&#45;&gt;Node9</title>
<path fill="none" stroke="midnightblue" d="M368.55,-242.96C357.91,-244.29 347.03,-245.66 336.55,-246.97"/>
<polygon fill="midnightblue" stroke="midnightblue" points="369.16,-246.41 378.65,-241.69 368.29,-239.46 369.16,-246.41"/>
</g>
<!-- Node10 -->
<g id="node10" class="node">
<title>Node10</title>
<g id="a_node10"><a xlink:href="classidg__site.html#a3446705c00bb5320e4b629d11aa4d1c3" target="_top" xlink:title=" ">
<polygon fill="white" stroke="black" points="203.5,-202 203.5,-221 331.5,-221 331.5,-202 203.5,-202"/>
<text text-anchor="middle" x="267.5" y="-209" font-family="Helvetica,sans-Serif" font-size="10.00">idg_site\get_document</text>
</a>
</g>
</g>
<!-- Node2&#45;&gt;Node10 -->
<g id="edge9" class="edge">
<title>Node2&#45;&gt;Node10</title>
<path fill="none" stroke="midnightblue" d="M368.43,-224.03C356.14,-222.49 343.52,-220.9 331.57,-219.41"/>
<polygon fill="midnightblue" stroke="midnightblue" points="368.29,-227.54 378.65,-225.31 369.16,-220.59 368.29,-227.54"/>
</g>
<!-- Node11 -->
<g id="node11" class="node">
<title>Node11</title>
<g id="a_node11"><a xlink:href="classidg__object.html#ac41f30824083065ee9430a74f7301116" target="_top" xlink:title=" ">
<polygon fill="white" stroke="black" points="201.5,-164 201.5,-183 333.5,-183 333.5,-164 201.5,-164"/>
<text text-anchor="middle" x="267.5" y="-171" font-family="Helvetica,sans-Serif" font-size="10.00">idg_object\get_instance</text>
</a>
</g>
</g>
<!-- Node2&#45;&gt;Node11 -->
<g id="edge10" class="edge">
<title>Node2&#45;&gt;Node11</title>
<path fill="none" stroke="midnightblue" d="M413.22,-219.73C393.42,-211.19 366.99,-200.39 343,-192.5 332.48,-189.04 320.94,-185.83 310.17,-183.06"/>
<polygon fill="midnightblue" stroke="midnightblue" points="412.08,-223.05 422.64,-223.84 414.88,-216.64 412.08,-223.05"/>
</g>
<!-- Node13 -->
<g id="node13" class="node">
<title>Node13</title>
<g id="a_node13"><a xlink:href="classidg__document.html#a4554297770548415a0edf16831c41255" target="_top" xlink:title=" ">
<polygon fill="white" stroke="black" points="202,-126 202,-145 333,-145 333,-126 202,-126"/>
<text text-anchor="middle" x="267.5" y="-133" font-family="Helvetica,sans-Serif" font-size="10.00">idg_document\get_path</text>
</a>
</g>
</g>
<!-- Node2&#45;&gt;Node13 -->
<g id="edge13" class="edge">
<title>Node2&#45;&gt;Node13</title>
<path fill="none" stroke="midnightblue" d="M427.41,-216.91C408.54,-198.96 376.04,-170.74 343,-154.5 335.21,-150.67 326.58,-147.57 318.03,-145.06"/>
<polygon fill="midnightblue" stroke="midnightblue" points="425.01,-219.46 434.63,-223.91 429.89,-214.44 425.01,-219.46"/>
</g>
<!-- Node2&#45;&gt;Node17 -->
<g id="edge17" class="edge">
<title>Node2&#45;&gt;Node17</title>
<path fill="none" stroke="midnightblue" d="M431.18,-215.45C417.24,-195.34 394.84,-161.56 379,-130.5 359.42,-92.12 374.32,-70.09 343,-40.5 338.93,-36.66 334.26,-33.41 329.28,-30.65"/>
<polygon fill="midnightblue" stroke="midnightblue" points="428.5,-217.73 437.11,-223.91 434.24,-213.71 428.5,-217.73"/>
</g>
<!-- Node18 -->
<g id="node18" class="node">
<title>Node18</title>
<g id="a_node18"><a xlink:href="classidg__view__html.html#ad2ab39b24e4559133a02074eb51ccd8b" target="_top" xlink:title=" ">
<polygon fill="white" stroke="black" points="206.5,-88 206.5,-107 328.5,-107 328.5,-88 206.5,-88"/>
<text text-anchor="middle" x="267.5" y="-95" font-family="Helvetica,sans-Serif" font-size="10.00">idg_view_html\render</text>
</a>
</g>
</g>
<!-- Node2&#45;&gt;Node18 -->
<g id="edge18" class="edge">
<title>Node2&#45;&gt;Node18</title>
<path fill="none" stroke="midnightblue" d="M433.2,-215.02C416.99,-188.97 383.87,-141.79 343,-116.5 336.76,-112.64 329.76,-109.56 322.62,-107.1"/>
<polygon fill="midnightblue" stroke="midnightblue" points="430.39,-217.14 438.57,-223.89 436.38,-213.52 430.39,-217.14"/>
</g>
<!-- Node19 -->
<g id="node19" class="node">
<title>Node19</title>
<g id="a_node19"><a xlink:href="classidg__view.html#a1ddb1fb570a49b50e820ad45f8e5ee2f" target="_top" xlink:title=" ">
<polygon fill="white" stroke="black" points="198,-50 198,-69 337,-69 337,-50 198,-50"/>
<text text-anchor="middle" x="267.5" y="-57" font-family="Helvetica,sans-Serif" font-size="10.00">idg_view\stream_append</text>
</a>
</g>
</g>
<!-- Node2&#45;&gt;Node19 -->
<g id="edge19" class="edge">
<title>Node2&#45;&gt;Node19</title>
<path fill="none" stroke="midnightblue" d="M432.54,-215.15C407.48,-175.12 349.53,-83.17 343,-78.5 337.57,-74.61 331.43,-71.52 325.04,-69.06"/>
<polygon fill="midnightblue" stroke="midnightblue" points="429.62,-217.08 437.89,-223.7 435.56,-213.37 429.62,-217.08"/>
</g>
<!-- Node11&#45;&gt;Node5 -->
<g id="edge12" class="edge">
<title>Node11&#45;&gt;Node5</title>
<path fill="none" stroke="midnightblue" d="M201.15,-187.09C197.95,-188.7 194.88,-190.49 192,-192.5 135.83,-231.64 98.95,-308.34 85.12,-341.09"/>
<polygon fill="midnightblue" stroke="midnightblue" points="202.66,-190.25 210.44,-183.05 199.87,-183.83 202.66,-190.25"/>
</g>
<!-- Node12 -->
<g id="node12" class="node">
<title>Node12</title>
<g id="a_node12"><a xlink:href="classidg__view__html__element.html#a7cae4f263e28692e70e554d47ea3f412" target="_top" xlink:title=" ">
<polygon fill="white" stroke="black" points="11,-183.5 11,-213.5 145,-213.5 145,-183.5 11,-183.5"/>
<text text-anchor="start" x="19" y="-201.5" font-family="Helvetica,sans-Serif" font-size="10.00">idg_view_html_element</text>
<text text-anchor="middle" x="78" y="-190.5" font-family="Helvetica,sans-Serif" font-size="10.00">\_render</text>
</a>
</g>
</g>
<!-- Node11&#45;&gt;Node12 -->
<g id="edge11" class="edge">
<title>Node11&#45;&gt;Node12</title>
<path fill="none" stroke="midnightblue" d="M191.5,-183.5C176.19,-185.54 160.19,-187.68 145.21,-189.67"/>
<polygon fill="midnightblue" stroke="midnightblue" points="192,-186.96 201.45,-182.17 191.07,-180.03 192,-186.96"/>
</g>
<!-- Node14 -->
<g id="node14" class="node">
<title>Node14</title>
<g id="a_node14"><a xlink:href="classidg__document.html#a9ff98fd927f8ce36998139615667f573" target="_top" xlink:title=" ">
<polygon fill="white" stroke="black" points="8.5,-145 8.5,-164 147.5,-164 147.5,-145 8.5,-145"/>
<text text-anchor="middle" x="78" y="-152" font-family="Helvetica,sans-Serif" font-size="10.00">idg_document\add_token</text>
</a>
</g>
</g>
<!-- Node13&#45;&gt;Node14 -->
<g id="edge14" class="edge">
<title>Node13&#45;&gt;Node14</title>
<path fill="none" stroke="midnightblue" d="M192,-143.05C177.42,-144.53 162.19,-146.07 147.81,-147.53"/>
<polygon fill="midnightblue" stroke="midnightblue" points="192.38,-146.53 201.97,-142.04 191.67,-139.56 192.38,-146.53"/>
</g>
<!-- Node15 -->
<g id="node15" class="node">
<title>Node15</title>
<g id="a_node15"><a xlink:href="classidg__document.html#a0e01326ce378e5cf31d9c6fb11097b31" target="_top" xlink:title=" ">
<polygon fill="white" stroke="black" points="0,-107 0,-126 156,-126 156,-107 0,-107"/>
<text text-anchor="middle" x="78" y="-114" font-family="Helvetica,sans-Serif" font-size="10.00">idg_document\get_renderers</text>
</a>
</g>
</g>
<!-- Node13&#45;&gt;Node15 -->
<g id="edge15" class="edge">
<title>Node13&#45;&gt;Node15</title>
<path fill="none" stroke="midnightblue" d="M191.82,-127.93C180.12,-126.75 168.01,-125.52 156.26,-124.33"/>
<polygon fill="midnightblue" stroke="midnightblue" points="191.67,-131.44 201.97,-128.96 192.38,-124.47 191.67,-131.44"/>
</g>
<!-- Node16 -->
<g id="node16" class="node">
<title>Node16</title>
<g id="a_node16"><a xlink:href="classidg__document.html#aed4be589596f2e466b8c79d352bd62d9" target="_top" xlink:title=" ">
<polygon fill="white" stroke="black" points="17,-69 17,-88 139,-88 139,-69 17,-69"/>
<text text-anchor="middle" x="78" y="-76" font-family="Helvetica,sans-Serif" font-size="10.00">idg_document\get_url</text>
</a>
</g>
</g>
<!-- Node13&#45;&gt;Node16 -->
<g id="edge16" class="edge">
<title>Node13&#45;&gt;Node16</title>
<path fill="none" stroke="midnightblue" d="M211.94,-123.18C205.15,-121.18 198.36,-118.95 192,-116.5 175.12,-110 172.91,-103.94 156,-97.5 146.35,-93.83 135.74,-90.67 125.57,-88.05"/>
<polygon fill="midnightblue" stroke="midnightblue" points="211.27,-126.62 221.84,-125.94 213.15,-119.88 211.27,-126.62"/>
</g>
</g>
</svg>
