<?xml version="1.0" encoding="UTF-8" standalone="no"?>
<!DOCTYPE svg PUBLIC "-//W3C//DTD SVG 1.1//EN"
 "http://www.w3.org/Graphics/SVG/1.1/DTD/svg11.dtd">
<!-- Generated by graphviz version 2.43.0 (0)
 -->
<!-- Title: idg_fragment_implementation Pages: 1 -->
<svg width="276pt" height="140pt"
 viewBox="0.00 0.00 275.50 140.00" xmlns="http://www.w3.org/2000/svg" xmlns:xlink="http://www.w3.org/1999/xlink">
<g id="graph0" class="graph" transform="scale(1 1) rotate(0) translate(4 136)">
<title>idg_fragment_implementation</title>
<polygon fill="white" stroke="transparent" points="-4,4 -4,-136 271.5,-136 271.5,4 -4,4"/>
<!-- Node1 -->
<g id="node1" class="node">
<title>Node1</title>
<g id="a_node1"><a xlink:title="An object instance of a fragment.">
<polygon fill="#bfbfbf" stroke="black" points="53.5,-56.5 53.5,-75.5 218.5,-75.5 218.5,-56.5 53.5,-56.5"/>
<text text-anchor="middle" x="136" y="-63.5" font-family="Helvetica,sans-Serif" font-size="10.00">idg_fragment_implementation</text>
</a>
</g>
</g>
<!-- Node3 -->
<g id="node3" class="node">
<title>Node3</title>
<g id="a_node3"><a xlink:href="classIndigo_1_1Fragment_1_1image.html" target="_top" xlink:title=" ">
<polygon fill="white" stroke="black" points="0,-0.5 0,-19.5 130,-19.5 130,-0.5 0,-0.5"/>
<text text-anchor="middle" x="65" y="-7.5" font-family="Helvetica,sans-Serif" font-size="10.00">Indigo\Fragment\image</text>
</a>
</g>
</g>
<!-- Node1&#45;&gt;Node3 -->
<g id="edge2" class="edge">
<title>Node1&#45;&gt;Node3</title>
<path fill="none" stroke="midnightblue" d="M116.41,-50.1C103.63,-40.38 87.39,-28.03 76.61,-19.83"/>
<polygon fill="midnightblue" stroke="midnightblue" points="114.51,-53.06 124.59,-56.32 118.75,-47.48 114.51,-53.06"/>
</g>
<!-- Node4 -->
<g id="node4" class="node">
<title>Node4</title>
<g id="a_node4"><a xlink:href="classIndigo_1_1Fragment_1_1text.html" target="_top" xlink:title="Inserts the character data into a &lt;span&gt;, supports all styles.">
<polygon fill="white" stroke="black" points="148.5,-0.5 148.5,-19.5 267.5,-19.5 267.5,-0.5 148.5,-0.5"/>
<text text-anchor="middle" x="208" y="-7.5" font-family="Helvetica,sans-Serif" font-size="10.00">Indigo\Fragment\text</text>
</a>
</g>
</g>
<!-- Node1&#45;&gt;Node4 -->
<g id="edge3" class="edge">
<title>Node1&#45;&gt;Node4</title>
<path fill="none" stroke="midnightblue" d="M155.87,-50.1C168.82,-40.38 185.3,-28.03 196.22,-19.83"/>
<polygon fill="midnightblue" stroke="midnightblue" points="153.47,-47.52 147.57,-56.32 157.67,-53.12 153.47,-47.52"/>
</g>
<!-- Node2 -->
<g id="node2" class="node">
<title>Node2</title>
<g id="a_node2"><a xlink:href="classidg__object__implementation.html" target="_top" xlink:title="Base class for ancillary objects that have no associated type information.">
<polygon fill="white" stroke="black" points="61,-112.5 61,-131.5 211,-131.5 211,-112.5 61,-112.5"/>
<text text-anchor="middle" x="136" y="-119.5" font-family="Helvetica,sans-Serif" font-size="10.00">idg_object_implementation</text>
</a>
</g>
</g>
<!-- Node2&#45;&gt;Node1 -->
<g id="edge1" class="edge">
<title>Node2&#45;&gt;Node1</title>
<path fill="none" stroke="midnightblue" d="M136,-101.8C136,-92.91 136,-82.78 136,-75.75"/>
<polygon fill="midnightblue" stroke="midnightblue" points="132.5,-102.08 136,-112.08 139.5,-102.08 132.5,-102.08"/>
</g>
</g>
</svg>
