<?xml version="1.0" encoding="UTF-8" standalone="no"?>
<!DOCTYPE svg PUBLIC "-//W3C//DTD SVG 1.1//EN"
 "http://www.w3.org/Graphics/SVG/1.1/DTD/svg11.dtd">
<!-- Generated by graphviz version 2.43.0 (0)
 -->
<!-- Title: idg_view_html_renderer_phpscript_obj\set_invalid_if_empty Pages: 1 -->
<svg width="337pt" height="88pt"
 viewBox="0.00 0.00 337.00 88.00" xmlns="http://www.w3.org/2000/svg" xmlns:xlink="http://www.w3.org/1999/xlink">
<g id="graph0" class="graph" transform="scale(1 1) rotate(0) translate(4 84)">
<title>idg_view_html_renderer_phpscript_obj\set_invalid_if_empty</title>
<polygon fill="white" stroke="transparent" points="-4,4 -4,-84 333,-84 333,4 -4,4"/>
<!-- Node1 -->
<g id="node1" class="node">
<title>Node1</title>
<g id="a_node1"><a xlink:title=" ">
<polygon fill="#bfbfbf" stroke="black" points="0,-19 0,-60 143,-60 143,-19 0,-19"/>
<text text-anchor="start" x="8" y="-48" font-family="Helvetica,sans-Serif" font-size="10.00">idg_view_html_renderer</text>
<text text-anchor="start" x="8" y="-37" font-family="Helvetica,sans-Serif" font-size="10.00">_phpscript_obj\set_invalid</text>
<text text-anchor="middle" x="71.5" y="-26" font-family="Helvetica,sans-Serif" font-size="10.00">_if_empty</text>
</a>
</g>
</g>
<!-- Node2 -->
<g id="node2" class="node">
<title>Node2</title>
<g id="a_node2"><a xlink:href="classidg__view__html__renderer__phpscript__obj.html#ab1d02934479dc1b7ee8c69d815ec9752" target="_top" xlink:title=" ">
<polygon fill="white" stroke="black" points="187,-49.5 187,-79.5 321,-79.5 321,-49.5 187,-49.5"/>
<text text-anchor="start" x="195" y="-67.5" font-family="Helvetica,sans-Serif" font-size="10.00">idg_view_html_renderer</text>
<text text-anchor="middle" x="254" y="-56.5" font-family="Helvetica,sans-Serif" font-size="10.00">_phpscript_obj\is_valid</text>
</a>
</g>
</g>
<!-- Node1&#45;&gt;Node2 -->
<g id="edge1" class="edge">
<title>Node1&#45;&gt;Node2</title>
<path fill="none" stroke="midnightblue" d="M143.06,-49.27C154.11,-50.8 165.58,-52.39 176.75,-53.94"/>
<polygon fill="midnightblue" stroke="midnightblue" points="176.53,-57.44 186.91,-55.35 177.49,-50.51 176.53,-57.44"/>
</g>
<!-- Node3 -->
<g id="node3" class="node">
<title>Node3</title>
<g id="a_node3"><a xlink:href="classidg__view__html__renderer__phpscript__obj.html#af7b8cd400530abe5529c6d19f53fa049" target="_top" xlink:title=" ">
<polygon fill="white" stroke="black" points="179,-0.5 179,-30.5 329,-30.5 329,-0.5 179,-0.5"/>
<text text-anchor="start" x="187" y="-18.5" font-family="Helvetica,sans-Serif" font-size="10.00">idg_view_html_renderer</text>
<text text-anchor="middle" x="254" y="-7.5" font-family="Helvetica,sans-Serif" font-size="10.00">_phpscript_obj\set_variable</text>
</a>
</g>
</g>
<!-- Node1&#45;&gt;Node3 -->
<g id="edge2" class="edge">
<title>Node1&#45;&gt;Node3</title>
<path fill="none" stroke="midnightblue" d="M143.06,-30.12C151.52,-28.99 160.22,-27.84 168.84,-26.69"/>
<polygon fill="midnightblue" stroke="midnightblue" points="169.46,-30.14 178.91,-25.35 168.54,-23.2 169.46,-30.14"/>
</g>
</g>
</svg>
