<?xml version="1.0" encoding="UTF-8" standalone="no"?>
<!DOCTYPE svg PUBLIC "-//W3C//DTD SVG 1.1//EN"
 "http://www.w3.org/Graphics/SVG/1.1/DTD/svg11.dtd">
<!-- Generated by graphviz version 2.43.0 (0)
 -->
<!-- Title: idg_view_html_slot\_render Pages: 1 -->
<svg width="438pt" height="85pt"
 viewBox="0.00 0.00 438.00 85.00" xmlns="http://www.w3.org/2000/svg" xmlns:xlink="http://www.w3.org/1999/xlink">
<g id="graph0" class="graph" transform="scale(1 1) rotate(0) translate(4 81)">
<title>idg_view_html_slot\_render</title>
<polygon fill="white" stroke="transparent" points="-4,4 -4,-81 434,-81 434,4 -4,4"/>
<!-- Node1 -->
<g id="node1" class="node">
<title>Node1</title>
<g id="a_node1"><a xlink:title=" ">
<polygon fill="#bfbfbf" stroke="black" points="0,-33 0,-63 111,-63 111,-33 0,-33"/>
<text text-anchor="start" x="8" y="-51" font-family="Helvetica,sans-Serif" font-size="10.00">idg_view_html_slot</text>
<text text-anchor="middle" x="55.5" y="-40" font-family="Helvetica,sans-Serif" font-size="10.00">\_render</text>
</a>
</g>
</g>
<!-- Node2 -->
<g id="node2" class="node">
<title>Node2</title>
<g id="a_node2"><a xlink:href="classidg__object.html#adf93470e265c48e006b1c573129a4988" target="_top" xlink:title=" ">
<polygon fill="white" stroke="black" points="153,-57.5 153,-76.5 273,-76.5 273,-57.5 153,-57.5"/>
<text text-anchor="middle" x="213" y="-64.5" font-family="Helvetica,sans-Serif" font-size="10.00">idg_object\get_idg_id</text>
</a>
</g>
</g>
<!-- Node1&#45;&gt;Node2 -->
<g id="edge1" class="edge">
<title>Node1&#45;&gt;Node2</title>
<path fill="none" stroke="midnightblue" d="M111.32,-54.7C121.53,-55.95 132.31,-57.26 142.88,-58.55"/>
<polygon fill="midnightblue" stroke="midnightblue" points="142.57,-62.04 152.92,-59.78 143.42,-55.09 142.57,-62.04"/>
</g>
<!-- Node3 -->
<g id="node3" class="node">
<title>Node3</title>
<g id="a_node3"><a xlink:href="classidg__object.html#ac54f91fd013c01d09e085472d6bdb6e8" target="_top" xlink:title=" ">
<polygon fill="white" stroke="black" points="147,-19.5 147,-38.5 279,-38.5 279,-19.5 147,-19.5"/>
<text text-anchor="middle" x="213" y="-26.5" font-family="Helvetica,sans-Serif" font-size="10.00">idg_object\get_property</text>
</a>
</g>
</g>
<!-- Node1&#45;&gt;Node3 -->
<g id="edge2" class="edge">
<title>Node1&#45;&gt;Node3</title>
<path fill="none" stroke="midnightblue" d="M111.32,-41.3C119.56,-40.3 128.17,-39.24 136.74,-38.2"/>
<polygon fill="midnightblue" stroke="midnightblue" points="137.25,-41.66 146.75,-36.97 136.4,-34.71 137.25,-41.66"/>
</g>
<!-- Node4 -->
<g id="node4" class="node">
<title>Node4</title>
<g id="a_node4"><a xlink:href="classidg__object.html#a583e265c2dbc95871ab08eb9820c3ee8" target="_top" xlink:title="Helper: executes members of this object and global functions.">
<polygon fill="white" stroke="black" points="318.5,-38.5 318.5,-57.5 426.5,-57.5 426.5,-38.5 318.5,-38.5"/>
<text text-anchor="middle" x="372.5" y="-45.5" font-family="Helvetica,sans-Serif" font-size="10.00">idg_object\execute</text>
</a>
</g>
</g>
<!-- Node3&#45;&gt;Node4 -->
<g id="edge3" class="edge">
<title>Node3&#45;&gt;Node4</title>
<path fill="none" stroke="midnightblue" d="M279.43,-36.89C288.98,-38.05 298.81,-39.23 308.32,-40.38"/>
<polygon fill="midnightblue" stroke="midnightblue" points="308.15,-43.88 318.49,-41.61 308.99,-36.93 308.15,-43.88"/>
</g>
<!-- Node5 -->
<g id="node5" class="node">
<title>Node5</title>
<g id="a_node5"><a xlink:href="classidg__object.html#a35093e6cb6bcfc815778ed16cbc11e75" target="_top" xlink:title=" ">
<polygon fill="white" stroke="black" points="315,-0.5 315,-19.5 430,-19.5 430,-0.5 315,-0.5"/>
<text text-anchor="middle" x="372.5" y="-7.5" font-family="Helvetica,sans-Serif" font-size="10.00">idg_object\get_hook</text>
</a>
</g>
</g>
<!-- Node3&#45;&gt;Node5 -->
<g id="edge4" class="edge">
<title>Node3&#45;&gt;Node5</title>
<path fill="none" stroke="midnightblue" d="M279.43,-21.11C287.72,-20.11 296.21,-19.08 304.53,-18.08"/>
<polygon fill="midnightblue" stroke="midnightblue" points="305.05,-21.54 314.56,-16.87 304.21,-14.59 305.05,-21.54"/>
</g>
</g>
</svg>
