<?xml version="1.0" encoding="UTF-8" standalone="no"?>
<!DOCTYPE svg PUBLIC "-//W3C//DTD SVG 1.1//EN"
 "http://www.w3.org/Graphics/SVG/1.1/DTD/svg11.dtd">
<!-- Generated by graphviz version 2.43.0 (0)
 -->
<!-- Title: Indigo\Fragment\text\_render Pages: 1 -->
<svg width="313pt" height="154pt"
 viewBox="0.00 0.00 313.00 153.50" xmlns="http://www.w3.org/2000/svg" xmlns:xlink="http://www.w3.org/1999/xlink">
<g id="graph0" class="graph" transform="scale(1 1) rotate(0) translate(4 149.5)">
<title>Indigo\Fragment\text\_render</title>
<polygon fill="white" stroke="transparent" points="-4,4 -4,-149.5 309,-149.5 309,4 -4,4"/>
<!-- Node1 -->
<g id="node1" class="node">
<title>Node1</title>
<g id="a_node1"><a xlink:title=" ">
<polygon fill="#bfbfbf" stroke="black" points="0,-52 0,-82 119,-82 119,-52 0,-52"/>
<text text-anchor="start" x="8" y="-70" font-family="Helvetica,sans-Serif" font-size="10.00">Indigo\Fragment\text</text>
<text text-anchor="middle" x="59.5" y="-59" font-family="Helvetica,sans-Serif" font-size="10.00">\_render</text>
</a>
</g>
</g>
<!-- Node2 -->
<g id="node2" class="node">
<title>Node2</title>
<g id="a_node2"><a xlink:href="classidg__object__implementation.html#a25dcf4d975a2fd21f429a72c288eb098" target="_top" xlink:title="Returns the parent of the object, as it was declared.">
<polygon fill="white" stroke="black" points="155,-115 155,-145 305,-145 305,-115 155,-115"/>
<text text-anchor="start" x="163" y="-133" font-family="Helvetica,sans-Serif" font-size="10.00">idg_object_implementation</text>
<text text-anchor="middle" x="230" y="-122" font-family="Helvetica,sans-Serif" font-size="10.00">\get_declaration</text>
</a>
</g>
</g>
<!-- Node1&#45;&gt;Node2 -->
<g id="edge1" class="edge">
<title>Node1&#45;&gt;Node2</title>
<path fill="none" stroke="midnightblue" d="M96.66,-82.1C114.19,-89.27 135.59,-97.83 155,-105 160.93,-107.19 167.15,-109.41 173.36,-111.58"/>
<polygon fill="midnightblue" stroke="midnightblue" points="172.47,-114.98 183.07,-114.93 174.76,-108.36 172.47,-114.98"/>
</g>
<!-- Node3 -->
<g id="node3" class="node">
<title>Node3</title>
<g id="a_node3"><a xlink:href="classidg__object.html#a79f6b30d257d77f65301811591874429" target="_top" xlink:title="Returns an array of all properties without executing any hooks.">
<polygon fill="white" stroke="black" points="160,-76.5 160,-95.5 300,-95.5 300,-76.5 160,-76.5"/>
<text text-anchor="middle" x="230" y="-83.5" font-family="Helvetica,sans-Serif" font-size="10.00">idg_object\get_properties</text>
</a>
</g>
</g>
<!-- Node1&#45;&gt;Node3 -->
<g id="edge2" class="edge">
<title>Node1&#45;&gt;Node3</title>
<path fill="none" stroke="midnightblue" d="M119.43,-73.65C129.26,-74.75 139.58,-75.92 149.81,-77.07"/>
<polygon fill="midnightblue" stroke="midnightblue" points="149.66,-80.58 159.99,-78.22 150.44,-73.62 149.66,-80.58"/>
</g>
<!-- Node4 -->
<g id="node4" class="node">
<title>Node4</title>
<g id="a_node4"><a xlink:href="classidg__view.html#a488d9b33faf73b4d62cedab667777d3d" target="_top" xlink:title="Emits css style information according to the properties of an object.">
<polygon fill="white" stroke="black" points="172,-38.5 172,-57.5 288,-57.5 288,-38.5 172,-38.5"/>
<text text-anchor="middle" x="230" y="-45.5" font-family="Helvetica,sans-Serif" font-size="10.00">idg_view\render_css</text>
</a>
</g>
</g>
<!-- Node1&#45;&gt;Node4 -->
<g id="edge3" class="edge">
<title>Node1&#45;&gt;Node4</title>
<path fill="none" stroke="midnightblue" d="M119.43,-60.35C133.1,-58.81 147.75,-57.16 161.75,-55.58"/>
<polygon fill="midnightblue" stroke="midnightblue" points="162.26,-59.05 171.8,-54.45 161.47,-52.09 162.26,-59.05"/>
</g>
<!-- Node5 -->
<g id="node5" class="node">
<title>Node5</title>
<g id="a_node5"><a xlink:href="classidg__view.html#ad55847cece039cda45daac1c6c4b3c2c" target="_top" xlink:title="Write some content to a stream.">
<polygon fill="white" stroke="black" points="160.5,-0.5 160.5,-19.5 299.5,-19.5 299.5,-0.5 160.5,-0.5"/>
<text text-anchor="middle" x="230" y="-7.5" font-family="Helvetica,sans-Serif" font-size="10.00">idg_view\stream_append</text>
</a>
</g>
</g>
<!-- Node1&#45;&gt;Node5 -->
<g id="edge4" class="edge">
<title>Node1&#45;&gt;Node5</title>
<path fill="none" stroke="midnightblue" d="M95.1,-51.82C112.81,-44.37 134.84,-35.61 155,-29 162.44,-26.56 170.39,-24.23 178.22,-22.1"/>
<polygon fill="midnightblue" stroke="midnightblue" points="179.24,-25.45 188.01,-19.5 177.45,-18.68 179.24,-25.45"/>
</g>
</g>
</svg>
