<?xml version="1.0" encoding="UTF-8" standalone="no"?>
<!DOCTYPE svg PUBLIC "-//W3C//DTD SVG 1.1//EN"
 "http://www.w3.org/Graphics/SVG/1.1/DTD/svg11.dtd">
<!-- Generated by graphviz version 2.43.0 (0)
 -->
<!-- Title: idg_attribute\add_options Pages: 1 -->
<svg width="545pt" height="176pt"
 viewBox="0.00 0.00 545.00 175.50" xmlns="http://www.w3.org/2000/svg" xmlns:xlink="http://www.w3.org/1999/xlink">
<g id="graph0" class="graph" transform="scale(1 1) rotate(0) translate(4 171.5)">
<title>idg_attribute\add_options</title>
<polygon fill="white" stroke="transparent" points="-4,4 -4,-171.5 541,-171.5 541,4 -4,4"/>
<!-- Node1 -->
<g id="node1" class="node">
<title>Node1</title>
<g id="a_node1"><a xlink:title="Causes the attribute to inherit all instances in and above a given tree node.">
<polygon fill="#bfbfbf" stroke="black" points="0,-79 0,-98 141,-98 141,-79 0,-79"/>
<text text-anchor="middle" x="70.5" y="-86" font-family="Helvetica,sans-Serif" font-size="10.00">idg_attribute\add_options</text>
</a>
</g>
</g>
<!-- Node2 -->
<g id="node2" class="node">
<title>Node2</title>
<g id="a_node2"><a xlink:href="diagnostics_8php.html#ab33364bd97c64c5f346adb6581e200b2" target="_top" xlink:title=" ">
<polygon fill="white" stroke="black" points="242.5,-148 242.5,-167 280.5,-167 280.5,-148 242.5,-148"/>
<text text-anchor="middle" x="261.5" y="-155" font-family="Helvetica,sans-Serif" font-size="10.00">diag</text>
</a>
</g>
</g>
<!-- Node1&#45;&gt;Node2 -->
<g id="edge1" class="edge">
<title>Node1&#45;&gt;Node2</title>
<path fill="none" stroke="midnightblue" d="M88.56,-98.02C109.02,-109.1 144.63,-127.3 177,-138.5 194.98,-144.72 215.85,-149.47 232.23,-152.67"/>
<polygon fill="midnightblue" stroke="midnightblue" points="231.79,-156.14 242.26,-154.54 233.08,-149.26 231.79,-156.14"/>
</g>
<!-- Node3 -->
<g id="node3" class="node">
<title>Node3</title>
<g id="a_node3"><a xlink:href="classidg__tree__node__implementation.html#a62c406a500a5c0634b9a3602579ddee0" target="_top" xlink:title=" ">
<polygon fill="white" stroke="black" points="177,-98.5 177,-128.5 346,-128.5 346,-98.5 177,-98.5"/>
<text text-anchor="start" x="185" y="-116.5" font-family="Helvetica,sans-Serif" font-size="10.00">idg_tree_node_implementation</text>
<text text-anchor="middle" x="261.5" y="-105.5" font-family="Helvetica,sans-Serif" font-size="10.00">\get_attribute</text>
</a>
</g>
</g>
<!-- Node1&#45;&gt;Node3 -->
<g id="edge2" class="edge">
<title>Node1&#45;&gt;Node3</title>
<path fill="none" stroke="midnightblue" d="M141.07,-97.7C149.47,-98.81 158.15,-99.96 166.82,-101.11"/>
<polygon fill="midnightblue" stroke="midnightblue" points="166.6,-104.61 176.98,-102.45 167.52,-97.67 166.6,-104.61"/>
</g>
<!-- Node4 -->
<g id="node4" class="node">
<title>Node4</title>
<g id="a_node4"><a xlink:href="classidg__tree__node__implementation.html#a086f78d580d1ec27d6a83c9364b84f4c" target="_top" xlink:title="Returns the immediate parent, or if $class_name is given, the nearest ancestor of that class,...">
<polygon fill="white" stroke="black" points="177,-49.5 177,-79.5 346,-79.5 346,-49.5 177,-49.5"/>
<text text-anchor="start" x="185" y="-67.5" font-family="Helvetica,sans-Serif" font-size="10.00">idg_tree_node_implementation</text>
<text text-anchor="middle" x="261.5" y="-56.5" font-family="Helvetica,sans-Serif" font-size="10.00">\get_parent</text>
</a>
</g>
</g>
<!-- Node1&#45;&gt;Node4 -->
<g id="edge3" class="edge">
<title>Node1&#45;&gt;Node4</title>
<path fill="none" stroke="midnightblue" d="M141.07,-79.67C149.47,-78.6 158.15,-77.5 166.82,-76.4"/>
<polygon fill="midnightblue" stroke="midnightblue" points="167.5,-79.84 176.98,-75.11 166.62,-72.89 167.5,-79.84"/>
</g>
<!-- Node5 -->
<g id="node5" class="node">
<title>Node5</title>
<g id="a_node5"><a xlink:href="classidg__parameterized__instance.html#a4c866c7eaf7b9f7f697fc7a87829519c" target="_top" xlink:title=" ">
<polygon fill="white" stroke="black" points="184,-0.5 184,-30.5 339,-30.5 339,-0.5 184,-0.5"/>
<text text-anchor="start" x="192" y="-18.5" font-family="Helvetica,sans-Serif" font-size="10.00">idg_parameterized_instance</text>
<text text-anchor="middle" x="261.5" y="-7.5" font-family="Helvetica,sans-Serif" font-size="10.00">\set_options</text>
</a>
</g>
</g>
<!-- Node1&#45;&gt;Node5 -->
<g id="edge4" class="edge">
<title>Node1&#45;&gt;Node5</title>
<path fill="none" stroke="midnightblue" d="M90.61,-78.85C111.49,-68.53 146.1,-52.09 177,-40.5 183.28,-38.14 189.89,-35.85 196.53,-33.68"/>
<polygon fill="midnightblue" stroke="midnightblue" points="197.78,-36.95 206.24,-30.57 195.65,-30.28 197.78,-36.95"/>
</g>
<!-- Node6 -->
<g id="node6" class="node">
<title>Node6</title>
<g id="a_node6"><a xlink:href="classidg__parameterized__instance.html#a8e68063f7e73a5172ebec29868d8c56d" target="_top" xlink:title=" ">
<polygon fill="white" stroke="black" points="382,-0.5 382,-30.5 537,-30.5 537,-0.5 382,-0.5"/>
<text text-anchor="start" x="390" y="-18.5" font-family="Helvetica,sans-Serif" font-size="10.00">idg_parameterized_instance</text>
<text text-anchor="middle" x="459.5" y="-7.5" font-family="Helvetica,sans-Serif" font-size="10.00">\set_option</text>
</a>
</g>
</g>
<!-- Node5&#45;&gt;Node6 -->
<g id="edge5" class="edge">
<title>Node5&#45;&gt;Node6</title>
<path fill="none" stroke="midnightblue" d="M339.12,-15.5C349.78,-15.5 360.79,-15.5 371.62,-15.5"/>
<polygon fill="midnightblue" stroke="midnightblue" points="371.93,-19 381.93,-15.5 371.93,-12 371.93,-19"/>
</g>
</g>
</svg>
