<?xml version="1.0" encoding="UTF-8" standalone="no"?>
<!DOCTYPE svg PUBLIC "-//W3C//DTD SVG 1.1//EN"
 "http://www.w3.org/Graphics/SVG/1.1/DTD/svg11.dtd">
<!-- Generated by graphviz version 2.43.0 (0)
 -->
<!-- Title: idg_site_element\get_site Pages: 1 -->
<svg width="543pt" height="78pt"
 viewBox="0.00 0.00 543.00 77.50" xmlns="http://www.w3.org/2000/svg" xmlns:xlink="http://www.w3.org/1999/xlink">
<g id="graph0" class="graph" transform="scale(1 1) rotate(0) translate(4 73.5)">
<title>idg_site_element\get_site</title>
<polygon fill="white" stroke="transparent" points="-4,4 -4,-73.5 539,-73.5 539,4 -4,4"/>
<!-- Node1 -->
<g id="node1" class="node">
<title>Node1</title>
<g id="a_node1"><a xlink:title=" ">
<polygon fill="#bfbfbf" stroke="black" points="392,-22.5 392,-41.5 535,-41.5 535,-22.5 392,-22.5"/>
<text text-anchor="middle" x="463.5" y="-29.5" font-family="Helvetica,sans-Serif" font-size="10.00">idg_site_element\get_site</text>
</a>
</g>
</g>
<!-- Node2 -->
<g id="node2" class="node">
<title>Node2</title>
<g id="a_node2"><a xlink:href="classidg__document.html#a42f2bc2c4324f1e8ff1aecaef5aaa54e" target="_top" xlink:title=" ">
<polygon fill="white" stroke="black" points="199.5,-39 199.5,-69 348.5,-69 348.5,-39 199.5,-39"/>
<text text-anchor="start" x="207.5" y="-57" font-family="Helvetica,sans-Serif" font-size="10.00">idg_document\_get_default</text>
<text text-anchor="middle" x="274" y="-46" font-family="Helvetica,sans-Serif" font-size="10.00">_title</text>
</a>
</g>
</g>
<!-- Node1&#45;&gt;Node2 -->
<g id="edge1" class="edge">
<title>Node1&#45;&gt;Node2</title>
<path fill="none" stroke="midnightblue" d="M381.85,-41.46C370.83,-42.76 359.57,-44.08 348.68,-45.35"/>
<polygon fill="midnightblue" stroke="midnightblue" points="382.36,-44.93 391.88,-40.29 381.54,-37.98 382.36,-44.93"/>
</g>
<!-- Node3 -->
<g id="node3" class="node">
<title>Node3</title>
<g id="a_node3"><a xlink:href="classidg__document.html#a4afd3976093de18e8f339c3dee48bed4" target="_top" xlink:title=" ">
<polygon fill="white" stroke="black" points="192,-0.5 192,-19.5 356,-19.5 356,-0.5 192,-0.5"/>
<text text-anchor="middle" x="274" y="-7.5" font-family="Helvetica,sans-Serif" font-size="10.00">idg_document\get_datasource</text>
</a>
</g>
</g>
<!-- Node1&#45;&gt;Node3 -->
<g id="edge2" class="edge">
<title>Node1&#45;&gt;Node3</title>
<path fill="none" stroke="midnightblue" d="M381.69,-22.52C373.26,-21.53 364.69,-20.52 356.26,-19.53"/>
<polygon fill="midnightblue" stroke="midnightblue" points="381.54,-26.02 391.88,-23.71 382.36,-19.07 381.54,-26.02"/>
</g>
<!-- Node4 -->
<g id="node4" class="node">
<title>Node4</title>
<g id="a_node4"><a xlink:href="classidg__document.html#a0e01326ce378e5cf31d9c6fb11097b31" target="_top" xlink:title=" ">
<polygon fill="white" stroke="black" points="0,-0.5 0,-19.5 156,-19.5 156,-0.5 0,-0.5"/>
<text text-anchor="middle" x="78" y="-7.5" font-family="Helvetica,sans-Serif" font-size="10.00">idg_document\get_renderers</text>
</a>
</g>
</g>
<!-- Node3&#45;&gt;Node4 -->
<g id="edge3" class="edge">
<title>Node3&#45;&gt;Node4</title>
<path fill="none" stroke="midnightblue" d="M181.8,-10C173.21,-10 164.55,-10 156.1,-10"/>
<polygon fill="midnightblue" stroke="midnightblue" points="181.85,-13.5 191.85,-10 181.85,-6.5 181.85,-13.5"/>
</g>
</g>
</svg>
