<?xml version="1.0" encoding="UTF-8" standalone="no"?>
<!DOCTYPE svg PUBLIC "-//W3C//DTD SVG 1.1//EN"
 "http://www.w3.org/Graphics/SVG/1.1/DTD/svg11.dtd">
<!-- Generated by graphviz version 2.43.0 (0)
 -->
<!-- Title: idg_datasource_textfile Pages: 1 -->
<svg width="145pt" height="140pt"
 viewBox="0.00 0.00 145.00 140.00" xmlns="http://www.w3.org/2000/svg" xmlns:xlink="http://www.w3.org/1999/xlink">
<g id="graph0" class="graph" transform="scale(1 1) rotate(0) translate(4 136)">
<title>idg_datasource_textfile</title>
<polygon fill="white" stroke="transparent" points="-4,4 -4,-136 141,-136 141,4 -4,4"/>
<!-- Node1 -->
<g id="node1" class="node">
<title>Node1</title>
<g id="a_node1"><a xlink:title="Returns the content of a (normally text) file.">
<polygon fill="#bfbfbf" stroke="black" points="3,-0.5 3,-19.5 134,-19.5 134,-0.5 3,-0.5"/>
<text text-anchor="middle" x="68.5" y="-7.5" font-family="Helvetica,sans-Serif" font-size="10.00">idg_datasource_textfile</text>
</a>
</g>
</g>
<!-- Node2 -->
<g id="node2" class="node">
<title>Node2</title>
<g id="a_node2"><a xlink:href="classidg__datasource__instance.html" target="_top" xlink:title="The source of all data.">
<polygon fill="white" stroke="black" points="0,-56.5 0,-75.5 137,-75.5 137,-56.5 0,-56.5"/>
<text text-anchor="middle" x="68.5" y="-63.5" font-family="Helvetica,sans-Serif" font-size="10.00">idg_datasource_instance</text>
</a>
</g>
</g>
<!-- Node2&#45;&gt;Node1 -->
<g id="edge1" class="edge">
<title>Node2&#45;&gt;Node1</title>
<path fill="none" stroke="midnightblue" d="M68.5,-45.8C68.5,-36.91 68.5,-26.78 68.5,-19.75"/>
<polygon fill="midnightblue" stroke="midnightblue" points="65,-46.08 68.5,-56.08 72,-46.08 65,-46.08"/>
</g>
<!-- Node3 -->
<g id="node3" class="node">
<title>Node3</title>
<g id="a_node3"><a xlink:href="classidg__param__instance.html" target="_top" xlink:title="Base class for idg entities with parameters.">
<polygon fill="white" stroke="black" points="11,-112.5 11,-131.5 126,-131.5 126,-112.5 11,-112.5"/>
<text text-anchor="middle" x="68.5" y="-119.5" font-family="Helvetica,sans-Serif" font-size="10.00">idg_param_instance</text>
</a>
</g>
</g>
<!-- Node3&#45;&gt;Node2 -->
<g id="edge2" class="edge">
<title>Node3&#45;&gt;Node2</title>
<path fill="none" stroke="midnightblue" d="M68.5,-101.8C68.5,-92.91 68.5,-82.78 68.5,-75.75"/>
<polygon fill="midnightblue" stroke="midnightblue" points="65,-102.08 68.5,-112.08 72,-102.08 65,-102.08"/>
</g>
</g>
</svg>
