<?xml version="1.0" encoding="UTF-8" standalone="no"?>
<!DOCTYPE svg PUBLIC "-//W3C//DTD SVG 1.1//EN"
 "http://www.w3.org/Graphics/SVG/1.1/DTD/svg11.dtd">
<!-- Generated by graphviz version 2.43.0 (0)
 -->
<!-- Title: idg_view_html_renderer_phpscript_obj\is_valid Pages: 1 -->
<svg width="321pt" height="100pt"
 viewBox="0.00 0.00 321.00 99.50" xmlns="http://www.w3.org/2000/svg" xmlns:xlink="http://www.w3.org/1999/xlink">
<g id="graph0" class="graph" transform="scale(1 1) rotate(0) translate(4 95.5)">
<title>idg_view_html_renderer_phpscript_obj\is_valid</title>
<polygon fill="white" stroke="transparent" points="-4,4 -4,-95.5 317,-95.5 317,4 -4,4"/>
<!-- Node1 -->
<g id="node1" class="node">
<title>Node1</title>
<g id="a_node1"><a xlink:title=" ">
<polygon fill="#bfbfbf" stroke="black" points="179,-33 179,-63 313,-63 313,-33 179,-33"/>
<text text-anchor="start" x="187" y="-51" font-family="Helvetica,sans-Serif" font-size="10.00">idg_view_html_renderer</text>
<text text-anchor="middle" x="246" y="-40" font-family="Helvetica,sans-Serif" font-size="10.00">_phpscript_obj\is_valid</text>
</a>
</g>
</g>
<!-- Node2 -->
<g id="node2" class="node">
<title>Node2</title>
<g id="a_node2"><a xlink:href="classidg__view__html__renderer__phpscript__obj.html#a0326f74cd1f1838ca34e120c84188569" target="_top" xlink:title=" ">
<polygon fill="white" stroke="black" points="0,-61 0,-91 143,-91 143,-61 0,-61"/>
<text text-anchor="start" x="8" y="-79" font-family="Helvetica,sans-Serif" font-size="10.00">idg_view_html_renderer</text>
<text text-anchor="middle" x="71.5" y="-68" font-family="Helvetica,sans-Serif" font-size="10.00">_phpscript_obj\set_invalid</text>
</a>
</g>
</g>
<!-- Node1&#45;&gt;Node2 -->
<g id="edge1" class="edge">
<title>Node1&#45;&gt;Node2</title>
<path fill="none" stroke="midnightblue" d="M168.84,-60.36C160.28,-61.75 151.59,-63.16 143.11,-64.54"/>
<polygon fill="midnightblue" stroke="midnightblue" points="169.49,-63.8 178.8,-58.75 168.37,-56.89 169.49,-63.8"/>
</g>
<!-- Node3 -->
<g id="node3" class="node">
<title>Node3</title>
<g id="a_node3"><a xlink:href="classidg__view__html__renderer__phpscript__obj.html#a7379dd1098638843faed2bb3000456ee" target="_top" xlink:title=" ">
<polygon fill="white" stroke="black" points="0,-0.5 0,-41.5 143,-41.5 143,-0.5 0,-0.5"/>
<text text-anchor="start" x="8" y="-29.5" font-family="Helvetica,sans-Serif" font-size="10.00">idg_view_html_renderer</text>
<text text-anchor="start" x="8" y="-18.5" font-family="Helvetica,sans-Serif" font-size="10.00">_phpscript_obj\set_invalid</text>
<text text-anchor="middle" x="71.5" y="-7.5" font-family="Helvetica,sans-Serif" font-size="10.00">_if_empty</text>
</a>
</g>
</g>
<!-- Node1&#45;&gt;Node3 -->
<g id="edge2" class="edge">
<title>Node1&#45;&gt;Node3</title>
<path fill="none" stroke="midnightblue" d="M168.84,-36.08C160.28,-34.74 151.59,-33.38 143.11,-32.05"/>
<polygon fill="midnightblue" stroke="midnightblue" points="168.38,-39.55 178.8,-37.64 169.46,-32.63 168.38,-39.55"/>
</g>
</g>
</svg>
