<?xml version="1.0" encoding="UTF-8" standalone="no"?>
<!DOCTYPE svg PUBLIC "-//W3C//DTD SVG 1.1//EN"
 "http://www.w3.org/Graphics/SVG/1.1/DTD/svg11.dtd">
<!-- Generated by graphviz version 2.43.0 (0)
 -->
<!-- Title: idg_view_html_part_fixedbar\render Pages: 1 -->
<svg width="289pt" height="176pt"
 viewBox="0.00 0.00 289.00 175.50" xmlns="http://www.w3.org/2000/svg" xmlns:xlink="http://www.w3.org/1999/xlink">
<g id="graph0" class="graph" transform="scale(1 1) rotate(0) translate(4 171.5)">
<title>idg_view_html_part_fixedbar\render</title>
<polygon fill="white" stroke="transparent" points="-4,4 -4,-171.5 285,-171.5 285,4 -4,4"/>
<!-- Node1 -->
<g id="node1" class="node">
<title>Node1</title>
<g id="a_node1"><a xlink:title=" ">
<polygon fill="#bfbfbf" stroke="black" points="0,-73.5 0,-103.5 113,-103.5 113,-73.5 0,-73.5"/>
<text text-anchor="start" x="8" y="-91.5" font-family="Helvetica,sans-Serif" font-size="10.00">idg_view_html_part</text>
<text text-anchor="middle" x="56.5" y="-80.5" font-family="Helvetica,sans-Serif" font-size="10.00">_fixedbar\render</text>
</a>
</g>
</g>
<!-- Node2 -->
<g id="node2" class="node">
<title>Node2</title>
<g id="a_node2"><a xlink:href="diagnostics_8php.html#ab33364bd97c64c5f346adb6581e200b2" target="_top" xlink:title=" ">
<polygon fill="white" stroke="black" points="196,-148 196,-167 234,-167 234,-148 196,-148"/>
<text text-anchor="middle" x="215" y="-155" font-family="Helvetica,sans-Serif" font-size="10.00">diag</text>
</a>
</g>
</g>
<!-- Node1&#45;&gt;Node2 -->
<g id="edge1" class="edge">
<title>Node1&#45;&gt;Node2</title>
<path fill="none" stroke="midnightblue" d="M81.64,-103.57C99.69,-114.36 125.25,-128.67 149,-138.5 160.93,-143.44 174.59,-147.63 186.3,-150.82"/>
<polygon fill="midnightblue" stroke="midnightblue" points="185.43,-154.21 195.99,-153.35 187.2,-147.44 185.43,-154.21"/>
</g>
<!-- Node3 -->
<g id="node3" class="node">
<title>Node3</title>
<g id="a_node3"><a xlink:href="classidg__tree__node__instance.html#a89215ec2899bef35cd55e054d73d6638" target="_top" xlink:title="Returns child by number or null, i.e.">
<polygon fill="white" stroke="black" points="149,-98.5 149,-128.5 281,-128.5 281,-98.5 149,-98.5"/>
<text text-anchor="start" x="157" y="-116.5" font-family="Helvetica,sans-Serif" font-size="10.00">idg_tree_node_instance</text>
<text text-anchor="middle" x="215" y="-105.5" font-family="Helvetica,sans-Serif" font-size="10.00">\get_child</text>
</a>
</g>
</g>
<!-- Node1&#45;&gt;Node3 -->
<g id="edge2" class="edge">
<title>Node1&#45;&gt;Node3</title>
<path fill="none" stroke="midnightblue" d="M113.12,-97.38C121.45,-98.72 130.16,-100.11 138.82,-101.49"/>
<polygon fill="midnightblue" stroke="midnightblue" points="138.51,-104.99 148.94,-103.11 139.62,-98.07 138.51,-104.99"/>
</g>
<!-- Node4 -->
<g id="node4" class="node">
<title>Node4</title>
<g id="a_node4"><a xlink:href="classidg__tree__node__instance.html#aee07c5c32de34d534aee8a10e12548b7" target="_top" xlink:title=" ">
<polygon fill="white" stroke="black" points="149,-49.5 149,-79.5 281,-79.5 281,-49.5 149,-49.5"/>
<text text-anchor="start" x="157" y="-67.5" font-family="Helvetica,sans-Serif" font-size="10.00">idg_tree_node_instance</text>
<text text-anchor="middle" x="215" y="-56.5" font-family="Helvetica,sans-Serif" font-size="10.00">\get_child_count</text>
</a>
</g>
</g>
<!-- Node1&#45;&gt;Node4 -->
<g id="edge3" class="edge">
<title>Node1&#45;&gt;Node4</title>
<path fill="none" stroke="midnightblue" d="M113.12,-79.97C121.45,-78.69 130.16,-77.36 138.82,-76.03"/>
<polygon fill="midnightblue" stroke="midnightblue" points="139.59,-79.45 148.94,-74.48 138.52,-72.53 139.59,-79.45"/>
</g>
<!-- Node5 -->
<g id="node5" class="node">
<title>Node5</title>
<g id="a_node5"><a xlink:href="classidg__tree__node__instance.html#abf5f963e67716b4447d1062ddc5e9dc2" target="_top" xlink:title=" ">
<polygon fill="white" stroke="black" points="149,-0.5 149,-30.5 281,-30.5 281,-0.5 149,-0.5"/>
<text text-anchor="start" x="157" y="-18.5" font-family="Helvetica,sans-Serif" font-size="10.00">idg_tree_node_instance</text>
<text text-anchor="middle" x="215" y="-7.5" font-family="Helvetica,sans-Serif" font-size="10.00">\get_property</text>
</a>
</g>
</g>
<!-- Node1&#45;&gt;Node5 -->
<g id="edge4" class="edge">
<title>Node1&#45;&gt;Node5</title>
<path fill="none" stroke="midnightblue" d="M84.32,-73.38C102.34,-63.48 126.78,-50.56 149,-40.5 153.63,-38.4 158.49,-36.32 163.39,-34.3"/>
<polygon fill="midnightblue" stroke="midnightblue" points="164.82,-37.5 172.79,-30.52 162.2,-31.01 164.82,-37.5"/>
</g>
</g>
</svg>
