<?xml version="1.0" encoding="UTF-8" standalone="no"?>
<!DOCTYPE svg PUBLIC "-//W3C//DTD SVG 1.1//EN"
 "http://www.w3.org/Graphics/SVG/1.1/DTD/svg11.dtd">
<!-- Generated by graphviz version 2.43.0 (0)
 -->
<!-- Title: idg_declaration_type Pages: 1 -->
<svg width="370pt" height="140pt"
 viewBox="0.00 0.00 369.50 140.00" xmlns="http://www.w3.org/2000/svg" xmlns:xlink="http://www.w3.org/1999/xlink">
<g id="graph0" class="graph" transform="scale(1 1) rotate(0) translate(4 136)">
<title>idg_declaration_type</title>
<polygon fill="white" stroke="transparent" points="-4,4 -4,-136 365.5,-136 365.5,4 -4,4"/>
<!-- Node1 -->
<g id="node1" class="node">
<title>Node1</title>
<g id="a_node1"><a xlink:title=" ">
<polygon fill="#bfbfbf" stroke="black" points="124.5,-56.5 124.5,-75.5 243.5,-75.5 243.5,-56.5 124.5,-56.5"/>
<text text-anchor="middle" x="184" y="-63.5" font-family="Helvetica,sans-Serif" font-size="10.00">idg_declaration_type</text>
</a>
</g>
</g>
<!-- Node3 -->
<g id="node3" class="node">
<title>Node3</title>
<g id="a_node3"><a xlink:href="classidg__datasource__declaration__type.html" target="_top" xlink:title=" ">
<polygon fill="white" stroke="black" points="0,-0.5 0,-19.5 178,-19.5 178,-0.5 0,-0.5"/>
<text text-anchor="middle" x="89" y="-7.5" font-family="Helvetica,sans-Serif" font-size="10.00">idg_datasource_declaration_type</text>
</a>
</g>
</g>
<!-- Node1&#45;&gt;Node3 -->
<g id="edge2" class="edge">
<title>Node1&#45;&gt;Node3</title>
<path fill="none" stroke="midnightblue" d="M159.68,-51.18C142.2,-41.24 119.17,-28.15 104.23,-19.65"/>
<polygon fill="midnightblue" stroke="midnightblue" points="158.31,-54.43 168.74,-56.32 161.77,-48.34 158.31,-54.43"/>
</g>
<!-- Node4 -->
<g id="node4" class="node">
<title>Node4</title>
<g id="a_node4"><a xlink:href="classidg__renderer__declaration__type.html" target="_top" xlink:title=" ">
<polygon fill="white" stroke="black" points="196.5,-0.5 196.5,-19.5 361.5,-19.5 361.5,-0.5 196.5,-0.5"/>
<text text-anchor="middle" x="279" y="-7.5" font-family="Helvetica,sans-Serif" font-size="10.00">idg_renderer_declaration_type</text>
</a>
</g>
</g>
<!-- Node1&#45;&gt;Node4 -->
<g id="edge3" class="edge">
<title>Node1&#45;&gt;Node4</title>
<path fill="none" stroke="midnightblue" d="M208.32,-51.18C225.8,-41.24 248.83,-28.15 263.77,-19.65"/>
<polygon fill="midnightblue" stroke="midnightblue" points="206.23,-48.34 199.26,-56.32 209.69,-54.43 206.23,-48.34"/>
</g>
<!-- Node2 -->
<g id="node2" class="node">
<title>Node2</title>
<g id="a_node2"><a xlink:href="classidg__object__type.html" target="_top" xlink:title=" ">
<polygon fill="white" stroke="black" points="137,-112.5 137,-131.5 231,-131.5 231,-112.5 137,-112.5"/>
<text text-anchor="middle" x="184" y="-119.5" font-family="Helvetica,sans-Serif" font-size="10.00">idg_object_type</text>
</a>
</g>
</g>
<!-- Node2&#45;&gt;Node1 -->
<g id="edge1" class="edge">
<title>Node2&#45;&gt;Node1</title>
<path fill="none" stroke="midnightblue" d="M184,-101.8C184,-92.91 184,-82.78 184,-75.75"/>
<polygon fill="midnightblue" stroke="midnightblue" points="180.5,-102.08 184,-112.08 187.5,-102.08 180.5,-102.08"/>
</g>
</g>
</svg>
