<?xml version="1.0" encoding="UTF-8" standalone="no"?>
<!DOCTYPE svg PUBLIC "-//W3C//DTD SVG 1.1//EN"
 "http://www.w3.org/Graphics/SVG/1.1/DTD/svg11.dtd">
<!-- Generated by graphviz version 2.43.0 (0)
 -->
<!-- Title: idg_view_html_element Pages: 1 -->
<svg width="542pt" height="142pt"
 viewBox="0.00 0.00 542.00 142.00" xmlns="http://www.w3.org/2000/svg" xmlns:xlink="http://www.w3.org/1999/xlink">
<g id="graph0" class="graph" transform="scale(1 1) rotate(0) translate(4 138)">
<title>idg_view_html_element</title>
<polygon fill="white" stroke="transparent" points="-4,4 -4,-138 538,-138 538,4 -4,4"/>
<!-- Node1 -->
<g id="node1" class="node">
<title>Node1</title>
<g id="a_node1"><a xlink:title=" ">
<polygon fill="#bfbfbf" stroke="black" points="225,-57.5 225,-76.5 359,-76.5 359,-57.5 225,-57.5"/>
<text text-anchor="middle" x="292" y="-64.5" font-family="Helvetica,sans-Serif" font-size="10.00">idg_view_html_element</text>
</a>
</g>
</g>
<!-- Node4 -->
<g id="node4" class="node">
<title>Node4</title>
<g id="a_node4"><a xlink:href="classidg__view__html__container.html" target="_top" xlink:title=" ">
<polygon fill="white" stroke="black" points="395,-114.5 395,-133.5 534,-133.5 534,-114.5 395,-114.5"/>
<text text-anchor="middle" x="464.5" y="-121.5" font-family="Helvetica,sans-Serif" font-size="10.00">idg_view_html_container</text>
</a>
</g>
</g>
<!-- Node1&#45;&gt;Node4 -->
<g id="edge3" class="edge">
<title>Node1&#45;&gt;Node4</title>
<path fill="none" stroke="midnightblue" d="M326.6,-80.35C346.36,-87.99 371.93,-97.52 395,-105 405.21,-108.31 416.4,-111.57 426.71,-114.42"/>
<polygon fill="midnightblue" stroke="midnightblue" points="327.7,-77.02 317.11,-76.65 325.16,-83.54 327.7,-77.02"/>
</g>
<!-- Node5 -->
<g id="node5" class="node">
<title>Node5</title>
<g id="a_node5"><a xlink:href="classidg__view__html__item.html" target="_top" xlink:title=" ">
<polygon fill="white" stroke="black" points="406.5,-76.5 406.5,-95.5 522.5,-95.5 522.5,-76.5 406.5,-76.5"/>
<text text-anchor="middle" x="464.5" y="-83.5" font-family="Helvetica,sans-Serif" font-size="10.00">idg_view_html_item</text>
</a>
</g>
</g>
<!-- Node1&#45;&gt;Node5 -->
<g id="edge4" class="edge">
<title>Node1&#45;&gt;Node5</title>
<path fill="none" stroke="midnightblue" d="M369.7,-75.55C382.04,-76.92 394.63,-78.32 406.4,-79.64"/>
<polygon fill="midnightblue" stroke="midnightblue" points="369.73,-72.03 359.41,-74.4 368.96,-78.99 369.73,-72.03"/>
</g>
<!-- Node6 -->
<g id="node6" class="node">
<title>Node6</title>
<g id="a_node6"><a xlink:href="classidg__view__html__part.html" target="_top" xlink:title=" ">
<polygon fill="white" stroke="black" points="408,-38.5 408,-57.5 521,-57.5 521,-38.5 408,-38.5"/>
<text text-anchor="middle" x="464.5" y="-45.5" font-family="Helvetica,sans-Serif" font-size="10.00">idg_view_html_part</text>
</a>
</g>
</g>
<!-- Node1&#45;&gt;Node6 -->
<g id="edge5" class="edge">
<title>Node1&#45;&gt;Node6</title>
<path fill="none" stroke="midnightblue" d="M369.63,-58.46C382.47,-57.03 395.57,-55.57 407.76,-54.21"/>
<polygon fill="midnightblue" stroke="midnightblue" points="368.96,-55.01 359.41,-59.6 369.73,-61.97 368.96,-55.01"/>
</g>
<!-- Node7 -->
<g id="node7" class="node">
<title>Node7</title>
<g id="a_node7"><a xlink:href="classidg__view__html__renderer.html" target="_top" xlink:title="The parent class of all renderers.">
<polygon fill="white" stroke="black" points="397.5,-0.5 397.5,-19.5 531.5,-19.5 531.5,-0.5 397.5,-0.5"/>
<text text-anchor="middle" x="464.5" y="-7.5" font-family="Helvetica,sans-Serif" font-size="10.00">idg_view_html_renderer</text>
</a>
</g>
</g>
<!-- Node1&#45;&gt;Node7 -->
<g id="edge6" class="edge">
<title>Node1&#45;&gt;Node7</title>
<path fill="none" stroke="midnightblue" d="M326.6,-53.65C346.36,-46.01 371.93,-36.48 395,-29 405.21,-25.69 416.4,-22.43 426.71,-19.58"/>
<polygon fill="midnightblue" stroke="midnightblue" points="325.16,-50.46 317.11,-57.35 327.7,-56.98 325.16,-50.46"/>
</g>
<!-- Node2 -->
<g id="node2" class="node">
<title>Node2</title>
<g id="a_node2"><a xlink:href="classidg__tree__node.html" target="_top" xlink:title=" ">
<polygon fill="white" stroke="black" points="103,-57.5 103,-76.5 189,-76.5 189,-57.5 103,-57.5"/>
<text text-anchor="middle" x="146" y="-64.5" font-family="Helvetica,sans-Serif" font-size="10.00">idg_tree_node</text>
</a>
</g>
</g>
<!-- Node2&#45;&gt;Node1 -->
<g id="edge1" class="edge">
<title>Node2&#45;&gt;Node1</title>
<path fill="none" stroke="midnightblue" d="M199.29,-67C207.58,-67 216.24,-67 224.79,-67"/>
<polygon fill="midnightblue" stroke="midnightblue" points="199.04,-63.5 189.04,-67 199.04,-70.5 199.04,-63.5"/>
</g>
<!-- Node3 -->
<g id="node3" class="node">
<title>Node3</title>
<g id="a_node3"><a xlink:href="classidg__object.html" target="_top" xlink:title=" ">
<polygon fill="white" stroke="black" points="0,-57.5 0,-76.5 67,-76.5 67,-57.5 0,-57.5"/>
<text text-anchor="middle" x="33.5" y="-64.5" font-family="Helvetica,sans-Serif" font-size="10.00">idg_object</text>
</a>
</g>
</g>
<!-- Node3&#45;&gt;Node2 -->
<g id="edge2" class="edge">
<title>Node3&#45;&gt;Node2</title>
<path fill="none" stroke="midnightblue" d="M77.09,-67C85.54,-67 94.4,-67 102.83,-67"/>
<polygon fill="midnightblue" stroke="midnightblue" points="77.06,-63.5 67.06,-67 77.06,-70.5 77.06,-63.5"/>
</g>
</g>
</svg>
