<?xml version="1.0" encoding="UTF-8" standalone="no"?>
<!DOCTYPE svg PUBLIC "-//W3C//DTD SVG 1.1//EN"
 "http://www.w3.org/Graphics/SVG/1.1/DTD/svg11.dtd">
<!-- Generated by graphviz version 2.43.0 (0)
 -->
<!-- Title: idg_document\get_renderers Pages: 1 -->
<svg width="694pt" height="195pt"
 viewBox="0.00 0.00 694.00 195.19" xmlns="http://www.w3.org/2000/svg" xmlns:xlink="http://www.w3.org/1999/xlink">
<g id="graph0" class="graph" transform="scale(1 1) rotate(0) translate(4 191.19)">
<title>idg_document\get_renderers</title>
<polygon fill="white" stroke="transparent" points="-4,4 -4,-191.19 690,-191.19 690,4 -4,4"/>
<!-- Node1 -->
<g id="node1" class="node">
<title>Node1</title>
<g id="a_node1"><a xlink:title=" ">
<polygon fill="#bfbfbf" stroke="black" points="0,-117.5 0,-136.5 156,-136.5 156,-117.5 0,-117.5"/>
<text text-anchor="middle" x="78" y="-124.5" font-family="Helvetica,sans-Serif" font-size="10.00">idg_document\get_renderers</text>
</a>
</g>
</g>
<!-- Node2 -->
<g id="node2" class="node">
<title>Node2</title>
<g id="a_node2"><a xlink:href="diagnostics_8php.html#ab33364bd97c64c5f346adb6581e200b2" target="_top" xlink:title=" ">
<polygon fill="white" stroke="black" points="609.5,-145.5 609.5,-164.5 647.5,-164.5 647.5,-145.5 609.5,-145.5"/>
<text text-anchor="middle" x="628.5" y="-152.5" font-family="Helvetica,sans-Serif" font-size="10.00">diag</text>
</a>
</g>
</g>
<!-- Node1&#45;&gt;Node2 -->
<g id="edge1" class="edge">
<title>Node1&#45;&gt;Node2</title>
<path fill="none" stroke="midnightblue" d="M95.94,-136.55C117.47,-148.09 156.16,-166.84 192,-174 343.11,-204.17 529.33,-174.33 599.23,-160.85"/>
<polygon fill="midnightblue" stroke="midnightblue" points="600.29,-164.21 609.43,-158.84 598.94,-157.34 600.29,-164.21"/>
</g>
<!-- Node3 -->
<g id="node3" class="node">
<title>Node3</title>
<g id="a_node3"><a xlink:href="classidg__tree__node.html#aa2b0c8b3da20c853f324e1986334016c" target="_top" xlink:title="Returns an array of all children whose property $key_name is set to $key_value.">
<polygon fill="white" stroke="black" points="199.5,-134 199.5,-164 348.5,-164 348.5,-134 199.5,-134"/>
<text text-anchor="start" x="207.5" y="-152" font-family="Helvetica,sans-Serif" font-size="10.00">idg_tree_node\get_children</text>
<text text-anchor="middle" x="274" y="-141" font-family="Helvetica,sans-Serif" font-size="10.00">_by_key</text>
</a>
</g>
</g>
<!-- Node1&#45;&gt;Node3 -->
<g id="edge2" class="edge">
<title>Node1&#45;&gt;Node3</title>
<path fill="none" stroke="midnightblue" d="M156.23,-135.76C167.07,-136.99 178.26,-138.26 189.21,-139.5"/>
<polygon fill="midnightblue" stroke="midnightblue" points="188.86,-142.98 199.19,-140.63 189.65,-136.03 188.86,-142.98"/>
</g>
<!-- Node4 -->
<g id="node4" class="node">
<title>Node4</title>
<g id="a_node4"><a xlink:href="classidg__document.html#a4afd3976093de18e8f339c3dee48bed4" target="_top" xlink:title=" ">
<polygon fill="white" stroke="black" points="192,-95.5 192,-114.5 356,-114.5 356,-95.5 192,-95.5"/>
<text text-anchor="middle" x="274" y="-102.5" font-family="Helvetica,sans-Serif" font-size="10.00">idg_document\get_datasource</text>
</a>
</g>
</g>
<!-- Node1&#45;&gt;Node4 -->
<g id="edge3" class="edge">
<title>Node1&#45;&gt;Node4</title>
<path fill="none" stroke="midnightblue" d="M156.23,-118.24C164.66,-117.29 173.3,-116.31 181.88,-115.33"/>
<polygon fill="midnightblue" stroke="midnightblue" points="182.36,-118.8 191.9,-114.2 181.57,-111.85 182.36,-118.8"/>
</g>
<!-- Node7 -->
<g id="node7" class="node">
<title>Node7</title>
<g id="a_node7"><a xlink:href="classidg__document.html#a4554297770548415a0edf16831c41255" target="_top" xlink:title=" ">
<polygon fill="white" stroke="black" points="208.5,-38.5 208.5,-57.5 339.5,-57.5 339.5,-38.5 208.5,-38.5"/>
<text text-anchor="middle" x="274" y="-45.5" font-family="Helvetica,sans-Serif" font-size="10.00">idg_document\get_path</text>
</a>
</g>
</g>
<!-- Node1&#45;&gt;Node7 -->
<g id="edge8" class="edge">
<title>Node1&#45;&gt;Node7</title>
<path fill="none" stroke="midnightblue" d="M102.4,-117.47C136.78,-103.47 201.06,-77.29 240.15,-61.38"/>
<polygon fill="midnightblue" stroke="midnightblue" points="241.57,-64.58 249.52,-57.56 238.93,-58.09 241.57,-64.58"/>
</g>
<!-- Node4&#45;&gt;Node2 -->
<g id="edge4" class="edge">
<title>Node4&#45;&gt;Node2</title>
<path fill="none" stroke="midnightblue" d="M315.49,-114.54C328.47,-117.72 342.88,-121.38 356,-125 372.13,-129.45 375.57,-132.86 392,-136 465.89,-150.1 554.76,-153.75 599.24,-154.68"/>
<polygon fill="midnightblue" stroke="midnightblue" points="599.24,-158.18 609.3,-154.86 599.36,-151.19 599.24,-158.18"/>
</g>
<!-- Node5 -->
<g id="node5" class="node">
<title>Node5</title>
<g id="a_node5"><a xlink:href="classidg__tree__node.html#a78459bb68b6088d2faf43fcfe098bdf3" target="_top" xlink:title="Finds a child whose property $key_name is set to $key_value.">
<polygon fill="white" stroke="black" points="397,-96 397,-126 530,-126 530,-96 397,-96"/>
<text text-anchor="start" x="405" y="-114" font-family="Helvetica,sans-Serif" font-size="10.00">idg_tree_node\get_child</text>
<text text-anchor="middle" x="463.5" y="-103" font-family="Helvetica,sans-Serif" font-size="10.00">_by_key</text>
</a>
</g>
</g>
<!-- Node4&#45;&gt;Node5 -->
<g id="edge5" class="edge">
<title>Node4&#45;&gt;Node5</title>
<path fill="none" stroke="midnightblue" d="M356.15,-107.6C366.21,-107.92 376.47,-108.25 386.46,-108.57"/>
<polygon fill="midnightblue" stroke="midnightblue" points="386.63,-112.07 396.74,-108.9 386.86,-105.08 386.63,-112.07"/>
</g>
<!-- Node6 -->
<g id="node6" class="node">
<title>Node6</title>
<g id="a_node6"><a xlink:href="classidg__site__element.html#a06514b8d84f5ba62cf4e821884752c65" target="_top" xlink:title=" ">
<polygon fill="white" stroke="black" points="392,-57.5 392,-76.5 535,-76.5 535,-57.5 392,-57.5"/>
<text text-anchor="middle" x="463.5" y="-64.5" font-family="Helvetica,sans-Serif" font-size="10.00">idg_site_element\get_site</text>
</a>
</g>
</g>
<!-- Node4&#45;&gt;Node6 -->
<g id="edge6" class="edge">
<title>Node4&#45;&gt;Node6</title>
<path fill="none" stroke="midnightblue" d="M322.31,-95.41C347.61,-90.28 378.95,-83.93 405.57,-78.54"/>
<polygon fill="midnightblue" stroke="midnightblue" points="406.42,-81.94 415.53,-76.52 405.03,-75.08 406.42,-81.94"/>
</g>
<!-- Node6&#45;&gt;Node2 -->
<g id="edge7" class="edge">
<title>Node6&#45;&gt;Node2</title>
<path fill="none" stroke="midnightblue" d="M507.54,-76.57C516.83,-79.35 526.43,-82.81 535,-87 563.15,-100.78 591.63,-123.29 609.4,-138.61"/>
<polygon fill="midnightblue" stroke="midnightblue" points="607.39,-141.5 617.22,-145.48 612.02,-136.25 607.39,-141.5"/>
</g>
<!-- Node8 -->
<g id="node8" class="node">
<title>Node8</title>
<g id="a_node8"><a xlink:href="classidg__object.html#ac54f91fd013c01d09e085472d6bdb6e8" target="_top" xlink:title=" ">
<polygon fill="white" stroke="black" points="397.5,-19.5 397.5,-38.5 529.5,-38.5 529.5,-19.5 397.5,-19.5"/>
<text text-anchor="middle" x="463.5" y="-26.5" font-family="Helvetica,sans-Serif" font-size="10.00">idg_object\get_property</text>
</a>
</g>
</g>
<!-- Node7&#45;&gt;Node8 -->
<g id="edge9" class="edge">
<title>Node7&#45;&gt;Node8</title>
<path fill="none" stroke="midnightblue" d="M339.53,-41.46C354.82,-39.91 371.27,-38.24 387,-36.65"/>
<polygon fill="midnightblue" stroke="midnightblue" points="387.62,-40.11 397.22,-35.62 386.92,-33.14 387.62,-40.11"/>
</g>
<!-- Node9 -->
<g id="node9" class="node">
<title>Node9</title>
<g id="a_node9"><a xlink:href="classidg__object.html#a583e265c2dbc95871ab08eb9820c3ee8" target="_top" xlink:title="Helper: executes members of this object and global functions.">
<polygon fill="white" stroke="black" points="574.5,-38.5 574.5,-57.5 682.5,-57.5 682.5,-38.5 574.5,-38.5"/>
<text text-anchor="middle" x="628.5" y="-45.5" font-family="Helvetica,sans-Serif" font-size="10.00">idg_object\execute</text>
</a>
</g>
</g>
<!-- Node8&#45;&gt;Node9 -->
<g id="edge10" class="edge">
<title>Node8&#45;&gt;Node9</title>
<path fill="none" stroke="midnightblue" d="M529.86,-36.62C541.18,-37.94 552.94,-39.31 564.21,-40.62"/>
<polygon fill="midnightblue" stroke="midnightblue" points="564.06,-44.13 574.39,-41.81 564.87,-37.18 564.06,-44.13"/>
</g>
<!-- Node10 -->
<g id="node10" class="node">
<title>Node10</title>
<g id="a_node10"><a xlink:href="classidg__object.html#a35093e6cb6bcfc815778ed16cbc11e75" target="_top" xlink:title=" ">
<polygon fill="white" stroke="black" points="571,-0.5 571,-19.5 686,-19.5 686,-0.5 571,-0.5"/>
<text text-anchor="middle" x="628.5" y="-7.5" font-family="Helvetica,sans-Serif" font-size="10.00">idg_object\get_hook</text>
</a>
</g>
</g>
<!-- Node8&#45;&gt;Node10 -->
<g id="edge11" class="edge">
<title>Node8&#45;&gt;Node10</title>
<path fill="none" stroke="midnightblue" d="M529.86,-21.38C540.02,-20.2 550.53,-18.97 560.73,-17.78"/>
<polygon fill="midnightblue" stroke="midnightblue" points="561.27,-21.24 570.79,-16.61 560.45,-14.29 561.27,-21.24"/>
</g>
</g>
</svg>
