<?xml version="1.0" encoding="UTF-8" standalone="no"?>
<!DOCTYPE svg PUBLIC "-//W3C//DTD SVG 1.1//EN"
 "http://www.w3.org/Graphics/SVG/1.1/DTD/svg11.dtd">
<!-- Generated by graphviz version 2.43.0 (0)
 -->
<!-- Title: Indigo\Module\Sourcefile\datasource Pages: 1 -->
<svg width="355pt" height="151pt"
 viewBox="0.00 0.00 355.00 151.00" xmlns="http://www.w3.org/2000/svg" xmlns:xlink="http://www.w3.org/1999/xlink">
<g id="graph0" class="graph" transform="scale(1 1) rotate(0) translate(4 147)">
<title>Indigo\Module\Sourcefile\datasource</title>
<polygon fill="white" stroke="transparent" points="-4,4 -4,-147 351,-147 351,4 -4,4"/>
<!-- Node1 -->
<g id="node1" class="node">
<title>Node1</title>
<g id="a_node1"><a xlink:title=" ">
<polygon fill="#bfbfbf" stroke="black" points="125.5,-0.5 125.5,-30.5 262.5,-30.5 262.5,-0.5 125.5,-0.5"/>
<text text-anchor="start" x="133.5" y="-18.5" font-family="Helvetica,sans-Serif" font-size="10.00">Indigo\Module\Sourcefile</text>
<text text-anchor="middle" x="194" y="-7.5" font-family="Helvetica,sans-Serif" font-size="10.00">\datasource</text>
</a>
</g>
</g>
<!-- Node2 -->
<g id="node2" class="node">
<title>Node2</title>
<g id="a_node2"><a xlink:href="classidg__datasource__implementation.html" target="_top" xlink:title="An object instance of a data source.">
<polygon fill="white" stroke="black" points="107,-67.5 107,-86.5 281,-86.5 281,-67.5 107,-67.5"/>
<text text-anchor="middle" x="194" y="-74.5" font-family="Helvetica,sans-Serif" font-size="10.00">idg_datasource_implementation</text>
</a>
</g>
</g>
<!-- Node2&#45;&gt;Node1 -->
<g id="edge1" class="edge">
<title>Node2&#45;&gt;Node1</title>
<path fill="none" stroke="midnightblue" d="M194,-57.23C194,-48.59 194,-38.5 194,-30.52"/>
<polygon fill="midnightblue" stroke="midnightblue" points="190.5,-57.48 194,-67.48 197.5,-57.48 190.5,-57.48"/>
</g>
<!-- Node3 -->
<g id="node3" class="node">
<title>Node3</title>
<g id="a_node3"><a xlink:href="classidg__object__implementation.html" target="_top" xlink:title="Base class for ancillary objects that have no associated type information.">
<polygon fill="white" stroke="black" points="0,-123.5 0,-142.5 150,-142.5 150,-123.5 0,-123.5"/>
<text text-anchor="middle" x="75" y="-130.5" font-family="Helvetica,sans-Serif" font-size="10.00">idg_object_implementation</text>
</a>
</g>
</g>
<!-- Node3&#45;&gt;Node2 -->
<g id="edge2" class="edge">
<title>Node3&#45;&gt;Node2</title>
<path fill="none" stroke="midnightblue" d="M103.14,-119.23C125.4,-109.13 155.86,-95.31 175.23,-86.52"/>
<polygon fill="midnightblue" stroke="midnightblue" points="101.52,-116.12 93.86,-123.44 104.41,-122.5 101.52,-116.12"/>
</g>
<!-- Node4 -->
<g id="node4" class="node">
<title>Node4</title>
<g id="a_node4"><a xlink:title=" ">
<polygon fill="white" stroke="#bfbfbf" points="167.5,-123.5 167.5,-142.5 220.5,-142.5 220.5,-123.5 167.5,-123.5"/>
<text text-anchor="middle" x="194" y="-130.5" font-family="Helvetica,sans-Serif" font-size="10.00">Iterator</text>
</a>
</g>
</g>
<!-- Node4&#45;&gt;Node2 -->
<g id="edge3" class="edge">
<title>Node4&#45;&gt;Node2</title>
<path fill="none" stroke="midnightblue" d="M194,-112.8C194,-103.91 194,-93.78 194,-86.75"/>
<polygon fill="midnightblue" stroke="midnightblue" points="190.5,-113.08 194,-123.08 197.5,-113.08 190.5,-113.08"/>
</g>
<!-- Node5 -->
<g id="node5" class="node">
<title>Node5</title>
<g id="a_node5"><a xlink:href="interfaceidg__parameterized.html" target="_top" xlink:title="Interface for entities that accept parameters.">
<polygon fill="white" stroke="black" points="239,-123.5 239,-142.5 347,-142.5 347,-123.5 239,-123.5"/>
<text text-anchor="middle" x="293" y="-130.5" font-family="Helvetica,sans-Serif" font-size="10.00">idg_parameterized</text>
</a>
</g>
</g>
<!-- Node5&#45;&gt;Node2 -->
<g id="edge4" class="edge">
<title>Node5&#45;&gt;Node2</title>
<path fill="none" stroke="midnightblue" d="M268.16,-118.45C249.89,-108.48 225.58,-95.23 209.87,-86.65"/>
<polygon fill="midnightblue" stroke="midnightblue" points="266.64,-121.61 277.09,-123.32 269.99,-115.46 266.64,-121.61"/>
</g>
</g>
</svg>
