<?xml version="1.0" encoding="UTF-8" standalone="no"?>
<!DOCTYPE svg PUBLIC "-//W3C//DTD SVG 1.1//EN"
 "http://www.w3.org/Graphics/SVG/1.1/DTD/svg11.dtd">
<!-- Generated by graphviz version 2.43.0 (0)
 -->
<!-- Title: Indigo\Datasource\textfile\__construct Pages: 1 -->
<svg width="361pt" height="127pt"
 viewBox="0.00 0.00 361.00 126.50" xmlns="http://www.w3.org/2000/svg" xmlns:xlink="http://www.w3.org/1999/xlink">
<g id="graph0" class="graph" transform="scale(1 1) rotate(0) translate(4 122.5)">
<title>Indigo\Datasource\textfile\__construct</title>
<polygon fill="white" stroke="transparent" points="-4,4 -4,-122.5 357,-122.5 357,4 -4,4"/>
<!-- Node1 -->
<g id="node1" class="node">
<title>Node1</title>
<g id="a_node1"><a xlink:title=" ">
<polygon fill="#bfbfbf" stroke="black" points="0,-39 0,-69 143,-69 143,-39 0,-39"/>
<text text-anchor="start" x="8" y="-57" font-family="Helvetica,sans-Serif" font-size="10.00">Indigo\Datasource\textfile</text>
<text text-anchor="middle" x="71.5" y="-46" font-family="Helvetica,sans-Serif" font-size="10.00">\__construct</text>
</a>
</g>
</g>
<!-- Node2 -->
<g id="node2" class="node">
<title>Node2</title>
<g id="a_node2"><a xlink:href="classidg__datasource__implementation.html#a1357a683acf9ea8f9d3a966943c28db0" target="_top" xlink:title=" ">
<polygon fill="white" stroke="black" points="179,-88 179,-118 353,-118 353,-88 179,-88"/>
<text text-anchor="start" x="187" y="-106" font-family="Helvetica,sans-Serif" font-size="10.00">idg_datasource_implementation</text>
<text text-anchor="middle" x="266" y="-95" font-family="Helvetica,sans-Serif" font-size="10.00">\add_token</text>
</a>
</g>
</g>
<!-- Node1&#45;&gt;Node2 -->
<g id="edge1" class="edge">
<title>Node1&#45;&gt;Node2</title>
<path fill="none" stroke="midnightblue" d="M131.56,-69.03C151.98,-74.23 175.04,-80.1 196.17,-85.48"/>
<polygon fill="midnightblue" stroke="midnightblue" points="195.49,-88.92 206.05,-87.99 197.22,-82.14 195.49,-88.92"/>
</g>
<!-- Node3 -->
<g id="node3" class="node">
<title>Node3</title>
<g id="a_node3"><a xlink:href="interfaceidg__parameterized.html#a7b69d8e7fb475ede1ffbbc1502bc3c37" target="_top" xlink:title="Gets a parameter optionally providing a default value.">
<polygon fill="white" stroke="black" points="202.5,-39 202.5,-69 329.5,-69 329.5,-39 202.5,-39"/>
<text text-anchor="start" x="210.5" y="-57" font-family="Helvetica,sans-Serif" font-size="10.00">idg_parameterized\get</text>
<text text-anchor="middle" x="266" y="-46" font-family="Helvetica,sans-Serif" font-size="10.00">_parameter</text>
</a>
</g>
</g>
<!-- Node1&#45;&gt;Node3 -->
<g id="edge2" class="edge">
<title>Node1&#45;&gt;Node3</title>
<path fill="none" stroke="midnightblue" d="M143.09,-54C159.02,-54 175.96,-54 191.99,-54"/>
<polygon fill="midnightblue" stroke="midnightblue" points="192.37,-57.5 202.37,-54 192.37,-50.5 192.37,-57.5"/>
</g>
<!-- Node4 -->
<g id="node4" class="node">
<title>Node4</title>
<g id="a_node4"><a xlink:href="diagnostics_8php.html#adb7dcc2469f04d5090cd68dc99cc5061" target="_top" xlink:title="Prints as much information as possible and then terminates execution calling die().">
<polygon fill="white" stroke="black" points="237,-0.5 237,-19.5 295,-19.5 295,-0.5 237,-0.5"/>
<text text-anchor="middle" x="266" y="-7.5" font-family="Helvetica,sans-Serif" font-size="10.00">idg_diag</text>
</a>
</g>
</g>
<!-- Node1&#45;&gt;Node4 -->
<g id="edge3" class="edge">
<title>Node1&#45;&gt;Node4</title>
<path fill="none" stroke="midnightblue" d="M138.21,-38.98C167.79,-32.22 201.66,-24.48 226.95,-18.7"/>
<polygon fill="midnightblue" stroke="midnightblue" points="227.91,-22.07 236.88,-16.43 226.35,-15.24 227.91,-22.07"/>
</g>
</g>
</svg>
