<?xml version="1.0" encoding="UTF-8" standalone="no"?>
<!DOCTYPE svg PUBLIC "-//W3C//DTD SVG 1.1//EN"
 "http://www.w3.org/Graphics/SVG/1.1/DTD/svg11.dtd">
<!-- Generated by graphviz version 2.43.0 (0)
 -->
<!-- Title: idg_view_html_type Pages: 1 -->
<svg width="924pt" height="142pt"
 viewBox="0.00 0.00 924.00 142.00" xmlns="http://www.w3.org/2000/svg" xmlns:xlink="http://www.w3.org/1999/xlink">
<g id="graph0" class="graph" transform="scale(1 1) rotate(0) translate(4 138)">
<title>idg_view_html_type</title>
<polygon fill="white" stroke="transparent" points="-4,4 -4,-138 920,-138 920,4 -4,4"/>
<!-- Node1 -->
<g id="node1" class="node">
<title>Node1</title>
<g id="a_node1"><a xlink:title="Parent class of all views.">
<polygon fill="#bfbfbf" stroke="black" points="402,-57.5 402,-76.5 517,-76.5 517,-57.5 402,-57.5"/>
<text text-anchor="middle" x="459.5" y="-64.5" font-family="Helvetica,sans-Serif" font-size="10.00">idg_view_html_type</text>
</a>
</g>
</g>
<!-- Node5 -->
<g id="node5" class="node">
<title>Node5</title>
<g id="a_node5"><a xlink:href="classidg__view__html__element__type.html" target="_top" xlink:title=" ">
<polygon fill="white" stroke="black" points="553,-57.5 553,-76.5 714,-76.5 714,-57.5 553,-57.5"/>
<text text-anchor="middle" x="633.5" y="-64.5" font-family="Helvetica,sans-Serif" font-size="10.00">idg_view_html_element_type</text>
</a>
</g>
</g>
<!-- Node1&#45;&gt;Node5 -->
<g id="edge4" class="edge">
<title>Node1&#45;&gt;Node5</title>
<path fill="none" stroke="midnightblue" d="M527.31,-67C535.64,-67 544.22,-67 552.73,-67"/>
<polygon fill="midnightblue" stroke="midnightblue" points="527.3,-63.5 517.3,-67 527.3,-70.5 527.3,-63.5"/>
</g>
<!-- Node2 -->
<g id="node2" class="node">
<title>Node2</title>
<g id="a_node2"><a xlink:href="classidg__view__type.html" target="_top" xlink:title=" ">
<polygon fill="white" stroke="black" points="279,-57.5 279,-76.5 366,-76.5 366,-57.5 279,-57.5"/>
<text text-anchor="middle" x="322.5" y="-64.5" font-family="Helvetica,sans-Serif" font-size="10.00">idg_view_type</text>
</a>
</g>
</g>
<!-- Node2&#45;&gt;Node1 -->
<g id="edge1" class="edge">
<title>Node2&#45;&gt;Node1</title>
<path fill="none" stroke="midnightblue" d="M376.23,-67C384.59,-67 393.28,-67 401.74,-67"/>
<polygon fill="midnightblue" stroke="midnightblue" points="376.21,-63.5 366.21,-67 376.21,-70.5 376.21,-63.5"/>
</g>
<!-- Node3 -->
<g id="node3" class="node">
<title>Node3</title>
<g id="a_node3"><a xlink:href="classidg__tree__node__type.html" target="_top" xlink:title=" ">
<polygon fill="white" stroke="black" points="130,-57.5 130,-76.5 243,-76.5 243,-57.5 130,-57.5"/>
<text text-anchor="middle" x="186.5" y="-64.5" font-family="Helvetica,sans-Serif" font-size="10.00">idg_tree_node_type</text>
</a>
</g>
</g>
<!-- Node3&#45;&gt;Node2 -->
<g id="edge2" class="edge">
<title>Node3&#45;&gt;Node2</title>
<path fill="none" stroke="midnightblue" d="M253.32,-67C262.01,-67 270.72,-67 278.88,-67"/>
<polygon fill="midnightblue" stroke="midnightblue" points="253.16,-63.5 243.16,-67 253.16,-70.5 253.16,-63.5"/>
</g>
<!-- Node4 -->
<g id="node4" class="node">
<title>Node4</title>
<g id="a_node4"><a xlink:href="classidg__object__type.html" target="_top" xlink:title=" ">
<polygon fill="white" stroke="black" points="0,-57.5 0,-76.5 94,-76.5 94,-57.5 0,-57.5"/>
<text text-anchor="middle" x="47" y="-64.5" font-family="Helvetica,sans-Serif" font-size="10.00">idg_object_type</text>
</a>
</g>
</g>
<!-- Node4&#45;&gt;Node3 -->
<g id="edge3" class="edge">
<title>Node4&#45;&gt;Node3</title>
<path fill="none" stroke="midnightblue" d="M104.24,-67C112.64,-67 121.29,-67 129.67,-67"/>
<polygon fill="midnightblue" stroke="midnightblue" points="104.17,-63.5 94.17,-67 104.17,-70.5 104.17,-63.5"/>
</g>
<!-- Node6 -->
<g id="node6" class="node">
<title>Node6</title>
<g id="a_node6"><a xlink:href="classidg__view__html__container__type.html" target="_top" xlink:title=" ">
<polygon fill="white" stroke="black" points="750,-114.5 750,-133.5 916,-133.5 916,-114.5 750,-114.5"/>
<text text-anchor="middle" x="833" y="-121.5" font-family="Helvetica,sans-Serif" font-size="10.00">idg_view_html_container_type</text>
</a>
</g>
</g>
<!-- Node5&#45;&gt;Node6 -->
<g id="edge5" class="edge">
<title>Node5&#45;&gt;Node6</title>
<path fill="none" stroke="midnightblue" d="M670.9,-79.91C693.51,-87.69 723.26,-97.52 750,-105 762.1,-108.39 775.33,-111.64 787.56,-114.47"/>
<polygon fill="midnightblue" stroke="midnightblue" points="671.95,-76.57 661.36,-76.6 669.66,-83.18 671.95,-76.57"/>
</g>
<!-- Node7 -->
<g id="node7" class="node">
<title>Node7</title>
<g id="a_node7"><a xlink:href="classidg__view__html__item__type.html" target="_top" xlink:title=" ">
<polygon fill="white" stroke="black" points="761.5,-76.5 761.5,-95.5 904.5,-95.5 904.5,-76.5 761.5,-76.5"/>
<text text-anchor="middle" x="833" y="-83.5" font-family="Helvetica,sans-Serif" font-size="10.00">idg_view_html_item_type</text>
</a>
</g>
</g>
<!-- Node5&#45;&gt;Node7 -->
<g id="edge6" class="edge">
<title>Node5&#45;&gt;Node7</title>
<path fill="none" stroke="midnightblue" d="M724.23,-75.63C736.72,-76.83 749.41,-78.05 761.48,-79.22"/>
<polygon fill="midnightblue" stroke="midnightblue" points="724.55,-72.15 714.26,-74.67 723.88,-79.11 724.55,-72.15"/>
</g>
<!-- Node8 -->
<g id="node8" class="node">
<title>Node8</title>
<g id="a_node8"><a xlink:href="classidg__view__html__part__type.html" target="_top" xlink:title=" ">
<polygon fill="white" stroke="black" points="763,-38.5 763,-57.5 903,-57.5 903,-38.5 763,-38.5"/>
<text text-anchor="middle" x="833" y="-45.5" font-family="Helvetica,sans-Serif" font-size="10.00">idg_view_html_part_type</text>
</a>
</g>
</g>
<!-- Node5&#45;&gt;Node8 -->
<g id="edge7" class="edge">
<title>Node5&#45;&gt;Node8</title>
<path fill="none" stroke="midnightblue" d="M724.5,-58.34C737.34,-57.11 750.38,-55.85 762.74,-54.66"/>
<polygon fill="midnightblue" stroke="midnightblue" points="723.88,-54.89 714.26,-59.33 724.55,-61.85 723.88,-54.89"/>
</g>
<!-- Node9 -->
<g id="node9" class="node">
<title>Node9</title>
<g id="a_node9"><a xlink:href="classidg__view__html__renderer__type.html" target="_top" xlink:title=" ">
<polygon fill="white" stroke="black" points="752.5,-0.5 752.5,-19.5 913.5,-19.5 913.5,-0.5 752.5,-0.5"/>
<text text-anchor="middle" x="833" y="-7.5" font-family="Helvetica,sans-Serif" font-size="10.00">idg_view_html_renderer_type</text>
</a>
</g>
</g>
<!-- Node5&#45;&gt;Node9 -->
<g id="edge8" class="edge">
<title>Node5&#45;&gt;Node9</title>
<path fill="none" stroke="midnightblue" d="M670.9,-54.09C693.51,-46.31 723.26,-36.48 750,-29 762.1,-25.61 775.33,-22.36 787.56,-19.53"/>
<polygon fill="midnightblue" stroke="midnightblue" points="669.66,-50.82 661.36,-57.4 671.95,-57.43 669.66,-50.82"/>
</g>
</g>
</svg>
