<?xml version="1.0" encoding="UTF-8" standalone="no"?>
<!DOCTYPE svg PUBLIC "-//W3C//DTD SVG 1.1//EN"
 "http://www.w3.org/Graphics/SVG/1.1/DTD/svg11.dtd">
<!-- Generated by graphviz version 2.43.0 (0)
 -->
<!-- Title: idg_view_html\render Pages: 1 -->
<svg width="449pt" height="104pt"
 viewBox="0.00 0.00 449.00 104.00" xmlns="http://www.w3.org/2000/svg" xmlns:xlink="http://www.w3.org/1999/xlink">
<g id="graph0" class="graph" transform="scale(1 1) rotate(0) translate(4 100)">
<title>idg_view_html\render</title>
<polygon fill="white" stroke="transparent" points="-4,4 -4,-100 445,-100 445,4 -4,4"/>
<!-- Node1 -->
<g id="node1" class="node">
<title>Node1</title>
<g id="a_node1"><a xlink:title=" ">
<polygon fill="#bfbfbf" stroke="black" points="0,-38.5 0,-57.5 122,-57.5 122,-38.5 0,-38.5"/>
<text text-anchor="middle" x="61" y="-45.5" font-family="Helvetica,sans-Serif" font-size="10.00">idg_view_html\render</text>
</a>
</g>
</g>
<!-- Node2 -->
<g id="node2" class="node">
<title>Node2</title>
<g id="a_node2"><a xlink:href="classidg__view.html#aab7498d0f26a4eed766636fd085331fa" target="_top" xlink:title=" ">
<polygon fill="white" stroke="black" points="178.5,-76.5 178.5,-95.5 269.5,-95.5 269.5,-76.5 178.5,-76.5"/>
<text text-anchor="middle" x="224" y="-83.5" font-family="Helvetica,sans-Serif" font-size="10.00">idg_view\_print</text>
</a>
</g>
</g>
<!-- Node1&#45;&gt;Node2 -->
<g id="edge1" class="edge">
<title>Node1&#45;&gt;Node2</title>
<path fill="none" stroke="midnightblue" d="M102.63,-57.59C123.97,-62.63 150.31,-68.84 172.91,-74.18"/>
<polygon fill="midnightblue" stroke="midnightblue" points="172.13,-77.59 182.67,-76.48 173.74,-70.78 172.13,-77.59"/>
</g>
<!-- Node3 -->
<g id="node3" class="node">
<title>Node3</title>
<g id="a_node3"><a xlink:href="classidg__object.html#ac54f91fd013c01d09e085472d6bdb6e8" target="_top" xlink:title=" ">
<polygon fill="white" stroke="black" points="158,-38.5 158,-57.5 290,-57.5 290,-38.5 158,-38.5"/>
<text text-anchor="middle" x="224" y="-45.5" font-family="Helvetica,sans-Serif" font-size="10.00">idg_object\get_property</text>
</a>
</g>
</g>
<!-- Node1&#45;&gt;Node3 -->
<g id="edge2" class="edge">
<title>Node1&#45;&gt;Node3</title>
<path fill="none" stroke="midnightblue" d="M122.41,-48C130.66,-48 139.2,-48 147.67,-48"/>
<polygon fill="midnightblue" stroke="midnightblue" points="147.94,-51.5 157.94,-48 147.94,-44.5 147.94,-51.5"/>
</g>
<!-- Node6 -->
<g id="node6" class="node">
<title>Node6</title>
<g id="a_node6"><a xlink:href="classidg__view__html.html#afa39f37f96b158e9f62e05976981b206" target="_top" xlink:title=" ">
<polygon fill="white" stroke="black" points="159.5,-0.5 159.5,-19.5 288.5,-19.5 288.5,-0.5 159.5,-0.5"/>
<text text-anchor="middle" x="224" y="-7.5" font-family="Helvetica,sans-Serif" font-size="10.00">idg_view_html\uuid_v4</text>
</a>
</g>
</g>
<!-- Node1&#45;&gt;Node6 -->
<g id="edge5" class="edge">
<title>Node1&#45;&gt;Node6</title>
<path fill="none" stroke="midnightblue" d="M102.63,-38.41C123.97,-33.37 150.31,-27.16 172.91,-21.82"/>
<polygon fill="midnightblue" stroke="midnightblue" points="173.74,-25.22 182.67,-19.52 172.13,-18.41 173.74,-25.22"/>
</g>
<!-- Node4 -->
<g id="node4" class="node">
<title>Node4</title>
<g id="a_node4"><a xlink:href="classidg__object.html#a583e265c2dbc95871ab08eb9820c3ee8" target="_top" xlink:title="Executes members of this object and global functions.">
<polygon fill="white" stroke="black" points="329.5,-57.5 329.5,-76.5 437.5,-76.5 437.5,-57.5 329.5,-57.5"/>
<text text-anchor="middle" x="383.5" y="-64.5" font-family="Helvetica,sans-Serif" font-size="10.00">idg_object\execute</text>
</a>
</g>
</g>
<!-- Node3&#45;&gt;Node4 -->
<g id="edge3" class="edge">
<title>Node3&#45;&gt;Node4</title>
<path fill="none" stroke="midnightblue" d="M290.43,-55.89C299.98,-57.05 309.81,-58.23 319.32,-59.38"/>
<polygon fill="midnightblue" stroke="midnightblue" points="319.15,-62.88 329.49,-60.61 319.99,-55.93 319.15,-62.88"/>
</g>
<!-- Node5 -->
<g id="node5" class="node">
<title>Node5</title>
<g id="a_node5"><a xlink:href="classidg__object.html#a35093e6cb6bcfc815778ed16cbc11e75" target="_top" xlink:title=" ">
<polygon fill="white" stroke="black" points="326,-19.5 326,-38.5 441,-38.5 441,-19.5 326,-19.5"/>
<text text-anchor="middle" x="383.5" y="-26.5" font-family="Helvetica,sans-Serif" font-size="10.00">idg_object\get_hook</text>
</a>
</g>
</g>
<!-- Node3&#45;&gt;Node5 -->
<g id="edge4" class="edge">
<title>Node3&#45;&gt;Node5</title>
<path fill="none" stroke="midnightblue" d="M290.43,-40.11C298.72,-39.11 307.21,-38.08 315.53,-37.08"/>
<polygon fill="midnightblue" stroke="midnightblue" points="316.05,-40.54 325.56,-35.87 315.21,-33.59 316.05,-40.54"/>
</g>
</g>
</svg>
