<?xml version="1.0" encoding="UTF-8" standalone="no"?>
<!DOCTYPE svg PUBLIC "-//W3C//DTD SVG 1.1//EN"
 "http://www.w3.org/Graphics/SVG/1.1/DTD/svg11.dtd">
<!-- Generated by graphviz version 2.43.0 (0)
 -->
<!-- Title: idg_site\get_datasource Pages: 1 -->
<svg width="494pt" height="116pt"
 viewBox="0.00 0.00 494.00 115.50" xmlns="http://www.w3.org/2000/svg" xmlns:xlink="http://www.w3.org/1999/xlink">
<g id="graph0" class="graph" transform="scale(1 1) rotate(0) translate(4 111.5)">
<title>idg_site\get_datasource</title>
<polygon fill="white" stroke="transparent" points="-4,4 -4,-111.5 490,-111.5 490,4 -4,4"/>
<!-- Node1 -->
<g id="node1" class="node">
<title>Node1</title>
<g id="a_node1"><a xlink:title=" ">
<polygon fill="#bfbfbf" stroke="black" points="0,-50 0,-69 133,-69 133,-50 0,-50"/>
<text text-anchor="middle" x="66.5" y="-57" font-family="Helvetica,sans-Serif" font-size="10.00">idg_site\get_datasource</text>
</a>
</g>
</g>
<!-- Node2 -->
<g id="node2" class="node">
<title>Node2</title>
<g id="a_node2"><a xlink:href="diagnostics_8php.html#ab33364bd97c64c5f346adb6581e200b2" target="_top" xlink:title=" ">
<polygon fill="white" stroke="black" points="233,-88 233,-107 271,-107 271,-88 233,-88"/>
<text text-anchor="middle" x="252" y="-95" font-family="Helvetica,sans-Serif" font-size="10.00">diag</text>
</a>
</g>
</g>
<!-- Node1&#45;&gt;Node2 -->
<g id="edge1" class="edge">
<title>Node1&#45;&gt;Node2</title>
<path fill="none" stroke="midnightblue" d="M113.8,-69.09C148.22,-76.22 194.06,-85.71 223.06,-91.71"/>
<polygon fill="midnightblue" stroke="midnightblue" points="222.42,-95.16 232.92,-93.76 223.84,-88.3 222.42,-95.16"/>
</g>
<!-- Node3 -->
<g id="node3" class="node">
<title>Node3</title>
<g id="a_node3"><a xlink:href="classidg__tree__node.html#a3eb6b6cb90e4636f2083d15d32cd8828" target="_top" xlink:title=" ">
<polygon fill="white" stroke="black" points="169,-50 169,-69 335,-69 335,-50 169,-50"/>
<text text-anchor="middle" x="252" y="-57" font-family="Helvetica,sans-Serif" font-size="10.00">idg_tree_node\get_parameters</text>
</a>
</g>
</g>
<!-- Node1&#45;&gt;Node3 -->
<g id="edge2" class="edge">
<title>Node1&#45;&gt;Node3</title>
<path fill="none" stroke="midnightblue" d="M133.23,-59.5C141.51,-59.5 150.09,-59.5 158.69,-59.5"/>
<polygon fill="midnightblue" stroke="midnightblue" points="158.76,-63 168.76,-59.5 158.76,-56 158.76,-63"/>
</g>
<!-- Node4 -->
<g id="node4" class="node">
<title>Node4</title>
<g id="a_node4"><a xlink:href="classidg__param__instance.html#a7dc5b99b73fd83174adeb2d17218bd37" target="_top" xlink:title=" ">
<polygon fill="white" stroke="black" points="194.5,-0.5 194.5,-30.5 309.5,-30.5 309.5,-0.5 194.5,-0.5"/>
<text text-anchor="start" x="202.5" y="-18.5" font-family="Helvetica,sans-Serif" font-size="10.00">idg_param_instance</text>
<text text-anchor="middle" x="252" y="-7.5" font-family="Helvetica,sans-Serif" font-size="10.00">\set_parameters</text>
</a>
</g>
</g>
<!-- Node1&#45;&gt;Node4 -->
<g id="edge3" class="edge">
<title>Node1&#45;&gt;Node4</title>
<path fill="none" stroke="midnightblue" d="M107.32,-49.95C129.84,-44.55 158.6,-37.66 184.45,-31.46"/>
<polygon fill="midnightblue" stroke="midnightblue" points="185.29,-34.85 194.2,-29.12 183.66,-28.05 185.29,-34.85"/>
</g>
<!-- Node5 -->
<g id="node5" class="node">
<title>Node5</title>
<g id="a_node5"><a xlink:href="classidg__param__instance.html#ae71881c1da1d8ba0c45178256da45543" target="_top" xlink:title=" ">
<polygon fill="white" stroke="black" points="371,-0.5 371,-30.5 486,-30.5 486,-0.5 371,-0.5"/>
<text text-anchor="start" x="379" y="-18.5" font-family="Helvetica,sans-Serif" font-size="10.00">idg_param_instance</text>
<text text-anchor="middle" x="428.5" y="-7.5" font-family="Helvetica,sans-Serif" font-size="10.00">\set_parameter</text>
</a>
</g>
</g>
<!-- Node4&#45;&gt;Node5 -->
<g id="edge4" class="edge">
<title>Node4&#45;&gt;Node5</title>
<path fill="none" stroke="midnightblue" d="M309.66,-15.5C325.89,-15.5 343.74,-15.5 360.54,-15.5"/>
<polygon fill="midnightblue" stroke="midnightblue" points="360.83,-19 370.83,-15.5 360.83,-12 360.83,-19"/>
</g>
</g>
</svg>
