<?xml version="1.0" encoding="UTF-8" standalone="no"?>
<!DOCTYPE svg PUBLIC "-//W3C//DTD SVG 1.1//EN"
 "http://www.w3.org/Graphics/SVG/1.1/DTD/svg11.dtd">
<!-- Generated by graphviz version 2.43.0 (0)
 -->
<!-- Title: idg_param_instance\get_parameter Pages: 1 -->
<svg width="302pt" height="88pt"
 viewBox="0.00 0.00 302.00 88.00" xmlns="http://www.w3.org/2000/svg" xmlns:xlink="http://www.w3.org/1999/xlink">
<g id="graph0" class="graph" transform="scale(1 1) rotate(0) translate(4 84)">
<title>idg_param_instance\get_parameter</title>
<polygon fill="white" stroke="transparent" points="-4,4 -4,-84 298,-84 298,4 -4,4"/>
<!-- Node1 -->
<g id="node1" class="node">
<title>Node1</title>
<g id="a_node1"><a xlink:title=" ">
<polygon fill="#bfbfbf" stroke="black" points="179,-24.5 179,-54.5 294,-54.5 294,-24.5 179,-24.5"/>
<text text-anchor="start" x="187" y="-42.5" font-family="Helvetica,sans-Serif" font-size="10.00">idg_param_instance</text>
<text text-anchor="middle" x="236.5" y="-31.5" font-family="Helvetica,sans-Serif" font-size="10.00">\get_parameter</text>
</a>
</g>
</g>
<!-- Node2 -->
<g id="node2" class="node">
<title>Node2</title>
<g id="a_node2"><a xlink:href="classidg__datasource__textfile.html#a1510b04a9010bfa60b06e9feade555b2" target="_top" xlink:title="sdf">
<polygon fill="white" stroke="black" points="6,-49.5 6,-79.5 137,-79.5 137,-49.5 6,-49.5"/>
<text text-anchor="start" x="14" y="-67.5" font-family="Helvetica,sans-Serif" font-size="10.00">idg_datasource_textfile</text>
<text text-anchor="middle" x="71.5" y="-56.5" font-family="Helvetica,sans-Serif" font-size="10.00">\__construct</text>
</a>
</g>
</g>
<!-- Node1&#45;&gt;Node2 -->
<g id="edge1" class="edge">
<title>Node1&#45;&gt;Node2</title>
<path fill="none" stroke="midnightblue" d="M168.97,-49.7C158.43,-51.32 147.55,-52.99 137.05,-54.6"/>
<polygon fill="midnightblue" stroke="midnightblue" points="169.59,-53.15 178.95,-48.17 168.53,-46.23 169.59,-53.15"/>
</g>
<!-- Node3 -->
<g id="node3" class="node">
<title>Node3</title>
<g id="a_node3"><a xlink:href="classidg__datasource__sourcefile.html#a4993ee40d3783b9c2cfbf136d1cd5946" target="_top" xlink:title=" ">
<polygon fill="white" stroke="black" points="0,-0.5 0,-30.5 143,-30.5 143,-0.5 0,-0.5"/>
<text text-anchor="start" x="8" y="-18.5" font-family="Helvetica,sans-Serif" font-size="10.00">idg_datasource_sourcefile</text>
<text text-anchor="middle" x="71.5" y="-7.5" font-family="Helvetica,sans-Serif" font-size="10.00">\__construct</text>
</a>
</g>
</g>
<!-- Node1&#45;&gt;Node3 -->
<g id="edge2" class="edge">
<title>Node1&#45;&gt;Node3</title>
<path fill="none" stroke="midnightblue" d="M169.02,-29.71C160.45,-28.45 151.66,-27.15 143.03,-25.88"/>
<polygon fill="midnightblue" stroke="midnightblue" points="168.54,-33.18 178.95,-31.17 169.56,-26.25 168.54,-33.18"/>
</g>
</g>
</svg>
