<?xml version="1.0" encoding="UTF-8" standalone="no"?>
<!DOCTYPE svg PUBLIC "-//W3C//DTD SVG 1.1//EN"
 "http://www.w3.org/Graphics/SVG/1.1/DTD/svg11.dtd">
<!-- Generated by graphviz version 2.43.0 (0)
 -->
<!-- Title: idg_object\get_properties Pages: 1 -->
<svg width="323pt" height="66pt"
 viewBox="0.00 0.00 323.00 66.00" xmlns="http://www.w3.org/2000/svg" xmlns:xlink="http://www.w3.org/1999/xlink">
<g id="graph0" class="graph" transform="scale(1 1) rotate(0) translate(4 62)">
<title>idg_object\get_properties</title>
<polygon fill="white" stroke="transparent" points="-4,4 -4,-62 319,-62 319,4 -4,4"/>
<!-- Node1 -->
<g id="node1" class="node">
<title>Node1</title>
<g id="a_node1"><a xlink:title=" ">
<polygon fill="#bfbfbf" stroke="black" points="175,-19.5 175,-38.5 315,-38.5 315,-19.5 175,-19.5"/>
<text text-anchor="middle" x="245" y="-26.5" font-family="Helvetica,sans-Serif" font-size="10.00">idg_object\get_properties</text>
</a>
</g>
</g>
<!-- Node2 -->
<g id="node2" class="node">
<title>Node2</title>
<g id="a_node2"><a xlink:href="classidg__folder.html#a4af249bd7ed66f69d960b75cbfba64e4" target="_top" xlink:title=" ">
<polygon fill="white" stroke="black" points="10,-38.5 10,-57.5 129,-57.5 129,-38.5 10,-38.5"/>
<text text-anchor="middle" x="69.5" y="-45.5" font-family="Helvetica,sans-Serif" font-size="10.00">idg_folder\add_token</text>
</a>
</g>
</g>
<!-- Node1&#45;&gt;Node2 -->
<g id="edge1" class="edge">
<title>Node1&#45;&gt;Node2</title>
<path fill="none" stroke="midnightblue" d="M164.92,-37.66C152.92,-38.97 140.73,-40.31 129.27,-41.56"/>
<polygon fill="midnightblue" stroke="midnightblue" points="165.37,-41.13 174.93,-36.56 164.61,-34.17 165.37,-41.13"/>
</g>
<!-- Node3 -->
<g id="node3" class="node">
<title>Node3</title>
<g id="a_node3"><a xlink:href="classidg__document.html#a9ff98fd927f8ce36998139615667f573" target="_top" xlink:title=" ">
<polygon fill="white" stroke="black" points="0,-0.5 0,-19.5 139,-19.5 139,-0.5 0,-0.5"/>
<text text-anchor="middle" x="69.5" y="-7.5" font-family="Helvetica,sans-Serif" font-size="10.00">idg_document\add_token</text>
</a>
</g>
</g>
<!-- Node1&#45;&gt;Node3 -->
<g id="edge2" class="edge">
<title>Node1&#45;&gt;Node3</title>
<path fill="none" stroke="midnightblue" d="M164.88,-20.34C156.25,-19.39 147.53,-18.44 139.05,-17.51"/>
<polygon fill="midnightblue" stroke="midnightblue" points="164.61,-23.83 174.93,-21.44 165.37,-16.87 164.61,-23.83"/>
</g>
</g>
</svg>
