<?xml version="1.0" encoding="UTF-8" standalone="no"?>
<!DOCTYPE svg PUBLIC "-//W3C//DTD SVG 1.1//EN"
 "http://www.w3.org/Graphics/SVG/1.1/DTD/svg11.dtd">
<!-- Generated by graphviz version 2.43.0 (0)
 -->
<!-- Title: idg_fragment Pages: 1 -->
<svg width="240pt" height="252pt"
 viewBox="0.00 0.00 240.00 252.00" xmlns="http://www.w3.org/2000/svg" xmlns:xlink="http://www.w3.org/1999/xlink">
<g id="graph0" class="graph" transform="scale(1 1) rotate(0) translate(4 248)">
<title>idg_fragment</title>
<polygon fill="white" stroke="transparent" points="-4,4 -4,-248 236,-248 236,4 -4,4"/>
<!-- Node1 -->
<g id="node1" class="node">
<title>Node1</title>
<g id="a_node1"><a xlink:title="A fragment produces output, has access to attributes and can also have a data source.">
<polygon fill="#bfbfbf" stroke="black" points="74,-0.5 74,-19.5 156,-19.5 156,-0.5 74,-0.5"/>
<text text-anchor="middle" x="115" y="-7.5" font-family="Helvetica,sans-Serif" font-size="10.00">idg_fragment</text>
</a>
</g>
</g>
<!-- Node2 -->
<g id="node2" class="node">
<title>Node2</title>
<g id="a_node2"><a xlink:href="classidg__view__element.html" target="_top" xlink:title="The parent class for idg_view and every sibling thereof.">
<polygon fill="white" stroke="black" points="0,-56.5 0,-75.5 106,-75.5 106,-56.5 0,-56.5"/>
<text text-anchor="middle" x="53" y="-63.5" font-family="Helvetica,sans-Serif" font-size="10.00">idg_view_element</text>
</a>
</g>
</g>
<!-- Node2&#45;&gt;Node1 -->
<g id="edge1" class="edge">
<title>Node2&#45;&gt;Node1</title>
<path fill="none" stroke="midnightblue" d="M70.75,-49.54C81.81,-39.91 95.63,-27.87 104.86,-19.83"/>
<polygon fill="midnightblue" stroke="midnightblue" points="68.2,-47.12 62.96,-56.32 72.8,-52.4 68.2,-47.12"/>
</g>
<!-- Node3 -->
<g id="node3" class="node">
<title>Node3</title>
<g id="a_node3"><a xlink:href="classidg__treenode.html" target="_top" xlink:title="Base class for all tree nodes which are not leaf nodes.">
<polygon fill="white" stroke="black" points="13,-112.5 13,-131.5 93,-131.5 93,-112.5 13,-112.5"/>
<text text-anchor="middle" x="53" y="-119.5" font-family="Helvetica,sans-Serif" font-size="10.00">idg_treenode</text>
</a>
</g>
</g>
<!-- Node3&#45;&gt;Node2 -->
<g id="edge2" class="edge">
<title>Node3&#45;&gt;Node2</title>
<path fill="none" stroke="midnightblue" d="M53,-101.8C53,-92.91 53,-82.78 53,-75.75"/>
<polygon fill="midnightblue" stroke="midnightblue" points="49.5,-102.08 53,-112.08 56.5,-102.08 49.5,-102.08"/>
</g>
<!-- Node4 -->
<g id="node4" class="node">
<title>Node4</title>
<g id="a_node4"><a xlink:href="classidg__leafnode.html" target="_top" xlink:title="Base class for objects organized in a tree structure.">
<polygon fill="white" stroke="black" points="13,-168.5 13,-187.5 93,-187.5 93,-168.5 13,-168.5"/>
<text text-anchor="middle" x="53" y="-175.5" font-family="Helvetica,sans-Serif" font-size="10.00">idg_leafnode</text>
</a>
</g>
</g>
<!-- Node4&#45;&gt;Node3 -->
<g id="edge3" class="edge">
<title>Node4&#45;&gt;Node3</title>
<path fill="none" stroke="midnightblue" d="M53,-157.8C53,-148.91 53,-138.78 53,-131.75"/>
<polygon fill="midnightblue" stroke="midnightblue" points="49.5,-158.08 53,-168.08 56.5,-158.08 49.5,-158.08"/>
</g>
<!-- Node5 -->
<g id="node5" class="node">
<title>Node5</title>
<g id="a_node5"><a xlink:href="classidg__object.html" target="_top" xlink:title="Base class for all objects.">
<polygon fill="white" stroke="black" points="19.5,-224.5 19.5,-243.5 86.5,-243.5 86.5,-224.5 19.5,-224.5"/>
<text text-anchor="middle" x="53" y="-231.5" font-family="Helvetica,sans-Serif" font-size="10.00">idg_object</text>
</a>
</g>
</g>
<!-- Node5&#45;&gt;Node4 -->
<g id="edge4" class="edge">
<title>Node5&#45;&gt;Node4</title>
<path fill="none" stroke="midnightblue" d="M53,-213.8C53,-204.91 53,-194.78 53,-187.75"/>
<polygon fill="midnightblue" stroke="midnightblue" points="49.5,-214.08 53,-224.08 56.5,-214.08 49.5,-214.08"/>
</g>
<!-- Node6 -->
<g id="node6" class="node">
<title>Node6</title>
<g id="a_node6"><a xlink:href="interfaceidg__parameterized.html" target="_top" xlink:title="Interface for entities that accept parameters.">
<polygon fill="white" stroke="black" points="124,-56.5 124,-75.5 232,-75.5 232,-56.5 124,-56.5"/>
<text text-anchor="middle" x="178" y="-63.5" font-family="Helvetica,sans-Serif" font-size="10.00">idg_parameterized</text>
</a>
</g>
</g>
<!-- Node6&#45;&gt;Node1 -->
<g id="edge5" class="edge">
<title>Node6&#45;&gt;Node1</title>
<path fill="none" stroke="midnightblue" d="M159.96,-49.54C148.73,-39.91 134.68,-27.87 125.31,-19.83"/>
<polygon fill="midnightblue" stroke="midnightblue" points="158.01,-52.47 167.88,-56.32 162.56,-47.16 158.01,-52.47"/>
</g>
</g>
</svg>
