<?xml version="1.0" encoding="UTF-8" standalone="no"?>
<!DOCTYPE svg PUBLIC "-//W3C//DTD SVG 1.1//EN"
 "http://www.w3.org/Graphics/SVG/1.1/DTD/svg11.dtd">
<!-- Generated by graphviz version 2.43.0 (0)
 -->
<!-- Title: idg_site_element Pages: 1 -->
<svg width="251pt" height="252pt"
 viewBox="0.00 0.00 250.50 252.00" xmlns="http://www.w3.org/2000/svg" xmlns:xlink="http://www.w3.org/1999/xlink">
<g id="graph0" class="graph" transform="scale(1 1) rotate(0) translate(4 248)">
<title>idg_site_element</title>
<polygon fill="white" stroke="transparent" points="-4,4 -4,-248 246.5,-248 246.5,4 -4,4"/>
<!-- Node1 -->
<g id="node1" class="node">
<title>Node1</title>
<g id="a_node1"><a xlink:title="Base class for elements of a site definition.">
<polygon fill="#bfbfbf" stroke="black" points="86.5,-56.5 86.5,-75.5 187.5,-75.5 187.5,-56.5 86.5,-56.5"/>
<text text-anchor="middle" x="137" y="-63.5" font-family="Helvetica,sans-Serif" font-size="10.00">idg_site_element</text>
</a>
</g>
</g>
<!-- Node5 -->
<g id="node5" class="node">
<title>Node5</title>
<g id="a_node5"><a xlink:href="classidg__document.html" target="_top" xlink:title="A document.">
<polygon fill="white" stroke="black" points="0,-0.5 0,-19.5 86,-19.5 86,-0.5 0,-0.5"/>
<text text-anchor="middle" x="43" y="-7.5" font-family="Helvetica,sans-Serif" font-size="10.00">idg_document</text>
</a>
</g>
</g>
<!-- Node1&#45;&gt;Node5 -->
<g id="edge4" class="edge">
<title>Node1&#45;&gt;Node5</title>
<path fill="none" stroke="midnightblue" d="M112.94,-51.18C95.64,-41.24 72.85,-28.15 58.07,-19.65"/>
<polygon fill="midnightblue" stroke="midnightblue" points="111.48,-54.38 121.9,-56.32 114.97,-48.31 111.48,-54.38"/>
</g>
<!-- Node6 -->
<g id="node6" class="node">
<title>Node6</title>
<g id="a_node6"><a xlink:href="classidg__folder.html" target="_top" xlink:title="A folder.">
<polygon fill="white" stroke="black" points="104.5,-0.5 104.5,-19.5 169.5,-19.5 169.5,-0.5 104.5,-0.5"/>
<text text-anchor="middle" x="137" y="-7.5" font-family="Helvetica,sans-Serif" font-size="10.00">idg_folder</text>
</a>
</g>
</g>
<!-- Node1&#45;&gt;Node6 -->
<g id="edge5" class="edge">
<title>Node1&#45;&gt;Node6</title>
<path fill="none" stroke="midnightblue" d="M137,-45.8C137,-36.91 137,-26.78 137,-19.75"/>
<polygon fill="midnightblue" stroke="midnightblue" points="133.5,-46.08 137,-56.08 140.5,-46.08 133.5,-46.08"/>
</g>
<!-- Node7 -->
<g id="node7" class="node">
<title>Node7</title>
<g id="a_node7"><a xlink:href="classidg__site.html" target="_top" xlink:title="The object that defines a whole site, i.e.">
<polygon fill="white" stroke="black" points="187.5,-0.5 187.5,-19.5 242.5,-19.5 242.5,-0.5 187.5,-0.5"/>
<text text-anchor="middle" x="215" y="-7.5" font-family="Helvetica,sans-Serif" font-size="10.00">idg_site</text>
</a>
</g>
</g>
<!-- Node1&#45;&gt;Node7 -->
<g id="edge6" class="edge">
<title>Node1&#45;&gt;Node7</title>
<path fill="none" stroke="midnightblue" d="M157.77,-50.62C172.02,-40.76 190.46,-27.99 202.5,-19.65"/>
<polygon fill="midnightblue" stroke="midnightblue" points="155.76,-47.75 149.53,-56.32 159.75,-53.51 155.76,-47.75"/>
</g>
<!-- Node2 -->
<g id="node2" class="node">
<title>Node2</title>
<g id="a_node2"><a xlink:href="classidg__treenode.html" target="_top" xlink:title="Base class for all tree nodes which are not leaf nodes.">
<polygon fill="white" stroke="black" points="97,-112.5 97,-131.5 177,-131.5 177,-112.5 97,-112.5"/>
<text text-anchor="middle" x="137" y="-119.5" font-family="Helvetica,sans-Serif" font-size="10.00">idg_treenode</text>
</a>
</g>
</g>
<!-- Node2&#45;&gt;Node1 -->
<g id="edge1" class="edge">
<title>Node2&#45;&gt;Node1</title>
<path fill="none" stroke="midnightblue" d="M137,-101.8C137,-92.91 137,-82.78 137,-75.75"/>
<polygon fill="midnightblue" stroke="midnightblue" points="133.5,-102.08 137,-112.08 140.5,-102.08 133.5,-102.08"/>
</g>
<!-- Node3 -->
<g id="node3" class="node">
<title>Node3</title>
<g id="a_node3"><a xlink:href="classidg__leafnode.html" target="_top" xlink:title="Base class for objects organized in a tree structure.">
<polygon fill="white" stroke="black" points="97,-168.5 97,-187.5 177,-187.5 177,-168.5 97,-168.5"/>
<text text-anchor="middle" x="137" y="-175.5" font-family="Helvetica,sans-Serif" font-size="10.00">idg_leafnode</text>
</a>
</g>
</g>
<!-- Node3&#45;&gt;Node2 -->
<g id="edge2" class="edge">
<title>Node3&#45;&gt;Node2</title>
<path fill="none" stroke="midnightblue" d="M137,-157.8C137,-148.91 137,-138.78 137,-131.75"/>
<polygon fill="midnightblue" stroke="midnightblue" points="133.5,-158.08 137,-168.08 140.5,-158.08 133.5,-158.08"/>
</g>
<!-- Node4 -->
<g id="node4" class="node">
<title>Node4</title>
<g id="a_node4"><a xlink:href="classidg__object.html" target="_top" xlink:title="Base class for all objects.">
<polygon fill="white" stroke="black" points="103.5,-224.5 103.5,-243.5 170.5,-243.5 170.5,-224.5 103.5,-224.5"/>
<text text-anchor="middle" x="137" y="-231.5" font-family="Helvetica,sans-Serif" font-size="10.00">idg_object</text>
</a>
</g>
</g>
<!-- Node4&#45;&gt;Node3 -->
<g id="edge3" class="edge">
<title>Node4&#45;&gt;Node3</title>
<path fill="none" stroke="midnightblue" d="M137,-213.8C137,-204.91 137,-194.78 137,-187.75"/>
<polygon fill="midnightblue" stroke="midnightblue" points="133.5,-214.08 137,-224.08 140.5,-214.08 133.5,-214.08"/>
</g>
</g>
</svg>
