<?xml version="1.0" encoding="UTF-8" standalone="no"?>
<!DOCTYPE svg PUBLIC "-//W3C//DTD SVG 1.1//EN"
 "http://www.w3.org/Graphics/SVG/1.1/DTD/svg11.dtd">
<!-- Generated by graphviz version 2.43.0 (0)
 -->
<!-- Title: idg_tree_node\traverse Pages: 1 -->
<svg width="457pt" height="116pt"
 viewBox="0.00 0.00 457.00 116.00" xmlns="http://www.w3.org/2000/svg" xmlns:xlink="http://www.w3.org/1999/xlink">
<g id="graph0" class="graph" transform="scale(1 1) rotate(0) translate(4 112)">
<title>idg_tree_node\traverse</title>
<polygon fill="white" stroke="transparent" points="-4,4 -4,-112 453,-112 453,4 -4,4"/>
<!-- Node1 -->
<g id="node1" class="node">
<title>Node1</title>
<g id="a_node1"><a xlink:title=" ">
<polygon fill="#bfbfbf" stroke="black" points="320,-44.5 320,-63.5 449,-63.5 449,-44.5 320,-44.5"/>
<text text-anchor="middle" x="384.5" y="-51.5" font-family="Helvetica,sans-Serif" font-size="10.00">idg_tree_node\traverse</text>
</a>
</g>
</g>
<!-- Node2 -->
<g id="node2" class="node">
<title>Node2</title>
<g id="a_node2"><a xlink:href="classidg__tree__node.html#a7e90f39d4da35ff27b63d8cf1be0a06e" target="_top" xlink:title="Checks the whole subtree.">
<polygon fill="white" stroke="black" points="157,-88.5 157,-107.5 274,-107.5 274,-88.5 157,-88.5"/>
<text text-anchor="middle" x="215.5" y="-95.5" font-family="Helvetica,sans-Serif" font-size="10.00">idg_tree_node\check</text>
</a>
</g>
</g>
<!-- Node1&#45;&gt;Node2 -->
<g id="edge1" class="edge">
<title>Node1&#45;&gt;Node2</title>
<path fill="none" stroke="midnightblue" d="M337.37,-66.15C310.64,-73.2 277.49,-81.93 252.67,-88.47"/>
<polygon fill="midnightblue" stroke="midnightblue" points="338.49,-69.48 347.26,-63.55 336.7,-62.71 338.49,-69.48"/>
</g>
<!-- Node3 -->
<g id="node3" class="node">
<title>Node3</title>
<g id="a_node3"><a xlink:href="classidg__tree__node.html#ac928b8d4a70c19c8a7e04a5c2c893e5e" target="_top" xlink:title="Prints an ASCII representation of a subtree.">
<polygon fill="white" stroke="black" points="160,-39 160,-69 271,-69 271,-39 160,-39"/>
<text text-anchor="start" x="168" y="-57" font-family="Helvetica,sans-Serif" font-size="10.00">idg_tree_node\print</text>
<text text-anchor="middle" x="215.5" y="-46" font-family="Helvetica,sans-Serif" font-size="10.00">_debug</text>
</a>
</g>
</g>
<!-- Node1&#45;&gt;Node3 -->
<g id="edge2" class="edge">
<title>Node1&#45;&gt;Node3</title>
<path fill="none" stroke="midnightblue" d="M309.62,-54C296.71,-54 283.49,-54 271.21,-54"/>
<polygon fill="midnightblue" stroke="midnightblue" points="309.89,-57.5 319.89,-54 309.89,-50.5 309.89,-57.5"/>
</g>
<!-- Node5 -->
<g id="node5" class="node">
<title>Node5</title>
<g id="a_node5"><a xlink:href="classidg__tree__node.html#af9f29c902c07cf504d904fc1a84a1bd7" target="_top" xlink:title=" ">
<polygon fill="white" stroke="black" points="147,-0.5 147,-19.5 284,-19.5 284,-0.5 147,-0.5"/>
<text text-anchor="middle" x="215.5" y="-7.5" font-family="Helvetica,sans-Serif" font-size="10.00">idg_tree_node\write_xml</text>
</a>
</g>
</g>
<!-- Node1&#45;&gt;Node5 -->
<g id="edge4" class="edge">
<title>Node1&#45;&gt;Node5</title>
<path fill="none" stroke="midnightblue" d="M337.37,-41.85C310.64,-34.8 277.49,-26.07 252.67,-19.53"/>
<polygon fill="midnightblue" stroke="midnightblue" points="336.7,-45.29 347.26,-44.45 338.49,-38.52 336.7,-45.29"/>
</g>
<!-- Node4 -->
<g id="node4" class="node">
<title>Node4</title>
<g id="a_node4"><a xlink:href="classidg__tree__node.html#a005a370d5c26b395fd8b94ea133bc360" target="_top" xlink:title=" ">
<polygon fill="white" stroke="black" points="0,-39 0,-69 111,-69 111,-39 0,-39"/>
<text text-anchor="start" x="8" y="-57" font-family="Helvetica,sans-Serif" font-size="10.00">idg_tree_node\print</text>
<text text-anchor="middle" x="55.5" y="-46" font-family="Helvetica,sans-Serif" font-size="10.00">_debug_all</text>
</a>
</g>
</g>
<!-- Node3&#45;&gt;Node4 -->
<g id="edge3" class="edge">
<title>Node3&#45;&gt;Node4</title>
<path fill="none" stroke="midnightblue" d="M149.59,-54C136.85,-54 123.59,-54 111.22,-54"/>
<polygon fill="midnightblue" stroke="midnightblue" points="149.68,-57.5 159.68,-54 149.68,-50.5 149.68,-57.5"/>
</g>
</g>
</svg>
