<?xml version="1.0" encoding="UTF-8" standalone="no"?>
<!DOCTYPE svg PUBLIC "-//W3C//DTD SVG 1.1//EN"
 "http://www.w3.org/Graphics/SVG/1.1/DTD/svg11.dtd">
<!-- Generated by graphviz version 2.43.0 (0)
 -->
<!-- Title: idg_document\get_datasource Pages: 1 -->
<svg width="425pt" height="94pt"
 viewBox="0.00 0.00 425.00 94.32" xmlns="http://www.w3.org/2000/svg" xmlns:xlink="http://www.w3.org/1999/xlink">
<g id="graph0" class="graph" transform="scale(1 1) rotate(0) translate(4 90.32)">
<title>idg_document\get_datasource</title>
<polygon fill="white" stroke="transparent" points="-4,4 -4,-90.32 421,-90.32 421,4 -4,4"/>
<!-- Node1 -->
<g id="node1" class="node">
<title>Node1</title>
<g id="a_node1"><a xlink:title=" ">
<polygon fill="#bfbfbf" stroke="black" points="0,-44.5 0,-63.5 164,-63.5 164,-44.5 0,-44.5"/>
<text text-anchor="middle" x="82" y="-51.5" font-family="Helvetica,sans-Serif" font-size="10.00">idg_document\get_datasource</text>
</a>
</g>
</g>
<!-- Node2 -->
<g id="node2" class="node">
<title>Node2</title>
<g id="a_node2"><a xlink:href="diagnostics_8php.html#ab33364bd97c64c5f346adb6581e200b2" target="_top" xlink:title=" ">
<polygon fill="white" stroke="black" points="379,-44.5 379,-63.5 417,-63.5 417,-44.5 379,-44.5"/>
<text text-anchor="middle" x="398" y="-51.5" font-family="Helvetica,sans-Serif" font-size="10.00">diag</text>
</a>
</g>
</g>
<!-- Node1&#45;&gt;Node2 -->
<g id="edge1" class="edge">
<title>Node1&#45;&gt;Node2</title>
<path fill="none" stroke="midnightblue" d="M115.41,-63.51C164.99,-76.63 262.4,-96.75 343,-79 352.93,-76.81 363.2,-72.61 372.09,-68.27"/>
<polygon fill="midnightblue" stroke="midnightblue" points="373.84,-71.31 381.11,-63.59 370.62,-65.09 373.84,-71.31"/>
</g>
<!-- Node3 -->
<g id="node3" class="node">
<title>Node3</title>
<g id="a_node3"><a xlink:href="classidg__tree__node.html#a78459bb68b6088d2faf43fcfe098bdf3" target="_top" xlink:title="Finds a child whose property $key_name is set to $key_value.">
<polygon fill="white" stroke="black" points="205,-39 205,-69 338,-69 338,-39 205,-39"/>
<text text-anchor="start" x="213" y="-57" font-family="Helvetica,sans-Serif" font-size="10.00">idg_tree_node\get_child</text>
<text text-anchor="middle" x="271.5" y="-46" font-family="Helvetica,sans-Serif" font-size="10.00">_by_key</text>
</a>
</g>
</g>
<!-- Node1&#45;&gt;Node3 -->
<g id="edge2" class="edge">
<title>Node1&#45;&gt;Node3</title>
<path fill="none" stroke="midnightblue" d="M164.15,-54C174.21,-54 184.47,-54 194.46,-54"/>
<polygon fill="midnightblue" stroke="midnightblue" points="194.74,-57.5 204.74,-54 194.74,-50.5 194.74,-57.5"/>
</g>
<!-- Node4 -->
<g id="node4" class="node">
<title>Node4</title>
<g id="a_node4"><a xlink:href="classidg__site__element.html#a06514b8d84f5ba62cf4e821884752c65" target="_top" xlink:title=" ">
<polygon fill="white" stroke="black" points="200,-0.5 200,-19.5 343,-19.5 343,-0.5 200,-0.5"/>
<text text-anchor="middle" x="271.5" y="-7.5" font-family="Helvetica,sans-Serif" font-size="10.00">idg_site_element\get_site</text>
</a>
</g>
</g>
<!-- Node1&#45;&gt;Node4 -->
<g id="edge3" class="edge">
<title>Node1&#45;&gt;Node4</title>
<path fill="none" stroke="midnightblue" d="M123.68,-44.45C151.94,-37.82 189.79,-28.94 219.98,-21.86"/>
<polygon fill="midnightblue" stroke="midnightblue" points="220.96,-25.22 229.89,-19.53 219.36,-18.41 220.96,-25.22"/>
</g>
<!-- Node4&#45;&gt;Node2 -->
<g id="edge4" class="edge">
<title>Node4&#45;&gt;Node2</title>
<path fill="none" stroke="midnightblue" d="M309.77,-19.51C320.59,-22.55 332.35,-26.15 343,-30 351.74,-33.16 361.05,-37.09 369.44,-40.85"/>
<polygon fill="midnightblue" stroke="midnightblue" points="368.22,-44.14 378.77,-45.12 371.14,-37.78 368.22,-44.14"/>
</g>
</g>
</svg>
