<?xml version="1.0" encoding="UTF-8" standalone="no"?>
<!DOCTYPE svg PUBLIC "-//W3C//DTD SVG 1.1//EN"
 "http://www.w3.org/Graphics/SVG/1.1/DTD/svg11.dtd">
<!-- Generated by graphviz version 2.43.0 (0)
 -->
<!-- Title: Indigo\Datasource\textfile Pages: 1 -->
<svg width="355pt" height="140pt"
 viewBox="0.00 0.00 355.00 140.00" xmlns="http://www.w3.org/2000/svg" xmlns:xlink="http://www.w3.org/1999/xlink">
<g id="graph0" class="graph" transform="scale(1 1) rotate(0) translate(4 136)">
<title>Indigo\Datasource\textfile</title>
<polygon fill="white" stroke="transparent" points="-4,4 -4,-136 351,-136 351,4 -4,4"/>
<!-- Node1 -->
<g id="node1" class="node">
<title>Node1</title>
<g id="a_node1"><a xlink:title="Returns the content of a (normally text) file.">
<polygon fill="#bfbfbf" stroke="black" points="122.5,-0.5 122.5,-19.5 265.5,-19.5 265.5,-0.5 122.5,-0.5"/>
<text text-anchor="middle" x="194" y="-7.5" font-family="Helvetica,sans-Serif" font-size="10.00">Indigo\Datasource\textfile</text>
</a>
</g>
</g>
<!-- Node2 -->
<g id="node2" class="node">
<title>Node2</title>
<g id="a_node2"><a xlink:href="classidg__datasource__implementation.html" target="_top" xlink:title="An object instance of a data source.">
<polygon fill="white" stroke="black" points="107,-56.5 107,-75.5 281,-75.5 281,-56.5 107,-56.5"/>
<text text-anchor="middle" x="194" y="-63.5" font-family="Helvetica,sans-Serif" font-size="10.00">idg_datasource_implementation</text>
</a>
</g>
</g>
<!-- Node2&#45;&gt;Node1 -->
<g id="edge1" class="edge">
<title>Node2&#45;&gt;Node1</title>
<path fill="none" stroke="midnightblue" d="M194,-45.8C194,-36.91 194,-26.78 194,-19.75"/>
<polygon fill="midnightblue" stroke="midnightblue" points="190.5,-46.08 194,-56.08 197.5,-46.08 190.5,-46.08"/>
</g>
<!-- Node3 -->
<g id="node3" class="node">
<title>Node3</title>
<g id="a_node3"><a xlink:href="classidg__object__implementation.html" target="_top" xlink:title="Base class for ancillary objects that have no associated type information.">
<polygon fill="white" stroke="black" points="0,-112.5 0,-131.5 150,-131.5 150,-112.5 0,-112.5"/>
<text text-anchor="middle" x="75" y="-119.5" font-family="Helvetica,sans-Serif" font-size="10.00">idg_object_implementation</text>
</a>
</g>
</g>
<!-- Node3&#45;&gt;Node2 -->
<g id="edge2" class="edge">
<title>Node3&#45;&gt;Node2</title>
<path fill="none" stroke="midnightblue" d="M103.14,-108.23C125.4,-98.13 155.86,-84.31 175.23,-75.52"/>
<polygon fill="midnightblue" stroke="midnightblue" points="101.52,-105.12 93.86,-112.44 104.41,-111.5 101.52,-105.12"/>
</g>
<!-- Node4 -->
<g id="node4" class="node">
<title>Node4</title>
<g id="a_node4"><a xlink:title=" ">
<polygon fill="white" stroke="#bfbfbf" points="167.5,-112.5 167.5,-131.5 220.5,-131.5 220.5,-112.5 167.5,-112.5"/>
<text text-anchor="middle" x="194" y="-119.5" font-family="Helvetica,sans-Serif" font-size="10.00">Iterator</text>
</a>
</g>
</g>
<!-- Node4&#45;&gt;Node2 -->
<g id="edge3" class="edge">
<title>Node4&#45;&gt;Node2</title>
<path fill="none" stroke="midnightblue" d="M194,-101.8C194,-92.91 194,-82.78 194,-75.75"/>
<polygon fill="midnightblue" stroke="midnightblue" points="190.5,-102.08 194,-112.08 197.5,-102.08 190.5,-102.08"/>
</g>
<!-- Node5 -->
<g id="node5" class="node">
<title>Node5</title>
<g id="a_node5"><a xlink:href="interfaceidg__parameterized.html" target="_top" xlink:title="Interface for entities that accept parameters.">
<polygon fill="white" stroke="black" points="239,-112.5 239,-131.5 347,-131.5 347,-112.5 239,-112.5"/>
<text text-anchor="middle" x="293" y="-119.5" font-family="Helvetica,sans-Serif" font-size="10.00">idg_parameterized</text>
</a>
</g>
</g>
<!-- Node5&#45;&gt;Node2 -->
<g id="edge4" class="edge">
<title>Node5&#45;&gt;Node2</title>
<path fill="none" stroke="midnightblue" d="M268.16,-107.45C249.89,-97.48 225.58,-84.23 209.87,-75.65"/>
<polygon fill="midnightblue" stroke="midnightblue" points="266.64,-110.61 277.09,-112.32 269.99,-104.46 266.64,-110.61"/>
</g>
</g>
</svg>
