<?xml version="1.0" encoding="UTF-8" standalone="no"?>
<!DOCTYPE svg PUBLIC "-//W3C//DTD SVG 1.1//EN"
 "http://www.w3.org/Graphics/SVG/1.1/DTD/svg11.dtd">
<!-- Generated by graphviz version 2.43.0 (0)
 -->
<!-- Title: idg_site_element\_get_token Pages: 1 -->
<svg width="346pt" height="66pt"
 viewBox="0.00 0.00 346.00 66.00" xmlns="http://www.w3.org/2000/svg" xmlns:xlink="http://www.w3.org/1999/xlink">
<g id="graph0" class="graph" transform="scale(1 1) rotate(0) translate(4 62)">
<title>idg_site_element\_get_token</title>
<polygon fill="white" stroke="transparent" points="-4,4 -4,-62 342,-62 342,4 -4,4"/>
<!-- Node1 -->
<g id="node1" class="node">
<title>Node1</title>
<g id="a_node1"><a xlink:title="Loads up a token for the site&#39;s built&#45;in datasource.">
<polygon fill="#bfbfbf" stroke="black" points="0,-14 0,-44 125,-44 125,-14 0,-14"/>
<text text-anchor="start" x="8" y="-32" font-family="Helvetica,sans-Serif" font-size="10.00">idg_site_element\_get</text>
<text text-anchor="middle" x="62.5" y="-21" font-family="Helvetica,sans-Serif" font-size="10.00">_token</text>
</a>
</g>
</g>
<!-- Node2 -->
<g id="node2" class="node">
<title>Node2</title>
<g id="a_node2"><a xlink:href="classidg__leafnode.html#aea28450d3a6d4b072ab8606531e1ba71" target="_top" xlink:title="Returns the element name of the node.">
<polygon fill="white" stroke="black" points="161,-38.5 161,-57.5 338,-57.5 338,-38.5 161,-38.5"/>
<text text-anchor="middle" x="249.5" y="-45.5" font-family="Helvetica,sans-Serif" font-size="10.00">idg_leafnode\get_element_name</text>
</a>
</g>
</g>
<!-- Node1&#45;&gt;Node2 -->
<g id="edge1" class="edge">
<title>Node1&#45;&gt;Node2</title>
<path fill="none" stroke="midnightblue" d="M125.1,-35.33C133.34,-36.17 141.94,-37.06 150.61,-37.95"/>
<polygon fill="midnightblue" stroke="midnightblue" points="150.49,-41.45 160.79,-38.99 151.2,-34.49 150.49,-41.45"/>
</g>
<!-- Node3 -->
<g id="node3" class="node">
<title>Node3</title>
<g id="a_node3"><a xlink:href="classidg__object.html#abc33fb720897df890e1f86282c4e9e9c" target="_top" xlink:title="Returns the value of a property, possibly generated by a hook function if it is not explicitly set,...">
<polygon fill="white" stroke="black" points="183.5,-0.5 183.5,-19.5 315.5,-19.5 315.5,-0.5 183.5,-0.5"/>
<text text-anchor="middle" x="249.5" y="-7.5" font-family="Helvetica,sans-Serif" font-size="10.00">idg_object\get_property</text>
</a>
</g>
</g>
<!-- Node1&#45;&gt;Node3 -->
<g id="edge2" class="edge">
<title>Node1&#45;&gt;Node3</title>
<path fill="none" stroke="midnightblue" d="M125.1,-22.67C140.45,-21.1 157.08,-19.39 173.01,-17.75"/>
<polygon fill="midnightblue" stroke="midnightblue" points="173.77,-21.19 183.36,-16.69 173.06,-14.23 173.77,-21.19"/>
</g>
</g>
</svg>
