<?xml version="1.0" encoding="UTF-8" standalone="no"?>
<!DOCTYPE svg PUBLIC "-//W3C//DTD SVG 1.1//EN"
 "http://www.w3.org/Graphics/SVG/1.1/DTD/svg11.dtd">
<!-- Generated by graphviz version 2.43.0 (0)
 -->
<!-- Title: idg_object\get_idg_id Pages: 1 -->
<svg width="303pt" height="127pt"
 viewBox="0.00 0.00 303.00 126.50" xmlns="http://www.w3.org/2000/svg" xmlns:xlink="http://www.w3.org/1999/xlink">
<g id="graph0" class="graph" transform="scale(1 1) rotate(0) translate(4 122.5)">
<title>idg_object\get_idg_id</title>
<polygon fill="white" stroke="transparent" points="-4,4 -4,-122.5 299,-122.5 299,4 -4,4"/>
<!-- Node1 -->
<g id="node1" class="node">
<title>Node1</title>
<g id="a_node1"><a xlink:title=" ">
<polygon fill="#bfbfbf" stroke="black" points="175,-44.5 175,-63.5 295,-63.5 295,-44.5 175,-44.5"/>
<text text-anchor="middle" x="235" y="-51.5" font-family="Helvetica,sans-Serif" font-size="10.00">idg_object\get_idg_id</text>
</a>
</g>
</g>
<!-- Node2 -->
<g id="node2" class="node">
<title>Node2</title>
<g id="a_node2"><a xlink:href="classidg__view__html__container.html#a26eab2df981893738a1e9d859b79ffda" target="_top" xlink:title=" ">
<polygon fill="white" stroke="black" points="0,-88 0,-118 139,-118 139,-88 0,-88"/>
<text text-anchor="start" x="8" y="-106" font-family="Helvetica,sans-Serif" font-size="10.00">idg_view_html_container</text>
<text text-anchor="middle" x="69.5" y="-95" font-family="Helvetica,sans-Serif" font-size="10.00">\_render</text>
</a>
</g>
</g>
<!-- Node1&#45;&gt;Node2 -->
<g id="edge1" class="edge">
<title>Node1&#45;&gt;Node2</title>
<path fill="none" stroke="midnightblue" d="M192.44,-66.45C170.6,-73 143.67,-81.07 120.67,-87.96"/>
<polygon fill="midnightblue" stroke="midnightblue" points="193.51,-69.79 202.09,-63.56 191.5,-63.08 193.51,-69.79"/>
</g>
<!-- Node3 -->
<g id="node3" class="node">
<title>Node3</title>
<g id="a_node3"><a xlink:href="classidg__view__html__slot.html#ac81c6c0e2e66289d856dbdeb75193ad1" target="_top" xlink:title=" ">
<polygon fill="white" stroke="black" points="14,-39 14,-69 125,-69 125,-39 14,-39"/>
<text text-anchor="start" x="22" y="-57" font-family="Helvetica,sans-Serif" font-size="10.00">idg_view_html_slot</text>
<text text-anchor="middle" x="69.5" y="-46" font-family="Helvetica,sans-Serif" font-size="10.00">\_render</text>
</a>
</g>
</g>
<!-- Node1&#45;&gt;Node3 -->
<g id="edge2" class="edge">
<title>Node1&#45;&gt;Node3</title>
<path fill="none" stroke="midnightblue" d="M164.91,-54C151.61,-54 137.85,-54 125.09,-54"/>
<polygon fill="midnightblue" stroke="midnightblue" points="164.97,-57.5 174.97,-54 164.97,-50.5 164.97,-57.5"/>
</g>
<!-- Node4 -->
<g id="node4" class="node">
<title>Node4</title>
<g id="a_node4"><a xlink:href="classidg__tree__node.html#a43af700a477983aa4965d028008eeb3f" target="_top" xlink:title=" ">
<polygon fill="white" stroke="black" points="2,-0.5 2,-19.5 137,-19.5 137,-0.5 2,-0.5"/>
<text text-anchor="middle" x="69.5" y="-7.5" font-family="Helvetica,sans-Serif" font-size="10.00">idg_tree_node\add_child</text>
</a>
</g>
</g>
<!-- Node1&#45;&gt;Node4 -->
<g id="edge3" class="edge">
<title>Node1&#45;&gt;Node4</title>
<path fill="none" stroke="midnightblue" d="M188.83,-41.85C162.67,-34.8 130.21,-26.07 105.91,-19.53"/>
<polygon fill="midnightblue" stroke="midnightblue" points="187.96,-45.23 198.52,-44.45 189.78,-38.47 187.96,-45.23"/>
</g>
</g>
</svg>
