<?xml version="1.0" encoding="UTF-8" standalone="no"?>
<!DOCTYPE svg PUBLIC "-//W3C//DTD SVG 1.1//EN"
 "http://www.w3.org/Graphics/SVG/1.1/DTD/svg11.dtd">
<!-- Generated by graphviz version 2.43.0 (0)
 -->
<!-- Title: idg_datasource_implementation Pages: 1 -->
<svg width="558pt" height="230pt"
 viewBox="0.00 0.00 558.00 229.50" xmlns="http://www.w3.org/2000/svg" xmlns:xlink="http://www.w3.org/1999/xlink">
<g id="graph0" class="graph" transform="scale(1 1) rotate(0) translate(4 225.5)">
<title>idg_datasource_implementation</title>
<polygon fill="white" stroke="transparent" points="-4,4 -4,-225.5 554,-225.5 554,4 -4,4"/>
<!-- Node1 -->
<g id="node1" class="node">
<title>Node1</title>
<g id="a_node1"><a xlink:title="An object instance of a data source.">
<polygon fill="#bfbfbf" stroke="black" points="186,-107 186,-126 360,-126 360,-107 186,-107"/>
<text text-anchor="middle" x="273" y="-114" font-family="Helvetica,sans-Serif" font-size="10.00">idg_datasource_implementation</text>
</a>
</g>
</g>
<!-- Node5 -->
<g id="node5" class="node">
<title>Node5</title>
<g id="a_node5"><a xlink:href="classIndigo_1_1Datasource_1_1php.html" target="_top" xlink:title="Executes a php function and returns the resulting array as tokens.">
<polygon fill="white" stroke="black" points="410,-202 410,-221 536,-221 536,-202 410,-202"/>
<text text-anchor="middle" x="473" y="-209" font-family="Helvetica,sans-Serif" font-size="10.00">Indigo\Datasource\php</text>
</a>
</g>
</g>
<!-- Node1&#45;&gt;Node5 -->
<g id="edge4" class="edge">
<title>Node1&#45;&gt;Node5</title>
<path fill="none" stroke="midnightblue" d="M294.57,-132.14C317.98,-149.23 357.91,-176.35 396,-192.5 404.89,-196.27 414.69,-199.41 424.22,-201.98"/>
<polygon fill="midnightblue" stroke="midnightblue" points="296.57,-129.26 286.45,-126.12 292.4,-134.88 296.57,-129.26"/>
</g>
<!-- Node6 -->
<g id="node6" class="node">
<title>Node6</title>
<g id="a_node6"><a xlink:href="classIndigo_1_1Datasource_1_1rss.html" target="_top" xlink:title="Retrieves an rss feed and returns the entries as tokens.">
<polygon fill="white" stroke="black" points="412,-164 412,-183 534,-183 534,-164 412,-164"/>
<text text-anchor="middle" x="473" y="-171" font-family="Helvetica,sans-Serif" font-size="10.00">Indigo\Datasource\rss</text>
</a>
</g>
</g>
<!-- Node1&#45;&gt;Node6 -->
<g id="edge5" class="edge">
<title>Node1&#45;&gt;Node6</title>
<path fill="none" stroke="midnightblue" d="M312.71,-129.17C336.61,-136.85 367.97,-146.64 396,-154.5 407.65,-157.77 420.39,-161.06 432.05,-163.97"/>
<polygon fill="midnightblue" stroke="midnightblue" points="313.54,-125.77 302.95,-126.03 311.39,-132.43 313.54,-125.77"/>
</g>
<!-- Node7 -->
<g id="node7" class="node">
<title>Node7</title>
<g id="a_node7"><a xlink:href="classIndigo_1_1Datasource_1_1scanlinks.html" target="_top" xlink:title="Scans the html&#45;body stream for links and returns them as tokens.">
<polygon fill="white" stroke="black" points="396,-126 396,-145 550,-145 550,-126 396,-126"/>
<text text-anchor="middle" x="473" y="-133" font-family="Helvetica,sans-Serif" font-size="10.00">Indigo\Datasource\scanlinks</text>
</a>
</g>
</g>
<!-- Node1&#45;&gt;Node7 -->
<g id="edge6" class="edge">
<title>Node1&#45;&gt;Node7</title>
<path fill="none" stroke="midnightblue" d="M370.34,-125.74C378.94,-126.57 387.56,-127.4 395.96,-128.2"/>
<polygon fill="midnightblue" stroke="midnightblue" points="370.56,-122.25 360.27,-124.78 369.89,-129.22 370.56,-122.25"/>
</g>
<!-- Node8 -->
<g id="node8" class="node">
<title>Node8</title>
<g id="a_node8"><a xlink:href="classIndigo_1_1Datasource_1_1text.html" target="_top" xlink:title="Simply quotes its text (set with set_text or per xml chacter data, respectively).">
<polygon fill="white" stroke="black" points="409,-88 409,-107 537,-107 537,-88 409,-88"/>
<text text-anchor="middle" x="473" y="-95" font-family="Helvetica,sans-Serif" font-size="10.00">Indigo\Datasource\text</text>
</a>
</g>
</g>
<!-- Node1&#45;&gt;Node8 -->
<g id="edge7" class="edge">
<title>Node1&#45;&gt;Node8</title>
<path fill="none" stroke="midnightblue" d="M370.28,-107.26C383.41,-106 396.61,-104.73 408.94,-103.55"/>
<polygon fill="midnightblue" stroke="midnightblue" points="369.89,-103.78 360.27,-108.22 370.56,-110.75 369.89,-103.78"/>
</g>
<!-- Node9 -->
<g id="node9" class="node">
<title>Node9</title>
<g id="a_node9"><a xlink:href="classIndigo_1_1Datasource_1_1textfile.html" target="_top" xlink:title="Returns the content of a (normally text) file.">
<polygon fill="white" stroke="black" points="401.5,-50 401.5,-69 544.5,-69 544.5,-50 401.5,-50"/>
<text text-anchor="middle" x="473" y="-57" font-family="Helvetica,sans-Serif" font-size="10.00">Indigo\Datasource\textfile</text>
</a>
</g>
</g>
<!-- Node1&#45;&gt;Node9 -->
<g id="edge8" class="edge">
<title>Node1&#45;&gt;Node9</title>
<path fill="none" stroke="midnightblue" d="M312.71,-103.83C336.61,-96.15 367.97,-86.36 396,-78.5 407.65,-75.23 420.39,-71.94 432.05,-69.03"/>
<polygon fill="midnightblue" stroke="midnightblue" points="311.39,-100.57 302.95,-106.97 313.54,-107.23 311.39,-100.57"/>
</g>
<!-- Node10 -->
<g id="node10" class="node">
<title>Node10</title>
<g id="a_node10"><a xlink:href="classIndigo_1_1Module_1_1Sourcefile_1_1datasource.html" target="_top" xlink:title=" ">
<polygon fill="white" stroke="black" points="404.5,-0.5 404.5,-30.5 541.5,-30.5 541.5,-0.5 404.5,-0.5"/>
<text text-anchor="start" x="412.5" y="-18.5" font-family="Helvetica,sans-Serif" font-size="10.00">Indigo\Module\Sourcefile</text>
<text text-anchor="middle" x="473" y="-7.5" font-family="Helvetica,sans-Serif" font-size="10.00">\datasource</text>
</a>
</g>
</g>
<!-- Node1&#45;&gt;Node10 -->
<g id="edge9" class="edge">
<title>Node1&#45;&gt;Node10</title>
<path fill="none" stroke="midnightblue" d="M295.18,-101.11C318.84,-84.45 358.72,-57.94 396,-40.5 403.8,-36.85 412.28,-33.5 420.65,-30.53"/>
<polygon fill="midnightblue" stroke="midnightblue" points="293.06,-98.32 286.95,-106.97 297.12,-104.02 293.06,-98.32"/>
</g>
<!-- Node2 -->
<g id="node2" class="node">
<title>Node2</title>
<g id="a_node2"><a xlink:href="classidg__object__implementation.html" target="_top" xlink:title="Base class for ancillary objects that have no associated type information.">
<polygon fill="white" stroke="black" points="0,-145 0,-164 150,-164 150,-145 0,-145"/>
<text text-anchor="middle" x="75" y="-152" font-family="Helvetica,sans-Serif" font-size="10.00">idg_object_implementation</text>
</a>
</g>
</g>
<!-- Node2&#45;&gt;Node1 -->
<g id="edge1" class="edge">
<title>Node2&#45;&gt;Node1</title>
<path fill="none" stroke="midnightblue" d="M135.26,-143.01C163.23,-137.59 196.21,-131.19 222.77,-126.04"/>
<polygon fill="midnightblue" stroke="midnightblue" points="134.36,-139.62 125.21,-144.96 135.69,-146.49 134.36,-139.62"/>
</g>
<!-- Node3 -->
<g id="node3" class="node">
<title>Node3</title>
<g id="a_node3"><a xlink:title=" ">
<polygon fill="white" stroke="#bfbfbf" points="48.5,-107 48.5,-126 101.5,-126 101.5,-107 48.5,-107"/>
<text text-anchor="middle" x="75" y="-114" font-family="Helvetica,sans-Serif" font-size="10.00">Iterator</text>
</a>
</g>
</g>
<!-- Node3&#45;&gt;Node1 -->
<g id="edge2" class="edge">
<title>Node3&#45;&gt;Node1</title>
<path fill="none" stroke="midnightblue" d="M111.89,-116.5C132.72,-116.5 159.91,-116.5 185.96,-116.5"/>
<polygon fill="midnightblue" stroke="midnightblue" points="111.62,-113 101.62,-116.5 111.62,-120 111.62,-113"/>
</g>
<!-- Node4 -->
<g id="node4" class="node">
<title>Node4</title>
<g id="a_node4"><a xlink:href="interfaceidg__parameterized.html" target="_top" xlink:title="Interface for entities that accept parameters.">
<polygon fill="white" stroke="black" points="21,-69 21,-88 129,-88 129,-69 21,-69"/>
<text text-anchor="middle" x="75" y="-76" font-family="Helvetica,sans-Serif" font-size="10.00">idg_parameterized</text>
</a>
</g>
</g>
<!-- Node4&#45;&gt;Node1 -->
<g id="edge3" class="edge">
<title>Node4&#45;&gt;Node1</title>
<path fill="none" stroke="midnightblue" d="M135.26,-89.99C163.23,-95.41 196.21,-101.81 222.77,-106.96"/>
<polygon fill="midnightblue" stroke="midnightblue" points="135.69,-86.51 125.21,-88.04 134.36,-93.38 135.69,-86.51"/>
</g>
</g>
</svg>
