<?xml version="1.0" encoding="UTF-8" standalone="no"?>
<!DOCTYPE svg PUBLIC "-//W3C//DTD SVG 1.1//EN"
 "http://www.w3.org/Graphics/SVG/1.1/DTD/svg11.dtd">
<!-- Generated by graphviz version 2.43.0 (0)
 -->
<!-- Title: idg_view_html_renderer_type\__construct Pages: 1 -->
<svg width="364pt" height="88pt"
 viewBox="0.00 0.00 364.00 88.00" xmlns="http://www.w3.org/2000/svg" xmlns:xlink="http://www.w3.org/1999/xlink">
<g id="graph0" class="graph" transform="scale(1 1) rotate(0) translate(4 84)">
<title>idg_view_html_renderer_type\__construct</title>
<polygon fill="white" stroke="transparent" points="-4,4 -4,-84 360,-84 360,4 -4,4"/>
<!-- Node1 -->
<g id="node1" class="node">
<title>Node1</title>
<g id="a_node1"><a xlink:title=" ">
<polygon fill="#bfbfbf" stroke="black" points="0,-24.5 0,-54.5 134,-54.5 134,-24.5 0,-24.5"/>
<text text-anchor="start" x="8" y="-42.5" font-family="Helvetica,sans-Serif" font-size="10.00">idg_view_html_renderer</text>
<text text-anchor="middle" x="67" y="-31.5" font-family="Helvetica,sans-Serif" font-size="10.00">_type\__construct</text>
</a>
</g>
</g>
<!-- Node2 -->
<g id="node2" class="node">
<title>Node2</title>
<g id="a_node2"><a xlink:href="classidg__object__type.html#a0ad8c29d00d0adff82797e35d6fe5f39" target="_top" xlink:title=" ">
<polygon fill="white" stroke="black" points="170,-49.5 170,-79.5 282,-79.5 282,-49.5 170,-49.5"/>
<text text-anchor="start" x="178" y="-67.5" font-family="Helvetica,sans-Serif" font-size="10.00">idg_object_type\set</text>
<text text-anchor="middle" x="226" y="-56.5" font-family="Helvetica,sans-Serif" font-size="10.00">_known</text>
</a>
</g>
</g>
<!-- Node1&#45;&gt;Node2 -->
<g id="edge1" class="edge">
<title>Node1&#45;&gt;Node2</title>
<path fill="none" stroke="midnightblue" d="M134.13,-50.03C142.68,-51.39 151.43,-52.79 159.97,-54.14"/>
<polygon fill="midnightblue" stroke="midnightblue" points="159.44,-57.6 169.86,-55.72 160.54,-50.69 159.44,-57.6"/>
</g>
<!-- Node3 -->
<g id="node3" class="node">
<title>Node3</title>
<g id="a_node3"><a xlink:href="classidg__object__type.html#a346c53688eedf770263fc4e85e4cf52e" target="_top" xlink:title=" ">
<polygon fill="white" stroke="black" points="170,-0.5 170,-30.5 282,-30.5 282,-0.5 170,-0.5"/>
<text text-anchor="start" x="178" y="-18.5" font-family="Helvetica,sans-Serif" font-size="10.00">idg_object_type\set</text>
<text text-anchor="middle" x="226" y="-7.5" font-family="Helvetica,sans-Serif" font-size="10.00">_mandatory</text>
</a>
</g>
</g>
<!-- Node1&#45;&gt;Node3 -->
<g id="edge2" class="edge">
<title>Node1&#45;&gt;Node3</title>
<path fill="none" stroke="midnightblue" d="M134.13,-29.39C142.68,-28.08 151.43,-26.75 159.97,-25.44"/>
<polygon fill="midnightblue" stroke="midnightblue" points="160.51,-28.9 169.86,-23.93 159.45,-21.98 160.51,-28.9"/>
</g>
<!-- Node4 -->
<g id="node4" class="node">
<title>Node4</title>
<g id="a_node4"><a xlink:href="diagnostics_8php.html#ab33364bd97c64c5f346adb6581e200b2" target="_top" xlink:title=" ">
<polygon fill="white" stroke="black" points="318,-6 318,-25 356,-25 356,-6 318,-6"/>
<text text-anchor="middle" x="337" y="-13" font-family="Helvetica,sans-Serif" font-size="10.00">diag</text>
</a>
</g>
</g>
<!-- Node3&#45;&gt;Node4 -->
<g id="edge3" class="edge">
<title>Node3&#45;&gt;Node4</title>
<path fill="none" stroke="midnightblue" d="M282.14,-15.5C291,-15.5 299.83,-15.5 307.71,-15.5"/>
<polygon fill="midnightblue" stroke="midnightblue" points="307.77,-19 317.77,-15.5 307.77,-12 307.77,-19"/>
</g>
</g>
</svg>
