<?xml version="1.0" encoding="UTF-8" standalone="no"?>
<!DOCTYPE svg PUBLIC "-//W3C//DTD SVG 1.1//EN"
 "http://www.w3.org/Graphics/SVG/1.1/DTD/svg11.dtd">
<!-- Generated by graphviz version 2.43.0 (0)
 -->
<!-- Title: idg_document\get_uri Pages: 1 -->
<svg width="616pt" height="66pt"
 viewBox="0.00 0.00 616.00 66.00" xmlns="http://www.w3.org/2000/svg" xmlns:xlink="http://www.w3.org/1999/xlink">
<g id="graph0" class="graph" transform="scale(1 1) rotate(0) translate(4 62)">
<title>idg_document\get_uri</title>
<polygon fill="white" stroke="transparent" points="-4,4 -4,-62 612,-62 612,4 -4,4"/>
<!-- Node1 -->
<g id="node1" class="node">
<title>Node1</title>
<g id="a_node1"><a xlink:title=" ">
<polygon fill="#bfbfbf" stroke="black" points="0,-19.5 0,-38.5 122,-38.5 122,-19.5 0,-19.5"/>
<text text-anchor="middle" x="61" y="-26.5" font-family="Helvetica,sans-Serif" font-size="10.00">idg_document\get_uri</text>
</a>
</g>
</g>
<!-- Node2 -->
<g id="node2" class="node">
<title>Node2</title>
<g id="a_node2"><a xlink:href="classidg__document.html#a4554297770548415a0edf16831c41255" target="_top" xlink:title=" ">
<polygon fill="white" stroke="black" points="158,-19.5 158,-38.5 289,-38.5 289,-19.5 158,-19.5"/>
<text text-anchor="middle" x="223.5" y="-26.5" font-family="Helvetica,sans-Serif" font-size="10.00">idg_document\get_path</text>
</a>
</g>
</g>
<!-- Node1&#45;&gt;Node2 -->
<g id="edge1" class="edge">
<title>Node1&#45;&gt;Node2</title>
<path fill="none" stroke="midnightblue" d="M122.22,-29C130.6,-29 139.28,-29 147.88,-29"/>
<polygon fill="midnightblue" stroke="midnightblue" points="147.91,-32.5 157.91,-29 147.91,-25.5 147.91,-32.5"/>
</g>
<!-- Node3 -->
<g id="node3" class="node">
<title>Node3</title>
<g id="a_node3"><a xlink:href="classidg__object.html#ac54f91fd013c01d09e085472d6bdb6e8" target="_top" xlink:title=" ">
<polygon fill="white" stroke="black" points="325,-19.5 325,-38.5 457,-38.5 457,-19.5 325,-19.5"/>
<text text-anchor="middle" x="391" y="-26.5" font-family="Helvetica,sans-Serif" font-size="10.00">idg_object\get_property</text>
</a>
</g>
</g>
<!-- Node2&#45;&gt;Node3 -->
<g id="edge2" class="edge">
<title>Node2&#45;&gt;Node3</title>
<path fill="none" stroke="midnightblue" d="M289.43,-29C297.74,-29 306.3,-29 314.75,-29"/>
<polygon fill="midnightblue" stroke="midnightblue" points="314.98,-32.5 324.98,-29 314.98,-25.5 314.98,-32.5"/>
</g>
<!-- Node4 -->
<g id="node4" class="node">
<title>Node4</title>
<g id="a_node4"><a xlink:href="classidg__object.html#a583e265c2dbc95871ab08eb9820c3ee8" target="_top" xlink:title="Helper: executes members of this object and global functions.">
<polygon fill="white" stroke="black" points="496.5,-38.5 496.5,-57.5 604.5,-57.5 604.5,-38.5 496.5,-38.5"/>
<text text-anchor="middle" x="550.5" y="-45.5" font-family="Helvetica,sans-Serif" font-size="10.00">idg_object\execute</text>
</a>
</g>
</g>
<!-- Node3&#45;&gt;Node4 -->
<g id="edge3" class="edge">
<title>Node3&#45;&gt;Node4</title>
<path fill="none" stroke="midnightblue" d="M457.43,-36.89C466.98,-38.05 476.81,-39.23 486.32,-40.38"/>
<polygon fill="midnightblue" stroke="midnightblue" points="486.15,-43.88 496.49,-41.61 486.99,-36.93 486.15,-43.88"/>
</g>
<!-- Node5 -->
<g id="node5" class="node">
<title>Node5</title>
<g id="a_node5"><a xlink:href="classidg__object.html#a35093e6cb6bcfc815778ed16cbc11e75" target="_top" xlink:title=" ">
<polygon fill="white" stroke="black" points="493,-0.5 493,-19.5 608,-19.5 608,-0.5 493,-0.5"/>
<text text-anchor="middle" x="550.5" y="-7.5" font-family="Helvetica,sans-Serif" font-size="10.00">idg_object\get_hook</text>
</a>
</g>
</g>
<!-- Node3&#45;&gt;Node5 -->
<g id="edge4" class="edge">
<title>Node3&#45;&gt;Node5</title>
<path fill="none" stroke="midnightblue" d="M457.43,-21.11C465.72,-20.11 474.21,-19.08 482.53,-18.08"/>
<polygon fill="midnightblue" stroke="midnightblue" points="483.05,-21.54 492.56,-16.87 482.21,-14.59 483.05,-21.54"/>
</g>
</g>
</svg>
