<?xml version="1.0" encoding="UTF-8" standalone="no"?>
<!DOCTYPE svg PUBLIC "-//W3C//DTD SVG 1.1//EN"
 "http://www.w3.org/Graphics/SVG/1.1/DTD/svg11.dtd">
<!-- Generated by graphviz version 2.43.0 (0)
 -->
<!-- Title: Indigo\Module\Sourcefile\datasource\__construct Pages: 1 -->
<svg width="355pt" height="127pt"
 viewBox="0.00 0.00 355.00 126.50" xmlns="http://www.w3.org/2000/svg" xmlns:xlink="http://www.w3.org/1999/xlink">
<g id="graph0" class="graph" transform="scale(1 1) rotate(0) translate(4 122.5)">
<title>Indigo\Module\Sourcefile\datasource\__construct</title>
<polygon fill="white" stroke="transparent" points="-4,4 -4,-122.5 351,-122.5 351,4 -4,4"/>
<!-- Node1 -->
<g id="node1" class="node">
<title>Node1</title>
<g id="a_node1"><a xlink:title=" ">
<polygon fill="#bfbfbf" stroke="black" points="0,-39 0,-69 137,-69 137,-39 0,-39"/>
<text text-anchor="start" x="8" y="-57" font-family="Helvetica,sans-Serif" font-size="10.00">Indigo\Module\Sourcefile</text>
<text text-anchor="middle" x="68.5" y="-46" font-family="Helvetica,sans-Serif" font-size="10.00">\datasource\__construct</text>
</a>
</g>
</g>
<!-- Node2 -->
<g id="node2" class="node">
<title>Node2</title>
<g id="a_node2"><a xlink:href="classidg__datasource__implementation.html#a1357a683acf9ea8f9d3a966943c28db0" target="_top" xlink:title=" ">
<polygon fill="white" stroke="black" points="173,-88 173,-118 347,-118 347,-88 173,-88"/>
<text text-anchor="start" x="181" y="-106" font-family="Helvetica,sans-Serif" font-size="10.00">idg_datasource_implementation</text>
<text text-anchor="middle" x="260" y="-95" font-family="Helvetica,sans-Serif" font-size="10.00">\add_token</text>
</a>
</g>
</g>
<!-- Node1&#45;&gt;Node2 -->
<g id="edge1" class="edge">
<title>Node1&#45;&gt;Node2</title>
<path fill="none" stroke="midnightblue" d="M127.64,-69.03C147.74,-74.23 170.44,-80.1 191.24,-85.48"/>
<polygon fill="midnightblue" stroke="midnightblue" points="190.41,-88.88 200.97,-87.99 192.16,-82.1 190.41,-88.88"/>
</g>
<!-- Node3 -->
<g id="node3" class="node">
<title>Node3</title>
<g id="a_node3"><a xlink:href="interfaceidg__parameterized.html#a7b69d8e7fb475ede1ffbbc1502bc3c37" target="_top" xlink:title="Gets a parameter optionally providing a default value.">
<polygon fill="white" stroke="black" points="196.5,-39 196.5,-69 323.5,-69 323.5,-39 196.5,-39"/>
<text text-anchor="start" x="204.5" y="-57" font-family="Helvetica,sans-Serif" font-size="10.00">idg_parameterized\get</text>
<text text-anchor="middle" x="260" y="-46" font-family="Helvetica,sans-Serif" font-size="10.00">_parameter</text>
</a>
</g>
</g>
<!-- Node1&#45;&gt;Node3 -->
<g id="edge2" class="edge">
<title>Node1&#45;&gt;Node3</title>
<path fill="none" stroke="midnightblue" d="M137.11,-54C152.98,-54 169.96,-54 186.05,-54"/>
<polygon fill="midnightblue" stroke="midnightblue" points="186.48,-57.5 196.48,-54 186.48,-50.5 186.48,-57.5"/>
</g>
<!-- Node4 -->
<g id="node4" class="node">
<title>Node4</title>
<g id="a_node4"><a xlink:href="diagnostics_8php.html#adb7dcc2469f04d5090cd68dc99cc5061" target="_top" xlink:title="Prints as much information as possible and then terminates execution calling die().">
<polygon fill="white" stroke="black" points="231,-0.5 231,-19.5 289,-19.5 289,-0.5 231,-0.5"/>
<text text-anchor="middle" x="260" y="-7.5" font-family="Helvetica,sans-Serif" font-size="10.00">idg_diag</text>
</a>
</g>
</g>
<!-- Node1&#45;&gt;Node4 -->
<g id="edge3" class="edge">
<title>Node1&#45;&gt;Node4</title>
<path fill="none" stroke="midnightblue" d="M134.19,-38.98C163.02,-32.29 196,-24.63 220.82,-18.87"/>
<polygon fill="midnightblue" stroke="midnightblue" points="221.63,-22.27 230.58,-16.6 220.04,-15.45 221.63,-22.27"/>
</g>
</g>
</svg>
