<?xml version="1.0" encoding="UTF-8" standalone="no"?>
<!DOCTYPE svg PUBLIC "-//W3C//DTD SVG 1.1//EN"
 "http://www.w3.org/Graphics/SVG/1.1/DTD/svg11.dtd">
<!-- Generated by graphviz version 2.43.0 (0)
 -->
<!-- Title: idg_tree_node\get_parent Pages: 1 -->
<svg width="508pt" height="104pt"
 viewBox="0.00 0.00 508.00 104.00" xmlns="http://www.w3.org/2000/svg" xmlns:xlink="http://www.w3.org/1999/xlink">
<g id="graph0" class="graph" transform="scale(1 1) rotate(0) translate(4 100)">
<title>idg_tree_node\get_parent</title>
<polygon fill="white" stroke="transparent" points="-4,4 -4,-100 504,-100 504,4 -4,4"/>
<!-- Node1 -->
<g id="node1" class="node">
<title>Node1</title>
<g id="a_node1"><a xlink:title=" ">
<polygon fill="#bfbfbf" stroke="black" points="359,-57.5 359,-76.5 500,-76.5 500,-57.5 359,-57.5"/>
<text text-anchor="middle" x="429.5" y="-64.5" font-family="Helvetica,sans-Serif" font-size="10.00">idg_tree_node\get_parent</text>
</a>
</g>
</g>
<!-- Node2 -->
<g id="node2" class="node">
<title>Node2</title>
<g id="a_node2"><a xlink:href="classidg__document.html#a9ff98fd927f8ce36998139615667f573" target="_top" xlink:title=" ">
<polygon fill="white" stroke="black" points="8.5,-76.5 8.5,-95.5 147.5,-95.5 147.5,-76.5 8.5,-76.5"/>
<text text-anchor="middle" x="78" y="-83.5" font-family="Helvetica,sans-Serif" font-size="10.00">idg_document\add_token</text>
</a>
</g>
</g>
<!-- Node1&#45;&gt;Node2 -->
<g id="edge1" class="edge">
<title>Node1&#45;&gt;Node2</title>
<path fill="none" stroke="midnightblue" d="M348.31,-71.36C287.64,-74.66 205.2,-79.14 147.57,-82.27"/>
<polygon fill="midnightblue" stroke="midnightblue" points="348.82,-74.84 358.61,-70.8 348.44,-67.85 348.82,-74.84"/>
</g>
<!-- Node3 -->
<g id="node3" class="node">
<title>Node3</title>
<g id="a_node3"><a xlink:href="classidg__document.html#a4554297770548415a0edf16831c41255" target="_top" xlink:title=" ">
<polygon fill="white" stroke="black" points="192,-38.5 192,-57.5 323,-57.5 323,-38.5 192,-38.5"/>
<text text-anchor="middle" x="257.5" y="-45.5" font-family="Helvetica,sans-Serif" font-size="10.00">idg_document\get_path</text>
</a>
</g>
</g>
<!-- Node1&#45;&gt;Node3 -->
<g id="edge2" class="edge">
<title>Node1&#45;&gt;Node3</title>
<path fill="none" stroke="midnightblue" d="M348.81,-58.09C340.19,-57.13 331.51,-56.16 323.1,-55.22"/>
<polygon fill="midnightblue" stroke="midnightblue" points="348.54,-61.58 358.86,-59.22 349.31,-54.63 348.54,-61.58"/>
</g>
<!-- Node3&#45;&gt;Node2 -->
<g id="edge3" class="edge">
<title>Node3&#45;&gt;Node2</title>
<path fill="none" stroke="midnightblue" d="M201.6,-59.75C176.5,-65.13 147.16,-71.41 123.47,-76.48"/>
<polygon fill="midnightblue" stroke="midnightblue" points="202.66,-63.1 211.71,-57.59 201.2,-56.26 202.66,-63.1"/>
</g>
<!-- Node4 -->
<g id="node4" class="node">
<title>Node4</title>
<g id="a_node4"><a xlink:href="classidg__document.html#a0e01326ce378e5cf31d9c6fb11097b31" target="_top" xlink:title=" ">
<polygon fill="white" stroke="black" points="0,-38.5 0,-57.5 156,-57.5 156,-38.5 0,-38.5"/>
<text text-anchor="middle" x="78" y="-45.5" font-family="Helvetica,sans-Serif" font-size="10.00">idg_document\get_renderers</text>
</a>
</g>
</g>
<!-- Node3&#45;&gt;Node4 -->
<g id="edge4" class="edge">
<title>Node3&#45;&gt;Node4</title>
<path fill="none" stroke="midnightblue" d="M181.73,-48C173.29,-48 164.68,-48 156.21,-48"/>
<polygon fill="midnightblue" stroke="midnightblue" points="181.92,-51.5 191.92,-48 181.92,-44.5 181.92,-51.5"/>
</g>
<!-- Node5 -->
<g id="node5" class="node">
<title>Node5</title>
<g id="a_node5"><a xlink:href="classidg__document.html#aed4be589596f2e466b8c79d352bd62d9" target="_top" xlink:title=" ">
<polygon fill="white" stroke="black" points="17,-0.5 17,-19.5 139,-19.5 139,-0.5 17,-0.5"/>
<text text-anchor="middle" x="78" y="-7.5" font-family="Helvetica,sans-Serif" font-size="10.00">idg_document\get_url</text>
</a>
</g>
</g>
<!-- Node3&#45;&gt;Node5 -->
<g id="edge5" class="edge">
<title>Node3&#45;&gt;Node5</title>
<path fill="none" stroke="midnightblue" d="M201.6,-36.25C176.5,-30.87 147.16,-24.59 123.47,-19.52"/>
<polygon fill="midnightblue" stroke="midnightblue" points="201.2,-39.74 211.71,-38.41 202.66,-32.9 201.2,-39.74"/>
</g>
</g>
</svg>
