<?xml version="1.0" encoding="UTF-8" standalone="no"?>
<!DOCTYPE svg PUBLIC "-//W3C//DTD SVG 1.1//EN"
 "http://www.w3.org/Graphics/SVG/1.1/DTD/svg11.dtd">
<!-- Generated by graphviz version 2.43.0 (0)
 -->
<!-- Title: idg_object\get_property Pages: 1 -->
<svg width="304pt" height="78pt"
 viewBox="0.00 0.00 304.00 77.50" xmlns="http://www.w3.org/2000/svg" xmlns:xlink="http://www.w3.org/1999/xlink">
<g id="graph0" class="graph" transform="scale(1 1) rotate(0) translate(4 73.5)">
<title>idg_object\get_property</title>
<polygon fill="white" stroke="transparent" points="-4,4 -4,-73.5 300,-73.5 300,4 -4,4"/>
<!-- Node1 -->
<g id="node1" class="node">
<title>Node1</title>
<g id="a_node1"><a xlink:title="Returns the value of a property, possibly generated by a hook function if it is not explicitly set,...">
<polygon fill="#bfbfbf" stroke="black" points="164,-22.5 164,-41.5 296,-41.5 296,-22.5 164,-22.5"/>
<text text-anchor="middle" x="230" y="-29.5" font-family="Helvetica,sans-Serif" font-size="10.00">idg_object\get_property</text>
</a>
</g>
</g>
<!-- Node2 -->
<g id="node2" class="node">
<title>Node2</title>
<g id="a_node2"><a xlink:href="classidg__site__element.html#afc704e30e111dfaab8411e8cea7d0e6a" target="_top" xlink:title="Loads up a token for the site&#39;s built&#45;in datasource.">
<polygon fill="white" stroke="black" points="1.5,-39 1.5,-69 126.5,-69 126.5,-39 1.5,-39"/>
<text text-anchor="start" x="9.5" y="-57" font-family="Helvetica,sans-Serif" font-size="10.00">idg_site_element\_get</text>
<text text-anchor="middle" x="64" y="-46" font-family="Helvetica,sans-Serif" font-size="10.00">_token</text>
</a>
</g>
</g>
<!-- Node1&#45;&gt;Node2 -->
<g id="edge1" class="edge">
<title>Node1&#45;&gt;Node2</title>
<path fill="none" stroke="midnightblue" d="M153.58,-42.12C144.55,-43.33 135.4,-44.56 126.6,-45.74"/>
<polygon fill="midnightblue" stroke="midnightblue" points="154.27,-45.56 163.71,-40.76 153.34,-38.62 154.27,-45.56"/>
</g>
<!-- Node3 -->
<g id="node3" class="node">
<title>Node3</title>
<g id="a_node3"><a xlink:href="classidg__site.html#a51f0d55c03145b85ca3e9c312af3b0d2" target="_top" xlink:title="Returns an instance of the document with the given name, or the index document if the parameter is le...">
<polygon fill="white" stroke="black" points="0,-0.5 0,-19.5 128,-19.5 128,-0.5 0,-0.5"/>
<text text-anchor="middle" x="64" y="-7.5" font-family="Helvetica,sans-Serif" font-size="10.00">idg_site\get_document</text>
</a>
</g>
</g>
<!-- Node1&#45;&gt;Node3 -->
<g id="edge2" class="edge">
<title>Node1&#45;&gt;Node3</title>
<path fill="none" stroke="midnightblue" d="M153.75,-21.91C145.2,-20.76 136.56,-19.6 128.19,-18.48"/>
<polygon fill="midnightblue" stroke="midnightblue" points="153.34,-25.38 163.71,-23.24 154.27,-18.44 153.34,-25.38"/>
</g>
</g>
</svg>
