<?xml version="1.0" encoding="UTF-8" standalone="no"?>
<!DOCTYPE svg PUBLIC "-//W3C//DTD SVG 1.1//EN"
 "http://www.w3.org/Graphics/SVG/1.1/DTD/svg11.dtd">
<!-- Generated by graphviz version 2.43.0 (0)
 -->
<!-- Title: idg_document_type\__construct Pages: 1 -->
<svg width="312pt" height="116pt"
 viewBox="0.00 0.00 312.00 115.50" xmlns="http://www.w3.org/2000/svg" xmlns:xlink="http://www.w3.org/1999/xlink">
<g id="graph0" class="graph" transform="scale(1 1) rotate(0) translate(4 111.5)">
<title>idg_document_type\__construct</title>
<polygon fill="white" stroke="transparent" points="-4,4 -4,-111.5 308,-111.5 308,4 -4,4"/>
<!-- Node1 -->
<g id="node1" class="node">
<title>Node1</title>
<g id="a_node1"><a xlink:title="The constructor.">
<polygon fill="#bfbfbf" stroke="black" points="0,-44.5 0,-74.5 116,-74.5 116,-44.5 0,-44.5"/>
<text text-anchor="start" x="8" y="-62.5" font-family="Helvetica,sans-Serif" font-size="10.00">idg_document_type\</text>
<text text-anchor="middle" x="58" y="-51.5" font-family="Helvetica,sans-Serif" font-size="10.00">__construct</text>
</a>
</g>
</g>
<!-- Node2 -->
<g id="node2" class="node">
<title>Node2</title>
<g id="a_node2"><a xlink:href="classidg__type.html#af530414c3e87419b503a207f8bda9abb" target="_top" xlink:title="Adds a name to the list of known properties.">
<polygon fill="white" stroke="black" points="155,-88 155,-107 301,-107 301,-88 155,-88"/>
<text text-anchor="middle" x="228" y="-95" font-family="Helvetica,sans-Serif" font-size="10.00">idg_type\register_property</text>
</a>
</g>
</g>
<!-- Node1&#45;&gt;Node2 -->
<g id="edge1" class="edge">
<title>Node1&#45;&gt;Node2</title>
<path fill="none" stroke="midnightblue" d="M116.35,-72.47C135.36,-76.77 156.41,-81.53 175,-85.74"/>
<polygon fill="midnightblue" stroke="midnightblue" points="174.23,-89.15 184.76,-87.95 175.78,-82.33 174.23,-89.15"/>
</g>
<!-- Node3 -->
<g id="node3" class="node">
<title>Node3</title>
<g id="a_node3"><a xlink:href="classidg__type.html#aa8ed11a49629c5dc74064400265460d1" target="_top" xlink:title="Attach a hook function to a property that is called when the property value is null.">
<polygon fill="white" stroke="black" points="152,-50 152,-69 304,-69 304,-50 152,-50"/>
<text text-anchor="middle" x="228" y="-57" font-family="Helvetica,sans-Serif" font-size="10.00">idg_type\set_property_hook</text>
</a>
</g>
</g>
<!-- Node1&#45;&gt;Node3 -->
<g id="edge2" class="edge">
<title>Node1&#45;&gt;Node3</title>
<path fill="none" stroke="midnightblue" d="M116.35,-59.5C124.54,-59.5 133.12,-59.5 141.72,-59.5"/>
<polygon fill="midnightblue" stroke="midnightblue" points="141.79,-63 151.79,-59.5 141.79,-56 141.79,-63"/>
</g>
<!-- Node4 -->
<g id="node4" class="node">
<title>Node4</title>
<g id="a_node4"><a xlink:href="classidg__type.html#ab5d4ce497e00d120b942acb9372c214f" target="_top" xlink:title="Sets whether an existing property is mandatory.">
<polygon fill="white" stroke="black" points="166.5,-0.5 166.5,-30.5 289.5,-30.5 289.5,-0.5 166.5,-0.5"/>
<text text-anchor="start" x="174.5" y="-18.5" font-family="Helvetica,sans-Serif" font-size="10.00">idg_type\set_property</text>
<text text-anchor="middle" x="228" y="-7.5" font-family="Helvetica,sans-Serif" font-size="10.00">_mandatory</text>
</a>
</g>
</g>
<!-- Node1&#45;&gt;Node4 -->
<g id="edge3" class="edge">
<title>Node1&#45;&gt;Node4</title>
<path fill="none" stroke="midnightblue" d="M116.35,-44.48C130.33,-40.82 145.4,-36.87 159.8,-33.1"/>
<polygon fill="midnightblue" stroke="midnightblue" points="160.84,-36.45 169.63,-30.53 159.07,-29.67 160.84,-36.45"/>
</g>
</g>
</svg>
