<?xml version="1.0" encoding="UTF-8" standalone="no"?>
<!DOCTYPE svg PUBLIC "-//W3C//DTD SVG 1.1//EN"
 "http://www.w3.org/Graphics/SVG/1.1/DTD/svg11.dtd">
<!-- Generated by graphviz version 2.43.0 (0)
 -->
<!-- Title: idg_renderer_implementation Pages: 1 -->
<svg width="531pt" height="127pt"
 viewBox="0.00 0.00 531.00 126.50" xmlns="http://www.w3.org/2000/svg" xmlns:xlink="http://www.w3.org/1999/xlink">
<g id="graph0" class="graph" transform="scale(1 1) rotate(0) translate(4 122.5)">
<title>idg_renderer_implementation</title>
<polygon fill="white" stroke="transparent" points="-4,4 -4,-122.5 527,-122.5 527,4 -4,4"/>
<!-- Node1 -->
<g id="node1" class="node">
<title>Node1</title>
<g id="a_node1"><a xlink:title="The actual renderer object.">
<polygon fill="#bfbfbf" stroke="black" points="186,-44.5 186,-63.5 347,-63.5 347,-44.5 186,-44.5"/>
<text text-anchor="middle" x="266.5" y="-51.5" font-family="Helvetica,sans-Serif" font-size="10.00">idg_renderer_implementation</text>
</a>
</g>
</g>
<!-- Node3 -->
<g id="node3" class="node">
<title>Node3</title>
<g id="a_node3"><a xlink:href="classIndigo_1_1Module_1_1Markdown_1_1renderer.html" target="_top" xlink:title="Support for .md files via parsedown.">
<polygon fill="white" stroke="black" points="383,-88 383,-118 523,-118 523,-88 383,-88"/>
<text text-anchor="start" x="391" y="-106" font-family="Helvetica,sans-Serif" font-size="10.00">Indigo\Module\Markdown</text>
<text text-anchor="middle" x="453" y="-95" font-family="Helvetica,sans-Serif" font-size="10.00">\renderer</text>
</a>
</g>
</g>
<!-- Node1&#45;&gt;Node3 -->
<g id="edge2" class="edge">
<title>Node1&#45;&gt;Node3</title>
<path fill="none" stroke="midnightblue" d="M313.4,-66.19C338.22,-72.78 369.08,-80.98 395.38,-87.96"/>
<polygon fill="midnightblue" stroke="midnightblue" points="314.07,-62.75 303.51,-63.56 312.28,-69.51 314.07,-62.75"/>
</g>
<!-- Node4 -->
<g id="node4" class="node">
<title>Node4</title>
<g id="a_node4"><a xlink:href="classIndigo_1_1Module_1_1Sourcefile_1_1renderer.html" target="_top" xlink:title=" ">
<polygon fill="white" stroke="black" points="384.5,-39 384.5,-69 521.5,-69 521.5,-39 384.5,-39"/>
<text text-anchor="start" x="392.5" y="-57" font-family="Helvetica,sans-Serif" font-size="10.00">Indigo\Module\Sourcefile</text>
<text text-anchor="middle" x="453" y="-46" font-family="Helvetica,sans-Serif" font-size="10.00">\renderer</text>
</a>
</g>
</g>
<!-- Node1&#45;&gt;Node4 -->
<g id="edge3" class="edge">
<title>Node1&#45;&gt;Node4</title>
<path fill="none" stroke="midnightblue" d="M357.29,-54C366.37,-54 375.47,-54 384.26,-54"/>
<polygon fill="midnightblue" stroke="midnightblue" points="357.08,-50.5 347.08,-54 357.08,-57.5 357.08,-50.5"/>
</g>
<!-- Node5 -->
<g id="node5" class="node">
<title>Node5</title>
<g id="a_node5"><a xlink:href="classIndigo_1_1Renderer_1_1textfile.html" target="_top" xlink:title=" ">
<polygon fill="white" stroke="black" points="387.5,-0.5 387.5,-19.5 518.5,-19.5 518.5,-0.5 387.5,-0.5"/>
<text text-anchor="middle" x="453" y="-7.5" font-family="Helvetica,sans-Serif" font-size="10.00">Indigo\Renderer\textfile</text>
</a>
</g>
</g>
<!-- Node1&#45;&gt;Node5 -->
<g id="edge4" class="edge">
<title>Node1&#45;&gt;Node5</title>
<path fill="none" stroke="midnightblue" d="M317.3,-42.12C347.02,-35.04 384.26,-26.16 412.04,-19.53"/>
<polygon fill="midnightblue" stroke="midnightblue" points="316.45,-38.73 307.53,-44.45 318.07,-45.54 316.45,-38.73"/>
</g>
<!-- Node2 -->
<g id="node2" class="node">
<title>Node2</title>
<g id="a_node2"><a xlink:href="classidg__object__implementation.html" target="_top" xlink:title="Base class for ancillary objects that have no associated type information.">
<polygon fill="white" stroke="black" points="0,-44.5 0,-63.5 150,-63.5 150,-44.5 0,-44.5"/>
<text text-anchor="middle" x="75" y="-51.5" font-family="Helvetica,sans-Serif" font-size="10.00">idg_object_implementation</text>
</a>
</g>
</g>
<!-- Node2&#45;&gt;Node1 -->
<g id="edge1" class="edge">
<title>Node2&#45;&gt;Node1</title>
<path fill="none" stroke="midnightblue" d="M160.34,-54C168.82,-54 177.41,-54 185.84,-54"/>
<polygon fill="midnightblue" stroke="midnightblue" points="160.08,-50.5 150.08,-54 160.08,-57.5 160.08,-50.5"/>
</g>
</g>
</svg>
