<?xml version="1.0" encoding="UTF-8" standalone="no"?>
<!DOCTYPE svg PUBLIC "-//W3C//DTD SVG 1.1//EN"
 "http://www.w3.org/Graphics/SVG/1.1/DTD/svg11.dtd">
<!-- Generated by graphviz version 2.43.0 (0)
 -->
<!-- Title: idg_object_implementation Pages: 1 -->
<svg width="558pt" height="557pt"
 viewBox="0.00 0.00 558.00 557.00" xmlns="http://www.w3.org/2000/svg" xmlns:xlink="http://www.w3.org/1999/xlink">
<g id="graph0" class="graph" transform="scale(1 1) rotate(0) translate(4 553)">
<title>idg_object_implementation</title>
<polygon fill="white" stroke="transparent" points="-4,4 -4,-553 554,-553 554,4 -4,4"/>
<!-- Node1 -->
<g id="node1" class="node">
<title>Node1</title>
<g id="a_node1"><a xlink:title="Base class for ancillary objects that have no associated type information.">
<polygon fill="#bfbfbf" stroke="black" points="0,-227.5 0,-246.5 150,-246.5 150,-227.5 0,-227.5"/>
<text text-anchor="middle" x="75" y="-234.5" font-family="Helvetica,sans-Serif" font-size="10.00">idg_object_implementation</text>
</a>
</g>
</g>
<!-- Node2 -->
<g id="node2" class="node">
<title>Node2</title>
<g id="a_node2"><a xlink:href="classidg__datasource__implementation.html" target="_top" xlink:title="An object instance of a data source.">
<polygon fill="white" stroke="black" points="186,-415.5 186,-434.5 360,-434.5 360,-415.5 186,-415.5"/>
<text text-anchor="middle" x="273" y="-422.5" font-family="Helvetica,sans-Serif" font-size="10.00">idg_datasource_implementation</text>
</a>
</g>
</g>
<!-- Node1&#45;&gt;Node2 -->
<g id="edge1" class="edge">
<title>Node1&#45;&gt;Node2</title>
<path fill="none" stroke="midnightblue" d="M93.37,-253.66C133.2,-291.86 230.12,-384.83 261.8,-415.21"/>
<polygon fill="midnightblue" stroke="midnightblue" points="95.63,-250.98 85.99,-246.58 90.78,-256.03 95.63,-250.98"/>
</g>
<!-- Node9 -->
<g id="node9" class="node">
<title>Node9</title>
<g id="a_node9"><a xlink:href="classidg__fragment__implementation.html" target="_top" xlink:title="An object instance of a fragment.">
<polygon fill="white" stroke="black" points="190.5,-251.5 190.5,-270.5 355.5,-270.5 355.5,-251.5 190.5,-251.5"/>
<text text-anchor="middle" x="273" y="-258.5" font-family="Helvetica,sans-Serif" font-size="10.00">idg_fragment_implementation</text>
</a>
</g>
</g>
<!-- Node1&#45;&gt;Node9 -->
<g id="edge8" class="edge">
<title>Node1&#45;&gt;Node9</title>
<path fill="none" stroke="midnightblue" d="M160.34,-247.33C171.59,-248.7 183.08,-250.11 194.2,-251.47"/>
<polygon fill="midnightblue" stroke="midnightblue" points="160.45,-243.81 150.1,-246.07 159.6,-250.76 160.45,-243.81"/>
</g>
<!-- Node12 -->
<g id="node12" class="node">
<title>Node12</title>
<g id="a_node12"><a xlink:href="classidg__renderer__implementation.html" target="_top" xlink:title="The actual renderer object.">
<polygon fill="white" stroke="black" points="192.5,-181.5 192.5,-200.5 353.5,-200.5 353.5,-181.5 192.5,-181.5"/>
<text text-anchor="middle" x="273" y="-188.5" font-family="Helvetica,sans-Serif" font-size="10.00">idg_renderer_implementation</text>
</a>
</g>
</g>
<!-- Node1&#45;&gt;Node12 -->
<g id="edge11" class="edge">
<title>Node1&#45;&gt;Node12</title>
<path fill="none" stroke="midnightblue" d="M126.42,-225.17C159.05,-217.51 200.97,-207.67 231.44,-200.52"/>
<polygon fill="midnightblue" stroke="midnightblue" points="125.55,-221.78 116.61,-227.47 127.15,-228.59 125.55,-221.78"/>
</g>
<!-- Node16 -->
<g id="node16" class="node">
<title>Node16</title>
<g id="a_node16"><a xlink:href="classidg__view__implementation.html" target="_top" xlink:title="An object instance of a view.">
<polygon fill="white" stroke="black" points="201.5,-57.5 201.5,-76.5 344.5,-76.5 344.5,-57.5 201.5,-57.5"/>
<text text-anchor="middle" x="273" y="-64.5" font-family="Helvetica,sans-Serif" font-size="10.00">idg_view_implementation</text>
</a>
</g>
</g>
<!-- Node1&#45;&gt;Node16 -->
<g id="edge15" class="edge">
<title>Node1&#45;&gt;Node16</title>
<path fill="none" stroke="midnightblue" d="M94.86,-220.64C135.24,-185.62 228.97,-104.32 261.02,-76.52"/>
<polygon fill="midnightblue" stroke="midnightblue" points="92.36,-218.18 87.1,-227.37 96.95,-223.46 92.36,-218.18"/>
</g>
<!-- Node3 -->
<g id="node3" class="node">
<title>Node3</title>
<g id="a_node3"><a xlink:href="classIndigo_1_1Datasource_1_1php.html" target="_top" xlink:title="Executes a php function and returns the resulting array as tokens.">
<polygon fill="white" stroke="black" points="410,-529.5 410,-548.5 536,-548.5 536,-529.5 410,-529.5"/>
<text text-anchor="middle" x="473" y="-536.5" font-family="Helvetica,sans-Serif" font-size="10.00">Indigo\Datasource\php</text>
</a>
</g>
</g>
<!-- Node2&#45;&gt;Node3 -->
<g id="edge2" class="edge">
<title>Node2&#45;&gt;Node3</title>
<path fill="none" stroke="midnightblue" d="M290.73,-441.82C312.89,-463.15 354.09,-499.58 396,-520 403.83,-523.81 412.49,-526.91 421.08,-529.4"/>
<polygon fill="midnightblue" stroke="midnightblue" points="293.06,-439.2 283.46,-434.71 288.16,-444.2 293.06,-439.2"/>
</g>
<!-- Node4 -->
<g id="node4" class="node">
<title>Node4</title>
<g id="a_node4"><a xlink:href="classIndigo_1_1Datasource_1_1rss.html" target="_top" xlink:title="Retrieves an rss feed and returns the entries as tokens.">
<polygon fill="white" stroke="black" points="412,-491.5 412,-510.5 534,-510.5 534,-491.5 412,-491.5"/>
<text text-anchor="middle" x="473" y="-498.5" font-family="Helvetica,sans-Serif" font-size="10.00">Indigo\Datasource\rss</text>
</a>
</g>
</g>
<!-- Node2&#45;&gt;Node4 -->
<g id="edge3" class="edge">
<title>Node2&#45;&gt;Node4</title>
<path fill="none" stroke="midnightblue" d="M300.7,-439.3C325,-451.87 362.16,-469.99 396,-482 406.13,-485.59 417.24,-488.78 427.77,-491.46"/>
<polygon fill="midnightblue" stroke="midnightblue" points="302.22,-436.14 291.73,-434.61 298.97,-442.35 302.22,-436.14"/>
</g>
<!-- Node5 -->
<g id="node5" class="node">
<title>Node5</title>
<g id="a_node5"><a xlink:href="classIndigo_1_1Datasource_1_1scanlinks.html" target="_top" xlink:title="Scans the html&#45;body stream for links and returns them as tokens.">
<polygon fill="white" stroke="black" points="396,-453.5 396,-472.5 550,-472.5 550,-453.5 396,-453.5"/>
<text text-anchor="middle" x="473" y="-460.5" font-family="Helvetica,sans-Serif" font-size="10.00">Indigo\Datasource\scanlinks</text>
</a>
</g>
</g>
<!-- Node2&#45;&gt;Node5 -->
<g id="edge4" class="edge">
<title>Node2&#45;&gt;Node5</title>
<path fill="none" stroke="midnightblue" d="M333.87,-436.49C362.12,-441.91 395.44,-448.31 422.27,-453.46"/>
<polygon fill="midnightblue" stroke="midnightblue" points="334.19,-432.99 323.71,-434.54 332.87,-439.86 334.19,-432.99"/>
</g>
<!-- Node6 -->
<g id="node6" class="node">
<title>Node6</title>
<g id="a_node6"><a xlink:href="classIndigo_1_1Datasource_1_1text.html" target="_top" xlink:title="Simply quotes its text (set with set_text or per xml chacter data, respectively).">
<polygon fill="white" stroke="black" points="409,-415.5 409,-434.5 537,-434.5 537,-415.5 409,-415.5"/>
<text text-anchor="middle" x="473" y="-422.5" font-family="Helvetica,sans-Serif" font-size="10.00">Indigo\Datasource\text</text>
</a>
</g>
</g>
<!-- Node2&#45;&gt;Node6 -->
<g id="edge5" class="edge">
<title>Node2&#45;&gt;Node6</title>
<path fill="none" stroke="midnightblue" d="M370.28,-425C383.41,-425 396.61,-425 408.94,-425"/>
<polygon fill="midnightblue" stroke="midnightblue" points="370.27,-421.5 360.27,-425 370.27,-428.5 370.27,-421.5"/>
</g>
<!-- Node7 -->
<g id="node7" class="node">
<title>Node7</title>
<g id="a_node7"><a xlink:href="classIndigo_1_1Datasource_1_1textfile.html" target="_top" xlink:title="Returns the content of a (normally text) file.">
<polygon fill="white" stroke="black" points="401.5,-377.5 401.5,-396.5 544.5,-396.5 544.5,-377.5 401.5,-377.5"/>
<text text-anchor="middle" x="473" y="-384.5" font-family="Helvetica,sans-Serif" font-size="10.00">Indigo\Datasource\textfile</text>
</a>
</g>
</g>
<!-- Node2&#45;&gt;Node7 -->
<g id="edge6" class="edge">
<title>Node2&#45;&gt;Node7</title>
<path fill="none" stroke="midnightblue" d="M333.87,-413.51C362.12,-408.09 395.44,-401.69 422.27,-396.54"/>
<polygon fill="midnightblue" stroke="midnightblue" points="332.87,-410.14 323.71,-415.46 334.19,-417.01 332.87,-410.14"/>
</g>
<!-- Node8 -->
<g id="node8" class="node">
<title>Node8</title>
<g id="a_node8"><a xlink:href="classIndigo_1_1Module_1_1Sourcefile_1_1datasource.html" target="_top" xlink:title=" ">
<polygon fill="white" stroke="black" points="404.5,-328 404.5,-358 541.5,-358 541.5,-328 404.5,-328"/>
<text text-anchor="start" x="412.5" y="-346" font-family="Helvetica,sans-Serif" font-size="10.00">Indigo\Module\Sourcefile</text>
<text text-anchor="middle" x="473" y="-335" font-family="Helvetica,sans-Serif" font-size="10.00">\datasource</text>
</a>
</g>
</g>
<!-- Node2&#45;&gt;Node8 -->
<g id="edge7" class="edge">
<title>Node2&#45;&gt;Node8</title>
<path fill="none" stroke="midnightblue" d="M301.76,-410.87C326.23,-398.7 363,-381.08 396,-368 404.78,-364.52 414.26,-361.12 423.44,-358.01"/>
<polygon fill="midnightblue" stroke="midnightblue" points="300.09,-407.79 292.71,-415.4 303.22,-414.05 300.09,-407.79"/>
</g>
<!-- Node10 -->
<g id="node10" class="node">
<title>Node10</title>
<g id="a_node10"><a xlink:href="classIndigo_1_1Fragment_1_1image.html" target="_top" xlink:title=" ">
<polygon fill="white" stroke="black" points="408,-289.5 408,-308.5 538,-308.5 538,-289.5 408,-289.5"/>
<text text-anchor="middle" x="473" y="-296.5" font-family="Helvetica,sans-Serif" font-size="10.00">Indigo\Fragment\image</text>
</a>
</g>
</g>
<!-- Node9&#45;&gt;Node10 -->
<g id="edge9" class="edge">
<title>Node9&#45;&gt;Node10</title>
<path fill="none" stroke="midnightblue" d="M333.87,-272.49C362.12,-277.91 395.44,-284.31 422.27,-289.46"/>
<polygon fill="midnightblue" stroke="midnightblue" points="334.19,-268.99 323.71,-270.54 332.87,-275.86 334.19,-268.99"/>
</g>
<!-- Node11 -->
<g id="node11" class="node">
<title>Node11</title>
<g id="a_node11"><a xlink:href="classIndigo_1_1Fragment_1_1text.html" target="_top" xlink:title="Inserts the character data into a &lt;span&gt;, supports all styles.">
<polygon fill="white" stroke="black" points="413.5,-251.5 413.5,-270.5 532.5,-270.5 532.5,-251.5 413.5,-251.5"/>
<text text-anchor="middle" x="473" y="-258.5" font-family="Helvetica,sans-Serif" font-size="10.00">Indigo\Fragment\text</text>
</a>
</g>
</g>
<!-- Node9&#45;&gt;Node11 -->
<g id="edge10" class="edge">
<title>Node9&#45;&gt;Node11</title>
<path fill="none" stroke="midnightblue" d="M365.74,-261C381.98,-261 398.48,-261 413.48,-261"/>
<polygon fill="midnightblue" stroke="midnightblue" points="365.68,-257.5 355.68,-261 365.68,-264.5 365.68,-257.5"/>
</g>
<!-- Node13 -->
<g id="node13" class="node">
<title>Node13</title>
<g id="a_node13"><a xlink:href="classIndigo_1_1Module_1_1Markdown_1_1renderer.html" target="_top" xlink:title="Support for .md files via parsedown.">
<polygon fill="white" stroke="black" points="403,-202 403,-232 543,-232 543,-202 403,-202"/>
<text text-anchor="start" x="411" y="-220" font-family="Helvetica,sans-Serif" font-size="10.00">Indigo\Module\Markdown</text>
<text text-anchor="middle" x="473" y="-209" font-family="Helvetica,sans-Serif" font-size="10.00">\renderer</text>
</a>
</g>
</g>
<!-- Node12&#45;&gt;Node13 -->
<g id="edge12" class="edge">
<title>Node12&#45;&gt;Node13</title>
<path fill="none" stroke="midnightblue" d="M356.59,-201.85C371.93,-203.86 387.81,-205.94 402.7,-207.9"/>
<polygon fill="midnightblue" stroke="midnightblue" points="356.97,-198.37 346.6,-200.53 356.06,-205.31 356.97,-198.37"/>
</g>
<!-- Node14 -->
<g id="node14" class="node">
<title>Node14</title>
<g id="a_node14"><a xlink:href="classIndigo_1_1Module_1_1Sourcefile_1_1renderer.html" target="_top" xlink:title=" ">
<polygon fill="white" stroke="black" points="404.5,-153 404.5,-183 541.5,-183 541.5,-153 404.5,-153"/>
<text text-anchor="start" x="412.5" y="-171" font-family="Helvetica,sans-Serif" font-size="10.00">Indigo\Module\Sourcefile</text>
<text text-anchor="middle" x="473" y="-160" font-family="Helvetica,sans-Serif" font-size="10.00">\renderer</text>
</a>
</g>
</g>
<!-- Node12&#45;&gt;Node14 -->
<g id="edge13" class="edge">
<title>Node12&#45;&gt;Node14</title>
<path fill="none" stroke="midnightblue" d="M363.97,-180.55C377.51,-178.98 391.28,-177.38 404.25,-175.87"/>
<polygon fill="midnightblue" stroke="midnightblue" points="363.21,-177.11 353.68,-181.74 364.02,-184.07 363.21,-177.11"/>
</g>
<!-- Node15 -->
<g id="node15" class="node">
<title>Node15</title>
<g id="a_node15"><a xlink:href="classIndigo_1_1Renderer_1_1textfile.html" target="_top" xlink:title=" ">
<polygon fill="white" stroke="black" points="407.5,-114.5 407.5,-133.5 538.5,-133.5 538.5,-114.5 407.5,-114.5"/>
<text text-anchor="middle" x="473" y="-121.5" font-family="Helvetica,sans-Serif" font-size="10.00">Indigo\Renderer\textfile</text>
</a>
</g>
</g>
<!-- Node12&#45;&gt;Node15 -->
<g id="edge14" class="edge">
<title>Node12&#45;&gt;Node15</title>
<path fill="none" stroke="midnightblue" d="M306.14,-177.5C330.54,-167.52 365.06,-154 396,-144 407.68,-140.22 420.55,-136.63 432.31,-133.56"/>
<polygon fill="midnightblue" stroke="midnightblue" points="304.58,-174.36 296.67,-181.4 307.24,-180.83 304.58,-174.36"/>
</g>
<!-- Node17 -->
<g id="node17" class="node">
<title>Node17</title>
<g id="a_node17"><a xlink:href="classIndigo_1_1View_1_1grid.html" target="_top" xlink:title="A view using grid.">
<polygon fill="white" stroke="black" points="425.5,-76.5 425.5,-95.5 520.5,-95.5 520.5,-76.5 425.5,-76.5"/>
<text text-anchor="middle" x="473" y="-83.5" font-family="Helvetica,sans-Serif" font-size="10.00">Indigo\View\grid</text>
</a>
</g>
</g>
<!-- Node16&#45;&gt;Node17 -->
<g id="edge16" class="edge">
<title>Node16&#45;&gt;Node17</title>
<path fill="none" stroke="midnightblue" d="M354.81,-74.75C378.77,-77.05 404.2,-79.49 425.23,-81.51"/>
<polygon fill="midnightblue" stroke="midnightblue" points="354.93,-71.25 344.64,-73.78 354.26,-78.22 354.93,-71.25"/>
</g>
<!-- Node18 -->
<g id="node18" class="node">
<title>Node18</title>
<g id="a_node18"><a xlink:href="classIndigo_1_1View_1_1sidebar.html" target="_top" xlink:title="A fixed div to the left or right.">
<polygon fill="white" stroke="black" points="416.5,-38.5 416.5,-57.5 529.5,-57.5 529.5,-38.5 416.5,-38.5"/>
<text text-anchor="middle" x="473" y="-45.5" font-family="Helvetica,sans-Serif" font-size="10.00">Indigo\View\sidebar</text>
</a>
</g>
</g>
<!-- Node16&#45;&gt;Node18 -->
<g id="edge17" class="edge">
<title>Node16&#45;&gt;Node18</title>
<path fill="none" stroke="midnightblue" d="M354.7,-59.26C375.4,-57.27 397.2,-55.18 416.32,-53.34"/>
<polygon fill="midnightblue" stroke="midnightblue" points="354.26,-55.78 344.64,-60.22 354.93,-62.75 354.26,-55.78"/>
</g>
<!-- Node19 -->
<g id="node19" class="node">
<title>Node19</title>
<g id="a_node19"><a xlink:href="classIndigo_1_1View_1_1simple.html" target="_top" xlink:title="A simple one with the scroll bar always visible.">
<polygon fill="white" stroke="black" points="418,-0.5 418,-19.5 528,-19.5 528,-0.5 418,-0.5"/>
<text text-anchor="middle" x="473" y="-7.5" font-family="Helvetica,sans-Serif" font-size="10.00">Indigo\View\simple</text>
</a>
</g>
</g>
<!-- Node16&#45;&gt;Node19 -->
<g id="edge18" class="edge">
<title>Node16&#45;&gt;Node19</title>
<path fill="none" stroke="midnightblue" d="M312.71,-54.33C336.61,-46.65 367.97,-36.86 396,-29 407.65,-25.73 420.39,-22.44 432.05,-19.53"/>
<polygon fill="midnightblue" stroke="midnightblue" points="311.39,-51.07 302.95,-57.47 313.54,-57.73 311.39,-51.07"/>
</g>
</g>
</svg>
