<?xml version="1.0" encoding="UTF-8" standalone="no"?>
<!DOCTYPE svg PUBLIC "-//W3C//DTD SVG 1.1//EN"
 "http://www.w3.org/Graphics/SVG/1.1/DTD/svg11.dtd">
<!-- Generated by graphviz version 2.43.0 (0)
 -->
<!-- Title: idg_object\__construct Pages: 1 -->
<svg width="315pt" height="66pt"
 viewBox="0.00 0.00 315.00 66.00" xmlns="http://www.w3.org/2000/svg" xmlns:xlink="http://www.w3.org/1999/xlink">
<g id="graph0" class="graph" transform="scale(1 1) rotate(0) translate(4 62)">
<title>idg_object\__construct</title>
<polygon fill="white" stroke="transparent" points="-4,4 -4,-62 311,-62 311,4 -4,4"/>
<!-- Node1 -->
<g id="node1" class="node">
<title>Node1</title>
<g id="a_node1"><a xlink:title=" ">
<polygon fill="#bfbfbf" stroke="black" points="0,-19.5 0,-38.5 125,-38.5 125,-19.5 0,-19.5"/>
<text text-anchor="middle" x="62.5" y="-26.5" font-family="Helvetica,sans-Serif" font-size="10.00">idg_object\__construct</text>
</a>
</g>
</g>
<!-- Node2 -->
<g id="node2" class="node">
<title>Node2</title>
<g id="a_node2"><a xlink:href="classidg__object.html#a2b6e078b8213be497949ec6dac1fbbe4" target="_top" xlink:title="Returns the name of the corresponding type object.">
<polygon fill="white" stroke="black" points="161,-38.5 161,-57.5 307,-57.5 307,-38.5 161,-38.5"/>
<text text-anchor="middle" x="234" y="-45.5" font-family="Helvetica,sans-Serif" font-size="10.00">idg_object\get_type_name</text>
</a>
</g>
</g>
<!-- Node1&#45;&gt;Node2 -->
<g id="edge1" class="edge">
<title>Node1&#45;&gt;Node2</title>
<path fill="none" stroke="midnightblue" d="M125.17,-35.91C133.47,-36.84 142.09,-37.81 150.68,-38.77"/>
<polygon fill="midnightblue" stroke="midnightblue" points="150.4,-42.26 160.72,-39.9 151.18,-35.31 150.4,-42.26"/>
</g>
<!-- Node3 -->
<g id="node3" class="node">
<title>Node3</title>
<g id="a_node3"><a xlink:href="diagnostics_8php.html#adb7dcc2469f04d5090cd68dc99cc5061" target="_top" xlink:title="Prints as much information as possible and then terminates execution calling die().">
<polygon fill="white" stroke="black" points="205,-0.5 205,-19.5 263,-19.5 263,-0.5 205,-0.5"/>
<text text-anchor="middle" x="234" y="-7.5" font-family="Helvetica,sans-Serif" font-size="10.00">idg_diag</text>
</a>
</g>
</g>
<!-- Node1&#45;&gt;Node3 -->
<g id="edge2" class="edge">
<title>Node1&#45;&gt;Node3</title>
<path fill="none" stroke="midnightblue" d="M125.17,-22.09C148.39,-19.48 174.1,-16.6 194.6,-14.3"/>
<polygon fill="midnightblue" stroke="midnightblue" points="195.25,-17.75 204.8,-13.16 194.47,-10.8 195.25,-17.75"/>
</g>
</g>
</svg>
