<?xml version="1.0" encoding="UTF-8" standalone="no"?>
<!DOCTYPE svg PUBLIC "-//W3C//DTD SVG 1.1//EN"
 "http://www.w3.org/Graphics/SVG/1.1/DTD/svg11.dtd">
<!-- Generated by graphviz version 2.43.0 (0)
 -->
<!-- Title: diag Pages: 1 -->
<svg width="617pt" height="955pt"
 viewBox="0.00 0.00 617.00 954.50" xmlns="http://www.w3.org/2000/svg" xmlns:xlink="http://www.w3.org/1999/xlink">
<g id="graph0" class="graph" transform="scale(1 1) rotate(0) translate(4 950.5)">
<title>diag</title>
<polygon fill="white" stroke="transparent" points="-4,4 -4,-950.5 613,-950.5 613,4 -4,4"/>
<!-- Node1 -->
<g id="node1" class="node">
<title>Node1</title>
<g id="a_node1"><a xlink:title=" ">
<polygon fill="#bfbfbf" stroke="black" points="571,-452.5 571,-471.5 609,-471.5 609,-452.5 571,-452.5"/>
<text text-anchor="middle" x="590" y="-459.5" font-family="Helvetica,sans-Serif" font-size="10.00">diag</text>
</a>
</g>
</g>
<!-- Node2 -->
<g id="node2" class="node">
<title>Node2</title>
<g id="a_node2"><a xlink:href="classidg__datasource__textfile.html#a1510b04a9010bfa60b06e9feade555b2" target="_top" xlink:title="sdf">
<polygon fill="white" stroke="black" points="398,-916 398,-946 529,-946 529,-916 398,-916"/>
<text text-anchor="start" x="406" y="-934" font-family="Helvetica,sans-Serif" font-size="10.00">idg_datasource_textfile</text>
<text text-anchor="middle" x="463.5" y="-923" font-family="Helvetica,sans-Serif" font-size="10.00">\__construct</text>
</a>
</g>
</g>
<!-- Node1&#45;&gt;Node2 -->
<g id="edge1" class="edge">
<title>Node1&#45;&gt;Node2</title>
<path fill="none" stroke="midnightblue" d="M589.29,-481.77C590.05,-559.16 588.99,-840.47 535,-907 532.23,-910.41 528.95,-913.34 525.35,-915.86"/>
<polygon fill="midnightblue" stroke="midnightblue" points="592.79,-481.48 589.17,-471.53 585.79,-481.57 592.79,-481.48"/>
</g>
<!-- Node3 -->
<g id="node3" class="node">
<title>Node3</title>
<g id="a_node3"><a xlink:href="classidg__datasource__sourcefile.html#a4993ee40d3783b9c2cfbf136d1cd5946" target="_top" xlink:title=" ">
<polygon fill="white" stroke="black" points="392,-867 392,-897 535,-897 535,-867 392,-867"/>
<text text-anchor="start" x="400" y="-885" font-family="Helvetica,sans-Serif" font-size="10.00">idg_datasource_sourcefile</text>
<text text-anchor="middle" x="463.5" y="-874" font-family="Helvetica,sans-Serif" font-size="10.00">\__construct</text>
</a>
</g>
</g>
<!-- Node1&#45;&gt;Node3 -->
<g id="edge2" class="edge">
<title>Node1&#45;&gt;Node3</title>
<path fill="none" stroke="midnightblue" d="M588.96,-481.85C588.43,-553.8 583.06,-799.66 535,-858 532.2,-861.39 528.91,-864.31 525.29,-866.81"/>
<polygon fill="midnightblue" stroke="midnightblue" points="592.46,-481.54 589.01,-471.52 585.46,-481.5 592.46,-481.54"/>
</g>
<!-- Node4 -->
<g id="node4" class="node">
<title>Node4</title>
<g id="a_node4"><a xlink:href="classidg__datasource__phpscript.html#a8b14d8e2930c7942ccea314c130e9391" target="_top" xlink:title=" ">
<polygon fill="white" stroke="black" points="393,-818 393,-848 534,-848 534,-818 393,-818"/>
<text text-anchor="start" x="401" y="-836" font-family="Helvetica,sans-Serif" font-size="10.00">idg_datasource_phpscript</text>
<text text-anchor="middle" x="463.5" y="-825" font-family="Helvetica,sans-Serif" font-size="10.00">\__construct</text>
</a>
</g>
</g>
<!-- Node1&#45;&gt;Node4 -->
<g id="edge3" class="edge">
<title>Node1&#45;&gt;Node4</title>
<path fill="none" stroke="midnightblue" d="M588.5,-481.83C586.46,-547.67 576.74,-757.67 535,-808 531.77,-811.9 527.88,-815.19 523.62,-817.97"/>
<polygon fill="midnightblue" stroke="midnightblue" points="592.01,-481.69 588.79,-471.6 585.01,-481.49 592.01,-481.69"/>
</g>
<!-- Node5 -->
<g id="node5" class="node">
<title>Node5</title>
<g id="a_node5"><a xlink:href="classidg__object.html#a1de5be36dd2da746ba5e79561f46f55e" target="_top" xlink:title="Constructs an idg object and assigns the corresponding idg type.">
<polygon fill="white" stroke="black" points="401,-779.5 401,-798.5 526,-798.5 526,-779.5 401,-779.5"/>
<text text-anchor="middle" x="463.5" y="-786.5" font-family="Helvetica,sans-Serif" font-size="10.00">idg_object\__construct</text>
</a>
</g>
</g>
<!-- Node1&#45;&gt;Node5 -->
<g id="edge4" class="edge">
<title>Node1&#45;&gt;Node5</title>
<path fill="none" stroke="midnightblue" d="M588.23,-481.72C585.46,-542.81 573.97,-727.37 535,-770 531.49,-773.84 527.3,-776.93 522.73,-779.42"/>
<polygon fill="midnightblue" stroke="midnightblue" points="591.74,-481.66 588.67,-471.52 584.75,-481.36 591.74,-481.66"/>
</g>
<!-- Node6 -->
<g id="node6" class="node">
<title>Node6</title>
<g id="a_node6"><a xlink:href="classidg__object.html#ab7575668c8250d7e67c2f94b199d7695" target="_top" xlink:title="Performs consistency checks, dies when an error is encountered.">
<polygon fill="white" stroke="black" points="411.5,-741.5 411.5,-760.5 515.5,-760.5 515.5,-741.5 411.5,-741.5"/>
<text text-anchor="middle" x="463.5" y="-748.5" font-family="Helvetica,sans-Serif" font-size="10.00">idg_object\_check</text>
</a>
</g>
</g>
<!-- Node1&#45;&gt;Node6 -->
<g id="edge5" class="edge">
<title>Node1&#45;&gt;Node6</title>
<path fill="none" stroke="midnightblue" d="M587.49,-481.69C582.92,-536.67 567.44,-690.15 535,-727 529.45,-733.31 522.17,-737.96 514.4,-741.39"/>
<polygon fill="midnightblue" stroke="midnightblue" points="591,-481.78 588.31,-471.54 584.02,-481.22 591,-481.78"/>
</g>
<!-- Node7 -->
<g id="node7" class="node">
<title>Node7</title>
<g id="a_node7"><a xlink:href="classidg__view__html__renderer.html#ae38258ae5fd5ed1b8020e44ce7666c0a" target="_top" xlink:title="See class description.">
<polygon fill="white" stroke="black" points="207,-619 207,-649 341,-649 341,-619 207,-619"/>
<text text-anchor="start" x="215" y="-637" font-family="Helvetica,sans-Serif" font-size="10.00">idg_view_html_renderer</text>
<text text-anchor="middle" x="274" y="-626" font-family="Helvetica,sans-Serif" font-size="10.00">\_render</text>
</a>
</g>
</g>
<!-- Node1&#45;&gt;Node7 -->
<g id="edge6" class="edge">
<title>Node1&#45;&gt;Node7</title>
<path fill="none" stroke="midnightblue" d="M587.47,-481.77C583.05,-532.92 568.42,-667.46 535,-694 462.08,-751.9 343.38,-681.89 295.75,-649.14"/>
<polygon fill="midnightblue" stroke="midnightblue" points="590.97,-481.93 588.3,-471.68 583.99,-481.36 590.97,-481.93"/>
</g>
<!-- Node8 -->
<g id="node8" class="node">
<title>Node8</title>
<g id="a_node8"><a xlink:href="classidg__tree__node.html#a43af700a477983aa4965d028008eeb3f" target="_top" xlink:title=" ">
<polygon fill="white" stroke="black" points="396,-665.5 396,-684.5 531,-684.5 531,-665.5 396,-665.5"/>
<text text-anchor="middle" x="463.5" y="-672.5" font-family="Helvetica,sans-Serif" font-size="10.00">idg_tree_node\add_child</text>
</a>
</g>
</g>
<!-- Node1&#45;&gt;Node8 -->
<g id="edge7" class="edge">
<title>Node1&#45;&gt;Node8</title>
<path fill="none" stroke="midnightblue" d="M589.51,-481.75C589.39,-520.76 583.35,-608.05 535,-656 531.13,-659.84 526.57,-662.92 521.66,-665.4"/>
<polygon fill="midnightblue" stroke="midnightblue" points="593.01,-481.66 589.41,-471.7 586.01,-481.73 593.01,-481.66"/>
</g>
<!-- Node9 -->
<g id="node9" class="node">
<title>Node9</title>
<g id="a_node9"><a xlink:href="classidg__attribute.html#a28c5f49e21bfda8c1bb19be99cd1a6cf" target="_top" xlink:title="Causes the attribute to inherit all instances in and above a given tree node.">
<polygon fill="white" stroke="black" points="393,-627.5 393,-646.5 534,-646.5 534,-627.5 393,-627.5"/>
<text text-anchor="middle" x="463.5" y="-634.5" font-family="Helvetica,sans-Serif" font-size="10.00">idg_attribute\add_options</text>
</a>
</g>
</g>
<!-- Node1&#45;&gt;Node9 -->
<g id="edge8" class="edge">
<title>Node1&#45;&gt;Node9</title>
<path fill="none" stroke="midnightblue" d="M587.89,-481.95C584.94,-515.09 574.19,-581.46 535,-618 530.83,-621.89 525.94,-625 520.73,-627.48"/>
<polygon fill="midnightblue" stroke="midnightblue" points="591.4,-481.94 588.64,-471.71 584.42,-481.43 591.4,-481.94"/>
</g>
<!-- Node10 -->
<g id="node10" class="node">
<title>Node10</title>
<g id="a_node10"><a xlink:href="classidg__tree__node.html#af541fc16dbea92119b78d6a3ee4d4248" target="_top" xlink:title=" ">
<polygon fill="white" stroke="black" points="404,-578 404,-608 523,-608 523,-578 404,-578"/>
<text text-anchor="start" x="412" y="-596" font-family="Helvetica,sans-Serif" font-size="10.00">idg_tree_node\create</text>
<text text-anchor="middle" x="463.5" y="-585" font-family="Helvetica,sans-Serif" font-size="10.00">_attribute</text>
</a>
</g>
</g>
<!-- Node1&#45;&gt;Node10 -->
<g id="edge9" class="edge">
<title>Node1&#45;&gt;Node10</title>
<path fill="none" stroke="midnightblue" d="M584.17,-481.18C577.2,-505.02 562.1,-545.44 535,-569 531.1,-572.39 526.69,-575.31 522.04,-577.82"/>
<polygon fill="midnightblue" stroke="midnightblue" points="587.55,-482.08 586.81,-471.51 580.8,-480.23 587.55,-482.08"/>
</g>
<!-- Node11 -->
<g id="node11" class="node">
<title>Node11</title>
<g id="a_node11"><a xlink:href="classidg__renderer__declaration.html#a57b09006d42f1959d7ac91ca327de3d7" target="_top" xlink:title=" ">
<polygon fill="white" stroke="black" points="394.5,-529 394.5,-559 532.5,-559 532.5,-529 394.5,-529"/>
<text text-anchor="start" x="402.5" y="-547" font-family="Helvetica,sans-Serif" font-size="10.00">idg_renderer_declaration</text>
<text text-anchor="middle" x="463.5" y="-536" font-family="Helvetica,sans-Serif" font-size="10.00">\create_instance</text>
</a>
</g>
</g>
<!-- Node1&#45;&gt;Node11 -->
<g id="edge10" class="edge">
<title>Node1&#45;&gt;Node11</title>
<path fill="none" stroke="midnightblue" d="M575.64,-480.09C565.65,-492.52 551,-508.59 535,-519 529.23,-522.75 522.83,-526.02 516.3,-528.85"/>
<polygon fill="midnightblue" stroke="midnightblue" points="578.69,-481.87 582.05,-471.82 573.16,-477.58 578.69,-481.87"/>
</g>
<!-- Node12 -->
<g id="node12" class="node">
<title>Node12</title>
<g id="a_node12"><a xlink:href="classidg__document.html#a4afd3976093de18e8f339c3dee48bed4" target="_top" xlink:title=" ">
<polygon fill="white" stroke="black" points="192,-380.5 192,-399.5 356,-399.5 356,-380.5 192,-380.5"/>
<text text-anchor="middle" x="274" y="-387.5" font-family="Helvetica,sans-Serif" font-size="10.00">idg_document\get_datasource</text>
</a>
</g>
</g>
<!-- Node1&#45;&gt;Node12 -->
<g id="edge11" class="edge">
<title>Node1&#45;&gt;Node12</title>
<path fill="none" stroke="midnightblue" d="M577.38,-443.74C567.79,-430.42 552.88,-413.31 535,-405 475.24,-377.23 399.25,-376.22 344.88,-380.5"/>
<polygon fill="midnightblue" stroke="midnightblue" points="574.62,-445.9 583.14,-452.2 580.41,-441.96 574.62,-445.9"/>
</g>
<!-- Node13 -->
<g id="node13" class="node">
<title>Node13</title>
<g id="a_node13"><a xlink:href="classidg__document.html#a0e01326ce378e5cf31d9c6fb11097b31" target="_top" xlink:title=" ">
<polygon fill="white" stroke="black" points="0,-415.5 0,-434.5 156,-434.5 156,-415.5 0,-415.5"/>
<text text-anchor="middle" x="78" y="-422.5" font-family="Helvetica,sans-Serif" font-size="10.00">idg_document\get_renderers</text>
</a>
</g>
</g>
<!-- Node1&#45;&gt;Node13 -->
<g id="edge17" class="edge">
<title>Node1&#45;&gt;Node13</title>
<path fill="none" stroke="midnightblue" d="M560.58,-459.94C484.09,-454.39 271.89,-438.99 156.36,-430.61"/>
<polygon fill="midnightblue" stroke="midnightblue" points="560.62,-463.45 570.85,-460.68 561.13,-456.47 560.62,-463.45"/>
</g>
<!-- Node14 -->
<g id="node14" class="node">
<title>Node14</title>
<g id="a_node14"><a xlink:href="classidg__site.html#a453c0ebf27c6a8369b64690bf3afdfbf" target="_top" xlink:title=" ">
<polygon fill="white" stroke="black" points="397,-414.5 397,-433.5 530,-433.5 530,-414.5 397,-414.5"/>
<text text-anchor="middle" x="463.5" y="-421.5" font-family="Helvetica,sans-Serif" font-size="10.00">idg_site\get_datasource</text>
</a>
</g>
</g>
<!-- Node1&#45;&gt;Node14 -->
<g id="edge13" class="edge">
<title>Node1&#45;&gt;Node14</title>
<path fill="none" stroke="midnightblue" d="M561.12,-453.49C541.69,-447.56 515.75,-439.64 495.64,-433.51"/>
<polygon fill="midnightblue" stroke="midnightblue" points="560.31,-456.9 570.9,-456.47 562.35,-450.21 560.31,-456.9"/>
</g>
<!-- Node15 -->
<g id="node15" class="node">
<title>Node15</title>
<g id="a_node15"><a xlink:href="classidg__object.html#ac41f30824083065ee9430a74f7301116" target="_top" xlink:title=" ">
<polygon fill="white" stroke="black" points="397.5,-490.5 397.5,-509.5 529.5,-509.5 529.5,-490.5 397.5,-490.5"/>
<text text-anchor="middle" x="463.5" y="-497.5" font-family="Helvetica,sans-Serif" font-size="10.00">idg_object\get_instance</text>
</a>
</g>
</g>
<!-- Node1&#45;&gt;Node15 -->
<g id="edge14" class="edge">
<title>Node1&#45;&gt;Node15</title>
<path fill="none" stroke="midnightblue" d="M561.12,-470.51C541.69,-476.44 515.75,-484.36 495.64,-490.49"/>
<polygon fill="midnightblue" stroke="midnightblue" points="562.35,-473.79 570.9,-467.53 560.31,-467.1 562.35,-473.79"/>
</g>
<!-- Node17 -->
<g id="node17" class="node">
<title>Node17</title>
<g id="a_node17"><a xlink:href="classidg__site__element.html#a06514b8d84f5ba62cf4e821884752c65" target="_top" xlink:title=" ">
<polygon fill="white" stroke="black" points="392,-338.5 392,-357.5 535,-357.5 535,-338.5 392,-338.5"/>
<text text-anchor="middle" x="463.5" y="-345.5" font-family="Helvetica,sans-Serif" font-size="10.00">idg_site_element\get_site</text>
</a>
</g>
</g>
<!-- Node1&#45;&gt;Node17 -->
<g id="edge18" class="edge">
<title>Node1&#45;&gt;Node17</title>
<path fill="none" stroke="midnightblue" d="M582.15,-442.89C573.94,-422.57 558.3,-390.81 535,-372 527.25,-365.75 517.79,-361.08 508.34,-357.62"/>
<polygon fill="midnightblue" stroke="midnightblue" points="578.93,-444.26 585.77,-452.34 585.47,-441.75 578.93,-444.26"/>
</g>
<!-- Node19 -->
<g id="node19" class="node">
<title>Node19</title>
<g id="a_node19"><a xlink:href="classidg__tree__node.html#a08f3b15d2826b836def2d2779884f1d0" target="_top" xlink:title=" ">
<polygon fill="white" stroke="black" points="396.5,-300.5 396.5,-319.5 530.5,-319.5 530.5,-300.5 396.5,-300.5"/>
<text text-anchor="middle" x="463.5" y="-307.5" font-family="Helvetica,sans-Serif" font-size="10.00">idg_tree_node\read_xml</text>
</a>
</g>
</g>
<!-- Node1&#45;&gt;Node19 -->
<g id="edge21" class="edge">
<title>Node1&#45;&gt;Node19</title>
<path fill="none" stroke="midnightblue" d="M586.51,-442.13C581.79,-412.98 568.78,-358.88 535,-329 530.63,-325.14 525.56,-322.05 520.17,-319.58"/>
<polygon fill="midnightblue" stroke="midnightblue" points="583.08,-442.9 587.98,-452.3 590.01,-441.9 583.08,-442.9"/>
</g>
<!-- Node20 -->
<g id="node20" class="node">
<title>Node20</title>
<g id="a_node20"><a xlink:href="classidg__view__html__template__fixedbar.html#ae11735ae595b782f5d47e80e38834f05" target="_top" xlink:title=" ">
<polygon fill="white" stroke="black" points="395,-251 395,-281 532,-281 532,-251 395,-251"/>
<text text-anchor="start" x="403" y="-269" font-family="Helvetica,sans-Serif" font-size="10.00">idg_view_html_template</text>
<text text-anchor="middle" x="463.5" y="-258" font-family="Helvetica,sans-Serif" font-size="10.00">_fixedbar\render</text>
</a>
</g>
</g>
<!-- Node1&#45;&gt;Node20 -->
<g id="edge22" class="edge">
<title>Node1&#45;&gt;Node20</title>
<path fill="none" stroke="midnightblue" d="M588.26,-442.01C585.89,-406.8 576,-333.45 535,-291 531.3,-287.17 526.98,-283.93 522.33,-281.18"/>
<polygon fill="midnightblue" stroke="midnightblue" points="584.79,-442.59 588.81,-452.39 591.78,-442.22 584.79,-442.59"/>
</g>
<!-- Node21 -->
<g id="node21" class="node">
<title>Node21</title>
<g id="a_node21"><a xlink:href="classidg__view__html__template__fixedcontent.html#aab13a71ed141068eb4a7c6f8d7c0bc18" target="_top" xlink:title=" ">
<polygon fill="white" stroke="black" points="395,-202 395,-232 532,-232 532,-202 395,-202"/>
<text text-anchor="start" x="403" y="-220" font-family="Helvetica,sans-Serif" font-size="10.00">idg_view_html_template</text>
<text text-anchor="middle" x="463.5" y="-209" font-family="Helvetica,sans-Serif" font-size="10.00">_fixedcontent\render</text>
</a>
</g>
</g>
<!-- Node1&#45;&gt;Node21 -->
<g id="edge23" class="edge">
<title>Node1&#45;&gt;Node21</title>
<path fill="none" stroke="midnightblue" d="M586.56,-442.23C580.25,-393.95 561.93,-271.77 535,-242 531.52,-238.15 527.4,-234.89 522.93,-232.13"/>
<polygon fill="midnightblue" stroke="midnightblue" points="583.12,-442.86 587.85,-452.34 590.06,-441.97 583.12,-442.86"/>
</g>
<!-- Node22 -->
<g id="node22" class="node">
<title>Node22</title>
<g id="a_node22"><a xlink:href="classidg__object__type.html#a346c53688eedf770263fc4e85e4cf52e" target="_top" xlink:title=" ">
<polygon fill="white" stroke="black" points="407.5,-153 407.5,-183 519.5,-183 519.5,-153 407.5,-153"/>
<text text-anchor="start" x="415.5" y="-171" font-family="Helvetica,sans-Serif" font-size="10.00">idg_object_type\set</text>
<text text-anchor="middle" x="463.5" y="-160" font-family="Helvetica,sans-Serif" font-size="10.00">_mandatory</text>
</a>
</g>
</g>
<!-- Node1&#45;&gt;Node22 -->
<g id="edge24" class="edge">
<title>Node1&#45;&gt;Node22</title>
<path fill="none" stroke="midnightblue" d="M587.51,-442.03C582.98,-386.29 567.62,-230.64 535,-193 530.75,-188.09 525.47,-184.15 519.72,-180.98"/>
<polygon fill="midnightblue" stroke="midnightblue" points="584.05,-442.63 588.32,-452.33 591.03,-442.09 584.05,-442.63"/>
</g>
<!-- Node30 -->
<g id="node30" class="node">
<title>Node30</title>
<g id="a_node30"><a xlink:href="classidg__object.html#a3c88c9eb5649e9da2d51bb10cefc9b25" target="_top" xlink:title=" ">
<polygon fill="white" stroke="black" points="393.5,-114.5 393.5,-133.5 533.5,-133.5 533.5,-114.5 393.5,-114.5"/>
<text text-anchor="middle" x="463.5" y="-121.5" font-family="Helvetica,sans-Serif" font-size="10.00">idg_object\set_properties</text>
</a>
</g>
</g>
<!-- Node1&#45;&gt;Node30 -->
<g id="edge32" class="edge">
<title>Node1&#45;&gt;Node30</title>
<path fill="none" stroke="midnightblue" d="M588.32,-442.06C585.79,-379.47 574.87,-188.44 535,-144 531.09,-139.64 526.31,-136.21 521.1,-133.5"/>
<polygon fill="midnightblue" stroke="midnightblue" points="584.83,-442.32 588.7,-452.19 591.82,-442.06 584.83,-442.32"/>
</g>
<!-- Node31 -->
<g id="node31" class="node">
<title>Node31</title>
<g id="a_node31"><a xlink:href="classidg__object.html#a45eb1a38df86f20d563bc48f4956380c" target="_top" xlink:title=" ">
<polygon fill="white" stroke="black" points="398,-76.5 398,-95.5 529,-95.5 529,-76.5 398,-76.5"/>
<text text-anchor="middle" x="463.5" y="-83.5" font-family="Helvetica,sans-Serif" font-size="10.00">idg_object\set_property</text>
</a>
</g>
</g>
<!-- Node1&#45;&gt;Node31 -->
<g id="edge33" class="edge">
<title>Node1&#45;&gt;Node31</title>
<path fill="none" stroke="midnightblue" d="M588.76,-442.28C587.53,-374.94 580.09,-155.5 535,-105 531.62,-101.22 527.58,-98.15 523.16,-95.68"/>
<polygon fill="midnightblue" stroke="midnightblue" points="585.26,-442.43 588.92,-452.38 592.26,-442.32 585.26,-442.43"/>
</g>
<!-- Node32 -->
<g id="node32" class="node">
<title>Node32</title>
<g id="a_node32"><a xlink:href="classidg__view.html#a1ddb1fb570a49b50e820ad45f8e5ee2f" target="_top" xlink:title=" ">
<polygon fill="white" stroke="black" points="394,-38.5 394,-57.5 533,-57.5 533,-38.5 394,-38.5"/>
<text text-anchor="middle" x="463.5" y="-45.5" font-family="Helvetica,sans-Serif" font-size="10.00">idg_view\stream_append</text>
</a>
</g>
</g>
<!-- Node1&#45;&gt;Node32 -->
<g id="edge34" class="edge">
<title>Node1&#45;&gt;Node32</title>
<path fill="none" stroke="midnightblue" d="M589.08,-442.09C588.95,-369.96 584.81,-123.6 535,-67 531.65,-63.19 527.63,-60.11 523.22,-57.62"/>
<polygon fill="midnightblue" stroke="midnightblue" points="585.58,-442.45 589.07,-452.45 592.58,-442.46 585.58,-442.45"/>
</g>
<!-- Node33 -->
<g id="node33" class="node">
<title>Node33</title>
<g id="a_node33"><a xlink:href="classidg__tree__node.html#af9f29c902c07cf504d904fc1a84a1bd7" target="_top" xlink:title=" ">
<polygon fill="white" stroke="black" points="395,-0.5 395,-19.5 532,-19.5 532,-0.5 395,-0.5"/>
<text text-anchor="middle" x="463.5" y="-7.5" font-family="Helvetica,sans-Serif" font-size="10.00">idg_tree_node\write_xml</text>
</a>
</g>
</g>
<!-- Node1&#45;&gt;Node33 -->
<g id="edge35" class="edge">
<title>Node1&#45;&gt;Node33</title>
<path fill="none" stroke="midnightblue" d="M589.34,-442.16C590.26,-365.77 589.62,-91.8 535,-29 531.67,-25.17 527.66,-22.08 523.27,-19.58"/>
<polygon fill="midnightblue" stroke="midnightblue" points="585.84,-442.26 589.2,-452.31 592.84,-442.36 585.84,-442.26"/>
</g>
<!-- Node12&#45;&gt;Node13 -->
<g id="edge12" class="edge">
<title>Node12&#45;&gt;Node13</title>
<path fill="none" stroke="midnightblue" d="M210.35,-401.3C184.98,-405.88 156.01,-411.11 131.74,-415.48"/>
<polygon fill="midnightblue" stroke="midnightblue" points="211.03,-404.74 220.24,-399.52 209.78,-397.85 211.03,-404.74"/>
</g>
<!-- Node15&#45;&gt;Node7 -->
<g id="edge16" class="edge">
<title>Node15&#45;&gt;Node7</title>
<path fill="none" stroke="midnightblue" d="M406.95,-512.88C401.75,-514.93 396.68,-517.29 392,-520 346.58,-546.27 305.71,-594.11 286.53,-618.62"/>
<polygon fill="midnightblue" stroke="midnightblue" points="408.16,-516.17 416.4,-509.51 405.8,-509.57 408.16,-516.17"/>
</g>
<!-- Node16 -->
<g id="node16" class="node">
<title>Node16</title>
<g id="a_node16"><a xlink:href="classidg__view__html__element.html#a7cae4f263e28692e70e554d47ea3f412" target="_top" xlink:title=" ">
<polygon fill="white" stroke="black" points="207,-491 207,-521 341,-521 341,-491 207,-491"/>
<text text-anchor="start" x="215" y="-509" font-family="Helvetica,sans-Serif" font-size="10.00">idg_view_html_element</text>
<text text-anchor="middle" x="274" y="-498" font-family="Helvetica,sans-Serif" font-size="10.00">\_render</text>
</a>
</g>
</g>
<!-- Node15&#45;&gt;Node16 -->
<g id="edge15" class="edge">
<title>Node15&#45;&gt;Node16</title>
<path fill="none" stroke="midnightblue" d="M387.07,-502.41C371.89,-502.9 356.04,-503.41 341.21,-503.88"/>
<polygon fill="midnightblue" stroke="midnightblue" points="387.56,-505.9 397.45,-502.08 387.34,-498.9 387.56,-505.9"/>
</g>
<!-- Node17&#45;&gt;Node12 -->
<g id="edge19" class="edge">
<title>Node17&#45;&gt;Node12</title>
<path fill="none" stroke="midnightblue" d="M409.95,-359.77C380.83,-366.29 345.09,-374.3 317.7,-380.43"/>
<polygon fill="midnightblue" stroke="midnightblue" points="410.96,-363.13 419.95,-357.53 409.43,-356.3 410.96,-363.13"/>
</g>
<!-- Node18 -->
<g id="node18" class="node">
<title>Node18</title>
<g id="a_node18"><a xlink:href="classidg__document.html#a1089da576de6bef7874e9a5fde9cb395" target="_top" xlink:title=" ">
<polygon fill="white" stroke="black" points="202,-331 202,-361 346,-361 346,-331 202,-331"/>
<text text-anchor="start" x="210" y="-349" font-family="Helvetica,sans-Serif" font-size="10.00">idg_document\get_default</text>
<text text-anchor="middle" x="274" y="-338" font-family="Helvetica,sans-Serif" font-size="10.00">_title</text>
</a>
</g>
</g>
<!-- Node17&#45;&gt;Node18 -->
<g id="edge20" class="edge">
<title>Node17&#45;&gt;Node18</title>
<path fill="none" stroke="midnightblue" d="M381.61,-347.14C369.82,-347.01 357.76,-346.88 346.18,-346.76"/>
<polygon fill="midnightblue" stroke="midnightblue" points="381.84,-350.64 391.88,-347.25 381.92,-343.64 381.84,-350.64"/>
</g>
<!-- Node23 -->
<g id="node23" class="node">
<title>Node23</title>
<g id="a_node23"><a xlink:href="classidg__datasource__declaration__type.html#acf427d15d9f350ace6516710d724302a" target="_top" xlink:title=" ">
<polygon fill="white" stroke="black" points="198.5,-55 198.5,-85 349.5,-85 349.5,-55 198.5,-55"/>
<text text-anchor="start" x="206.5" y="-73" font-family="Helvetica,sans-Serif" font-size="10.00">idg_datasource_declaration</text>
<text text-anchor="middle" x="274" y="-62" font-family="Helvetica,sans-Serif" font-size="10.00">_type\__construct</text>
</a>
</g>
</g>
<!-- Node22&#45;&gt;Node23 -->
<g id="edge25" class="edge">
<title>Node22&#45;&gt;Node23</title>
<path fill="none" stroke="midnightblue" d="M399.82,-148.14C397.1,-146.55 394.47,-144.84 392,-143 370.31,-126.88 378.11,-109.54 356,-94 351.08,-90.54 345.66,-87.58 340.02,-85.03"/>
<polygon fill="midnightblue" stroke="midnightblue" points="398.3,-151.3 408.78,-152.84 401.55,-145.1 398.3,-151.3"/>
</g>
<!-- Node24 -->
<g id="node24" class="node">
<title>Node24</title>
<g id="a_node24"><a xlink:href="classidg__renderer__declaration__type.html#af92105f008f328ef15ea2cb36fe45cda" target="_top" xlink:title=" ">
<polygon fill="white" stroke="black" points="205,-6 205,-36 343,-36 343,-6 205,-6"/>
<text text-anchor="start" x="213" y="-24" font-family="Helvetica,sans-Serif" font-size="10.00">idg_renderer_declaration</text>
<text text-anchor="middle" x="274" y="-13" font-family="Helvetica,sans-Serif" font-size="10.00">_type\__construct</text>
</a>
</g>
</g>
<!-- Node22&#45;&gt;Node24 -->
<g id="edge26" class="edge">
<title>Node22&#45;&gt;Node24</title>
<path fill="none" stroke="midnightblue" d="M398.72,-148.67C396.33,-146.94 394.08,-145.05 392,-143 359,-110.37 389.84,-76.74 356,-45 352.15,-41.39 347.78,-38.32 343.11,-35.71"/>
<polygon fill="midnightblue" stroke="midnightblue" points="396.94,-151.69 407.28,-153.99 400.63,-145.74 396.94,-151.69"/>
</g>
<!-- Node25 -->
<g id="node25" class="node">
<title>Node25</title>
<g id="a_node25"><a xlink:href="classidg__site__element__type.html#a192a58686c7022f327f205ac88857434" target="_top" xlink:title=" ">
<polygon fill="white" stroke="black" points="210,-279 210,-309 338,-309 338,-279 210,-279"/>
<text text-anchor="start" x="218" y="-297" font-family="Helvetica,sans-Serif" font-size="10.00">idg_site_element_type</text>
<text text-anchor="middle" x="274" y="-286" font-family="Helvetica,sans-Serif" font-size="10.00">\__construct</text>
</a>
</g>
</g>
<!-- Node22&#45;&gt;Node25 -->
<g id="edge27" class="edge">
<title>Node22&#45;&gt;Node25</title>
<path fill="none" stroke="midnightblue" d="M398.32,-188C396.1,-189.55 393.98,-191.21 392,-193 364.26,-218.05 384.25,-244.53 356,-269 350.77,-273.53 344.73,-277.24 338.36,-280.27"/>
<polygon fill="midnightblue" stroke="midnightblue" points="400.54,-190.75 407.31,-182.6 396.94,-184.75 400.54,-190.75"/>
</g>
<!-- Node26 -->
<g id="node26" class="node">
<title>Node26</title>
<g id="a_node26"><a xlink:href="classidg__site__type.html#a7db9f166a582cacf48db2208262763bd" target="_top" xlink:title=" ">
<polygon fill="white" stroke="black" points="204,-240.5 204,-259.5 344,-259.5 344,-240.5 204,-240.5"/>
<text text-anchor="middle" x="274" y="-247.5" font-family="Helvetica,sans-Serif" font-size="10.00">idg_site_type\__construct</text>
</a>
</g>
</g>
<!-- Node22&#45;&gt;Node26 -->
<g id="edge28" class="edge">
<title>Node22&#45;&gt;Node26</title>
<path fill="none" stroke="midnightblue" d="M401.66,-187.42C398.31,-189.15 395.07,-191.01 392,-193 372.5,-205.68 376.17,-219.41 356,-231 349.24,-234.89 341.72,-237.98 334.08,-240.44"/>
<polygon fill="midnightblue" stroke="midnightblue" points="403.15,-190.59 410.7,-183.15 400.16,-184.26 403.15,-190.59"/>
</g>
<!-- Node27 -->
<g id="node27" class="node">
<title>Node27</title>
<g id="a_node27"><a xlink:href="classidg__folder__type.html#a96eb19c506d068c46d54918c04200004" target="_top" xlink:title=" ">
<polygon fill="white" stroke="black" points="198.5,-202.5 198.5,-221.5 349.5,-221.5 349.5,-202.5 198.5,-202.5"/>
<text text-anchor="middle" x="274" y="-209.5" font-family="Helvetica,sans-Serif" font-size="10.00">idg_folder_type\__construct</text>
</a>
</g>
</g>
<!-- Node22&#45;&gt;Node27 -->
<g id="edge29" class="edge">
<title>Node22&#45;&gt;Node27</title>
<path fill="none" stroke="midnightblue" d="M397.63,-183.23C383.89,-186.46 369.47,-189.84 356,-193 342.92,-196.07 328.66,-199.42 315.79,-202.43"/>
<polygon fill="midnightblue" stroke="midnightblue" points="398.56,-186.61 407.5,-180.91 396.96,-179.79 398.56,-186.61"/>
</g>
<!-- Node28 -->
<g id="node28" class="node">
<title>Node28</title>
<g id="a_node28"><a xlink:href="classidg__document__type.html#a2deb298a0207d67de704821466270487" target="_top" xlink:title=" ">
<polygon fill="white" stroke="black" points="216,-153 216,-183 332,-183 332,-153 216,-153"/>
<text text-anchor="start" x="224" y="-171" font-family="Helvetica,sans-Serif" font-size="10.00">idg_document_type\</text>
<text text-anchor="middle" x="274" y="-160" font-family="Helvetica,sans-Serif" font-size="10.00">__construct</text>
</a>
</g>
</g>
<!-- Node22&#45;&gt;Node28 -->
<g id="edge30" class="edge">
<title>Node22&#45;&gt;Node28</title>
<path fill="none" stroke="midnightblue" d="M397.06,-168C375.91,-168 352.63,-168 332.12,-168"/>
<polygon fill="midnightblue" stroke="midnightblue" points="397.26,-171.5 407.26,-168 397.26,-164.5 397.26,-171.5"/>
</g>
<!-- Node29 -->
<g id="node29" class="node">
<title>Node29</title>
<g id="a_node29"><a xlink:href="classidg__view__html__slot__type.html#ab2de0cfdabf53c6d204c02002750c238" target="_top" xlink:title=" ">
<polygon fill="white" stroke="black" points="218.5,-104 218.5,-134 329.5,-134 329.5,-104 218.5,-104"/>
<text text-anchor="start" x="226.5" y="-122" font-family="Helvetica,sans-Serif" font-size="10.00">idg_view_html_slot</text>
<text text-anchor="middle" x="274" y="-111" font-family="Helvetica,sans-Serif" font-size="10.00">_type\__construct</text>
</a>
</g>
</g>
<!-- Node22&#45;&gt;Node29 -->
<g id="edge31" class="edge">
<title>Node22&#45;&gt;Node29</title>
<path fill="none" stroke="midnightblue" d="M397.58,-151.03C375.39,-145.24 350.81,-138.81 329.52,-133.25"/>
<polygon fill="midnightblue" stroke="midnightblue" points="396.7,-154.42 407.26,-153.56 398.47,-147.65 396.7,-154.42"/>
</g>
</g>
</svg>
