<?xml version="1.0" encoding="UTF-8" standalone="no"?>
<!DOCTYPE svg PUBLIC "-//W3C//DTD SVG 1.1//EN"
 "http://www.w3.org/Graphics/SVG/1.1/DTD/svg11.dtd">
<!-- Generated by graphviz version 2.43.0 (0)
 -->
<!-- Title: idg_diag Pages: 1 -->
<svg width="256pt" height="465pt"
 viewBox="0.00 0.00 256.00 464.50" xmlns="http://www.w3.org/2000/svg" xmlns:xlink="http://www.w3.org/1999/xlink">
<g id="graph0" class="graph" transform="scale(1 1) rotate(0) translate(4 460.5)">
<title>idg_diag</title>
<polygon fill="white" stroke="transparent" points="-4,4 -4,-460.5 252,-460.5 252,4 -4,4"/>
<!-- Node1 -->
<g id="node1" class="node">
<title>Node1</title>
<g id="a_node1"><a xlink:title="Prints as much information as possible and then terminates execution calling die().">
<polygon fill="#bfbfbf" stroke="black" points="190,-196.5 190,-215.5 248,-215.5 248,-196.5 190,-196.5"/>
<text text-anchor="middle" x="219" y="-203.5" font-family="Helvetica,sans-Serif" font-size="10.00">idg_diag</text>
</a>
</g>
</g>
<!-- Node2 -->
<g id="node2" class="node">
<title>Node2</title>
<g id="a_node2"><a xlink:href="classIndigo_1_1Module_1_1Sourcefile_1_1datasource.html#ab9169bfa5e5bb1c8d4326dbef4a231c4" target="_top" xlink:title=" ">
<polygon fill="white" stroke="black" points="8.5,-426 8.5,-456 145.5,-456 145.5,-426 8.5,-426"/>
<text text-anchor="start" x="16.5" y="-444" font-family="Helvetica,sans-Serif" font-size="10.00">Indigo\Module\Sourcefile</text>
<text text-anchor="middle" x="77" y="-433" font-family="Helvetica,sans-Serif" font-size="10.00">\datasource\__construct</text>
</a>
</g>
</g>
<!-- Node1&#45;&gt;Node2 -->
<g id="edge1" class="edge">
<title>Node1&#45;&gt;Node2</title>
<path fill="none" stroke="midnightblue" d="M217.72,-226.07C216.05,-267.36 206.38,-362.46 154,-416 150.21,-419.87 145.81,-423.15 141.08,-425.91"/>
<polygon fill="midnightblue" stroke="midnightblue" points="221.23,-226.02 218.01,-215.93 214.23,-225.82 221.23,-226.02"/>
</g>
<!-- Node3 -->
<g id="node3" class="node">
<title>Node3</title>
<g id="a_node3"><a xlink:href="classidg__object.html#a1de5be36dd2da746ba5e79561f46f55e" target="_top" xlink:title=" ">
<polygon fill="white" stroke="black" points="14.5,-387.5 14.5,-406.5 139.5,-406.5 139.5,-387.5 14.5,-387.5"/>
<text text-anchor="middle" x="77" y="-394.5" font-family="Helvetica,sans-Serif" font-size="10.00">idg_object\__construct</text>
</a>
</g>
</g>
<!-- Node1&#45;&gt;Node3 -->
<g id="edge2" class="edge">
<title>Node1&#45;&gt;Node3</title>
<path fill="none" stroke="midnightblue" d="M216.51,-225.62C212.7,-261.42 199.43,-337.36 154,-378 149.74,-381.81 144.84,-384.88 139.61,-387.35"/>
<polygon fill="midnightblue" stroke="midnightblue" points="220.01,-225.78 217.44,-215.51 213.04,-225.14 220.01,-225.78"/>
</g>
<!-- Node4 -->
<g id="node4" class="node">
<title>Node4</title>
<g id="a_node4"><a xlink:href="classIndigo_1_1Datasource_1_1php.html#a0488e18140adaa6027d467ef5d7dcc71" target="_top" xlink:title=" ">
<polygon fill="white" stroke="black" points="14,-338 14,-368 140,-368 140,-338 14,-338"/>
<text text-anchor="start" x="22" y="-356" font-family="Helvetica,sans-Serif" font-size="10.00">Indigo\Datasource\php</text>
<text text-anchor="middle" x="77" y="-345" font-family="Helvetica,sans-Serif" font-size="10.00">\__construct</text>
</a>
</g>
</g>
<!-- Node1&#45;&gt;Node4 -->
<g id="edge3" class="edge">
<title>Node1&#45;&gt;Node4</title>
<path fill="none" stroke="midnightblue" d="M212.99,-225.43C205.02,-252.52 186.89,-301.38 154,-329 149.87,-332.47 145.23,-335.44 140.34,-337.98"/>
<polygon fill="midnightblue" stroke="midnightblue" points="216.42,-226.16 215.72,-215.59 209.68,-224.29 216.42,-226.16"/>
</g>
<!-- Node5 -->
<g id="node5" class="node">
<title>Node5</title>
<g id="a_node5"><a xlink:href="classIndigo_1_1Datasource_1_1scanlinks.html#a0b175571586483f1ec5c1804fcfa8105" target="_top" xlink:title=" ">
<polygon fill="white" stroke="black" points="0,-289 0,-319 154,-319 154,-289 0,-289"/>
<text text-anchor="start" x="8" y="-307" font-family="Helvetica,sans-Serif" font-size="10.00">Indigo\Datasource\scanlinks</text>
<text text-anchor="middle" x="77" y="-296" font-family="Helvetica,sans-Serif" font-size="10.00">\__construct</text>
</a>
</g>
</g>
<!-- Node1&#45;&gt;Node5 -->
<g id="edge4" class="edge">
<title>Node1&#45;&gt;Node5</title>
<path fill="none" stroke="midnightblue" d="M206.67,-224.09C195.29,-240.85 176.27,-265.35 154,-280 148.8,-283.42 143.08,-286.38 137.18,-288.94"/>
<polygon fill="midnightblue" stroke="midnightblue" points="209.63,-225.96 212.18,-215.68 203.77,-222.12 209.63,-225.96"/>
</g>
<!-- Node6 -->
<g id="node6" class="node">
<title>Node6</title>
<g id="a_node6"><a xlink:href="classIndigo_1_1Datasource_1_1textfile.html#a650a4e3a582d22822ee99f7de5c6c358" target="_top" xlink:title=" ">
<polygon fill="white" stroke="black" points="5.5,-240 5.5,-270 148.5,-270 148.5,-240 5.5,-240"/>
<text text-anchor="start" x="13.5" y="-258" font-family="Helvetica,sans-Serif" font-size="10.00">Indigo\Datasource\textfile</text>
<text text-anchor="middle" x="77" y="-247" font-family="Helvetica,sans-Serif" font-size="10.00">\__construct</text>
</a>
</g>
</g>
<!-- Node1&#45;&gt;Node6 -->
<g id="edge5" class="edge">
<title>Node1&#45;&gt;Node6</title>
<path fill="none" stroke="midnightblue" d="M185.19,-219.3C175.22,-223.21 164.21,-227.4 154,-231 145.39,-234.04 136.16,-237.1 127.22,-239.98"/>
<polygon fill="midnightblue" stroke="midnightblue" points="186.73,-222.46 194.73,-215.52 184.15,-215.95 186.73,-222.46"/>
</g>
<!-- Node7 -->
<g id="node7" class="node">
<title>Node7</title>
<g id="a_node7"><a xlink:href="classIndigo_1_1Datasource_1_1rss.html#ad21a26a3d6304325903cb61aa2f9b154" target="_top" xlink:title=" ">
<polygon fill="white" stroke="black" points="16,-191 16,-221 138,-221 138,-191 16,-191"/>
<text text-anchor="start" x="24" y="-209" font-family="Helvetica,sans-Serif" font-size="10.00">Indigo\Datasource\rss</text>
<text text-anchor="middle" x="77" y="-198" font-family="Helvetica,sans-Serif" font-size="10.00">\__construct</text>
</a>
</g>
</g>
<!-- Node1&#45;&gt;Node7 -->
<g id="edge6" class="edge">
<title>Node1&#45;&gt;Node7</title>
<path fill="none" stroke="midnightblue" d="M179.4,-206C166.62,-206 152.09,-206 138.09,-206"/>
<polygon fill="midnightblue" stroke="midnightblue" points="179.67,-209.5 189.67,-206 179.67,-202.5 179.67,-209.5"/>
</g>
<!-- Node8 -->
<g id="node8" class="node">
<title>Node8</title>
<g id="a_node8"><a xlink:href="classidg__object.html#a435f7d43bd2b82d47e4a2b84a7fb4b68" target="_top" xlink:title="Performs a basic consistency check.">
<polygon fill="white" stroke="black" points="25,-152.5 25,-171.5 129,-171.5 129,-152.5 25,-152.5"/>
<text text-anchor="middle" x="77" y="-159.5" font-family="Helvetica,sans-Serif" font-size="10.00">idg_object\_check</text>
</a>
</g>
</g>
<!-- Node1&#45;&gt;Node8 -->
<g id="edge7" class="edge">
<title>Node1&#45;&gt;Node8</title>
<path fill="none" stroke="midnightblue" d="M184.76,-192.8C174.93,-189.1 164.09,-185.21 154,-182 142.17,-178.24 129.15,-174.62 117.27,-171.52"/>
<polygon fill="midnightblue" stroke="midnightblue" points="183.6,-196.11 194.19,-196.42 186.1,-189.57 183.6,-196.11"/>
</g>
<!-- Node9 -->
<g id="node9" class="node">
<title>Node9</title>
<g id="a_node9"><a xlink:href="classidg__treenode.html#a617cb2062aee5fdcd2b093ccaa47672e" target="_top" xlink:title="Adds a child to the node.">
<polygon fill="white" stroke="black" points="12,-114.5 12,-133.5 142,-133.5 142,-114.5 12,-114.5"/>
<text text-anchor="middle" x="77" y="-121.5" font-family="Helvetica,sans-Serif" font-size="10.00">idg_treenode\add_child</text>
</a>
</g>
</g>
<!-- Node1&#45;&gt;Node9 -->
<g id="edge8" class="edge">
<title>Node1&#45;&gt;Node9</title>
<path fill="none" stroke="midnightblue" d="M204.44,-188.16C192.63,-173.86 174.27,-154.37 154,-143 147.12,-139.14 139.46,-136.05 131.72,-133.59"/>
<polygon fill="midnightblue" stroke="midnightblue" points="201.93,-190.63 210.9,-196.27 207.41,-186.27 201.93,-190.63"/>
</g>
<!-- Node10 -->
<g id="node10" class="node">
<title>Node10</title>
<g id="a_node10"><a xlink:href="classidg__object.html#a9cad019ba9b2604ec90e392d6e331bf7" target="_top" xlink:title="Executes a function which can be global or a a member of this object, if $function_name starts with $...">
<polygon fill="white" stroke="black" points="23,-76.5 23,-95.5 131,-95.5 131,-76.5 23,-76.5"/>
<text text-anchor="middle" x="77" y="-83.5" font-family="Helvetica,sans-Serif" font-size="10.00">idg_object\execute</text>
</a>
</g>
</g>
<!-- Node1&#45;&gt;Node10 -->
<g id="edge9" class="edge">
<title>Node1&#45;&gt;Node10</title>
<path fill="none" stroke="midnightblue" d="M211.01,-186.8C201.63,-163.79 182.75,-125.76 154,-105 147.16,-100.06 139.18,-96.4 131.01,-93.69"/>
<polygon fill="midnightblue" stroke="midnightblue" points="207.77,-188.14 214.65,-196.19 214.3,-185.6 207.77,-188.14"/>
</g>
<!-- Node11 -->
<g id="node11" class="node">
<title>Node11</title>
<g id="a_node11"><a xlink:href="classidg__site__element.html#a06514b8d84f5ba62cf4e821884752c65" target="_top" xlink:title=" ">
<polygon fill="white" stroke="black" points="5.5,-38.5 5.5,-57.5 148.5,-57.5 148.5,-38.5 5.5,-38.5"/>
<text text-anchor="middle" x="77" y="-45.5" font-family="Helvetica,sans-Serif" font-size="10.00">idg_site_element\get_site</text>
</a>
</g>
</g>
<!-- Node1&#45;&gt;Node11 -->
<g id="edge10" class="edge">
<title>Node1&#45;&gt;Node11</title>
<path fill="none" stroke="midnightblue" d="M214.54,-186.34C208.14,-156.02 191.53,-98.11 154,-67 149.39,-63.18 144.12,-60.11 138.56,-57.65"/>
<polygon fill="midnightblue" stroke="midnightblue" points="211.1,-187.02 216.45,-196.16 217.97,-185.68 211.1,-187.02"/>
</g>
<!-- Node12 -->
<g id="node12" class="node">
<title>Node12</title>
<g id="a_node12"><a xlink:href="classidg__object.html#abee1247181aa19887ed6c77452db9d89" target="_top" xlink:title="Sets properties based on the key/value pairs in an array.">
<polygon fill="white" stroke="black" points="7,-0.5 7,-19.5 147,-19.5 147,-0.5 7,-0.5"/>
<text text-anchor="middle" x="77" y="-7.5" font-family="Helvetica,sans-Serif" font-size="10.00">idg_object\set_properties</text>
</a>
</g>
</g>
<!-- Node1&#45;&gt;Node12 -->
<g id="edge11" class="edge">
<title>Node1&#45;&gt;Node12</title>
<path fill="none" stroke="midnightblue" d="M216.69,-185.82C213.19,-149.01 200.4,-70.89 154,-29 149.76,-25.17 144.87,-22.09 139.65,-19.61"/>
<polygon fill="midnightblue" stroke="midnightblue" points="213.24,-186.54 217.53,-196.23 220.22,-185.98 213.24,-186.54"/>
</g>
</g>
</svg>
