<?xml version="1.0" encoding="UTF-8" standalone="no"?>
<!DOCTYPE svg PUBLIC "-//W3C//DTD SVG 1.1//EN"
 "http://www.w3.org/Graphics/SVG/1.1/DTD/svg11.dtd">
<!-- Generated by graphviz version 2.43.0 (0)
 -->
<!-- Title: diag Pages: 1 -->
<svg width="625pt" height="918pt"
 viewBox="0.00 0.00 625.00 917.50" xmlns="http://www.w3.org/2000/svg" xmlns:xlink="http://www.w3.org/1999/xlink">
<g id="graph0" class="graph" transform="scale(1 1) rotate(0) translate(4 913.5)">
<title>diag</title>
<polygon fill="white" stroke="transparent" points="-4,4 -4,-913.5 621,-913.5 621,4 -4,4"/>
<!-- Node1 -->
<g id="node1" class="node">
<title>Node1</title>
<g id="a_node1"><a xlink:title=" ">
<polygon fill="#bfbfbf" stroke="black" points="579,-448.5 579,-467.5 617,-467.5 617,-448.5 579,-448.5"/>
<text text-anchor="middle" x="598" y="-455.5" font-family="Helvetica,sans-Serif" font-size="10.00">diag</text>
</a>
</g>
</g>
<!-- Node2 -->
<g id="node2" class="node">
<title>Node2</title>
<g id="a_node2"><a xlink:href="classidg__datasource__textfile.html#af69837f8a21fc0ec499e2df6e15db493" target="_top" xlink:title=" ">
<polygon fill="white" stroke="black" points="402,-879 402,-909 533,-909 533,-879 402,-879"/>
<text text-anchor="start" x="410" y="-897" font-family="Helvetica,sans-Serif" font-size="10.00">idg_datasource_textfile</text>
<text text-anchor="middle" x="467.5" y="-886" font-family="Helvetica,sans-Serif" font-size="10.00">\__construct</text>
</a>
</g>
</g>
<!-- Node1&#45;&gt;Node2 -->
<g id="edge1" class="edge">
<title>Node1&#45;&gt;Node2</title>
<path fill="none" stroke="midnightblue" d="M597.11,-477.74C597.13,-551.43 593.52,-809.37 543,-870 540.13,-873.44 536.76,-876.4 533.07,-878.94"/>
<polygon fill="midnightblue" stroke="midnightblue" points="600.61,-477.54 597.08,-467.55 593.61,-477.56 600.61,-477.54"/>
</g>
<!-- Node3 -->
<g id="node3" class="node">
<title>Node3</title>
<g id="a_node3"><a xlink:href="classidg__datasource__phpscript.html#a8b14d8e2930c7942ccea314c130e9391" target="_top" xlink:title=" ">
<polygon fill="white" stroke="black" points="397,-830 397,-860 538,-860 538,-830 397,-830"/>
<text text-anchor="start" x="405" y="-848" font-family="Helvetica,sans-Serif" font-size="10.00">idg_datasource_phpscript</text>
<text text-anchor="middle" x="467.5" y="-837" font-family="Helvetica,sans-Serif" font-size="10.00">\__construct</text>
</a>
</g>
</g>
<!-- Node1&#45;&gt;Node3 -->
<g id="edge2" class="edge">
<title>Node1&#45;&gt;Node3</title>
<path fill="none" stroke="midnightblue" d="M596.69,-477.9C595.22,-545.84 587.08,-767.4 543,-820 539.76,-823.87 535.9,-827.14 531.66,-829.91"/>
<polygon fill="midnightblue" stroke="midnightblue" points="600.19,-477.77 596.88,-467.71 593.19,-477.64 600.19,-477.77"/>
</g>
<!-- Node4 -->
<g id="node4" class="node">
<title>Node4</title>
<g id="a_node4"><a xlink:href="classidg__object.html#a1de5be36dd2da746ba5e79561f46f55e" target="_top" xlink:title="Constructs an idg object and assigns the corresponding idg type.">
<polygon fill="white" stroke="black" points="405,-791.5 405,-810.5 530,-810.5 530,-791.5 405,-791.5"/>
<text text-anchor="middle" x="467.5" y="-798.5" font-family="Helvetica,sans-Serif" font-size="10.00">idg_object\__construct</text>
</a>
</g>
</g>
<!-- Node1&#45;&gt;Node4 -->
<g id="edge3" class="edge">
<title>Node1&#45;&gt;Node4</title>
<path fill="none" stroke="midnightblue" d="M596.44,-477.94C594.25,-541.4 584.23,-737.13 543,-782 539.3,-786.03 534.87,-789.26 530.04,-791.83"/>
<polygon fill="midnightblue" stroke="midnightblue" points="599.95,-477.8 596.76,-467.7 592.95,-477.58 599.95,-477.8"/>
</g>
<!-- Node5 -->
<g id="node5" class="node">
<title>Node5</title>
<g id="a_node5"><a xlink:href="classidg__object.html#ab7575668c8250d7e67c2f94b199d7695" target="_top" xlink:title="Performs consistency checks, dies when an error is encountered.">
<polygon fill="white" stroke="black" points="415.5,-753.5 415.5,-772.5 519.5,-772.5 519.5,-753.5 415.5,-753.5"/>
<text text-anchor="middle" x="467.5" y="-760.5" font-family="Helvetica,sans-Serif" font-size="10.00">idg_object\_check</text>
</a>
</g>
</g>
<!-- Node1&#45;&gt;Node5 -->
<g id="edge4" class="edge">
<title>Node1&#45;&gt;Node5</title>
<path fill="none" stroke="midnightblue" d="M595.77,-477.77C591.83,-535.1 577.65,-699.85 543,-739 536.79,-746.02 528.51,-751 519.73,-754.53"/>
<polygon fill="midnightblue" stroke="midnightblue" points="599.28,-477.73 596.45,-467.52 592.3,-477.27 599.28,-477.73"/>
</g>
<!-- Node6 -->
<g id="node6" class="node">
<title>Node6</title>
<g id="a_node6"><a xlink:href="classidg__view__html__renderer.html#ae38258ae5fd5ed1b8020e44ce7666c0a" target="_top" xlink:title="See class description.">
<polygon fill="white" stroke="black" points="207,-696 207,-726 341,-726 341,-696 207,-696"/>
<text text-anchor="start" x="215" y="-714" font-family="Helvetica,sans-Serif" font-size="10.00">idg_view_html_renderer</text>
<text text-anchor="middle" x="274" y="-703" font-family="Helvetica,sans-Serif" font-size="10.00">\_render</text>
</a>
</g>
</g>
<!-- Node1&#45;&gt;Node6 -->
<g id="edge5" class="edge">
<title>Node1&#45;&gt;Node6</title>
<path fill="none" stroke="midnightblue" d="M595.74,-478.01C591.9,-531.72 578.37,-676.95 543,-706 480.96,-756.94 380.85,-741.5 322.14,-726.01"/>
<polygon fill="midnightblue" stroke="midnightblue" points="599.25,-477.96 596.43,-467.75 592.27,-477.49 599.25,-477.96"/>
</g>
<!-- Node7 -->
<g id="node7" class="node">
<title>Node7</title>
<g id="a_node7"><a xlink:href="classidg__tree__node.html#a43af700a477983aa4965d028008eeb3f" target="_top" xlink:title=" ">
<polygon fill="white" stroke="black" points="400,-677.5 400,-696.5 535,-696.5 535,-677.5 400,-677.5"/>
<text text-anchor="middle" x="467.5" y="-684.5" font-family="Helvetica,sans-Serif" font-size="10.00">idg_tree_node\add_child</text>
</a>
</g>
</g>
<!-- Node1&#45;&gt;Node7 -->
<g id="edge6" class="edge">
<title>Node1&#45;&gt;Node7</title>
<path fill="none" stroke="midnightblue" d="M594.51,-477.64C588.2,-524.5 570.08,-640.98 543,-668 539.13,-671.87 534.58,-674.98 529.68,-677.49"/>
<polygon fill="midnightblue" stroke="midnightblue" points="598.01,-477.93 595.84,-467.56 591.07,-477.02 598.01,-477.93"/>
</g>
<!-- Node8 -->
<g id="node8" class="node">
<title>Node8</title>
<g id="a_node8"><a xlink:href="classidg__document.html#a4afd3976093de18e8f339c3dee48bed4" target="_top" xlink:title=" ">
<polygon fill="white" stroke="black" points="192,-476.5 192,-495.5 356,-495.5 356,-476.5 192,-476.5"/>
<text text-anchor="middle" x="274" y="-483.5" font-family="Helvetica,sans-Serif" font-size="10.00">idg_document\get_datasource</text>
</a>
</g>
</g>
<!-- Node1&#45;&gt;Node8 -->
<g id="edge7" class="edge">
<title>Node1&#45;&gt;Node8</title>
<path fill="none" stroke="midnightblue" d="M595.64,-477.93C592.36,-508.53 581.16,-566.24 543,-592 487.38,-629.55 454.62,-616.15 392,-592 340.34,-572.08 297.36,-517.6 281.53,-495.5"/>
<polygon fill="midnightblue" stroke="midnightblue" points="599.16,-477.93 596.55,-467.66 592.18,-477.31 599.16,-477.93"/>
</g>
<!-- Node9 -->
<g id="node9" class="node">
<title>Node9</title>
<g id="a_node9"><a xlink:href="classidg__document.html#a0e01326ce378e5cf31d9c6fb11097b31" target="_top" xlink:title=" ">
<polygon fill="white" stroke="black" points="0,-432.5 0,-451.5 156,-451.5 156,-432.5 0,-432.5"/>
<text text-anchor="middle" x="78" y="-439.5" font-family="Helvetica,sans-Serif" font-size="10.00">idg_document\get_renderers</text>
</a>
</g>
</g>
<!-- Node1&#45;&gt;Node9 -->
<g id="edge17" class="edge">
<title>Node1&#45;&gt;Node9</title>
<path fill="none" stroke="midnightblue" d="M580.74,-441.13C570.81,-432.08 557.29,-421.81 543,-417 530.91,-412.93 226.61,-414.28 192,-418 165.78,-420.82 136.68,-427.08 114.58,-432.49"/>
<polygon fill="midnightblue" stroke="midnightblue" points="578.55,-443.88 588.18,-448.31 583.41,-438.85 578.55,-443.88"/>
</g>
<!-- Node10 -->
<g id="node10" class="node">
<title>Node10</title>
<g id="a_node10"><a xlink:href="classidg__site.html#ac218c7fa75b50a0de32b89b777287283" target="_top" xlink:title=" ">
<polygon fill="white" stroke="black" points="401,-563.5 401,-582.5 534,-582.5 534,-563.5 401,-563.5"/>
<text text-anchor="middle" x="467.5" y="-570.5" font-family="Helvetica,sans-Serif" font-size="10.00">idg_site\get_datasource</text>
</a>
</g>
</g>
<!-- Node1&#45;&gt;Node10 -->
<g id="edge9" class="edge">
<title>Node1&#45;&gt;Node10</title>
<path fill="none" stroke="midnightblue" d="M591.34,-477.13C583.86,-499.03 568.56,-534.4 543,-554 537.92,-557.9 532.12,-561 526.05,-563.47"/>
<polygon fill="midnightblue" stroke="midnightblue" points="594.68,-478.18 594.39,-467.59 588.01,-476.05 594.68,-478.18"/>
</g>
<!-- Node11 -->
<g id="node11" class="node">
<title>Node11</title>
<g id="a_node11"><a xlink:href="classidg__datasource__declaration.html#a4b2987dc6f360862f0cab47a351895ea" target="_top" xlink:title=" ">
<polygon fill="white" stroke="black" points="392,-514 392,-544 543,-544 543,-514 392,-514"/>
<text text-anchor="start" x="400" y="-532" font-family="Helvetica,sans-Serif" font-size="10.00">idg_datasource_declaration</text>
<text text-anchor="middle" x="467.5" y="-521" font-family="Helvetica,sans-Serif" font-size="10.00">\get_instance</text>
</a>
</g>
</g>
<!-- Node1&#45;&gt;Node11 -->
<g id="edge10" class="edge">
<title>Node1&#45;&gt;Node11</title>
<path fill="none" stroke="midnightblue" d="M581.09,-474.95C570.98,-484.88 557.18,-497 543,-505 537.08,-508.34 530.64,-511.29 524.09,-513.88"/>
<polygon fill="midnightblue" stroke="midnightblue" points="583.82,-477.17 588.33,-467.58 578.83,-472.26 583.82,-477.17"/>
</g>
<!-- Node12 -->
<g id="node12" class="node">
<title>Node12</title>
<g id="a_node12"><a xlink:href="classidg__renderer__declaration.html#a64d09e81c5f8a7094f52ec0be998d78b" target="_top" xlink:title=" ">
<polygon fill="white" stroke="black" points="398.5,-465 398.5,-495 536.5,-495 536.5,-465 398.5,-465"/>
<text text-anchor="start" x="406.5" y="-483" font-family="Helvetica,sans-Serif" font-size="10.00">idg_renderer_declaration</text>
<text text-anchor="middle" x="467.5" y="-472" font-family="Helvetica,sans-Serif" font-size="10.00">\get_instance</text>
</a>
</g>
</g>
<!-- Node1&#45;&gt;Node12 -->
<g id="edge11" class="edge">
<title>Node1&#45;&gt;Node12</title>
<path fill="none" stroke="midnightblue" d="M568.79,-462.83C559.2,-464.47 548.04,-466.38 536.71,-468.32"/>
<polygon fill="midnightblue" stroke="midnightblue" points="569.6,-466.24 578.86,-461.11 568.41,-459.34 569.6,-466.24"/>
</g>
<!-- Node13 -->
<g id="node13" class="node">
<title>Node13</title>
<g id="a_node13"><a xlink:href="classidg__object.html#ac41f30824083065ee9430a74f7301116" target="_top" xlink:title=" ">
<polygon fill="white" stroke="black" points="401.5,-639.5 401.5,-658.5 533.5,-658.5 533.5,-639.5 401.5,-639.5"/>
<text text-anchor="middle" x="467.5" y="-646.5" font-family="Helvetica,sans-Serif" font-size="10.00">idg_object\get_instance</text>
</a>
</g>
</g>
<!-- Node1&#45;&gt;Node13 -->
<g id="edge12" class="edge">
<title>Node1&#45;&gt;Node13</title>
<path fill="none" stroke="midnightblue" d="M596.2,-478.15C593.73,-512.92 583.67,-584.37 543,-625 536.65,-631.34 528.63,-636 520.21,-639.44"/>
<polygon fill="midnightblue" stroke="midnightblue" points="599.71,-478.04 596.78,-467.86 592.72,-477.64 599.71,-478.04"/>
</g>
<!-- Node15 -->
<g id="node15" class="node">
<title>Node15</title>
<g id="a_node15"><a xlink:href="classidg__view__node__param__obj.html#af1cf9be75770b54c3e7780426efb973e" target="_top" xlink:title=" ">
<polygon fill="white" stroke="black" points="404.5,-339 404.5,-369 530.5,-369 530.5,-339 404.5,-339"/>
<text text-anchor="start" x="412.5" y="-357" font-family="Helvetica,sans-Serif" font-size="10.00">idg_view_node_param</text>
<text text-anchor="middle" x="467.5" y="-346" font-family="Helvetica,sans-Serif" font-size="10.00">_obj\get_parameters</text>
</a>
</g>
</g>
<!-- Node1&#45;&gt;Node15 -->
<g id="edge15" class="edge">
<title>Node1&#45;&gt;Node15</title>
<path fill="none" stroke="midnightblue" d="M587.02,-438.76C577.61,-422.27 562.12,-398.89 543,-384 535.3,-378 526.24,-373.04 517.14,-369"/>
<polygon fill="midnightblue" stroke="midnightblue" points="584.2,-440.9 592.07,-448 590.34,-437.55 584.2,-440.9"/>
</g>
<!-- Node17 -->
<g id="node17" class="node">
<title>Node17</title>
<g id="a_node17"><a xlink:href="classidg__site__element.html#a06514b8d84f5ba62cf4e821884752c65" target="_top" xlink:title=" ">
<polygon fill="white" stroke="black" points="396,-426.5 396,-445.5 539,-445.5 539,-426.5 396,-426.5"/>
<text text-anchor="middle" x="467.5" y="-433.5" font-family="Helvetica,sans-Serif" font-size="10.00">idg_site_element\get_site</text>
</a>
</g>
</g>
<!-- Node1&#45;&gt;Node17 -->
<g id="edge18" class="edge">
<title>Node1&#45;&gt;Node17</title>
<path fill="none" stroke="midnightblue" d="M568.62,-453.14C555.5,-450.9 539.46,-448.15 524.08,-445.52"/>
<polygon fill="midnightblue" stroke="midnightblue" points="568.41,-456.66 578.86,-454.89 569.6,-449.76 568.41,-456.66"/>
</g>
<!-- Node19 -->
<g id="node19" class="node">
<title>Node19</title>
<g id="a_node19"><a xlink:href="classidg__tree__node.html#aea1a2ab196fd1970b95750233de9442e" target="_top" xlink:title=" ">
<polygon fill="white" stroke="black" points="400.5,-300.5 400.5,-319.5 534.5,-319.5 534.5,-300.5 400.5,-300.5"/>
<text text-anchor="middle" x="467.5" y="-307.5" font-family="Helvetica,sans-Serif" font-size="10.00">idg_tree_node\read_xml</text>
</a>
</g>
</g>
<!-- Node1&#45;&gt;Node19 -->
<g id="edge21" class="edge">
<title>Node1&#45;&gt;Node19</title>
<path fill="none" stroke="midnightblue" d="M594.14,-438.07C589.02,-409.82 575.6,-358.41 543,-330 538.05,-325.69 532.27,-322.29 526.15,-319.62"/>
<polygon fill="midnightblue" stroke="midnightblue" points="590.75,-439 595.81,-448.3 597.66,-437.87 590.75,-439"/>
</g>
<!-- Node20 -->
<g id="node20" class="node">
<title>Node20</title>
<g id="a_node20"><a xlink:href="classidg__view__html__part__fixedbar.html#adab755787366705339e3d309a2be9716" target="_top" xlink:title=" ">
<polygon fill="white" stroke="black" points="411,-251 411,-281 524,-281 524,-251 411,-251"/>
<text text-anchor="start" x="419" y="-269" font-family="Helvetica,sans-Serif" font-size="10.00">idg_view_html_part</text>
<text text-anchor="middle" x="467.5" y="-258" font-family="Helvetica,sans-Serif" font-size="10.00">_fixedbar\render</text>
</a>
</g>
</g>
<!-- Node1&#45;&gt;Node20 -->
<g id="edge22" class="edge">
<title>Node1&#45;&gt;Node20</title>
<path fill="none" stroke="midnightblue" d="M596.15,-437.9C593.6,-403.21 583.43,-331.88 543,-291 537.63,-285.57 531.04,-281.32 524.03,-277.99"/>
<polygon fill="midnightblue" stroke="midnightblue" points="592.67,-438.39 596.75,-448.17 599.66,-437.98 592.67,-438.39"/>
</g>
<!-- Node21 -->
<g id="node21" class="node">
<title>Node21</title>
<g id="a_node21"><a xlink:href="classidg__view__html__part__fixedcontent.html#aface840104117acc29a8835aeb774f7b" target="_top" xlink:title=" ">
<polygon fill="white" stroke="black" points="409.5,-202 409.5,-232 525.5,-232 525.5,-202 409.5,-202"/>
<text text-anchor="start" x="417.5" y="-220" font-family="Helvetica,sans-Serif" font-size="10.00">idg_view_html_part</text>
<text text-anchor="middle" x="467.5" y="-209" font-family="Helvetica,sans-Serif" font-size="10.00">_fixedcontent\render</text>
</a>
</g>
</g>
<!-- Node1&#45;&gt;Node21 -->
<g id="edge23" class="edge">
<title>Node1&#45;&gt;Node21</title>
<path fill="none" stroke="midnightblue" d="M594.5,-438.24C588.1,-390.54 569.72,-270.91 543,-242 538.19,-236.79 532.25,-232.66 525.85,-229.4"/>
<polygon fill="midnightblue" stroke="midnightblue" points="591.04,-438.78 595.81,-448.24 597.98,-437.87 591.04,-438.78"/>
</g>
<!-- Node22 -->
<g id="node22" class="node">
<title>Node22</title>
<g id="a_node22"><a xlink:href="classidg__object__type.html#a346c53688eedf770263fc4e85e4cf52e" target="_top" xlink:title=" ">
<polygon fill="white" stroke="black" points="411.5,-153 411.5,-183 523.5,-183 523.5,-153 411.5,-153"/>
<text text-anchor="start" x="419.5" y="-171" font-family="Helvetica,sans-Serif" font-size="10.00">idg_object_type\set</text>
<text text-anchor="middle" x="467.5" y="-160" font-family="Helvetica,sans-Serif" font-size="10.00">_mandatory</text>
</a>
</g>
</g>
<!-- Node1&#45;&gt;Node22 -->
<g id="edge24" class="edge">
<title>Node1&#45;&gt;Node22</title>
<path fill="none" stroke="midnightblue" d="M595.5,-438.3C590.94,-383.31 575.52,-229.78 543,-193 537.76,-187.07 531.07,-182.55 523.85,-179.09"/>
<polygon fill="midnightblue" stroke="midnightblue" points="592.03,-438.77 596.31,-448.46 599.01,-438.21 592.03,-438.77"/>
</g>
<!-- Node30 -->
<g id="node30" class="node">
<title>Node30</title>
<g id="a_node30"><a xlink:href="classidg__object.html#a3c88c9eb5649e9da2d51bb10cefc9b25" target="_top" xlink:title=" ">
<polygon fill="white" stroke="black" points="397.5,-114.5 397.5,-133.5 537.5,-133.5 537.5,-114.5 397.5,-114.5"/>
<text text-anchor="middle" x="467.5" y="-121.5" font-family="Helvetica,sans-Serif" font-size="10.00">idg_object\set_properties</text>
</a>
</g>
</g>
<!-- Node1&#45;&gt;Node30 -->
<g id="edge32" class="edge">
<title>Node1&#45;&gt;Node30</title>
<path fill="none" stroke="midnightblue" d="M596.31,-438.28C593.74,-376.4 582.74,-187.57 543,-144 539.12,-139.75 534.44,-136.36 529.34,-133.66"/>
<polygon fill="midnightblue" stroke="midnightblue" points="592.81,-438.44 596.7,-448.3 599.81,-438.17 592.81,-438.44"/>
</g>
<!-- Node31 -->
<g id="node31" class="node">
<title>Node31</title>
<g id="a_node31"><a xlink:href="classidg__object.html#a45eb1a38df86f20d563bc48f4956380c" target="_top" xlink:title=" ">
<polygon fill="white" stroke="black" points="402,-76.5 402,-95.5 533,-95.5 533,-76.5 402,-76.5"/>
<text text-anchor="middle" x="467.5" y="-83.5" font-family="Helvetica,sans-Serif" font-size="10.00">idg_object\set_property</text>
</a>
</g>
</g>
<!-- Node1&#45;&gt;Node31 -->
<g id="edge33" class="edge">
<title>Node1&#45;&gt;Node31</title>
<path fill="none" stroke="midnightblue" d="M596.74,-438.06C595.47,-370.92 587.88,-154.5 543,-105 539.59,-101.24 535.56,-98.18 531.15,-95.69"/>
<polygon fill="midnightblue" stroke="midnightblue" points="593.25,-438.53 596.91,-448.47 600.25,-438.42 593.25,-438.53"/>
</g>
<!-- Node32 -->
<g id="node32" class="node">
<title>Node32</title>
<g id="a_node32"><a xlink:href="classidg__view.html#a1ddb1fb570a49b50e820ad45f8e5ee2f" target="_top" xlink:title=" ">
<polygon fill="white" stroke="black" points="398,-38.5 398,-57.5 537,-57.5 537,-38.5 398,-38.5"/>
<text text-anchor="middle" x="467.5" y="-45.5" font-family="Helvetica,sans-Serif" font-size="10.00">idg_view\stream_append</text>
</a>
</g>
</g>
<!-- Node1&#45;&gt;Node32 -->
<g id="edge34" class="edge">
<title>Node1&#45;&gt;Node32</title>
<path fill="none" stroke="midnightblue" d="M597.07,-437.8C596.91,-365.72 592.63,-122.55 543,-67 539.62,-63.22 535.6,-60.14 531.21,-57.64"/>
<polygon fill="midnightblue" stroke="midnightblue" points="593.57,-438.18 597.07,-448.18 600.57,-438.18 593.57,-438.18"/>
</g>
<!-- Node33 -->
<g id="node33" class="node">
<title>Node33</title>
<g id="a_node33"><a xlink:href="classidg__tree__node.html#af9f29c902c07cf504d904fc1a84a1bd7" target="_top" xlink:title=" ">
<polygon fill="white" stroke="black" points="399,-0.5 399,-19.5 536,-19.5 536,-0.5 399,-0.5"/>
<text text-anchor="middle" x="467.5" y="-7.5" font-family="Helvetica,sans-Serif" font-size="10.00">idg_tree_node\write_xml</text>
</a>
</g>
</g>
<!-- Node1&#45;&gt;Node33 -->
<g id="edge35" class="edge">
<title>Node1&#45;&gt;Node33</title>
<path fill="none" stroke="midnightblue" d="M597.34,-438.32C598.25,-362.55 597.57,-90.83 543,-29 539.64,-25.2 535.64,-22.1 531.26,-19.6"/>
<polygon fill="midnightblue" stroke="midnightblue" points="593.84,-438.34 597.2,-448.39 600.84,-438.44 593.84,-438.34"/>
</g>
<!-- Node8&#45;&gt;Node9 -->
<g id="edge8" class="edge">
<title>Node8&#45;&gt;Node9</title>
<path fill="none" stroke="midnightblue" d="M221.04,-474.22C189.73,-467.11 150.36,-458.18 121.01,-451.53"/>
<polygon fill="midnightblue" stroke="midnightblue" points="220.38,-477.65 230.9,-476.45 221.93,-470.83 220.38,-477.65"/>
</g>
<!-- Node13&#45;&gt;Node6 -->
<g id="edge14" class="edge">
<title>Node13&#45;&gt;Node6</title>
<path fill="none" stroke="midnightblue" d="M416.27,-661.06C408.11,-663.23 399.79,-665.58 392,-668 365.23,-676.31 335.61,-687.21 312.87,-695.96"/>
<polygon fill="midnightblue" stroke="midnightblue" points="417.28,-664.41 426.08,-658.51 415.52,-657.64 417.28,-664.41"/>
</g>
<!-- Node14 -->
<g id="node14" class="node">
<title>Node14</title>
<g id="a_node14"><a xlink:href="classidg__view__html__element.html#a7cae4f263e28692e70e554d47ea3f412" target="_top" xlink:title=" ">
<polygon fill="white" stroke="black" points="207,-634 207,-664 341,-664 341,-634 207,-634"/>
<text text-anchor="start" x="215" y="-652" font-family="Helvetica,sans-Serif" font-size="10.00">idg_view_html_element</text>
<text text-anchor="middle" x="274" y="-641" font-family="Helvetica,sans-Serif" font-size="10.00">\_render</text>
</a>
</g>
</g>
<!-- Node13&#45;&gt;Node14 -->
<g id="edge13" class="edge">
<title>Node13&#45;&gt;Node14</title>
<path fill="none" stroke="midnightblue" d="M391.24,-649C374.73,-649 357.36,-649 341.22,-649"/>
<polygon fill="midnightblue" stroke="midnightblue" points="391.4,-652.5 401.4,-649 391.4,-645.5 391.4,-652.5"/>
</g>
<!-- Node16 -->
<g id="node16" class="node">
<title>Node16</title>
<g id="a_node16"><a xlink:href="classidg__view__node__param__obj.html#a786473a8799d1f98f9b7b461788732de" target="_top" xlink:title=" ">
<polygon fill="white" stroke="black" points="211,-339 211,-369 337,-369 337,-339 211,-339"/>
<text text-anchor="start" x="219" y="-357" font-family="Helvetica,sans-Serif" font-size="10.00">idg_view_node_param</text>
<text text-anchor="middle" x="274" y="-346" font-family="Helvetica,sans-Serif" font-size="10.00">_obj\__construct</text>
</a>
</g>
</g>
<!-- Node15&#45;&gt;Node16 -->
<g id="edge16" class="edge">
<title>Node15&#45;&gt;Node16</title>
<path fill="none" stroke="midnightblue" d="M394.07,-354C375.34,-354 355.34,-354 337.19,-354"/>
<polygon fill="midnightblue" stroke="midnightblue" points="394.33,-357.5 404.33,-354 394.33,-350.5 394.33,-357.5"/>
</g>
<!-- Node17&#45;&gt;Node8 -->
<g id="edge20" class="edge">
<title>Node17&#45;&gt;Node8</title>
<path fill="none" stroke="midnightblue" d="M420.13,-448.18C410.8,-450.71 401.08,-453.4 392,-456 375.92,-460.61 372.15,-462.64 356,-467 343.73,-470.31 330.32,-473.59 318.01,-476.47"/>
<polygon fill="midnightblue" stroke="midnightblue" points="421.31,-451.49 430.05,-445.52 419.49,-444.73 421.31,-451.49"/>
</g>
<!-- Node18 -->
<g id="node18" class="node">
<title>Node18</title>
<g id="a_node18"><a xlink:href="classidg__document.html#a42f2bc2c4324f1e8ff1aecaef5aaa54e" target="_top" xlink:title=" ">
<polygon fill="white" stroke="black" points="199.5,-427 199.5,-457 348.5,-457 348.5,-427 199.5,-427"/>
<text text-anchor="start" x="207.5" y="-445" font-family="Helvetica,sans-Serif" font-size="10.00">idg_document\_get_default</text>
<text text-anchor="middle" x="274" y="-434" font-family="Helvetica,sans-Serif" font-size="10.00">_title</text>
</a>
</g>
</g>
<!-- Node17&#45;&gt;Node18 -->
<g id="edge19" class="edge">
<title>Node17&#45;&gt;Node18</title>
<path fill="none" stroke="midnightblue" d="M385.55,-438.54C373.32,-438.92 360.75,-439.31 348.68,-439.69"/>
<polygon fill="midnightblue" stroke="midnightblue" points="385.85,-442.03 395.74,-438.22 385.63,-435.03 385.85,-442.03"/>
</g>
<!-- Node23 -->
<g id="node23" class="node">
<title>Node23</title>
<g id="a_node23"><a xlink:href="classidg__datasource__declaration__type.html#acf427d15d9f350ace6516710d724302a" target="_top" xlink:title=" ">
<polygon fill="white" stroke="black" points="198.5,-11 198.5,-41 349.5,-41 349.5,-11 198.5,-11"/>
<text text-anchor="start" x="206.5" y="-29" font-family="Helvetica,sans-Serif" font-size="10.00">idg_datasource_declaration</text>
<text text-anchor="middle" x="274" y="-18" font-family="Helvetica,sans-Serif" font-size="10.00">_type\__construct</text>
</a>
</g>
</g>
<!-- Node22&#45;&gt;Node23 -->
<g id="edge25" class="edge">
<title>Node22&#45;&gt;Node23</title>
<path fill="none" stroke="midnightblue" d="M402.28,-150.89C398.58,-148.59 395.11,-145.97 392,-143 359.95,-112.38 388.59,-80.04 356,-50 352.33,-46.62 348.21,-43.71 343.82,-41.22"/>
<polygon fill="midnightblue" stroke="midnightblue" points="400.79,-154.07 411.25,-155.73 404.11,-147.9 400.79,-154.07"/>
</g>
<!-- Node24 -->
<g id="node24" class="node">
<title>Node24</title>
<g id="a_node24"><a xlink:href="classidg__renderer__declaration__type.html#af92105f008f328ef15ea2cb36fe45cda" target="_top" xlink:title=" ">
<polygon fill="white" stroke="black" points="205,-284 205,-314 343,-314 343,-284 205,-284"/>
<text text-anchor="start" x="213" y="-302" font-family="Helvetica,sans-Serif" font-size="10.00">idg_renderer_declaration</text>
<text text-anchor="middle" x="274" y="-291" font-family="Helvetica,sans-Serif" font-size="10.00">_type\__construct</text>
</a>
</g>
</g>
<!-- Node22&#45;&gt;Node24 -->
<g id="edge26" class="edge">
<title>Node22&#45;&gt;Node24</title>
<path fill="none" stroke="midnightblue" d="M402.43,-185.27C398.69,-187.54 395.17,-190.1 392,-193 362.62,-219.85 385.86,-248.68 356,-275 352.15,-278.39 347.84,-281.31 343.26,-283.81"/>
<polygon fill="midnightblue" stroke="midnightblue" points="404.25,-188.26 411.46,-180.5 400.98,-182.07 404.25,-188.26"/>
</g>
<!-- Node25 -->
<g id="node25" class="node">
<title>Node25</title>
<g id="a_node25"><a xlink:href="classidg__site__element__type.html#a192a58686c7022f327f205ac88857434" target="_top" xlink:title=" ">
<polygon fill="white" stroke="black" points="210,-235 210,-265 338,-265 338,-235 210,-235"/>
<text text-anchor="start" x="218" y="-253" font-family="Helvetica,sans-Serif" font-size="10.00">idg_site_element_type</text>
<text text-anchor="middle" x="274" y="-242" font-family="Helvetica,sans-Serif" font-size="10.00">\__construct</text>
</a>
</g>
</g>
<!-- Node22&#45;&gt;Node25 -->
<g id="edge27" class="edge">
<title>Node22&#45;&gt;Node25</title>
<path fill="none" stroke="midnightblue" d="M403.47,-187.09C399.51,-188.91 395.65,-190.88 392,-193 373.48,-203.73 374.65,-214.49 356,-225 349.2,-228.83 341.75,-232.14 334.2,-234.99"/>
<polygon fill="midnightblue" stroke="midnightblue" points="405.03,-190.23 412.85,-183.08 402.27,-183.79 405.03,-190.23"/>
</g>
<!-- Node26 -->
<g id="node26" class="node">
<title>Node26</title>
<g id="a_node26"><a xlink:href="classidg__folder__type.html#a96eb19c506d068c46d54918c04200004" target="_top" xlink:title=" ">
<polygon fill="white" stroke="black" points="198.5,-196.5 198.5,-215.5 349.5,-215.5 349.5,-196.5 198.5,-196.5"/>
<text text-anchor="middle" x="274" y="-203.5" font-family="Helvetica,sans-Serif" font-size="10.00">idg_folder_type\__construct</text>
</a>
</g>
</g>
<!-- Node22&#45;&gt;Node26 -->
<g id="edge28" class="edge">
<title>Node22&#45;&gt;Node26</title>
<path fill="none" stroke="midnightblue" d="M401.33,-180.93C375.62,-186.03 346.64,-191.78 322.92,-196.49"/>
<polygon fill="midnightblue" stroke="midnightblue" points="402.24,-184.32 411.37,-178.94 400.88,-177.45 402.24,-184.32"/>
</g>
<!-- Node27 -->
<g id="node27" class="node">
<title>Node27</title>
<g id="a_node27"><a xlink:href="classidg__site__type.html#a7db9f166a582cacf48db2208262763bd" target="_top" xlink:title=" ">
<polygon fill="white" stroke="black" points="204,-158.5 204,-177.5 344,-177.5 344,-158.5 204,-158.5"/>
<text text-anchor="middle" x="274" y="-165.5" font-family="Helvetica,sans-Serif" font-size="10.00">idg_site_type\__construct</text>
</a>
</g>
</g>
<!-- Node22&#45;&gt;Node27 -->
<g id="edge29" class="edge">
<title>Node22&#45;&gt;Node27</title>
<path fill="none" stroke="midnightblue" d="M401.31,-168C382.86,-168 362.72,-168 344.06,-168"/>
<polygon fill="midnightblue" stroke="midnightblue" points="401.37,-171.5 411.37,-168 401.37,-164.5 401.37,-171.5"/>
</g>
<!-- Node28 -->
<g id="node28" class="node">
<title>Node28</title>
<g id="a_node28"><a xlink:href="classidg__view__html__renderer__type.html#afd0da975bd9282b67095b5e5812333aa" target="_top" xlink:title=" ">
<polygon fill="white" stroke="black" points="207,-109 207,-139 341,-139 341,-109 207,-109"/>
<text text-anchor="start" x="215" y="-127" font-family="Helvetica,sans-Serif" font-size="10.00">idg_view_html_renderer</text>
<text text-anchor="middle" x="274" y="-116" font-family="Helvetica,sans-Serif" font-size="10.00">_type\__construct</text>
</a>
</g>
</g>
<!-- Node22&#45;&gt;Node28 -->
<g id="edge30" class="edge">
<title>Node22&#45;&gt;Node28</title>
<path fill="none" stroke="midnightblue" d="M401.58,-153.08C381.91,-148.56 360.3,-143.6 340.58,-139.07"/>
<polygon fill="midnightblue" stroke="midnightblue" points="400.84,-156.5 411.37,-155.33 402.4,-149.68 400.84,-156.5"/>
</g>
<!-- Node29 -->
<g id="node29" class="node">
<title>Node29</title>
<g id="a_node29"><a xlink:href="classidg__view__html__slot__type.html#ab2de0cfdabf53c6d204c02002750c238" target="_top" xlink:title=" ">
<polygon fill="white" stroke="black" points="218.5,-60 218.5,-90 329.5,-90 329.5,-60 218.5,-60"/>
<text text-anchor="start" x="226.5" y="-78" font-family="Helvetica,sans-Serif" font-size="10.00">idg_view_html_slot</text>
<text text-anchor="middle" x="274" y="-67" font-family="Helvetica,sans-Serif" font-size="10.00">_type\__construct</text>
</a>
</g>
</g>
<!-- Node22&#45;&gt;Node29 -->
<g id="edge31" class="edge">
<title>Node22&#45;&gt;Node29</title>
<path fill="none" stroke="midnightblue" d="M401.85,-148.88C398.42,-147.08 395.11,-145.12 392,-143 371.41,-128.95 376.76,-113.8 356,-100 348.03,-94.71 338.89,-90.49 329.68,-87.14"/>
<polygon fill="midnightblue" stroke="midnightblue" points="400.6,-152.16 411.14,-153.29 403.6,-145.84 400.6,-152.16"/>
</g>
</g>
</svg>
