<?xml version="1.0" encoding="UTF-8" standalone="no"?>
<!DOCTYPE svg PUBLIC "-//W3C//DTD SVG 1.1//EN"
 "http://www.w3.org/Graphics/SVG/1.1/DTD/svg11.dtd">
<!-- Generated by graphviz version 2.43.0 (0)
 -->
<!-- Title: Graphical Class Hierarchy Pages: 1 -->
<svg width="242pt" height="78pt"
 viewBox="0.00 0.00 242.00 77.50" xmlns="http://www.w3.org/2000/svg" xmlns:xlink="http://www.w3.org/1999/xlink">
<g id="graph0" class="graph" transform="scale(1 1) rotate(0) translate(4 73.5)">
<title>Graphical Class Hierarchy</title>
<polygon fill="white" stroke="transparent" points="-4,4 -4,-73.5 238,-73.5 238,4 -4,4"/>
<!-- Node0 -->
<g id="node1" class="node">
<title>Node0</title>
<g id="a_node1"><a xlink:href="classidg__token.html" target="_top" xlink:title="Tokens for the data stream generated by idg_datasource.">
<polygon fill="white" stroke="black" points="0,-28 0,-47 64,-47 64,-28 0,-28"/>
<text text-anchor="middle" x="32" y="-35" font-family="Helvetica,sans-Serif" font-size="10.00">idg_token</text>
</a>
</g>
</g>
<!-- Node1 -->
<g id="node2" class="node">
<title>Node1</title>
<g id="a_node2"><a xlink:href="classidg__token__tree__node.html" target="_top" xlink:title=" ">
<polygon fill="white" stroke="black" points="108,-50 108,-69 226,-69 226,-50 108,-50"/>
<text text-anchor="middle" x="167" y="-57" font-family="Helvetica,sans-Serif" font-size="10.00">idg_token_tree_node</text>
</a>
</g>
</g>
<!-- Node0&#45;&gt;Node1 -->
<g id="edge1" class="edge">
<title>Node0&#45;&gt;Node1</title>
<path fill="none" stroke="midnightblue" d="M74.19,-44.31C85.02,-46.1 96.89,-48.07 108.4,-49.97"/>
<polygon fill="midnightblue" stroke="midnightblue" points="74.62,-40.84 64.18,-42.66 73.48,-47.74 74.62,-40.84"/>
</g>
<!-- Node2 -->
<g id="node3" class="node">
<title>Node2</title>
<g id="a_node3"><a xlink:href="classidg__view__html__renderer__phpscript__obj.html" target="_top" xlink:title=" ">
<polygon fill="white" stroke="black" points="100,-0.5 100,-30.5 234,-30.5 234,-0.5 100,-0.5"/>
<text text-anchor="start" x="108" y="-18.5" font-family="Helvetica,sans-Serif" font-size="10.00">idg_view_html_renderer</text>
<text text-anchor="middle" x="167" y="-7.5" font-family="Helvetica,sans-Serif" font-size="10.00">_phpscript_obj</text>
</a>
</g>
</g>
<!-- Node0&#45;&gt;Node2 -->
<g id="edge2" class="edge">
<title>Node0&#45;&gt;Node2</title>
<path fill="none" stroke="midnightblue" d="M74.17,-30.69C82.34,-29.34 91.12,-27.89 99.88,-26.44"/>
<polygon fill="midnightblue" stroke="midnightblue" points="73.48,-27.26 64.18,-32.34 74.62,-34.16 73.48,-27.26"/>
</g>
</g>
</svg>
