<?xml version="1.0" encoding="UTF-8" standalone="no"?>
<!DOCTYPE svg PUBLIC "-//W3C//DTD SVG 1.1//EN"
 "http://www.w3.org/Graphics/SVG/1.1/DTD/svg11.dtd">
<!-- Generated by graphviz version 2.43.0 (0)
 -->
<!-- Title: Graphical Class Hierarchy Pages: 1 -->
<svg width="475pt" height="104pt"
 viewBox="0.00 0.00 475.00 104.00" xmlns="http://www.w3.org/2000/svg" xmlns:xlink="http://www.w3.org/1999/xlink">
<g id="graph0" class="graph" transform="scale(1 1) rotate(0) translate(4 100)">
<title>Graphical Class Hierarchy</title>
<polygon fill="white" stroke="transparent" points="-4,4 -4,-100 471,-100 471,4 -4,4"/>
<!-- Node0 -->
<g id="node1" class="node">
<title>Node0</title>
<g id="a_node1"><a xlink:href="classidg__param__instance.html" target="_top" xlink:title="Base class for idg entities with parameters.">
<polygon fill="white" stroke="black" points="0,-57.5 0,-76.5 115,-76.5 115,-57.5 0,-57.5"/>
<text text-anchor="middle" x="57.5" y="-64.5" font-family="Helvetica,sans-Serif" font-size="10.00">idg_param_instance</text>
</a>
</g>
</g>
<!-- Node1 -->
<g id="node2" class="node">
<title>Node1</title>
<g id="a_node2"><a xlink:href="classidg__attribute.html" target="_top" xlink:title=" ">
<polygon fill="white" stroke="black" points="180,-76.5 180,-95.5 259,-95.5 259,-76.5 180,-76.5"/>
<text text-anchor="middle" x="219.5" y="-83.5" font-family="Helvetica,sans-Serif" font-size="10.00">idg_attribute</text>
</a>
</g>
</g>
<!-- Node0&#45;&gt;Node1 -->
<g id="edge1" class="edge">
<title>Node0&#45;&gt;Node1</title>
<path fill="none" stroke="midnightblue" d="M125.53,-74.96C144.06,-77.16 163.55,-79.47 179.87,-81.41"/>
<polygon fill="midnightblue" stroke="midnightblue" points="125.7,-71.46 115.36,-73.75 124.88,-78.41 125.7,-71.46"/>
</g>
<!-- Node2 -->
<g id="node3" class="node">
<title>Node2</title>
<g id="a_node3"><a xlink:href="classidg__datasource__instance.html" target="_top" xlink:title="The source of all data.">
<polygon fill="white" stroke="black" points="151,-38.5 151,-57.5 288,-57.5 288,-38.5 151,-38.5"/>
<text text-anchor="middle" x="219.5" y="-45.5" font-family="Helvetica,sans-Serif" font-size="10.00">idg_datasource_instance</text>
</a>
</g>
</g>
<!-- Node0&#45;&gt;Node2 -->
<g id="edge2" class="edge">
<title>Node0&#45;&gt;Node2</title>
<path fill="none" stroke="midnightblue" d="M125.48,-59.05C133.88,-58.05 142.47,-57.03 150.88,-56.03"/>
<polygon fill="midnightblue" stroke="midnightblue" points="124.88,-55.59 115.36,-60.25 125.7,-62.54 124.88,-55.59"/>
</g>
<!-- Node3 -->
<g id="node4" class="node">
<title>Node3</title>
<g id="a_node4"><a xlink:href="classidg__datasource__phpscript.html" target="_top" xlink:title=" ">
<polygon fill="white" stroke="black" points="325,-76.5 325,-95.5 466,-95.5 466,-76.5 325,-76.5"/>
<text text-anchor="middle" x="395.5" y="-83.5" font-family="Helvetica,sans-Serif" font-size="10.00">idg_datasource_phpscript</text>
</a>
</g>
</g>
<!-- Node2&#45;&gt;Node3 -->
<g id="edge3" class="edge">
<title>Node2&#45;&gt;Node3</title>
<path fill="none" stroke="midnightblue" d="M274.31,-59.75C298.92,-65.13 327.69,-71.41 350.91,-76.48"/>
<polygon fill="midnightblue" stroke="midnightblue" points="274.92,-56.3 264.41,-57.59 273.43,-63.14 274.92,-56.3"/>
</g>
<!-- Node4 -->
<g id="node5" class="node">
<title>Node4</title>
<g id="a_node5"><a xlink:href="classidg__datasource__sourcefile.html" target="_top" xlink:title=" ">
<polygon fill="white" stroke="black" points="324,-38.5 324,-57.5 467,-57.5 467,-38.5 324,-38.5"/>
<text text-anchor="middle" x="395.5" y="-45.5" font-family="Helvetica,sans-Serif" font-size="10.00">idg_datasource_sourcefile</text>
</a>
</g>
</g>
<!-- Node2&#45;&gt;Node4 -->
<g id="edge4" class="edge">
<title>Node2&#45;&gt;Node4</title>
<path fill="none" stroke="midnightblue" d="M298.47,-48C306.89,-48 315.42,-48 323.75,-48"/>
<polygon fill="midnightblue" stroke="midnightblue" points="298.27,-44.5 288.27,-48 298.27,-51.5 298.27,-44.5"/>
</g>
<!-- Node5 -->
<g id="node6" class="node">
<title>Node5</title>
<g id="a_node6"><a xlink:href="classidg__datasource__textfile.html" target="_top" xlink:title="Returns the content of a (normally text) file.">
<polygon fill="white" stroke="black" points="330,-0.5 330,-19.5 461,-19.5 461,-0.5 330,-0.5"/>
<text text-anchor="middle" x="395.5" y="-7.5" font-family="Helvetica,sans-Serif" font-size="10.00">idg_datasource_textfile</text>
</a>
</g>
</g>
<!-- Node2&#45;&gt;Node5 -->
<g id="edge5" class="edge">
<title>Node2&#45;&gt;Node5</title>
<path fill="none" stroke="midnightblue" d="M274.31,-36.25C298.92,-30.87 327.69,-24.59 350.91,-19.52"/>
<polygon fill="midnightblue" stroke="midnightblue" points="273.43,-32.86 264.41,-38.41 274.92,-39.7 273.43,-32.86"/>
</g>
</g>
</svg>
