<?xml version="1.0" encoding="UTF-8" standalone="no"?>
<!DOCTYPE svg PUBLIC "-//W3C//DTD SVG 1.1//EN"
 "http://www.w3.org/Graphics/SVG/1.1/DTD/svg11.dtd">
<!-- Generated by graphviz version 2.43.0 (0)
 -->
<!-- Title: Graphical Class Hierarchy Pages: 1 -->
<svg width="1021pt" height="237pt"
 viewBox="0.00 0.00 1021.00 237.00" xmlns="http://www.w3.org/2000/svg" xmlns:xlink="http://www.w3.org/1999/xlink">
<g id="graph0" class="graph" transform="scale(1 1) rotate(0) translate(4 233)">
<title>Graphical Class Hierarchy</title>
<polygon fill="white" stroke="transparent" points="-4,4 -4,-233 1017,-233 1017,4 -4,4"/>
<!-- Node0 -->
<g id="node1" class="node">
<title>Node0</title>
<g id="a_node1"><a xlink:href="classidg__object__type.html" target="_top" xlink:title=" ">
<polygon fill="white" stroke="black" points="0,-133.5 0,-152.5 94,-152.5 94,-133.5 0,-133.5"/>
<text text-anchor="middle" x="47" y="-140.5" font-family="Helvetica,sans-Serif" font-size="10.00">idg_object_type</text>
</a>
</g>
</g>
<!-- Node1 -->
<g id="node2" class="node">
<title>Node1</title>
<g id="a_node2"><a xlink:href="classidg__declaration__type.html" target="_top" xlink:title=" ">
<polygon fill="white" stroke="black" points="130,-171.5 130,-190.5 249,-190.5 249,-171.5 130,-171.5"/>
<text text-anchor="middle" x="189.5" y="-178.5" font-family="Helvetica,sans-Serif" font-size="10.00">idg_declaration_type</text>
</a>
</g>
</g>
<!-- Node0&#45;&gt;Node1 -->
<g id="edge1" class="edge">
<title>Node0&#45;&gt;Node1</title>
<path fill="none" stroke="midnightblue" d="M93.28,-155.25C112.64,-160.48 134.92,-166.51 153.06,-171.41"/>
<polygon fill="midnightblue" stroke="midnightblue" points="94.02,-151.82 83.45,-152.59 92.19,-158.58 94.02,-151.82"/>
</g>
<!-- Node4 -->
<g id="node5" class="node">
<title>Node4</title>
<g id="a_node5"><a xlink:href="classidg__tree__node__type.html" target="_top" xlink:title=" ">
<polygon fill="white" stroke="black" points="133,-114.5 133,-133.5 246,-133.5 246,-114.5 133,-114.5"/>
<text text-anchor="middle" x="189.5" y="-121.5" font-family="Helvetica,sans-Serif" font-size="10.00">idg_tree_node_type</text>
</a>
</g>
</g>
<!-- Node0&#45;&gt;Node4 -->
<g id="edge4" class="edge">
<title>Node0&#45;&gt;Node4</title>
<path fill="none" stroke="midnightblue" d="M104.03,-135.42C113.43,-134.15 123.19,-132.83 132.59,-131.56"/>
<polygon fill="midnightblue" stroke="midnightblue" points="103.45,-131.97 94,-136.78 104.38,-138.91 103.45,-131.97"/>
</g>
<!-- Node2 -->
<g id="node3" class="node">
<title>Node2</title>
<g id="a_node3"><a xlink:href="classidg__datasource__declaration__type.html" target="_top" xlink:title=" ">
<polygon fill="white" stroke="black" points="285,-209.5 285,-228.5 463,-228.5 463,-209.5 285,-209.5"/>
<text text-anchor="middle" x="374" y="-216.5" font-family="Helvetica,sans-Serif" font-size="10.00">idg_datasource_declaration_type</text>
</a>
</g>
</g>
<!-- Node1&#45;&gt;Node2 -->
<g id="edge2" class="edge">
<title>Node1&#45;&gt;Node2</title>
<path fill="none" stroke="midnightblue" d="M246.6,-192.68C272.48,-198.07 302.81,-204.39 327.28,-209.48"/>
<polygon fill="midnightblue" stroke="midnightblue" points="247.06,-189.2 236.55,-190.59 245.63,-196.05 247.06,-189.2"/>
</g>
<!-- Node3 -->
<g id="node4" class="node">
<title>Node3</title>
<g id="a_node4"><a xlink:href="classidg__renderer__declaration__type.html" target="_top" xlink:title=" ">
<polygon fill="white" stroke="black" points="291.5,-171.5 291.5,-190.5 456.5,-190.5 456.5,-171.5 291.5,-171.5"/>
<text text-anchor="middle" x="374" y="-178.5" font-family="Helvetica,sans-Serif" font-size="10.00">idg_renderer_declaration_type</text>
</a>
</g>
</g>
<!-- Node1&#45;&gt;Node3 -->
<g id="edge3" class="edge">
<title>Node1&#45;&gt;Node3</title>
<path fill="none" stroke="midnightblue" d="M259.51,-181C269.93,-181 280.77,-181 291.42,-181"/>
<polygon fill="midnightblue" stroke="midnightblue" points="259.25,-177.5 249.25,-181 259.25,-184.5 259.25,-177.5"/>
</g>
<!-- Node5 -->
<g id="node6" class="node">
<title>Node5</title>
<g id="a_node6"><a xlink:href="classidg__site__element__type.html" target="_top" xlink:title=" ">
<polygon fill="white" stroke="black" points="310,-133.5 310,-152.5 438,-152.5 438,-133.5 310,-133.5"/>
<text text-anchor="middle" x="374" y="-140.5" font-family="Helvetica,sans-Serif" font-size="10.00">idg_site_element_type</text>
</a>
</g>
</g>
<!-- Node4&#45;&gt;Node5 -->
<g id="edge5" class="edge">
<title>Node4&#45;&gt;Node5</title>
<path fill="none" stroke="midnightblue" d="M256.35,-130.86C273.82,-132.67 292.63,-134.63 309.94,-136.43"/>
<polygon fill="midnightblue" stroke="midnightblue" points="256.56,-127.36 246.25,-129.8 255.83,-134.32 256.56,-127.36"/>
</g>
<!-- Node9 -->
<g id="node10" class="node">
<title>Node9</title>
<g id="a_node10"><a xlink:href="classidg__view__html__slot__type.html" target="_top" xlink:title=" ">
<polygon fill="white" stroke="black" points="305,-95.5 305,-114.5 443,-114.5 443,-95.5 305,-95.5"/>
<text text-anchor="middle" x="374" y="-102.5" font-family="Helvetica,sans-Serif" font-size="10.00">idg_view_html_slot_type</text>
</a>
</g>
</g>
<!-- Node4&#45;&gt;Node9 -->
<g id="edge9" class="edge">
<title>Node4&#45;&gt;Node9</title>
<path fill="none" stroke="midnightblue" d="M256.39,-117.14C272.1,-115.5 288.9,-113.76 304.72,-112.11"/>
<polygon fill="midnightblue" stroke="midnightblue" points="255.83,-113.68 246.25,-118.2 256.56,-120.64 255.83,-113.68"/>
</g>
<!-- Node10 -->
<g id="node11" class="node">
<title>Node10</title>
<g id="a_node11"><a xlink:href="classidg__view__type.html" target="_top" xlink:title=" ">
<polygon fill="white" stroke="black" points="330.5,-57.5 330.5,-76.5 417.5,-76.5 417.5,-57.5 330.5,-57.5"/>
<text text-anchor="middle" x="374" y="-64.5" font-family="Helvetica,sans-Serif" font-size="10.00">idg_view_type</text>
</a>
</g>
</g>
<!-- Node4&#45;&gt;Node10 -->
<g id="edge10" class="edge">
<title>Node4&#45;&gt;Node10</title>
<path fill="none" stroke="midnightblue" d="M220.8,-110.29C239.11,-102.39 263.07,-92.72 285,-86 299.49,-81.56 315.64,-77.75 330.1,-74.74"/>
<polygon fill="midnightblue" stroke="midnightblue" points="219.28,-107.13 211.52,-114.35 222.09,-113.54 219.28,-107.13"/>
</g>
<!-- Node6 -->
<g id="node7" class="node">
<title>Node6</title>
<g id="a_node7"><a xlink:href="classidg__document__type.html" target="_top" xlink:title=" ">
<polygon fill="white" stroke="black" points="500,-171.5 500,-190.5 613,-190.5 613,-171.5 500,-171.5"/>
<text text-anchor="middle" x="556.5" y="-178.5" font-family="Helvetica,sans-Serif" font-size="10.00">idg_document_type</text>
</a>
</g>
</g>
<!-- Node5&#45;&gt;Node6 -->
<g id="edge6" class="edge">
<title>Node5&#45;&gt;Node6</title>
<path fill="none" stroke="midnightblue" d="M430.48,-154.68C456.08,-160.07 486.08,-166.39 510.28,-171.48"/>
<polygon fill="midnightblue" stroke="midnightblue" points="431.05,-151.22 420.55,-152.59 429.61,-158.07 431.05,-151.22"/>
</g>
<!-- Node7 -->
<g id="node8" class="node">
<title>Node7</title>
<g id="a_node8"><a xlink:href="classidg__folder__type.html" target="_top" xlink:title=" ">
<polygon fill="white" stroke="black" points="510.5,-133.5 510.5,-152.5 602.5,-152.5 602.5,-133.5 510.5,-133.5"/>
<text text-anchor="middle" x="556.5" y="-140.5" font-family="Helvetica,sans-Serif" font-size="10.00">idg_folder_type</text>
</a>
</g>
</g>
<!-- Node5&#45;&gt;Node7 -->
<g id="edge7" class="edge">
<title>Node5&#45;&gt;Node7</title>
<path fill="none" stroke="midnightblue" d="M448.31,-143C469.3,-143 491.55,-143 510.31,-143"/>
<polygon fill="midnightblue" stroke="midnightblue" points="448.13,-139.5 438.13,-143 448.13,-146.5 448.13,-139.5"/>
</g>
<!-- Node8 -->
<g id="node9" class="node">
<title>Node8</title>
<g id="a_node9"><a xlink:href="classidg__site__type.html" target="_top" xlink:title=" ">
<polygon fill="white" stroke="black" points="515.5,-95.5 515.5,-114.5 597.5,-114.5 597.5,-95.5 515.5,-95.5"/>
<text text-anchor="middle" x="556.5" y="-102.5" font-family="Helvetica,sans-Serif" font-size="10.00">idg_site_type</text>
</a>
</g>
</g>
<!-- Node5&#45;&gt;Node8 -->
<g id="edge8" class="edge">
<title>Node5&#45;&gt;Node8</title>
<path fill="none" stroke="midnightblue" d="M430.42,-131.33C457.91,-125.55 490.48,-118.69 515.5,-113.42"/>
<polygon fill="midnightblue" stroke="midnightblue" points="429.61,-127.93 420.55,-133.41 431.05,-134.78 429.61,-127.93"/>
</g>
<!-- Node11 -->
<g id="node12" class="node">
<title>Node11</title>
<g id="a_node12"><a xlink:href="classidg__view__html__type.html" target="_top" xlink:title="Parent class of all views.">
<polygon fill="white" stroke="black" points="499,-57.5 499,-76.5 614,-76.5 614,-57.5 499,-57.5"/>
<text text-anchor="middle" x="556.5" y="-64.5" font-family="Helvetica,sans-Serif" font-size="10.00">idg_view_html_type</text>
</a>
</g>
</g>
<!-- Node10&#45;&gt;Node11 -->
<g id="edge11" class="edge">
<title>Node10&#45;&gt;Node11</title>
<path fill="none" stroke="midnightblue" d="M428.03,-67C450.23,-67 476.09,-67 498.68,-67"/>
<polygon fill="midnightblue" stroke="midnightblue" points="427.78,-63.5 417.78,-67 427.78,-70.5 427.78,-63.5"/>
</g>
<!-- Node12 -->
<g id="node13" class="node">
<title>Node12</title>
<g id="a_node13"><a xlink:href="classidg__view__html__element__type.html" target="_top" xlink:title=" ">
<polygon fill="white" stroke="black" points="650,-57.5 650,-76.5 811,-76.5 811,-57.5 650,-57.5"/>
<text text-anchor="middle" x="730.5" y="-64.5" font-family="Helvetica,sans-Serif" font-size="10.00">idg_view_html_element_type</text>
</a>
</g>
</g>
<!-- Node11&#45;&gt;Node12 -->
<g id="edge12" class="edge">
<title>Node11&#45;&gt;Node12</title>
<path fill="none" stroke="midnightblue" d="M624.31,-67C632.64,-67 641.22,-67 649.73,-67"/>
<polygon fill="midnightblue" stroke="midnightblue" points="624.3,-63.5 614.3,-67 624.3,-70.5 624.3,-63.5"/>
</g>
<!-- Node13 -->
<g id="node14" class="node">
<title>Node13</title>
<g id="a_node14"><a xlink:href="classidg__view__html__container__type.html" target="_top" xlink:title=" ">
<polygon fill="white" stroke="black" points="847,-114.5 847,-133.5 1013,-133.5 1013,-114.5 847,-114.5"/>
<text text-anchor="middle" x="930" y="-121.5" font-family="Helvetica,sans-Serif" font-size="10.00">idg_view_html_container_type</text>
</a>
</g>
</g>
<!-- Node12&#45;&gt;Node13 -->
<g id="edge13" class="edge">
<title>Node12&#45;&gt;Node13</title>
<path fill="none" stroke="midnightblue" d="M767.9,-79.91C790.51,-87.69 820.26,-97.52 847,-105 859.1,-108.39 872.33,-111.64 884.56,-114.47"/>
<polygon fill="midnightblue" stroke="midnightblue" points="768.95,-76.57 758.36,-76.6 766.66,-83.18 768.95,-76.57"/>
</g>
<!-- Node14 -->
<g id="node15" class="node">
<title>Node14</title>
<g id="a_node15"><a xlink:href="classidg__view__html__item__type.html" target="_top" xlink:title=" ">
<polygon fill="white" stroke="black" points="858.5,-76.5 858.5,-95.5 1001.5,-95.5 1001.5,-76.5 858.5,-76.5"/>
<text text-anchor="middle" x="930" y="-83.5" font-family="Helvetica,sans-Serif" font-size="10.00">idg_view_html_item_type</text>
</a>
</g>
</g>
<!-- Node12&#45;&gt;Node14 -->
<g id="edge14" class="edge">
<title>Node12&#45;&gt;Node14</title>
<path fill="none" stroke="midnightblue" d="M821.23,-75.63C833.72,-76.83 846.41,-78.05 858.48,-79.22"/>
<polygon fill="midnightblue" stroke="midnightblue" points="821.55,-72.15 811.26,-74.67 820.88,-79.11 821.55,-72.15"/>
</g>
<!-- Node15 -->
<g id="node16" class="node">
<title>Node15</title>
<g id="a_node16"><a xlink:href="classidg__view__html__part__type.html" target="_top" xlink:title=" ">
<polygon fill="white" stroke="black" points="860,-38.5 860,-57.5 1000,-57.5 1000,-38.5 860,-38.5"/>
<text text-anchor="middle" x="930" y="-45.5" font-family="Helvetica,sans-Serif" font-size="10.00">idg_view_html_part_type</text>
</a>
</g>
</g>
<!-- Node12&#45;&gt;Node15 -->
<g id="edge15" class="edge">
<title>Node12&#45;&gt;Node15</title>
<path fill="none" stroke="midnightblue" d="M821.5,-58.34C834.34,-57.11 847.38,-55.85 859.74,-54.66"/>
<polygon fill="midnightblue" stroke="midnightblue" points="820.88,-54.89 811.26,-59.33 821.55,-61.85 820.88,-54.89"/>
</g>
<!-- Node16 -->
<g id="node17" class="node">
<title>Node16</title>
<g id="a_node17"><a xlink:href="classidg__view__html__renderer__type.html" target="_top" xlink:title=" ">
<polygon fill="white" stroke="black" points="849.5,-0.5 849.5,-19.5 1010.5,-19.5 1010.5,-0.5 849.5,-0.5"/>
<text text-anchor="middle" x="930" y="-7.5" font-family="Helvetica,sans-Serif" font-size="10.00">idg_view_html_renderer_type</text>
</a>
</g>
</g>
<!-- Node12&#45;&gt;Node16 -->
<g id="edge16" class="edge">
<title>Node12&#45;&gt;Node16</title>
<path fill="none" stroke="midnightblue" d="M767.9,-54.09C790.51,-46.31 820.26,-36.48 847,-29 859.1,-25.61 872.33,-22.36 884.56,-19.53"/>
<polygon fill="midnightblue" stroke="midnightblue" points="766.66,-50.82 758.36,-57.4 768.95,-57.43 766.66,-50.82"/>
</g>
</g>
</svg>
