<?xml version="1.0" encoding="UTF-8" standalone="no"?>
<!DOCTYPE svg PUBLIC "-//W3C//DTD SVG 1.1//EN"
 "http://www.w3.org/Graphics/SVG/1.1/DTD/svg11.dtd">
<!-- Generated by graphviz version 2.43.0 (0)
 -->
<!-- Title: Graphical Class Hierarchy Pages: 1 -->
<svg width="783pt" height="814pt"
 viewBox="0.00 0.00 783.00 814.00" xmlns="http://www.w3.org/2000/svg" xmlns:xlink="http://www.w3.org/1999/xlink">
<g id="graph0" class="graph" transform="scale(1 1) rotate(0) translate(4 810)">
<title>Graphical Class Hierarchy</title>
<polygon fill="white" stroke="transparent" points="-4,4 -4,-810 779,-810 779,4 -4,4"/>
<!-- Node0 -->
<g id="node1" class="node">
<title>Node0</title>
<g id="a_node1"><a xlink:href="classidg__object.html" target="_top" xlink:title="Base class for all objects.">
<polygon fill="white" stroke="black" points="0,-700.5 0,-719.5 67,-719.5 67,-700.5 0,-700.5"/>
<text text-anchor="middle" x="33.5" y="-707.5" font-family="Helvetica,sans-Serif" font-size="10.00">idg_object</text>
</a>
</g>
</g>
<!-- Node1 -->
<g id="node2" class="node">
<title>Node1</title>
<g id="a_node2"><a xlink:href="classidg__leafnode.html" target="_top" xlink:title="Base class for objects organized in a tree structure.">
<polygon fill="white" stroke="black" points="138,-700.5 138,-719.5 218,-719.5 218,-700.5 138,-700.5"/>
<text text-anchor="middle" x="178" y="-707.5" font-family="Helvetica,sans-Serif" font-size="10.00">idg_leafnode</text>
</a>
</g>
</g>
<!-- Node0&#45;&gt;Node1 -->
<g id="edge1" class="edge">
<title>Node0&#45;&gt;Node1</title>
<path fill="none" stroke="midnightblue" d="M77.21,-710C96.47,-710 119.06,-710 137.87,-710"/>
<polygon fill="midnightblue" stroke="midnightblue" points="77.19,-706.5 67.19,-710 77.19,-713.5 77.19,-706.5"/>
</g>
<!-- Node2 -->
<g id="node3" class="node">
<title>Node2</title>
<g id="a_node3"><a xlink:href="classidg__datasource.html" target="_top" xlink:title="A data source.">
<polygon fill="white" stroke="black" points="330.5,-643.5 330.5,-662.5 421.5,-662.5 421.5,-643.5 330.5,-643.5"/>
<text text-anchor="middle" x="376" y="-650.5" font-family="Helvetica,sans-Serif" font-size="10.00">idg_datasource</text>
</a>
</g>
</g>
<!-- Node1&#45;&gt;Node2 -->
<g id="edge2" class="edge">
<title>Node1&#45;&gt;Node2</title>
<path fill="none" stroke="midnightblue" d="M221.59,-697.62C257.77,-687.09 308.98,-672.2 342.09,-662.57"/>
<polygon fill="midnightblue" stroke="midnightblue" points="220.43,-694.31 211.81,-700.46 222.39,-701.03 220.43,-694.31"/>
</g>
<!-- Node3 -->
<g id="node4" class="node">
<title>Node3</title>
<g id="a_node4"><a xlink:href="classidg__renderer.html" target="_top" xlink:title="A renderer.">
<polygon fill="white" stroke="black" points="337,-738.5 337,-757.5 415,-757.5 415,-738.5 337,-738.5"/>
<text text-anchor="middle" x="376" y="-745.5" font-family="Helvetica,sans-Serif" font-size="10.00">idg_renderer</text>
</a>
</g>
</g>
<!-- Node1&#45;&gt;Node3 -->
<g id="edge3" class="edge">
<title>Node1&#45;&gt;Node3</title>
<path fill="none" stroke="midnightblue" d="M228.28,-719.55C261.94,-726.08 305.89,-734.6 336.88,-740.61"/>
<polygon fill="midnightblue" stroke="midnightblue" points="228.68,-716.07 218.19,-717.6 227.34,-722.94 228.68,-716.07"/>
</g>
<!-- Node4 -->
<g id="node5" class="node">
<title>Node4</title>
<g id="a_node5"><a xlink:href="classidg__treenode.html" target="_top" xlink:title="Base class for all tree nodes which are not leaf nodes.">
<polygon fill="white" stroke="black" points="336,-700.5 336,-719.5 416,-719.5 416,-700.5 336,-700.5"/>
<text text-anchor="middle" x="376" y="-707.5" font-family="Helvetica,sans-Serif" font-size="10.00">idg_treenode</text>
</a>
</g>
</g>
<!-- Node1&#45;&gt;Node4 -->
<g id="edge4" class="edge">
<title>Node1&#45;&gt;Node4</title>
<path fill="none" stroke="midnightblue" d="M228.61,-710C261.87,-710 305.05,-710 335.88,-710"/>
<polygon fill="midnightblue" stroke="midnightblue" points="228.19,-706.5 218.19,-710 228.19,-713.5 228.19,-706.5"/>
</g>
<!-- Node5 -->
<g id="node6" class="node">
<title>Node5</title>
<g id="a_node6"><a xlink:href="classidg__filter.html" target="_top" xlink:title="A filter.">
<polygon fill="white" stroke="black" points="546.5,-748.5 546.5,-767.5 605.5,-767.5 605.5,-748.5 546.5,-748.5"/>
<text text-anchor="middle" x="576" y="-755.5" font-family="Helvetica,sans-Serif" font-size="10.00">idg_filter</text>
</a>
</g>
</g>
<!-- Node4&#45;&gt;Node5 -->
<g id="edge5" class="edge">
<title>Node4&#45;&gt;Node5</title>
<path fill="none" stroke="midnightblue" d="M426.01,-720.35C438.13,-723.04 451.06,-726.03 463,-729 479.11,-733.01 482.94,-734.76 499,-739 514.65,-743.13 532.17,-747.52 546.44,-751.05"/>
<polygon fill="midnightblue" stroke="midnightblue" points="426.58,-716.89 416.06,-718.17 425.08,-723.73 426.58,-716.89"/>
</g>
<!-- Node6 -->
<g id="node7" class="node">
<title>Node6</title>
<g id="a_node7"><a xlink:href="classidg__site__element.html" target="_top" xlink:title="Base class for elements of a site definition.">
<polygon fill="white" stroke="black" points="525.5,-710.5 525.5,-729.5 626.5,-729.5 626.5,-710.5 525.5,-710.5"/>
<text text-anchor="middle" x="576" y="-717.5" font-family="Helvetica,sans-Serif" font-size="10.00">idg_site_element</text>
</a>
</g>
</g>
<!-- Node4&#45;&gt;Node6 -->
<g id="edge6" class="edge">
<title>Node4&#45;&gt;Node6</title>
<path fill="none" stroke="midnightblue" d="M426.43,-712.5C456.65,-714.02 495.16,-715.97 525.41,-717.5"/>
<polygon fill="midnightblue" stroke="midnightblue" points="426.28,-708.98 416.12,-711.98 425.93,-715.98 426.28,-708.98"/>
</g>
<!-- Node10 -->
<g id="node11" class="node">
<title>Node10</title>
<g id="a_node11"><a xlink:href="classidg__view__element.html" target="_top" xlink:title="The parent class for idg_view and every sibling thereof.">
<polygon fill="white" stroke="black" points="523,-634.5 523,-653.5 629,-653.5 629,-634.5 523,-634.5"/>
<text text-anchor="middle" x="576" y="-641.5" font-family="Helvetica,sans-Serif" font-size="10.00">idg_view_element</text>
</a>
</g>
</g>
<!-- Node4&#45;&gt;Node10 -->
<g id="edge10" class="edge">
<title>Node4&#45;&gt;Node10</title>
<path fill="none" stroke="midnightblue" d="M415.59,-697.14C454,-684.33 512.07,-664.98 546.5,-653.5"/>
<polygon fill="midnightblue" stroke="midnightblue" points="414.17,-693.92 405.79,-700.4 416.38,-700.56 414.17,-693.92"/>
</g>
<!-- Node7 -->
<g id="node8" class="node">
<title>Node7</title>
<g id="a_node8"><a xlink:href="classidg__document.html" target="_top" xlink:title="A document.">
<polygon fill="white" stroke="black" points="689,-786.5 689,-805.5 775,-805.5 775,-786.5 689,-786.5"/>
<text text-anchor="middle" x="732" y="-793.5" font-family="Helvetica,sans-Serif" font-size="10.00">idg_document</text>
</a>
</g>
</g>
<!-- Node6&#45;&gt;Node7 -->
<g id="edge7" class="edge">
<title>Node6&#45;&gt;Node7</title>
<path fill="none" stroke="midnightblue" d="M636.58,-731.36C642.31,-733.49 647.88,-736.01 653,-739 673.09,-750.73 670.05,-763.51 689,-777 694.09,-780.62 699.97,-783.8 705.7,-786.47"/>
<polygon fill="midnightblue" stroke="midnightblue" points="637.43,-727.96 626.84,-728.14 635.24,-734.61 637.43,-727.96"/>
</g>
<!-- Node8 -->
<g id="node9" class="node">
<title>Node8</title>
<g id="a_node9"><a xlink:href="classidg__folder.html" target="_top" xlink:title="A folder.">
<polygon fill="white" stroke="black" points="699.5,-748.5 699.5,-767.5 764.5,-767.5 764.5,-748.5 699.5,-748.5"/>
<text text-anchor="middle" x="732" y="-755.5" font-family="Helvetica,sans-Serif" font-size="10.00">idg_folder</text>
</a>
</g>
</g>
<!-- Node6&#45;&gt;Node8 -->
<g id="edge8" class="edge">
<title>Node6&#45;&gt;Node8</title>
<path fill="none" stroke="midnightblue" d="M625.88,-732.06C649.93,-738 678.23,-744.98 699.41,-750.2"/>
<polygon fill="midnightblue" stroke="midnightblue" points="626.41,-728.59 615.86,-729.59 624.73,-735.38 626.41,-728.59"/>
</g>
<!-- Node9 -->
<g id="node10" class="node">
<title>Node9</title>
<g id="a_node10"><a xlink:href="classidg__site.html" target="_top" xlink:title="The object that defines a whole site, i.e.">
<polygon fill="white" stroke="black" points="704.5,-710.5 704.5,-729.5 759.5,-729.5 759.5,-710.5 704.5,-710.5"/>
<text text-anchor="middle" x="732" y="-717.5" font-family="Helvetica,sans-Serif" font-size="10.00">idg_site</text>
</a>
</g>
</g>
<!-- Node6&#45;&gt;Node9 -->
<g id="edge9" class="edge">
<title>Node6&#45;&gt;Node9</title>
<path fill="none" stroke="midnightblue" d="M636.78,-720C660.16,-720 685.77,-720 704.39,-720"/>
<polygon fill="midnightblue" stroke="midnightblue" points="636.57,-716.5 626.57,-720 636.57,-723.5 636.57,-716.5"/>
</g>
<!-- Node11 -->
<g id="node12" class="node">
<title>Node11</title>
<g id="a_node12"><a xlink:href="classidg__container.html" target="_top" xlink:title="A container can contain containers as well as other elements.">
<polygon fill="white" stroke="black" points="690.5,-672.5 690.5,-691.5 773.5,-691.5 773.5,-672.5 690.5,-672.5"/>
<text text-anchor="middle" x="732" y="-679.5" font-family="Helvetica,sans-Serif" font-size="10.00">idg_container</text>
</a>
</g>
</g>
<!-- Node10&#45;&gt;Node11 -->
<g id="edge11" class="edge">
<title>Node10&#45;&gt;Node11</title>
<path fill="none" stroke="midnightblue" d="M625.79,-656.04C647.31,-661.35 672.23,-667.5 692.42,-672.48"/>
<polygon fill="midnightblue" stroke="midnightblue" points="626.41,-652.59 615.86,-653.59 624.73,-659.38 626.41,-652.59"/>
</g>
<!-- Node12 -->
<g id="node13" class="node">
<title>Node12</title>
<g id="a_node13"><a xlink:href="classidg__fragment.html" target="_top" xlink:title="A fragment produces output, has access to attributes and can also have a data source.">
<polygon fill="white" stroke="black" points="691,-558.5 691,-577.5 773,-577.5 773,-558.5 691,-558.5"/>
<text text-anchor="middle" x="732" y="-565.5" font-family="Helvetica,sans-Serif" font-size="10.00">idg_fragment</text>
</a>
</g>
</g>
<!-- Node10&#45;&gt;Node12 -->
<g id="edge12" class="edge">
<title>Node10&#45;&gt;Node12</title>
<path fill="none" stroke="midnightblue" d="M604.1,-629.77C626.67,-618.02 659.75,-601.05 689,-587 695.49,-583.88 702.61,-580.61 709.11,-577.67"/>
<polygon fill="midnightblue" stroke="midnightblue" points="602.35,-626.73 595.11,-634.46 605.59,-632.94 602.35,-626.73"/>
</g>
<!-- Node13 -->
<g id="node14" class="node">
<title>Node13</title>
<g id="a_node14"><a xlink:href="classidg__slot.html" target="_top" xlink:title="A slot is where the output produced by a renderer has its place inside the view.">
<polygon fill="white" stroke="black" points="704.5,-634.5 704.5,-653.5 759.5,-653.5 759.5,-634.5 704.5,-634.5"/>
<text text-anchor="middle" x="732" y="-641.5" font-family="Helvetica,sans-Serif" font-size="10.00">idg_slot</text>
</a>
</g>
</g>
<!-- Node10&#45;&gt;Node13 -->
<g id="edge13" class="edge">
<title>Node10&#45;&gt;Node13</title>
<path fill="none" stroke="midnightblue" d="M639.4,-644C662.08,-644 686.51,-644 704.43,-644"/>
<polygon fill="midnightblue" stroke="midnightblue" points="639.14,-640.5 629.14,-644 639.14,-647.5 639.14,-640.5"/>
</g>
<!-- Node14 -->
<g id="node15" class="node">
<title>Node14</title>
<g id="a_node15"><a xlink:href="classidg__view.html" target="_top" xlink:title="A view.">
<polygon fill="white" stroke="black" points="702,-596.5 702,-615.5 762,-615.5 762,-596.5 702,-596.5"/>
<text text-anchor="middle" x="732" y="-603.5" font-family="Helvetica,sans-Serif" font-size="10.00">idg_view</text>
</a>
</g>
</g>
<!-- Node10&#45;&gt;Node14 -->
<g id="edge14" class="edge">
<title>Node10&#45;&gt;Node14</title>
<path fill="none" stroke="midnightblue" d="M625.9,-631.93C650.9,-625.77 680.48,-618.47 701.88,-613.19"/>
<polygon fill="midnightblue" stroke="midnightblue" points="624.73,-628.62 615.86,-634.41 626.41,-635.41 624.73,-628.62"/>
</g>
<!-- Node17 -->
<g id="node16" class="node">
<title>Node17</title>
<g id="a_node16"><a xlink:href="classidg__object__implementation.html" target="_top" xlink:title="Base class for ancillary objects that have no associated type information.">
<polygon fill="white" stroke="black" points="103,-229.5 103,-248.5 253,-248.5 253,-229.5 103,-229.5"/>
<text text-anchor="middle" x="178" y="-236.5" font-family="Helvetica,sans-Serif" font-size="10.00">idg_object_implementation</text>
</a>
</g>
</g>
<!-- Node18 -->
<g id="node17" class="node">
<title>Node18</title>
<g id="a_node17"><a xlink:href="classidg__datasource__implementation.html" target="_top" xlink:title="An object instance of a data source.">
<polygon fill="white" stroke="black" points="289,-434.5 289,-453.5 463,-453.5 463,-434.5 289,-434.5"/>
<text text-anchor="middle" x="376" y="-441.5" font-family="Helvetica,sans-Serif" font-size="10.00">idg_datasource_implementation</text>
</a>
</g>
</g>
<!-- Node17&#45;&gt;Node18 -->
<g id="edge15" class="edge">
<title>Node17&#45;&gt;Node18</title>
<path fill="none" stroke="midnightblue" d="M195.23,-255.98C234.66,-297.21 334.5,-401.64 365.6,-434.17"/>
<polygon fill="midnightblue" stroke="midnightblue" points="197.63,-253.42 188.19,-248.61 192.57,-258.26 197.63,-253.42"/>
</g>
<!-- Node25 -->
<g id="node24" class="node">
<title>Node25</title>
<g id="a_node24"><a xlink:href="classidg__fragment__implementation.html" target="_top" xlink:title="An object instance of a fragment.">
<polygon fill="white" stroke="black" points="293.5,-251.5 293.5,-270.5 458.5,-270.5 458.5,-251.5 293.5,-251.5"/>
<text text-anchor="middle" x="376" y="-258.5" font-family="Helvetica,sans-Serif" font-size="10.00">idg_fragment_implementation</text>
</a>
</g>
</g>
<!-- Node17&#45;&gt;Node25 -->
<g id="edge22" class="edge">
<title>Node17&#45;&gt;Node25</title>
<path fill="none" stroke="midnightblue" d="M263.35,-248.47C273.27,-249.58 283.37,-250.72 293.26,-251.82"/>
<polygon fill="midnightblue" stroke="midnightblue" points="263.43,-244.95 253.1,-247.32 262.65,-251.91 263.43,-244.95"/>
</g>
<!-- Node28 -->
<g id="node27" class="node">
<title>Node28</title>
<g id="a_node27"><a xlink:href="classidg__renderer__implementation.html" target="_top" xlink:title="The actual renderer object.">
<polygon fill="white" stroke="black" points="295.5,-183.5 295.5,-202.5 456.5,-202.5 456.5,-183.5 295.5,-183.5"/>
<text text-anchor="middle" x="376" y="-190.5" font-family="Helvetica,sans-Serif" font-size="10.00">idg_renderer_implementation</text>
</a>
</g>
</g>
<!-- Node17&#45;&gt;Node28 -->
<g id="edge25" class="edge">
<title>Node17&#45;&gt;Node28</title>
<path fill="none" stroke="midnightblue" d="M229.42,-227.17C262.05,-219.51 303.97,-209.67 334.44,-202.52"/>
<polygon fill="midnightblue" stroke="midnightblue" points="228.55,-223.78 219.61,-229.47 230.15,-230.59 228.55,-223.78"/>
</g>
<!-- Node32 -->
<g id="node31" class="node">
<title>Node32</title>
<g id="a_node31"><a xlink:href="classidg__view__implementation.html" target="_top" xlink:title="An object instance of a view.">
<polygon fill="white" stroke="black" points="304.5,-57.5 304.5,-76.5 447.5,-76.5 447.5,-57.5 304.5,-57.5"/>
<text text-anchor="middle" x="376" y="-64.5" font-family="Helvetica,sans-Serif" font-size="10.00">idg_view_implementation</text>
</a>
</g>
</g>
<!-- Node17&#45;&gt;Node32 -->
<g id="edge29" class="edge">
<title>Node17&#45;&gt;Node32</title>
<path fill="none" stroke="midnightblue" d="M197.86,-222.45C238.24,-187.01 331.97,-104.76 364.02,-76.63"/>
<polygon fill="midnightblue" stroke="midnightblue" points="195.31,-220.03 190.1,-229.26 199.92,-225.29 195.31,-220.03"/>
</g>
<!-- Node19 -->
<g id="node18" class="node">
<title>Node19</title>
<g id="a_node18"><a xlink:href="classIndigo_1_1Datasource_1_1php.html" target="_top" xlink:title="Executes a php function and returns the resulting array as tokens.">
<polygon fill="white" stroke="black" points="513,-529.5 513,-548.5 639,-548.5 639,-529.5 513,-529.5"/>
<text text-anchor="middle" x="576" y="-536.5" font-family="Helvetica,sans-Serif" font-size="10.00">Indigo\Datasource\php</text>
</a>
</g>
</g>
<!-- Node18&#45;&gt;Node19 -->
<g id="edge16" class="edge">
<title>Node18&#45;&gt;Node19</title>
<path fill="none" stroke="midnightblue" d="M397.57,-459.64C420.98,-476.73 460.91,-503.85 499,-520 507.89,-523.77 517.69,-526.91 527.22,-529.48"/>
<polygon fill="midnightblue" stroke="midnightblue" points="399.57,-456.76 389.45,-453.62 395.4,-462.38 399.57,-456.76"/>
</g>
<!-- Node20 -->
<g id="node19" class="node">
<title>Node20</title>
<g id="a_node19"><a xlink:href="classIndigo_1_1Datasource_1_1rss.html" target="_top" xlink:title="Retrieves an rss feed and returns the entries as tokens.">
<polygon fill="white" stroke="black" points="515,-491.5 515,-510.5 637,-510.5 637,-491.5 515,-491.5"/>
<text text-anchor="middle" x="576" y="-498.5" font-family="Helvetica,sans-Serif" font-size="10.00">Indigo\Datasource\rss</text>
</a>
</g>
</g>
<!-- Node18&#45;&gt;Node20 -->
<g id="edge17" class="edge">
<title>Node18&#45;&gt;Node20</title>
<path fill="none" stroke="midnightblue" d="M415.71,-456.67C439.61,-464.35 470.97,-474.14 499,-482 510.65,-485.27 523.39,-488.56 535.05,-491.47"/>
<polygon fill="midnightblue" stroke="midnightblue" points="416.54,-453.27 405.95,-453.53 414.39,-459.93 416.54,-453.27"/>
</g>
<!-- Node21 -->
<g id="node20" class="node">
<title>Node21</title>
<g id="a_node20"><a xlink:href="classIndigo_1_1Datasource_1_1scanlinks.html" target="_top" xlink:title="Scans the html&#45;body stream for links and returns them as tokens.">
<polygon fill="white" stroke="black" points="499,-453.5 499,-472.5 653,-472.5 653,-453.5 499,-453.5"/>
<text text-anchor="middle" x="576" y="-460.5" font-family="Helvetica,sans-Serif" font-size="10.00">Indigo\Datasource\scanlinks</text>
</a>
</g>
</g>
<!-- Node18&#45;&gt;Node21 -->
<g id="edge18" class="edge">
<title>Node18&#45;&gt;Node21</title>
<path fill="none" stroke="midnightblue" d="M473.34,-453.24C481.94,-454.07 490.56,-454.9 498.96,-455.7"/>
<polygon fill="midnightblue" stroke="midnightblue" points="473.56,-449.75 463.27,-452.28 472.89,-456.72 473.56,-449.75"/>
</g>
<!-- Node22 -->
<g id="node21" class="node">
<title>Node22</title>
<g id="a_node21"><a xlink:href="classIndigo_1_1Datasource_1_1text.html" target="_top" xlink:title="Simply quotes its text (set with set_text or per xml chacter data, respectively).">
<polygon fill="white" stroke="black" points="512,-415.5 512,-434.5 640,-434.5 640,-415.5 512,-415.5"/>
<text text-anchor="middle" x="576" y="-422.5" font-family="Helvetica,sans-Serif" font-size="10.00">Indigo\Datasource\text</text>
</a>
</g>
</g>
<!-- Node18&#45;&gt;Node22 -->
<g id="edge19" class="edge">
<title>Node18&#45;&gt;Node22</title>
<path fill="none" stroke="midnightblue" d="M473.28,-434.76C486.41,-433.5 499.61,-432.23 511.94,-431.05"/>
<polygon fill="midnightblue" stroke="midnightblue" points="472.89,-431.28 463.27,-435.72 473.56,-438.25 472.89,-431.28"/>
</g>
<!-- Node23 -->
<g id="node22" class="node">
<title>Node23</title>
<g id="a_node22"><a xlink:href="classIndigo_1_1Datasource_1_1textfile.html" target="_top" xlink:title="Returns the content of a (normally text) file.">
<polygon fill="white" stroke="black" points="504.5,-377.5 504.5,-396.5 647.5,-396.5 647.5,-377.5 504.5,-377.5"/>
<text text-anchor="middle" x="576" y="-384.5" font-family="Helvetica,sans-Serif" font-size="10.00">Indigo\Datasource\textfile</text>
</a>
</g>
</g>
<!-- Node18&#45;&gt;Node23 -->
<g id="edge20" class="edge">
<title>Node18&#45;&gt;Node23</title>
<path fill="none" stroke="midnightblue" d="M415.71,-431.33C439.61,-423.65 470.97,-413.86 499,-406 510.65,-402.73 523.39,-399.44 535.05,-396.53"/>
<polygon fill="midnightblue" stroke="midnightblue" points="414.39,-428.07 405.95,-434.47 416.54,-434.73 414.39,-428.07"/>
</g>
<!-- Node24 -->
<g id="node23" class="node">
<title>Node24</title>
<g id="a_node23"><a xlink:href="classIndigo_1_1Module_1_1Sourcefile_1_1datasource.html" target="_top" xlink:title=" ">
<polygon fill="white" stroke="black" points="507.5,-328 507.5,-358 644.5,-358 644.5,-328 507.5,-328"/>
<text text-anchor="start" x="515.5" y="-346" font-family="Helvetica,sans-Serif" font-size="10.00">Indigo\Module\Sourcefile</text>
<text text-anchor="middle" x="576" y="-335" font-family="Helvetica,sans-Serif" font-size="10.00">\datasource</text>
</a>
</g>
</g>
<!-- Node18&#45;&gt;Node24 -->
<g id="edge21" class="edge">
<title>Node18&#45;&gt;Node24</title>
<path fill="none" stroke="midnightblue" d="M398.18,-428.61C421.84,-411.95 461.72,-385.44 499,-368 506.8,-364.35 515.28,-361 523.65,-358.03"/>
<polygon fill="midnightblue" stroke="midnightblue" points="396.06,-425.82 389.95,-434.47 400.12,-431.52 396.06,-425.82"/>
</g>
<!-- Node26 -->
<g id="node25" class="node">
<title>Node26</title>
<g id="a_node25"><a xlink:href="classIndigo_1_1Fragment_1_1image.html" target="_top" xlink:title=" ">
<polygon fill="white" stroke="black" points="511,-289.5 511,-308.5 641,-308.5 641,-289.5 511,-289.5"/>
<text text-anchor="middle" x="576" y="-296.5" font-family="Helvetica,sans-Serif" font-size="10.00">Indigo\Fragment\image</text>
</a>
</g>
</g>
<!-- Node25&#45;&gt;Node26 -->
<g id="edge23" class="edge">
<title>Node25&#45;&gt;Node26</title>
<path fill="none" stroke="midnightblue" d="M436.87,-272.49C465.12,-277.91 498.44,-284.31 525.27,-289.46"/>
<polygon fill="midnightblue" stroke="midnightblue" points="437.19,-268.99 426.71,-270.54 435.87,-275.86 437.19,-268.99"/>
</g>
<!-- Node27 -->
<g id="node26" class="node">
<title>Node27</title>
<g id="a_node26"><a xlink:href="classIndigo_1_1Fragment_1_1text.html" target="_top" xlink:title="Inserts the character data into a &lt;span&gt;, supports all styles.">
<polygon fill="white" stroke="black" points="516.5,-251.5 516.5,-270.5 635.5,-270.5 635.5,-251.5 516.5,-251.5"/>
<text text-anchor="middle" x="576" y="-258.5" font-family="Helvetica,sans-Serif" font-size="10.00">Indigo\Fragment\text</text>
</a>
</g>
</g>
<!-- Node25&#45;&gt;Node27 -->
<g id="edge24" class="edge">
<title>Node25&#45;&gt;Node27</title>
<path fill="none" stroke="midnightblue" d="M468.74,-261C484.98,-261 501.48,-261 516.48,-261"/>
<polygon fill="midnightblue" stroke="midnightblue" points="468.68,-257.5 458.68,-261 468.68,-264.5 468.68,-257.5"/>
</g>
<!-- Node29 -->
<g id="node28" class="node">
<title>Node29</title>
<g id="a_node28"><a xlink:href="classIndigo_1_1Module_1_1Markdown_1_1renderer.html" target="_top" xlink:title="Support for .md files via parsedown.">
<polygon fill="white" stroke="black" points="506,-202 506,-232 646,-232 646,-202 506,-202"/>
<text text-anchor="start" x="514" y="-220" font-family="Helvetica,sans-Serif" font-size="10.00">Indigo\Module\Markdown</text>
<text text-anchor="middle" x="576" y="-209" font-family="Helvetica,sans-Serif" font-size="10.00">\renderer</text>
</a>
</g>
</g>
<!-- Node28&#45;&gt;Node29 -->
<g id="edge26" class="edge">
<title>Node28&#45;&gt;Node29</title>
<path fill="none" stroke="midnightblue" d="M465.75,-203.76C479.2,-205.39 492.9,-207.05 505.85,-208.62"/>
<polygon fill="midnightblue" stroke="midnightblue" points="465.89,-200.25 455.54,-202.52 465.05,-207.2 465.89,-200.25"/>
</g>
<!-- Node30 -->
<g id="node29" class="node">
<title>Node30</title>
<g id="a_node29"><a xlink:href="classIndigo_1_1Module_1_1Sourcefile_1_1renderer.html" target="_top" xlink:title=" ">
<polygon fill="white" stroke="black" points="507.5,-153 507.5,-183 644.5,-183 644.5,-153 507.5,-153"/>
<text text-anchor="start" x="515.5" y="-171" font-family="Helvetica,sans-Serif" font-size="10.00">Indigo\Module\Sourcefile</text>
<text text-anchor="middle" x="576" y="-160" font-family="Helvetica,sans-Serif" font-size="10.00">\renderer</text>
</a>
</g>
</g>
<!-- Node28&#45;&gt;Node30 -->
<g id="edge27" class="edge">
<title>Node28&#45;&gt;Node30</title>
<path fill="none" stroke="midnightblue" d="M462.66,-182.18C477.58,-180.3 492.9,-178.37 507.25,-176.55"/>
<polygon fill="midnightblue" stroke="midnightblue" points="461.9,-178.75 452.42,-183.48 462.78,-185.7 461.9,-178.75"/>
</g>
<!-- Node31 -->
<g id="node30" class="node">
<title>Node31</title>
<g id="a_node30"><a xlink:href="classIndigo_1_1Renderer_1_1textfile.html" target="_top" xlink:title=" ">
<polygon fill="white" stroke="black" points="510.5,-114.5 510.5,-133.5 641.5,-133.5 641.5,-114.5 510.5,-114.5"/>
<text text-anchor="middle" x="576" y="-121.5" font-family="Helvetica,sans-Serif" font-size="10.00">Indigo\Renderer\textfile</text>
</a>
</g>
</g>
<!-- Node28&#45;&gt;Node31 -->
<g id="edge28" class="edge">
<title>Node28&#45;&gt;Node31</title>
<path fill="none" stroke="midnightblue" d="M407.24,-179.18C431.65,-168.37 467.08,-153.47 499,-143 509.6,-139.52 521.2,-136.33 532.08,-133.58"/>
<polygon fill="midnightblue" stroke="midnightblue" points="405.52,-176.12 397.81,-183.39 408.37,-182.51 405.52,-176.12"/>
</g>
<!-- Node33 -->
<g id="node32" class="node">
<title>Node33</title>
<g id="a_node32"><a xlink:href="classIndigo_1_1View_1_1grid.html" target="_top" xlink:title="A view using grid.">
<polygon fill="white" stroke="black" points="528.5,-76.5 528.5,-95.5 623.5,-95.5 623.5,-76.5 528.5,-76.5"/>
<text text-anchor="middle" x="576" y="-83.5" font-family="Helvetica,sans-Serif" font-size="10.00">Indigo\View\grid</text>
</a>
</g>
</g>
<!-- Node32&#45;&gt;Node33 -->
<g id="edge30" class="edge">
<title>Node32&#45;&gt;Node33</title>
<path fill="none" stroke="midnightblue" d="M457.81,-74.75C481.77,-77.05 507.2,-79.49 528.23,-81.51"/>
<polygon fill="midnightblue" stroke="midnightblue" points="457.93,-71.25 447.64,-73.78 457.26,-78.22 457.93,-71.25"/>
</g>
<!-- Node34 -->
<g id="node33" class="node">
<title>Node34</title>
<g id="a_node33"><a xlink:href="classIndigo_1_1View_1_1sidebar.html" target="_top" xlink:title="A fixed div to the left or right.">
<polygon fill="white" stroke="black" points="519.5,-38.5 519.5,-57.5 632.5,-57.5 632.5,-38.5 519.5,-38.5"/>
<text text-anchor="middle" x="576" y="-45.5" font-family="Helvetica,sans-Serif" font-size="10.00">Indigo\View\sidebar</text>
</a>
</g>
</g>
<!-- Node32&#45;&gt;Node34 -->
<g id="edge31" class="edge">
<title>Node32&#45;&gt;Node34</title>
<path fill="none" stroke="midnightblue" d="M457.7,-59.26C478.4,-57.27 500.2,-55.18 519.32,-53.34"/>
<polygon fill="midnightblue" stroke="midnightblue" points="457.26,-55.78 447.64,-60.22 457.93,-62.75 457.26,-55.78"/>
</g>
<!-- Node35 -->
<g id="node34" class="node">
<title>Node35</title>
<g id="a_node34"><a xlink:href="classIndigo_1_1View_1_1simple.html" target="_top" xlink:title="A simple one with the scroll bar always visible.">
<polygon fill="white" stroke="black" points="521,-0.5 521,-19.5 631,-19.5 631,-0.5 521,-0.5"/>
<text text-anchor="middle" x="576" y="-7.5" font-family="Helvetica,sans-Serif" font-size="10.00">Indigo\View\simple</text>
</a>
</g>
</g>
<!-- Node32&#45;&gt;Node35 -->
<g id="edge32" class="edge">
<title>Node32&#45;&gt;Node35</title>
<path fill="none" stroke="midnightblue" d="M415.71,-54.33C439.61,-46.65 470.97,-36.86 499,-29 510.65,-25.73 523.39,-22.44 535.05,-19.53"/>
<polygon fill="midnightblue" stroke="midnightblue" points="414.39,-51.07 405.95,-57.47 416.54,-57.73 414.39,-51.07"/>
</g>
<!-- Node36 -->
<g id="node35" class="node">
<title>Node36</title>
<g id="a_node35"><a xlink:href="interfaceidg__parameterized.html" target="_top" xlink:title="Interface for entities that accept parameters.">
<polygon fill="white" stroke="black" points="124,-548.5 124,-567.5 232,-567.5 232,-548.5 124,-548.5"/>
<text text-anchor="middle" x="178" y="-555.5" font-family="Helvetica,sans-Serif" font-size="10.00">idg_parameterized</text>
</a>
</g>
</g>
<!-- Node36&#45;&gt;Node2 -->
<g id="edge34" class="edge">
<title>Node36&#45;&gt;Node2</title>
<path fill="none" stroke="midnightblue" d="M207.94,-572.03C248.37,-591.62 320.67,-626.67 355.37,-643.48"/>
<polygon fill="midnightblue" stroke="midnightblue" points="209.4,-568.84 198.87,-567.63 206.34,-575.14 209.4,-568.84"/>
</g>
<!-- Node36&#45;&gt;Node12 -->
<g id="edge36" class="edge">
<title>Node36&#45;&gt;Node12</title>
<path fill="none" stroke="midnightblue" d="M242.21,-559.15C356.85,-561.22 595.97,-565.55 690.9,-567.27"/>
<polygon fill="midnightblue" stroke="midnightblue" points="242.24,-555.65 232.18,-558.96 242.11,-562.64 242.24,-555.65"/>
</g>
<!-- Node36&#45;&gt;Node18 -->
<g id="edge35" class="edge">
<title>Node36&#45;&gt;Node18</title>
<path fill="none" stroke="midnightblue" d="M204.15,-543.37C244.9,-519.67 324.23,-473.53 358.54,-453.58"/>
<polygon fill="midnightblue" stroke="midnightblue" points="202.26,-540.42 195.37,-548.48 205.78,-546.47 202.26,-540.42"/>
</g>
<!-- Node37 -->
<g id="node36" class="node">
<title>Node37</title>
<g id="a_node36"><a xlink:href="classidg__attribute.html" target="_top" xlink:title="Base class for idg entities with parameters.">
<polygon fill="white" stroke="black" points="336.5,-529.5 336.5,-548.5 415.5,-548.5 415.5,-529.5 336.5,-529.5"/>
<text text-anchor="middle" x="376" y="-536.5" font-family="Helvetica,sans-Serif" font-size="10.00">idg_attribute</text>
</a>
</g>
</g>
<!-- Node36&#45;&gt;Node37 -->
<g id="edge33" class="edge">
<title>Node36&#45;&gt;Node37</title>
<path fill="none" stroke="midnightblue" d="M242.3,-551.86C273.23,-548.87 309.44,-545.36 336.22,-542.76"/>
<polygon fill="midnightblue" stroke="midnightblue" points="241.66,-548.41 232.04,-552.86 242.33,-555.38 241.66,-548.41"/>
</g>
<!-- Node53 -->
<g id="node37" class="node">
<title>Node53</title>
<g id="a_node37"><a xlink:title=" ">
<polygon fill="white" stroke="#bfbfbf" points="151.5,-434.5 151.5,-453.5 204.5,-453.5 204.5,-434.5 151.5,-434.5"/>
<text text-anchor="middle" x="178" y="-441.5" font-family="Helvetica,sans-Serif" font-size="10.00">Iterator</text>
</a>
</g>
</g>
<!-- Node53&#45;&gt;Node18 -->
<g id="edge37" class="edge">
<title>Node53&#45;&gt;Node18</title>
<path fill="none" stroke="midnightblue" d="M214.89,-444C235.72,-444 262.91,-444 288.96,-444"/>
<polygon fill="midnightblue" stroke="midnightblue" points="214.62,-440.5 204.62,-444 214.62,-447.5 214.62,-440.5"/>
</g>
</g>
</svg>
