<?xml version="1.0" encoding="UTF-8" standalone="no"?>
<!DOCTYPE svg PUBLIC "-//W3C//DTD SVG 1.1//EN"
 "http://www.w3.org/Graphics/SVG/1.1/DTD/svg11.dtd">
<!-- Generated by graphviz version 2.43.0 (0)
 -->
<!-- Title: Graphical Class Hierarchy Pages: 1 -->
<svg width="334pt" height="411pt"
 viewBox="0.00 0.00 334.00 411.00" xmlns="http://www.w3.org/2000/svg" xmlns:xlink="http://www.w3.org/1999/xlink">
<g id="graph0" class="graph" transform="scale(1 1) rotate(0) translate(4 407)">
<title>Graphical Class Hierarchy</title>
<polygon fill="white" stroke="transparent" points="-4,4 -4,-407 330,-407 330,4 -4,4"/>
<!-- Node0 -->
<g id="node1" class="node">
<title>Node0</title>
<g id="a_node1"><a xlink:href="classidg__tree__node__instance.html" target="_top" xlink:title="Base class for idg entities that are attached to a tree node and behave like one.">
<polygon fill="white" stroke="black" points="0,-202 0,-221 132,-221 132,-202 0,-202"/>
<text text-anchor="middle" x="66" y="-209" font-family="Helvetica,sans-Serif" font-size="10.00">idg_tree_node_instance</text>
</a>
</g>
</g>
<!-- Node1 -->
<g id="node2" class="node">
<title>Node1</title>
<g id="a_node2"><a xlink:href="classidg__view__html__item__image.html" target="_top" xlink:title=" ">
<polygon fill="white" stroke="black" points="189,-372.5 189,-402.5 305,-402.5 305,-372.5 189,-372.5"/>
<text text-anchor="start" x="197" y="-390.5" font-family="Helvetica,sans-Serif" font-size="10.00">idg_view_html_item</text>
<text text-anchor="middle" x="247" y="-379.5" font-family="Helvetica,sans-Serif" font-size="10.00">_image</text>
</a>
</g>
</g>
<!-- Node0&#45;&gt;Node1 -->
<g id="edge1" class="edge">
<title>Node0&#45;&gt;Node1</title>
<path fill="none" stroke="midnightblue" d="M74.82,-230.83C88.76,-262.88 120.93,-327.03 168,-362.5 174.25,-367.21 181.41,-371.04 188.81,-374.17"/>
<polygon fill="midnightblue" stroke="midnightblue" points="77.9,-229.13 70.79,-221.27 71.45,-231.85 77.9,-229.13"/>
</g>
<!-- Node2 -->
<g id="node3" class="node">
<title>Node2</title>
<g id="a_node3"><a xlink:href="classidg__view__html__item__text.html" target="_top" xlink:title=" ">
<polygon fill="white" stroke="black" points="177,-334 177,-353 317,-353 317,-334 177,-334"/>
<text text-anchor="middle" x="247" y="-341" font-family="Helvetica,sans-Serif" font-size="10.00">idg_view_html_item_text</text>
</a>
</g>
</g>
<!-- Node0&#45;&gt;Node2 -->
<g id="edge2" class="edge">
<title>Node0&#45;&gt;Node2</title>
<path fill="none" stroke="midnightblue" d="M78.16,-229.77C94.61,-255.07 127.78,-300.38 168,-324.5 174.45,-328.37 181.66,-331.45 189,-333.91"/>
<polygon fill="midnightblue" stroke="midnightblue" points="81.01,-227.72 72.7,-221.14 75.09,-231.46 81.01,-227.72"/>
</g>
<!-- Node3 -->
<g id="node4" class="node">
<title>Node3</title>
<g id="a_node4"><a xlink:href="classidg__view__html__renderer__markdown.html" target="_top" xlink:title=" ">
<polygon fill="white" stroke="black" points="180,-284.5 180,-314.5 314,-314.5 314,-284.5 180,-284.5"/>
<text text-anchor="start" x="188" y="-302.5" font-family="Helvetica,sans-Serif" font-size="10.00">idg_view_html_renderer</text>
<text text-anchor="middle" x="247" y="-291.5" font-family="Helvetica,sans-Serif" font-size="10.00">_markdown</text>
</a>
</g>
</g>
<!-- Node0&#45;&gt;Node3 -->
<g id="edge3" class="edge">
<title>Node0&#45;&gt;Node3</title>
<path fill="none" stroke="midnightblue" d="M88.43,-227.06C108.3,-240.94 139.06,-261.09 168,-274.5 175.87,-278.15 184.42,-281.48 192.88,-284.43"/>
<polygon fill="midnightblue" stroke="midnightblue" points="90.3,-224.1 80.12,-221.17 86.26,-229.81 90.3,-224.1"/>
</g>
<!-- Node4 -->
<g id="node5" class="node">
<title>Node4</title>
<g id="a_node5"><a xlink:href="classidg__view__html__renderer__null.html" target="_top" xlink:title=" ">
<polygon fill="white" stroke="black" points="168,-246 168,-265 326,-265 326,-246 168,-246"/>
<text text-anchor="middle" x="247" y="-253" font-family="Helvetica,sans-Serif" font-size="10.00">idg_view_html_renderer_null</text>
</a>
</g>
</g>
<!-- Node0&#45;&gt;Node4 -->
<g id="edge4" class="edge">
<title>Node0&#45;&gt;Node4</title>
<path fill="none" stroke="midnightblue" d="M115.43,-223.53C132.09,-227.65 150.86,-232.29 168,-236.5 180.59,-239.59 194.32,-242.94 206.71,-245.96"/>
<polygon fill="midnightblue" stroke="midnightblue" points="115.91,-220.04 105.36,-221.03 114.22,-226.83 115.91,-220.04"/>
</g>
<!-- Node5 -->
<g id="node6" class="node">
<title>Node5</title>
<g id="a_node6"><a xlink:href="classidg__view__html__renderer__phpscript.html" target="_top" xlink:title=" ">
<polygon fill="white" stroke="black" points="180,-196.5 180,-226.5 314,-226.5 314,-196.5 180,-196.5"/>
<text text-anchor="start" x="188" y="-214.5" font-family="Helvetica,sans-Serif" font-size="10.00">idg_view_html_renderer</text>
<text text-anchor="middle" x="247" y="-203.5" font-family="Helvetica,sans-Serif" font-size="10.00">_phpscript</text>
</a>
</g>
</g>
<!-- Node0&#45;&gt;Node5 -->
<g id="edge5" class="edge">
<title>Node0&#45;&gt;Node5</title>
<path fill="none" stroke="midnightblue" d="M142.43,-211.5C154.82,-211.5 167.57,-211.5 179.72,-211.5"/>
<polygon fill="midnightblue" stroke="midnightblue" points="142.13,-208 132.13,-211.5 142.13,-215 142.13,-208"/>
</g>
<!-- Node6 -->
<g id="node7" class="node">
<title>Node6</title>
<g id="a_node7"><a xlink:href="classidg__view__html__renderer__sourcefile.html" target="_top" xlink:title=" ">
<polygon fill="white" stroke="black" points="180,-147.5 180,-177.5 314,-177.5 314,-147.5 180,-147.5"/>
<text text-anchor="start" x="188" y="-165.5" font-family="Helvetica,sans-Serif" font-size="10.00">idg_view_html_renderer</text>
<text text-anchor="middle" x="247" y="-154.5" font-family="Helvetica,sans-Serif" font-size="10.00">_sourcefile</text>
</a>
</g>
</g>
<!-- Node0&#45;&gt;Node6 -->
<g id="edge6" class="edge">
<title>Node0&#45;&gt;Node6</title>
<path fill="none" stroke="midnightblue" d="M111.85,-199.22C135.87,-192.65 165.67,-184.49 191.07,-177.54"/>
<polygon fill="midnightblue" stroke="midnightblue" points="110.66,-195.92 101.94,-201.94 112.51,-202.67 110.66,-195.92"/>
</g>
<!-- Node7 -->
<g id="node8" class="node">
<title>Node7</title>
<g id="a_node8"><a xlink:href="classidg__view__html__renderer__textfile.html" target="_top" xlink:title=" ">
<polygon fill="white" stroke="black" points="180,-98.5 180,-128.5 314,-128.5 314,-98.5 180,-98.5"/>
<text text-anchor="start" x="188" y="-116.5" font-family="Helvetica,sans-Serif" font-size="10.00">idg_view_html_renderer</text>
<text text-anchor="middle" x="247" y="-105.5" font-family="Helvetica,sans-Serif" font-size="10.00">_textfile</text>
</a>
</g>
</g>
<!-- Node0&#45;&gt;Node7 -->
<g id="edge7" class="edge">
<title>Node0&#45;&gt;Node7</title>
<path fill="none" stroke="midnightblue" d="M85.51,-195.34C104.92,-179.08 136.88,-154.23 168,-138.5 175.36,-134.78 183.39,-131.46 191.41,-128.55"/>
<polygon fill="midnightblue" stroke="midnightblue" points="83.1,-192.79 77.75,-201.94 87.64,-198.12 83.1,-192.79"/>
</g>
<!-- Node8 -->
<g id="node9" class="node">
<title>Node8</title>
<g id="a_node9"><a xlink:href="classidg__view__html__template__fixedbar.html" target="_top" xlink:title="A fixed div to the left or right.">
<polygon fill="white" stroke="black" points="178.5,-49.5 178.5,-79.5 315.5,-79.5 315.5,-49.5 178.5,-49.5"/>
<text text-anchor="start" x="186.5" y="-67.5" font-family="Helvetica,sans-Serif" font-size="10.00">idg_view_html_template</text>
<text text-anchor="middle" x="247" y="-56.5" font-family="Helvetica,sans-Serif" font-size="10.00">_fixedbar</text>
</a>
</g>
</g>
<!-- Node0&#45;&gt;Node8 -->
<g id="edge8" class="edge">
<title>Node0&#45;&gt;Node8</title>
<path fill="none" stroke="midnightblue" d="M77.37,-193.31C93.43,-166.71 126.82,-117.35 168,-89.5 173.65,-85.68 179.93,-82.41 186.4,-79.62"/>
<polygon fill="midnightblue" stroke="midnightblue" points="74.31,-191.61 72.25,-202 80.34,-195.16 74.31,-191.61"/>
</g>
<!-- Node9 -->
<g id="node10" class="node">
<title>Node9</title>
<g id="a_node10"><a xlink:href="classidg__view__html__template__fixedcontent.html" target="_top" xlink:title="A simple one with the scroll bar always visible.">
<polygon fill="white" stroke="black" points="178.5,-0.5 178.5,-30.5 315.5,-30.5 315.5,-0.5 178.5,-0.5"/>
<text text-anchor="start" x="186.5" y="-18.5" font-family="Helvetica,sans-Serif" font-size="10.00">idg_view_html_template</text>
<text text-anchor="middle" x="247" y="-7.5" font-family="Helvetica,sans-Serif" font-size="10.00">_fixedcontent</text>
</a>
</g>
</g>
<!-- Node0&#45;&gt;Node9 -->
<g id="edge9" class="edge">
<title>Node0&#45;&gt;Node9</title>
<path fill="none" stroke="midnightblue" d="M73.23,-192.09C85.57,-156.72 116.48,-81.63 168,-40.5 172.89,-36.6 178.4,-33.3 184.18,-30.51"/>
<polygon fill="midnightblue" stroke="midnightblue" points="69.87,-191.12 69.99,-201.71 76.5,-193.35 69.87,-191.12"/>
</g>
</g>
</svg>
