<?xml version="1.0" encoding="UTF-8" standalone="no"?>
<!DOCTYPE svg PUBLIC "-//W3C//DTD SVG 1.1//EN"
 "http://www.w3.org/Graphics/SVG/1.1/DTD/svg11.dtd">
<!-- Generated by graphviz version 2.43.0 (0)
 -->
<!-- Title: Graphical Class Hierarchy Pages: 1 -->
<svg width="539pt" height="275pt"
 viewBox="0.00 0.00 539.00 275.00" xmlns="http://www.w3.org/2000/svg" xmlns:xlink="http://www.w3.org/1999/xlink">
<g id="graph0" class="graph" transform="scale(1 1) rotate(0) translate(4 271)">
<title>Graphical Class Hierarchy</title>
<polygon fill="white" stroke="transparent" points="-4,4 -4,-271 535,-271 535,4 -4,4"/>
<!-- Node0 -->
<g id="node1" class="node">
<title>Node0</title>
<g id="a_node1"><a xlink:href="classidg__type.html" target="_top" xlink:title="Type information for idg_object.">
<polygon fill="white" stroke="black" points="0,-209.5 0,-228.5 59,-228.5 59,-209.5 0,-209.5"/>
<text text-anchor="middle" x="29.5" y="-216.5" font-family="Helvetica,sans-Serif" font-size="10.00">idg_type</text>
</a>
</g>
</g>
<!-- Node1 -->
<g id="node2" class="node">
<title>Node1</title>
<g id="a_node2"><a xlink:href="classidg__datasource__type.html" target="_top" xlink:title="Type information for idg_datasource.">
<polygon fill="white" stroke="black" points="95,-247.5 95,-266.5 213,-266.5 213,-247.5 95,-247.5"/>
<text text-anchor="middle" x="154" y="-254.5" font-family="Helvetica,sans-Serif" font-size="10.00">idg_datasource_type</text>
</a>
</g>
</g>
<!-- Node0&#45;&gt;Node1 -->
<g id="edge1" class="edge">
<title>Node0&#45;&gt;Node1</title>
<path fill="none" stroke="midnightblue" d="M68.97,-230.93C86.17,-236.27 106.15,-242.47 122.32,-247.48"/>
<polygon fill="midnightblue" stroke="midnightblue" points="69.81,-227.53 59.22,-227.91 67.73,-234.22 69.81,-227.53"/>
</g>
<!-- Node2 -->
<g id="node3" class="node">
<title>Node2</title>
<g id="a_node3"><a xlink:href="classidg__renderer__type.html" target="_top" xlink:title="Type information for idg_renderer.">
<polygon fill="white" stroke="black" points="101.5,-209.5 101.5,-228.5 206.5,-228.5 206.5,-209.5 101.5,-209.5"/>
<text text-anchor="middle" x="154" y="-216.5" font-family="Helvetica,sans-Serif" font-size="10.00">idg_renderer_type</text>
</a>
</g>
</g>
<!-- Node0&#45;&gt;Node2 -->
<g id="edge2" class="edge">
<title>Node0&#45;&gt;Node2</title>
<path fill="none" stroke="midnightblue" d="M69.41,-219C79.58,-219 90.7,-219 101.41,-219"/>
<polygon fill="midnightblue" stroke="midnightblue" points="69.22,-215.5 59.22,-219 69.22,-222.5 69.22,-215.5"/>
</g>
<!-- Node3 -->
<g id="node4" class="node">
<title>Node3</title>
<g id="a_node4"><a xlink:href="classidg__treenode__type.html" target="_top" xlink:title="Type information for idg_treenode.">
<polygon fill="white" stroke="black" points="100.5,-171.5 100.5,-190.5 207.5,-190.5 207.5,-171.5 100.5,-171.5"/>
<text text-anchor="middle" x="154" y="-178.5" font-family="Helvetica,sans-Serif" font-size="10.00">idg_treenode_type</text>
</a>
</g>
</g>
<!-- Node0&#45;&gt;Node3 -->
<g id="edge3" class="edge">
<title>Node0&#45;&gt;Node3</title>
<path fill="none" stroke="midnightblue" d="M68.97,-207.07C86.17,-201.73 106.15,-195.53 122.32,-190.52"/>
<polygon fill="midnightblue" stroke="midnightblue" points="67.73,-203.78 59.22,-210.09 69.81,-210.47 67.73,-203.78"/>
</g>
<!-- Node4 -->
<g id="node5" class="node">
<title>Node4</title>
<g id="a_node5"><a xlink:href="classidg__filter__type.html" target="_top" xlink:title="Type information for idg_filter.">
<polygon fill="white" stroke="black" points="272.5,-209.5 272.5,-228.5 358.5,-228.5 358.5,-209.5 272.5,-209.5"/>
<text text-anchor="middle" x="315.5" y="-216.5" font-family="Helvetica,sans-Serif" font-size="10.00">idg_filter_type</text>
</a>
</g>
</g>
<!-- Node3&#45;&gt;Node4 -->
<g id="edge4" class="edge">
<title>Node3&#45;&gt;Node4</title>
<path fill="none" stroke="midnightblue" d="M205.23,-192.97C227.59,-198.29 253.54,-204.48 274.54,-209.48"/>
<polygon fill="midnightblue" stroke="midnightblue" points="205.79,-189.5 195.25,-190.59 204.17,-196.31 205.79,-189.5"/>
</g>
<!-- Node5 -->
<g id="node6" class="node">
<title>Node5</title>
<g id="a_node6"><a xlink:href="classidg__site__element__type.html" target="_top" xlink:title="Type information for idg_site_element.">
<polygon fill="white" stroke="black" points="251.5,-171.5 251.5,-190.5 379.5,-190.5 379.5,-171.5 251.5,-171.5"/>
<text text-anchor="middle" x="315.5" y="-178.5" font-family="Helvetica,sans-Serif" font-size="10.00">idg_site_element_type</text>
</a>
</g>
</g>
<!-- Node3&#45;&gt;Node5 -->
<g id="edge5" class="edge">
<title>Node3&#45;&gt;Node5</title>
<path fill="none" stroke="midnightblue" d="M217.68,-181C228.74,-181 240.27,-181 251.35,-181"/>
<polygon fill="midnightblue" stroke="midnightblue" points="217.67,-177.5 207.67,-181 217.67,-184.5 217.67,-177.5"/>
</g>
<!-- Node9 -->
<g id="node10" class="node">
<title>Node9</title>
<g id="a_node10"><a xlink:href="classidg__view__element__type.html" target="_top" xlink:title="Type information for idg_view_element.">
<polygon fill="white" stroke="black" points="249,-76.5 249,-95.5 382,-95.5 382,-76.5 249,-76.5"/>
<text text-anchor="middle" x="315.5" y="-83.5" font-family="Helvetica,sans-Serif" font-size="10.00">idg_view_element_type</text>
</a>
</g>
</g>
<!-- Node3&#45;&gt;Node9 -->
<g id="edge9" class="edge">
<title>Node3&#45;&gt;Node9</title>
<path fill="none" stroke="midnightblue" d="M179.79,-166.23C212.81,-146.57 270.31,-112.32 298.29,-95.66"/>
<polygon fill="midnightblue" stroke="midnightblue" points="177.97,-163.24 171.17,-171.37 181.55,-169.26 177.97,-163.24"/>
</g>
<!-- Node6 -->
<g id="node7" class="node">
<title>Node6</title>
<g id="a_node7"><a xlink:href="classidg__document__type.html" target="_top" xlink:title="Type information for idg_document.">
<polygon fill="white" stroke="black" points="418,-228.5 418,-247.5 531,-247.5 531,-228.5 418,-228.5"/>
<text text-anchor="middle" x="474.5" y="-235.5" font-family="Helvetica,sans-Serif" font-size="10.00">idg_document_type</text>
</a>
</g>
</g>
<!-- Node5&#45;&gt;Node6 -->
<g id="edge6" class="edge">
<title>Node5&#45;&gt;Node6</title>
<path fill="none" stroke="midnightblue" d="M363.94,-193.52C370.08,-195.5 376.24,-197.67 382,-200 398.77,-206.78 401.39,-211.83 418,-219 425.95,-222.43 434.74,-225.68 442.93,-228.49"/>
<polygon fill="midnightblue" stroke="midnightblue" points="364.94,-190.16 354.36,-190.56 362.88,-196.85 364.94,-190.16"/>
</g>
<!-- Node7 -->
<g id="node8" class="node">
<title>Node7</title>
<g id="a_node8"><a xlink:href="classidg__folder__type.html" target="_top" xlink:title="Type information for idg_folder.">
<polygon fill="white" stroke="black" points="428.5,-190.5 428.5,-209.5 520.5,-209.5 520.5,-190.5 428.5,-190.5"/>
<text text-anchor="middle" x="474.5" y="-197.5" font-family="Helvetica,sans-Serif" font-size="10.00">idg_folder_type</text>
</a>
</g>
</g>
<!-- Node5&#45;&gt;Node7 -->
<g id="edge7" class="edge">
<title>Node5&#45;&gt;Node7</title>
<path fill="none" stroke="midnightblue" d="M389.84,-189.88C402.92,-191.46 416.19,-193.06 428.19,-194.52"/>
<polygon fill="midnightblue" stroke="midnightblue" points="390.25,-186.4 379.91,-188.67 389.41,-193.35 390.25,-186.4"/>
</g>
<!-- Node8 -->
<g id="node9" class="node">
<title>Node8</title>
<g id="a_node9"><a xlink:href="classidg__site__type.html" target="_top" xlink:title="Type information for idg_site.">
<polygon fill="white" stroke="black" points="433.5,-152.5 433.5,-171.5 515.5,-171.5 515.5,-152.5 433.5,-152.5"/>
<text text-anchor="middle" x="474.5" y="-159.5" font-family="Helvetica,sans-Serif" font-size="10.00">idg_site_type</text>
</a>
</g>
</g>
<!-- Node5&#45;&gt;Node8 -->
<g id="edge8" class="edge">
<title>Node5&#45;&gt;Node8</title>
<path fill="none" stroke="midnightblue" d="M390.14,-172.09C405.03,-170.29 420.14,-168.46 433.34,-166.86"/>
<polygon fill="midnightblue" stroke="midnightblue" points="389.41,-168.65 379.91,-173.33 390.25,-175.6 389.41,-168.65"/>
</g>
<!-- Node10 -->
<g id="node11" class="node">
<title>Node10</title>
<g id="a_node11"><a xlink:href="classidg__container__type.html" target="_top" xlink:title="Type information for idg_container.">
<polygon fill="white" stroke="black" points="419.5,-114.5 419.5,-133.5 529.5,-133.5 529.5,-114.5 419.5,-114.5"/>
<text text-anchor="middle" x="474.5" y="-121.5" font-family="Helvetica,sans-Serif" font-size="10.00">idg_container_type</text>
</a>
</g>
</g>
<!-- Node9&#45;&gt;Node10 -->
<g id="edge10" class="edge">
<title>Node9&#45;&gt;Node10</title>
<path fill="none" stroke="midnightblue" d="M365.95,-97.97C387.95,-103.29 413.49,-109.48 434.17,-114.48"/>
<polygon fill="midnightblue" stroke="midnightblue" points="366.66,-94.54 356.12,-95.59 365.01,-101.34 366.66,-94.54"/>
</g>
<!-- Node11 -->
<g id="node12" class="node">
<title>Node11</title>
<g id="a_node12"><a xlink:href="classidg__fragment__type.html" target="_top" xlink:title="Type information for idg_fragment.">
<polygon fill="white" stroke="black" points="420,-76.5 420,-95.5 529,-95.5 529,-76.5 420,-76.5"/>
<text text-anchor="middle" x="474.5" y="-83.5" font-family="Helvetica,sans-Serif" font-size="10.00">idg_fragment_type</text>
</a>
</g>
</g>
<!-- Node9&#45;&gt;Node11 -->
<g id="edge11" class="edge">
<title>Node9&#45;&gt;Node11</title>
<path fill="none" stroke="midnightblue" d="M392.29,-86C401.65,-86 411.07,-86 420,-86"/>
<polygon fill="midnightblue" stroke="midnightblue" points="392.17,-82.5 382.17,-86 392.17,-89.5 392.17,-82.5"/>
</g>
<!-- Node12 -->
<g id="node13" class="node">
<title>Node12</title>
<g id="a_node13"><a xlink:href="classidg__slot__type.html" target="_top" xlink:title="Type information for idg_slot.">
<polygon fill="white" stroke="black" points="433.5,-38.5 433.5,-57.5 515.5,-57.5 515.5,-38.5 433.5,-38.5"/>
<text text-anchor="middle" x="474.5" y="-45.5" font-family="Helvetica,sans-Serif" font-size="10.00">idg_slot_type</text>
</a>
</g>
</g>
<!-- Node9&#45;&gt;Node12 -->
<g id="edge12" class="edge">
<title>Node9&#45;&gt;Node12</title>
<path fill="none" stroke="midnightblue" d="M365.95,-74.03C387.95,-68.71 413.49,-62.52 434.17,-57.52"/>
<polygon fill="midnightblue" stroke="midnightblue" points="365.01,-70.66 356.12,-76.41 366.66,-77.46 365.01,-70.66"/>
</g>
<!-- Node13 -->
<g id="node14" class="node">
<title>Node13</title>
<g id="a_node14"><a xlink:href="classidg__view__type.html" target="_top" xlink:title="Type information for idg_view.">
<polygon fill="white" stroke="black" points="431,-0.5 431,-19.5 518,-19.5 518,-0.5 431,-0.5"/>
<text text-anchor="middle" x="474.5" y="-7.5" font-family="Helvetica,sans-Serif" font-size="10.00">idg_view_type</text>
</a>
</g>
</g>
<!-- Node9&#45;&gt;Node13 -->
<g id="edge13" class="edge">
<title>Node9&#45;&gt;Node13</title>
<path fill="none" stroke="midnightblue" d="M340.05,-71.15C360.23,-58.83 390.32,-41.38 418,-29 425.72,-25.55 434.26,-22.34 442.29,-19.57"/>
<polygon fill="midnightblue" stroke="midnightblue" points="338.2,-68.18 331.53,-76.41 341.87,-74.14 338.2,-68.18"/>
</g>
</g>
</svg>
