<?xml version="1.0" encoding="UTF-8" standalone="no"?>
<!DOCTYPE svg PUBLIC "-//W3C//DTD SVG 1.1//EN"
 "http://www.w3.org/Graphics/SVG/1.1/DTD/svg11.dtd">
<!-- Generated by graphviz version 2.43.0 (0)
 -->
<!-- Title: Graphical Class Hierarchy Pages: 1 -->
<svg width="464pt" height="258pt"
 viewBox="0.00 0.00 464.00 257.50" xmlns="http://www.w3.org/2000/svg" xmlns:xlink="http://www.w3.org/1999/xlink">
<g id="graph0" class="graph" transform="scale(1 1) rotate(0) translate(4 253.5)">
<title>Graphical Class Hierarchy</title>
<polygon fill="white" stroke="transparent" points="-4,4 -4,-253.5 460,-253.5 460,4 -4,4"/>
<!-- Node0 -->
<g id="node1" class="node">
<title>Node0</title>
<g id="a_node1"><a xlink:href="classidg__view__node__obj.html" target="_top" xlink:title=" ">
<polygon fill="white" stroke="black" points="0,-148 0,-167 110,-167 110,-148 0,-148"/>
<text text-anchor="middle" x="55" y="-155" font-family="Helvetica,sans-Serif" font-size="10.00">idg_view_node_obj</text>
</a>
</g>
</g>
<!-- Node1 -->
<g id="node2" class="node">
<title>Node1</title>
<g id="a_node2"><a xlink:href="classidg__view__html__item__text.html" target="_top" xlink:title=" ">
<polygon fill="white" stroke="black" points="155,-230 155,-249 295,-249 295,-230 155,-230"/>
<text text-anchor="middle" x="225" y="-237" font-family="Helvetica,sans-Serif" font-size="10.00">idg_view_html_item_text</text>
</a>
</g>
</g>
<!-- Node0&#45;&gt;Node1 -->
<g id="edge1" class="edge">
<title>Node0&#45;&gt;Node1</title>
<path fill="none" stroke="midnightblue" d="M74.5,-173.58C91.86,-187.87 119.12,-208.34 146,-220.5 154.38,-224.29 163.63,-227.39 172.73,-229.9"/>
<polygon fill="midnightblue" stroke="midnightblue" points="76.72,-170.87 66.82,-167.12 72.22,-176.23 76.72,-170.87"/>
</g>
<!-- Node2 -->
<g id="node3" class="node">
<title>Node2</title>
<g id="a_node3"><a xlink:href="classidg__view__html__renderer__null.html" target="_top" xlink:title=" ">
<polygon fill="white" stroke="black" points="146,-192 146,-211 304,-211 304,-192 146,-192"/>
<text text-anchor="middle" x="225" y="-199" font-family="Helvetica,sans-Serif" font-size="10.00">idg_view_html_renderer_null</text>
</a>
</g>
</g>
<!-- Node0&#45;&gt;Node2 -->
<g id="edge2" class="edge">
<title>Node0&#45;&gt;Node2</title>
<path fill="none" stroke="midnightblue" d="M99.18,-169.8C114,-173.94 130.7,-178.51 146,-182.5 158.27,-185.7 171.68,-189.02 183.86,-191.98"/>
<polygon fill="midnightblue" stroke="midnightblue" points="99.84,-166.35 89.27,-167.02 97.95,-173.09 99.84,-166.35"/>
</g>
<!-- Node3 -->
<g id="node4" class="node">
<title>Node3</title>
<g id="a_node4"><a xlink:href="classidg__view__html__renderer__phpscript.html" target="_top" xlink:title=" ">
<polygon fill="white" stroke="black" points="158,-142.5 158,-172.5 292,-172.5 292,-142.5 158,-142.5"/>
<text text-anchor="start" x="166" y="-160.5" font-family="Helvetica,sans-Serif" font-size="10.00">idg_view_html_renderer</text>
<text text-anchor="middle" x="225" y="-149.5" font-family="Helvetica,sans-Serif" font-size="10.00">_phpscript</text>
</a>
</g>
</g>
<!-- Node0&#45;&gt;Node3 -->
<g id="edge3" class="edge">
<title>Node0&#45;&gt;Node3</title>
<path fill="none" stroke="midnightblue" d="M120.28,-157.5C132.62,-157.5 145.57,-157.5 157.97,-157.5"/>
<polygon fill="midnightblue" stroke="midnightblue" points="120.08,-154 110.08,-157.5 120.08,-161 120.08,-154"/>
</g>
<!-- Node4 -->
<g id="node5" class="node">
<title>Node4</title>
<g id="a_node5"><a xlink:href="classidg__view__html__renderer__textfile.html" target="_top" xlink:title=" ">
<polygon fill="white" stroke="black" points="158,-93.5 158,-123.5 292,-123.5 292,-93.5 158,-93.5"/>
<text text-anchor="start" x="166" y="-111.5" font-family="Helvetica,sans-Serif" font-size="10.00">idg_view_html_renderer</text>
<text text-anchor="middle" x="225" y="-100.5" font-family="Helvetica,sans-Serif" font-size="10.00">_textfile</text>
</a>
</g>
</g>
<!-- Node0&#45;&gt;Node4 -->
<g id="edge4" class="edge">
<title>Node0&#45;&gt;Node4</title>
<path fill="none" stroke="midnightblue" d="M98.4,-145.13C120.89,-138.57 148.71,-130.46 172.44,-123.54"/>
<polygon fill="midnightblue" stroke="midnightblue" points="97.41,-141.78 88.79,-147.94 99.37,-148.5 97.41,-141.78"/>
</g>
<!-- Node5 -->
<g id="node6" class="node">
<title>Node5</title>
<g id="a_node6"><a xlink:href="classidg__view__node__param__obj.html" target="_top" xlink:title=" ">
<polygon fill="white" stroke="black" points="152,-55 152,-74 298,-74 298,-55 152,-55"/>
<text text-anchor="middle" x="225" y="-62" font-family="Helvetica,sans-Serif" font-size="10.00">idg_view_node_param_obj</text>
</a>
</g>
</g>
<!-- Node0&#45;&gt;Node5 -->
<g id="edge5" class="edge">
<title>Node0&#45;&gt;Node5</title>
<path fill="none" stroke="midnightblue" d="M72.4,-140.46C89.33,-123.82 117.27,-98.96 146,-84.5 154.49,-80.23 163.98,-76.81 173.33,-74.1"/>
<polygon fill="midnightblue" stroke="midnightblue" points="69.58,-138.33 65.01,-147.88 74.54,-143.26 69.58,-138.33"/>
</g>
<!-- Node6 -->
<g id="node7" class="node">
<title>Node6</title>
<g id="a_node7"><a xlink:href="classidg__view__html__item__image.html" target="_top" xlink:title=" ">
<polygon fill="white" stroke="black" points="340,-98.5 340,-128.5 456,-128.5 456,-98.5 340,-98.5"/>
<text text-anchor="start" x="348" y="-116.5" font-family="Helvetica,sans-Serif" font-size="10.00">idg_view_html_item</text>
<text text-anchor="middle" x="398" y="-105.5" font-family="Helvetica,sans-Serif" font-size="10.00">_image</text>
</a>
</g>
</g>
<!-- Node5&#45;&gt;Node6 -->
<g id="edge6" class="edge">
<title>Node5&#45;&gt;Node6</title>
<path fill="none" stroke="midnightblue" d="M274.88,-76.62C284.56,-79.14 294.62,-81.84 304,-84.5 319.13,-88.8 335.54,-93.8 350.31,-98.43"/>
<polygon fill="midnightblue" stroke="midnightblue" points="275.54,-73.18 264.99,-74.08 273.8,-79.96 275.54,-73.18"/>
</g>
<!-- Node7 -->
<g id="node8" class="node">
<title>Node7</title>
<g id="a_node8"><a xlink:href="classidg__view__html__part__fixedbar.html" target="_top" xlink:title="A fixed div to the left or right.">
<polygon fill="white" stroke="black" points="341.5,-49.5 341.5,-79.5 454.5,-79.5 454.5,-49.5 341.5,-49.5"/>
<text text-anchor="start" x="349.5" y="-67.5" font-family="Helvetica,sans-Serif" font-size="10.00">idg_view_html_part</text>
<text text-anchor="middle" x="398" y="-56.5" font-family="Helvetica,sans-Serif" font-size="10.00">_fixedbar</text>
</a>
</g>
</g>
<!-- Node5&#45;&gt;Node7 -->
<g id="edge7" class="edge">
<title>Node5&#45;&gt;Node7</title>
<path fill="none" stroke="midnightblue" d="M308.29,-64.5C319.52,-64.5 330.83,-64.5 341.43,-64.5"/>
<polygon fill="midnightblue" stroke="midnightblue" points="308.02,-61 298.02,-64.5 308.02,-68 308.02,-61"/>
</g>
<!-- Node8 -->
<g id="node9" class="node">
<title>Node8</title>
<g id="a_node9"><a xlink:href="classidg__view__html__part__fixedcontent.html" target="_top" xlink:title="A simple one with the scroll bar always visible.">
<polygon fill="white" stroke="black" points="341.5,-0.5 341.5,-30.5 454.5,-30.5 454.5,-0.5 341.5,-0.5"/>
<text text-anchor="start" x="349.5" y="-18.5" font-family="Helvetica,sans-Serif" font-size="10.00">idg_view_html_part</text>
<text text-anchor="middle" x="398" y="-7.5" font-family="Helvetica,sans-Serif" font-size="10.00">_fixedcontent</text>
</a>
</g>
</g>
<!-- Node5&#45;&gt;Node8 -->
<g id="edge8" class="edge">
<title>Node5&#45;&gt;Node8</title>
<path fill="none" stroke="midnightblue" d="M269.15,-52.13C292.05,-45.57 320.37,-37.46 344.52,-30.54"/>
<polygon fill="midnightblue" stroke="midnightblue" points="268.03,-48.82 259.38,-54.94 269.95,-55.55 268.03,-48.82"/>
</g>
</g>
</svg>
