<?xml version="1.0" encoding="UTF-8" standalone="no"?>
<!DOCTYPE svg PUBLIC "-//W3C//DTD SVG 1.1//EN"
 "http://www.w3.org/Graphics/SVG/1.1/DTD/svg11.dtd">
<!-- Generated by graphviz version 2.43.0 (0)
 -->
<!-- Title: idg_parameterized\get_parameter Pages: 1 -->
<svg width="325pt" height="235pt"
 viewBox="0.00 0.00 325.00 235.00" xmlns="http://www.w3.org/2000/svg" xmlns:xlink="http://www.w3.org/1999/xlink">
<g id="graph0" class="graph" transform="scale(1 1) rotate(0) translate(4 231)">
<title>idg_parameterized\get_parameter</title>
<polygon fill="white" stroke="transparent" points="-4,4 -4,-231 321,-231 321,4 -4,4"/>
<!-- Node1 -->
<g id="node1" class="node">
<title>Node1</title>
<g id="a_node1"><a xlink:title="Gets a parameter optionally providing a default value.">
<polygon fill="#bfbfbf" stroke="black" points="190,-98.5 190,-128.5 317,-128.5 317,-98.5 190,-98.5"/>
<text text-anchor="start" x="198" y="-116.5" font-family="Helvetica,sans-Serif" font-size="10.00">idg_parameterized\get</text>
<text text-anchor="middle" x="253.5" y="-105.5" font-family="Helvetica,sans-Serif" font-size="10.00">_parameter</text>
</a>
</g>
</g>
<!-- Node2 -->
<g id="node2" class="node">
<title>Node2</title>
<g id="a_node2"><a xlink:href="classIndigo_1_1Module_1_1Sourcefile_1_1datasource.html#ab9169bfa5e5bb1c8d4326dbef4a231c4" target="_top" xlink:title=" ">
<polygon fill="white" stroke="black" points="8.5,-196.5 8.5,-226.5 145.5,-226.5 145.5,-196.5 8.5,-196.5"/>
<text text-anchor="start" x="16.5" y="-214.5" font-family="Helvetica,sans-Serif" font-size="10.00">Indigo\Module\Sourcefile</text>
<text text-anchor="middle" x="77" y="-203.5" font-family="Helvetica,sans-Serif" font-size="10.00">\datasource\__construct</text>
</a>
</g>
</g>
<!-- Node1&#45;&gt;Node2 -->
<g id="edge1" class="edge">
<title>Node1&#45;&gt;Node2</title>
<path fill="none" stroke="midnightblue" d="M228.31,-135.38C209.28,-151.65 181.46,-173.37 154,-187.5 147.48,-190.85 140.4,-193.85 133.27,-196.49"/>
<polygon fill="midnightblue" stroke="midnightblue" points="230.65,-137.98 235.91,-128.78 226.06,-132.7 230.65,-137.98"/>
</g>
<!-- Node3 -->
<g id="node3" class="node">
<title>Node3</title>
<g id="a_node3"><a xlink:href="classIndigo_1_1Datasource_1_1php.html#a0488e18140adaa6027d467ef5d7dcc71" target="_top" xlink:title=" ">
<polygon fill="white" stroke="black" points="14,-147.5 14,-177.5 140,-177.5 140,-147.5 14,-147.5"/>
<text text-anchor="start" x="22" y="-165.5" font-family="Helvetica,sans-Serif" font-size="10.00">Indigo\Datasource\php</text>
<text text-anchor="middle" x="77" y="-154.5" font-family="Helvetica,sans-Serif" font-size="10.00">\__construct</text>
</a>
</g>
</g>
<!-- Node1&#45;&gt;Node3 -->
<g id="edge2" class="edge">
<title>Node1&#45;&gt;Node3</title>
<path fill="none" stroke="midnightblue" d="M189.03,-131.32C170.19,-136.61 149.75,-142.35 131.6,-147.45"/>
<polygon fill="midnightblue" stroke="midnightblue" points="190.04,-134.67 198.72,-128.6 188.15,-127.94 190.04,-134.67"/>
</g>
<!-- Node4 -->
<g id="node4" class="node">
<title>Node4</title>
<g id="a_node4"><a xlink:href="classIndigo_1_1Datasource_1_1scanlinks.html#a0b175571586483f1ec5c1804fcfa8105" target="_top" xlink:title=" ">
<polygon fill="white" stroke="black" points="0,-98.5 0,-128.5 154,-128.5 154,-98.5 0,-98.5"/>
<text text-anchor="start" x="8" y="-116.5" font-family="Helvetica,sans-Serif" font-size="10.00">Indigo\Datasource\scanlinks</text>
<text text-anchor="middle" x="77" y="-105.5" font-family="Helvetica,sans-Serif" font-size="10.00">\__construct</text>
</a>
</g>
</g>
<!-- Node1&#45;&gt;Node4 -->
<g id="edge3" class="edge">
<title>Node1&#45;&gt;Node4</title>
<path fill="none" stroke="midnightblue" d="M179.76,-113.5C171.28,-113.5 162.61,-113.5 154.09,-113.5"/>
<polygon fill="midnightblue" stroke="midnightblue" points="179.99,-117 189.99,-113.5 179.99,-110 179.99,-117"/>
</g>
<!-- Node5 -->
<g id="node5" class="node">
<title>Node5</title>
<g id="a_node5"><a xlink:href="classIndigo_1_1Datasource_1_1textfile.html#a650a4e3a582d22822ee99f7de5c6c358" target="_top" xlink:title=" ">
<polygon fill="white" stroke="black" points="5.5,-49.5 5.5,-79.5 148.5,-79.5 148.5,-49.5 5.5,-49.5"/>
<text text-anchor="start" x="13.5" y="-67.5" font-family="Helvetica,sans-Serif" font-size="10.00">Indigo\Datasource\textfile</text>
<text text-anchor="middle" x="77" y="-56.5" font-family="Helvetica,sans-Serif" font-size="10.00">\__construct</text>
</a>
</g>
</g>
<!-- Node1&#45;&gt;Node5 -->
<g id="edge4" class="edge">
<title>Node1&#45;&gt;Node5</title>
<path fill="none" stroke="midnightblue" d="M189.03,-95.68C170.19,-90.39 149.75,-84.65 131.6,-79.55"/>
<polygon fill="midnightblue" stroke="midnightblue" points="188.15,-99.06 198.72,-98.4 190.04,-92.33 188.15,-99.06"/>
</g>
<!-- Node6 -->
<g id="node6" class="node">
<title>Node6</title>
<g id="a_node6"><a xlink:href="classIndigo_1_1Datasource_1_1rss.html#ad21a26a3d6304325903cb61aa2f9b154" target="_top" xlink:title=" ">
<polygon fill="white" stroke="black" points="16,-0.5 16,-30.5 138,-30.5 138,-0.5 16,-0.5"/>
<text text-anchor="start" x="24" y="-18.5" font-family="Helvetica,sans-Serif" font-size="10.00">Indigo\Datasource\rss</text>
<text text-anchor="middle" x="77" y="-7.5" font-family="Helvetica,sans-Serif" font-size="10.00">\__construct</text>
</a>
</g>
</g>
<!-- Node1&#45;&gt;Node6 -->
<g id="edge5" class="edge">
<title>Node1&#45;&gt;Node6</title>
<path fill="none" stroke="midnightblue" d="M227.87,-91.73C208.79,-75.78 181.12,-54.54 154,-40.5 146.85,-36.8 139.03,-33.49 131.23,-30.58"/>
<polygon fill="midnightblue" stroke="midnightblue" points="225.6,-94.4 235.49,-98.21 230.14,-89.07 225.6,-94.4"/>
</g>
</g>
</svg>
