<?xml version="1.0" encoding="UTF-8" standalone="no"?>
<!DOCTYPE svg PUBLIC "-//W3C//DTD SVG 1.1//EN"
 "http://www.w3.org/Graphics/SVG/1.1/DTD/svg11.dtd">
<!-- Generated by graphviz version 2.43.0 (0)
 -->
<!-- Title: idg_parameterized Pages: 1 -->
<svg width="516pt" height="230pt"
 viewBox="0.00 0.00 516.00 229.50" xmlns="http://www.w3.org/2000/svg" xmlns:xlink="http://www.w3.org/1999/xlink">
<g id="graph0" class="graph" transform="scale(1 1) rotate(0) translate(4 225.5)">
<title>idg_parameterized</title>
<polygon fill="white" stroke="transparent" points="-4,4 -4,-225.5 512,-225.5 512,4 -4,4"/>
<!-- Node1 -->
<g id="node1" class="node">
<title>Node1</title>
<g id="a_node1"><a xlink:title="Interface for entities that accept parameters.">
<polygon fill="#bfbfbf" stroke="black" points="0,-126 0,-145 108,-145 108,-126 0,-126"/>
<text text-anchor="middle" x="54" y="-133" font-family="Helvetica,sans-Serif" font-size="10.00">idg_parameterized</text>
</a>
</g>
</g>
<!-- Node2 -->
<g id="node2" class="node">
<title>Node2</title>
<g id="a_node2"><a xlink:href="classidg__attribute.html" target="_top" xlink:title="Base class for idg entities with parameters.">
<polygon fill="white" stroke="black" points="191.5,-183 191.5,-202 270.5,-202 270.5,-183 191.5,-183"/>
<text text-anchor="middle" x="231" y="-190" font-family="Helvetica,sans-Serif" font-size="10.00">idg_attribute</text>
</a>
</g>
</g>
<!-- Node1&#45;&gt;Node2 -->
<g id="edge1" class="edge">
<title>Node1&#45;&gt;Node2</title>
<path fill="none" stroke="midnightblue" d="M83.85,-149.44C101.02,-157.32 123.41,-166.89 144,-173.5 159.29,-178.41 176.5,-182.48 191.49,-185.59"/>
<polygon fill="midnightblue" stroke="midnightblue" points="84.94,-146.08 74.39,-145.03 81.98,-152.43 84.94,-146.08"/>
</g>
<!-- Node3 -->
<g id="node3" class="node">
<title>Node3</title>
<g id="a_node3"><a xlink:href="classidg__datasource.html" target="_top" xlink:title="A data source.">
<polygon fill="white" stroke="black" points="185.5,-145 185.5,-164 276.5,-164 276.5,-145 185.5,-145"/>
<text text-anchor="middle" x="231" y="-152" font-family="Helvetica,sans-Serif" font-size="10.00">idg_datasource</text>
</a>
</g>
</g>
<!-- Node1&#45;&gt;Node3 -->
<g id="edge2" class="edge">
<title>Node1&#45;&gt;Node3</title>
<path fill="none" stroke="midnightblue" d="M118.47,-142.39C140.66,-144.8 165.08,-147.45 185.41,-149.66"/>
<polygon fill="midnightblue" stroke="midnightblue" points="118.78,-138.9 108.46,-141.3 118.02,-145.86 118.78,-138.9"/>
</g>
<!-- Node4 -->
<g id="node4" class="node">
<title>Node4</title>
<g id="a_node4"><a xlink:href="classidg__datasource__implementation.html" target="_top" xlink:title="An object instance of a data source.">
<polygon fill="white" stroke="black" points="144,-107 144,-126 318,-126 318,-107 144,-107"/>
<text text-anchor="middle" x="231" y="-114" font-family="Helvetica,sans-Serif" font-size="10.00">idg_datasource_implementation</text>
</a>
</g>
</g>
<!-- Node1&#45;&gt;Node4 -->
<g id="edge3" class="edge">
<title>Node1&#45;&gt;Node4</title>
<path fill="none" stroke="midnightblue" d="M118.42,-128.61C126.73,-127.71 135.36,-126.77 143.97,-125.84"/>
<polygon fill="midnightblue" stroke="midnightblue" points="118.02,-125.14 108.46,-129.7 118.78,-132.1 118.02,-125.14"/>
</g>
<!-- Node11 -->
<g id="node11" class="node">
<title>Node11</title>
<g id="a_node11"><a xlink:href="classidg__fragment.html" target="_top" xlink:title="A fragment produces output, has access to attributes and can also have a data source.">
<polygon fill="white" stroke="black" points="190,-69 190,-88 272,-88 272,-69 190,-69"/>
<text text-anchor="middle" x="231" y="-76" font-family="Helvetica,sans-Serif" font-size="10.00">idg_fragment</text>
</a>
</g>
</g>
<!-- Node1&#45;&gt;Node11 -->
<g id="edge10" class="edge">
<title>Node1&#45;&gt;Node11</title>
<path fill="none" stroke="midnightblue" d="M83.85,-121.56C101.02,-113.68 123.41,-104.11 144,-97.5 158.71,-92.78 175.19,-88.83 189.77,-85.77"/>
<polygon fill="midnightblue" stroke="midnightblue" points="81.98,-118.57 74.39,-125.97 84.94,-124.92 81.98,-118.57"/>
</g>
<!-- Node5 -->
<g id="node5" class="node">
<title>Node5</title>
<g id="a_node5"><a xlink:href="classIndigo_1_1Datasource_1_1php.html" target="_top" xlink:title="Executes a php function and returns the resulting array as tokens.">
<polygon fill="white" stroke="black" points="368,-202 368,-221 494,-221 494,-202 368,-202"/>
<text text-anchor="middle" x="431" y="-209" font-family="Helvetica,sans-Serif" font-size="10.00">Indigo\Datasource\php</text>
</a>
</g>
</g>
<!-- Node4&#45;&gt;Node5 -->
<g id="edge4" class="edge">
<title>Node4&#45;&gt;Node5</title>
<path fill="none" stroke="midnightblue" d="M309.3,-130.26C312.33,-131.82 315.25,-133.57 318,-135.5 342.52,-152.73 329.72,-174.94 354,-192.5 359.4,-196.41 365.52,-199.51 371.88,-201.98"/>
<polygon fill="midnightblue" stroke="midnightblue" points="310.48,-126.95 299.93,-126.05 307.62,-133.34 310.48,-126.95"/>
</g>
<!-- Node6 -->
<g id="node6" class="node">
<title>Node6</title>
<g id="a_node6"><a xlink:href="classIndigo_1_1Datasource_1_1rss.html" target="_top" xlink:title="Retrieves an rss feed and returns the entries as tokens.">
<polygon fill="white" stroke="black" points="370,-164 370,-183 492,-183 492,-164 370,-164"/>
<text text-anchor="middle" x="431" y="-171" font-family="Helvetica,sans-Serif" font-size="10.00">Indigo\Datasource\rss</text>
</a>
</g>
</g>
<!-- Node4&#45;&gt;Node6 -->
<g id="edge5" class="edge">
<title>Node4&#45;&gt;Node6</title>
<path fill="none" stroke="midnightblue" d="M295.79,-128.57C303.36,-130.6 310.91,-132.9 318,-135.5 334.99,-141.73 337.1,-148.04 354,-154.5 363.53,-158.14 374,-161.28 384.04,-163.9"/>
<polygon fill="midnightblue" stroke="midnightblue" points="296.41,-125.12 285.86,-126.07 294.7,-131.91 296.41,-125.12"/>
</g>
<!-- Node7 -->
<g id="node7" class="node">
<title>Node7</title>
<g id="a_node7"><a xlink:href="classIndigo_1_1Datasource_1_1scanlinks.html" target="_top" xlink:title="Scans the html&#45;body stream for links and returns them as tokens.">
<polygon fill="white" stroke="black" points="354,-126 354,-145 508,-145 508,-126 354,-126"/>
<text text-anchor="middle" x="431" y="-133" font-family="Helvetica,sans-Serif" font-size="10.00">Indigo\Datasource\scanlinks</text>
</a>
</g>
</g>
<!-- Node4&#45;&gt;Node7 -->
<g id="edge6" class="edge">
<title>Node4&#45;&gt;Node7</title>
<path fill="none" stroke="midnightblue" d="M328.34,-125.74C336.94,-126.57 345.56,-127.4 353.96,-128.2"/>
<polygon fill="midnightblue" stroke="midnightblue" points="328.56,-122.25 318.27,-124.78 327.89,-129.22 328.56,-122.25"/>
</g>
<!-- Node8 -->
<g id="node8" class="node">
<title>Node8</title>
<g id="a_node8"><a xlink:href="classIndigo_1_1Datasource_1_1text.html" target="_top" xlink:title="Simply quotes its text (set with set_text or per xml chacter data, respectively).">
<polygon fill="white" stroke="black" points="367,-88 367,-107 495,-107 495,-88 367,-88"/>
<text text-anchor="middle" x="431" y="-95" font-family="Helvetica,sans-Serif" font-size="10.00">Indigo\Datasource\text</text>
</a>
</g>
</g>
<!-- Node4&#45;&gt;Node8 -->
<g id="edge7" class="edge">
<title>Node4&#45;&gt;Node8</title>
<path fill="none" stroke="midnightblue" d="M328.28,-107.26C341.41,-106 354.61,-104.73 366.94,-103.55"/>
<polygon fill="midnightblue" stroke="midnightblue" points="327.89,-103.78 318.27,-108.22 328.56,-110.75 327.89,-103.78"/>
</g>
<!-- Node9 -->
<g id="node9" class="node">
<title>Node9</title>
<g id="a_node9"><a xlink:href="classIndigo_1_1Datasource_1_1textfile.html" target="_top" xlink:title="Returns the content of a (normally text) file.">
<polygon fill="white" stroke="black" points="359.5,-50 359.5,-69 502.5,-69 502.5,-50 359.5,-50"/>
<text text-anchor="middle" x="431" y="-57" font-family="Helvetica,sans-Serif" font-size="10.00">Indigo\Datasource\textfile</text>
</a>
</g>
</g>
<!-- Node4&#45;&gt;Node9 -->
<g id="edge8" class="edge">
<title>Node4&#45;&gt;Node9</title>
<path fill="none" stroke="midnightblue" d="M295.79,-104.43C303.36,-102.4 310.91,-100.1 318,-97.5 334.99,-91.27 337.1,-84.96 354,-78.5 363.53,-74.86 374,-71.72 384.04,-69.1"/>
<polygon fill="midnightblue" stroke="midnightblue" points="294.7,-101.09 285.86,-106.93 296.41,-107.88 294.7,-101.09"/>
</g>
<!-- Node10 -->
<g id="node10" class="node">
<title>Node10</title>
<g id="a_node10"><a xlink:href="classIndigo_1_1Module_1_1Sourcefile_1_1datasource.html" target="_top" xlink:title=" ">
<polygon fill="white" stroke="black" points="362.5,-0.5 362.5,-30.5 499.5,-30.5 499.5,-0.5 362.5,-0.5"/>
<text text-anchor="start" x="370.5" y="-18.5" font-family="Helvetica,sans-Serif" font-size="10.00">Indigo\Module\Sourcefile</text>
<text text-anchor="middle" x="431" y="-7.5" font-family="Helvetica,sans-Serif" font-size="10.00">\datasource</text>
</a>
</g>
</g>
<!-- Node4&#45;&gt;Node10 -->
<g id="edge9" class="edge">
<title>Node4&#45;&gt;Node10</title>
<path fill="none" stroke="midnightblue" d="M309.3,-102.74C312.33,-101.18 315.25,-99.43 318,-97.5 342.52,-80.27 330.38,-58.93 354,-40.5 358.93,-36.65 364.47,-33.39 370.26,-30.62"/>
<polygon fill="midnightblue" stroke="midnightblue" points="307.62,-99.66 299.93,-106.95 310.48,-106.05 307.62,-99.66"/>
</g>
</g>
</svg>
